M48
;DRILL file {KiCad (5.0.1-3-g963ef8bb5)} date 2019 March 04, Monday 21:03:34
;FORMAT={-:-/ absolute / metric / decimal}
FMAT,2
METRIC,TZ
T1C0.300
T2C0.400
T3C0.450
%
G90
G05
M71
T1
X22.Y-46.5
X22.1Y-36.3
X22.5Y-33.75
X22.5Y-38.5
X22.5Y-61.75
X25.Y-65.25
X25.197Y-23.36
X25.25Y-38.
X25.5Y-50.923
X29.25Y-29.25
X29.466Y-36.329
X29.75Y-38.25
X30.25Y-41.25
X30.5Y-32.5
X30.951Y-40.701
X34.5Y-38.375
X36.6Y-38.375
X37.3Y-33.8
X37.5Y-32.5
X39.Y-38.2
X42.205Y-35.995
X45.Y-22.8
X45.526Y-26.126
X45.674Y-36.674
X45.75Y-44.
X46.2Y-29.8
X47.2Y-43.3
X47.4Y-24.875
X52.75Y-36.75
X53.Y-31.6
X53.Y-38.25
X53.Y-46.5
X53.004Y-39.629
X53.4Y-41.5
X54.6Y-27.75
X55.Y-24.5
X58.075Y-31.6
X58.103Y-39.616
X58.2Y-33.325
X60.8Y-32.
X63.4Y-31.575
X78.808Y-55.291
X83.5Y-53.7
X86.5Y-45.5
X97.4Y-52.375
X97.525Y-53.674
X98.6Y-50.1
X98.6Y-56.8
X98.8Y-43.
X100.212Y-55.222
X100.6Y-51.175
X101.3Y-46.
X103.Y-48.6
X105.8Y-42.8
X105.8Y-56.9
X106.5Y-52.375
X106.9Y-53.8
X107.302Y-55.206
X108.Y-46.
X109.9Y-48.6
X110.2Y-50.3
X110.597Y-41.75
X112.286Y-56.873
X116.Y-50.675
X123.Y-50.6
T2
X56.9Y-45.6
X100.Y-45.5
X127.25Y-26.
X128.15Y-40.6
X128.15Y-54.6
X128.15Y-68.6
X130.25Y-30.25
X130.25Y-58.
X130.25Y-72.
X130.5Y-43.75
X159.Y-45.75
X183.75Y-26.75
X183.75Y-40.75
X183.75Y-54.75
X183.75Y-68.75
X186.25Y-57.75
X186.25Y-71.75
X186.5Y-30.
X186.5Y-44.
T3
X21.25Y-29.5
X21.8Y-56.8
X22.25Y-23.75
X25.75Y-77.
X29.25Y-24.
X30.9Y-46.6
X32.75Y-77.
X32.864Y-46.141
X36.6Y-23.6
X37.5Y-47.
X38.Y-60.5
X39.633Y-45.867
X39.75Y-77.
X43.5Y-24.
X44.5Y-60.75
X46.112Y-61.6
X46.112Y-68.6
X46.75Y-77.
X51.5Y-61.
X51.75Y-24.5
X52.6Y-58.6
X53.75Y-77.
X58.447Y-24.482
X58.5Y-61.
X60.75Y-77.
X64.5Y-24.
X65.8Y-45.3
X67.75Y-77.
X70.7Y-28.038
X71.5Y-24.
X73.6Y-58.5
X74.6Y-60.1
X74.75Y-77.
X78.5Y-24.
X81.75Y-77.
X85.Y-36.
X85.Y-59.8
X85.5Y-24.
X86.6Y-23.
X88.75Y-77.
X91.9Y-36.
X92.5Y-24.
X95.75Y-77.
X96.8Y-55.4
X99.5Y-24.
X101.5Y-58.5
X102.75Y-77.
X106.5Y-24.
X109.75Y-77.
X112.038Y-49.038
X113.5Y-24.
X116.75Y-77.
X120.5Y-24.
X123.75Y-77.
X127.5Y-24.
X130.75Y-77.
X134.5Y-24.
X137.75Y-77.
X141.5Y-24.
X144.75Y-77.
X148.5Y-24.
X151.75Y-77.
X155.5Y-24.
X158.75Y-77.
X162.5Y-24.
X165.75Y-77.
X169.5Y-24.
X172.75Y-77.
X175.25Y-36.25
X175.5Y-50.5
X175.5Y-64.5
X176.5Y-24.
X176.5Y-31.25
X176.5Y-45.
X176.5Y-59.
X176.5Y-73.
X179.5Y-46.75
X179.75Y-32.75
X179.75Y-60.75
X179.75Y-67.75
X179.75Y-74.75
X179.75Y-77.
X180.Y-25.825
X180.Y-39.825
X180.Y-53.75
X183.5Y-23.25
X186.5Y-25.75
X186.75Y-77.
T0
M30
