M48
;DRILL file {KiCad (5.0.1-3-g963ef8bb5)} date 2019 May 25, Saturday 20:20:33
;FORMAT={-:-/ absolute / metric / decimal}
FMAT,2
METRIC,TZ
T1C0.200
T2C0.300
T3C0.450
%
G90
G05
M71
T1
X54.6Y-114.3
X56.175Y-114.275
X56.593Y-96.55
X56.7Y-98.15
X56.9Y-70.9
X58.2Y-89.
X58.35Y-77.2
X58.35Y-83.2
X58.35Y-95.2
X58.35Y-101.2
X58.825Y-107.05
X59.6Y-74.8
X60.6Y-114.3
X61.625Y-106.3
X63.3Y-97.55
X64.Y-94.1
X64.2Y-87.2
X64.3Y-77.2
X64.3Y-83.2
X64.3Y-89.2
X64.3Y-101.2
X64.3Y-107.2
X64.472Y-94.843
X66.6Y-114.3
X67.425Y-105.95
X69.3Y-97.3
X70.1Y-95.
X70.35Y-77.2
X70.35Y-83.2
X70.35Y-89.2
X70.35Y-101.2
X70.35Y-107.2
X70.5Y-87.2
X72.Y-96.1
X72.6Y-113.3
X73.35Y-105.65
X75.3Y-97.
X75.9Y-70.7
X76.3Y-77.2
X76.3Y-83.2
X76.3Y-95.2
X76.3Y-101.2
X76.3Y-107.2
X76.6Y-89.2
X78.371Y-95.771
X78.6Y-113.3
X79.35Y-105.35
X81.45Y-96.7
X82.345Y-83.214
X82.35Y-77.2
X82.35Y-89.2
X82.35Y-95.2
X82.35Y-101.2
X82.35Y-107.2
X82.5Y-86.
X82.55Y-82.65
X82.575Y-84.3
X82.774Y-83.7
X83.Y-79.4
X83.Y-88.1
X83.1Y-74.85
X83.1Y-75.65
X83.147Y-84.65
X83.7Y-92.2
X84.Y-70.3
X84.1Y-74.15
X84.6Y-113.3
X85.35Y-105.05
X86.6Y-72.5
X86.7Y-95.95
X88.3Y-89.2
X88.3Y-95.2
X88.3Y-101.2
X88.3Y-107.2
X88.55Y-88.1
X89.5Y-74.95
X89.5Y-76.15
X89.9Y-74.3
X89.95Y-77.15
X89.95Y-83.15
X89.95Y-84.2
X90.Y-108.9
X90.025Y-85.
X90.29Y-82.647
X90.35Y-83.7
X90.6Y-113.3
X91.35Y-104.6
X92.7Y-95.95
X94.35Y-77.2
X94.35Y-83.2
X94.35Y-95.2
X94.35Y-101.2
X94.35Y-107.2
X94.6Y-89.95
X95.3Y-103.6
X95.4Y-75.2
X96.6Y-113.3
X97.35Y-104.25
X98.7Y-95.7
X100.3Y-83.2
X100.3Y-95.2
X100.3Y-101.2
X100.3Y-107.2
X100.3Y-110.4
X100.4Y-89.95
X100.9Y-91.3
X100.9Y-77.6
X101.4Y-111.8
X101.8Y-72.9
X102.525Y-110.3
X103.35Y-99.7
X104.975Y-89.95
X105.4Y-93.
X106.35Y-89.2
X106.35Y-95.2
X106.35Y-101.2
X106.35Y-107.2
X106.5Y-111.8
X106.9Y-83.2
X106.9Y-87.3
X107.2Y-77.2
X108.Y-93.5
X108.525Y-110.8
X109.35Y-99.1
X111.Y-91.85
X112.3Y-77.2
X112.3Y-83.35
X112.3Y-89.2
X112.3Y-95.2
X112.3Y-101.2
X112.3Y-107.2
X113.Y-78.45
X113.Y-84.7
X113.4Y-102.6
X113.7Y-78.9
X113.7Y-84.3
X114.1Y-113.3
X114.2Y-77.9
X114.2Y-83.9
X114.35Y-95.7
X114.434Y-89.865
X114.525Y-111.3
X115.342Y-100.7
X116.09Y-104.248
X116.1Y-109.8
X116.108Y-99.646
X116.118Y-110.418
X116.13Y-93.954
X116.264Y-91.906
X116.646Y-98.646
X116.688Y-104.305
X117.2Y-110.379
X117.2Y-112.28
X117.36Y-94.71
X117.377Y-90.646
X117.377Y-99.646
X117.415Y-104.992
X117.5Y-112.8
X117.751Y-94.24
X118.Y-91.775
X118.012Y-99.646
X118.014Y-104.954
X118.1Y-109.8
X118.1Y-112.8
X118.35Y-77.2
X118.35Y-83.35
X118.35Y-89.2
X118.35Y-101.2
X118.35Y-107.2
X118.63Y-105.65
X118.647Y-99.646
X118.7Y-91.6
X118.7Y-94.7
X118.724Y-113.029
X118.825Y-109.8
X119.1Y-81.8
X119.266Y-105.766
X119.282Y-95.954
X119.282Y-99.646
X119.282Y-113.954
X119.3Y-91.6
X119.3Y-94.7
X119.425Y-109.8
X119.6Y-82.297
X119.8Y-102.8
X119.896Y-113.995
X119.9Y-97.7
X119.9Y-99.646
X119.916Y-105.752
X119.917Y-95.954
X119.989Y-91.775
X120.025Y-109.8
X120.063Y-88.315
X120.1Y-82.8
X120.446Y-100.754
X120.496Y-105.904
X120.5Y-112.779
X120.525Y-111.321
X120.557Y-114.366
X120.9Y-92.3
X121.1Y-98.
X121.1Y-109.821
X121.188Y-99.646
X121.188Y-104.954
X121.474Y-91.832
X121.822Y-104.954
X122.Y-103.4
X122.Y-106.7
X122.1Y-98.2
X122.225Y-97.2
X122.225Y-115.128
X122.7Y-93.95
X123.9Y-107.2
X124.3Y-77.2
X124.3Y-83.35
X124.3Y-89.2
X124.3Y-95.2
X124.3Y-101.2
X126.024Y-97.3
X126.4Y-113.2
X127.35Y-98.6
X128.7Y-93.65
X130.35Y-77.2
X130.35Y-83.35
X130.35Y-89.2
X130.35Y-95.2
X130.35Y-101.2
X130.5Y-111.9
X131.Y-90.4
X132.6Y-112.8
X134.4Y-102.725
X134.7Y-93.35
X136.3Y-77.2
X136.3Y-83.35
X136.3Y-89.2
X136.3Y-95.2
X136.3Y-101.2
X136.3Y-107.2
X137.Y-76.6
X137.3Y-89.8
X138.6Y-112.8
X140.175Y-102.275
X140.7Y-92.95
X142.35Y-77.2
X142.35Y-83.35
X142.35Y-89.2
X142.35Y-95.2
X142.35Y-101.2
X142.35Y-107.2
X143.3Y-72.9
X143.3Y-85.1
X143.4Y-98.2
X143.4Y-106.3
X143.5Y-91.607
X144.6Y-112.8
X145.625Y-100.3
X146.7Y-92.15
X148.3Y-77.2
X148.3Y-83.35
X148.3Y-89.2
X148.3Y-95.2
X148.3Y-101.2
X148.3Y-107.2
X150.9Y-113.1
X151.425Y-106.1
X153.35Y-97.5
X154.35Y-77.2
X154.35Y-83.35
X154.35Y-89.2
X154.35Y-95.2
X154.35Y-101.2
X154.35Y-107.2
X155.5Y-72.9
X155.5Y-85.1
X157.Y-113.2
X157.35Y-105.9
X159.2Y-97.65
X160.3Y-77.2
X160.3Y-83.35
X160.3Y-89.2
X160.3Y-95.2
X160.3Y-101.2
X160.3Y-107.2
X161.8Y-97.75
X162.8Y-113.2
X163.35Y-105.5
X165.5Y-97.35
X166.35Y-77.2
X166.35Y-83.35
X166.35Y-89.2
X166.35Y-95.2
X166.35Y-101.2
X166.35Y-107.2
X167.6Y-72.9
X167.6Y-85.1
X168.8Y-113.2
X169.35Y-105.2
X171.3Y-96.55
X172.3Y-77.2
X172.3Y-83.35
X172.3Y-89.2
X172.3Y-95.2
X172.3Y-101.2
X172.3Y-107.2
X173.9Y-95.7
X174.7Y-113.2
X175.35Y-105.
X176.7Y-94.3
X178.35Y-77.2
X178.35Y-83.35
X178.35Y-89.2
X178.35Y-95.2
X178.35Y-101.2
X178.35Y-107.2
X179.5Y-72.9
X179.5Y-85.1
X180.8Y-113.2
X181.35Y-104.7
X182.7Y-93.8
X183.9Y-73.8
X184.3Y-77.2
X184.3Y-83.35
X184.3Y-89.2
X184.3Y-95.2
X184.3Y-101.2
X184.3Y-107.2
X185.Y-78.9
X185.2Y-72.2
X185.6Y-73.9
X185.6Y-80.8
X187.35Y-104.4
X187.35Y-112.95
X188.143Y-73.634
X188.3Y-79.35
X188.7Y-95.7
X190.35Y-77.2
X190.35Y-83.35
X190.35Y-89.2
X190.35Y-95.2
X190.35Y-101.2
X190.35Y-107.2
X191.5Y-72.9
X191.5Y-85.1
X192.8Y-113.6
X193.35Y-104.1
X194.9Y-96.15
X196.3Y-77.2
X196.3Y-83.35
X196.3Y-89.2
X196.3Y-95.2
X196.3Y-101.2
X196.3Y-107.2
X196.7Y-92.95
X198.65Y-108.2
X199.35Y-99.1
X201.3Y-91.3
X202.35Y-77.2
X202.35Y-83.35
X202.35Y-89.2
X202.35Y-95.2
X202.35Y-101.2
X202.35Y-107.2
X203.6Y-72.9
X203.6Y-85.1
X204.785Y-107.7
X205.35Y-98.95
X206.95Y-91.9
X208.3Y-77.2
X208.3Y-83.35
X208.3Y-89.2
X208.3Y-95.2
X208.3Y-101.2
X208.9Y-110.1
X209.9Y-98.95
X210.525Y-110.3
X211.35Y-98.95
X214.35Y-77.2
X214.35Y-83.35
X214.35Y-89.2
X214.35Y-95.2
X214.35Y-101.2
X214.35Y-107.2
X215.7Y-95.3
X215.8Y-99.4
X215.9Y-100.
X216.Y-81.8
X216.Y-90.4
X216.025Y-91.1
X216.025Y-92.
X216.025Y-93.83
X216.025Y-97.45
X216.025Y-104.2
X216.025Y-108.9
X216.026Y-96.296
X216.171Y-107.971
X216.2Y-113.75
X216.525Y-110.8
X216.596Y-112.904
X218.182Y-103.753
X218.19Y-112.168
X218.225Y-101.7
X218.226Y-103.154
X218.323Y-98.95
X218.364Y-108.992
X218.975Y-108.999
X219.012Y-91.046
X219.2Y-94.28
X219.2Y-112.021
X219.204Y-103.904
X219.5Y-94.8
X219.6Y-93.4
X219.6Y-112.825
X219.647Y-99.746
X219.647Y-105.054
X219.7Y-92.1
X219.766Y-110.008
X220.2Y-112.825
X220.282Y-99.746
X220.282Y-105.054
X220.3Y-77.2
X220.3Y-83.35
X220.3Y-89.2
X220.3Y-101.2
X220.3Y-107.2
X220.374Y-109.96
X220.409Y-92.066
X220.8Y-95.1
X220.9Y-113.5
X220.917Y-91.046
X220.917Y-96.354
X220.917Y-99.746
X220.917Y-105.054
X220.917Y-108.999
X221.1Y-102.
X221.2Y-84.1
X221.4Y-107.7
X221.436Y-98.112
X221.552Y-91.046
X221.552Y-96.354
X221.552Y-99.746
X221.552Y-105.054
X221.552Y-108.999
X221.552Y-114.307
X221.8Y-83.8
X222.Y-103.2
X222.025Y-98.
X222.085Y-106.362
X222.171Y-89.971
X222.188Y-114.307
X222.489Y-95.1
X222.5Y-113.
X222.525Y-112.125
X223.625Y-106.3
X224.6Y-72.2
X224.7Y-93.75
X226.35Y-77.2
X226.35Y-83.2
X226.35Y-89.2
X226.35Y-95.2
X226.35Y-101.2
X226.35Y-107.2
X226.8Y-74.8
X227.2Y-76.1
X227.2Y-78.9
X227.3Y-81.
X227.9Y-79.1
X227.9Y-81.3
X228.525Y-111.65
X229.35Y-103.75
X230.5Y-71.8
X230.7Y-93.3
X231.9Y-94.7
X232.3Y-77.2
X232.3Y-83.2
X232.3Y-89.2
X232.3Y-107.2
X232.4Y-101.5
X233.Y-72.
X233.5Y-71.6
X233.5Y-72.7
X233.5Y-99.8
X233.6Y-85.9
X234.Y-72.
X234.525Y-111.2
X235.9Y-103.3
X236.3Y-71.8
X236.7Y-92.8
X238.3Y-113.2
X238.35Y-83.2
X238.35Y-89.2
X238.35Y-95.2
X238.35Y-101.2
X238.35Y-107.2
X238.4Y-78.1
X238.8Y-72.4
X239.Y-78.4
X239.439Y-72.63
X239.975Y-73.154
X240.525Y-110.7
X240.7Y-70.325
X242.1Y-80.416
X242.175Y-102.275
X242.286Y-79.788
X242.5Y-79.
X243.25Y-92.3
X244.3Y-77.2
X244.3Y-83.2
X244.3Y-89.2
X244.3Y-95.2
X244.3Y-101.2
X244.3Y-107.2
T2
X71.8Y-72.9
X76.3Y-75.
X77.6Y-75.6
X80.7Y-72.3
T3
X57.525Y-92.558
X58.3Y-111.7
X59.533Y-71.833
X64.3Y-81.6
X64.4Y-99.4
X65.05Y-90.6
X65.608Y-114.092
X70.4Y-81.5
X70.4Y-99.3
X71.039Y-109.525
X71.6Y-90.3
X77.7Y-90.669
X83.5Y-72.1
X101.4Y-99.2
X101.5Y-86.3
X101.7Y-71.7
X106.35Y-99.3
X112.3Y-111.7
X117.9Y-87.4
X124.Y-99.5
X124.1Y-104.9
X124.993Y-90.277
X125.2Y-113.4
X125.4Y-96.2
X125.718Y-104.005
X125.9Y-107.4
X130.22Y-105.525
X131.4Y-113.
X131.6Y-99.4
X135.7Y-104.8
X135.7Y-111.2
X136.1Y-93.65
X182.1Y-87.6
X191.6Y-90.9
X224.617Y-109.033
X225.525Y-99.9
X226.3Y-92.1
X227.7Y-97.8
X230.6Y-73.4
X236.6Y-73.3
X241.9Y-74.5
X243.033Y-70.367
T0
M30
