G04 #@! TF.GenerationSoftware,KiCad,Pcbnew,(5.0.1-3-g963ef8bb5)*
G04 #@! TF.CreationDate,2019-06-13T10:21:43+02:00*
G04 #@! TF.ProjectId,cz19-badge,637A31392D62616467652E6B69636164,rev?*
G04 #@! TF.SameCoordinates,PXea38f00PY6fddb20*
G04 #@! TF.FileFunction,Soldermask,Bot*
G04 #@! TF.FilePolarity,Negative*
%FSLAX46Y46*%
G04 Gerber Fmt 4.6, Leading zero omitted, Abs format (unit mm)*
G04 Created by KiCad (PCBNEW (5.0.1-3-g963ef8bb5)) date 2019 June 13, Thursday 10:21:43*
%MOMM*%
%LPD*%
G01*
G04 APERTURE LIST*
%ADD10C,0.200000*%
%ADD11C,0.100000*%
G04 APERTURE END LIST*
D10*
X-78577620Y30764286D02*
X-78539524Y30726191D01*
X-78425239Y30688096D01*
X-78349048Y30688096D01*
X-78234762Y30726191D01*
X-78158572Y30802381D01*
X-78120477Y30878572D01*
X-78082381Y31030953D01*
X-78082381Y31145239D01*
X-78120477Y31297620D01*
X-78158572Y31373810D01*
X-78234762Y31450000D01*
X-78349048Y31488096D01*
X-78425239Y31488096D01*
X-78539524Y31450000D01*
X-78577620Y31411905D01*
X-78844286Y31488096D02*
X-79377620Y31488096D01*
X-78844286Y30688096D01*
X-79377620Y30688096D01*
X-80101429Y30688096D02*
X-79644286Y30688096D01*
X-79872858Y30688096D02*
X-79872858Y31488096D01*
X-79796667Y31373810D01*
X-79720477Y31297620D01*
X-79644286Y31259524D01*
X-80482381Y30688096D02*
X-80634762Y30688096D01*
X-80710953Y30726191D01*
X-80749048Y30764286D01*
X-80825239Y30878572D01*
X-80863334Y31030953D01*
X-80863334Y31335715D01*
X-80825239Y31411905D01*
X-80787143Y31450000D01*
X-80710953Y31488096D01*
X-80558572Y31488096D01*
X-80482381Y31450000D01*
X-80444286Y31411905D01*
X-80406191Y31335715D01*
X-80406191Y31145239D01*
X-80444286Y31069048D01*
X-80482381Y31030953D01*
X-80558572Y30992858D01*
X-80710953Y30992858D01*
X-80787143Y31030953D01*
X-80825239Y31069048D01*
X-80863334Y31145239D01*
X-82234762Y30688096D02*
X-81777620Y30688096D01*
X-82006191Y30688096D02*
X-82006191Y31488096D01*
X-81930000Y31373810D01*
X-81853810Y31297620D01*
X-81777620Y31259524D01*
X-82501429Y31488096D02*
X-82996667Y31488096D01*
X-82730000Y31183334D01*
X-82844286Y31183334D01*
X-82920477Y31145239D01*
X-82958572Y31107143D01*
X-82996667Y31030953D01*
X-82996667Y30840477D01*
X-82958572Y30764286D01*
X-82920477Y30726191D01*
X-82844286Y30688096D01*
X-82615715Y30688096D01*
X-82539524Y30726191D01*
X-82501429Y30764286D01*
X-83263334Y31488096D02*
X-83758572Y31488096D01*
X-83491905Y31183334D01*
X-83606191Y31183334D01*
X-83682381Y31145239D01*
X-83720477Y31107143D01*
X-83758572Y31030953D01*
X-83758572Y30840477D01*
X-83720477Y30764286D01*
X-83682381Y30726191D01*
X-83606191Y30688096D01*
X-83377620Y30688096D01*
X-83301429Y30726191D01*
X-83263334Y30764286D01*
X-84025239Y31488096D02*
X-84558572Y31488096D01*
X-84215715Y30688096D01*
X-85472858Y30688096D02*
X-85472858Y31488096D01*
X-85472858Y31183334D02*
X-85549048Y31221429D01*
X-85701429Y31221429D01*
X-85777620Y31183334D01*
X-85815715Y31145239D01*
X-85853810Y31069048D01*
X-85853810Y30840477D01*
X-85815715Y30764286D01*
X-85777620Y30726191D01*
X-85701429Y30688096D01*
X-85549048Y30688096D01*
X-85472858Y30726191D01*
X-86539524Y30688096D02*
X-86539524Y31107143D01*
X-86501429Y31183334D01*
X-86425239Y31221429D01*
X-86272858Y31221429D01*
X-86196667Y31183334D01*
X-86539524Y30726191D02*
X-86463334Y30688096D01*
X-86272858Y30688096D01*
X-86196667Y30726191D01*
X-86158572Y30802381D01*
X-86158572Y30878572D01*
X-86196667Y30954762D01*
X-86272858Y30992858D01*
X-86463334Y30992858D01*
X-86539524Y31030953D01*
X-87263334Y30688096D02*
X-87263334Y31488096D01*
X-87263334Y30726191D02*
X-87187143Y30688096D01*
X-87034762Y30688096D01*
X-86958572Y30726191D01*
X-86920477Y30764286D01*
X-86882381Y30840477D01*
X-86882381Y31069048D01*
X-86920477Y31145239D01*
X-86958572Y31183334D01*
X-87034762Y31221429D01*
X-87187143Y31221429D01*
X-87263334Y31183334D01*
X-87987143Y31221429D02*
X-87987143Y30573810D01*
X-87949048Y30497620D01*
X-87910953Y30459524D01*
X-87834762Y30421429D01*
X-87720477Y30421429D01*
X-87644286Y30459524D01*
X-87987143Y30726191D02*
X-87910953Y30688096D01*
X-87758572Y30688096D01*
X-87682381Y30726191D01*
X-87644286Y30764286D01*
X-87606191Y30840477D01*
X-87606191Y31069048D01*
X-87644286Y31145239D01*
X-87682381Y31183334D01*
X-87758572Y31221429D01*
X-87910953Y31221429D01*
X-87987143Y31183334D01*
X-88672858Y30726191D02*
X-88596667Y30688096D01*
X-88444286Y30688096D01*
X-88368096Y30726191D01*
X-88330000Y30802381D01*
X-88330000Y31107143D01*
X-88368096Y31183334D01*
X-88444286Y31221429D01*
X-88596667Y31221429D01*
X-88672858Y31183334D01*
X-88710953Y31107143D01*
X-88710953Y31030953D01*
X-88330000Y30954762D01*
X-89663334Y31221429D02*
X-89663334Y30421429D01*
X-89663334Y31183334D02*
X-89739524Y31221429D01*
X-89891905Y31221429D01*
X-89968096Y31183334D01*
X-90006191Y31145239D01*
X-90044286Y31069048D01*
X-90044286Y30840477D01*
X-90006191Y30764286D01*
X-89968096Y30726191D01*
X-89891905Y30688096D01*
X-89739524Y30688096D01*
X-89663334Y30726191D01*
X-90387143Y30688096D02*
X-90387143Y31221429D01*
X-90387143Y31069048D02*
X-90425239Y31145239D01*
X-90463334Y31183334D01*
X-90539524Y31221429D01*
X-90615715Y31221429D01*
X-90996667Y30688096D02*
X-90920477Y30726191D01*
X-90882381Y30764286D01*
X-90844286Y30840477D01*
X-90844286Y31069048D01*
X-90882381Y31145239D01*
X-90920477Y31183334D01*
X-90996667Y31221429D01*
X-91110953Y31221429D01*
X-91187143Y31183334D01*
X-91225239Y31145239D01*
X-91263334Y31069048D01*
X-91263334Y30840477D01*
X-91225239Y30764286D01*
X-91187143Y30726191D01*
X-91110953Y30688096D01*
X-90996667Y30688096D01*
X-91491905Y31221429D02*
X-91796667Y31221429D01*
X-91606191Y31488096D02*
X-91606191Y30802381D01*
X-91644286Y30726191D01*
X-91720477Y30688096D01*
X-91796667Y30688096D01*
X-92177620Y30688096D02*
X-92101429Y30726191D01*
X-92063334Y30764286D01*
X-92025239Y30840477D01*
X-92025239Y31069048D01*
X-92063334Y31145239D01*
X-92101429Y31183334D01*
X-92177620Y31221429D01*
X-92291905Y31221429D01*
X-92368096Y31183334D01*
X-92406191Y31145239D01*
X-92444286Y31069048D01*
X-92444286Y30840477D01*
X-92406191Y30764286D01*
X-92368096Y30726191D01*
X-92291905Y30688096D01*
X-92177620Y30688096D01*
X-78044286Y29821429D02*
X-78234762Y29288096D01*
X-78425239Y29821429D01*
X-78882381Y30088096D02*
X-78958572Y30088096D01*
X-79034762Y30050000D01*
X-79072858Y30011905D01*
X-79110953Y29935715D01*
X-79149048Y29783334D01*
X-79149048Y29592858D01*
X-79110953Y29440477D01*
X-79072858Y29364286D01*
X-79034762Y29326191D01*
X-78958572Y29288096D01*
X-78882381Y29288096D01*
X-78806191Y29326191D01*
X-78768096Y29364286D01*
X-78730000Y29440477D01*
X-78691905Y29592858D01*
X-78691905Y29783334D01*
X-78730000Y29935715D01*
X-78768096Y30011905D01*
X-78806191Y30050000D01*
X-78882381Y30088096D01*
X-79491905Y29364286D02*
X-79530000Y29326191D01*
X-79491905Y29288096D01*
X-79453810Y29326191D01*
X-79491905Y29364286D01*
X-79491905Y29288096D01*
X-79834762Y30011905D02*
X-79872858Y30050000D01*
X-79949048Y30088096D01*
X-80139524Y30088096D01*
X-80215715Y30050000D01*
X-80253810Y30011905D01*
X-80291905Y29935715D01*
X-80291905Y29859524D01*
X-80253810Y29745239D01*
X-79796667Y29288096D01*
X-80291905Y29288096D01*
X-81587143Y29288096D02*
X-81587143Y29707143D01*
X-81549048Y29783334D01*
X-81472858Y29821429D01*
X-81320477Y29821429D01*
X-81244286Y29783334D01*
X-81587143Y29326191D02*
X-81510953Y29288096D01*
X-81320477Y29288096D01*
X-81244286Y29326191D01*
X-81206191Y29402381D01*
X-81206191Y29478572D01*
X-81244286Y29554762D01*
X-81320477Y29592858D01*
X-81510953Y29592858D01*
X-81587143Y29630953D01*
X-81968096Y29288096D02*
X-81968096Y30088096D01*
X-82044286Y29592858D02*
X-82272858Y29288096D01*
X-82272858Y29821429D02*
X-81968096Y29516667D01*
X-82958572Y29288096D02*
X-82958572Y29707143D01*
X-82920477Y29783334D01*
X-82844286Y29821429D01*
X-82691905Y29821429D01*
X-82615715Y29783334D01*
X-82958572Y29326191D02*
X-82882381Y29288096D01*
X-82691905Y29288096D01*
X-82615715Y29326191D01*
X-82577620Y29402381D01*
X-82577620Y29478572D01*
X-82615715Y29554762D01*
X-82691905Y29592858D01*
X-82882381Y29592858D01*
X-82958572Y29630953D01*
X-84177620Y30050000D02*
X-84177620Y30088096D01*
X-84215715Y30164286D01*
X-84253810Y30202381D01*
X-83872858Y30050000D02*
X-83872858Y30088096D01*
X-83910953Y30164286D01*
X-83949048Y30202381D01*
X-84825239Y29707143D02*
X-84558572Y29707143D01*
X-84558572Y29288096D02*
X-84558572Y30088096D01*
X-84939524Y30088096D01*
X-85358572Y29288096D02*
X-85282381Y29326191D01*
X-85244286Y29364286D01*
X-85206191Y29440477D01*
X-85206191Y29669048D01*
X-85244286Y29745239D01*
X-85282381Y29783334D01*
X-85358572Y29821429D01*
X-85472858Y29821429D01*
X-85549048Y29783334D01*
X-85587143Y29745239D01*
X-85625239Y29669048D01*
X-85625239Y29440477D01*
X-85587143Y29364286D01*
X-85549048Y29326191D01*
X-85472858Y29288096D01*
X-85358572Y29288096D01*
X-85968096Y29288096D02*
X-85968096Y29821429D01*
X-85968096Y29669048D02*
X-86006191Y29745239D01*
X-86044286Y29783334D01*
X-86120477Y29821429D01*
X-86196667Y29821429D01*
X-86463334Y29288096D02*
X-86463334Y29821429D01*
X-86463334Y29669048D02*
X-86501429Y29745239D01*
X-86539524Y29783334D01*
X-86615715Y29821429D01*
X-86691905Y29821429D01*
X-87263334Y29326191D02*
X-87187143Y29288096D01*
X-87034762Y29288096D01*
X-86958572Y29326191D01*
X-86920477Y29402381D01*
X-86920477Y29707143D01*
X-86958572Y29783334D01*
X-87034762Y29821429D01*
X-87187143Y29821429D01*
X-87263334Y29783334D01*
X-87301429Y29707143D01*
X-87301429Y29630953D01*
X-86920477Y29554762D01*
X-87606191Y29326191D02*
X-87682381Y29288096D01*
X-87834762Y29288096D01*
X-87910953Y29326191D01*
X-87949048Y29402381D01*
X-87949048Y29440477D01*
X-87910953Y29516667D01*
X-87834762Y29554762D01*
X-87720477Y29554762D01*
X-87644286Y29592858D01*
X-87606191Y29669048D01*
X-87606191Y29707143D01*
X-87644286Y29783334D01*
X-87720477Y29821429D01*
X-87834762Y29821429D01*
X-87910953Y29783334D01*
X-88177620Y29821429D02*
X-88482381Y29821429D01*
X-88291905Y30088096D02*
X-88291905Y29402381D01*
X-88330000Y29326191D01*
X-88406191Y29288096D01*
X-88482381Y29288096D01*
X-88749048Y30088096D02*
X-88749048Y30050000D01*
X-88710953Y29973810D01*
X-88672858Y29935715D01*
X-89053810Y30088096D02*
X-89053810Y30050000D01*
X-89015715Y29973810D01*
X-88977620Y29935715D01*
D11*
G36*
X-21251500Y2141806D02*
X-28748500Y2141806D01*
X-28748500Y3843806D01*
X-21251500Y3843806D01*
X-21251500Y2141806D01*
X-21251500Y2141806D01*
G37*
G36*
X-7069000Y2209000D02*
X-10171000Y2209000D01*
X-10171000Y3311000D01*
X-7069000Y3311000D01*
X-7069000Y2209000D01*
X-7069000Y2209000D01*
G37*
G36*
X-2029000Y2209000D02*
X-5131000Y2209000D01*
X-5131000Y3311000D01*
X-2029000Y3311000D01*
X-2029000Y2209000D01*
X-2029000Y2209000D01*
G37*
G36*
X-183620409Y3396915D02*
X-183586431Y3386607D01*
X-183555113Y3369867D01*
X-183527661Y3347339D01*
X-183505133Y3319887D01*
X-183488393Y3288569D01*
X-183478085Y3254591D01*
X-183474000Y3213110D01*
X-183474000Y2611890D01*
X-183478085Y2570409D01*
X-183488393Y2536431D01*
X-183505133Y2505113D01*
X-183527661Y2477661D01*
X-183555113Y2455133D01*
X-183586431Y2438393D01*
X-183620409Y2428085D01*
X-183661890Y2424000D01*
X-184338110Y2424000D01*
X-184379591Y2428085D01*
X-184413569Y2438393D01*
X-184444887Y2455133D01*
X-184472339Y2477661D01*
X-184494867Y2505113D01*
X-184511607Y2536431D01*
X-184521915Y2570409D01*
X-184526000Y2611890D01*
X-184526000Y3213110D01*
X-184521915Y3254591D01*
X-184511607Y3288569D01*
X-184494867Y3319887D01*
X-184472339Y3347339D01*
X-184444887Y3369867D01*
X-184413569Y3386607D01*
X-184379591Y3396915D01*
X-184338110Y3401000D01*
X-183661890Y3401000D01*
X-183620409Y3396915D01*
X-183620409Y3396915D01*
G37*
G36*
X-122251500Y2494700D02*
X-129748500Y2494700D01*
X-129748500Y4196700D01*
X-122251500Y4196700D01*
X-122251500Y2494700D01*
X-122251500Y2494700D01*
G37*
G36*
X-180224000Y2794000D02*
X-181876000Y2794000D01*
X-181876000Y3496000D01*
X-180224000Y3496000D01*
X-180224000Y2794000D01*
X-180224000Y2794000D01*
G37*
G36*
X-174824000Y2794000D02*
X-176476000Y2794000D01*
X-176476000Y3496000D01*
X-174824000Y3496000D01*
X-174824000Y2794000D01*
X-174824000Y2794000D01*
G37*
G36*
X-177124000Y3824000D02*
X-179576000Y3824000D01*
X-179576000Y6276000D01*
X-177124000Y6276000D01*
X-177124000Y3824000D01*
X-177124000Y3824000D01*
G37*
G36*
X-183620409Y4971915D02*
X-183586431Y4961607D01*
X-183555113Y4944867D01*
X-183527661Y4922339D01*
X-183505133Y4894887D01*
X-183488393Y4863569D01*
X-183478085Y4829591D01*
X-183474000Y4788110D01*
X-183474000Y4186890D01*
X-183478085Y4145409D01*
X-183488393Y4111431D01*
X-183505133Y4080113D01*
X-183527661Y4052661D01*
X-183555113Y4030133D01*
X-183586431Y4013393D01*
X-183620409Y4003085D01*
X-183661890Y3999000D01*
X-184338110Y3999000D01*
X-184379591Y4003085D01*
X-184413569Y4013393D01*
X-184444887Y4030133D01*
X-184472339Y4052661D01*
X-184494867Y4080113D01*
X-184511607Y4111431D01*
X-184521915Y4145409D01*
X-184526000Y4186890D01*
X-184526000Y4788110D01*
X-184521915Y4829591D01*
X-184511607Y4863569D01*
X-184494867Y4894887D01*
X-184472339Y4922339D01*
X-184444887Y4944867D01*
X-184413569Y4961607D01*
X-184379591Y4971915D01*
X-184338110Y4976000D01*
X-183661890Y4976000D01*
X-183620409Y4971915D01*
X-183620409Y4971915D01*
G37*
G36*
X-174824000Y4064000D02*
X-176476000Y4064000D01*
X-176476000Y4766000D01*
X-174824000Y4766000D01*
X-174824000Y4064000D01*
X-174824000Y4064000D01*
G37*
G36*
X-180224000Y4064000D02*
X-181876000Y4064000D01*
X-181876000Y4766000D01*
X-180224000Y4766000D01*
X-180224000Y4064000D01*
X-180224000Y4064000D01*
G37*
G36*
X-189549000Y12216000D02*
X-189546598Y12191614D01*
X-189539485Y12168165D01*
X-189527934Y12146554D01*
X-189512388Y12127612D01*
X-189493446Y12112066D01*
X-189471835Y12100515D01*
X-189448386Y12093402D01*
X-189424000Y12091000D01*
X-187149000Y12091000D01*
X-187149000Y5589000D01*
X-189424000Y5589000D01*
X-189448386Y5586598D01*
X-189471835Y5579485D01*
X-189493446Y5567934D01*
X-189512388Y5552388D01*
X-189527934Y5533446D01*
X-189539485Y5511835D01*
X-189546598Y5488386D01*
X-189549000Y5464000D01*
X-189549000Y4691500D01*
X-191551000Y4691500D01*
X-191551000Y8638500D01*
X-189549000Y8638500D01*
X-189549000Y7291000D01*
X-189546598Y7266614D01*
X-189539485Y7243165D01*
X-189527934Y7221554D01*
X-189512388Y7202612D01*
X-189493446Y7187066D01*
X-189471835Y7175515D01*
X-189448386Y7168402D01*
X-189424000Y7166000D01*
X-188756000Y7166000D01*
X-188731614Y7168402D01*
X-188708165Y7175515D01*
X-188686554Y7187066D01*
X-188667612Y7202612D01*
X-188652066Y7221554D01*
X-188640515Y7243165D01*
X-188633402Y7266614D01*
X-188631000Y7291000D01*
X-188631000Y10389000D01*
X-188633402Y10413386D01*
X-188640515Y10436835D01*
X-188652066Y10458446D01*
X-188667612Y10477388D01*
X-188686554Y10492934D01*
X-188708165Y10504485D01*
X-188731614Y10511598D01*
X-188756000Y10514000D01*
X-189424000Y10514000D01*
X-189448386Y10511598D01*
X-189471835Y10504485D01*
X-189493446Y10492934D01*
X-189512388Y10477388D01*
X-189527934Y10458446D01*
X-189539485Y10436835D01*
X-189546598Y10413386D01*
X-189549000Y10389000D01*
X-189549000Y9041500D01*
X-191551000Y9041500D01*
X-191551000Y12988500D01*
X-189549000Y12988500D01*
X-189549000Y12216000D01*
X-189549000Y12216000D01*
G37*
G36*
X-118120409Y5696915D02*
X-118086431Y5686607D01*
X-118055113Y5669867D01*
X-118027661Y5647339D01*
X-118005133Y5619887D01*
X-117988393Y5588569D01*
X-117978085Y5554591D01*
X-117974000Y5513110D01*
X-117974000Y4911890D01*
X-117978085Y4870409D01*
X-117988393Y4836431D01*
X-118005133Y4805113D01*
X-118027661Y4777661D01*
X-118055113Y4755133D01*
X-118086431Y4738393D01*
X-118120409Y4728085D01*
X-118161890Y4724000D01*
X-118838110Y4724000D01*
X-118879591Y4728085D01*
X-118913569Y4738393D01*
X-118944887Y4755133D01*
X-118972339Y4777661D01*
X-118994867Y4805113D01*
X-119011607Y4836431D01*
X-119021915Y4870409D01*
X-119026000Y4911890D01*
X-119026000Y5513110D01*
X-119021915Y5554591D01*
X-119011607Y5588569D01*
X-118994867Y5619887D01*
X-118972339Y5647339D01*
X-118944887Y5669867D01*
X-118913569Y5686607D01*
X-118879591Y5696915D01*
X-118838110Y5701000D01*
X-118161890Y5701000D01*
X-118120409Y5696915D01*
X-118120409Y5696915D01*
G37*
G36*
X-7069000Y4749000D02*
X-10171000Y4749000D01*
X-10171000Y5851000D01*
X-7069000Y5851000D01*
X-7069000Y4749000D01*
X-7069000Y4749000D01*
G37*
G36*
X-2029000Y4749000D02*
X-5131000Y4749000D01*
X-5131000Y5851000D01*
X-2029000Y5851000D01*
X-2029000Y4749000D01*
X-2029000Y4749000D01*
G37*
G36*
X-174824000Y5334000D02*
X-176476000Y5334000D01*
X-176476000Y6036000D01*
X-174824000Y6036000D01*
X-174824000Y5334000D01*
X-174824000Y5334000D01*
G37*
G36*
X-180224000Y5334000D02*
X-181876000Y5334000D01*
X-181876000Y6036000D01*
X-180224000Y6036000D01*
X-180224000Y5334000D01*
X-180224000Y5334000D01*
G37*
G36*
X-118120409Y7271915D02*
X-118086431Y7261607D01*
X-118055113Y7244867D01*
X-118027661Y7222339D01*
X-118005133Y7194887D01*
X-117988393Y7163569D01*
X-117978085Y7129591D01*
X-117974000Y7088110D01*
X-117974000Y6486890D01*
X-117978085Y6445409D01*
X-117988393Y6411431D01*
X-118005133Y6380113D01*
X-118027661Y6352661D01*
X-118055113Y6330133D01*
X-118086431Y6313393D01*
X-118120409Y6303085D01*
X-118161890Y6299000D01*
X-118838110Y6299000D01*
X-118879591Y6303085D01*
X-118913569Y6313393D01*
X-118944887Y6330133D01*
X-118972339Y6352661D01*
X-118994867Y6380113D01*
X-119011607Y6411431D01*
X-119021915Y6445409D01*
X-119026000Y6486890D01*
X-119026000Y7088110D01*
X-119021915Y7129591D01*
X-119011607Y7163569D01*
X-118994867Y7194887D01*
X-118972339Y7222339D01*
X-118944887Y7244867D01*
X-118913569Y7261607D01*
X-118879591Y7271915D01*
X-118838110Y7276000D01*
X-118161890Y7276000D01*
X-118120409Y7271915D01*
X-118120409Y7271915D01*
G37*
G36*
X-180224000Y6604000D02*
X-181876000Y6604000D01*
X-181876000Y7306000D01*
X-180224000Y7306000D01*
X-180224000Y6604000D01*
X-180224000Y6604000D01*
G37*
G36*
X-174824000Y6604000D02*
X-176476000Y6604000D01*
X-176476000Y7306000D01*
X-174824000Y7306000D01*
X-174824000Y6604000D01*
X-174824000Y6604000D01*
G37*
G36*
X-160220409Y8096915D02*
X-160186431Y8086607D01*
X-160155113Y8069867D01*
X-160127661Y8047339D01*
X-160105133Y8019887D01*
X-160088393Y7988569D01*
X-160078085Y7954591D01*
X-160074000Y7913110D01*
X-160074000Y7311890D01*
X-160078085Y7270409D01*
X-160088393Y7236431D01*
X-160105133Y7205113D01*
X-160127661Y7177661D01*
X-160155113Y7155133D01*
X-160186431Y7138393D01*
X-160220409Y7128085D01*
X-160261890Y7124000D01*
X-160938110Y7124000D01*
X-160979591Y7128085D01*
X-161013569Y7138393D01*
X-161044887Y7155133D01*
X-161072339Y7177661D01*
X-161094867Y7205113D01*
X-161111607Y7236431D01*
X-161121915Y7270409D01*
X-161126000Y7311890D01*
X-161126000Y7913110D01*
X-161121915Y7954591D01*
X-161111607Y7988569D01*
X-161094867Y8019887D01*
X-161072339Y8047339D01*
X-161044887Y8069867D01*
X-161013569Y8086607D01*
X-160979591Y8096915D01*
X-160938110Y8101000D01*
X-160261890Y8101000D01*
X-160220409Y8096915D01*
X-160220409Y8096915D01*
G37*
G36*
X-161720409Y8096915D02*
X-161686431Y8086607D01*
X-161655113Y8069867D01*
X-161627661Y8047339D01*
X-161605133Y8019887D01*
X-161588393Y7988569D01*
X-161578085Y7954591D01*
X-161574000Y7913110D01*
X-161574000Y7311890D01*
X-161578085Y7270409D01*
X-161588393Y7236431D01*
X-161605133Y7205113D01*
X-161627661Y7177661D01*
X-161655113Y7155133D01*
X-161686431Y7138393D01*
X-161720409Y7128085D01*
X-161761890Y7124000D01*
X-162438110Y7124000D01*
X-162479591Y7128085D01*
X-162513569Y7138393D01*
X-162544887Y7155133D01*
X-162572339Y7177661D01*
X-162594867Y7205113D01*
X-162611607Y7236431D01*
X-162621915Y7270409D01*
X-162626000Y7311890D01*
X-162626000Y7913110D01*
X-162621915Y7954591D01*
X-162611607Y7988569D01*
X-162594867Y8019887D01*
X-162572339Y8047339D01*
X-162544887Y8069867D01*
X-162513569Y8086607D01*
X-162479591Y8096915D01*
X-162438110Y8101000D01*
X-161761890Y8101000D01*
X-161720409Y8096915D01*
X-161720409Y8096915D01*
G37*
G36*
X-165020409Y8096915D02*
X-164986431Y8086607D01*
X-164955113Y8069867D01*
X-164927661Y8047339D01*
X-164905133Y8019887D01*
X-164888393Y7988569D01*
X-164878085Y7954591D01*
X-164874000Y7913110D01*
X-164874000Y7311890D01*
X-164878085Y7270409D01*
X-164888393Y7236431D01*
X-164905133Y7205113D01*
X-164927661Y7177661D01*
X-164955113Y7155133D01*
X-164986431Y7138393D01*
X-165020409Y7128085D01*
X-165061890Y7124000D01*
X-165738110Y7124000D01*
X-165779591Y7128085D01*
X-165813569Y7138393D01*
X-165844887Y7155133D01*
X-165872339Y7177661D01*
X-165894867Y7205113D01*
X-165911607Y7236431D01*
X-165921915Y7270409D01*
X-165926000Y7311890D01*
X-165926000Y7913110D01*
X-165921915Y7954591D01*
X-165911607Y7988569D01*
X-165894867Y8019887D01*
X-165872339Y8047339D01*
X-165844887Y8069867D01*
X-165813569Y8086607D01*
X-165779591Y8096915D01*
X-165738110Y8101000D01*
X-165061890Y8101000D01*
X-165020409Y8096915D01*
X-165020409Y8096915D01*
G37*
G36*
X-166520409Y8096915D02*
X-166486431Y8086607D01*
X-166455113Y8069867D01*
X-166427661Y8047339D01*
X-166405133Y8019887D01*
X-166388393Y7988569D01*
X-166378085Y7954591D01*
X-166374000Y7913110D01*
X-166374000Y7311890D01*
X-166378085Y7270409D01*
X-166388393Y7236431D01*
X-166405133Y7205113D01*
X-166427661Y7177661D01*
X-166455113Y7155133D01*
X-166486431Y7138393D01*
X-166520409Y7128085D01*
X-166561890Y7124000D01*
X-167238110Y7124000D01*
X-167279591Y7128085D01*
X-167313569Y7138393D01*
X-167344887Y7155133D01*
X-167372339Y7177661D01*
X-167394867Y7205113D01*
X-167411607Y7236431D01*
X-167421915Y7270409D01*
X-167426000Y7311890D01*
X-167426000Y7913110D01*
X-167421915Y7954591D01*
X-167411607Y7988569D01*
X-167394867Y8019887D01*
X-167372339Y8047339D01*
X-167344887Y8069867D01*
X-167313569Y8086607D01*
X-167279591Y8096915D01*
X-167238110Y8101000D01*
X-166561890Y8101000D01*
X-166520409Y8096915D01*
X-166520409Y8096915D01*
G37*
G36*
X-108254155Y8180785D02*
X-108163161Y8143094D01*
X-108094050Y8096915D01*
X-108081266Y8088373D01*
X-108011627Y8018734D01*
X-107956905Y7936837D01*
X-107923732Y7856750D01*
X-107919215Y7845845D01*
X-107900976Y7754155D01*
X-107900000Y7749245D01*
X-107900000Y7650755D01*
X-107919215Y7554155D01*
X-107936831Y7511625D01*
X-107956906Y7463161D01*
X-107961086Y7456905D01*
X-108011627Y7381266D01*
X-108081266Y7311627D01*
X-108081269Y7311625D01*
X-108163161Y7256906D01*
X-108163162Y7256905D01*
X-108163163Y7256905D01*
X-108221957Y7232552D01*
X-108254155Y7219215D01*
X-108350754Y7200000D01*
X-108449246Y7200000D01*
X-108545845Y7219215D01*
X-108578043Y7232552D01*
X-108636837Y7256905D01*
X-108636838Y7256905D01*
X-108636839Y7256906D01*
X-108718731Y7311625D01*
X-108718734Y7311627D01*
X-108788373Y7381266D01*
X-108838914Y7456905D01*
X-108843094Y7463161D01*
X-108863168Y7511625D01*
X-108880785Y7554155D01*
X-108900000Y7650755D01*
X-108900000Y7749245D01*
X-108899023Y7754155D01*
X-108880785Y7845845D01*
X-108876268Y7856750D01*
X-108843095Y7936837D01*
X-108788373Y8018734D01*
X-108718734Y8088373D01*
X-108705950Y8096915D01*
X-108636839Y8143094D01*
X-108545845Y8180785D01*
X-108449246Y8200000D01*
X-108350754Y8200000D01*
X-108254155Y8180785D01*
X-108254155Y8180785D01*
G37*
G36*
X-7069000Y7289000D02*
X-10171000Y7289000D01*
X-10171000Y8391000D01*
X-7069000Y8391000D01*
X-7069000Y7289000D01*
X-7069000Y7289000D01*
G37*
G36*
X-2029000Y7289000D02*
X-5131000Y7289000D01*
X-5131000Y8391000D01*
X-2029000Y8391000D01*
X-2029000Y7289000D01*
X-2029000Y7289000D01*
G37*
G36*
X-43354155Y8380785D02*
X-43263161Y8343094D01*
X-43182360Y8289104D01*
X-43181266Y8288373D01*
X-43111627Y8218734D01*
X-43111625Y8218731D01*
X-43061085Y8143094D01*
X-43056905Y8136837D01*
X-43036831Y8088373D01*
X-43019215Y8045845D01*
X-43000000Y7949246D01*
X-43000000Y7850754D01*
X-43009075Y7805133D01*
X-43019215Y7754155D01*
X-43056905Y7663163D01*
X-43111627Y7581266D01*
X-43181266Y7511627D01*
X-43181269Y7511625D01*
X-43263161Y7456906D01*
X-43354155Y7419215D01*
X-43450754Y7400000D01*
X-43549246Y7400000D01*
X-43645845Y7419215D01*
X-43736839Y7456906D01*
X-43818731Y7511625D01*
X-43818734Y7511627D01*
X-43888373Y7581266D01*
X-43943095Y7663163D01*
X-43980785Y7754155D01*
X-43990925Y7805133D01*
X-44000000Y7850754D01*
X-44000000Y7949246D01*
X-43980785Y8045845D01*
X-43963169Y8088373D01*
X-43943095Y8136837D01*
X-43938914Y8143094D01*
X-43888375Y8218731D01*
X-43888373Y8218734D01*
X-43818734Y8288373D01*
X-43817640Y8289104D01*
X-43736839Y8343094D01*
X-43645845Y8380785D01*
X-43549246Y8400000D01*
X-43450754Y8400000D01*
X-43354155Y8380785D01*
X-43354155Y8380785D01*
G37*
G36*
X-21251500Y7450406D02*
X-28748500Y7450406D01*
X-28748500Y9152406D01*
X-21251500Y9152406D01*
X-21251500Y7450406D01*
X-21251500Y7450406D01*
G37*
G36*
X-17745409Y8821915D02*
X-17711431Y8811607D01*
X-17680113Y8794867D01*
X-17652661Y8772339D01*
X-17630133Y8744887D01*
X-17613393Y8713569D01*
X-17603085Y8679591D01*
X-17599000Y8638110D01*
X-17599000Y7961890D01*
X-17603085Y7920409D01*
X-17613393Y7886431D01*
X-17630133Y7855113D01*
X-17652661Y7827661D01*
X-17680113Y7805133D01*
X-17711431Y7788393D01*
X-17745409Y7778085D01*
X-17786890Y7774000D01*
X-18388110Y7774000D01*
X-18429591Y7778085D01*
X-18463569Y7788393D01*
X-18494887Y7805133D01*
X-18522339Y7827661D01*
X-18544867Y7855113D01*
X-18561607Y7886431D01*
X-18571915Y7920409D01*
X-18576000Y7961890D01*
X-18576000Y8638110D01*
X-18571915Y8679591D01*
X-18561607Y8713569D01*
X-18544867Y8744887D01*
X-18522339Y8772339D01*
X-18494887Y8794867D01*
X-18463569Y8811607D01*
X-18429591Y8821915D01*
X-18388110Y8826000D01*
X-17786890Y8826000D01*
X-17745409Y8821915D01*
X-17745409Y8821915D01*
G37*
G36*
X-16170409Y8821915D02*
X-16136431Y8811607D01*
X-16105113Y8794867D01*
X-16077661Y8772339D01*
X-16055133Y8744887D01*
X-16038393Y8713569D01*
X-16028085Y8679591D01*
X-16024000Y8638110D01*
X-16024000Y7961890D01*
X-16028085Y7920409D01*
X-16038393Y7886431D01*
X-16055133Y7855113D01*
X-16077661Y7827661D01*
X-16105113Y7805133D01*
X-16136431Y7788393D01*
X-16170409Y7778085D01*
X-16211890Y7774000D01*
X-16813110Y7774000D01*
X-16854591Y7778085D01*
X-16888569Y7788393D01*
X-16919887Y7805133D01*
X-16947339Y7827661D01*
X-16969867Y7855113D01*
X-16986607Y7886431D01*
X-16996915Y7920409D01*
X-17001000Y7961890D01*
X-17001000Y8638110D01*
X-16996915Y8679591D01*
X-16986607Y8713569D01*
X-16969867Y8744887D01*
X-16947339Y8772339D01*
X-16919887Y8794867D01*
X-16888569Y8811607D01*
X-16854591Y8821915D01*
X-16813110Y8826000D01*
X-16211890Y8826000D01*
X-16170409Y8821915D01*
X-16170409Y8821915D01*
G37*
G36*
X-122251500Y7803300D02*
X-129748500Y7803300D01*
X-129748500Y9505300D01*
X-122251500Y9505300D01*
X-122251500Y7803300D01*
X-122251500Y7803300D01*
G37*
G36*
X-111659000Y7954000D02*
X-119101000Y7954000D01*
X-119101000Y14406000D01*
X-111659000Y14406000D01*
X-111659000Y7954000D01*
X-111659000Y7954000D01*
G37*
G36*
X-32999000Y7954000D02*
X-40441000Y7954000D01*
X-40441000Y14406000D01*
X-32999000Y14406000D01*
X-32999000Y7954000D01*
X-32999000Y7954000D01*
G37*
G36*
X-160220409Y9671915D02*
X-160186431Y9661607D01*
X-160155113Y9644867D01*
X-160127661Y9622339D01*
X-160105133Y9594887D01*
X-160088393Y9563569D01*
X-160078085Y9529591D01*
X-160074000Y9488110D01*
X-160074000Y8886890D01*
X-160078085Y8845409D01*
X-160088393Y8811431D01*
X-160105133Y8780113D01*
X-160127661Y8752661D01*
X-160155113Y8730133D01*
X-160186431Y8713393D01*
X-160220409Y8703085D01*
X-160261890Y8699000D01*
X-160938110Y8699000D01*
X-160979591Y8703085D01*
X-161013569Y8713393D01*
X-161044887Y8730133D01*
X-161072339Y8752661D01*
X-161094867Y8780113D01*
X-161111607Y8811431D01*
X-161121915Y8845409D01*
X-161126000Y8886890D01*
X-161126000Y9488110D01*
X-161121915Y9529591D01*
X-161111607Y9563569D01*
X-161094867Y9594887D01*
X-161072339Y9622339D01*
X-161044887Y9644867D01*
X-161013569Y9661607D01*
X-160979591Y9671915D01*
X-160938110Y9676000D01*
X-160261890Y9676000D01*
X-160220409Y9671915D01*
X-160220409Y9671915D01*
G37*
G36*
X-161720409Y9671915D02*
X-161686431Y9661607D01*
X-161655113Y9644867D01*
X-161627661Y9622339D01*
X-161605133Y9594887D01*
X-161588393Y9563569D01*
X-161578085Y9529591D01*
X-161574000Y9488110D01*
X-161574000Y8886890D01*
X-161578085Y8845409D01*
X-161588393Y8811431D01*
X-161605133Y8780113D01*
X-161627661Y8752661D01*
X-161655113Y8730133D01*
X-161686431Y8713393D01*
X-161720409Y8703085D01*
X-161761890Y8699000D01*
X-162438110Y8699000D01*
X-162479591Y8703085D01*
X-162513569Y8713393D01*
X-162544887Y8730133D01*
X-162572339Y8752661D01*
X-162594867Y8780113D01*
X-162611607Y8811431D01*
X-162621915Y8845409D01*
X-162626000Y8886890D01*
X-162626000Y9488110D01*
X-162621915Y9529591D01*
X-162611607Y9563569D01*
X-162594867Y9594887D01*
X-162572339Y9622339D01*
X-162544887Y9644867D01*
X-162513569Y9661607D01*
X-162479591Y9671915D01*
X-162438110Y9676000D01*
X-161761890Y9676000D01*
X-161720409Y9671915D01*
X-161720409Y9671915D01*
G37*
G36*
X-165020409Y9671915D02*
X-164986431Y9661607D01*
X-164955113Y9644867D01*
X-164927661Y9622339D01*
X-164905133Y9594887D01*
X-164888393Y9563569D01*
X-164878085Y9529591D01*
X-164874000Y9488110D01*
X-164874000Y8886890D01*
X-164878085Y8845409D01*
X-164888393Y8811431D01*
X-164905133Y8780113D01*
X-164927661Y8752661D01*
X-164955113Y8730133D01*
X-164986431Y8713393D01*
X-165020409Y8703085D01*
X-165061890Y8699000D01*
X-165738110Y8699000D01*
X-165779591Y8703085D01*
X-165813569Y8713393D01*
X-165844887Y8730133D01*
X-165872339Y8752661D01*
X-165894867Y8780113D01*
X-165911607Y8811431D01*
X-165921915Y8845409D01*
X-165926000Y8886890D01*
X-165926000Y9488110D01*
X-165921915Y9529591D01*
X-165911607Y9563569D01*
X-165894867Y9594887D01*
X-165872339Y9622339D01*
X-165844887Y9644867D01*
X-165813569Y9661607D01*
X-165779591Y9671915D01*
X-165738110Y9676000D01*
X-165061890Y9676000D01*
X-165020409Y9671915D01*
X-165020409Y9671915D01*
G37*
G36*
X-166520409Y9671915D02*
X-166486431Y9661607D01*
X-166455113Y9644867D01*
X-166427661Y9622339D01*
X-166405133Y9594887D01*
X-166388393Y9563569D01*
X-166378085Y9529591D01*
X-166374000Y9488110D01*
X-166374000Y8886890D01*
X-166378085Y8845409D01*
X-166388393Y8811431D01*
X-166405133Y8780113D01*
X-166427661Y8752661D01*
X-166455113Y8730133D01*
X-166486431Y8713393D01*
X-166520409Y8703085D01*
X-166561890Y8699000D01*
X-167238110Y8699000D01*
X-167279591Y8703085D01*
X-167313569Y8713393D01*
X-167344887Y8730133D01*
X-167372339Y8752661D01*
X-167394867Y8780113D01*
X-167411607Y8811431D01*
X-167421915Y8845409D01*
X-167426000Y8886890D01*
X-167426000Y9488110D01*
X-167421915Y9529591D01*
X-167411607Y9563569D01*
X-167394867Y9594887D01*
X-167372339Y9622339D01*
X-167344887Y9644867D01*
X-167313569Y9661607D01*
X-167279591Y9671915D01*
X-167238110Y9676000D01*
X-166561890Y9676000D01*
X-166520409Y9671915D01*
X-166520409Y9671915D01*
G37*
G36*
X-138544004Y14496949D02*
X-138510347Y14486739D01*
X-138479333Y14470162D01*
X-138452148Y14447852D01*
X-138429838Y14420667D01*
X-138413261Y14389653D01*
X-138403051Y14355996D01*
X-138399000Y14314862D01*
X-138399000Y11085138D01*
X-138403051Y11044004D01*
X-138413261Y11010347D01*
X-138429838Y10979333D01*
X-138452148Y10952148D01*
X-138479333Y10929838D01*
X-138510347Y10913261D01*
X-138544004Y10903051D01*
X-138585138Y10899000D01*
X-139914862Y10899000D01*
X-139955996Y10903051D01*
X-139989653Y10913261D01*
X-140020667Y10929838D01*
X-140047852Y10952148D01*
X-140070162Y10979333D01*
X-140086739Y11010347D01*
X-140096949Y11044004D01*
X-140101000Y11085138D01*
X-140101000Y14314862D01*
X-140096949Y14355996D01*
X-140086739Y14389653D01*
X-140070162Y14420667D01*
X-140047852Y14447852D01*
X-140020667Y14470162D01*
X-139989653Y14486739D01*
X-139955996Y14496949D01*
X-139914862Y14501000D01*
X-138585138Y14501000D01*
X-138544004Y14496949D01*
X-138544004Y14496949D01*
G37*
G36*
X-21251500Y11394700D02*
X-28748500Y11394700D01*
X-28748500Y13096700D01*
X-21251500Y13096700D01*
X-21251500Y11394700D01*
X-21251500Y11394700D01*
G37*
G36*
X-122251500Y11494700D02*
X-129748500Y11494700D01*
X-129748500Y13196700D01*
X-122251500Y13196700D01*
X-122251500Y11494700D01*
X-122251500Y11494700D01*
G37*
G36*
X-163299000Y12699000D02*
X-164301000Y12699000D01*
X-164301000Y13601000D01*
X-163299000Y13601000D01*
X-163299000Y12699000D01*
X-163299000Y12699000D01*
G37*
G36*
X-166020409Y13796915D02*
X-165986431Y13786607D01*
X-165955113Y13769867D01*
X-165927661Y13747339D01*
X-165905133Y13719887D01*
X-165888393Y13688569D01*
X-165878085Y13654591D01*
X-165874000Y13613110D01*
X-165874000Y13011890D01*
X-165878085Y12970409D01*
X-165888393Y12936431D01*
X-165905133Y12905113D01*
X-165927661Y12877661D01*
X-165955113Y12855133D01*
X-165986431Y12838393D01*
X-166020409Y12828085D01*
X-166061890Y12824000D01*
X-166738110Y12824000D01*
X-166779591Y12828085D01*
X-166813569Y12838393D01*
X-166844887Y12855133D01*
X-166872339Y12877661D01*
X-166894867Y12905113D01*
X-166911607Y12936431D01*
X-166921915Y12970409D01*
X-166926000Y13011890D01*
X-166926000Y13613110D01*
X-166921915Y13654591D01*
X-166911607Y13688569D01*
X-166894867Y13719887D01*
X-166872339Y13747339D01*
X-166844887Y13769867D01*
X-166813569Y13786607D01*
X-166779591Y13796915D01*
X-166738110Y13801000D01*
X-166061890Y13801000D01*
X-166020409Y13796915D01*
X-166020409Y13796915D01*
G37*
G36*
X-167520409Y13796915D02*
X-167486431Y13786607D01*
X-167455113Y13769867D01*
X-167427661Y13747339D01*
X-167405133Y13719887D01*
X-167388393Y13688569D01*
X-167378085Y13654591D01*
X-167374000Y13613110D01*
X-167374000Y13011890D01*
X-167378085Y12970409D01*
X-167388393Y12936431D01*
X-167405133Y12905113D01*
X-167427661Y12877661D01*
X-167455113Y12855133D01*
X-167486431Y12838393D01*
X-167520409Y12828085D01*
X-167561890Y12824000D01*
X-168238110Y12824000D01*
X-168279591Y12828085D01*
X-168313569Y12838393D01*
X-168344887Y12855133D01*
X-168372339Y12877661D01*
X-168394867Y12905113D01*
X-168411607Y12936431D01*
X-168421915Y12970409D01*
X-168426000Y13011890D01*
X-168426000Y13613110D01*
X-168421915Y13654591D01*
X-168411607Y13688569D01*
X-168394867Y13719887D01*
X-168372339Y13747339D01*
X-168344887Y13769867D01*
X-168313569Y13786607D01*
X-168279591Y13796915D01*
X-168238110Y13801000D01*
X-167561890Y13801000D01*
X-167520409Y13796915D01*
X-167520409Y13796915D01*
G37*
G36*
X-169020409Y13796915D02*
X-168986431Y13786607D01*
X-168955113Y13769867D01*
X-168927661Y13747339D01*
X-168905133Y13719887D01*
X-168888393Y13688569D01*
X-168878085Y13654591D01*
X-168874000Y13613110D01*
X-168874000Y13011890D01*
X-168878085Y12970409D01*
X-168888393Y12936431D01*
X-168905133Y12905113D01*
X-168927661Y12877661D01*
X-168955113Y12855133D01*
X-168986431Y12838393D01*
X-169020409Y12828085D01*
X-169061890Y12824000D01*
X-169738110Y12824000D01*
X-169779591Y12828085D01*
X-169813569Y12838393D01*
X-169844887Y12855133D01*
X-169872339Y12877661D01*
X-169894867Y12905113D01*
X-169911607Y12936431D01*
X-169921915Y12970409D01*
X-169926000Y13011890D01*
X-169926000Y13613110D01*
X-169921915Y13654591D01*
X-169911607Y13688569D01*
X-169894867Y13719887D01*
X-169872339Y13747339D01*
X-169844887Y13769867D01*
X-169813569Y13786607D01*
X-169779591Y13796915D01*
X-169738110Y13801000D01*
X-169061890Y13801000D01*
X-169020409Y13796915D01*
X-169020409Y13796915D01*
G37*
G36*
X-173449000Y13349000D02*
X-175101000Y13349000D01*
X-175101000Y14751000D01*
X-173449000Y14751000D01*
X-173449000Y13349000D01*
X-173449000Y13349000D01*
G37*
G36*
X-181399000Y13349000D02*
X-183051000Y13349000D01*
X-183051000Y14751000D01*
X-181399000Y14751000D01*
X-181399000Y13349000D01*
X-181399000Y13349000D01*
G37*
G36*
X-161299000Y13649000D02*
X-162301000Y13649000D01*
X-162301000Y14551000D01*
X-161299000Y14551000D01*
X-161299000Y13649000D01*
X-161299000Y13649000D01*
G37*
G36*
X-152320409Y14796915D02*
X-152286431Y14786607D01*
X-152255113Y14769867D01*
X-152227661Y14747339D01*
X-152205133Y14719887D01*
X-152188393Y14688569D01*
X-152178085Y14654591D01*
X-152174000Y14613110D01*
X-152174000Y14011890D01*
X-152178085Y13970409D01*
X-152188393Y13936431D01*
X-152205133Y13905113D01*
X-152227661Y13877661D01*
X-152255113Y13855133D01*
X-152286431Y13838393D01*
X-152320409Y13828085D01*
X-152361890Y13824000D01*
X-153038110Y13824000D01*
X-153079591Y13828085D01*
X-153113569Y13838393D01*
X-153144887Y13855133D01*
X-153172339Y13877661D01*
X-153194867Y13905113D01*
X-153211607Y13936431D01*
X-153221915Y13970409D01*
X-153226000Y14011890D01*
X-153226000Y14613110D01*
X-153221915Y14654591D01*
X-153211607Y14688569D01*
X-153194867Y14719887D01*
X-153172339Y14747339D01*
X-153144887Y14769867D01*
X-153113569Y14786607D01*
X-153079591Y14796915D01*
X-153038110Y14801000D01*
X-152361890Y14801000D01*
X-152320409Y14796915D01*
X-152320409Y14796915D01*
G37*
G36*
X-155220409Y14796915D02*
X-155186431Y14786607D01*
X-155155113Y14769867D01*
X-155127661Y14747339D01*
X-155105133Y14719887D01*
X-155088393Y14688569D01*
X-155078085Y14654591D01*
X-155074000Y14613110D01*
X-155074000Y14011890D01*
X-155078085Y13970409D01*
X-155088393Y13936431D01*
X-155105133Y13905113D01*
X-155127661Y13877661D01*
X-155155113Y13855133D01*
X-155186431Y13838393D01*
X-155220409Y13828085D01*
X-155261890Y13824000D01*
X-155938110Y13824000D01*
X-155979591Y13828085D01*
X-156013569Y13838393D01*
X-156044887Y13855133D01*
X-156072339Y13877661D01*
X-156094867Y13905113D01*
X-156111607Y13936431D01*
X-156121915Y13970409D01*
X-156126000Y14011890D01*
X-156126000Y14613110D01*
X-156121915Y14654591D01*
X-156111607Y14688569D01*
X-156094867Y14719887D01*
X-156072339Y14747339D01*
X-156044887Y14769867D01*
X-156013569Y14786607D01*
X-155979591Y14796915D01*
X-155938110Y14801000D01*
X-155261890Y14801000D01*
X-155220409Y14796915D01*
X-155220409Y14796915D01*
G37*
G36*
X-153820409Y14796915D02*
X-153786431Y14786607D01*
X-153755113Y14769867D01*
X-153727661Y14747339D01*
X-153705133Y14719887D01*
X-153688393Y14688569D01*
X-153678085Y14654591D01*
X-153674000Y14613110D01*
X-153674000Y14011890D01*
X-153678085Y13970409D01*
X-153688393Y13936431D01*
X-153705133Y13905113D01*
X-153727661Y13877661D01*
X-153755113Y13855133D01*
X-153786431Y13838393D01*
X-153820409Y13828085D01*
X-153861890Y13824000D01*
X-154538110Y13824000D01*
X-154579591Y13828085D01*
X-154613569Y13838393D01*
X-154644887Y13855133D01*
X-154672339Y13877661D01*
X-154694867Y13905113D01*
X-154711607Y13936431D01*
X-154721915Y13970409D01*
X-154726000Y14011890D01*
X-154726000Y14613110D01*
X-154721915Y14654591D01*
X-154711607Y14688569D01*
X-154694867Y14719887D01*
X-154672339Y14747339D01*
X-154644887Y14769867D01*
X-154613569Y14786607D01*
X-154579591Y14796915D01*
X-154538110Y14801000D01*
X-153861890Y14801000D01*
X-153820409Y14796915D01*
X-153820409Y14796915D01*
G37*
G36*
X-166020409Y15371915D02*
X-165986431Y15361607D01*
X-165955113Y15344867D01*
X-165927661Y15322339D01*
X-165905133Y15294887D01*
X-165888393Y15263569D01*
X-165878085Y15229591D01*
X-165874000Y15188110D01*
X-165874000Y14586890D01*
X-165878085Y14545409D01*
X-165888393Y14511431D01*
X-165905133Y14480113D01*
X-165927661Y14452661D01*
X-165955113Y14430133D01*
X-165986431Y14413393D01*
X-166020409Y14403085D01*
X-166061890Y14399000D01*
X-166738110Y14399000D01*
X-166779591Y14403085D01*
X-166813569Y14413393D01*
X-166844887Y14430133D01*
X-166872339Y14452661D01*
X-166894867Y14480113D01*
X-166911607Y14511431D01*
X-166921915Y14545409D01*
X-166926000Y14586890D01*
X-166926000Y15188110D01*
X-166921915Y15229591D01*
X-166911607Y15263569D01*
X-166894867Y15294887D01*
X-166872339Y15322339D01*
X-166844887Y15344867D01*
X-166813569Y15361607D01*
X-166779591Y15371915D01*
X-166738110Y15376000D01*
X-166061890Y15376000D01*
X-166020409Y15371915D01*
X-166020409Y15371915D01*
G37*
G36*
X-167520409Y15371915D02*
X-167486431Y15361607D01*
X-167455113Y15344867D01*
X-167427661Y15322339D01*
X-167405133Y15294887D01*
X-167388393Y15263569D01*
X-167378085Y15229591D01*
X-167374000Y15188110D01*
X-167374000Y14586890D01*
X-167378085Y14545409D01*
X-167388393Y14511431D01*
X-167405133Y14480113D01*
X-167427661Y14452661D01*
X-167455113Y14430133D01*
X-167486431Y14413393D01*
X-167520409Y14403085D01*
X-167561890Y14399000D01*
X-168238110Y14399000D01*
X-168279591Y14403085D01*
X-168313569Y14413393D01*
X-168344887Y14430133D01*
X-168372339Y14452661D01*
X-168394867Y14480113D01*
X-168411607Y14511431D01*
X-168421915Y14545409D01*
X-168426000Y14586890D01*
X-168426000Y15188110D01*
X-168421915Y15229591D01*
X-168411607Y15263569D01*
X-168394867Y15294887D01*
X-168372339Y15322339D01*
X-168344887Y15344867D01*
X-168313569Y15361607D01*
X-168279591Y15371915D01*
X-168238110Y15376000D01*
X-167561890Y15376000D01*
X-167520409Y15371915D01*
X-167520409Y15371915D01*
G37*
G36*
X-169020409Y15371915D02*
X-168986431Y15361607D01*
X-168955113Y15344867D01*
X-168927661Y15322339D01*
X-168905133Y15294887D01*
X-168888393Y15263569D01*
X-168878085Y15229591D01*
X-168874000Y15188110D01*
X-168874000Y14586890D01*
X-168878085Y14545409D01*
X-168888393Y14511431D01*
X-168905133Y14480113D01*
X-168927661Y14452661D01*
X-168955113Y14430133D01*
X-168986431Y14413393D01*
X-169020409Y14403085D01*
X-169061890Y14399000D01*
X-169738110Y14399000D01*
X-169779591Y14403085D01*
X-169813569Y14413393D01*
X-169844887Y14430133D01*
X-169872339Y14452661D01*
X-169894867Y14480113D01*
X-169911607Y14511431D01*
X-169921915Y14545409D01*
X-169926000Y14586890D01*
X-169926000Y15188110D01*
X-169921915Y15229591D01*
X-169911607Y15263569D01*
X-169894867Y15294887D01*
X-169872339Y15322339D01*
X-169844887Y15344867D01*
X-169813569Y15361607D01*
X-169779591Y15371915D01*
X-169738110Y15376000D01*
X-169061890Y15376000D01*
X-169020409Y15371915D01*
X-169020409Y15371915D01*
G37*
G36*
X-163299000Y14599000D02*
X-164301000Y14599000D01*
X-164301000Y15501000D01*
X-163299000Y15501000D01*
X-163299000Y14599000D01*
X-163299000Y14599000D01*
G37*
G36*
X-155220409Y16371915D02*
X-155186431Y16361607D01*
X-155155113Y16344867D01*
X-155127661Y16322339D01*
X-155105133Y16294887D01*
X-155088393Y16263569D01*
X-155078085Y16229591D01*
X-155074000Y16188110D01*
X-155074000Y15586890D01*
X-155078085Y15545409D01*
X-155088393Y15511431D01*
X-155105133Y15480113D01*
X-155127661Y15452661D01*
X-155155113Y15430133D01*
X-155186431Y15413393D01*
X-155220409Y15403085D01*
X-155261890Y15399000D01*
X-155938110Y15399000D01*
X-155979591Y15403085D01*
X-156013569Y15413393D01*
X-156044887Y15430133D01*
X-156072339Y15452661D01*
X-156094867Y15480113D01*
X-156111607Y15511431D01*
X-156121915Y15545409D01*
X-156126000Y15586890D01*
X-156126000Y16188110D01*
X-156121915Y16229591D01*
X-156111607Y16263569D01*
X-156094867Y16294887D01*
X-156072339Y16322339D01*
X-156044887Y16344867D01*
X-156013569Y16361607D01*
X-155979591Y16371915D01*
X-155938110Y16376000D01*
X-155261890Y16376000D01*
X-155220409Y16371915D01*
X-155220409Y16371915D01*
G37*
G36*
X-152320409Y16371915D02*
X-152286431Y16361607D01*
X-152255113Y16344867D01*
X-152227661Y16322339D01*
X-152205133Y16294887D01*
X-152188393Y16263569D01*
X-152178085Y16229591D01*
X-152174000Y16188110D01*
X-152174000Y15586890D01*
X-152178085Y15545409D01*
X-152188393Y15511431D01*
X-152205133Y15480113D01*
X-152227661Y15452661D01*
X-152255113Y15430133D01*
X-152286431Y15413393D01*
X-152320409Y15403085D01*
X-152361890Y15399000D01*
X-153038110Y15399000D01*
X-153079591Y15403085D01*
X-153113569Y15413393D01*
X-153144887Y15430133D01*
X-153172339Y15452661D01*
X-153194867Y15480113D01*
X-153211607Y15511431D01*
X-153221915Y15545409D01*
X-153226000Y15586890D01*
X-153226000Y16188110D01*
X-153221915Y16229591D01*
X-153211607Y16263569D01*
X-153194867Y16294887D01*
X-153172339Y16322339D01*
X-153144887Y16344867D01*
X-153113569Y16361607D01*
X-153079591Y16371915D01*
X-153038110Y16376000D01*
X-152361890Y16376000D01*
X-152320409Y16371915D01*
X-152320409Y16371915D01*
G37*
G36*
X-153820409Y16371915D02*
X-153786431Y16361607D01*
X-153755113Y16344867D01*
X-153727661Y16322339D01*
X-153705133Y16294887D01*
X-153688393Y16263569D01*
X-153678085Y16229591D01*
X-153674000Y16188110D01*
X-153674000Y15586890D01*
X-153678085Y15545409D01*
X-153688393Y15511431D01*
X-153705133Y15480113D01*
X-153727661Y15452661D01*
X-153755113Y15430133D01*
X-153786431Y15413393D01*
X-153820409Y15403085D01*
X-153861890Y15399000D01*
X-154538110Y15399000D01*
X-154579591Y15403085D01*
X-154613569Y15413393D01*
X-154644887Y15430133D01*
X-154672339Y15452661D01*
X-154694867Y15480113D01*
X-154711607Y15511431D01*
X-154721915Y15545409D01*
X-154726000Y15586890D01*
X-154726000Y16188110D01*
X-154721915Y16229591D01*
X-154711607Y16263569D01*
X-154694867Y16294887D01*
X-154672339Y16322339D01*
X-154644887Y16344867D01*
X-154613569Y16361607D01*
X-154579591Y16371915D01*
X-154538110Y16376000D01*
X-153861890Y16376000D01*
X-153820409Y16371915D01*
X-153820409Y16371915D01*
G37*
G36*
X-12049000Y15749000D02*
X-13701000Y15749000D01*
X-13701000Y17151000D01*
X-12049000Y17151000D01*
X-12049000Y15749000D01*
X-12049000Y15749000D01*
G37*
G36*
X-4099000Y15749000D02*
X-5751000Y15749000D01*
X-5751000Y17151000D01*
X-4099000Y17151000D01*
X-4099000Y15749000D01*
X-4099000Y15749000D01*
G37*
G36*
X-138544004Y20096949D02*
X-138510347Y20086739D01*
X-138479333Y20070162D01*
X-138452148Y20047852D01*
X-138429838Y20020667D01*
X-138413261Y19989653D01*
X-138403051Y19955996D01*
X-138399000Y19914862D01*
X-138399000Y16685138D01*
X-138403051Y16644004D01*
X-138413261Y16610347D01*
X-138429838Y16579333D01*
X-138452148Y16552148D01*
X-138479333Y16529838D01*
X-138510347Y16513261D01*
X-138544004Y16503051D01*
X-138585138Y16499000D01*
X-139914862Y16499000D01*
X-139955996Y16503051D01*
X-139989653Y16513261D01*
X-140020667Y16529838D01*
X-140047852Y16552148D01*
X-140070162Y16579333D01*
X-140086739Y16610347D01*
X-140096949Y16644004D01*
X-140101000Y16685138D01*
X-140101000Y19914862D01*
X-140096949Y19955996D01*
X-140086739Y19989653D01*
X-140070162Y20020667D01*
X-140047852Y20047852D01*
X-140020667Y20070162D01*
X-139989653Y20086739D01*
X-139955996Y20096949D01*
X-139914862Y20101000D01*
X-138585138Y20101000D01*
X-138544004Y20096949D01*
X-138544004Y20096949D01*
G37*
G36*
X-21251500Y16703300D02*
X-28748500Y16703300D01*
X-28748500Y18405300D01*
X-21251500Y18405300D01*
X-21251500Y16703300D01*
X-21251500Y16703300D01*
G37*
G36*
X-122251500Y16803300D02*
X-129748500Y16803300D01*
X-129748500Y18505300D01*
X-122251500Y18505300D01*
X-122251500Y16803300D01*
X-122251500Y16803300D01*
G37*
G36*
X-16170409Y18121915D02*
X-16136431Y18111607D01*
X-16105113Y18094867D01*
X-16077661Y18072339D01*
X-16055133Y18044887D01*
X-16038393Y18013569D01*
X-16028085Y17979591D01*
X-16024000Y17938110D01*
X-16024000Y17261890D01*
X-16028085Y17220409D01*
X-16038393Y17186431D01*
X-16055133Y17155113D01*
X-16077661Y17127661D01*
X-16105113Y17105133D01*
X-16136431Y17088393D01*
X-16170409Y17078085D01*
X-16211890Y17074000D01*
X-16813110Y17074000D01*
X-16854591Y17078085D01*
X-16888569Y17088393D01*
X-16919887Y17105133D01*
X-16947339Y17127661D01*
X-16969867Y17155113D01*
X-16986607Y17186431D01*
X-16996915Y17220409D01*
X-17001000Y17261890D01*
X-17001000Y17938110D01*
X-16996915Y17979591D01*
X-16986607Y18013569D01*
X-16969867Y18044887D01*
X-16947339Y18072339D01*
X-16919887Y18094867D01*
X-16888569Y18111607D01*
X-16854591Y18121915D01*
X-16813110Y18126000D01*
X-16211890Y18126000D01*
X-16170409Y18121915D01*
X-16170409Y18121915D01*
G37*
G36*
X-17745409Y18121915D02*
X-17711431Y18111607D01*
X-17680113Y18094867D01*
X-17652661Y18072339D01*
X-17630133Y18044887D01*
X-17613393Y18013569D01*
X-17603085Y17979591D01*
X-17599000Y17938110D01*
X-17599000Y17261890D01*
X-17603085Y17220409D01*
X-17613393Y17186431D01*
X-17630133Y17155113D01*
X-17652661Y17127661D01*
X-17680113Y17105133D01*
X-17711431Y17088393D01*
X-17745409Y17078085D01*
X-17786890Y17074000D01*
X-18388110Y17074000D01*
X-18429591Y17078085D01*
X-18463569Y17088393D01*
X-18494887Y17105133D01*
X-18522339Y17127661D01*
X-18544867Y17155113D01*
X-18561607Y17186431D01*
X-18571915Y17220409D01*
X-18576000Y17261890D01*
X-18576000Y17938110D01*
X-18571915Y17979591D01*
X-18561607Y18013569D01*
X-18544867Y18044887D01*
X-18522339Y18072339D01*
X-18494887Y18094867D01*
X-18463569Y18111607D01*
X-18429591Y18121915D01*
X-18388110Y18126000D01*
X-17786890Y18126000D01*
X-17745409Y18121915D01*
X-17745409Y18121915D01*
G37*
G36*
X-116520409Y18296915D02*
X-116486431Y18286607D01*
X-116455113Y18269867D01*
X-116427661Y18247339D01*
X-116405133Y18219887D01*
X-116388393Y18188569D01*
X-116378085Y18154591D01*
X-116374000Y18113110D01*
X-116374000Y17511890D01*
X-116378085Y17470409D01*
X-116388393Y17436431D01*
X-116405133Y17405113D01*
X-116427661Y17377661D01*
X-116455113Y17355133D01*
X-116486431Y17338393D01*
X-116520409Y17328085D01*
X-116561890Y17324000D01*
X-117238110Y17324000D01*
X-117279591Y17328085D01*
X-117313569Y17338393D01*
X-117344887Y17355133D01*
X-117372339Y17377661D01*
X-117394867Y17405113D01*
X-117411607Y17436431D01*
X-117421915Y17470409D01*
X-117426000Y17511890D01*
X-117426000Y18113110D01*
X-117421915Y18154591D01*
X-117411607Y18188569D01*
X-117394867Y18219887D01*
X-117372339Y18247339D01*
X-117344887Y18269867D01*
X-117313569Y18286607D01*
X-117279591Y18296915D01*
X-117238110Y18301000D01*
X-116561890Y18301000D01*
X-116520409Y18296915D01*
X-116520409Y18296915D01*
G37*
G36*
X-173449000Y17849000D02*
X-175101000Y17849000D01*
X-175101000Y19251000D01*
X-173449000Y19251000D01*
X-173449000Y17849000D01*
X-173449000Y17849000D01*
G37*
G36*
X-181399000Y17849000D02*
X-183051000Y17849000D01*
X-183051000Y19251000D01*
X-181399000Y19251000D01*
X-181399000Y17849000D01*
X-181399000Y17849000D01*
G37*
G36*
X-116520409Y19871915D02*
X-116486431Y19861607D01*
X-116455113Y19844867D01*
X-116427661Y19822339D01*
X-116405133Y19794887D01*
X-116388393Y19763569D01*
X-116378085Y19729591D01*
X-116374000Y19688110D01*
X-116374000Y19086890D01*
X-116378085Y19045409D01*
X-116388393Y19011431D01*
X-116405133Y18980113D01*
X-116427661Y18952661D01*
X-116455113Y18930133D01*
X-116486431Y18913393D01*
X-116520409Y18903085D01*
X-116561890Y18899000D01*
X-117238110Y18899000D01*
X-117279591Y18903085D01*
X-117313569Y18913393D01*
X-117344887Y18930133D01*
X-117372339Y18952661D01*
X-117394867Y18980113D01*
X-117411607Y19011431D01*
X-117421915Y19045409D01*
X-117426000Y19086890D01*
X-117426000Y19688110D01*
X-117421915Y19729591D01*
X-117411607Y19763569D01*
X-117394867Y19794887D01*
X-117372339Y19822339D01*
X-117344887Y19844867D01*
X-117313569Y19861607D01*
X-117279591Y19871915D01*
X-117238110Y19876000D01*
X-116561890Y19876000D01*
X-116520409Y19871915D01*
X-116520409Y19871915D01*
G37*
G36*
X-71554155Y20580785D02*
X-71463161Y20543094D01*
X-71390735Y20494700D01*
X-71381266Y20488373D01*
X-71311627Y20418734D01*
X-71311625Y20418731D01*
X-71256906Y20336839D01*
X-71219215Y20245845D01*
X-71200000Y20149246D01*
X-71200000Y20050754D01*
X-71219215Y19954155D01*
X-71256906Y19863161D01*
X-71302526Y19794887D01*
X-71311627Y19781266D01*
X-71381266Y19711627D01*
X-71381269Y19711625D01*
X-71463161Y19656906D01*
X-71554155Y19619215D01*
X-71650754Y19600000D01*
X-71749246Y19600000D01*
X-71845845Y19619215D01*
X-71936839Y19656906D01*
X-72018731Y19711625D01*
X-72018734Y19711627D01*
X-72088373Y19781266D01*
X-72097474Y19794887D01*
X-72143094Y19863161D01*
X-72180785Y19954155D01*
X-72200000Y20050754D01*
X-72200000Y20149246D01*
X-72180785Y20245845D01*
X-72143094Y20336839D01*
X-72088375Y20418731D01*
X-72088373Y20418734D01*
X-72018734Y20488373D01*
X-72009265Y20494700D01*
X-71936839Y20543094D01*
X-71845845Y20580785D01*
X-71749246Y20600000D01*
X-71650754Y20600000D01*
X-71554155Y20580785D01*
X-71554155Y20580785D01*
G37*
G36*
X-21251500Y20094700D02*
X-28748500Y20094700D01*
X-28748500Y21796700D01*
X-21251500Y21796700D01*
X-21251500Y20094700D01*
X-21251500Y20094700D01*
G37*
G36*
X-4099000Y20249000D02*
X-5751000Y20249000D01*
X-5751000Y21651000D01*
X-4099000Y21651000D01*
X-4099000Y20249000D01*
X-4099000Y20249000D01*
G37*
G36*
X-12049000Y20249000D02*
X-13701000Y20249000D01*
X-13701000Y21651000D01*
X-12049000Y21651000D01*
X-12049000Y20249000D01*
X-12049000Y20249000D01*
G37*
G36*
X-122251500Y20494700D02*
X-129748500Y20494700D01*
X-129748500Y22196700D01*
X-122251500Y22196700D01*
X-122251500Y20494700D01*
X-122251500Y20494700D01*
G37*
G36*
X-166299000Y21099000D02*
X-167951000Y21099000D01*
X-167951000Y22501000D01*
X-166299000Y22501000D01*
X-166299000Y21099000D01*
X-166299000Y21099000D01*
G37*
G36*
X-174249000Y21099000D02*
X-175901000Y21099000D01*
X-175901000Y22501000D01*
X-174249000Y22501000D01*
X-174249000Y21099000D01*
X-174249000Y21099000D01*
G37*
G36*
X-180599000Y21099000D02*
X-182251000Y21099000D01*
X-182251000Y22501000D01*
X-180599000Y22501000D01*
X-180599000Y21099000D01*
X-180599000Y21099000D01*
G37*
G36*
X-188549000Y21099000D02*
X-190201000Y21099000D01*
X-190201000Y22501000D01*
X-188549000Y22501000D01*
X-188549000Y21099000D01*
X-188549000Y21099000D01*
G37*
G36*
X-135920409Y22696915D02*
X-135886431Y22686607D01*
X-135855113Y22669867D01*
X-135827661Y22647339D01*
X-135805133Y22619887D01*
X-135788393Y22588569D01*
X-135778085Y22554591D01*
X-135774000Y22513110D01*
X-135774000Y21911890D01*
X-135778085Y21870409D01*
X-135788393Y21836431D01*
X-135805133Y21805113D01*
X-135827661Y21777661D01*
X-135855113Y21755133D01*
X-135886431Y21738393D01*
X-135920409Y21728085D01*
X-135961890Y21724000D01*
X-136638110Y21724000D01*
X-136679591Y21728085D01*
X-136713569Y21738393D01*
X-136744887Y21755133D01*
X-136772339Y21777661D01*
X-136794867Y21805113D01*
X-136811607Y21836431D01*
X-136821915Y21870409D01*
X-136826000Y21911890D01*
X-136826000Y22513110D01*
X-136821915Y22554591D01*
X-136811607Y22588569D01*
X-136794867Y22619887D01*
X-136772339Y22647339D01*
X-136744887Y22669867D01*
X-136713569Y22686607D01*
X-136679591Y22696915D01*
X-136638110Y22701000D01*
X-135961890Y22701000D01*
X-135920409Y22696915D01*
X-135920409Y22696915D01*
G37*
G36*
X-135920409Y24271915D02*
X-135886431Y24261607D01*
X-135855113Y24244867D01*
X-135827661Y24222339D01*
X-135805133Y24194887D01*
X-135788393Y24163569D01*
X-135778085Y24129591D01*
X-135774000Y24088110D01*
X-135774000Y23486890D01*
X-135778085Y23445409D01*
X-135788393Y23411431D01*
X-135805133Y23380113D01*
X-135827661Y23352661D01*
X-135855113Y23330133D01*
X-135886431Y23313393D01*
X-135920409Y23303085D01*
X-135961890Y23299000D01*
X-136638110Y23299000D01*
X-136679591Y23303085D01*
X-136713569Y23313393D01*
X-136744887Y23330133D01*
X-136772339Y23352661D01*
X-136794867Y23380113D01*
X-136811607Y23411431D01*
X-136821915Y23445409D01*
X-136826000Y23486890D01*
X-136826000Y24088110D01*
X-136821915Y24129591D01*
X-136811607Y24163569D01*
X-136794867Y24194887D01*
X-136772339Y24222339D01*
X-136744887Y24244867D01*
X-136713569Y24261607D01*
X-136679591Y24271915D01*
X-136638110Y24276000D01*
X-135961890Y24276000D01*
X-135920409Y24271915D01*
X-135920409Y24271915D01*
G37*
G36*
X-107430408Y24816916D02*
X-107396430Y24806608D01*
X-107365112Y24789868D01*
X-107337660Y24767340D01*
X-107315132Y24739888D01*
X-107298392Y24708570D01*
X-107288084Y24674592D01*
X-107283999Y24633111D01*
X-107283999Y23956891D01*
X-107288084Y23915410D01*
X-107298392Y23881432D01*
X-107315132Y23850114D01*
X-107337660Y23822662D01*
X-107365112Y23800134D01*
X-107396430Y23783394D01*
X-107430408Y23773086D01*
X-107471889Y23769001D01*
X-108073109Y23769001D01*
X-108114590Y23773086D01*
X-108148568Y23783394D01*
X-108179886Y23800134D01*
X-108207338Y23822662D01*
X-108229866Y23850114D01*
X-108246606Y23881432D01*
X-108256914Y23915410D01*
X-108260999Y23956891D01*
X-108260999Y24633111D01*
X-108256914Y24674592D01*
X-108246606Y24708570D01*
X-108229866Y24739888D01*
X-108207338Y24767340D01*
X-108179886Y24789868D01*
X-108148568Y24806608D01*
X-108114590Y24816916D01*
X-108073109Y24821001D01*
X-107471889Y24821001D01*
X-107430408Y24816916D01*
X-107430408Y24816916D01*
G37*
G36*
X-105855408Y24816916D02*
X-105821430Y24806608D01*
X-105790112Y24789868D01*
X-105762660Y24767340D01*
X-105740132Y24739888D01*
X-105723392Y24708570D01*
X-105713084Y24674592D01*
X-105708999Y24633111D01*
X-105708999Y23956891D01*
X-105713084Y23915410D01*
X-105723392Y23881432D01*
X-105740132Y23850114D01*
X-105762660Y23822662D01*
X-105790112Y23800134D01*
X-105821430Y23783394D01*
X-105855408Y23773086D01*
X-105896889Y23769001D01*
X-106498109Y23769001D01*
X-106539590Y23773086D01*
X-106573568Y23783394D01*
X-106604886Y23800134D01*
X-106632338Y23822662D01*
X-106654866Y23850114D01*
X-106671606Y23881432D01*
X-106681914Y23915410D01*
X-106685999Y23956891D01*
X-106685999Y24633111D01*
X-106681914Y24674592D01*
X-106671606Y24708570D01*
X-106654866Y24739888D01*
X-106632338Y24767340D01*
X-106604886Y24789868D01*
X-106573568Y24806608D01*
X-106539590Y24816916D01*
X-106498109Y24821001D01*
X-105896889Y24821001D01*
X-105855408Y24816916D01*
X-105855408Y24816916D01*
G37*
G36*
X-113079000Y23849000D02*
X-114681000Y23849000D01*
X-114681000Y24951000D01*
X-113079000Y24951000D01*
X-113079000Y23849000D01*
X-113079000Y23849000D01*
G37*
G36*
X-58649000Y23949000D02*
X-59551000Y23949000D01*
X-59551000Y24951000D01*
X-58649000Y24951000D01*
X-58649000Y23949000D01*
X-58649000Y23949000D01*
G37*
G36*
X-65449000Y23949000D02*
X-66351000Y23949000D01*
X-66351000Y24951000D01*
X-65449000Y24951000D01*
X-65449000Y23949000D01*
X-65449000Y23949000D01*
G37*
G36*
X-72249000Y23955236D02*
X-73151000Y23955236D01*
X-73151000Y24957236D01*
X-72249000Y24957236D01*
X-72249000Y23955236D01*
X-72249000Y23955236D01*
G37*
G36*
X-118009842Y25471914D02*
X-117975864Y25461606D01*
X-117944546Y25444866D01*
X-117917094Y25422338D01*
X-117894566Y25394886D01*
X-117877826Y25363568D01*
X-117867518Y25329590D01*
X-117863433Y25288109D01*
X-117863433Y24686889D01*
X-117867518Y24645408D01*
X-117877826Y24611430D01*
X-117894566Y24580112D01*
X-117917094Y24552660D01*
X-117944546Y24530132D01*
X-117975864Y24513392D01*
X-118009842Y24503084D01*
X-118051323Y24498999D01*
X-118727543Y24498999D01*
X-118769024Y24503084D01*
X-118803002Y24513392D01*
X-118834320Y24530132D01*
X-118861772Y24552660D01*
X-118884300Y24580112D01*
X-118901040Y24611430D01*
X-118911348Y24645408D01*
X-118915433Y24686889D01*
X-118915433Y25288109D01*
X-118911348Y25329590D01*
X-118901040Y25363568D01*
X-118884300Y25394886D01*
X-118861772Y25422338D01*
X-118834320Y25444866D01*
X-118803002Y25461606D01*
X-118769024Y25471914D01*
X-118727543Y25475999D01*
X-118051323Y25475999D01*
X-118009842Y25471914D01*
X-118009842Y25471914D01*
G37*
G36*
X-110174225Y27073879D02*
X-110152918Y27061778D01*
X-110129658Y27054067D01*
X-110102140Y27051000D01*
X-110090765Y27051000D01*
X-110085985Y27035243D01*
X-110074434Y27013632D01*
X-110058888Y26994690D01*
X-110042585Y26980957D01*
X-109257000Y26426427D01*
X-109257000Y25373573D01*
X-110042585Y24819043D01*
X-110061123Y24803018D01*
X-110076178Y24783684D01*
X-110087172Y24761784D01*
X-110090695Y24749000D01*
X-110102140Y24749000D01*
X-110126526Y24746598D01*
X-110149975Y24739485D01*
X-110174225Y24726121D01*
X-110209000Y24701574D01*
X-110227450Y24688551D01*
X-110230066Y24693446D01*
X-110245612Y24712388D01*
X-110264554Y24727934D01*
X-110286165Y24739485D01*
X-110309614Y24746598D01*
X-110334000Y24749000D01*
X-111800200Y24749000D01*
X-111824586Y24746598D01*
X-111848035Y24739485D01*
X-111869646Y24727934D01*
X-111888588Y24712388D01*
X-111904134Y24693446D01*
X-111906524Y24688974D01*
X-111959996Y24726404D01*
X-111981352Y24738421D01*
X-112004641Y24746041D01*
X-112031679Y24749000D01*
X-112042644Y24749000D01*
X-112047015Y24763410D01*
X-112058566Y24785021D01*
X-112074112Y24803963D01*
X-112090817Y24817979D01*
X-112280847Y24951000D01*
X-112817141Y25326406D01*
X-112838494Y25338421D01*
X-112861783Y25346041D01*
X-112888821Y25349000D01*
X-114684500Y25349000D01*
X-114684500Y26451000D01*
X-112888821Y26451000D01*
X-112864435Y26453402D01*
X-112840986Y26460515D01*
X-112817141Y26473595D01*
X-112090816Y26982022D01*
X-112072217Y26997973D01*
X-112057085Y27017248D01*
X-112046005Y27039104D01*
X-112042676Y27051000D01*
X-112031679Y27051000D01*
X-112007293Y27053402D01*
X-111983844Y27060515D01*
X-111959996Y27073596D01*
X-111906524Y27111026D01*
X-111904134Y27106554D01*
X-111888588Y27087612D01*
X-111869646Y27072066D01*
X-111848035Y27060515D01*
X-111824586Y27053402D01*
X-111800200Y27051000D01*
X-110334000Y27051000D01*
X-110309614Y27053402D01*
X-110286165Y27060515D01*
X-110264554Y27072066D01*
X-110245612Y27087612D01*
X-110230066Y27106554D01*
X-110227450Y27111449D01*
X-110174225Y27073879D01*
X-110174225Y27073879D01*
G37*
G36*
X-105870409Y26321915D02*
X-105836431Y26311607D01*
X-105805113Y26294867D01*
X-105777661Y26272339D01*
X-105755133Y26244887D01*
X-105738393Y26213569D01*
X-105728085Y26179591D01*
X-105724000Y26138110D01*
X-105724000Y25461890D01*
X-105728085Y25420409D01*
X-105738393Y25386431D01*
X-105755133Y25355113D01*
X-105777661Y25327661D01*
X-105805113Y25305133D01*
X-105836431Y25288393D01*
X-105870409Y25278085D01*
X-105911890Y25274000D01*
X-106513110Y25274000D01*
X-106554591Y25278085D01*
X-106588569Y25288393D01*
X-106619887Y25305133D01*
X-106647339Y25327661D01*
X-106669867Y25355113D01*
X-106686607Y25386431D01*
X-106696915Y25420409D01*
X-106701000Y25461890D01*
X-106701000Y26138110D01*
X-106696915Y26179591D01*
X-106686607Y26213569D01*
X-106669867Y26244887D01*
X-106647339Y26272339D01*
X-106619887Y26294867D01*
X-106588569Y26311607D01*
X-106554591Y26321915D01*
X-106513110Y26326000D01*
X-105911890Y26326000D01*
X-105870409Y26321915D01*
X-105870409Y26321915D01*
G37*
G36*
X-107445409Y26321915D02*
X-107411431Y26311607D01*
X-107380113Y26294867D01*
X-107352661Y26272339D01*
X-107330133Y26244887D01*
X-107313393Y26213569D01*
X-107303085Y26179591D01*
X-107299000Y26138110D01*
X-107299000Y25461890D01*
X-107303085Y25420409D01*
X-107313393Y25386431D01*
X-107330133Y25355113D01*
X-107352661Y25327661D01*
X-107380113Y25305133D01*
X-107411431Y25288393D01*
X-107445409Y25278085D01*
X-107486890Y25274000D01*
X-108088110Y25274000D01*
X-108129591Y25278085D01*
X-108163569Y25288393D01*
X-108194887Y25305133D01*
X-108222339Y25327661D01*
X-108244867Y25355113D01*
X-108261607Y25386431D01*
X-108271915Y25420409D01*
X-108276000Y25461890D01*
X-108276000Y26138110D01*
X-108271915Y26179591D01*
X-108261607Y26213569D01*
X-108244867Y26244887D01*
X-108222339Y26272339D01*
X-108194887Y26294867D01*
X-108163569Y26311607D01*
X-108129591Y26321915D01*
X-108088110Y26326000D01*
X-107486890Y26326000D01*
X-107445409Y26321915D01*
X-107445409Y26321915D01*
G37*
G36*
X-21251500Y25403300D02*
X-28748500Y25403300D01*
X-28748500Y27105300D01*
X-21251500Y27105300D01*
X-21251500Y25403300D01*
X-21251500Y25403300D01*
G37*
G36*
X-52344004Y27246949D02*
X-52310347Y27236739D01*
X-52279333Y27220162D01*
X-52252148Y27197852D01*
X-52229838Y27170667D01*
X-52213261Y27139653D01*
X-52203051Y27105996D01*
X-52199000Y27064862D01*
X-52199000Y25735138D01*
X-52203051Y25694004D01*
X-52213261Y25660347D01*
X-52229838Y25629333D01*
X-52252148Y25602148D01*
X-52279333Y25579838D01*
X-52310347Y25563261D01*
X-52344004Y25553051D01*
X-52385138Y25549000D01*
X-55614862Y25549000D01*
X-55655996Y25553051D01*
X-55689653Y25563261D01*
X-55720667Y25579838D01*
X-55747852Y25602148D01*
X-55770162Y25629333D01*
X-55786739Y25660347D01*
X-55796949Y25694004D01*
X-55801000Y25735138D01*
X-55801000Y27064862D01*
X-55796949Y27105996D01*
X-55786739Y27139653D01*
X-55770162Y27170667D01*
X-55747852Y27197852D01*
X-55720667Y27220162D01*
X-55689653Y27236739D01*
X-55655996Y27246949D01*
X-55614862Y27251000D01*
X-52385138Y27251000D01*
X-52344004Y27246949D01*
X-52344004Y27246949D01*
G37*
G36*
X-46744004Y27246949D02*
X-46710347Y27236739D01*
X-46679333Y27220162D01*
X-46652148Y27197852D01*
X-46629838Y27170667D01*
X-46613261Y27139653D01*
X-46603051Y27105996D01*
X-46599000Y27064862D01*
X-46599000Y25735138D01*
X-46603051Y25694004D01*
X-46613261Y25660347D01*
X-46629838Y25629333D01*
X-46652148Y25602148D01*
X-46679333Y25579838D01*
X-46710347Y25563261D01*
X-46744004Y25553051D01*
X-46785138Y25549000D01*
X-50014862Y25549000D01*
X-50055996Y25553051D01*
X-50089653Y25563261D01*
X-50120667Y25579838D01*
X-50147852Y25602148D01*
X-50170162Y25629333D01*
X-50186739Y25660347D01*
X-50196949Y25694004D01*
X-50201000Y25735138D01*
X-50201000Y27064862D01*
X-50196949Y27105996D01*
X-50186739Y27139653D01*
X-50170162Y27170667D01*
X-50147852Y27197852D01*
X-50120667Y27220162D01*
X-50089653Y27236739D01*
X-50055996Y27246949D01*
X-50014862Y27251000D01*
X-46785138Y27251000D01*
X-46744004Y27246949D01*
X-46744004Y27246949D01*
G37*
G36*
X-166299000Y25599000D02*
X-167951000Y25599000D01*
X-167951000Y27001000D01*
X-166299000Y27001000D01*
X-166299000Y25599000D01*
X-166299000Y25599000D01*
G37*
G36*
X-180599000Y25599000D02*
X-182251000Y25599000D01*
X-182251000Y27001000D01*
X-180599000Y27001000D01*
X-180599000Y25599000D01*
X-180599000Y25599000D01*
G37*
G36*
X-188549000Y25599000D02*
X-190201000Y25599000D01*
X-190201000Y27001000D01*
X-188549000Y27001000D01*
X-188549000Y25599000D01*
X-188549000Y25599000D01*
G37*
G36*
X-174249000Y25599000D02*
X-175901000Y25599000D01*
X-175901000Y27001000D01*
X-174249000Y27001000D01*
X-174249000Y25599000D01*
X-174249000Y25599000D01*
G37*
G36*
X-16170409Y26821915D02*
X-16136431Y26811607D01*
X-16105113Y26794867D01*
X-16077661Y26772339D01*
X-16055133Y26744887D01*
X-16038393Y26713569D01*
X-16028085Y26679591D01*
X-16024000Y26638110D01*
X-16024000Y25961890D01*
X-16028085Y25920409D01*
X-16038393Y25886431D01*
X-16055133Y25855113D01*
X-16077661Y25827661D01*
X-16105113Y25805133D01*
X-16136431Y25788393D01*
X-16170409Y25778085D01*
X-16211890Y25774000D01*
X-16813110Y25774000D01*
X-16854591Y25778085D01*
X-16888569Y25788393D01*
X-16919887Y25805133D01*
X-16947339Y25827661D01*
X-16969867Y25855113D01*
X-16986607Y25886431D01*
X-16996915Y25920409D01*
X-17001000Y25961890D01*
X-17001000Y26638110D01*
X-16996915Y26679591D01*
X-16986607Y26713569D01*
X-16969867Y26744887D01*
X-16947339Y26772339D01*
X-16919887Y26794867D01*
X-16888569Y26811607D01*
X-16854591Y26821915D01*
X-16813110Y26826000D01*
X-16211890Y26826000D01*
X-16170409Y26821915D01*
X-16170409Y26821915D01*
G37*
G36*
X-17745409Y26821915D02*
X-17711431Y26811607D01*
X-17680113Y26794867D01*
X-17652661Y26772339D01*
X-17630133Y26744887D01*
X-17613393Y26713569D01*
X-17603085Y26679591D01*
X-17599000Y26638110D01*
X-17599000Y25961890D01*
X-17603085Y25920409D01*
X-17613393Y25886431D01*
X-17630133Y25855113D01*
X-17652661Y25827661D01*
X-17680113Y25805133D01*
X-17711431Y25788393D01*
X-17745409Y25778085D01*
X-17786890Y25774000D01*
X-18388110Y25774000D01*
X-18429591Y25778085D01*
X-18463569Y25788393D01*
X-18494887Y25805133D01*
X-18522339Y25827661D01*
X-18544867Y25855113D01*
X-18561607Y25886431D01*
X-18571915Y25920409D01*
X-18576000Y25961890D01*
X-18576000Y26638110D01*
X-18571915Y26679591D01*
X-18561607Y26713569D01*
X-18544867Y26744887D01*
X-18522339Y26772339D01*
X-18494887Y26794867D01*
X-18463569Y26811607D01*
X-18429591Y26821915D01*
X-18388110Y26826000D01*
X-17786890Y26826000D01*
X-17745409Y26821915D01*
X-17745409Y26821915D01*
G37*
G36*
X-122251500Y25803300D02*
X-129748500Y25803300D01*
X-129748500Y27505300D01*
X-122251500Y27505300D01*
X-122251500Y25803300D01*
X-122251500Y25803300D01*
G37*
G36*
X-154170409Y26971915D02*
X-154136431Y26961607D01*
X-154105113Y26944867D01*
X-154077661Y26922339D01*
X-154055133Y26894887D01*
X-154038393Y26863569D01*
X-154028085Y26829591D01*
X-154024000Y26788110D01*
X-154024000Y26111890D01*
X-154028085Y26070409D01*
X-154038393Y26036431D01*
X-154055133Y26005113D01*
X-154077661Y25977661D01*
X-154105113Y25955133D01*
X-154136431Y25938393D01*
X-154170409Y25928085D01*
X-154211890Y25924000D01*
X-154813110Y25924000D01*
X-154854591Y25928085D01*
X-154888569Y25938393D01*
X-154919887Y25955133D01*
X-154947339Y25977661D01*
X-154969867Y26005113D01*
X-154986607Y26036431D01*
X-154996915Y26070409D01*
X-155001000Y26111890D01*
X-155001000Y26788110D01*
X-154996915Y26829591D01*
X-154986607Y26863569D01*
X-154969867Y26894887D01*
X-154947339Y26922339D01*
X-154919887Y26944867D01*
X-154888569Y26961607D01*
X-154854591Y26971915D01*
X-154813110Y26976000D01*
X-154211890Y26976000D01*
X-154170409Y26971915D01*
X-154170409Y26971915D01*
G37*
G36*
X-155745409Y26971915D02*
X-155711431Y26961607D01*
X-155680113Y26944867D01*
X-155652661Y26922339D01*
X-155630133Y26894887D01*
X-155613393Y26863569D01*
X-155603085Y26829591D01*
X-155599000Y26788110D01*
X-155599000Y26111890D01*
X-155603085Y26070409D01*
X-155613393Y26036431D01*
X-155630133Y26005113D01*
X-155652661Y25977661D01*
X-155680113Y25955133D01*
X-155711431Y25938393D01*
X-155745409Y25928085D01*
X-155786890Y25924000D01*
X-156388110Y25924000D01*
X-156429591Y25928085D01*
X-156463569Y25938393D01*
X-156494887Y25955133D01*
X-156522339Y25977661D01*
X-156544867Y26005113D01*
X-156561607Y26036431D01*
X-156571915Y26070409D01*
X-156576000Y26111890D01*
X-156576000Y26788110D01*
X-156571915Y26829591D01*
X-156561607Y26863569D01*
X-156544867Y26894887D01*
X-156522339Y26922339D01*
X-156494887Y26944867D01*
X-156463569Y26961607D01*
X-156429591Y26971915D01*
X-156388110Y26976000D01*
X-155786890Y26976000D01*
X-155745409Y26971915D01*
X-155745409Y26971915D01*
G37*
G36*
X-59599000Y25949000D02*
X-60501000Y25949000D01*
X-60501000Y26951000D01*
X-59599000Y26951000D01*
X-59599000Y25949000D01*
X-59599000Y25949000D01*
G37*
G36*
X-64499000Y25949000D02*
X-65401000Y25949000D01*
X-65401000Y26951000D01*
X-64499000Y26951000D01*
X-64499000Y25949000D01*
X-64499000Y25949000D01*
G37*
G36*
X-66399000Y25949000D02*
X-67301000Y25949000D01*
X-67301000Y26951000D01*
X-66399000Y26951000D01*
X-66399000Y25949000D01*
X-66399000Y25949000D01*
G37*
G36*
X-57699000Y25949000D02*
X-58601000Y25949000D01*
X-58601000Y26951000D01*
X-57699000Y26951000D01*
X-57699000Y25949000D01*
X-57699000Y25949000D01*
G37*
G36*
X-73199000Y25955236D02*
X-74101000Y25955236D01*
X-74101000Y26957236D01*
X-73199000Y26957236D01*
X-73199000Y25955236D01*
X-73199000Y25955236D01*
G37*
G36*
X-71299000Y25955236D02*
X-72201000Y25955236D01*
X-72201000Y26957236D01*
X-71299000Y26957236D01*
X-71299000Y25955236D01*
X-71299000Y25955236D01*
G37*
G36*
X-118009842Y27046914D02*
X-117975864Y27036606D01*
X-117944546Y27019866D01*
X-117917094Y26997338D01*
X-117894566Y26969886D01*
X-117877826Y26938568D01*
X-117867518Y26904590D01*
X-117863433Y26863109D01*
X-117863433Y26261889D01*
X-117867518Y26220408D01*
X-117877826Y26186430D01*
X-117894566Y26155112D01*
X-117917094Y26127660D01*
X-117944546Y26105132D01*
X-117975864Y26088392D01*
X-118009842Y26078084D01*
X-118051323Y26073999D01*
X-118727543Y26073999D01*
X-118769024Y26078084D01*
X-118803002Y26088392D01*
X-118834320Y26105132D01*
X-118861772Y26127660D01*
X-118884300Y26155112D01*
X-118901040Y26186430D01*
X-118911348Y26220408D01*
X-118915433Y26261889D01*
X-118915433Y26863109D01*
X-118911348Y26904590D01*
X-118901040Y26938568D01*
X-118884300Y26969886D01*
X-118861772Y26997338D01*
X-118834320Y27019866D01*
X-118803002Y27036606D01*
X-118769024Y27046914D01*
X-118727543Y27050999D01*
X-118051323Y27050999D01*
X-118009842Y27046914D01*
X-118009842Y27046914D01*
G37*
G36*
X-107445409Y27821915D02*
X-107411431Y27811607D01*
X-107380113Y27794867D01*
X-107352661Y27772339D01*
X-107330133Y27744887D01*
X-107313393Y27713569D01*
X-107303085Y27679591D01*
X-107299000Y27638110D01*
X-107299000Y26961890D01*
X-107303085Y26920409D01*
X-107313393Y26886431D01*
X-107330133Y26855113D01*
X-107352661Y26827661D01*
X-107380113Y26805133D01*
X-107411431Y26788393D01*
X-107445409Y26778085D01*
X-107486890Y26774000D01*
X-108088110Y26774000D01*
X-108129591Y26778085D01*
X-108163569Y26788393D01*
X-108194887Y26805133D01*
X-108222339Y26827661D01*
X-108244867Y26855113D01*
X-108261607Y26886431D01*
X-108271915Y26920409D01*
X-108276000Y26961890D01*
X-108276000Y27638110D01*
X-108271915Y27679591D01*
X-108261607Y27713569D01*
X-108244867Y27744887D01*
X-108222339Y27772339D01*
X-108194887Y27794867D01*
X-108163569Y27811607D01*
X-108129591Y27821915D01*
X-108088110Y27826000D01*
X-107486890Y27826000D01*
X-107445409Y27821915D01*
X-107445409Y27821915D01*
G37*
G36*
X-105870409Y27821915D02*
X-105836431Y27811607D01*
X-105805113Y27794867D01*
X-105777661Y27772339D01*
X-105755133Y27744887D01*
X-105738393Y27713569D01*
X-105728085Y27679591D01*
X-105724000Y27638110D01*
X-105724000Y26961890D01*
X-105728085Y26920409D01*
X-105738393Y26886431D01*
X-105755133Y26855113D01*
X-105777661Y26827661D01*
X-105805113Y26805133D01*
X-105836431Y26788393D01*
X-105870409Y26778085D01*
X-105911890Y26774000D01*
X-106513110Y26774000D01*
X-106554591Y26778085D01*
X-106588569Y26788393D01*
X-106619887Y26805133D01*
X-106647339Y26827661D01*
X-106669867Y26855113D01*
X-106686607Y26886431D01*
X-106696915Y26920409D01*
X-106701000Y26961890D01*
X-106701000Y27638110D01*
X-106696915Y27679591D01*
X-106686607Y27713569D01*
X-106669867Y27744887D01*
X-106647339Y27772339D01*
X-106619887Y27794867D01*
X-106588569Y27811607D01*
X-106554591Y27821915D01*
X-106513110Y27826000D01*
X-105911890Y27826000D01*
X-105870409Y27821915D01*
X-105870409Y27821915D01*
G37*
G36*
X-12049000Y26849000D02*
X-13701000Y26849000D01*
X-13701000Y28251000D01*
X-12049000Y28251000D01*
X-12049000Y26849000D01*
X-12049000Y26849000D01*
G37*
G36*
X-4099000Y26849000D02*
X-5751000Y26849000D01*
X-5751000Y28251000D01*
X-4099000Y28251000D01*
X-4099000Y26849000D01*
X-4099000Y26849000D01*
G37*
G36*
X-113079000Y26849000D02*
X-114681000Y26849000D01*
X-114681000Y27951000D01*
X-113079000Y27951000D01*
X-113079000Y26849000D01*
X-113079000Y26849000D01*
G37*
G36*
X-146294000Y27694000D02*
X-147296000Y27694000D01*
X-147296000Y29796000D01*
X-146294000Y29796000D01*
X-146294000Y27694000D01*
X-146294000Y27694000D01*
G37*
G36*
X-147564000Y27694000D02*
X-148566000Y27694000D01*
X-148566000Y29796000D01*
X-147564000Y29796000D01*
X-147564000Y27694000D01*
X-147564000Y27694000D01*
G37*
G36*
X-148834000Y27694000D02*
X-149836000Y27694000D01*
X-149836000Y29796000D01*
X-148834000Y29796000D01*
X-148834000Y27694000D01*
X-148834000Y27694000D01*
G37*
G36*
X-153914000Y27694000D02*
X-154916000Y27694000D01*
X-154916000Y29796000D01*
X-153914000Y29796000D01*
X-153914000Y27694000D01*
X-153914000Y27694000D01*
G37*
G36*
X-152644000Y27694000D02*
X-153646000Y27694000D01*
X-153646000Y29796000D01*
X-152644000Y29796000D01*
X-152644000Y27694000D01*
X-152644000Y27694000D01*
G37*
G36*
X-151374000Y27694000D02*
X-152376000Y27694000D01*
X-152376000Y29796000D01*
X-151374000Y29796000D01*
X-151374000Y27694000D01*
X-151374000Y27694000D01*
G37*
G36*
X-150104000Y27694000D02*
X-151106000Y27694000D01*
X-151106000Y29796000D01*
X-150104000Y29796000D01*
X-150104000Y27694000D01*
X-150104000Y27694000D01*
G37*
G36*
X-145024000Y27694000D02*
X-146026000Y27694000D01*
X-146026000Y29796000D01*
X-145024000Y29796000D01*
X-145024000Y27694000D01*
X-145024000Y27694000D01*
G37*
G36*
X-143754000Y27694000D02*
X-144756000Y27694000D01*
X-144756000Y29796000D01*
X-143754000Y29796000D01*
X-143754000Y27694000D01*
X-143754000Y27694000D01*
G37*
G36*
X-142484000Y27694000D02*
X-143486000Y27694000D01*
X-143486000Y29796000D01*
X-142484000Y29796000D01*
X-142484000Y27694000D01*
X-142484000Y27694000D01*
G37*
G36*
X-65545409Y29621915D02*
X-65511431Y29611607D01*
X-65480113Y29594867D01*
X-65452661Y29572339D01*
X-65430133Y29544887D01*
X-65413393Y29513569D01*
X-65403085Y29479591D01*
X-65399000Y29438110D01*
X-65399000Y28761890D01*
X-65403085Y28720409D01*
X-65413393Y28686431D01*
X-65430133Y28655113D01*
X-65452661Y28627661D01*
X-65480113Y28605133D01*
X-65511431Y28588393D01*
X-65545409Y28578085D01*
X-65586890Y28574000D01*
X-66188110Y28574000D01*
X-66229591Y28578085D01*
X-66263569Y28588393D01*
X-66294887Y28605133D01*
X-66322339Y28627661D01*
X-66344867Y28655113D01*
X-66361607Y28686431D01*
X-66371915Y28720409D01*
X-66376000Y28761890D01*
X-66376000Y29438110D01*
X-66371915Y29479591D01*
X-66361607Y29513569D01*
X-66344867Y29544887D01*
X-66322339Y29572339D01*
X-66294887Y29594867D01*
X-66263569Y29611607D01*
X-66229591Y29621915D01*
X-66188110Y29626000D01*
X-65586890Y29626000D01*
X-65545409Y29621915D01*
X-65545409Y29621915D01*
G37*
G36*
X-63970409Y29621915D02*
X-63936431Y29611607D01*
X-63905113Y29594867D01*
X-63877661Y29572339D01*
X-63855133Y29544887D01*
X-63838393Y29513569D01*
X-63828085Y29479591D01*
X-63824000Y29438110D01*
X-63824000Y28761890D01*
X-63828085Y28720409D01*
X-63838393Y28686431D01*
X-63855133Y28655113D01*
X-63877661Y28627661D01*
X-63905113Y28605133D01*
X-63936431Y28588393D01*
X-63970409Y28578085D01*
X-64011890Y28574000D01*
X-64613110Y28574000D01*
X-64654591Y28578085D01*
X-64688569Y28588393D01*
X-64719887Y28605133D01*
X-64747339Y28627661D01*
X-64769867Y28655113D01*
X-64786607Y28686431D01*
X-64796915Y28720409D01*
X-64801000Y28761890D01*
X-64801000Y29438110D01*
X-64796915Y29479591D01*
X-64786607Y29513569D01*
X-64769867Y29544887D01*
X-64747339Y29572339D01*
X-64719887Y29594867D01*
X-64688569Y29611607D01*
X-64654591Y29621915D01*
X-64613110Y29626000D01*
X-64011890Y29626000D01*
X-63970409Y29621915D01*
X-63970409Y29621915D01*
G37*
G36*
X-163220409Y29796915D02*
X-163186431Y29786607D01*
X-163155113Y29769867D01*
X-163127661Y29747339D01*
X-163105133Y29719887D01*
X-163088393Y29688569D01*
X-163078085Y29654591D01*
X-163074000Y29613110D01*
X-163074000Y29011890D01*
X-163078085Y28970409D01*
X-163088393Y28936431D01*
X-163105133Y28905113D01*
X-163127661Y28877661D01*
X-163155113Y28855133D01*
X-163186431Y28838393D01*
X-163220409Y28828085D01*
X-163261890Y28824000D01*
X-163938110Y28824000D01*
X-163979591Y28828085D01*
X-164013569Y28838393D01*
X-164044887Y28855133D01*
X-164072339Y28877661D01*
X-164094867Y28905113D01*
X-164111607Y28936431D01*
X-164121915Y28970409D01*
X-164126000Y29011890D01*
X-164126000Y29613110D01*
X-164121915Y29654591D01*
X-164111607Y29688569D01*
X-164094867Y29719887D01*
X-164072339Y29747339D01*
X-164044887Y29769867D01*
X-164013569Y29786607D01*
X-163979591Y29796915D01*
X-163938110Y29801000D01*
X-163261890Y29801000D01*
X-163220409Y29796915D01*
X-163220409Y29796915D01*
G37*
G36*
X-181399000Y28849000D02*
X-183051000Y28849000D01*
X-183051000Y30251000D01*
X-181399000Y30251000D01*
X-181399000Y28849000D01*
X-181399000Y28849000D01*
G37*
G36*
X-173449000Y28849000D02*
X-175101000Y28849000D01*
X-175101000Y30251000D01*
X-173449000Y30251000D01*
X-173449000Y28849000D01*
X-173449000Y28849000D01*
G37*
G36*
X-156149000Y29244000D02*
X-158251000Y29244000D01*
X-158251000Y30246000D01*
X-156149000Y30246000D01*
X-156149000Y29244000D01*
X-156149000Y29244000D01*
G37*
G36*
X-139149000Y29244000D02*
X-141251000Y29244000D01*
X-141251000Y30246000D01*
X-139149000Y30246000D01*
X-139149000Y29244000D01*
X-139149000Y29244000D01*
G37*
G36*
X-163220409Y31371915D02*
X-163186431Y31361607D01*
X-163155113Y31344867D01*
X-163127661Y31322339D01*
X-163105133Y31294887D01*
X-163088393Y31263569D01*
X-163078085Y31229591D01*
X-163074000Y31188110D01*
X-163074000Y30586890D01*
X-163078085Y30545409D01*
X-163088393Y30511431D01*
X-163105133Y30480113D01*
X-163127661Y30452661D01*
X-163155113Y30430133D01*
X-163186431Y30413393D01*
X-163220409Y30403085D01*
X-163261890Y30399000D01*
X-163938110Y30399000D01*
X-163979591Y30403085D01*
X-164013569Y30413393D01*
X-164044887Y30430133D01*
X-164072339Y30452661D01*
X-164094867Y30480113D01*
X-164111607Y30511431D01*
X-164121915Y30545409D01*
X-164126000Y30586890D01*
X-164126000Y31188110D01*
X-164121915Y31229591D01*
X-164111607Y31263569D01*
X-164094867Y31294887D01*
X-164072339Y31322339D01*
X-164044887Y31344867D01*
X-164013569Y31361607D01*
X-163979591Y31371915D01*
X-163938110Y31376000D01*
X-163261890Y31376000D01*
X-163220409Y31371915D01*
X-163220409Y31371915D01*
G37*
G36*
X-139149000Y30514000D02*
X-141251000Y30514000D01*
X-141251000Y31516000D01*
X-139149000Y31516000D01*
X-139149000Y30514000D01*
X-139149000Y30514000D01*
G37*
G36*
X-156149000Y30514000D02*
X-158251000Y30514000D01*
X-158251000Y31516000D01*
X-156149000Y31516000D01*
X-156149000Y30514000D01*
X-156149000Y30514000D01*
G37*
G36*
X-12049000Y31349000D02*
X-13701000Y31349000D01*
X-13701000Y32751000D01*
X-12049000Y32751000D01*
X-12049000Y31349000D01*
X-12049000Y31349000D01*
G37*
G36*
X-4099000Y31349000D02*
X-5751000Y31349000D01*
X-5751000Y32751000D01*
X-4099000Y32751000D01*
X-4099000Y31349000D01*
X-4099000Y31349000D01*
G37*
G36*
X-139149000Y31784000D02*
X-141251000Y31784000D01*
X-141251000Y32786000D01*
X-139149000Y32786000D01*
X-139149000Y31784000D01*
X-139149000Y31784000D01*
G37*
G36*
X-156149000Y31784000D02*
X-158251000Y31784000D01*
X-158251000Y32786000D01*
X-156149000Y32786000D01*
X-156149000Y31784000D01*
X-156149000Y31784000D01*
G37*
G36*
X-156149000Y33054000D02*
X-158251000Y33054000D01*
X-158251000Y34056000D01*
X-156149000Y34056000D01*
X-156149000Y33054000D01*
X-156149000Y33054000D01*
G37*
G36*
X-139149000Y33054000D02*
X-141251000Y33054000D01*
X-141251000Y34056000D01*
X-139149000Y34056000D01*
X-139149000Y33054000D01*
X-139149000Y33054000D01*
G37*
G36*
X-173449000Y33349000D02*
X-175101000Y33349000D01*
X-175101000Y34751000D01*
X-173449000Y34751000D01*
X-173449000Y33349000D01*
X-173449000Y33349000D01*
G37*
G36*
X-181399000Y33349000D02*
X-183051000Y33349000D01*
X-183051000Y34751000D01*
X-181399000Y34751000D01*
X-181399000Y33349000D01*
X-181399000Y33349000D01*
G37*
G36*
X-156149000Y34324000D02*
X-158251000Y34324000D01*
X-158251000Y35326000D01*
X-156149000Y35326000D01*
X-156149000Y34324000D01*
X-156149000Y34324000D01*
G37*
G36*
X-139149000Y34324000D02*
X-141251000Y34324000D01*
X-141251000Y35326000D01*
X-139149000Y35326000D01*
X-139149000Y34324000D01*
X-139149000Y34324000D01*
G37*
G36*
X-164320409Y36396915D02*
X-164286431Y36386607D01*
X-164255113Y36369867D01*
X-164227661Y36347339D01*
X-164205133Y36319887D01*
X-164188393Y36288569D01*
X-164178085Y36254591D01*
X-164174000Y36213110D01*
X-164174000Y35611890D01*
X-164178085Y35570409D01*
X-164188393Y35536431D01*
X-164205133Y35505113D01*
X-164227661Y35477661D01*
X-164255113Y35455133D01*
X-164286431Y35438393D01*
X-164320409Y35428085D01*
X-164361890Y35424000D01*
X-165038110Y35424000D01*
X-165079591Y35428085D01*
X-165113569Y35438393D01*
X-165144887Y35455133D01*
X-165172339Y35477661D01*
X-165194867Y35505113D01*
X-165211607Y35536431D01*
X-165221915Y35570409D01*
X-165226000Y35611890D01*
X-165226000Y36213110D01*
X-165221915Y36254591D01*
X-165211607Y36288569D01*
X-165194867Y36319887D01*
X-165172339Y36347339D01*
X-165144887Y36369867D01*
X-165113569Y36386607D01*
X-165079591Y36396915D01*
X-165038110Y36401000D01*
X-164361890Y36401000D01*
X-164320409Y36396915D01*
X-164320409Y36396915D01*
G37*
G36*
X-165820409Y36396915D02*
X-165786431Y36386607D01*
X-165755113Y36369867D01*
X-165727661Y36347339D01*
X-165705133Y36319887D01*
X-165688393Y36288569D01*
X-165678085Y36254591D01*
X-165674000Y36213110D01*
X-165674000Y35611890D01*
X-165678085Y35570409D01*
X-165688393Y35536431D01*
X-165705133Y35505113D01*
X-165727661Y35477661D01*
X-165755113Y35455133D01*
X-165786431Y35438393D01*
X-165820409Y35428085D01*
X-165861890Y35424000D01*
X-166538110Y35424000D01*
X-166579591Y35428085D01*
X-166613569Y35438393D01*
X-166644887Y35455133D01*
X-166672339Y35477661D01*
X-166694867Y35505113D01*
X-166711607Y35536431D01*
X-166721915Y35570409D01*
X-166726000Y35611890D01*
X-166726000Y36213110D01*
X-166721915Y36254591D01*
X-166711607Y36288569D01*
X-166694867Y36319887D01*
X-166672339Y36347339D01*
X-166644887Y36369867D01*
X-166613569Y36386607D01*
X-166579591Y36396915D01*
X-166538110Y36401000D01*
X-165861890Y36401000D01*
X-165820409Y36396915D01*
X-165820409Y36396915D01*
G37*
G36*
X-162820409Y36396915D02*
X-162786431Y36386607D01*
X-162755113Y36369867D01*
X-162727661Y36347339D01*
X-162705133Y36319887D01*
X-162688393Y36288569D01*
X-162678085Y36254591D01*
X-162674000Y36213110D01*
X-162674000Y35611890D01*
X-162678085Y35570409D01*
X-162688393Y35536431D01*
X-162705133Y35505113D01*
X-162727661Y35477661D01*
X-162755113Y35455133D01*
X-162786431Y35438393D01*
X-162820409Y35428085D01*
X-162861890Y35424000D01*
X-163538110Y35424000D01*
X-163579591Y35428085D01*
X-163613569Y35438393D01*
X-163644887Y35455133D01*
X-163672339Y35477661D01*
X-163694867Y35505113D01*
X-163711607Y35536431D01*
X-163721915Y35570409D01*
X-163726000Y35611890D01*
X-163726000Y36213110D01*
X-163721915Y36254591D01*
X-163711607Y36288569D01*
X-163694867Y36319887D01*
X-163672339Y36347339D01*
X-163644887Y36369867D01*
X-163613569Y36386607D01*
X-163579591Y36396915D01*
X-163538110Y36401000D01*
X-162861890Y36401000D01*
X-162820409Y36396915D01*
X-162820409Y36396915D01*
G37*
G36*
X-167320409Y36396915D02*
X-167286431Y36386607D01*
X-167255113Y36369867D01*
X-167227661Y36347339D01*
X-167205133Y36319887D01*
X-167188393Y36288569D01*
X-167178085Y36254591D01*
X-167174000Y36213110D01*
X-167174000Y35611890D01*
X-167178085Y35570409D01*
X-167188393Y35536431D01*
X-167205133Y35505113D01*
X-167227661Y35477661D01*
X-167255113Y35455133D01*
X-167286431Y35438393D01*
X-167320409Y35428085D01*
X-167361890Y35424000D01*
X-168038110Y35424000D01*
X-168079591Y35428085D01*
X-168113569Y35438393D01*
X-168144887Y35455133D01*
X-168172339Y35477661D01*
X-168194867Y35505113D01*
X-168211607Y35536431D01*
X-168221915Y35570409D01*
X-168226000Y35611890D01*
X-168226000Y36213110D01*
X-168221915Y36254591D01*
X-168211607Y36288569D01*
X-168194867Y36319887D01*
X-168172339Y36347339D01*
X-168144887Y36369867D01*
X-168113569Y36386607D01*
X-168079591Y36396915D01*
X-168038110Y36401000D01*
X-167361890Y36401000D01*
X-167320409Y36396915D01*
X-167320409Y36396915D01*
G37*
G36*
X-156149000Y35594000D02*
X-158251000Y35594000D01*
X-158251000Y36596000D01*
X-156149000Y36596000D01*
X-156149000Y35594000D01*
X-156149000Y35594000D01*
G37*
G36*
X-139149000Y35594000D02*
X-141251000Y35594000D01*
X-141251000Y36596000D01*
X-139149000Y36596000D01*
X-139149000Y35594000D01*
X-139149000Y35594000D01*
G37*
G36*
X-151354155Y36580785D02*
X-151263161Y36543094D01*
X-151182360Y36489104D01*
X-151181266Y36488373D01*
X-151111627Y36418734D01*
X-151056905Y36336837D01*
X-151019215Y36245845D01*
X-151000000Y36149245D01*
X-151000000Y36050755D01*
X-151019215Y35954155D01*
X-151056905Y35863163D01*
X-151111627Y35781266D01*
X-151181266Y35711627D01*
X-151181269Y35711625D01*
X-151263161Y35656906D01*
X-151354155Y35619215D01*
X-151450754Y35600000D01*
X-151549246Y35600000D01*
X-151645845Y35619215D01*
X-151736839Y35656906D01*
X-151818731Y35711625D01*
X-151818734Y35711627D01*
X-151888373Y35781266D01*
X-151943095Y35863163D01*
X-151980785Y35954155D01*
X-152000000Y36050755D01*
X-152000000Y36149245D01*
X-151980785Y36245845D01*
X-151943095Y36336837D01*
X-151888373Y36418734D01*
X-151818734Y36488373D01*
X-151817640Y36489104D01*
X-151736839Y36543094D01*
X-151645845Y36580785D01*
X-151549246Y36600000D01*
X-151450754Y36600000D01*
X-151354155Y36580785D01*
X-151354155Y36580785D01*
G37*
G36*
X-145149000Y36204000D02*
X-150251000Y36204000D01*
X-150251000Y41306000D01*
X-145149000Y41306000D01*
X-145149000Y36204000D01*
X-145149000Y36204000D01*
G37*
G36*
X-139149000Y36864000D02*
X-141251000Y36864000D01*
X-141251000Y37866000D01*
X-139149000Y37866000D01*
X-139149000Y36864000D01*
X-139149000Y36864000D01*
G37*
G36*
X-156149000Y36864000D02*
X-158251000Y36864000D01*
X-158251000Y37866000D01*
X-156149000Y37866000D01*
X-156149000Y36864000D01*
X-156149000Y36864000D01*
G37*
G36*
X-162820409Y37971915D02*
X-162786431Y37961607D01*
X-162755113Y37944867D01*
X-162727661Y37922339D01*
X-162705133Y37894887D01*
X-162688393Y37863569D01*
X-162678085Y37829591D01*
X-162674000Y37788110D01*
X-162674000Y37186890D01*
X-162678085Y37145409D01*
X-162688393Y37111431D01*
X-162705133Y37080113D01*
X-162727661Y37052661D01*
X-162755113Y37030133D01*
X-162786431Y37013393D01*
X-162820409Y37003085D01*
X-162861890Y36999000D01*
X-163538110Y36999000D01*
X-163579591Y37003085D01*
X-163613569Y37013393D01*
X-163644887Y37030133D01*
X-163672339Y37052661D01*
X-163694867Y37080113D01*
X-163711607Y37111431D01*
X-163721915Y37145409D01*
X-163726000Y37186890D01*
X-163726000Y37788110D01*
X-163721915Y37829591D01*
X-163711607Y37863569D01*
X-163694867Y37894887D01*
X-163672339Y37922339D01*
X-163644887Y37944867D01*
X-163613569Y37961607D01*
X-163579591Y37971915D01*
X-163538110Y37976000D01*
X-162861890Y37976000D01*
X-162820409Y37971915D01*
X-162820409Y37971915D01*
G37*
G36*
X-164320409Y37971915D02*
X-164286431Y37961607D01*
X-164255113Y37944867D01*
X-164227661Y37922339D01*
X-164205133Y37894887D01*
X-164188393Y37863569D01*
X-164178085Y37829591D01*
X-164174000Y37788110D01*
X-164174000Y37186890D01*
X-164178085Y37145409D01*
X-164188393Y37111431D01*
X-164205133Y37080113D01*
X-164227661Y37052661D01*
X-164255113Y37030133D01*
X-164286431Y37013393D01*
X-164320409Y37003085D01*
X-164361890Y36999000D01*
X-165038110Y36999000D01*
X-165079591Y37003085D01*
X-165113569Y37013393D01*
X-165144887Y37030133D01*
X-165172339Y37052661D01*
X-165194867Y37080113D01*
X-165211607Y37111431D01*
X-165221915Y37145409D01*
X-165226000Y37186890D01*
X-165226000Y37788110D01*
X-165221915Y37829591D01*
X-165211607Y37863569D01*
X-165194867Y37894887D01*
X-165172339Y37922339D01*
X-165144887Y37944867D01*
X-165113569Y37961607D01*
X-165079591Y37971915D01*
X-165038110Y37976000D01*
X-164361890Y37976000D01*
X-164320409Y37971915D01*
X-164320409Y37971915D01*
G37*
G36*
X-165820409Y37971915D02*
X-165786431Y37961607D01*
X-165755113Y37944867D01*
X-165727661Y37922339D01*
X-165705133Y37894887D01*
X-165688393Y37863569D01*
X-165678085Y37829591D01*
X-165674000Y37788110D01*
X-165674000Y37186890D01*
X-165678085Y37145409D01*
X-165688393Y37111431D01*
X-165705133Y37080113D01*
X-165727661Y37052661D01*
X-165755113Y37030133D01*
X-165786431Y37013393D01*
X-165820409Y37003085D01*
X-165861890Y36999000D01*
X-166538110Y36999000D01*
X-166579591Y37003085D01*
X-166613569Y37013393D01*
X-166644887Y37030133D01*
X-166672339Y37052661D01*
X-166694867Y37080113D01*
X-166711607Y37111431D01*
X-166721915Y37145409D01*
X-166726000Y37186890D01*
X-166726000Y37788110D01*
X-166721915Y37829591D01*
X-166711607Y37863569D01*
X-166694867Y37894887D01*
X-166672339Y37922339D01*
X-166644887Y37944867D01*
X-166613569Y37961607D01*
X-166579591Y37971915D01*
X-166538110Y37976000D01*
X-165861890Y37976000D01*
X-165820409Y37971915D01*
X-165820409Y37971915D01*
G37*
G36*
X-167320409Y37971915D02*
X-167286431Y37961607D01*
X-167255113Y37944867D01*
X-167227661Y37922339D01*
X-167205133Y37894887D01*
X-167188393Y37863569D01*
X-167178085Y37829591D01*
X-167174000Y37788110D01*
X-167174000Y37186890D01*
X-167178085Y37145409D01*
X-167188393Y37111431D01*
X-167205133Y37080113D01*
X-167227661Y37052661D01*
X-167255113Y37030133D01*
X-167286431Y37013393D01*
X-167320409Y37003085D01*
X-167361890Y36999000D01*
X-168038110Y36999000D01*
X-168079591Y37003085D01*
X-168113569Y37013393D01*
X-168144887Y37030133D01*
X-168172339Y37052661D01*
X-168194867Y37080113D01*
X-168211607Y37111431D01*
X-168221915Y37145409D01*
X-168226000Y37186890D01*
X-168226000Y37788110D01*
X-168221915Y37829591D01*
X-168211607Y37863569D01*
X-168194867Y37894887D01*
X-168172339Y37922339D01*
X-168144887Y37944867D01*
X-168113569Y37961607D01*
X-168079591Y37971915D01*
X-168038110Y37976000D01*
X-167361890Y37976000D01*
X-167320409Y37971915D01*
X-167320409Y37971915D01*
G37*
G36*
X-189049000Y37004000D02*
X-190651000Y37004000D01*
X-190651000Y37706000D01*
X-189049000Y37706000D01*
X-189049000Y37004000D01*
X-189049000Y37004000D01*
G37*
G36*
X-183649000Y37004000D02*
X-185251000Y37004000D01*
X-185251000Y37706000D01*
X-183649000Y37706000D01*
X-183649000Y37004000D01*
X-183649000Y37004000D01*
G37*
G36*
X-139149000Y38134000D02*
X-141251000Y38134000D01*
X-141251000Y39136000D01*
X-139149000Y39136000D01*
X-139149000Y38134000D01*
X-139149000Y38134000D01*
G37*
G36*
X-156149000Y38134000D02*
X-158251000Y38134000D01*
X-158251000Y39136000D01*
X-156149000Y39136000D01*
X-156149000Y38134000D01*
X-156149000Y38134000D01*
G37*
G36*
X-183649000Y38274000D02*
X-185251000Y38274000D01*
X-185251000Y38976000D01*
X-183649000Y38976000D01*
X-183649000Y38274000D01*
X-183649000Y38274000D01*
G37*
G36*
X-189049000Y38274000D02*
X-190651000Y38274000D01*
X-190651000Y38976000D01*
X-189049000Y38976000D01*
X-189049000Y38274000D01*
X-189049000Y38274000D01*
G37*
G36*
X-9624000Y39299000D02*
X-10326000Y39299000D01*
X-10326000Y40901000D01*
X-9624000Y40901000D01*
X-9624000Y39299000D01*
X-9624000Y39299000D01*
G37*
G36*
X-10894000Y39299000D02*
X-11596000Y39299000D01*
X-11596000Y40901000D01*
X-10894000Y40901000D01*
X-10894000Y39299000D01*
X-10894000Y39299000D01*
G37*
G36*
X-8354000Y39299000D02*
X-9056000Y39299000D01*
X-9056000Y40901000D01*
X-8354000Y40901000D01*
X-8354000Y39299000D01*
X-8354000Y39299000D01*
G37*
G36*
X-4544000Y39299000D02*
X-5246000Y39299000D01*
X-5246000Y40901000D01*
X-4544000Y40901000D01*
X-4544000Y39299000D01*
X-4544000Y39299000D01*
G37*
G36*
X-3274000Y39299000D02*
X-3976000Y39299000D01*
X-3976000Y40901000D01*
X-3274000Y40901000D01*
X-3274000Y39299000D01*
X-3274000Y39299000D01*
G37*
G36*
X-2004000Y39299000D02*
X-2706000Y39299000D01*
X-2706000Y40901000D01*
X-2004000Y40901000D01*
X-2004000Y39299000D01*
X-2004000Y39299000D01*
G37*
G36*
X-5814000Y39299000D02*
X-6516000Y39299000D01*
X-6516000Y40901000D01*
X-5814000Y40901000D01*
X-5814000Y39299000D01*
X-5814000Y39299000D01*
G37*
G36*
X-7084000Y39299000D02*
X-7786000Y39299000D01*
X-7786000Y40901000D01*
X-7084000Y40901000D01*
X-7084000Y39299000D01*
X-7084000Y39299000D01*
G37*
G36*
X-139149000Y39404000D02*
X-141251000Y39404000D01*
X-141251000Y40406000D01*
X-139149000Y40406000D01*
X-139149000Y39404000D01*
X-139149000Y39404000D01*
G37*
G36*
X-156149000Y39404000D02*
X-158251000Y39404000D01*
X-158251000Y40406000D01*
X-156149000Y40406000D01*
X-156149000Y39404000D01*
X-156149000Y39404000D01*
G37*
G36*
X-183649000Y39544000D02*
X-185251000Y39544000D01*
X-185251000Y40246000D01*
X-183649000Y40246000D01*
X-183649000Y39544000D01*
X-183649000Y39544000D01*
G37*
G36*
X-189049000Y39544000D02*
X-190651000Y39544000D01*
X-190651000Y40246000D01*
X-189049000Y40246000D01*
X-189049000Y39544000D01*
X-189049000Y39544000D01*
G37*
G36*
X-177799000Y40249000D02*
X-178801000Y40249000D01*
X-178801000Y41151000D01*
X-177799000Y41151000D01*
X-177799000Y40249000D01*
X-177799000Y40249000D01*
G37*
G36*
X-139149000Y40674000D02*
X-141251000Y40674000D01*
X-141251000Y41676000D01*
X-139149000Y41676000D01*
X-139149000Y40674000D01*
X-139149000Y40674000D01*
G37*
G36*
X-156149000Y40674000D02*
X-158251000Y40674000D01*
X-158251000Y41676000D01*
X-156149000Y41676000D01*
X-156149000Y40674000D01*
X-156149000Y40674000D01*
G37*
G36*
X-179520409Y41646915D02*
X-179486431Y41636607D01*
X-179455113Y41619867D01*
X-179427661Y41597339D01*
X-179405133Y41569887D01*
X-179388393Y41538569D01*
X-179378085Y41504591D01*
X-179374000Y41463110D01*
X-179374000Y40861890D01*
X-179378085Y40820409D01*
X-179388393Y40786431D01*
X-179405133Y40755113D01*
X-179427661Y40727661D01*
X-179455113Y40705133D01*
X-179486431Y40688393D01*
X-179520409Y40678085D01*
X-179561890Y40674000D01*
X-180238110Y40674000D01*
X-180279591Y40678085D01*
X-180313569Y40688393D01*
X-180344887Y40705133D01*
X-180372339Y40727661D01*
X-180394867Y40755113D01*
X-180411607Y40786431D01*
X-180421915Y40820409D01*
X-180426000Y40861890D01*
X-180426000Y41463110D01*
X-180421915Y41504591D01*
X-180411607Y41538569D01*
X-180394867Y41569887D01*
X-180372339Y41597339D01*
X-180344887Y41619867D01*
X-180313569Y41636607D01*
X-180279591Y41646915D01*
X-180238110Y41651000D01*
X-179561890Y41651000D01*
X-179520409Y41646915D01*
X-179520409Y41646915D01*
G37*
G36*
X-183649000Y40814000D02*
X-185251000Y40814000D01*
X-185251000Y41516000D01*
X-183649000Y41516000D01*
X-183649000Y40814000D01*
X-183649000Y40814000D01*
G37*
G36*
X-189049000Y40814000D02*
X-190651000Y40814000D01*
X-190651000Y41516000D01*
X-189049000Y41516000D01*
X-189049000Y40814000D01*
X-189049000Y40814000D01*
G37*
G36*
X-175799000Y41199000D02*
X-176801000Y41199000D01*
X-176801000Y42101000D01*
X-175799000Y42101000D01*
X-175799000Y41199000D01*
X-175799000Y41199000D01*
G37*
G36*
X-139149000Y41944000D02*
X-141251000Y41944000D01*
X-141251000Y42946000D01*
X-139149000Y42946000D01*
X-139149000Y41944000D01*
X-139149000Y41944000D01*
G37*
G36*
X-156149000Y41944000D02*
X-158251000Y41944000D01*
X-158251000Y42946000D01*
X-156149000Y42946000D01*
X-156149000Y41944000D01*
X-156149000Y41944000D01*
G37*
G36*
X-189049000Y42084000D02*
X-190651000Y42084000D01*
X-190651000Y42786000D01*
X-189049000Y42786000D01*
X-189049000Y42084000D01*
X-189049000Y42084000D01*
G37*
G36*
X-183649000Y42084000D02*
X-185251000Y42084000D01*
X-185251000Y42786000D01*
X-183649000Y42786000D01*
X-183649000Y42084000D01*
X-183649000Y42084000D01*
G37*
G36*
X-177799000Y42149000D02*
X-178801000Y42149000D01*
X-178801000Y43051000D01*
X-177799000Y43051000D01*
X-177799000Y42149000D01*
X-177799000Y42149000D01*
G37*
G36*
X-179520409Y43221915D02*
X-179486431Y43211607D01*
X-179455113Y43194867D01*
X-179427661Y43172339D01*
X-179405133Y43144887D01*
X-179388393Y43113569D01*
X-179378085Y43079591D01*
X-179374000Y43038110D01*
X-179374000Y42436890D01*
X-179378085Y42395409D01*
X-179388393Y42361431D01*
X-179405133Y42330113D01*
X-179427661Y42302661D01*
X-179455113Y42280133D01*
X-179486431Y42263393D01*
X-179520409Y42253085D01*
X-179561890Y42249000D01*
X-180238110Y42249000D01*
X-180279591Y42253085D01*
X-180313569Y42263393D01*
X-180344887Y42280133D01*
X-180372339Y42302661D01*
X-180394867Y42330113D01*
X-180411607Y42361431D01*
X-180421915Y42395409D01*
X-180426000Y42436890D01*
X-180426000Y43038110D01*
X-180421915Y43079591D01*
X-180411607Y43113569D01*
X-180394867Y43144887D01*
X-180372339Y43172339D01*
X-180344887Y43194867D01*
X-180313569Y43211607D01*
X-180279591Y43221915D01*
X-180238110Y43226000D01*
X-179561890Y43226000D01*
X-179520409Y43221915D01*
X-179520409Y43221915D01*
G37*
G36*
X-156149000Y43214000D02*
X-158251000Y43214000D01*
X-158251000Y44216000D01*
X-156149000Y44216000D01*
X-156149000Y43214000D01*
X-156149000Y43214000D01*
G37*
G36*
X-139149000Y43214000D02*
X-141251000Y43214000D01*
X-141251000Y44216000D01*
X-139149000Y44216000D01*
X-139149000Y43214000D01*
X-139149000Y43214000D01*
G37*
G36*
X-183649000Y43354000D02*
X-185251000Y43354000D01*
X-185251000Y44056000D01*
X-183649000Y44056000D01*
X-183649000Y43354000D01*
X-183649000Y43354000D01*
G37*
G36*
X-189049000Y43354000D02*
X-190651000Y43354000D01*
X-190651000Y44056000D01*
X-189049000Y44056000D01*
X-189049000Y43354000D01*
X-189049000Y43354000D01*
G37*
G36*
X-60920409Y44396915D02*
X-60886431Y44386607D01*
X-60855113Y44369867D01*
X-60827661Y44347339D01*
X-60805133Y44319887D01*
X-60788393Y44288569D01*
X-60778085Y44254591D01*
X-60774000Y44213110D01*
X-60774000Y43611890D01*
X-60778085Y43570409D01*
X-60788393Y43536431D01*
X-60805133Y43505113D01*
X-60827661Y43477661D01*
X-60855113Y43455133D01*
X-60886431Y43438393D01*
X-60920409Y43428085D01*
X-60961890Y43424000D01*
X-61638110Y43424000D01*
X-61679591Y43428085D01*
X-61713569Y43438393D01*
X-61744887Y43455133D01*
X-61772339Y43477661D01*
X-61794867Y43505113D01*
X-61811607Y43536431D01*
X-61821915Y43570409D01*
X-61826000Y43611890D01*
X-61826000Y44213110D01*
X-61821915Y44254591D01*
X-61811607Y44288569D01*
X-61794867Y44319887D01*
X-61772339Y44347339D01*
X-61744887Y44369867D01*
X-61713569Y44386607D01*
X-61679591Y44396915D01*
X-61638110Y44401000D01*
X-60961890Y44401000D01*
X-60920409Y44396915D01*
X-60920409Y44396915D01*
G37*
G36*
X-133220409Y44396915D02*
X-133186431Y44386607D01*
X-133155113Y44369867D01*
X-133127661Y44347339D01*
X-133105133Y44319887D01*
X-133088393Y44288569D01*
X-133078085Y44254591D01*
X-133074000Y44213110D01*
X-133074000Y43611890D01*
X-133078085Y43570409D01*
X-133088393Y43536431D01*
X-133105133Y43505113D01*
X-133127661Y43477661D01*
X-133155113Y43455133D01*
X-133186431Y43438393D01*
X-133220409Y43428085D01*
X-133261890Y43424000D01*
X-133938110Y43424000D01*
X-133979591Y43428085D01*
X-134013569Y43438393D01*
X-134044887Y43455133D01*
X-134072339Y43477661D01*
X-134094867Y43505113D01*
X-134111607Y43536431D01*
X-134121915Y43570409D01*
X-134126000Y43611890D01*
X-134126000Y44213110D01*
X-134121915Y44254591D01*
X-134111607Y44288569D01*
X-134094867Y44319887D01*
X-134072339Y44347339D01*
X-134044887Y44369867D01*
X-134013569Y44386607D01*
X-133979591Y44396915D01*
X-133938110Y44401000D01*
X-133261890Y44401000D01*
X-133220409Y44396915D01*
X-133220409Y44396915D01*
G37*
G36*
X-134770409Y44396915D02*
X-134736431Y44386607D01*
X-134705113Y44369867D01*
X-134677661Y44347339D01*
X-134655133Y44319887D01*
X-134638393Y44288569D01*
X-134628085Y44254591D01*
X-134624000Y44213110D01*
X-134624000Y43611890D01*
X-134628085Y43570409D01*
X-134638393Y43536431D01*
X-134655133Y43505113D01*
X-134677661Y43477661D01*
X-134705113Y43455133D01*
X-134736431Y43438393D01*
X-134770409Y43428085D01*
X-134811890Y43424000D01*
X-135488110Y43424000D01*
X-135529591Y43428085D01*
X-135563569Y43438393D01*
X-135594887Y43455133D01*
X-135622339Y43477661D01*
X-135644867Y43505113D01*
X-135661607Y43536431D01*
X-135671915Y43570409D01*
X-135676000Y43611890D01*
X-135676000Y44213110D01*
X-135671915Y44254591D01*
X-135661607Y44288569D01*
X-135644867Y44319887D01*
X-135622339Y44347339D01*
X-135594887Y44369867D01*
X-135563569Y44386607D01*
X-135529591Y44396915D01*
X-135488110Y44401000D01*
X-134811890Y44401000D01*
X-134770409Y44396915D01*
X-134770409Y44396915D01*
G37*
G36*
X-136320409Y44396915D02*
X-136286431Y44386607D01*
X-136255113Y44369867D01*
X-136227661Y44347339D01*
X-136205133Y44319887D01*
X-136188393Y44288569D01*
X-136178085Y44254591D01*
X-136174000Y44213110D01*
X-136174000Y43611890D01*
X-136178085Y43570409D01*
X-136188393Y43536431D01*
X-136205133Y43505113D01*
X-136227661Y43477661D01*
X-136255113Y43455133D01*
X-136286431Y43438393D01*
X-136320409Y43428085D01*
X-136361890Y43424000D01*
X-137038110Y43424000D01*
X-137079591Y43428085D01*
X-137113569Y43438393D01*
X-137144887Y43455133D01*
X-137172339Y43477661D01*
X-137194867Y43505113D01*
X-137211607Y43536431D01*
X-137221915Y43570409D01*
X-137226000Y43611890D01*
X-137226000Y44213110D01*
X-137221915Y44254591D01*
X-137211607Y44288569D01*
X-137194867Y44319887D01*
X-137172339Y44347339D01*
X-137144887Y44369867D01*
X-137113569Y44386607D01*
X-137079591Y44396915D01*
X-137038110Y44401000D01*
X-136361890Y44401000D01*
X-136320409Y44396915D01*
X-136320409Y44396915D01*
G37*
G36*
X-59449842Y44431914D02*
X-59415864Y44421606D01*
X-59384546Y44404866D01*
X-59357094Y44382338D01*
X-59334566Y44354886D01*
X-59317826Y44323568D01*
X-59307518Y44289590D01*
X-59303433Y44248109D01*
X-59303433Y43646889D01*
X-59307518Y43605408D01*
X-59317826Y43571430D01*
X-59334566Y43540112D01*
X-59357094Y43512660D01*
X-59384546Y43490132D01*
X-59415864Y43473392D01*
X-59449842Y43463084D01*
X-59491323Y43458999D01*
X-60167543Y43458999D01*
X-60209024Y43463084D01*
X-60243002Y43473392D01*
X-60274320Y43490132D01*
X-60301772Y43512660D01*
X-60324300Y43540112D01*
X-60341040Y43571430D01*
X-60351348Y43605408D01*
X-60355433Y43646889D01*
X-60355433Y44248109D01*
X-60351348Y44289590D01*
X-60341040Y44323568D01*
X-60324300Y44354886D01*
X-60301772Y44382338D01*
X-60274320Y44404866D01*
X-60243002Y44421606D01*
X-60209024Y44431914D01*
X-60167543Y44435999D01*
X-59491323Y44435999D01*
X-59449842Y44431914D01*
X-59449842Y44431914D01*
G37*
G36*
X-57939842Y44431914D02*
X-57905864Y44421606D01*
X-57874546Y44404866D01*
X-57847094Y44382338D01*
X-57824566Y44354886D01*
X-57807826Y44323568D01*
X-57797518Y44289590D01*
X-57793433Y44248109D01*
X-57793433Y43646889D01*
X-57797518Y43605408D01*
X-57807826Y43571430D01*
X-57824566Y43540112D01*
X-57847094Y43512660D01*
X-57874546Y43490132D01*
X-57905864Y43473392D01*
X-57939842Y43463084D01*
X-57981323Y43458999D01*
X-58657543Y43458999D01*
X-58699024Y43463084D01*
X-58733002Y43473392D01*
X-58764320Y43490132D01*
X-58791772Y43512660D01*
X-58814300Y43540112D01*
X-58831040Y43571430D01*
X-58841348Y43605408D01*
X-58845433Y43646889D01*
X-58845433Y44248109D01*
X-58841348Y44289590D01*
X-58831040Y44323568D01*
X-58814300Y44354886D01*
X-58791772Y44382338D01*
X-58764320Y44404866D01*
X-58733002Y44421606D01*
X-58699024Y44431914D01*
X-58657543Y44435999D01*
X-57981323Y44435999D01*
X-57939842Y44431914D01*
X-57939842Y44431914D01*
G37*
G36*
X-23320409Y44596915D02*
X-23286431Y44586607D01*
X-23255113Y44569867D01*
X-23227661Y44547339D01*
X-23205133Y44519887D01*
X-23188393Y44488569D01*
X-23178085Y44454591D01*
X-23174000Y44413110D01*
X-23174000Y43811890D01*
X-23178085Y43770409D01*
X-23188393Y43736431D01*
X-23205133Y43705113D01*
X-23227661Y43677661D01*
X-23255113Y43655133D01*
X-23286431Y43638393D01*
X-23320409Y43628085D01*
X-23361890Y43624000D01*
X-24038110Y43624000D01*
X-24079591Y43628085D01*
X-24113569Y43638393D01*
X-24144887Y43655133D01*
X-24172339Y43677661D01*
X-24194867Y43705113D01*
X-24211607Y43736431D01*
X-24221915Y43770409D01*
X-24226000Y43811890D01*
X-24226000Y44413110D01*
X-24221915Y44454591D01*
X-24211607Y44488569D01*
X-24194867Y44519887D01*
X-24172339Y44547339D01*
X-24144887Y44569867D01*
X-24113569Y44586607D01*
X-24079591Y44596915D01*
X-24038110Y44601000D01*
X-23361890Y44601000D01*
X-23320409Y44596915D01*
X-23320409Y44596915D01*
G37*
G36*
X-24920409Y44596915D02*
X-24886431Y44586607D01*
X-24855113Y44569867D01*
X-24827661Y44547339D01*
X-24805133Y44519887D01*
X-24788393Y44488569D01*
X-24778085Y44454591D01*
X-24774000Y44413110D01*
X-24774000Y43811890D01*
X-24778085Y43770409D01*
X-24788393Y43736431D01*
X-24805133Y43705113D01*
X-24827661Y43677661D01*
X-24855113Y43655133D01*
X-24886431Y43638393D01*
X-24920409Y43628085D01*
X-24961890Y43624000D01*
X-25638110Y43624000D01*
X-25679591Y43628085D01*
X-25713569Y43638393D01*
X-25744887Y43655133D01*
X-25772339Y43677661D01*
X-25794867Y43705113D01*
X-25811607Y43736431D01*
X-25821915Y43770409D01*
X-25826000Y43811890D01*
X-25826000Y44413110D01*
X-25821915Y44454591D01*
X-25811607Y44488569D01*
X-25794867Y44519887D01*
X-25772339Y44547339D01*
X-25744887Y44569867D01*
X-25713569Y44586607D01*
X-25679591Y44596915D01*
X-25638110Y44601000D01*
X-24961890Y44601000D01*
X-24920409Y44596915D01*
X-24920409Y44596915D01*
G37*
G36*
X-159199000Y43734000D02*
X-164001000Y43734000D01*
X-164001000Y47266000D01*
X-159199000Y47266000D01*
X-159199000Y43734000D01*
X-159199000Y43734000D01*
G37*
G36*
X-15699000Y43779000D02*
X-20501000Y43779000D01*
X-20501000Y47221000D01*
X-15699000Y47221000D01*
X-15699000Y43779000D01*
X-15699000Y43779000D01*
G37*
G36*
X-179520409Y44796915D02*
X-179486431Y44786607D01*
X-179455113Y44769867D01*
X-179427661Y44747339D01*
X-179405133Y44719887D01*
X-179388393Y44688569D01*
X-179378085Y44654591D01*
X-179374000Y44613110D01*
X-179374000Y44011890D01*
X-179378085Y43970409D01*
X-179388393Y43936431D01*
X-179405133Y43905113D01*
X-179427661Y43877661D01*
X-179455113Y43855133D01*
X-179486431Y43838393D01*
X-179520409Y43828085D01*
X-179561890Y43824000D01*
X-180238110Y43824000D01*
X-180279591Y43828085D01*
X-180313569Y43838393D01*
X-180344887Y43855133D01*
X-180372339Y43877661D01*
X-180394867Y43905113D01*
X-180411607Y43936431D01*
X-180421915Y43970409D01*
X-180426000Y44011890D01*
X-180426000Y44613110D01*
X-180421915Y44654591D01*
X-180411607Y44688569D01*
X-180394867Y44719887D01*
X-180372339Y44747339D01*
X-180344887Y44769867D01*
X-180313569Y44786607D01*
X-180279591Y44796915D01*
X-180238110Y44801000D01*
X-179561890Y44801000D01*
X-179520409Y44796915D01*
X-179520409Y44796915D01*
G37*
G36*
X-177799000Y43949000D02*
X-178801000Y43949000D01*
X-178801000Y44851000D01*
X-177799000Y44851000D01*
X-177799000Y43949000D01*
X-177799000Y43949000D01*
G37*
G36*
X-166520409Y45196915D02*
X-166486431Y45186607D01*
X-166455113Y45169867D01*
X-166427661Y45147339D01*
X-166405133Y45119887D01*
X-166388393Y45088569D01*
X-166378085Y45054591D01*
X-166374000Y45013110D01*
X-166374000Y44411890D01*
X-166378085Y44370409D01*
X-166388393Y44336431D01*
X-166405133Y44305113D01*
X-166427661Y44277661D01*
X-166455113Y44255133D01*
X-166486431Y44238393D01*
X-166520409Y44228085D01*
X-166561890Y44224000D01*
X-167238110Y44224000D01*
X-167279591Y44228085D01*
X-167313569Y44238393D01*
X-167344887Y44255133D01*
X-167372339Y44277661D01*
X-167394867Y44305113D01*
X-167411607Y44336431D01*
X-167421915Y44370409D01*
X-167426000Y44411890D01*
X-167426000Y45013110D01*
X-167421915Y45054591D01*
X-167411607Y45088569D01*
X-167394867Y45119887D01*
X-167372339Y45147339D01*
X-167344887Y45169867D01*
X-167313569Y45186607D01*
X-167279591Y45196915D01*
X-167238110Y45201000D01*
X-166561890Y45201000D01*
X-166520409Y45196915D01*
X-166520409Y45196915D01*
G37*
G36*
X-172020409Y45196915D02*
X-171986431Y45186607D01*
X-171955113Y45169867D01*
X-171927661Y45147339D01*
X-171905133Y45119887D01*
X-171888393Y45088569D01*
X-171878085Y45054591D01*
X-171874000Y45013110D01*
X-171874000Y44411890D01*
X-171878085Y44370409D01*
X-171888393Y44336431D01*
X-171905133Y44305113D01*
X-171927661Y44277661D01*
X-171955113Y44255133D01*
X-171986431Y44238393D01*
X-172020409Y44228085D01*
X-172061890Y44224000D01*
X-172738110Y44224000D01*
X-172779591Y44228085D01*
X-172813569Y44238393D01*
X-172844887Y44255133D01*
X-172872339Y44277661D01*
X-172894867Y44305113D01*
X-172911607Y44336431D01*
X-172921915Y44370409D01*
X-172926000Y44411890D01*
X-172926000Y45013110D01*
X-172921915Y45054591D01*
X-172911607Y45088569D01*
X-172894867Y45119887D01*
X-172872339Y45147339D01*
X-172844887Y45169867D01*
X-172813569Y45186607D01*
X-172779591Y45196915D01*
X-172738110Y45201000D01*
X-172061890Y45201000D01*
X-172020409Y45196915D01*
X-172020409Y45196915D01*
G37*
G36*
X-168020409Y45196915D02*
X-167986431Y45186607D01*
X-167955113Y45169867D01*
X-167927661Y45147339D01*
X-167905133Y45119887D01*
X-167888393Y45088569D01*
X-167878085Y45054591D01*
X-167874000Y45013110D01*
X-167874000Y44411890D01*
X-167878085Y44370409D01*
X-167888393Y44336431D01*
X-167905133Y44305113D01*
X-167927661Y44277661D01*
X-167955113Y44255133D01*
X-167986431Y44238393D01*
X-168020409Y44228085D01*
X-168061890Y44224000D01*
X-168738110Y44224000D01*
X-168779591Y44228085D01*
X-168813569Y44238393D01*
X-168844887Y44255133D01*
X-168872339Y44277661D01*
X-168894867Y44305113D01*
X-168911607Y44336431D01*
X-168921915Y44370409D01*
X-168926000Y44411890D01*
X-168926000Y45013110D01*
X-168921915Y45054591D01*
X-168911607Y45088569D01*
X-168894867Y45119887D01*
X-168872339Y45147339D01*
X-168844887Y45169867D01*
X-168813569Y45186607D01*
X-168779591Y45196915D01*
X-168738110Y45201000D01*
X-168061890Y45201000D01*
X-168020409Y45196915D01*
X-168020409Y45196915D01*
G37*
G36*
X-170520409Y45196915D02*
X-170486431Y45186607D01*
X-170455113Y45169867D01*
X-170427661Y45147339D01*
X-170405133Y45119887D01*
X-170388393Y45088569D01*
X-170378085Y45054591D01*
X-170374000Y45013110D01*
X-170374000Y44411890D01*
X-170378085Y44370409D01*
X-170388393Y44336431D01*
X-170405133Y44305113D01*
X-170427661Y44277661D01*
X-170455113Y44255133D01*
X-170486431Y44238393D01*
X-170520409Y44228085D01*
X-170561890Y44224000D01*
X-171238110Y44224000D01*
X-171279591Y44228085D01*
X-171313569Y44238393D01*
X-171344887Y44255133D01*
X-171372339Y44277661D01*
X-171394867Y44305113D01*
X-171411607Y44336431D01*
X-171421915Y44370409D01*
X-171426000Y44411890D01*
X-171426000Y45013110D01*
X-171421915Y45054591D01*
X-171411607Y45088569D01*
X-171394867Y45119887D01*
X-171372339Y45147339D01*
X-171344887Y45169867D01*
X-171313569Y45186607D01*
X-171279591Y45196915D01*
X-171238110Y45201000D01*
X-170561890Y45201000D01*
X-170520409Y45196915D01*
X-170520409Y45196915D01*
G37*
G36*
X-139149000Y44484000D02*
X-141251000Y44484000D01*
X-141251000Y45486000D01*
X-139149000Y45486000D01*
X-139149000Y44484000D01*
X-139149000Y44484000D01*
G37*
G36*
X-156149000Y44484000D02*
X-158251000Y44484000D01*
X-158251000Y45486000D01*
X-156149000Y45486000D01*
X-156149000Y44484000D01*
X-156149000Y44484000D01*
G37*
G36*
X-189049000Y44624000D02*
X-190651000Y44624000D01*
X-190651000Y45326000D01*
X-189049000Y45326000D01*
X-189049000Y44624000D01*
X-189049000Y44624000D01*
G37*
G36*
X-183649000Y44624000D02*
X-185251000Y44624000D01*
X-185251000Y45326000D01*
X-183649000Y45326000D01*
X-183649000Y44624000D01*
X-183649000Y44624000D01*
G37*
G36*
X-2004000Y44699000D02*
X-2706000Y44699000D01*
X-2706000Y46301000D01*
X-2004000Y46301000D01*
X-2004000Y44699000D01*
X-2004000Y44699000D01*
G37*
G36*
X-3274000Y44699000D02*
X-3976000Y44699000D01*
X-3976000Y46301000D01*
X-3274000Y46301000D01*
X-3274000Y44699000D01*
X-3274000Y44699000D01*
G37*
G36*
X-4544000Y44699000D02*
X-5246000Y44699000D01*
X-5246000Y46301000D01*
X-4544000Y46301000D01*
X-4544000Y44699000D01*
X-4544000Y44699000D01*
G37*
G36*
X-5814000Y44699000D02*
X-6516000Y44699000D01*
X-6516000Y46301000D01*
X-5814000Y46301000D01*
X-5814000Y44699000D01*
X-5814000Y44699000D01*
G37*
G36*
X-7084000Y44699000D02*
X-7786000Y44699000D01*
X-7786000Y46301000D01*
X-7084000Y46301000D01*
X-7084000Y44699000D01*
X-7084000Y44699000D01*
G37*
G36*
X-8354000Y44699000D02*
X-9056000Y44699000D01*
X-9056000Y46301000D01*
X-8354000Y46301000D01*
X-8354000Y44699000D01*
X-8354000Y44699000D01*
G37*
G36*
X-9624000Y44699000D02*
X-10326000Y44699000D01*
X-10326000Y46301000D01*
X-9624000Y46301000D01*
X-9624000Y44699000D01*
X-9624000Y44699000D01*
G37*
G36*
X-10894000Y44699000D02*
X-11596000Y44699000D01*
X-11596000Y46301000D01*
X-10894000Y46301000D01*
X-10894000Y44699000D01*
X-10894000Y44699000D01*
G37*
G36*
X-175799000Y44899000D02*
X-176801000Y44899000D01*
X-176801000Y45801000D01*
X-175799000Y45801000D01*
X-175799000Y44899000D01*
X-175799000Y44899000D01*
G37*
G36*
X-60920409Y45971915D02*
X-60886431Y45961607D01*
X-60855113Y45944867D01*
X-60827661Y45922339D01*
X-60805133Y45894887D01*
X-60788393Y45863569D01*
X-60778085Y45829591D01*
X-60774000Y45788110D01*
X-60774000Y45186890D01*
X-60778085Y45145409D01*
X-60788393Y45111431D01*
X-60805133Y45080113D01*
X-60827661Y45052661D01*
X-60855113Y45030133D01*
X-60886431Y45013393D01*
X-60920409Y45003085D01*
X-60961890Y44999000D01*
X-61638110Y44999000D01*
X-61679591Y45003085D01*
X-61713569Y45013393D01*
X-61744887Y45030133D01*
X-61772339Y45052661D01*
X-61794867Y45080113D01*
X-61811607Y45111431D01*
X-61821915Y45145409D01*
X-61826000Y45186890D01*
X-61826000Y45788110D01*
X-61821915Y45829591D01*
X-61811607Y45863569D01*
X-61794867Y45894887D01*
X-61772339Y45922339D01*
X-61744887Y45944867D01*
X-61713569Y45961607D01*
X-61679591Y45971915D01*
X-61638110Y45976000D01*
X-60961890Y45976000D01*
X-60920409Y45971915D01*
X-60920409Y45971915D01*
G37*
G36*
X-136320409Y45971915D02*
X-136286431Y45961607D01*
X-136255113Y45944867D01*
X-136227661Y45922339D01*
X-136205133Y45894887D01*
X-136188393Y45863569D01*
X-136178085Y45829591D01*
X-136174000Y45788110D01*
X-136174000Y45186890D01*
X-136178085Y45145409D01*
X-136188393Y45111431D01*
X-136205133Y45080113D01*
X-136227661Y45052661D01*
X-136255113Y45030133D01*
X-136286431Y45013393D01*
X-136320409Y45003085D01*
X-136361890Y44999000D01*
X-137038110Y44999000D01*
X-137079591Y45003085D01*
X-137113569Y45013393D01*
X-137144887Y45030133D01*
X-137172339Y45052661D01*
X-137194867Y45080113D01*
X-137211607Y45111431D01*
X-137221915Y45145409D01*
X-137226000Y45186890D01*
X-137226000Y45788110D01*
X-137221915Y45829591D01*
X-137211607Y45863569D01*
X-137194867Y45894887D01*
X-137172339Y45922339D01*
X-137144887Y45944867D01*
X-137113569Y45961607D01*
X-137079591Y45971915D01*
X-137038110Y45976000D01*
X-136361890Y45976000D01*
X-136320409Y45971915D01*
X-136320409Y45971915D01*
G37*
G36*
X-133220409Y45971915D02*
X-133186431Y45961607D01*
X-133155113Y45944867D01*
X-133127661Y45922339D01*
X-133105133Y45894887D01*
X-133088393Y45863569D01*
X-133078085Y45829591D01*
X-133074000Y45788110D01*
X-133074000Y45186890D01*
X-133078085Y45145409D01*
X-133088393Y45111431D01*
X-133105133Y45080113D01*
X-133127661Y45052661D01*
X-133155113Y45030133D01*
X-133186431Y45013393D01*
X-133220409Y45003085D01*
X-133261890Y44999000D01*
X-133938110Y44999000D01*
X-133979591Y45003085D01*
X-134013569Y45013393D01*
X-134044887Y45030133D01*
X-134072339Y45052661D01*
X-134094867Y45080113D01*
X-134111607Y45111431D01*
X-134121915Y45145409D01*
X-134126000Y45186890D01*
X-134126000Y45788110D01*
X-134121915Y45829591D01*
X-134111607Y45863569D01*
X-134094867Y45894887D01*
X-134072339Y45922339D01*
X-134044887Y45944867D01*
X-134013569Y45961607D01*
X-133979591Y45971915D01*
X-133938110Y45976000D01*
X-133261890Y45976000D01*
X-133220409Y45971915D01*
X-133220409Y45971915D01*
G37*
G36*
X-134770409Y45971915D02*
X-134736431Y45961607D01*
X-134705113Y45944867D01*
X-134677661Y45922339D01*
X-134655133Y45894887D01*
X-134638393Y45863569D01*
X-134628085Y45829591D01*
X-134624000Y45788110D01*
X-134624000Y45186890D01*
X-134628085Y45145409D01*
X-134638393Y45111431D01*
X-134655133Y45080113D01*
X-134677661Y45052661D01*
X-134705113Y45030133D01*
X-134736431Y45013393D01*
X-134770409Y45003085D01*
X-134811890Y44999000D01*
X-135488110Y44999000D01*
X-135529591Y45003085D01*
X-135563569Y45013393D01*
X-135594887Y45030133D01*
X-135622339Y45052661D01*
X-135644867Y45080113D01*
X-135661607Y45111431D01*
X-135671915Y45145409D01*
X-135676000Y45186890D01*
X-135676000Y45788110D01*
X-135671915Y45829591D01*
X-135661607Y45863569D01*
X-135644867Y45894887D01*
X-135622339Y45922339D01*
X-135594887Y45944867D01*
X-135563569Y45961607D01*
X-135529591Y45971915D01*
X-135488110Y45976000D01*
X-134811890Y45976000D01*
X-134770409Y45971915D01*
X-134770409Y45971915D01*
G37*
G36*
X-59449842Y46006914D02*
X-59415864Y45996606D01*
X-59384546Y45979866D01*
X-59357094Y45957338D01*
X-59334566Y45929886D01*
X-59317826Y45898568D01*
X-59307518Y45864590D01*
X-59303433Y45823109D01*
X-59303433Y45221889D01*
X-59307518Y45180408D01*
X-59317826Y45146430D01*
X-59334566Y45115112D01*
X-59357094Y45087660D01*
X-59384546Y45065132D01*
X-59415864Y45048392D01*
X-59449842Y45038084D01*
X-59491323Y45033999D01*
X-60167543Y45033999D01*
X-60209024Y45038084D01*
X-60243002Y45048392D01*
X-60274320Y45065132D01*
X-60301772Y45087660D01*
X-60324300Y45115112D01*
X-60341040Y45146430D01*
X-60351348Y45180408D01*
X-60355433Y45221889D01*
X-60355433Y45823109D01*
X-60351348Y45864590D01*
X-60341040Y45898568D01*
X-60324300Y45929886D01*
X-60301772Y45957338D01*
X-60274320Y45979866D01*
X-60243002Y45996606D01*
X-60209024Y46006914D01*
X-60167543Y46010999D01*
X-59491323Y46010999D01*
X-59449842Y46006914D01*
X-59449842Y46006914D01*
G37*
G36*
X-57939842Y46006914D02*
X-57905864Y45996606D01*
X-57874546Y45979866D01*
X-57847094Y45957338D01*
X-57824566Y45929886D01*
X-57807826Y45898568D01*
X-57797518Y45864590D01*
X-57793433Y45823109D01*
X-57793433Y45221889D01*
X-57797518Y45180408D01*
X-57807826Y45146430D01*
X-57824566Y45115112D01*
X-57847094Y45087660D01*
X-57874546Y45065132D01*
X-57905864Y45048392D01*
X-57939842Y45038084D01*
X-57981323Y45033999D01*
X-58657543Y45033999D01*
X-58699024Y45038084D01*
X-58733002Y45048392D01*
X-58764320Y45065132D01*
X-58791772Y45087660D01*
X-58814300Y45115112D01*
X-58831040Y45146430D01*
X-58841348Y45180408D01*
X-58845433Y45221889D01*
X-58845433Y45823109D01*
X-58841348Y45864590D01*
X-58831040Y45898568D01*
X-58814300Y45929886D01*
X-58791772Y45957338D01*
X-58764320Y45979866D01*
X-58733002Y45996606D01*
X-58699024Y46006914D01*
X-58657543Y46010999D01*
X-57981323Y46010999D01*
X-57939842Y46006914D01*
X-57939842Y46006914D01*
G37*
G36*
X-24920409Y46171915D02*
X-24886431Y46161607D01*
X-24855113Y46144867D01*
X-24827661Y46122339D01*
X-24805133Y46094887D01*
X-24788393Y46063569D01*
X-24778085Y46029591D01*
X-24774000Y45988110D01*
X-24774000Y45386890D01*
X-24778085Y45345409D01*
X-24788393Y45311431D01*
X-24805133Y45280113D01*
X-24827661Y45252661D01*
X-24855113Y45230133D01*
X-24886431Y45213393D01*
X-24920409Y45203085D01*
X-24961890Y45199000D01*
X-25638110Y45199000D01*
X-25679591Y45203085D01*
X-25713569Y45213393D01*
X-25744887Y45230133D01*
X-25772339Y45252661D01*
X-25794867Y45280113D01*
X-25811607Y45311431D01*
X-25821915Y45345409D01*
X-25826000Y45386890D01*
X-25826000Y45988110D01*
X-25821915Y46029591D01*
X-25811607Y46063569D01*
X-25794867Y46094887D01*
X-25772339Y46122339D01*
X-25744887Y46144867D01*
X-25713569Y46161607D01*
X-25679591Y46171915D01*
X-25638110Y46176000D01*
X-24961890Y46176000D01*
X-24920409Y46171915D01*
X-24920409Y46171915D01*
G37*
G36*
X-23320409Y46171915D02*
X-23286431Y46161607D01*
X-23255113Y46144867D01*
X-23227661Y46122339D01*
X-23205133Y46094887D01*
X-23188393Y46063569D01*
X-23178085Y46029591D01*
X-23174000Y45988110D01*
X-23174000Y45386890D01*
X-23178085Y45345409D01*
X-23188393Y45311431D01*
X-23205133Y45280113D01*
X-23227661Y45252661D01*
X-23255113Y45230133D01*
X-23286431Y45213393D01*
X-23320409Y45203085D01*
X-23361890Y45199000D01*
X-24038110Y45199000D01*
X-24079591Y45203085D01*
X-24113569Y45213393D01*
X-24144887Y45230133D01*
X-24172339Y45252661D01*
X-24194867Y45280113D01*
X-24211607Y45311431D01*
X-24221915Y45345409D01*
X-24226000Y45386890D01*
X-24226000Y45988110D01*
X-24221915Y46029591D01*
X-24211607Y46063569D01*
X-24194867Y46094887D01*
X-24172339Y46122339D01*
X-24144887Y46144867D01*
X-24113569Y46161607D01*
X-24079591Y46171915D01*
X-24038110Y46176000D01*
X-23361890Y46176000D01*
X-23320409Y46171915D01*
X-23320409Y46171915D01*
G37*
G36*
X-179520409Y46371915D02*
X-179486431Y46361607D01*
X-179455113Y46344867D01*
X-179427661Y46322339D01*
X-179405133Y46294887D01*
X-179388393Y46263569D01*
X-179378085Y46229591D01*
X-179374000Y46188110D01*
X-179374000Y45586890D01*
X-179378085Y45545409D01*
X-179388393Y45511431D01*
X-179405133Y45480113D01*
X-179427661Y45452661D01*
X-179455113Y45430133D01*
X-179486431Y45413393D01*
X-179520409Y45403085D01*
X-179561890Y45399000D01*
X-180238110Y45399000D01*
X-180279591Y45403085D01*
X-180313569Y45413393D01*
X-180344887Y45430133D01*
X-180372339Y45452661D01*
X-180394867Y45480113D01*
X-180411607Y45511431D01*
X-180421915Y45545409D01*
X-180426000Y45586890D01*
X-180426000Y46188110D01*
X-180421915Y46229591D01*
X-180411607Y46263569D01*
X-180394867Y46294887D01*
X-180372339Y46322339D01*
X-180344887Y46344867D01*
X-180313569Y46361607D01*
X-180279591Y46371915D01*
X-180238110Y46376000D01*
X-179561890Y46376000D01*
X-179520409Y46371915D01*
X-179520409Y46371915D01*
G37*
G36*
X-139149000Y45754000D02*
X-141251000Y45754000D01*
X-141251000Y46756000D01*
X-139149000Y46756000D01*
X-139149000Y45754000D01*
X-139149000Y45754000D01*
G37*
G36*
X-156149000Y45754000D02*
X-158251000Y45754000D01*
X-158251000Y46756000D01*
X-156149000Y46756000D01*
X-156149000Y45754000D01*
X-156149000Y45754000D01*
G37*
G36*
X-168020409Y46771915D02*
X-167986431Y46761607D01*
X-167955113Y46744867D01*
X-167927661Y46722339D01*
X-167905133Y46694887D01*
X-167888393Y46663569D01*
X-167878085Y46629591D01*
X-167874000Y46588110D01*
X-167874000Y45986890D01*
X-167878085Y45945409D01*
X-167888393Y45911431D01*
X-167905133Y45880113D01*
X-167927661Y45852661D01*
X-167955113Y45830133D01*
X-167986431Y45813393D01*
X-168020409Y45803085D01*
X-168061890Y45799000D01*
X-168738110Y45799000D01*
X-168779591Y45803085D01*
X-168813569Y45813393D01*
X-168844887Y45830133D01*
X-168872339Y45852661D01*
X-168894867Y45880113D01*
X-168911607Y45911431D01*
X-168921915Y45945409D01*
X-168926000Y45986890D01*
X-168926000Y46588110D01*
X-168921915Y46629591D01*
X-168911607Y46663569D01*
X-168894867Y46694887D01*
X-168872339Y46722339D01*
X-168844887Y46744867D01*
X-168813569Y46761607D01*
X-168779591Y46771915D01*
X-168738110Y46776000D01*
X-168061890Y46776000D01*
X-168020409Y46771915D01*
X-168020409Y46771915D01*
G37*
G36*
X-166520409Y46771915D02*
X-166486431Y46761607D01*
X-166455113Y46744867D01*
X-166427661Y46722339D01*
X-166405133Y46694887D01*
X-166388393Y46663569D01*
X-166378085Y46629591D01*
X-166374000Y46588110D01*
X-166374000Y45986890D01*
X-166378085Y45945409D01*
X-166388393Y45911431D01*
X-166405133Y45880113D01*
X-166427661Y45852661D01*
X-166455113Y45830133D01*
X-166486431Y45813393D01*
X-166520409Y45803085D01*
X-166561890Y45799000D01*
X-167238110Y45799000D01*
X-167279591Y45803085D01*
X-167313569Y45813393D01*
X-167344887Y45830133D01*
X-167372339Y45852661D01*
X-167394867Y45880113D01*
X-167411607Y45911431D01*
X-167421915Y45945409D01*
X-167426000Y45986890D01*
X-167426000Y46588110D01*
X-167421915Y46629591D01*
X-167411607Y46663569D01*
X-167394867Y46694887D01*
X-167372339Y46722339D01*
X-167344887Y46744867D01*
X-167313569Y46761607D01*
X-167279591Y46771915D01*
X-167238110Y46776000D01*
X-166561890Y46776000D01*
X-166520409Y46771915D01*
X-166520409Y46771915D01*
G37*
G36*
X-172020409Y46771915D02*
X-171986431Y46761607D01*
X-171955113Y46744867D01*
X-171927661Y46722339D01*
X-171905133Y46694887D01*
X-171888393Y46663569D01*
X-171878085Y46629591D01*
X-171874000Y46588110D01*
X-171874000Y45986890D01*
X-171878085Y45945409D01*
X-171888393Y45911431D01*
X-171905133Y45880113D01*
X-171927661Y45852661D01*
X-171955113Y45830133D01*
X-171986431Y45813393D01*
X-172020409Y45803085D01*
X-172061890Y45799000D01*
X-172738110Y45799000D01*
X-172779591Y45803085D01*
X-172813569Y45813393D01*
X-172844887Y45830133D01*
X-172872339Y45852661D01*
X-172894867Y45880113D01*
X-172911607Y45911431D01*
X-172921915Y45945409D01*
X-172926000Y45986890D01*
X-172926000Y46588110D01*
X-172921915Y46629591D01*
X-172911607Y46663569D01*
X-172894867Y46694887D01*
X-172872339Y46722339D01*
X-172844887Y46744867D01*
X-172813569Y46761607D01*
X-172779591Y46771915D01*
X-172738110Y46776000D01*
X-172061890Y46776000D01*
X-172020409Y46771915D01*
X-172020409Y46771915D01*
G37*
G36*
X-170520409Y46771915D02*
X-170486431Y46761607D01*
X-170455113Y46744867D01*
X-170427661Y46722339D01*
X-170405133Y46694887D01*
X-170388393Y46663569D01*
X-170378085Y46629591D01*
X-170374000Y46588110D01*
X-170374000Y45986890D01*
X-170378085Y45945409D01*
X-170388393Y45911431D01*
X-170405133Y45880113D01*
X-170427661Y45852661D01*
X-170455113Y45830133D01*
X-170486431Y45813393D01*
X-170520409Y45803085D01*
X-170561890Y45799000D01*
X-171238110Y45799000D01*
X-171279591Y45803085D01*
X-171313569Y45813393D01*
X-171344887Y45830133D01*
X-171372339Y45852661D01*
X-171394867Y45880113D01*
X-171411607Y45911431D01*
X-171421915Y45945409D01*
X-171426000Y45986890D01*
X-171426000Y46588110D01*
X-171421915Y46629591D01*
X-171411607Y46663569D01*
X-171394867Y46694887D01*
X-171372339Y46722339D01*
X-171344887Y46744867D01*
X-171313569Y46761607D01*
X-171279591Y46771915D01*
X-171238110Y46776000D01*
X-170561890Y46776000D01*
X-170520409Y46771915D01*
X-170520409Y46771915D01*
G37*
G36*
X-177799000Y45849000D02*
X-178801000Y45849000D01*
X-178801000Y46751000D01*
X-177799000Y46751000D01*
X-177799000Y45849000D01*
X-177799000Y45849000D01*
G37*
G36*
X-189049000Y45894000D02*
X-190651000Y45894000D01*
X-190651000Y46596000D01*
X-189049000Y46596000D01*
X-189049000Y45894000D01*
X-189049000Y45894000D01*
G37*
G36*
X-183649000Y45894000D02*
X-185251000Y45894000D01*
X-185251000Y46596000D01*
X-183649000Y46596000D01*
X-183649000Y45894000D01*
X-183649000Y45894000D01*
G37*
M02*
