M48
;DRILL file {KiCad (5.0.1-3-g963ef8bb5)} date 2019 June 13, Thursday 10:21:47
;FORMAT={-:-/ absolute / metric / decimal}
FMAT,2
METRIC,TZ
T1C0.200
T2C0.300
T3C0.450
%
G90
G05
M71
T1
X-191.Y3.
X-189.425Y3.025
X-189.007Y20.75
X-188.9Y19.15
X-188.7Y46.4
X-187.4Y28.3
X-187.25Y40.1
X-187.25Y34.1
X-187.25Y22.1
X-187.25Y16.1
X-186.775Y10.25
X-186.Y42.5
X-185.Y3.
X-183.975Y11.
X-182.3Y19.75
X-181.6Y23.2
X-181.4Y28.9
X-181.3Y40.1
X-181.3Y28.1
X-181.3Y16.1
X-181.3Y10.1
X-181.Y34.4
X-180.1Y22.3
X-179.Y3.
X-178.175Y11.35
X-176.3Y20.
X-176.Y22.9
X-175.8Y34.4
X-175.25Y40.1
X-175.25Y28.1
X-175.25Y16.1
X-175.25Y10.1
X-175.1Y28.9
X-174.5Y21.3
X-173.Y4.
X-172.25Y11.65
X-170.3Y20.3
X-169.7Y46.6
X-169.3Y40.1
X-169.3Y34.1
X-169.3Y22.1
X-169.3Y16.1
X-169.3Y10.1
X-169.Y28.1
X-168.1Y21.3
X-167.Y4.
X-166.25Y11.95
X-164.15Y20.6
X-163.6Y46.6
X-163.255Y34.086
X-163.25Y40.1
X-163.25Y28.1
X-163.25Y22.1
X-163.25Y16.1
X-163.25Y10.1
X-163.1Y31.3
X-163.05Y34.65
X-163.025Y33.
X-163.Y47.
X-162.826Y33.6
X-162.8Y44.4
X-162.7Y43.9
X-162.6Y37.9
X-162.6Y29.2
X-162.5Y42.45
X-162.5Y41.65
X-162.453Y32.65
X-162.3Y47.
X-162.3Y13.7
X-162.2Y44.4
X-162.2Y5.085
X-162.1Y43.9
X-161.6Y47.
X-161.6Y44.1
X-161.5Y43.15
X-161.Y4.
X-160.9Y47.
X-160.25Y12.25
X-160.2Y47.
X-159.4Y45.
X-159.3Y44.3
X-158.9Y21.35
X-157.3Y28.1
X-157.3Y22.1
X-157.3Y16.1
X-157.3Y10.1
X-157.05Y29.2
X-156.1Y42.35
X-156.1Y41.15
X-155.7Y43.
X-155.65Y40.15
X-155.65Y34.15
X-155.65Y33.1
X-155.575Y32.3
X-155.31Y34.654
X-155.25Y33.6
X-155.Y4.
X-154.25Y12.7
X-152.9Y21.35
X-151.25Y40.1
X-151.25Y34.1
X-151.25Y22.1
X-151.25Y16.1
X-151.25Y10.1
X-151.Y27.35
X-150.2Y42.1
X-150.2Y15.6
X-149.Y4.
X-148.25Y13.05
X-146.9Y21.6
X-145.3Y34.1
X-145.3Y22.1
X-145.3Y16.1
X-145.3Y10.1
X-145.2Y27.35
X-144.7Y39.7
X-143.8Y44.4
X-143.075Y7.
X-142.25Y17.6
X-140.625Y27.35
X-139.25Y28.1
X-139.25Y22.1
X-139.25Y16.1
X-139.25Y10.1
X-138.7Y34.1
X-138.7Y30.
X-138.4Y40.1
X-137.6Y23.8
X-137.075Y6.5
X-136.25Y18.2
X-134.6Y25.45
X-133.3Y40.1
X-133.3Y33.95
X-133.3Y28.1
X-133.3Y22.1
X-133.3Y16.1
X-133.3Y10.1
X-132.6Y38.85
X-132.6Y32.6
X-132.2Y14.7
X-131.9Y38.4
X-131.9Y33.
X-131.5Y4.
X-131.4Y39.4
X-131.4Y33.4
X-131.25Y21.6
X-131.166Y27.435
X-131.075Y6.
X-130.258Y16.6
X-129.9Y17.6
X-129.518Y13.05
X-129.5Y7.5
X-129.482Y6.882
X-129.47Y23.346
X-129.336Y25.394
X-129.082Y13.462
X-128.954Y18.654
X-128.4Y6.921
X-128.4Y5.02
X-128.24Y22.59
X-128.2Y25.7
X-128.2Y16.7
X-128.2Y13.3
X-128.1Y4.5
X-127.849Y23.06
X-127.6Y25.525
X-127.6Y13.3
X-127.503Y18.601
X-127.5Y7.5
X-127.5Y4.5
X-127.25Y40.1
X-127.25Y33.95
X-127.25Y28.1
X-127.25Y16.1
X-127.25Y10.1
X-126.97Y11.65
X-126.9Y25.7
X-126.9Y22.6
X-126.9Y18.6
X-126.899Y4.273
X-126.775Y7.5
X-126.5Y35.5
X-126.4Y16.7
X-126.334Y11.534
X-126.3Y25.7
X-126.3Y22.6
X-126.3Y20.4
X-126.3Y4.3
X-126.175Y7.5
X-126.Y35.003
X-125.8Y14.5
X-125.715Y16.669
X-125.715Y2.409
X-125.7Y20.4
X-125.7Y19.1
X-125.684Y11.548
X-125.611Y25.525
X-125.575Y7.5
X-125.537Y28.985
X-125.5Y34.5
X-125.2Y2.1
X-125.156Y16.448
X-125.104Y11.396
X-125.1Y4.521
X-125.075Y5.979
X-124.7Y25.
X-124.5Y19.3
X-124.5Y7.479
X-124.4Y13.3
X-124.156Y16.5
X-124.126Y25.468
X-123.7Y11.4
X-123.6Y13.9
X-123.6Y10.6
X-123.5Y19.1
X-123.375Y20.1
X-123.375Y2.172
X-122.9Y23.35
X-121.7Y10.1
X-121.3Y40.1
X-121.3Y33.95
X-121.3Y28.1
X-121.3Y22.1
X-121.3Y16.1
X-119.576Y20.
X-119.2Y4.1
X-118.25Y18.7
X-116.9Y23.65
X-115.25Y40.1
X-115.25Y33.95
X-115.25Y28.1
X-115.25Y22.1
X-115.25Y16.1
X-115.1Y5.4
X-114.6Y26.9
X-113.Y4.5
X-111.2Y14.575
X-110.9Y23.95
X-109.3Y40.1
X-109.3Y33.95
X-109.3Y28.1
X-109.3Y22.1
X-109.3Y16.1
X-109.3Y10.1
X-108.6Y40.7
X-108.3Y27.5
X-107.Y4.5
X-105.425Y15.025
X-104.9Y24.35
X-103.25Y40.1
X-103.25Y33.95
X-103.25Y28.1
X-103.25Y22.1
X-103.25Y16.1
X-103.25Y10.1
X-102.3Y44.4
X-102.3Y32.2
X-102.2Y19.1
X-102.2Y11.
X-102.1Y25.693
X-101.Y4.5
X-99.975Y17.
X-98.9Y25.15
X-97.3Y40.1
X-97.3Y33.95
X-97.3Y28.1
X-97.3Y22.1
X-97.3Y16.1
X-97.3Y10.1
X-94.7Y4.2
X-94.175Y11.2
X-92.25Y19.8
X-91.25Y40.1
X-91.25Y33.95
X-91.25Y28.1
X-91.25Y22.1
X-91.25Y16.1
X-91.25Y10.1
X-90.1Y44.4
X-90.1Y32.2
X-88.6Y4.1
X-88.25Y11.4
X-86.4Y19.65
X-85.3Y40.1
X-85.3Y33.95
X-85.3Y28.1
X-85.3Y22.1
X-85.3Y16.1
X-85.3Y10.1
X-83.8Y19.55
X-82.8Y4.1
X-82.25Y11.8
X-80.1Y19.95
X-79.25Y40.1
X-79.25Y33.95
X-79.25Y28.1
X-79.25Y22.1
X-79.25Y16.1
X-79.25Y10.1
X-78.Y44.4
X-78.Y32.2
X-76.8Y4.1
X-76.25Y12.1
X-74.3Y20.75
X-73.3Y40.1
X-73.3Y33.95
X-73.3Y28.1
X-73.3Y22.1
X-73.3Y16.1
X-73.3Y10.1
X-71.7Y21.6
X-70.9Y4.1
X-70.25Y12.3
X-68.9Y23.
X-67.25Y40.1
X-67.25Y33.95
X-67.25Y28.1
X-67.25Y22.1
X-67.25Y16.1
X-67.25Y10.1
X-66.1Y44.4
X-66.1Y32.2
X-64.8Y4.1
X-64.25Y12.6
X-62.9Y23.5
X-61.7Y43.5
X-61.3Y40.1
X-61.3Y33.95
X-61.3Y28.1
X-61.3Y22.1
X-61.3Y16.1
X-61.3Y10.1
X-60.6Y38.4
X-60.4Y45.1
X-60.Y43.4
X-60.Y36.5
X-58.25Y12.9
X-58.25Y4.35
X-57.457Y43.666
X-57.3Y37.95
X-56.9Y21.6
X-55.25Y40.1
X-55.25Y33.95
X-55.25Y28.1
X-55.25Y22.1
X-55.25Y16.1
X-55.25Y10.1
X-54.1Y44.4
X-54.1Y32.2
X-52.8Y3.7
X-52.25Y13.2
X-50.7Y21.15
X-49.3Y40.1
X-49.3Y33.95
X-49.3Y28.1
X-49.3Y22.1
X-49.3Y16.1
X-49.3Y10.1
X-48.9Y24.35
X-46.95Y9.1
X-46.25Y18.2
X-44.3Y26.
X-43.25Y40.1
X-43.25Y33.95
X-43.25Y28.1
X-43.25Y22.1
X-43.25Y16.1
X-43.25Y10.1
X-42.Y44.4
X-42.Y32.2
X-40.815Y9.6
X-40.25Y18.35
X-38.65Y25.4
X-37.3Y40.1
X-37.3Y33.95
X-37.3Y28.1
X-37.3Y22.1
X-37.3Y16.1
X-36.7Y7.2
X-35.7Y18.35
X-35.075Y7.
X-34.25Y18.35
X-31.25Y40.1
X-31.25Y33.95
X-31.25Y28.1
X-31.25Y22.1
X-31.25Y16.1
X-31.25Y10.1
X-29.9Y22.
X-29.8Y17.9
X-29.7Y17.3
X-29.6Y35.5
X-29.6Y26.9
X-29.575Y26.2
X-29.575Y25.3
X-29.575Y23.47
X-29.575Y19.85
X-29.575Y13.1
X-29.575Y8.4
X-29.574Y21.004
X-29.429Y9.329
X-29.4Y3.55
X-29.075Y6.5
X-29.004Y4.396
X-27.418Y13.547
X-27.41Y5.132
X-27.375Y15.6
X-27.374Y14.146
X-27.3Y7.1
X-27.277Y18.35
X-27.Y45.2
X-26.6Y25.3
X-26.6Y7.4
X-26.4Y23.02
X-26.4Y5.279
X-26.396Y13.396
X-26.1Y22.5
X-26.Y23.9
X-26.Y16.7
X-26.Y12.4
X-26.Y4.475
X-25.9Y25.2
X-25.627Y6.899
X-25.4Y4.475
X-25.4Y42.5
X-25.3Y40.1
X-25.3Y33.95
X-25.3Y28.1
X-25.3Y16.7
X-25.3Y16.1
X-25.3Y13.1
X-25.3Y10.1
X-25.266Y25.201
X-25.23Y7.35
X-25.Y41.2
X-24.8Y22.2
X-24.7Y25.5
X-24.7Y20.2
X-24.7Y18.4
X-24.7Y13.1
X-24.7Y3.8
X-24.65Y7.516
X-24.5Y15.3
X-24.4Y33.2
X-24.2Y9.6
X-24.164Y19.188
X-24.1Y20.1
X-24.1Y13.2
X-24.1Y3.9
X-24.028Y18.312
X-24.Y25.5
X-24.Y7.4
X-23.8Y33.5
X-23.6Y14.1
X-23.575Y19.3
X-23.515Y10.938
X-23.429Y27.329
X-23.408Y3.801
X-23.111Y22.2
X-23.091Y4.315
X-23.075Y5.175
X-21.975Y11.
X-21.1Y45.5
X-20.9Y23.55
X-20.1Y47.
X-19.25Y40.1
X-19.25Y34.1
X-19.25Y28.1
X-19.25Y22.1
X-19.25Y16.1
X-19.25Y10.1
X-19.1Y47.
X-19.Y36.5
X-18.875Y37.95
X-18.6Y45.3
X-18.6Y44.3
X-18.4Y38.4
X-18.3Y36.3
X-18.1Y47.
X-18.1Y45.7
X-18.1Y44.6
X-17.7Y44.2
X-17.7Y38.2
X-17.7Y36.
X-17.6Y45.3
X-17.1Y47.
X-17.075Y5.65
X-16.25Y13.55
X-16.1Y47.
X-15.3Y45.5
X-14.9Y24.
X-14.1Y28.8
X-13.7Y22.6
X-13.3Y40.1
X-13.3Y34.1
X-13.3Y10.1
X-12.6Y17.3
X-12.6Y15.3
X-12.2Y37.6
X-12.1Y28.8
X-12.1Y5.3
X-11.8Y39.1
X-11.6Y4.3
X-11.075Y6.1
X-9.7Y14.
X-9.Y46.2
X-8.9Y24.5
X-8.Y37.4
X-7.3Y3.85
X-7.25Y34.1
X-7.25Y28.1
X-7.25Y22.1
X-7.25Y16.1
X-7.25Y10.1
X-6.775Y44.2
X-6.6Y7.8
X-6.5Y38.8
X-6.1Y44.6
X-5.4Y42.1
X-5.075Y6.6
X-3.5Y36.884
X-3.425Y15.025
X-3.314Y37.512
X-3.1Y38.3
X-2.35Y25.
X-1.3Y40.1
X-1.3Y34.1
X-1.3Y28.1
X-1.3Y22.1
X-1.3Y16.1
X-1.3Y10.1
T2
X-173.8Y44.4
X-169.3Y42.3
X-168.Y41.7
X-164.9Y45.
T3
X-188.075Y24.742
X-187.3Y5.6
X-186.067Y45.467
X-181.3Y35.7
X-181.2Y17.9
X-180.55Y26.7
X-179.992Y3.208
X-175.5Y18.
X-175.2Y35.8
X-174.561Y7.775
X-174.4Y27.4
X-168.1Y26.8
X-162.1Y45.2
X-144.2Y18.1
X-144.1Y31.
X-143.9Y45.6
X-139.25Y18.
X-133.3Y5.6
X-127.7Y29.9
X-121.6Y17.8
X-121.5Y12.4
X-120.607Y27.023
X-120.4Y3.9
X-120.2Y21.1
X-119.882Y13.295
X-119.7Y9.9
X-115.38Y11.775
X-114.2Y4.3
X-114.Y17.9
X-109.9Y12.5
X-109.9Y6.1
X-109.5Y23.65
X-63.5Y29.7
X-54.Y26.4
X-20.983Y8.267
X-20.075Y17.4
X-19.3Y25.2
X-17.9Y42.9
X-17.9Y19.5
X-13.9Y35.6
X-12.2Y45.1
X-3.425Y43.
X-1.5Y41.9
X-1.075Y36.4
T0
M30
