G04 #@! TF.GenerationSoftware,KiCad,Pcbnew,(5.0.1-3-g963ef8bb5)*
G04 #@! TF.CreationDate,2019-06-17T09:36:16+02:00*
G04 #@! TF.ProjectId,cz19-badge,637A31392D62616467652E6B69636164,rev?*
G04 #@! TF.SameCoordinates,Original*
G04 #@! TF.FileFunction,Paste,Top*
G04 #@! TF.FilePolarity,Positive*
%FSLAX46Y46*%
G04 Gerber Fmt 4.6, Leading zero omitted, Abs format (unit mm)*
G04 Created by KiCad (PCBNEW (5.0.1-3-g963ef8bb5)) date 2019 June 17, Monday 09:36:16*
%MOMM*%
%LPD*%
G01*
G04 APERTURE LIST*
%ADD10R,1.000000X0.800000*%
G04 APERTURE END LIST*
D10*
G04 #@! TO.C,D1*
X55350000Y-71600000D03*
X57850000Y-71600000D03*
X57850000Y-73000000D03*
X55350000Y-73000000D03*
G04 #@! TD*
G04 #@! TO.C,D2*
X61350000Y-71600000D03*
X63850000Y-71600000D03*
X63850000Y-73000000D03*
X61350000Y-73000000D03*
G04 #@! TD*
G04 #@! TO.C,D3*
X67350000Y-71600000D03*
X69850000Y-71600000D03*
X69850000Y-73000000D03*
X67350000Y-73000000D03*
G04 #@! TD*
G04 #@! TO.C,D4*
X73350000Y-71600000D03*
X75850000Y-71600000D03*
X75850000Y-73000000D03*
X73350000Y-73000000D03*
G04 #@! TD*
G04 #@! TO.C,D5*
X79350000Y-71600000D03*
X81850000Y-71600000D03*
X81850000Y-73000000D03*
X79350000Y-73000000D03*
G04 #@! TD*
G04 #@! TO.C,D6*
X85350000Y-71600000D03*
X87850000Y-71600000D03*
X87850000Y-73000000D03*
X85350000Y-73000000D03*
G04 #@! TD*
G04 #@! TO.C,D7*
X91350000Y-71600000D03*
X93850000Y-71600000D03*
X93850000Y-73000000D03*
X91350000Y-73000000D03*
G04 #@! TD*
G04 #@! TO.C,D8*
X97350000Y-71600000D03*
X99850000Y-71600000D03*
X99850000Y-73000000D03*
X97350000Y-73000000D03*
G04 #@! TD*
G04 #@! TO.C,D9*
X103350000Y-71600000D03*
X105850000Y-71600000D03*
X105850000Y-73000000D03*
X103350000Y-73000000D03*
G04 #@! TD*
G04 #@! TO.C,D10*
X109350000Y-71600000D03*
X111850000Y-71600000D03*
X111850000Y-73000000D03*
X109350000Y-73000000D03*
G04 #@! TD*
G04 #@! TO.C,D11*
X115350000Y-71600000D03*
X117850000Y-71600000D03*
X117850000Y-73000000D03*
X115350000Y-73000000D03*
G04 #@! TD*
G04 #@! TO.C,D12*
X121350000Y-71600000D03*
X123850000Y-71600000D03*
X123850000Y-73000000D03*
X121350000Y-73000000D03*
G04 #@! TD*
G04 #@! TO.C,D13*
X127350000Y-71600000D03*
X129850000Y-71600000D03*
X129850000Y-73000000D03*
X127350000Y-73000000D03*
G04 #@! TD*
G04 #@! TO.C,D14*
X133350000Y-71600000D03*
X135850000Y-71600000D03*
X135850000Y-73000000D03*
X133350000Y-73000000D03*
G04 #@! TD*
G04 #@! TO.C,D15*
X139350000Y-71600000D03*
X141850000Y-71600000D03*
X141850000Y-73000000D03*
X139350000Y-73000000D03*
G04 #@! TD*
G04 #@! TO.C,D16*
X145350000Y-71600000D03*
X147850000Y-71600000D03*
X147850000Y-73000000D03*
X145350000Y-73000000D03*
G04 #@! TD*
G04 #@! TO.C,D17*
X151350000Y-71600000D03*
X153850000Y-71600000D03*
X153850000Y-73000000D03*
X151350000Y-73000000D03*
G04 #@! TD*
G04 #@! TO.C,D18*
X157350000Y-71600000D03*
X159850000Y-71600000D03*
X159850000Y-73000000D03*
X157350000Y-73000000D03*
G04 #@! TD*
G04 #@! TO.C,D19*
X163350000Y-71600000D03*
X165850000Y-71600000D03*
X165850000Y-73000000D03*
X163350000Y-73000000D03*
G04 #@! TD*
G04 #@! TO.C,D20*
X169350000Y-71600000D03*
X171850000Y-71600000D03*
X171850000Y-73000000D03*
X169350000Y-73000000D03*
G04 #@! TD*
G04 #@! TO.C,D21*
X175350000Y-71600000D03*
X177850000Y-71600000D03*
X177850000Y-73000000D03*
X175350000Y-73000000D03*
G04 #@! TD*
G04 #@! TO.C,D22*
X181350000Y-71600000D03*
X183850000Y-71600000D03*
X183850000Y-73000000D03*
X181350000Y-73000000D03*
G04 #@! TD*
G04 #@! TO.C,D23*
X187350000Y-71600000D03*
X189850000Y-71600000D03*
X189850000Y-73000000D03*
X187350000Y-73000000D03*
G04 #@! TD*
G04 #@! TO.C,D24*
X193350000Y-71600000D03*
X195850000Y-71600000D03*
X195850000Y-73000000D03*
X193350000Y-73000000D03*
G04 #@! TD*
G04 #@! TO.C,D25*
X199350000Y-71600000D03*
X201850000Y-71600000D03*
X201850000Y-73000000D03*
X199350000Y-73000000D03*
G04 #@! TD*
G04 #@! TO.C,D26*
X205350000Y-71600000D03*
X207850000Y-71600000D03*
X207850000Y-73000000D03*
X205350000Y-73000000D03*
G04 #@! TD*
G04 #@! TO.C,D27*
X211350000Y-71600000D03*
X213850000Y-71600000D03*
X213850000Y-73000000D03*
X211350000Y-73000000D03*
G04 #@! TD*
G04 #@! TO.C,D28*
X217350000Y-71600000D03*
X219850000Y-71600000D03*
X219850000Y-73000000D03*
X217350000Y-73000000D03*
G04 #@! TD*
G04 #@! TO.C,D29*
X223350000Y-71600000D03*
X225850000Y-71600000D03*
X225850000Y-73000000D03*
X223350000Y-73000000D03*
G04 #@! TD*
G04 #@! TO.C,D30*
X229350000Y-71600000D03*
X231850000Y-71600000D03*
X231850000Y-73000000D03*
X229350000Y-73000000D03*
G04 #@! TD*
G04 #@! TO.C,D31*
X235350000Y-71600000D03*
X237850000Y-71600000D03*
X237850000Y-73000000D03*
X235350000Y-73000000D03*
G04 #@! TD*
G04 #@! TO.C,D32*
X241350000Y-71600000D03*
X243850000Y-71600000D03*
X243850000Y-73000000D03*
X241350000Y-73000000D03*
G04 #@! TD*
G04 #@! TO.C,D33*
X55350000Y-79000000D03*
X57850000Y-79000000D03*
X57850000Y-77600000D03*
X55350000Y-77600000D03*
G04 #@! TD*
G04 #@! TO.C,D34*
X61350000Y-79000000D03*
X63850000Y-79000000D03*
X63850000Y-77600000D03*
X61350000Y-77600000D03*
G04 #@! TD*
G04 #@! TO.C,D35*
X67350000Y-79000000D03*
X69850000Y-79000000D03*
X69850000Y-77600000D03*
X67350000Y-77600000D03*
G04 #@! TD*
G04 #@! TO.C,D36*
X73350000Y-79000000D03*
X75850000Y-79000000D03*
X75850000Y-77600000D03*
X73350000Y-77600000D03*
G04 #@! TD*
G04 #@! TO.C,D37*
X79350000Y-79000000D03*
X81850000Y-79000000D03*
X81850000Y-77600000D03*
X79350000Y-77600000D03*
G04 #@! TD*
G04 #@! TO.C,D38*
X85350000Y-79000000D03*
X87850000Y-79000000D03*
X87850000Y-77600000D03*
X85350000Y-77600000D03*
G04 #@! TD*
G04 #@! TO.C,D39*
X91350000Y-79000000D03*
X93850000Y-79000000D03*
X93850000Y-77600000D03*
X91350000Y-77600000D03*
G04 #@! TD*
G04 #@! TO.C,D40*
X97350000Y-79000000D03*
X99850000Y-79000000D03*
X99850000Y-77600000D03*
X97350000Y-77600000D03*
G04 #@! TD*
G04 #@! TO.C,D41*
X103350000Y-79000000D03*
X105850000Y-79000000D03*
X105850000Y-77600000D03*
X103350000Y-77600000D03*
G04 #@! TD*
G04 #@! TO.C,D42*
X109350000Y-79000000D03*
X111850000Y-79000000D03*
X111850000Y-77600000D03*
X109350000Y-77600000D03*
G04 #@! TD*
G04 #@! TO.C,D43*
X115350000Y-79000000D03*
X117850000Y-79000000D03*
X117850000Y-77600000D03*
X115350000Y-77600000D03*
G04 #@! TD*
G04 #@! TO.C,D44*
X121350000Y-79000000D03*
X123850000Y-79000000D03*
X123850000Y-77600000D03*
X121350000Y-77600000D03*
G04 #@! TD*
G04 #@! TO.C,D45*
X127350000Y-79000000D03*
X129850000Y-79000000D03*
X129850000Y-77600000D03*
X127350000Y-77600000D03*
G04 #@! TD*
G04 #@! TO.C,D46*
X133350000Y-79000000D03*
X135850000Y-79000000D03*
X135850000Y-77600000D03*
X133350000Y-77600000D03*
G04 #@! TD*
G04 #@! TO.C,D47*
X139350000Y-79000000D03*
X141850000Y-79000000D03*
X141850000Y-77600000D03*
X139350000Y-77600000D03*
G04 #@! TD*
G04 #@! TO.C,D48*
X145350000Y-79000000D03*
X147850000Y-79000000D03*
X147850000Y-77600000D03*
X145350000Y-77600000D03*
G04 #@! TD*
G04 #@! TO.C,D49*
X151350000Y-79000000D03*
X153850000Y-79000000D03*
X153850000Y-77600000D03*
X151350000Y-77600000D03*
G04 #@! TD*
G04 #@! TO.C,D50*
X157350000Y-79000000D03*
X159850000Y-79000000D03*
X159850000Y-77600000D03*
X157350000Y-77600000D03*
G04 #@! TD*
G04 #@! TO.C,D51*
X163350000Y-79000000D03*
X165850000Y-79000000D03*
X165850000Y-77600000D03*
X163350000Y-77600000D03*
G04 #@! TD*
G04 #@! TO.C,D52*
X169350000Y-79000000D03*
X171850000Y-79000000D03*
X171850000Y-77600000D03*
X169350000Y-77600000D03*
G04 #@! TD*
G04 #@! TO.C,D53*
X175350000Y-79000000D03*
X177850000Y-79000000D03*
X177850000Y-77600000D03*
X175350000Y-77600000D03*
G04 #@! TD*
G04 #@! TO.C,D54*
X181350000Y-79000000D03*
X183850000Y-79000000D03*
X183850000Y-77600000D03*
X181350000Y-77600000D03*
G04 #@! TD*
G04 #@! TO.C,D55*
X187350000Y-79000000D03*
X189850000Y-79000000D03*
X189850000Y-77600000D03*
X187350000Y-77600000D03*
G04 #@! TD*
G04 #@! TO.C,D56*
X193350000Y-79000000D03*
X195850000Y-79000000D03*
X195850000Y-77600000D03*
X193350000Y-77600000D03*
G04 #@! TD*
G04 #@! TO.C,D57*
X199350000Y-79000000D03*
X201850000Y-79000000D03*
X201850000Y-77600000D03*
X199350000Y-77600000D03*
G04 #@! TD*
G04 #@! TO.C,D58*
X205350000Y-79000000D03*
X207850000Y-79000000D03*
X207850000Y-77600000D03*
X205350000Y-77600000D03*
G04 #@! TD*
G04 #@! TO.C,D59*
X211350000Y-79000000D03*
X213850000Y-79000000D03*
X213850000Y-77600000D03*
X211350000Y-77600000D03*
G04 #@! TD*
G04 #@! TO.C,D60*
X217350000Y-79000000D03*
X219850000Y-79000000D03*
X219850000Y-77600000D03*
X217350000Y-77600000D03*
G04 #@! TD*
G04 #@! TO.C,D61*
X223350000Y-79000000D03*
X225850000Y-79000000D03*
X225850000Y-77600000D03*
X223350000Y-77600000D03*
G04 #@! TD*
G04 #@! TO.C,D62*
X229350000Y-79000000D03*
X231850000Y-79000000D03*
X231850000Y-77600000D03*
X229350000Y-77600000D03*
G04 #@! TD*
G04 #@! TO.C,D63*
X235350000Y-79000000D03*
X237850000Y-79000000D03*
X237850000Y-77600000D03*
X235350000Y-77600000D03*
G04 #@! TD*
G04 #@! TO.C,D64*
X241350000Y-79000000D03*
X243850000Y-79000000D03*
X243850000Y-77600000D03*
X241350000Y-77600000D03*
G04 #@! TD*
G04 #@! TO.C,D65*
X55350000Y-83600000D03*
X57850000Y-83600000D03*
X57850000Y-85000000D03*
X55350000Y-85000000D03*
G04 #@! TD*
G04 #@! TO.C,D66*
X61350000Y-83600000D03*
X63850000Y-83600000D03*
X63850000Y-85000000D03*
X61350000Y-85000000D03*
G04 #@! TD*
G04 #@! TO.C,D67*
X67350000Y-83600000D03*
X69850000Y-83600000D03*
X69850000Y-85000000D03*
X67350000Y-85000000D03*
G04 #@! TD*
G04 #@! TO.C,D68*
X73350000Y-83600000D03*
X75850000Y-83600000D03*
X75850000Y-85000000D03*
X73350000Y-85000000D03*
G04 #@! TD*
G04 #@! TO.C,D69*
X79350000Y-83600000D03*
X81850000Y-83600000D03*
X81850000Y-85000000D03*
X79350000Y-85000000D03*
G04 #@! TD*
G04 #@! TO.C,D70*
X85350000Y-83600000D03*
X87850000Y-83600000D03*
X87850000Y-85000000D03*
X85350000Y-85000000D03*
G04 #@! TD*
G04 #@! TO.C,D71*
X91350000Y-83600000D03*
X93850000Y-83600000D03*
X93850000Y-85000000D03*
X91350000Y-85000000D03*
G04 #@! TD*
G04 #@! TO.C,D72*
X97350000Y-83600000D03*
X99850000Y-83600000D03*
X99850000Y-85000000D03*
X97350000Y-85000000D03*
G04 #@! TD*
G04 #@! TO.C,D73*
X103350000Y-83600000D03*
X105850000Y-83600000D03*
X105850000Y-85000000D03*
X103350000Y-85000000D03*
G04 #@! TD*
G04 #@! TO.C,D74*
X109350000Y-83600000D03*
X111850000Y-83600000D03*
X111850000Y-85000000D03*
X109350000Y-85000000D03*
G04 #@! TD*
G04 #@! TO.C,D75*
X115350000Y-83600000D03*
X117850000Y-83600000D03*
X117850000Y-85000000D03*
X115350000Y-85000000D03*
G04 #@! TD*
G04 #@! TO.C,D76*
X121350000Y-83600000D03*
X123850000Y-83600000D03*
X123850000Y-85000000D03*
X121350000Y-85000000D03*
G04 #@! TD*
G04 #@! TO.C,D77*
X127350000Y-83600000D03*
X129850000Y-83600000D03*
X129850000Y-85000000D03*
X127350000Y-85000000D03*
G04 #@! TD*
G04 #@! TO.C,D78*
X133350000Y-83600000D03*
X135850000Y-83600000D03*
X135850000Y-85000000D03*
X133350000Y-85000000D03*
G04 #@! TD*
G04 #@! TO.C,D79*
X139350000Y-83600000D03*
X141850000Y-83600000D03*
X141850000Y-85000000D03*
X139350000Y-85000000D03*
G04 #@! TD*
G04 #@! TO.C,D80*
X145350000Y-83600000D03*
X147850000Y-83600000D03*
X147850000Y-85000000D03*
X145350000Y-85000000D03*
G04 #@! TD*
G04 #@! TO.C,D81*
X151350000Y-83600000D03*
X153850000Y-83600000D03*
X153850000Y-85000000D03*
X151350000Y-85000000D03*
G04 #@! TD*
G04 #@! TO.C,D82*
X157350000Y-83600000D03*
X159850000Y-83600000D03*
X159850000Y-85000000D03*
X157350000Y-85000000D03*
G04 #@! TD*
G04 #@! TO.C,D83*
X163350000Y-83600000D03*
X165850000Y-83600000D03*
X165850000Y-85000000D03*
X163350000Y-85000000D03*
G04 #@! TD*
G04 #@! TO.C,D84*
X169350000Y-83600000D03*
X171850000Y-83600000D03*
X171850000Y-85000000D03*
X169350000Y-85000000D03*
G04 #@! TD*
G04 #@! TO.C,D85*
X175350000Y-83600000D03*
X177850000Y-83600000D03*
X177850000Y-85000000D03*
X175350000Y-85000000D03*
G04 #@! TD*
G04 #@! TO.C,D86*
X181350000Y-83600000D03*
X183850000Y-83600000D03*
X183850000Y-85000000D03*
X181350000Y-85000000D03*
G04 #@! TD*
G04 #@! TO.C,D87*
X187350000Y-83600000D03*
X189850000Y-83600000D03*
X189850000Y-85000000D03*
X187350000Y-85000000D03*
G04 #@! TD*
G04 #@! TO.C,D88*
X193350000Y-83600000D03*
X195850000Y-83600000D03*
X195850000Y-85000000D03*
X193350000Y-85000000D03*
G04 #@! TD*
G04 #@! TO.C,D89*
X199350000Y-83600000D03*
X201850000Y-83600000D03*
X201850000Y-85000000D03*
X199350000Y-85000000D03*
G04 #@! TD*
G04 #@! TO.C,D90*
X205350000Y-83600000D03*
X207850000Y-83600000D03*
X207850000Y-85000000D03*
X205350000Y-85000000D03*
G04 #@! TD*
G04 #@! TO.C,D91*
X211350000Y-83600000D03*
X213850000Y-83600000D03*
X213850000Y-85000000D03*
X211350000Y-85000000D03*
G04 #@! TD*
G04 #@! TO.C,D92*
X217350000Y-83600000D03*
X219850000Y-83600000D03*
X219850000Y-85000000D03*
X217350000Y-85000000D03*
G04 #@! TD*
G04 #@! TO.C,D93*
X223350000Y-83600000D03*
X225850000Y-83600000D03*
X225850000Y-85000000D03*
X223350000Y-85000000D03*
G04 #@! TD*
G04 #@! TO.C,D94*
X229350000Y-83600000D03*
X231850000Y-83600000D03*
X231850000Y-85000000D03*
X229350000Y-85000000D03*
G04 #@! TD*
G04 #@! TO.C,D95*
X235350000Y-83600000D03*
X237850000Y-83600000D03*
X237850000Y-85000000D03*
X235350000Y-85000000D03*
G04 #@! TD*
G04 #@! TO.C,D96*
X241350000Y-85000000D03*
X243850000Y-85000000D03*
X243850000Y-83600000D03*
X241350000Y-83600000D03*
G04 #@! TD*
G04 #@! TO.C,D97*
X55350000Y-91000000D03*
X57850000Y-91000000D03*
X57850000Y-89600000D03*
X55350000Y-89600000D03*
G04 #@! TD*
G04 #@! TO.C,D98*
X61350000Y-91000000D03*
X63850000Y-91000000D03*
X63850000Y-89600000D03*
X61350000Y-89600000D03*
G04 #@! TD*
G04 #@! TO.C,D99*
X67350000Y-91000000D03*
X69850000Y-91000000D03*
X69850000Y-89600000D03*
X67350000Y-89600000D03*
G04 #@! TD*
G04 #@! TO.C,D100*
X73350000Y-91000000D03*
X75850000Y-91000000D03*
X75850000Y-89600000D03*
X73350000Y-89600000D03*
G04 #@! TD*
G04 #@! TO.C,D101*
X79350000Y-91000000D03*
X81850000Y-91000000D03*
X81850000Y-89600000D03*
X79350000Y-89600000D03*
G04 #@! TD*
G04 #@! TO.C,D102*
X85350000Y-91000000D03*
X87850000Y-91000000D03*
X87850000Y-89600000D03*
X85350000Y-89600000D03*
G04 #@! TD*
G04 #@! TO.C,D103*
X91350000Y-91000000D03*
X93850000Y-91000000D03*
X93850000Y-89600000D03*
X91350000Y-89600000D03*
G04 #@! TD*
G04 #@! TO.C,D104*
X97350000Y-91000000D03*
X99850000Y-91000000D03*
X99850000Y-89600000D03*
X97350000Y-89600000D03*
G04 #@! TD*
G04 #@! TO.C,D105*
X103350000Y-91000000D03*
X105850000Y-91000000D03*
X105850000Y-89600000D03*
X103350000Y-89600000D03*
G04 #@! TD*
G04 #@! TO.C,D106*
X109350000Y-91000000D03*
X111850000Y-91000000D03*
X111850000Y-89600000D03*
X109350000Y-89600000D03*
G04 #@! TD*
G04 #@! TO.C,D107*
X115350000Y-91000000D03*
X117850000Y-91000000D03*
X117850000Y-89600000D03*
X115350000Y-89600000D03*
G04 #@! TD*
G04 #@! TO.C,D108*
X121350000Y-91000000D03*
X123850000Y-91000000D03*
X123850000Y-89600000D03*
X121350000Y-89600000D03*
G04 #@! TD*
G04 #@! TO.C,D109*
X127350000Y-91000000D03*
X129850000Y-91000000D03*
X129850000Y-89600000D03*
X127350000Y-89600000D03*
G04 #@! TD*
G04 #@! TO.C,D110*
X133350000Y-89600000D03*
X135850000Y-89600000D03*
X135850000Y-91000000D03*
X133350000Y-91000000D03*
G04 #@! TD*
G04 #@! TO.C,D111*
X139350000Y-91000000D03*
X141850000Y-91000000D03*
X141850000Y-89600000D03*
X139350000Y-89600000D03*
G04 #@! TD*
G04 #@! TO.C,D112*
X145350000Y-91000000D03*
X147850000Y-91000000D03*
X147850000Y-89600000D03*
X145350000Y-89600000D03*
G04 #@! TD*
G04 #@! TO.C,D113*
X151350000Y-91000000D03*
X153850000Y-91000000D03*
X153850000Y-89600000D03*
X151350000Y-89600000D03*
G04 #@! TD*
G04 #@! TO.C,D114*
X157350000Y-91000000D03*
X159850000Y-91000000D03*
X159850000Y-89600000D03*
X157350000Y-89600000D03*
G04 #@! TD*
G04 #@! TO.C,D115*
X163350000Y-91000000D03*
X165850000Y-91000000D03*
X165850000Y-89600000D03*
X163350000Y-89600000D03*
G04 #@! TD*
G04 #@! TO.C,D116*
X169350000Y-91000000D03*
X171850000Y-91000000D03*
X171850000Y-89600000D03*
X169350000Y-89600000D03*
G04 #@! TD*
G04 #@! TO.C,D117*
X175350000Y-91000000D03*
X177850000Y-91000000D03*
X177850000Y-89600000D03*
X175350000Y-89600000D03*
G04 #@! TD*
G04 #@! TO.C,D118*
X181350000Y-91000000D03*
X183850000Y-91000000D03*
X183850000Y-89600000D03*
X181350000Y-89600000D03*
G04 #@! TD*
G04 #@! TO.C,D119*
X187350000Y-91000000D03*
X189850000Y-91000000D03*
X189850000Y-89600000D03*
X187350000Y-89600000D03*
G04 #@! TD*
G04 #@! TO.C,D120*
X193350000Y-91000000D03*
X195850000Y-91000000D03*
X195850000Y-89600000D03*
X193350000Y-89600000D03*
G04 #@! TD*
G04 #@! TO.C,D121*
X199350000Y-91000000D03*
X201850000Y-91000000D03*
X201850000Y-89600000D03*
X199350000Y-89600000D03*
G04 #@! TD*
G04 #@! TO.C,D122*
X205350000Y-91000000D03*
X207850000Y-91000000D03*
X207850000Y-89600000D03*
X205350000Y-89600000D03*
G04 #@! TD*
G04 #@! TO.C,D123*
X211350000Y-91000000D03*
X213850000Y-91000000D03*
X213850000Y-89600000D03*
X211350000Y-89600000D03*
G04 #@! TD*
G04 #@! TO.C,D124*
X217350000Y-91000000D03*
X219850000Y-91000000D03*
X219850000Y-89600000D03*
X217350000Y-89600000D03*
G04 #@! TD*
G04 #@! TO.C,D125*
X223350000Y-91000000D03*
X225850000Y-91000000D03*
X225850000Y-89600000D03*
X223350000Y-89600000D03*
G04 #@! TD*
G04 #@! TO.C,D126*
X229350000Y-91000000D03*
X231850000Y-91000000D03*
X231850000Y-89600000D03*
X229350000Y-89600000D03*
G04 #@! TD*
G04 #@! TO.C,D127*
X235350000Y-91000000D03*
X237850000Y-91000000D03*
X237850000Y-89600000D03*
X235350000Y-89600000D03*
G04 #@! TD*
G04 #@! TO.C,D128*
X241350000Y-89600000D03*
X243850000Y-89600000D03*
X243850000Y-91000000D03*
X241350000Y-91000000D03*
G04 #@! TD*
G04 #@! TO.C,D129*
X55350000Y-95600000D03*
X57850000Y-95600000D03*
X57850000Y-97000000D03*
X55350000Y-97000000D03*
G04 #@! TD*
G04 #@! TO.C,D130*
X61350000Y-95600000D03*
X63850000Y-95600000D03*
X63850000Y-97000000D03*
X61350000Y-97000000D03*
G04 #@! TD*
G04 #@! TO.C,D131*
X67350000Y-95600000D03*
X69850000Y-95600000D03*
X69850000Y-97000000D03*
X67350000Y-97000000D03*
G04 #@! TD*
G04 #@! TO.C,D132*
X73350000Y-95600000D03*
X75850000Y-95600000D03*
X75850000Y-97000000D03*
X73350000Y-97000000D03*
G04 #@! TD*
G04 #@! TO.C,D133*
X79350000Y-95600000D03*
X81850000Y-95600000D03*
X81850000Y-97000000D03*
X79350000Y-97000000D03*
G04 #@! TD*
G04 #@! TO.C,D134*
X85350000Y-95600000D03*
X87850000Y-95600000D03*
X87850000Y-97000000D03*
X85350000Y-97000000D03*
G04 #@! TD*
G04 #@! TO.C,D135*
X91350000Y-95600000D03*
X93850000Y-95600000D03*
X93850000Y-97000000D03*
X91350000Y-97000000D03*
G04 #@! TD*
G04 #@! TO.C,D136*
X97350000Y-95600000D03*
X99850000Y-95600000D03*
X99850000Y-97000000D03*
X97350000Y-97000000D03*
G04 #@! TD*
G04 #@! TO.C,D137*
X103350000Y-95600000D03*
X105850000Y-95600000D03*
X105850000Y-97000000D03*
X103350000Y-97000000D03*
G04 #@! TD*
G04 #@! TO.C,D138*
X109350000Y-95600000D03*
X111850000Y-95600000D03*
X111850000Y-97000000D03*
X109350000Y-97000000D03*
G04 #@! TD*
G04 #@! TO.C,D139*
X115350000Y-95600000D03*
X117850000Y-95600000D03*
X117850000Y-97000000D03*
X115350000Y-97000000D03*
G04 #@! TD*
G04 #@! TO.C,D140*
X121350000Y-95600000D03*
X123850000Y-95600000D03*
X123850000Y-97000000D03*
X121350000Y-97000000D03*
G04 #@! TD*
G04 #@! TO.C,D141*
X127350000Y-95600000D03*
X129850000Y-95600000D03*
X129850000Y-97000000D03*
X127350000Y-97000000D03*
G04 #@! TD*
G04 #@! TO.C,D142*
X133350000Y-95600000D03*
X135850000Y-95600000D03*
X135850000Y-97000000D03*
X133350000Y-97000000D03*
G04 #@! TD*
G04 #@! TO.C,D143*
X139350000Y-95600000D03*
X141850000Y-95600000D03*
X141850000Y-97000000D03*
X139350000Y-97000000D03*
G04 #@! TD*
G04 #@! TO.C,D144*
X145350000Y-95600000D03*
X147850000Y-95600000D03*
X147850000Y-97000000D03*
X145350000Y-97000000D03*
G04 #@! TD*
G04 #@! TO.C,D145*
X151350000Y-95600000D03*
X153850000Y-95600000D03*
X153850000Y-97000000D03*
X151350000Y-97000000D03*
G04 #@! TD*
G04 #@! TO.C,D146*
X157350000Y-95600000D03*
X159850000Y-95600000D03*
X159850000Y-97000000D03*
X157350000Y-97000000D03*
G04 #@! TD*
G04 #@! TO.C,D147*
X163350000Y-95600000D03*
X165850000Y-95600000D03*
X165850000Y-97000000D03*
X163350000Y-97000000D03*
G04 #@! TD*
G04 #@! TO.C,D148*
X169350000Y-95600000D03*
X171850000Y-95600000D03*
X171850000Y-97000000D03*
X169350000Y-97000000D03*
G04 #@! TD*
G04 #@! TO.C,D149*
X175350000Y-95600000D03*
X177850000Y-95600000D03*
X177850000Y-97000000D03*
X175350000Y-97000000D03*
G04 #@! TD*
G04 #@! TO.C,D150*
X181350000Y-95600000D03*
X183850000Y-95600000D03*
X183850000Y-97000000D03*
X181350000Y-97000000D03*
G04 #@! TD*
G04 #@! TO.C,D151*
X187350000Y-95600000D03*
X189850000Y-95600000D03*
X189850000Y-97000000D03*
X187350000Y-97000000D03*
G04 #@! TD*
G04 #@! TO.C,D152*
X193350000Y-95600000D03*
X195850000Y-95600000D03*
X195850000Y-97000000D03*
X193350000Y-97000000D03*
G04 #@! TD*
G04 #@! TO.C,D153*
X199350000Y-95600000D03*
X201850000Y-95600000D03*
X201850000Y-97000000D03*
X199350000Y-97000000D03*
G04 #@! TD*
G04 #@! TO.C,D154*
X205350000Y-95600000D03*
X207850000Y-95600000D03*
X207850000Y-97000000D03*
X205350000Y-97000000D03*
G04 #@! TD*
G04 #@! TO.C,D155*
X211350000Y-95600000D03*
X213850000Y-95600000D03*
X213850000Y-97000000D03*
X211350000Y-97000000D03*
G04 #@! TD*
G04 #@! TO.C,D156*
X217350000Y-95600000D03*
X219850000Y-95600000D03*
X219850000Y-97000000D03*
X217350000Y-97000000D03*
G04 #@! TD*
G04 #@! TO.C,D157*
X223350000Y-95600000D03*
X225850000Y-95600000D03*
X225850000Y-97000000D03*
X223350000Y-97000000D03*
G04 #@! TD*
G04 #@! TO.C,D158*
X229350000Y-95600000D03*
X231850000Y-95600000D03*
X231850000Y-97000000D03*
X229350000Y-97000000D03*
G04 #@! TD*
G04 #@! TO.C,D159*
X235350000Y-95600000D03*
X237850000Y-95600000D03*
X237850000Y-97000000D03*
X235350000Y-97000000D03*
G04 #@! TD*
G04 #@! TO.C,D160*
X241350000Y-97000000D03*
X243850000Y-97000000D03*
X243850000Y-95600000D03*
X241350000Y-95600000D03*
G04 #@! TD*
G04 #@! TO.C,D161*
X55350000Y-103000000D03*
X57850000Y-103000000D03*
X57850000Y-101600000D03*
X55350000Y-101600000D03*
G04 #@! TD*
G04 #@! TO.C,D162*
X61350000Y-103000000D03*
X63850000Y-103000000D03*
X63850000Y-101600000D03*
X61350000Y-101600000D03*
G04 #@! TD*
G04 #@! TO.C,D163*
X67350000Y-103000000D03*
X69850000Y-103000000D03*
X69850000Y-101600000D03*
X67350000Y-101600000D03*
G04 #@! TD*
G04 #@! TO.C,D164*
X73350000Y-103000000D03*
X75850000Y-103000000D03*
X75850000Y-101600000D03*
X73350000Y-101600000D03*
G04 #@! TD*
G04 #@! TO.C,D165*
X79350000Y-103000000D03*
X81850000Y-103000000D03*
X81850000Y-101600000D03*
X79350000Y-101600000D03*
G04 #@! TD*
G04 #@! TO.C,D166*
X85350000Y-103000000D03*
X87850000Y-103000000D03*
X87850000Y-101600000D03*
X85350000Y-101600000D03*
G04 #@! TD*
G04 #@! TO.C,D167*
X91350000Y-103000000D03*
X93850000Y-103000000D03*
X93850000Y-101600000D03*
X91350000Y-101600000D03*
G04 #@! TD*
G04 #@! TO.C,D168*
X97350000Y-103000000D03*
X99850000Y-103000000D03*
X99850000Y-101600000D03*
X97350000Y-101600000D03*
G04 #@! TD*
G04 #@! TO.C,D169*
X103350000Y-103000000D03*
X105850000Y-103000000D03*
X105850000Y-101600000D03*
X103350000Y-101600000D03*
G04 #@! TD*
G04 #@! TO.C,D170*
X109350000Y-103000000D03*
X111850000Y-103000000D03*
X111850000Y-101600000D03*
X109350000Y-101600000D03*
G04 #@! TD*
G04 #@! TO.C,D171*
X115350000Y-103000000D03*
X117850000Y-103000000D03*
X117850000Y-101600000D03*
X115350000Y-101600000D03*
G04 #@! TD*
G04 #@! TO.C,D172*
X121350000Y-103000000D03*
X123850000Y-103000000D03*
X123850000Y-101600000D03*
X121350000Y-101600000D03*
G04 #@! TD*
G04 #@! TO.C,D173*
X127350000Y-103000000D03*
X129850000Y-103000000D03*
X129850000Y-101600000D03*
X127350000Y-101600000D03*
G04 #@! TD*
G04 #@! TO.C,D174*
X133350000Y-103000000D03*
X135850000Y-103000000D03*
X135850000Y-101600000D03*
X133350000Y-101600000D03*
G04 #@! TD*
G04 #@! TO.C,D175*
X139350000Y-103000000D03*
X141850000Y-103000000D03*
X141850000Y-101600000D03*
X139350000Y-101600000D03*
G04 #@! TD*
G04 #@! TO.C,D176*
X145350000Y-103000000D03*
X147850000Y-103000000D03*
X147850000Y-101600000D03*
X145350000Y-101600000D03*
G04 #@! TD*
G04 #@! TO.C,D177*
X151350000Y-103000000D03*
X153850000Y-103000000D03*
X153850000Y-101600000D03*
X151350000Y-101600000D03*
G04 #@! TD*
G04 #@! TO.C,D178*
X157350000Y-103000000D03*
X159850000Y-103000000D03*
X159850000Y-101600000D03*
X157350000Y-101600000D03*
G04 #@! TD*
G04 #@! TO.C,D179*
X163350000Y-103000000D03*
X165850000Y-103000000D03*
X165850000Y-101600000D03*
X163350000Y-101600000D03*
G04 #@! TD*
G04 #@! TO.C,D180*
X169350000Y-103000000D03*
X171850000Y-103000000D03*
X171850000Y-101600000D03*
X169350000Y-101600000D03*
G04 #@! TD*
G04 #@! TO.C,D181*
X175350000Y-103000000D03*
X177850000Y-103000000D03*
X177850000Y-101600000D03*
X175350000Y-101600000D03*
G04 #@! TD*
G04 #@! TO.C,D182*
X181350000Y-103000000D03*
X183850000Y-103000000D03*
X183850000Y-101600000D03*
X181350000Y-101600000D03*
G04 #@! TD*
G04 #@! TO.C,D183*
X187350000Y-103000000D03*
X189850000Y-103000000D03*
X189850000Y-101600000D03*
X187350000Y-101600000D03*
G04 #@! TD*
G04 #@! TO.C,D184*
X193350000Y-103000000D03*
X195850000Y-103000000D03*
X195850000Y-101600000D03*
X193350000Y-101600000D03*
G04 #@! TD*
G04 #@! TO.C,D185*
X199350000Y-103000000D03*
X201850000Y-103000000D03*
X201850000Y-101600000D03*
X199350000Y-101600000D03*
G04 #@! TD*
G04 #@! TO.C,D186*
X205350000Y-103000000D03*
X207850000Y-103000000D03*
X207850000Y-101600000D03*
X205350000Y-101600000D03*
G04 #@! TD*
G04 #@! TO.C,D187*
X211350000Y-103000000D03*
X213850000Y-103000000D03*
X213850000Y-101600000D03*
X211350000Y-101600000D03*
G04 #@! TD*
G04 #@! TO.C,D188*
X217350000Y-103000000D03*
X219850000Y-103000000D03*
X219850000Y-101600000D03*
X217350000Y-101600000D03*
G04 #@! TD*
G04 #@! TO.C,D189*
X223350000Y-103000000D03*
X225850000Y-103000000D03*
X225850000Y-101600000D03*
X223350000Y-101600000D03*
G04 #@! TD*
G04 #@! TO.C,D190*
X229350000Y-103000000D03*
X231850000Y-103000000D03*
X231850000Y-101600000D03*
X229350000Y-101600000D03*
G04 #@! TD*
G04 #@! TO.C,D191*
X235350000Y-103000000D03*
X237850000Y-103000000D03*
X237850000Y-101600000D03*
X235350000Y-101600000D03*
G04 #@! TD*
G04 #@! TO.C,D192*
X241350000Y-101600000D03*
X243850000Y-101600000D03*
X243850000Y-103000000D03*
X241350000Y-103000000D03*
G04 #@! TD*
G04 #@! TO.C,D193*
X55350000Y-107600000D03*
X57850000Y-107600000D03*
X57850000Y-109000000D03*
X55350000Y-109000000D03*
G04 #@! TD*
G04 #@! TO.C,D194*
X61350000Y-107600000D03*
X63850000Y-107600000D03*
X63850000Y-109000000D03*
X61350000Y-109000000D03*
G04 #@! TD*
G04 #@! TO.C,D195*
X67350000Y-107600000D03*
X69850000Y-107600000D03*
X69850000Y-109000000D03*
X67350000Y-109000000D03*
G04 #@! TD*
G04 #@! TO.C,D196*
X73350000Y-107600000D03*
X75850000Y-107600000D03*
X75850000Y-109000000D03*
X73350000Y-109000000D03*
G04 #@! TD*
G04 #@! TO.C,D197*
X79350000Y-107600000D03*
X81850000Y-107600000D03*
X81850000Y-109000000D03*
X79350000Y-109000000D03*
G04 #@! TD*
G04 #@! TO.C,D198*
X85350000Y-107600000D03*
X87850000Y-107600000D03*
X87850000Y-109000000D03*
X85350000Y-109000000D03*
G04 #@! TD*
G04 #@! TO.C,D199*
X91350000Y-107600000D03*
X93850000Y-107600000D03*
X93850000Y-109000000D03*
X91350000Y-109000000D03*
G04 #@! TD*
G04 #@! TO.C,D200*
X97350000Y-107600000D03*
X99850000Y-107600000D03*
X99850000Y-109000000D03*
X97350000Y-109000000D03*
G04 #@! TD*
G04 #@! TO.C,D201*
X103350000Y-107600000D03*
X105850000Y-107600000D03*
X105850000Y-109000000D03*
X103350000Y-109000000D03*
G04 #@! TD*
G04 #@! TO.C,D202*
X109350000Y-107600000D03*
X111850000Y-107600000D03*
X111850000Y-109000000D03*
X109350000Y-109000000D03*
G04 #@! TD*
G04 #@! TO.C,D203*
X115350000Y-107600000D03*
X117850000Y-107600000D03*
X117850000Y-109000000D03*
X115350000Y-109000000D03*
G04 #@! TD*
G04 #@! TO.C,D204*
X121350000Y-107600000D03*
X123850000Y-107600000D03*
X123850000Y-109000000D03*
X121350000Y-109000000D03*
G04 #@! TD*
G04 #@! TO.C,D205*
X127350000Y-107600000D03*
X129850000Y-107600000D03*
X129850000Y-109000000D03*
X127350000Y-109000000D03*
G04 #@! TD*
G04 #@! TO.C,D206*
X133350000Y-107600000D03*
X135850000Y-107600000D03*
X135850000Y-109000000D03*
X133350000Y-109000000D03*
G04 #@! TD*
G04 #@! TO.C,D207*
X139350000Y-107600000D03*
X141850000Y-107600000D03*
X141850000Y-109000000D03*
X139350000Y-109000000D03*
G04 #@! TD*
G04 #@! TO.C,D208*
X145350000Y-107600000D03*
X147850000Y-107600000D03*
X147850000Y-109000000D03*
X145350000Y-109000000D03*
G04 #@! TD*
G04 #@! TO.C,D209*
X151350000Y-109000000D03*
X153850000Y-109000000D03*
X153850000Y-107600000D03*
X151350000Y-107600000D03*
G04 #@! TD*
G04 #@! TO.C,D210*
X157350000Y-107600000D03*
X159850000Y-107600000D03*
X159850000Y-109000000D03*
X157350000Y-109000000D03*
G04 #@! TD*
G04 #@! TO.C,D211*
X163350000Y-107600000D03*
X165850000Y-107600000D03*
X165850000Y-109000000D03*
X163350000Y-109000000D03*
G04 #@! TD*
G04 #@! TO.C,D212*
X169350000Y-107600000D03*
X171850000Y-107600000D03*
X171850000Y-109000000D03*
X169350000Y-109000000D03*
G04 #@! TD*
G04 #@! TO.C,D213*
X175350000Y-107600000D03*
X177850000Y-107600000D03*
X177850000Y-109000000D03*
X175350000Y-109000000D03*
G04 #@! TD*
G04 #@! TO.C,D214*
X181350000Y-107600000D03*
X183850000Y-107600000D03*
X183850000Y-109000000D03*
X181350000Y-109000000D03*
G04 #@! TD*
G04 #@! TO.C,D215*
X187350000Y-107600000D03*
X189850000Y-107600000D03*
X189850000Y-109000000D03*
X187350000Y-109000000D03*
G04 #@! TD*
G04 #@! TO.C,D216*
X193350000Y-107600000D03*
X195850000Y-107600000D03*
X195850000Y-109000000D03*
X193350000Y-109000000D03*
G04 #@! TD*
G04 #@! TO.C,D217*
X199350000Y-107600000D03*
X201850000Y-107600000D03*
X201850000Y-109000000D03*
X199350000Y-109000000D03*
G04 #@! TD*
G04 #@! TO.C,D218*
X205350000Y-107600000D03*
X207850000Y-107600000D03*
X207850000Y-109000000D03*
X205350000Y-109000000D03*
G04 #@! TD*
G04 #@! TO.C,D219*
X211350000Y-107600000D03*
X213850000Y-107600000D03*
X213850000Y-109000000D03*
X211350000Y-109000000D03*
G04 #@! TD*
G04 #@! TO.C,D220*
X217350000Y-107600000D03*
X219850000Y-107600000D03*
X219850000Y-109000000D03*
X217350000Y-109000000D03*
G04 #@! TD*
G04 #@! TO.C,D221*
X223350000Y-107600000D03*
X225850000Y-107600000D03*
X225850000Y-109000000D03*
X223350000Y-109000000D03*
G04 #@! TD*
G04 #@! TO.C,D222*
X229350000Y-107600000D03*
X231850000Y-107600000D03*
X231850000Y-109000000D03*
X229350000Y-109000000D03*
G04 #@! TD*
G04 #@! TO.C,D223*
X235350000Y-107600000D03*
X237850000Y-107600000D03*
X237850000Y-109000000D03*
X235350000Y-109000000D03*
G04 #@! TD*
G04 #@! TO.C,D224*
X241350000Y-107600000D03*
X243850000Y-107600000D03*
X243850000Y-109000000D03*
X241350000Y-109000000D03*
G04 #@! TD*
G04 #@! TO.C,D225*
X55350000Y-115000000D03*
X57850000Y-115000000D03*
X57850000Y-113600000D03*
X55350000Y-113600000D03*
G04 #@! TD*
G04 #@! TO.C,D226*
X61350000Y-115000000D03*
X63850000Y-115000000D03*
X63850000Y-113600000D03*
X61350000Y-113600000D03*
G04 #@! TD*
G04 #@! TO.C,D227*
X67350000Y-115000000D03*
X69850000Y-115000000D03*
X69850000Y-113600000D03*
X67350000Y-113600000D03*
G04 #@! TD*
G04 #@! TO.C,D228*
X73350000Y-115000000D03*
X75850000Y-115000000D03*
X75850000Y-113600000D03*
X73350000Y-113600000D03*
G04 #@! TD*
G04 #@! TO.C,D229*
X79350000Y-115000000D03*
X81850000Y-115000000D03*
X81850000Y-113600000D03*
X79350000Y-113600000D03*
G04 #@! TD*
G04 #@! TO.C,D230*
X85350000Y-115000000D03*
X87850000Y-115000000D03*
X87850000Y-113600000D03*
X85350000Y-113600000D03*
G04 #@! TD*
G04 #@! TO.C,D231*
X91350000Y-115000000D03*
X93850000Y-115000000D03*
X93850000Y-113600000D03*
X91350000Y-113600000D03*
G04 #@! TD*
G04 #@! TO.C,D232*
X97350000Y-115000000D03*
X99850000Y-115000000D03*
X99850000Y-113600000D03*
X97350000Y-113600000D03*
G04 #@! TD*
G04 #@! TO.C,D233*
X103350000Y-115000000D03*
X105850000Y-115000000D03*
X105850000Y-113600000D03*
X103350000Y-113600000D03*
G04 #@! TD*
G04 #@! TO.C,D234*
X109350000Y-115000000D03*
X111850000Y-115000000D03*
X111850000Y-113600000D03*
X109350000Y-113600000D03*
G04 #@! TD*
G04 #@! TO.C,D235*
X115350000Y-115000000D03*
X117850000Y-115000000D03*
X117850000Y-113600000D03*
X115350000Y-113600000D03*
G04 #@! TD*
G04 #@! TO.C,D236*
X121350000Y-115000000D03*
X123850000Y-115000000D03*
X123850000Y-113600000D03*
X121350000Y-113600000D03*
G04 #@! TD*
G04 #@! TO.C,D237*
X127350000Y-115000000D03*
X129850000Y-115000000D03*
X129850000Y-113600000D03*
X127350000Y-113600000D03*
G04 #@! TD*
G04 #@! TO.C,D238*
X133350000Y-115000000D03*
X135850000Y-115000000D03*
X135850000Y-113600000D03*
X133350000Y-113600000D03*
G04 #@! TD*
G04 #@! TO.C,D239*
X139350000Y-115000000D03*
X141850000Y-115000000D03*
X141850000Y-113600000D03*
X139350000Y-113600000D03*
G04 #@! TD*
G04 #@! TO.C,D240*
X145350000Y-115000000D03*
X147850000Y-115000000D03*
X147850000Y-113600000D03*
X145350000Y-113600000D03*
G04 #@! TD*
G04 #@! TO.C,D241*
X151350000Y-115000000D03*
X153850000Y-115000000D03*
X153850000Y-113600000D03*
X151350000Y-113600000D03*
G04 #@! TD*
G04 #@! TO.C,D242*
X157350000Y-115000000D03*
X159850000Y-115000000D03*
X159850000Y-113600000D03*
X157350000Y-113600000D03*
G04 #@! TD*
G04 #@! TO.C,D243*
X163350000Y-115000000D03*
X165850000Y-115000000D03*
X165850000Y-113600000D03*
X163350000Y-113600000D03*
G04 #@! TD*
G04 #@! TO.C,D244*
X169350000Y-115000000D03*
X171850000Y-115000000D03*
X171850000Y-113600000D03*
X169350000Y-113600000D03*
G04 #@! TD*
G04 #@! TO.C,D245*
X175350000Y-115000000D03*
X177850000Y-115000000D03*
X177850000Y-113600000D03*
X175350000Y-113600000D03*
G04 #@! TD*
G04 #@! TO.C,D246*
X181350000Y-115000000D03*
X183850000Y-115000000D03*
X183850000Y-113600000D03*
X181350000Y-113600000D03*
G04 #@! TD*
G04 #@! TO.C,D247*
X187350000Y-115000000D03*
X189850000Y-115000000D03*
X189850000Y-113600000D03*
X187350000Y-113600000D03*
G04 #@! TD*
G04 #@! TO.C,D248*
X193350000Y-115000000D03*
X195850000Y-115000000D03*
X195850000Y-113600000D03*
X193350000Y-113600000D03*
G04 #@! TD*
G04 #@! TO.C,D249*
X199350000Y-115000000D03*
X201850000Y-115000000D03*
X201850000Y-113600000D03*
X199350000Y-113600000D03*
G04 #@! TD*
G04 #@! TO.C,D250*
X205350000Y-115000000D03*
X207850000Y-115000000D03*
X207850000Y-113600000D03*
X205350000Y-113600000D03*
G04 #@! TD*
G04 #@! TO.C,D251*
X211350000Y-115000000D03*
X213850000Y-115000000D03*
X213850000Y-113600000D03*
X211350000Y-113600000D03*
G04 #@! TD*
G04 #@! TO.C,D252*
X217350000Y-115000000D03*
X219850000Y-115000000D03*
X219850000Y-113600000D03*
X217350000Y-113600000D03*
G04 #@! TD*
G04 #@! TO.C,D253*
X223350000Y-115000000D03*
X225850000Y-115000000D03*
X225850000Y-113600000D03*
X223350000Y-113600000D03*
G04 #@! TD*
G04 #@! TO.C,D254*
X229350000Y-115000000D03*
X231850000Y-115000000D03*
X231850000Y-113600000D03*
X229350000Y-113600000D03*
G04 #@! TD*
G04 #@! TO.C,D255*
X235350000Y-115000000D03*
X237850000Y-115000000D03*
X237850000Y-113600000D03*
X235350000Y-113600000D03*
G04 #@! TD*
G04 #@! TO.C,D256*
X241350000Y-115000000D03*
X243850000Y-115000000D03*
X243850000Y-113600000D03*
X241350000Y-113600000D03*
G04 #@! TD*
M02*
