M48
;DRILL file {KiCad (5.0.1-3-g963ef8bb5)} date 2019 June 17, Monday 09:36:18
;FORMAT={-:-/ absolute / metric / decimal}
FMAT,2
METRIC,TZ
T1C0.200
T2C0.300
T3C0.450
%
G90
G05
M71
T1
X54.6Y-114.3
X56.175Y-114.275
X56.593Y-96.55
X56.7Y-98.15
X56.9Y-70.9
X58.2Y-89.
X58.35Y-77.2
X58.35Y-83.2
X58.35Y-95.2
X58.35Y-101.2
X58.825Y-107.05
X59.6Y-74.8
X60.6Y-114.3
X61.625Y-106.3
X63.3Y-97.55
X64.Y-94.1
X64.2Y-88.
X64.3Y-77.2
X64.3Y-89.2
X64.3Y-101.2
X64.4Y-107.4
X64.6Y-82.9
X65.5Y-95.
X66.602Y-114.302
X67.425Y-105.95
X69.3Y-97.3
X69.6Y-94.4
X69.8Y-82.9
X70.35Y-77.2
X70.35Y-89.2
X70.35Y-101.2
X70.35Y-107.2
X70.5Y-87.8
X71.1Y-96.
X72.6Y-113.3
X73.35Y-105.65
X75.3Y-97.
X75.9Y-70.7
X76.3Y-77.2
X76.3Y-83.2
X76.3Y-95.2
X76.3Y-101.2
X76.3Y-107.2
X76.6Y-89.2
X77.5Y-96.
X78.6Y-113.3
X79.35Y-105.35
X81.45Y-96.7
X81.5Y-82.5
X82.Y-70.7
X82.345Y-83.214
X82.35Y-77.2
X82.35Y-89.2
X82.35Y-95.2
X82.35Y-101.2
X82.35Y-107.2
X82.5Y-86.
X82.575Y-84.3
X82.6Y-70.3
X82.782Y-83.728
X82.8Y-72.9
X82.9Y-73.4
X83.Y-79.4
X83.Y-88.1
X83.1Y-74.85
X83.1Y-75.65
X83.1Y-84.9
X83.2Y-70.1
X83.3Y-103.6
X83.4Y-72.9
X83.4Y-112.215
X83.5Y-73.4
X83.9Y-70.1
X84.Y-73.2
X84.1Y-74.15
X84.6Y-113.3
X84.8Y-70.1
X85.35Y-105.05
X85.7Y-70.1
X86.2Y-72.3
X86.3Y-73.
X86.7Y-95.95
X88.3Y-89.2
X88.3Y-95.2
X88.3Y-101.2
X88.3Y-107.2
X88.55Y-88.1
X89.5Y-74.95
X89.5Y-76.15
X89.9Y-74.3
X89.939Y-84.212
X89.95Y-77.15
X89.95Y-83.15
X90.Y-82.5
X90.025Y-85.
X90.35Y-83.775
X90.6Y-113.3
X91.35Y-104.6
X92.7Y-95.95
X94.35Y-77.2
X94.35Y-83.2
X94.35Y-95.2
X94.35Y-101.2
X94.35Y-107.2
X94.6Y-89.95
X95.2Y-102.
X95.4Y-75.2
X96.6Y-113.3
X97.35Y-104.25
X98.7Y-95.725
X100.3Y-83.2
X100.3Y-95.2
X100.3Y-101.2
X100.3Y-107.2
X100.4Y-89.95
X100.9Y-77.6
X101.8Y-72.9
X102.525Y-110.3
X103.35Y-99.7
X104.975Y-89.95
X106.35Y-89.2
X106.35Y-95.2
X106.35Y-101.2
X106.35Y-107.2
X106.9Y-83.2
X106.9Y-87.3
X107.2Y-77.2
X108.Y-93.5
X108.525Y-110.8
X109.35Y-99.1
X111.Y-91.85
X112.3Y-77.2
X112.3Y-83.35
X112.3Y-89.2
X112.3Y-95.2
X112.3Y-101.2
X112.3Y-107.2
X113.Y-78.45
X113.Y-84.7
X113.4Y-102.6
X113.7Y-73.7
X113.7Y-78.9
X113.7Y-84.3
X114.1Y-113.3
X114.2Y-77.9
X114.2Y-83.9
X114.35Y-95.825
X114.434Y-89.865
X114.525Y-111.3
X115.142Y-100.5
X115.7Y-99.7
X116.Y-73.75
X116.Y-80.8
X116.082Y-104.25
X116.1Y-109.8
X116.118Y-110.418
X116.13Y-93.954
X116.264Y-91.906
X116.518Y-103.838
X116.646Y-98.646
X117.2Y-110.379
X117.2Y-112.28
X117.358Y-94.715
X117.4Y-91.6
X117.4Y-100.575
X117.4Y-104.
X117.499Y-94.115
X117.5Y-112.8
X118.Y-91.775
X118.Y-104.
X118.097Y-98.699
X118.1Y-109.8
X118.1Y-112.8
X118.35Y-101.2
X118.35Y-77.2
X118.35Y-83.35
X118.35Y-89.2
X118.63Y-105.65
X118.675Y-94.693
X118.7Y-91.6
X118.7Y-98.7
X118.701Y-113.027
X118.8Y-73.75
X118.825Y-109.8
X119.1Y-79.35
X119.1Y-81.8
X119.2Y-100.6
X119.266Y-105.766
X119.3Y-91.6
X119.3Y-96.9
X119.3Y-113.
X119.425Y-109.8
X119.6Y-94.6
X119.623Y-82.55
X119.8Y-102.8
X119.885Y-100.631
X119.885Y-114.891
X119.9Y-96.9
X119.9Y-98.2
X119.916Y-105.752
X119.989Y-91.775
X120.Y-107.2
X120.025Y-109.8
X120.063Y-88.315
X120.1Y-82.95
X120.4Y-115.2
X120.444Y-100.852
X120.496Y-105.904
X120.5Y-112.779
X120.525Y-111.321
X120.9Y-92.3
X121.1Y-98.
X121.1Y-109.821
X121.2Y-104.
X121.444Y-100.8
X121.474Y-91.832
X121.8Y-106.4
X121.881Y-105.806
X122.Y-103.4
X122.1Y-98.2
X122.225Y-97.2
X122.225Y-115.128
X122.7Y-93.95
X123.9Y-107.2
X124.3Y-77.2
X124.3Y-83.35
X124.3Y-89.2
X124.3Y-95.2
X124.3Y-101.2
X126.024Y-97.3
X126.632Y-113.096
X127.35Y-98.6
X128.7Y-93.65
X130.Y-111.2
X130.35Y-77.2
X130.35Y-83.35
X130.35Y-89.2
X130.35Y-95.2
X130.35Y-101.2
X131.Y-90.4
X131.9Y-114.7
X132.653Y-112.762
X134.4Y-102.725
X134.7Y-93.35
X136.3Y-77.2
X136.3Y-83.35
X136.3Y-89.2
X136.3Y-95.2
X136.3Y-101.2
X136.3Y-107.2
X137.142Y-71.95
X137.3Y-90.2
X138.6Y-112.8
X140.175Y-102.275
X140.7Y-92.95
X142.35Y-77.2
X142.35Y-83.35
X142.35Y-89.2
X142.35Y-95.2
X142.35Y-101.2
X142.35Y-107.2
X142.7Y-91.8
X143.Y-85.1
X143.Y-72.8
X143.4Y-98.2
X143.4Y-106.3
X143.7Y-89.6
X144.025Y-92.
X144.6Y-112.8
X145.625Y-100.3
X145.85Y-80.3
X146.1Y-81.3
X146.1Y-87.
X146.1Y-92.
X146.4Y-79.8
X146.7Y-92.15
X147.6Y-92.4
X148.3Y-77.2
X148.3Y-83.35
X148.3Y-89.2
X148.3Y-95.2
X148.3Y-101.2
X148.3Y-107.2
X148.3Y-113.
X148.7Y-94.2
X149.Y-88.575
X149.6Y-83.9
X149.9Y-94.2
X150.2Y-88.575
X150.9Y-113.1
X151.425Y-106.1
X152.2Y-92.212
X153.35Y-97.5
X154.35Y-77.2
X154.35Y-83.35
X154.35Y-89.2
X154.35Y-95.2
X154.35Y-101.2
X154.35Y-107.2
X155.5Y-72.8
X155.5Y-85.1
X157.Y-113.2
X157.35Y-105.9
X159.2Y-97.65
X160.3Y-77.2
X160.3Y-83.35
X160.3Y-89.2
X160.3Y-95.2
X160.3Y-101.2
X160.3Y-107.2
X161.8Y-97.75
X162.8Y-113.2
X163.35Y-105.5
X164.Y-93.3
X165.5Y-97.35
X166.35Y-77.2
X166.35Y-83.35
X166.35Y-89.2
X166.35Y-95.2
X166.35Y-101.2
X166.35Y-107.2
X167.6Y-72.8
X167.6Y-85.1
X168.8Y-113.2
X169.35Y-105.2
X171.3Y-96.55
X172.3Y-77.2
X172.3Y-83.35
X172.3Y-95.2
X172.3Y-101.2
X172.3Y-107.2
X173.1Y-89.075
X173.7Y-93.7
X173.9Y-95.9
X174.7Y-113.2
X175.35Y-105.
X176.7Y-94.3
X178.35Y-77.2
X178.35Y-83.35
X178.35Y-89.2
X178.35Y-95.2
X178.35Y-101.2
X178.35Y-107.2
X179.5Y-72.8
X179.5Y-85.1
X180.8Y-113.2
X181.35Y-104.7
X182.7Y-93.8
X184.3Y-77.2
X184.3Y-83.35
X184.3Y-89.2
X184.3Y-95.2
X184.3Y-101.2
X184.3Y-107.2
X187.35Y-104.4
X187.35Y-112.95
X188.7Y-95.95
X190.35Y-77.2
X190.35Y-83.35
X190.35Y-89.2
X190.35Y-95.2
X190.35Y-101.2
X190.35Y-107.2
X191.5Y-72.8
X191.5Y-85.1
X192.8Y-113.6
X193.35Y-104.1
X194.9Y-96.15
X196.3Y-77.2
X196.3Y-83.35
X196.3Y-89.2
X196.3Y-95.2
X196.3Y-101.2
X196.3Y-107.2
X196.7Y-92.95
X198.65Y-108.2
X199.35Y-99.1
X201.3Y-91.3
X202.35Y-77.2
X202.35Y-83.35
X202.35Y-89.2
X202.35Y-95.2
X202.35Y-101.2
X202.35Y-107.2
X203.6Y-72.8
X203.6Y-85.1
X204.785Y-108.05
X205.35Y-98.95
X206.95Y-91.9
X208.3Y-77.2
X208.3Y-83.35
X208.3Y-89.2
X208.3Y-95.2
X208.3Y-101.2
X208.9Y-110.1
X209.9Y-98.95
X210.525Y-110.3
X211.35Y-98.95
X214.35Y-77.2
X214.35Y-83.35
X214.35Y-89.2
X214.35Y-95.2
X214.35Y-101.2
X214.35Y-107.2
X215.7Y-95.6
X215.8Y-99.4
X215.9Y-100.
X216.Y-81.8
X216.Y-90.4
X216.025Y-91.1
X216.025Y-92.
X216.025Y-93.83
X216.025Y-97.45
X216.025Y-104.2
X216.025Y-108.9
X216.026Y-96.296
X216.171Y-107.971
X216.2Y-113.75
X216.525Y-110.8
X216.596Y-112.904
X218.182Y-103.753
X218.19Y-112.168
X218.225Y-102.143
X218.226Y-103.154
X218.3Y-110.2
X218.323Y-98.95
X218.6Y-72.1
X219.Y-92.
X219.Y-109.9
X219.1Y-94.
X219.2Y-112.021
X219.204Y-103.904
X219.5Y-94.8
X219.6Y-93.4
X219.6Y-100.575
X219.6Y-104.9
X219.6Y-112.825
X219.7Y-92.1
X219.973Y-110.401
X220.2Y-112.825
X220.2Y-74.8
X220.3Y-77.2
X220.3Y-83.35
X220.3Y-89.2
X220.3Y-100.575
X220.3Y-104.2
X220.3Y-107.2
X220.334Y-92.099
X220.37Y-109.95
X220.5Y-101.4
X220.6Y-76.1
X220.8Y-95.125
X220.9Y-91.8
X220.9Y-97.1
X220.9Y-98.9
X220.9Y-104.2
X220.9Y-113.5
X220.95Y-109.784
X221.1Y-102.
X221.2Y-84.1
X221.4Y-107.725
X221.436Y-98.112
X221.5Y-97.2
X221.5Y-104.1
X221.5Y-113.4
X221.572Y-98.988
X221.6Y-91.8
X221.6Y-109.9
X221.8Y-83.825
X222.Y-103.2
X222.025Y-98.
X222.085Y-106.362
X222.171Y-89.971
X222.192Y-113.499
X222.483Y-95.125
X222.509Y-112.985
X222.525Y-112.125
X223.625Y-106.3
X224.5Y-71.8
X224.7Y-93.75
X225.5Y-70.3
X226.35Y-77.2
X226.35Y-83.2
X226.35Y-89.2
X226.35Y-95.2
X226.35Y-101.2
X226.35Y-107.2
X226.5Y-70.3
X226.6Y-80.8
X226.725Y-79.35
X227.Y-73.
X227.077Y-72.077
X227.5Y-72.7
X227.527Y-71.627
X227.532Y-70.125
X227.9Y-73.1
X228.Y-72.
X228.5Y-70.125
X228.525Y-111.65
X229.35Y-103.75
X229.5Y-70.125
X230.3Y-71.8
X230.7Y-93.3
X231.5Y-88.5
X231.9Y-94.7
X232.3Y-77.2
X232.3Y-83.2
X232.3Y-107.2
X233.Y-100.
X233.Y-102.
X233.5Y-88.2
X233.5Y-112.
X234.Y-113.
X234.525Y-111.2
X235.9Y-103.3
X236.7Y-92.8
X238.35Y-83.2
X238.35Y-89.2
X238.35Y-95.2
X238.35Y-101.2
X238.35Y-107.2
X239.Y-109.5
X239.1Y-78.5
X240.525Y-110.7
X242.175Y-102.275
X243.25Y-92.3
X244.3Y-77.2
X244.3Y-83.2
X244.3Y-89.2
X244.3Y-95.2
X244.3Y-101.2
X244.3Y-107.2
T2
X71.8Y-72.9
X76.3Y-75.
X77.6Y-75.6
X80.7Y-72.3
T3
X57.525Y-92.558
X58.3Y-111.7
X59.622Y-71.922
X64.3Y-81.6
X64.4Y-99.4
X65.05Y-90.6
X65.9Y-113.6
X70.1Y-99.3
X70.4Y-81.5
X71.039Y-109.525
X71.3Y-90.5
X77.5Y-90.5
X83.5Y-72.1
X101.4Y-99.2
X101.5Y-86.3
X101.722Y-71.722
X106.35Y-99.3
X112.3Y-111.7
X117.9Y-87.4
X124.Y-99.5
X124.1Y-104.9
X124.993Y-90.277
X125.4Y-96.2
X125.7Y-113.5
X125.718Y-104.005
X125.9Y-107.4
X130.22Y-105.525
X131.6Y-99.4
X131.8Y-113.2
X135.7Y-104.8
X135.7Y-111.2
X136.1Y-93.65
X142.75Y-88.
X152.023Y-86.679
X154.5Y-93.9
X159.7Y-87.9
X182.1Y-87.6
X191.6Y-90.9
X224.617Y-109.033
X225.525Y-99.9
X226.3Y-92.1
X227.7Y-97.8
T0
M30
