G04 #@! TF.GenerationSoftware,KiCad,Pcbnew,(5.0.1-3-g963ef8bb5)*
G04 #@! TF.CreationDate,2019-06-17T09:36:16+02:00*
G04 #@! TF.ProjectId,cz19-badge,637A31392D62616467652E6B69636164,rev?*
G04 #@! TF.SameCoordinates,Original*
G04 #@! TF.FileFunction,Soldermask,Bot*
G04 #@! TF.FilePolarity,Negative*
%FSLAX46Y46*%
G04 Gerber Fmt 4.6, Leading zero omitted, Abs format (unit mm)*
G04 Created by KiCad (PCBNEW (5.0.1-3-g963ef8bb5)) date 2019 June 17, Monday 09:36:16*
%MOMM*%
%LPD*%
G01*
G04 APERTURE LIST*
%ADD10C,0.100000*%
G04 APERTURE END LIST*
D10*
G36*
X224348500Y-115158194D02*
X216851500Y-115158194D01*
X216851500Y-113456194D01*
X224348500Y-113456194D01*
X224348500Y-115158194D01*
X224348500Y-115158194D01*
G37*
G36*
X243571000Y-115091000D02*
X240469000Y-115091000D01*
X240469000Y-113989000D01*
X243571000Y-113989000D01*
X243571000Y-115091000D01*
X243571000Y-115091000D01*
G37*
G36*
X238531000Y-115091000D02*
X235429000Y-115091000D01*
X235429000Y-113989000D01*
X238531000Y-113989000D01*
X238531000Y-115091000D01*
X238531000Y-115091000D01*
G37*
G36*
X61979591Y-113903085D02*
X62013569Y-113913393D01*
X62044887Y-113930133D01*
X62072339Y-113952661D01*
X62094867Y-113980113D01*
X62111607Y-114011431D01*
X62121915Y-114045409D01*
X62126000Y-114086890D01*
X62126000Y-114688110D01*
X62121915Y-114729591D01*
X62111607Y-114763569D01*
X62094867Y-114794887D01*
X62072339Y-114822339D01*
X62044887Y-114844867D01*
X62013569Y-114861607D01*
X61979591Y-114871915D01*
X61938110Y-114876000D01*
X61261890Y-114876000D01*
X61220409Y-114871915D01*
X61186431Y-114861607D01*
X61155113Y-114844867D01*
X61127661Y-114822339D01*
X61105133Y-114794887D01*
X61088393Y-114763569D01*
X61078085Y-114729591D01*
X61074000Y-114688110D01*
X61074000Y-114086890D01*
X61078085Y-114045409D01*
X61088393Y-114011431D01*
X61105133Y-113980113D01*
X61127661Y-113952661D01*
X61155113Y-113930133D01*
X61186431Y-113913393D01*
X61220409Y-113903085D01*
X61261890Y-113899000D01*
X61938110Y-113899000D01*
X61979591Y-113903085D01*
X61979591Y-113903085D01*
G37*
G36*
X123348500Y-114805300D02*
X115851500Y-114805300D01*
X115851500Y-113103300D01*
X123348500Y-113103300D01*
X123348500Y-114805300D01*
X123348500Y-114805300D01*
G37*
G36*
X70776000Y-114506000D02*
X69124000Y-114506000D01*
X69124000Y-113804000D01*
X70776000Y-113804000D01*
X70776000Y-114506000D01*
X70776000Y-114506000D01*
G37*
G36*
X65376000Y-114506000D02*
X63724000Y-114506000D01*
X63724000Y-113804000D01*
X65376000Y-113804000D01*
X65376000Y-114506000D01*
X65376000Y-114506000D01*
G37*
G36*
X68476000Y-113476000D02*
X66024000Y-113476000D01*
X66024000Y-111024000D01*
X68476000Y-111024000D01*
X68476000Y-113476000D01*
X68476000Y-113476000D01*
G37*
G36*
X61979591Y-112328085D02*
X62013569Y-112338393D01*
X62044887Y-112355133D01*
X62072339Y-112377661D01*
X62094867Y-112405113D01*
X62111607Y-112436431D01*
X62121915Y-112470409D01*
X62126000Y-112511890D01*
X62126000Y-113113110D01*
X62121915Y-113154591D01*
X62111607Y-113188569D01*
X62094867Y-113219887D01*
X62072339Y-113247339D01*
X62044887Y-113269867D01*
X62013569Y-113286607D01*
X61979591Y-113296915D01*
X61938110Y-113301000D01*
X61261890Y-113301000D01*
X61220409Y-113296915D01*
X61186431Y-113286607D01*
X61155113Y-113269867D01*
X61127661Y-113247339D01*
X61105133Y-113219887D01*
X61088393Y-113188569D01*
X61078085Y-113154591D01*
X61074000Y-113113110D01*
X61074000Y-112511890D01*
X61078085Y-112470409D01*
X61088393Y-112436431D01*
X61105133Y-112405113D01*
X61127661Y-112377661D01*
X61155113Y-112355133D01*
X61186431Y-112338393D01*
X61220409Y-112328085D01*
X61261890Y-112324000D01*
X61938110Y-112324000D01*
X61979591Y-112328085D01*
X61979591Y-112328085D01*
G37*
G36*
X65376000Y-113236000D02*
X63724000Y-113236000D01*
X63724000Y-112534000D01*
X65376000Y-112534000D01*
X65376000Y-113236000D01*
X65376000Y-113236000D01*
G37*
G36*
X70776000Y-113236000D02*
X69124000Y-113236000D01*
X69124000Y-112534000D01*
X70776000Y-112534000D01*
X70776000Y-113236000D01*
X70776000Y-113236000D01*
G37*
G36*
X56051000Y-105084000D02*
X56053402Y-105108386D01*
X56060515Y-105131835D01*
X56072066Y-105153446D01*
X56087612Y-105172388D01*
X56106554Y-105187934D01*
X56128165Y-105199485D01*
X56151614Y-105206598D01*
X56176000Y-105209000D01*
X58451000Y-105209000D01*
X58451000Y-111711000D01*
X56176000Y-111711000D01*
X56151614Y-111713402D01*
X56128165Y-111720515D01*
X56106554Y-111732066D01*
X56087612Y-111747612D01*
X56072066Y-111766554D01*
X56060515Y-111788165D01*
X56053402Y-111811614D01*
X56051000Y-111836000D01*
X56051000Y-112608500D01*
X54049000Y-112608500D01*
X54049000Y-108661500D01*
X56051000Y-108661500D01*
X56051000Y-110009000D01*
X56053402Y-110033386D01*
X56060515Y-110056835D01*
X56072066Y-110078446D01*
X56087612Y-110097388D01*
X56106554Y-110112934D01*
X56128165Y-110124485D01*
X56151614Y-110131598D01*
X56176000Y-110134000D01*
X56844000Y-110134000D01*
X56868386Y-110131598D01*
X56891835Y-110124485D01*
X56913446Y-110112934D01*
X56932388Y-110097388D01*
X56947934Y-110078446D01*
X56959485Y-110056835D01*
X56966598Y-110033386D01*
X56969000Y-110009000D01*
X56969000Y-106911000D01*
X56966598Y-106886614D01*
X56959485Y-106863165D01*
X56947934Y-106841554D01*
X56932388Y-106822612D01*
X56913446Y-106807066D01*
X56891835Y-106795515D01*
X56868386Y-106788402D01*
X56844000Y-106786000D01*
X56176000Y-106786000D01*
X56151614Y-106788402D01*
X56128165Y-106795515D01*
X56106554Y-106807066D01*
X56087612Y-106822612D01*
X56072066Y-106841554D01*
X56060515Y-106863165D01*
X56053402Y-106886614D01*
X56051000Y-106911000D01*
X56051000Y-108258500D01*
X54049000Y-108258500D01*
X54049000Y-104311500D01*
X56051000Y-104311500D01*
X56051000Y-105084000D01*
X56051000Y-105084000D01*
G37*
G36*
X127479591Y-111603085D02*
X127513569Y-111613393D01*
X127544887Y-111630133D01*
X127572339Y-111652661D01*
X127594867Y-111680113D01*
X127611607Y-111711431D01*
X127621915Y-111745409D01*
X127626000Y-111786890D01*
X127626000Y-112388110D01*
X127621915Y-112429591D01*
X127611607Y-112463569D01*
X127594867Y-112494887D01*
X127572339Y-112522339D01*
X127544887Y-112544867D01*
X127513569Y-112561607D01*
X127479591Y-112571915D01*
X127438110Y-112576000D01*
X126761890Y-112576000D01*
X126720409Y-112571915D01*
X126686431Y-112561607D01*
X126655113Y-112544867D01*
X126627661Y-112522339D01*
X126605133Y-112494887D01*
X126588393Y-112463569D01*
X126578085Y-112429591D01*
X126574000Y-112388110D01*
X126574000Y-111786890D01*
X126578085Y-111745409D01*
X126588393Y-111711431D01*
X126605133Y-111680113D01*
X126627661Y-111652661D01*
X126655113Y-111630133D01*
X126686431Y-111613393D01*
X126720409Y-111603085D01*
X126761890Y-111599000D01*
X127438110Y-111599000D01*
X127479591Y-111603085D01*
X127479591Y-111603085D01*
G37*
G36*
X238531000Y-112551000D02*
X235429000Y-112551000D01*
X235429000Y-111449000D01*
X238531000Y-111449000D01*
X238531000Y-112551000D01*
X238531000Y-112551000D01*
G37*
G36*
X243571000Y-112551000D02*
X240469000Y-112551000D01*
X240469000Y-111449000D01*
X243571000Y-111449000D01*
X243571000Y-112551000D01*
X243571000Y-112551000D01*
G37*
G36*
X70776000Y-111966000D02*
X69124000Y-111966000D01*
X69124000Y-111264000D01*
X70776000Y-111264000D01*
X70776000Y-111966000D01*
X70776000Y-111966000D01*
G37*
G36*
X65376000Y-111966000D02*
X63724000Y-111966000D01*
X63724000Y-111264000D01*
X65376000Y-111264000D01*
X65376000Y-111966000D01*
X65376000Y-111966000D01*
G37*
G36*
X127479591Y-110028085D02*
X127513569Y-110038393D01*
X127544887Y-110055133D01*
X127572339Y-110077661D01*
X127594867Y-110105113D01*
X127611607Y-110136431D01*
X127621915Y-110170409D01*
X127626000Y-110211890D01*
X127626000Y-110813110D01*
X127621915Y-110854591D01*
X127611607Y-110888569D01*
X127594867Y-110919887D01*
X127572339Y-110947339D01*
X127544887Y-110969867D01*
X127513569Y-110986607D01*
X127479591Y-110996915D01*
X127438110Y-111001000D01*
X126761890Y-111001000D01*
X126720409Y-110996915D01*
X126686431Y-110986607D01*
X126655113Y-110969867D01*
X126627661Y-110947339D01*
X126605133Y-110919887D01*
X126588393Y-110888569D01*
X126578085Y-110854591D01*
X126574000Y-110813110D01*
X126574000Y-110211890D01*
X126578085Y-110170409D01*
X126588393Y-110136431D01*
X126605133Y-110105113D01*
X126627661Y-110077661D01*
X126655113Y-110055133D01*
X126686431Y-110038393D01*
X126720409Y-110028085D01*
X126761890Y-110024000D01*
X127438110Y-110024000D01*
X127479591Y-110028085D01*
X127479591Y-110028085D01*
G37*
G36*
X65376000Y-110696000D02*
X63724000Y-110696000D01*
X63724000Y-109994000D01*
X65376000Y-109994000D01*
X65376000Y-110696000D01*
X65376000Y-110696000D01*
G37*
G36*
X70776000Y-110696000D02*
X69124000Y-110696000D01*
X69124000Y-109994000D01*
X70776000Y-109994000D01*
X70776000Y-110696000D01*
X70776000Y-110696000D01*
G37*
G36*
X80579591Y-109203085D02*
X80613569Y-109213393D01*
X80644887Y-109230133D01*
X80672339Y-109252661D01*
X80694867Y-109280113D01*
X80711607Y-109311431D01*
X80721915Y-109345409D01*
X80726000Y-109386890D01*
X80726000Y-109988110D01*
X80721915Y-110029591D01*
X80711607Y-110063569D01*
X80694867Y-110094887D01*
X80672339Y-110122339D01*
X80644887Y-110144867D01*
X80613569Y-110161607D01*
X80579591Y-110171915D01*
X80538110Y-110176000D01*
X79861890Y-110176000D01*
X79820409Y-110171915D01*
X79786431Y-110161607D01*
X79755113Y-110144867D01*
X79727661Y-110122339D01*
X79705133Y-110094887D01*
X79688393Y-110063569D01*
X79678085Y-110029591D01*
X79674000Y-109988110D01*
X79674000Y-109386890D01*
X79678085Y-109345409D01*
X79688393Y-109311431D01*
X79705133Y-109280113D01*
X79727661Y-109252661D01*
X79755113Y-109230133D01*
X79786431Y-109213393D01*
X79820409Y-109203085D01*
X79861890Y-109199000D01*
X80538110Y-109199000D01*
X80579591Y-109203085D01*
X80579591Y-109203085D01*
G37*
G36*
X83879591Y-109203085D02*
X83913569Y-109213393D01*
X83944887Y-109230133D01*
X83972339Y-109252661D01*
X83994867Y-109280113D01*
X84011607Y-109311431D01*
X84021915Y-109345409D01*
X84026000Y-109386890D01*
X84026000Y-109988110D01*
X84021915Y-110029591D01*
X84011607Y-110063569D01*
X83994867Y-110094887D01*
X83972339Y-110122339D01*
X83944887Y-110144867D01*
X83913569Y-110161607D01*
X83879591Y-110171915D01*
X83838110Y-110176000D01*
X83161890Y-110176000D01*
X83120409Y-110171915D01*
X83086431Y-110161607D01*
X83055113Y-110144867D01*
X83027661Y-110122339D01*
X83005133Y-110094887D01*
X82988393Y-110063569D01*
X82978085Y-110029591D01*
X82974000Y-109988110D01*
X82974000Y-109386890D01*
X82978085Y-109345409D01*
X82988393Y-109311431D01*
X83005133Y-109280113D01*
X83027661Y-109252661D01*
X83055113Y-109230133D01*
X83086431Y-109213393D01*
X83120409Y-109203085D01*
X83161890Y-109199000D01*
X83838110Y-109199000D01*
X83879591Y-109203085D01*
X83879591Y-109203085D01*
G37*
G36*
X79079591Y-109203085D02*
X79113569Y-109213393D01*
X79144887Y-109230133D01*
X79172339Y-109252661D01*
X79194867Y-109280113D01*
X79211607Y-109311431D01*
X79221915Y-109345409D01*
X79226000Y-109386890D01*
X79226000Y-109988110D01*
X79221915Y-110029591D01*
X79211607Y-110063569D01*
X79194867Y-110094887D01*
X79172339Y-110122339D01*
X79144887Y-110144867D01*
X79113569Y-110161607D01*
X79079591Y-110171915D01*
X79038110Y-110176000D01*
X78361890Y-110176000D01*
X78320409Y-110171915D01*
X78286431Y-110161607D01*
X78255113Y-110144867D01*
X78227661Y-110122339D01*
X78205133Y-110094887D01*
X78188393Y-110063569D01*
X78178085Y-110029591D01*
X78174000Y-109988110D01*
X78174000Y-109386890D01*
X78178085Y-109345409D01*
X78188393Y-109311431D01*
X78205133Y-109280113D01*
X78227661Y-109252661D01*
X78255113Y-109230133D01*
X78286431Y-109213393D01*
X78320409Y-109203085D01*
X78361890Y-109199000D01*
X79038110Y-109199000D01*
X79079591Y-109203085D01*
X79079591Y-109203085D01*
G37*
G36*
X85379591Y-109203085D02*
X85413569Y-109213393D01*
X85444887Y-109230133D01*
X85472339Y-109252661D01*
X85494867Y-109280113D01*
X85511607Y-109311431D01*
X85521915Y-109345409D01*
X85526000Y-109386890D01*
X85526000Y-109988110D01*
X85521915Y-110029591D01*
X85511607Y-110063569D01*
X85494867Y-110094887D01*
X85472339Y-110122339D01*
X85444887Y-110144867D01*
X85413569Y-110161607D01*
X85379591Y-110171915D01*
X85338110Y-110176000D01*
X84661890Y-110176000D01*
X84620409Y-110171915D01*
X84586431Y-110161607D01*
X84555113Y-110144867D01*
X84527661Y-110122339D01*
X84505133Y-110094887D01*
X84488393Y-110063569D01*
X84478085Y-110029591D01*
X84474000Y-109988110D01*
X84474000Y-109386890D01*
X84478085Y-109345409D01*
X84488393Y-109311431D01*
X84505133Y-109280113D01*
X84527661Y-109252661D01*
X84555113Y-109230133D01*
X84586431Y-109213393D01*
X84620409Y-109203085D01*
X84661890Y-109199000D01*
X85338110Y-109199000D01*
X85379591Y-109203085D01*
X85379591Y-109203085D01*
G37*
G36*
X137345845Y-109119215D02*
X137436839Y-109156906D01*
X137505950Y-109203085D01*
X137518734Y-109211627D01*
X137588373Y-109281266D01*
X137643095Y-109363163D01*
X137676268Y-109443250D01*
X137680785Y-109454155D01*
X137699024Y-109545845D01*
X137700000Y-109550755D01*
X137700000Y-109649245D01*
X137680785Y-109745845D01*
X137663169Y-109788375D01*
X137643094Y-109836839D01*
X137638914Y-109843095D01*
X137588373Y-109918734D01*
X137518734Y-109988373D01*
X137518731Y-109988375D01*
X137436839Y-110043094D01*
X137436838Y-110043095D01*
X137436837Y-110043095D01*
X137378043Y-110067448D01*
X137345845Y-110080785D01*
X137249246Y-110100000D01*
X137150754Y-110100000D01*
X137054155Y-110080785D01*
X137021957Y-110067448D01*
X136963163Y-110043095D01*
X136963162Y-110043095D01*
X136963161Y-110043094D01*
X136881269Y-109988375D01*
X136881266Y-109988373D01*
X136811627Y-109918734D01*
X136761086Y-109843095D01*
X136756906Y-109836839D01*
X136736832Y-109788375D01*
X136719215Y-109745845D01*
X136700000Y-109649245D01*
X136700000Y-109550755D01*
X136700977Y-109545845D01*
X136719215Y-109454155D01*
X136723732Y-109443250D01*
X136756905Y-109363163D01*
X136811627Y-109281266D01*
X136881266Y-109211627D01*
X136894050Y-109203085D01*
X136963161Y-109156906D01*
X137054155Y-109119215D01*
X137150754Y-109100000D01*
X137249246Y-109100000D01*
X137345845Y-109119215D01*
X137345845Y-109119215D01*
G37*
G36*
X243571000Y-110011000D02*
X240469000Y-110011000D01*
X240469000Y-108909000D01*
X243571000Y-108909000D01*
X243571000Y-110011000D01*
X243571000Y-110011000D01*
G37*
G36*
X238531000Y-110011000D02*
X235429000Y-110011000D01*
X235429000Y-108909000D01*
X238531000Y-108909000D01*
X238531000Y-110011000D01*
X238531000Y-110011000D01*
G37*
G36*
X202245845Y-108919215D02*
X202336839Y-108956906D01*
X202417640Y-109010896D01*
X202418734Y-109011627D01*
X202488373Y-109081266D01*
X202488375Y-109081269D01*
X202538915Y-109156906D01*
X202543095Y-109163163D01*
X202563169Y-109211627D01*
X202580785Y-109254155D01*
X202600000Y-109350754D01*
X202600000Y-109449246D01*
X202590925Y-109494867D01*
X202580785Y-109545845D01*
X202543095Y-109636837D01*
X202488373Y-109718734D01*
X202418734Y-109788373D01*
X202418731Y-109788375D01*
X202336839Y-109843094D01*
X202245845Y-109880785D01*
X202149246Y-109900000D01*
X202050754Y-109900000D01*
X201954155Y-109880785D01*
X201863161Y-109843094D01*
X201781269Y-109788375D01*
X201781266Y-109788373D01*
X201711627Y-109718734D01*
X201656905Y-109636837D01*
X201619215Y-109545845D01*
X201609075Y-109494867D01*
X201600000Y-109449246D01*
X201600000Y-109350754D01*
X201619215Y-109254155D01*
X201636831Y-109211627D01*
X201656905Y-109163163D01*
X201661086Y-109156906D01*
X201711625Y-109081269D01*
X201711627Y-109081266D01*
X201781266Y-109011627D01*
X201782360Y-109010896D01*
X201863161Y-108956906D01*
X201954155Y-108919215D01*
X202050754Y-108900000D01*
X202149246Y-108900000D01*
X202245845Y-108919215D01*
X202245845Y-108919215D01*
G37*
G36*
X224348500Y-109849594D02*
X216851500Y-109849594D01*
X216851500Y-108147594D01*
X224348500Y-108147594D01*
X224348500Y-109849594D01*
X224348500Y-109849594D01*
G37*
G36*
X227854591Y-108478085D02*
X227888569Y-108488393D01*
X227919887Y-108505133D01*
X227947339Y-108527661D01*
X227969867Y-108555113D01*
X227986607Y-108586431D01*
X227996915Y-108620409D01*
X228001000Y-108661890D01*
X228001000Y-109338110D01*
X227996915Y-109379591D01*
X227986607Y-109413569D01*
X227969867Y-109444887D01*
X227947339Y-109472339D01*
X227919887Y-109494867D01*
X227888569Y-109511607D01*
X227854591Y-109521915D01*
X227813110Y-109526000D01*
X227211890Y-109526000D01*
X227170409Y-109521915D01*
X227136431Y-109511607D01*
X227105113Y-109494867D01*
X227077661Y-109472339D01*
X227055133Y-109444887D01*
X227038393Y-109413569D01*
X227028085Y-109379591D01*
X227024000Y-109338110D01*
X227024000Y-108661890D01*
X227028085Y-108620409D01*
X227038393Y-108586431D01*
X227055133Y-108555113D01*
X227077661Y-108527661D01*
X227105113Y-108505133D01*
X227136431Y-108488393D01*
X227170409Y-108478085D01*
X227211890Y-108474000D01*
X227813110Y-108474000D01*
X227854591Y-108478085D01*
X227854591Y-108478085D01*
G37*
G36*
X229429591Y-108478085D02*
X229463569Y-108488393D01*
X229494887Y-108505133D01*
X229522339Y-108527661D01*
X229544867Y-108555113D01*
X229561607Y-108586431D01*
X229571915Y-108620409D01*
X229576000Y-108661890D01*
X229576000Y-109338110D01*
X229571915Y-109379591D01*
X229561607Y-109413569D01*
X229544867Y-109444887D01*
X229522339Y-109472339D01*
X229494887Y-109494867D01*
X229463569Y-109511607D01*
X229429591Y-109521915D01*
X229388110Y-109526000D01*
X228786890Y-109526000D01*
X228745409Y-109521915D01*
X228711431Y-109511607D01*
X228680113Y-109494867D01*
X228652661Y-109472339D01*
X228630133Y-109444887D01*
X228613393Y-109413569D01*
X228603085Y-109379591D01*
X228599000Y-109338110D01*
X228599000Y-108661890D01*
X228603085Y-108620409D01*
X228613393Y-108586431D01*
X228630133Y-108555113D01*
X228652661Y-108527661D01*
X228680113Y-108505133D01*
X228711431Y-108488393D01*
X228745409Y-108478085D01*
X228786890Y-108474000D01*
X229388110Y-108474000D01*
X229429591Y-108478085D01*
X229429591Y-108478085D01*
G37*
G36*
X123348500Y-109496700D02*
X115851500Y-109496700D01*
X115851500Y-107794700D01*
X123348500Y-107794700D01*
X123348500Y-109496700D01*
X123348500Y-109496700D01*
G37*
G36*
X212601000Y-109346000D02*
X205159000Y-109346000D01*
X205159000Y-102894000D01*
X212601000Y-102894000D01*
X212601000Y-109346000D01*
X212601000Y-109346000D01*
G37*
G36*
X133941000Y-109346000D02*
X126499000Y-109346000D01*
X126499000Y-102894000D01*
X133941000Y-102894000D01*
X133941000Y-109346000D01*
X133941000Y-109346000D01*
G37*
G36*
X80579591Y-107628085D02*
X80613569Y-107638393D01*
X80644887Y-107655133D01*
X80672339Y-107677661D01*
X80694867Y-107705113D01*
X80711607Y-107736431D01*
X80721915Y-107770409D01*
X80726000Y-107811890D01*
X80726000Y-108413110D01*
X80721915Y-108454591D01*
X80711607Y-108488569D01*
X80694867Y-108519887D01*
X80672339Y-108547339D01*
X80644887Y-108569867D01*
X80613569Y-108586607D01*
X80579591Y-108596915D01*
X80538110Y-108601000D01*
X79861890Y-108601000D01*
X79820409Y-108596915D01*
X79786431Y-108586607D01*
X79755113Y-108569867D01*
X79727661Y-108547339D01*
X79705133Y-108519887D01*
X79688393Y-108488569D01*
X79678085Y-108454591D01*
X79674000Y-108413110D01*
X79674000Y-107811890D01*
X79678085Y-107770409D01*
X79688393Y-107736431D01*
X79705133Y-107705113D01*
X79727661Y-107677661D01*
X79755113Y-107655133D01*
X79786431Y-107638393D01*
X79820409Y-107628085D01*
X79861890Y-107624000D01*
X80538110Y-107624000D01*
X80579591Y-107628085D01*
X80579591Y-107628085D01*
G37*
G36*
X79079591Y-107628085D02*
X79113569Y-107638393D01*
X79144887Y-107655133D01*
X79172339Y-107677661D01*
X79194867Y-107705113D01*
X79211607Y-107736431D01*
X79221915Y-107770409D01*
X79226000Y-107811890D01*
X79226000Y-108413110D01*
X79221915Y-108454591D01*
X79211607Y-108488569D01*
X79194867Y-108519887D01*
X79172339Y-108547339D01*
X79144887Y-108569867D01*
X79113569Y-108586607D01*
X79079591Y-108596915D01*
X79038110Y-108601000D01*
X78361890Y-108601000D01*
X78320409Y-108596915D01*
X78286431Y-108586607D01*
X78255113Y-108569867D01*
X78227661Y-108547339D01*
X78205133Y-108519887D01*
X78188393Y-108488569D01*
X78178085Y-108454591D01*
X78174000Y-108413110D01*
X78174000Y-107811890D01*
X78178085Y-107770409D01*
X78188393Y-107736431D01*
X78205133Y-107705113D01*
X78227661Y-107677661D01*
X78255113Y-107655133D01*
X78286431Y-107638393D01*
X78320409Y-107628085D01*
X78361890Y-107624000D01*
X79038110Y-107624000D01*
X79079591Y-107628085D01*
X79079591Y-107628085D01*
G37*
G36*
X83879591Y-107628085D02*
X83913569Y-107638393D01*
X83944887Y-107655133D01*
X83972339Y-107677661D01*
X83994867Y-107705113D01*
X84011607Y-107736431D01*
X84021915Y-107770409D01*
X84026000Y-107811890D01*
X84026000Y-108413110D01*
X84021915Y-108454591D01*
X84011607Y-108488569D01*
X83994867Y-108519887D01*
X83972339Y-108547339D01*
X83944887Y-108569867D01*
X83913569Y-108586607D01*
X83879591Y-108596915D01*
X83838110Y-108601000D01*
X83161890Y-108601000D01*
X83120409Y-108596915D01*
X83086431Y-108586607D01*
X83055113Y-108569867D01*
X83027661Y-108547339D01*
X83005133Y-108519887D01*
X82988393Y-108488569D01*
X82978085Y-108454591D01*
X82974000Y-108413110D01*
X82974000Y-107811890D01*
X82978085Y-107770409D01*
X82988393Y-107736431D01*
X83005133Y-107705113D01*
X83027661Y-107677661D01*
X83055113Y-107655133D01*
X83086431Y-107638393D01*
X83120409Y-107628085D01*
X83161890Y-107624000D01*
X83838110Y-107624000D01*
X83879591Y-107628085D01*
X83879591Y-107628085D01*
G37*
G36*
X85379591Y-107628085D02*
X85413569Y-107638393D01*
X85444887Y-107655133D01*
X85472339Y-107677661D01*
X85494867Y-107705113D01*
X85511607Y-107736431D01*
X85521915Y-107770409D01*
X85526000Y-107811890D01*
X85526000Y-108413110D01*
X85521915Y-108454591D01*
X85511607Y-108488569D01*
X85494867Y-108519887D01*
X85472339Y-108547339D01*
X85444887Y-108569867D01*
X85413569Y-108586607D01*
X85379591Y-108596915D01*
X85338110Y-108601000D01*
X84661890Y-108601000D01*
X84620409Y-108596915D01*
X84586431Y-108586607D01*
X84555113Y-108569867D01*
X84527661Y-108547339D01*
X84505133Y-108519887D01*
X84488393Y-108488569D01*
X84478085Y-108454591D01*
X84474000Y-108413110D01*
X84474000Y-107811890D01*
X84478085Y-107770409D01*
X84488393Y-107736431D01*
X84505133Y-107705113D01*
X84527661Y-107677661D01*
X84555113Y-107655133D01*
X84586431Y-107638393D01*
X84620409Y-107628085D01*
X84661890Y-107624000D01*
X85338110Y-107624000D01*
X85379591Y-107628085D01*
X85379591Y-107628085D01*
G37*
G36*
X224348500Y-105905300D02*
X216851500Y-105905300D01*
X216851500Y-104203300D01*
X224348500Y-104203300D01*
X224348500Y-105905300D01*
X224348500Y-105905300D01*
G37*
G36*
X123348500Y-105805300D02*
X115851500Y-105805300D01*
X115851500Y-104103300D01*
X123348500Y-104103300D01*
X123348500Y-105805300D01*
X123348500Y-105805300D01*
G37*
G36*
X82301000Y-104601000D02*
X81299000Y-104601000D01*
X81299000Y-103699000D01*
X82301000Y-103699000D01*
X82301000Y-104601000D01*
X82301000Y-104601000D01*
G37*
G36*
X76579591Y-103503085D02*
X76613569Y-103513393D01*
X76644887Y-103530133D01*
X76672339Y-103552661D01*
X76694867Y-103580113D01*
X76711607Y-103611431D01*
X76721915Y-103645409D01*
X76726000Y-103686890D01*
X76726000Y-104288110D01*
X76721915Y-104329591D01*
X76711607Y-104363569D01*
X76694867Y-104394887D01*
X76672339Y-104422339D01*
X76644887Y-104444867D01*
X76613569Y-104461607D01*
X76579591Y-104471915D01*
X76538110Y-104476000D01*
X75861890Y-104476000D01*
X75820409Y-104471915D01*
X75786431Y-104461607D01*
X75755113Y-104444867D01*
X75727661Y-104422339D01*
X75705133Y-104394887D01*
X75688393Y-104363569D01*
X75678085Y-104329591D01*
X75674000Y-104288110D01*
X75674000Y-103686890D01*
X75678085Y-103645409D01*
X75688393Y-103611431D01*
X75705133Y-103580113D01*
X75727661Y-103552661D01*
X75755113Y-103530133D01*
X75786431Y-103513393D01*
X75820409Y-103503085D01*
X75861890Y-103499000D01*
X76538110Y-103499000D01*
X76579591Y-103503085D01*
X76579591Y-103503085D01*
G37*
G36*
X79579591Y-103503085D02*
X79613569Y-103513393D01*
X79644887Y-103530133D01*
X79672339Y-103552661D01*
X79694867Y-103580113D01*
X79711607Y-103611431D01*
X79721915Y-103645409D01*
X79726000Y-103686890D01*
X79726000Y-104288110D01*
X79721915Y-104329591D01*
X79711607Y-104363569D01*
X79694867Y-104394887D01*
X79672339Y-104422339D01*
X79644887Y-104444867D01*
X79613569Y-104461607D01*
X79579591Y-104471915D01*
X79538110Y-104476000D01*
X78861890Y-104476000D01*
X78820409Y-104471915D01*
X78786431Y-104461607D01*
X78755113Y-104444867D01*
X78727661Y-104422339D01*
X78705133Y-104394887D01*
X78688393Y-104363569D01*
X78678085Y-104329591D01*
X78674000Y-104288110D01*
X78674000Y-103686890D01*
X78678085Y-103645409D01*
X78688393Y-103611431D01*
X78705133Y-103580113D01*
X78727661Y-103552661D01*
X78755113Y-103530133D01*
X78786431Y-103513393D01*
X78820409Y-103503085D01*
X78861890Y-103499000D01*
X79538110Y-103499000D01*
X79579591Y-103503085D01*
X79579591Y-103503085D01*
G37*
G36*
X78079591Y-103503085D02*
X78113569Y-103513393D01*
X78144887Y-103530133D01*
X78172339Y-103552661D01*
X78194867Y-103580113D01*
X78211607Y-103611431D01*
X78221915Y-103645409D01*
X78226000Y-103686890D01*
X78226000Y-104288110D01*
X78221915Y-104329591D01*
X78211607Y-104363569D01*
X78194867Y-104394887D01*
X78172339Y-104422339D01*
X78144887Y-104444867D01*
X78113569Y-104461607D01*
X78079591Y-104471915D01*
X78038110Y-104476000D01*
X77361890Y-104476000D01*
X77320409Y-104471915D01*
X77286431Y-104461607D01*
X77255113Y-104444867D01*
X77227661Y-104422339D01*
X77205133Y-104394887D01*
X77188393Y-104363569D01*
X77178085Y-104329591D01*
X77174000Y-104288110D01*
X77174000Y-103686890D01*
X77178085Y-103645409D01*
X77188393Y-103611431D01*
X77205133Y-103580113D01*
X77227661Y-103552661D01*
X77255113Y-103530133D01*
X77286431Y-103513393D01*
X77320409Y-103503085D01*
X77361890Y-103499000D01*
X78038110Y-103499000D01*
X78079591Y-103503085D01*
X78079591Y-103503085D01*
G37*
G36*
X233129591Y-103378085D02*
X233163569Y-103388393D01*
X233194887Y-103405133D01*
X233222339Y-103427661D01*
X233244867Y-103455113D01*
X233261607Y-103486431D01*
X233271915Y-103520409D01*
X233276000Y-103561890D01*
X233276000Y-104238110D01*
X233271915Y-104279591D01*
X233261607Y-104313569D01*
X233244867Y-104344887D01*
X233222339Y-104372339D01*
X233194887Y-104394867D01*
X233163569Y-104411607D01*
X233129591Y-104421915D01*
X233088110Y-104426000D01*
X232486890Y-104426000D01*
X232445409Y-104421915D01*
X232411431Y-104411607D01*
X232380113Y-104394867D01*
X232352661Y-104372339D01*
X232330133Y-104344887D01*
X232313393Y-104313569D01*
X232303085Y-104279591D01*
X232299000Y-104238110D01*
X232299000Y-103561890D01*
X232303085Y-103520409D01*
X232313393Y-103486431D01*
X232330133Y-103455113D01*
X232352661Y-103427661D01*
X232380113Y-103405133D01*
X232411431Y-103388393D01*
X232445409Y-103378085D01*
X232486890Y-103374000D01*
X233088110Y-103374000D01*
X233129591Y-103378085D01*
X233129591Y-103378085D01*
G37*
G36*
X231554591Y-103378085D02*
X231588569Y-103388393D01*
X231619887Y-103405133D01*
X231647339Y-103427661D01*
X231669867Y-103455113D01*
X231686607Y-103486431D01*
X231696915Y-103520409D01*
X231701000Y-103561890D01*
X231701000Y-104238110D01*
X231696915Y-104279591D01*
X231686607Y-104313569D01*
X231669867Y-104344887D01*
X231647339Y-104372339D01*
X231619887Y-104394867D01*
X231588569Y-104411607D01*
X231554591Y-104421915D01*
X231513110Y-104426000D01*
X230911890Y-104426000D01*
X230870409Y-104421915D01*
X230836431Y-104411607D01*
X230805113Y-104394867D01*
X230777661Y-104372339D01*
X230755133Y-104344887D01*
X230738393Y-104313569D01*
X230728085Y-104279591D01*
X230724000Y-104238110D01*
X230724000Y-103561890D01*
X230728085Y-103520409D01*
X230738393Y-103486431D01*
X230755133Y-103455113D01*
X230777661Y-103427661D01*
X230805113Y-103405133D01*
X230836431Y-103388393D01*
X230870409Y-103378085D01*
X230911890Y-103374000D01*
X231513110Y-103374000D01*
X231554591Y-103378085D01*
X231554591Y-103378085D01*
G37*
G36*
X72151000Y-103951000D02*
X70499000Y-103951000D01*
X70499000Y-102549000D01*
X72151000Y-102549000D01*
X72151000Y-103951000D01*
X72151000Y-103951000D01*
G37*
G36*
X64201000Y-103951000D02*
X62549000Y-103951000D01*
X62549000Y-102549000D01*
X64201000Y-102549000D01*
X64201000Y-103951000D01*
X64201000Y-103951000D01*
G37*
G36*
X84301000Y-103651000D02*
X83299000Y-103651000D01*
X83299000Y-102749000D01*
X84301000Y-102749000D01*
X84301000Y-103651000D01*
X84301000Y-103651000D01*
G37*
G36*
X91779591Y-102503085D02*
X91813569Y-102513393D01*
X91844887Y-102530133D01*
X91872339Y-102552661D01*
X91894867Y-102580113D01*
X91911607Y-102611431D01*
X91921915Y-102645409D01*
X91926000Y-102686890D01*
X91926000Y-103288110D01*
X91921915Y-103329591D01*
X91911607Y-103363569D01*
X91894867Y-103394887D01*
X91872339Y-103422339D01*
X91844887Y-103444867D01*
X91813569Y-103461607D01*
X91779591Y-103471915D01*
X91738110Y-103476000D01*
X91061890Y-103476000D01*
X91020409Y-103471915D01*
X90986431Y-103461607D01*
X90955113Y-103444867D01*
X90927661Y-103422339D01*
X90905133Y-103394887D01*
X90888393Y-103363569D01*
X90878085Y-103329591D01*
X90874000Y-103288110D01*
X90874000Y-102686890D01*
X90878085Y-102645409D01*
X90888393Y-102611431D01*
X90905133Y-102580113D01*
X90927661Y-102552661D01*
X90955113Y-102530133D01*
X90986431Y-102513393D01*
X91020409Y-102503085D01*
X91061890Y-102499000D01*
X91738110Y-102499000D01*
X91779591Y-102503085D01*
X91779591Y-102503085D01*
G37*
G36*
X90379591Y-102503085D02*
X90413569Y-102513393D01*
X90444887Y-102530133D01*
X90472339Y-102552661D01*
X90494867Y-102580113D01*
X90511607Y-102611431D01*
X90521915Y-102645409D01*
X90526000Y-102686890D01*
X90526000Y-103288110D01*
X90521915Y-103329591D01*
X90511607Y-103363569D01*
X90494867Y-103394887D01*
X90472339Y-103422339D01*
X90444887Y-103444867D01*
X90413569Y-103461607D01*
X90379591Y-103471915D01*
X90338110Y-103476000D01*
X89661890Y-103476000D01*
X89620409Y-103471915D01*
X89586431Y-103461607D01*
X89555113Y-103444867D01*
X89527661Y-103422339D01*
X89505133Y-103394887D01*
X89488393Y-103363569D01*
X89478085Y-103329591D01*
X89474000Y-103288110D01*
X89474000Y-102686890D01*
X89478085Y-102645409D01*
X89488393Y-102611431D01*
X89505133Y-102580113D01*
X89527661Y-102552661D01*
X89555113Y-102530133D01*
X89586431Y-102513393D01*
X89620409Y-102503085D01*
X89661890Y-102499000D01*
X90338110Y-102499000D01*
X90379591Y-102503085D01*
X90379591Y-102503085D01*
G37*
G36*
X93279591Y-102503085D02*
X93313569Y-102513393D01*
X93344887Y-102530133D01*
X93372339Y-102552661D01*
X93394867Y-102580113D01*
X93411607Y-102611431D01*
X93421915Y-102645409D01*
X93426000Y-102686890D01*
X93426000Y-103288110D01*
X93421915Y-103329591D01*
X93411607Y-103363569D01*
X93394867Y-103394887D01*
X93372339Y-103422339D01*
X93344887Y-103444867D01*
X93313569Y-103461607D01*
X93279591Y-103471915D01*
X93238110Y-103476000D01*
X92561890Y-103476000D01*
X92520409Y-103471915D01*
X92486431Y-103461607D01*
X92455113Y-103444867D01*
X92427661Y-103422339D01*
X92405133Y-103394887D01*
X92388393Y-103363569D01*
X92378085Y-103329591D01*
X92374000Y-103288110D01*
X92374000Y-102686890D01*
X92378085Y-102645409D01*
X92388393Y-102611431D01*
X92405133Y-102580113D01*
X92427661Y-102552661D01*
X92455113Y-102530133D01*
X92486431Y-102513393D01*
X92520409Y-102503085D01*
X92561890Y-102499000D01*
X93238110Y-102499000D01*
X93279591Y-102503085D01*
X93279591Y-102503085D01*
G37*
G36*
X107118604Y-102128347D02*
X107155145Y-102139432D01*
X107188820Y-102157431D01*
X107218341Y-102181659D01*
X107242569Y-102211180D01*
X107260568Y-102244855D01*
X107271653Y-102281396D01*
X107276000Y-102325538D01*
X107276000Y-103274462D01*
X107271653Y-103318604D01*
X107260568Y-103355145D01*
X107242569Y-103388820D01*
X107218341Y-103418341D01*
X107188820Y-103442569D01*
X107155145Y-103460568D01*
X107118604Y-103471653D01*
X107074462Y-103476000D01*
X105625538Y-103476000D01*
X105581396Y-103471653D01*
X105544855Y-103460568D01*
X105511180Y-103442569D01*
X105481659Y-103418341D01*
X105457431Y-103388820D01*
X105439432Y-103355145D01*
X105428347Y-103318604D01*
X105424000Y-103274462D01*
X105424000Y-102325538D01*
X105428347Y-102281396D01*
X105439432Y-102244855D01*
X105457431Y-102211180D01*
X105481659Y-102181659D01*
X105511180Y-102157431D01*
X105544855Y-102139432D01*
X105581396Y-102128347D01*
X105625538Y-102124000D01*
X107074462Y-102124000D01*
X107118604Y-102128347D01*
X107118604Y-102128347D01*
G37*
G36*
X76579591Y-101928085D02*
X76613569Y-101938393D01*
X76644887Y-101955133D01*
X76672339Y-101977661D01*
X76694867Y-102005113D01*
X76711607Y-102036431D01*
X76721915Y-102070409D01*
X76726000Y-102111890D01*
X76726000Y-102713110D01*
X76721915Y-102754591D01*
X76711607Y-102788569D01*
X76694867Y-102819887D01*
X76672339Y-102847339D01*
X76644887Y-102869867D01*
X76613569Y-102886607D01*
X76579591Y-102896915D01*
X76538110Y-102901000D01*
X75861890Y-102901000D01*
X75820409Y-102896915D01*
X75786431Y-102886607D01*
X75755113Y-102869867D01*
X75727661Y-102847339D01*
X75705133Y-102819887D01*
X75688393Y-102788569D01*
X75678085Y-102754591D01*
X75674000Y-102713110D01*
X75674000Y-102111890D01*
X75678085Y-102070409D01*
X75688393Y-102036431D01*
X75705133Y-102005113D01*
X75727661Y-101977661D01*
X75755113Y-101955133D01*
X75786431Y-101938393D01*
X75820409Y-101928085D01*
X75861890Y-101924000D01*
X76538110Y-101924000D01*
X76579591Y-101928085D01*
X76579591Y-101928085D01*
G37*
G36*
X79579591Y-101928085D02*
X79613569Y-101938393D01*
X79644887Y-101955133D01*
X79672339Y-101977661D01*
X79694867Y-102005113D01*
X79711607Y-102036431D01*
X79721915Y-102070409D01*
X79726000Y-102111890D01*
X79726000Y-102713110D01*
X79721915Y-102754591D01*
X79711607Y-102788569D01*
X79694867Y-102819887D01*
X79672339Y-102847339D01*
X79644887Y-102869867D01*
X79613569Y-102886607D01*
X79579591Y-102896915D01*
X79538110Y-102901000D01*
X78861890Y-102901000D01*
X78820409Y-102896915D01*
X78786431Y-102886607D01*
X78755113Y-102869867D01*
X78727661Y-102847339D01*
X78705133Y-102819887D01*
X78688393Y-102788569D01*
X78678085Y-102754591D01*
X78674000Y-102713110D01*
X78674000Y-102111890D01*
X78678085Y-102070409D01*
X78688393Y-102036431D01*
X78705133Y-102005113D01*
X78727661Y-101977661D01*
X78755113Y-101955133D01*
X78786431Y-101938393D01*
X78820409Y-101928085D01*
X78861890Y-101924000D01*
X79538110Y-101924000D01*
X79579591Y-101928085D01*
X79579591Y-101928085D01*
G37*
G36*
X78079591Y-101928085D02*
X78113569Y-101938393D01*
X78144887Y-101955133D01*
X78172339Y-101977661D01*
X78194867Y-102005113D01*
X78211607Y-102036431D01*
X78221915Y-102070409D01*
X78226000Y-102111890D01*
X78226000Y-102713110D01*
X78221915Y-102754591D01*
X78211607Y-102788569D01*
X78194867Y-102819887D01*
X78172339Y-102847339D01*
X78144887Y-102869867D01*
X78113569Y-102886607D01*
X78079591Y-102896915D01*
X78038110Y-102901000D01*
X77361890Y-102901000D01*
X77320409Y-102896915D01*
X77286431Y-102886607D01*
X77255113Y-102869867D01*
X77227661Y-102847339D01*
X77205133Y-102819887D01*
X77188393Y-102788569D01*
X77178085Y-102754591D01*
X77174000Y-102713110D01*
X77174000Y-102111890D01*
X77178085Y-102070409D01*
X77188393Y-102036431D01*
X77205133Y-102005113D01*
X77227661Y-101977661D01*
X77255113Y-101955133D01*
X77286431Y-101938393D01*
X77320409Y-101928085D01*
X77361890Y-101924000D01*
X78038110Y-101924000D01*
X78079591Y-101928085D01*
X78079591Y-101928085D01*
G37*
G36*
X82301000Y-102701000D02*
X81299000Y-102701000D01*
X81299000Y-101799000D01*
X82301000Y-101799000D01*
X82301000Y-102701000D01*
X82301000Y-102701000D01*
G37*
G36*
X93279591Y-100928085D02*
X93313569Y-100938393D01*
X93344887Y-100955133D01*
X93372339Y-100977661D01*
X93394867Y-101005113D01*
X93411607Y-101036431D01*
X93421915Y-101070409D01*
X93426000Y-101111890D01*
X93426000Y-101713110D01*
X93421915Y-101754591D01*
X93411607Y-101788569D01*
X93394867Y-101819887D01*
X93372339Y-101847339D01*
X93344887Y-101869867D01*
X93313569Y-101886607D01*
X93279591Y-101896915D01*
X93238110Y-101901000D01*
X92561890Y-101901000D01*
X92520409Y-101896915D01*
X92486431Y-101886607D01*
X92455113Y-101869867D01*
X92427661Y-101847339D01*
X92405133Y-101819887D01*
X92388393Y-101788569D01*
X92378085Y-101754591D01*
X92374000Y-101713110D01*
X92374000Y-101111890D01*
X92378085Y-101070409D01*
X92388393Y-101036431D01*
X92405133Y-101005113D01*
X92427661Y-100977661D01*
X92455113Y-100955133D01*
X92486431Y-100938393D01*
X92520409Y-100928085D01*
X92561890Y-100924000D01*
X93238110Y-100924000D01*
X93279591Y-100928085D01*
X93279591Y-100928085D01*
G37*
G36*
X91779591Y-100928085D02*
X91813569Y-100938393D01*
X91844887Y-100955133D01*
X91872339Y-100977661D01*
X91894867Y-101005113D01*
X91911607Y-101036431D01*
X91921915Y-101070409D01*
X91926000Y-101111890D01*
X91926000Y-101713110D01*
X91921915Y-101754591D01*
X91911607Y-101788569D01*
X91894867Y-101819887D01*
X91872339Y-101847339D01*
X91844887Y-101869867D01*
X91813569Y-101886607D01*
X91779591Y-101896915D01*
X91738110Y-101901000D01*
X91061890Y-101901000D01*
X91020409Y-101896915D01*
X90986431Y-101886607D01*
X90955113Y-101869867D01*
X90927661Y-101847339D01*
X90905133Y-101819887D01*
X90888393Y-101788569D01*
X90878085Y-101754591D01*
X90874000Y-101713110D01*
X90874000Y-101111890D01*
X90878085Y-101070409D01*
X90888393Y-101036431D01*
X90905133Y-101005113D01*
X90927661Y-100977661D01*
X90955113Y-100955133D01*
X90986431Y-100938393D01*
X91020409Y-100928085D01*
X91061890Y-100924000D01*
X91738110Y-100924000D01*
X91779591Y-100928085D01*
X91779591Y-100928085D01*
G37*
G36*
X90379591Y-100928085D02*
X90413569Y-100938393D01*
X90444887Y-100955133D01*
X90472339Y-100977661D01*
X90494867Y-101005113D01*
X90511607Y-101036431D01*
X90521915Y-101070409D01*
X90526000Y-101111890D01*
X90526000Y-101713110D01*
X90521915Y-101754591D01*
X90511607Y-101788569D01*
X90494867Y-101819887D01*
X90472339Y-101847339D01*
X90444887Y-101869867D01*
X90413569Y-101886607D01*
X90379591Y-101896915D01*
X90338110Y-101901000D01*
X89661890Y-101901000D01*
X89620409Y-101896915D01*
X89586431Y-101886607D01*
X89555113Y-101869867D01*
X89527661Y-101847339D01*
X89505133Y-101819887D01*
X89488393Y-101788569D01*
X89478085Y-101754591D01*
X89474000Y-101713110D01*
X89474000Y-101111890D01*
X89478085Y-101070409D01*
X89488393Y-101036431D01*
X89505133Y-101005113D01*
X89527661Y-100977661D01*
X89555113Y-100955133D01*
X89586431Y-100938393D01*
X89620409Y-100928085D01*
X89661890Y-100924000D01*
X90338110Y-100924000D01*
X90379591Y-100928085D01*
X90379591Y-100928085D01*
G37*
G36*
X241501000Y-101551000D02*
X239849000Y-101551000D01*
X239849000Y-100149000D01*
X241501000Y-100149000D01*
X241501000Y-101551000D01*
X241501000Y-101551000D01*
G37*
G36*
X233551000Y-101551000D02*
X231899000Y-101551000D01*
X231899000Y-100149000D01*
X233551000Y-100149000D01*
X233551000Y-101551000D01*
X233551000Y-101551000D01*
G37*
G36*
X107118604Y-99328347D02*
X107155145Y-99339432D01*
X107188820Y-99357431D01*
X107218341Y-99381659D01*
X107242569Y-99411180D01*
X107260568Y-99444855D01*
X107271653Y-99481396D01*
X107276000Y-99525538D01*
X107276000Y-100474462D01*
X107271653Y-100518604D01*
X107260568Y-100555145D01*
X107242569Y-100588820D01*
X107218341Y-100618341D01*
X107188820Y-100642569D01*
X107155145Y-100660568D01*
X107118604Y-100671653D01*
X107074462Y-100676000D01*
X105625538Y-100676000D01*
X105581396Y-100671653D01*
X105544855Y-100660568D01*
X105511180Y-100642569D01*
X105481659Y-100618341D01*
X105457431Y-100588820D01*
X105439432Y-100555145D01*
X105428347Y-100518604D01*
X105424000Y-100474462D01*
X105424000Y-99525538D01*
X105428347Y-99481396D01*
X105439432Y-99444855D01*
X105457431Y-99411180D01*
X105481659Y-99381659D01*
X105511180Y-99357431D01*
X105544855Y-99339432D01*
X105581396Y-99328347D01*
X105625538Y-99324000D01*
X107074462Y-99324000D01*
X107118604Y-99328347D01*
X107118604Y-99328347D01*
G37*
G36*
X224348500Y-100596700D02*
X216851500Y-100596700D01*
X216851500Y-98894700D01*
X224348500Y-98894700D01*
X224348500Y-100596700D01*
X224348500Y-100596700D01*
G37*
G36*
X123348500Y-100496700D02*
X115851500Y-100496700D01*
X115851500Y-98794700D01*
X123348500Y-98794700D01*
X123348500Y-100496700D01*
X123348500Y-100496700D01*
G37*
G36*
X129079591Y-99003085D02*
X129113569Y-99013393D01*
X129144887Y-99030133D01*
X129172339Y-99052661D01*
X129194867Y-99080113D01*
X129211607Y-99111431D01*
X129221915Y-99145409D01*
X129226000Y-99186890D01*
X129226000Y-99788110D01*
X129221915Y-99829591D01*
X129211607Y-99863569D01*
X129194867Y-99894887D01*
X129172339Y-99922339D01*
X129144887Y-99944867D01*
X129113569Y-99961607D01*
X129079591Y-99971915D01*
X129038110Y-99976000D01*
X128361890Y-99976000D01*
X128320409Y-99971915D01*
X128286431Y-99961607D01*
X128255113Y-99944867D01*
X128227661Y-99922339D01*
X128205133Y-99894887D01*
X128188393Y-99863569D01*
X128178085Y-99829591D01*
X128174000Y-99788110D01*
X128174000Y-99186890D01*
X128178085Y-99145409D01*
X128188393Y-99111431D01*
X128205133Y-99080113D01*
X128227661Y-99052661D01*
X128255113Y-99030133D01*
X128286431Y-99013393D01*
X128320409Y-99003085D01*
X128361890Y-98999000D01*
X129038110Y-98999000D01*
X129079591Y-99003085D01*
X129079591Y-99003085D01*
G37*
G36*
X64201000Y-99451000D02*
X62549000Y-99451000D01*
X62549000Y-98049000D01*
X64201000Y-98049000D01*
X64201000Y-99451000D01*
X64201000Y-99451000D01*
G37*
G36*
X72151000Y-99451000D02*
X70499000Y-99451000D01*
X70499000Y-98049000D01*
X72151000Y-98049000D01*
X72151000Y-99451000D01*
X72151000Y-99451000D01*
G37*
G36*
X129079591Y-97428085D02*
X129113569Y-97438393D01*
X129144887Y-97455133D01*
X129172339Y-97477661D01*
X129194867Y-97505113D01*
X129211607Y-97536431D01*
X129221915Y-97570409D01*
X129226000Y-97611890D01*
X129226000Y-98213110D01*
X129221915Y-98254591D01*
X129211607Y-98288569D01*
X129194867Y-98319887D01*
X129172339Y-98347339D01*
X129144887Y-98369867D01*
X129113569Y-98386607D01*
X129079591Y-98396915D01*
X129038110Y-98401000D01*
X128361890Y-98401000D01*
X128320409Y-98396915D01*
X128286431Y-98386607D01*
X128255113Y-98369867D01*
X128227661Y-98347339D01*
X128205133Y-98319887D01*
X128188393Y-98288569D01*
X128178085Y-98254591D01*
X128174000Y-98213110D01*
X128174000Y-97611890D01*
X128178085Y-97570409D01*
X128188393Y-97536431D01*
X128205133Y-97505113D01*
X128227661Y-97477661D01*
X128255113Y-97455133D01*
X128286431Y-97438393D01*
X128320409Y-97428085D01*
X128361890Y-97424000D01*
X129038110Y-97424000D01*
X129079591Y-97428085D01*
X129079591Y-97428085D01*
G37*
G36*
X174045845Y-96719215D02*
X174136839Y-96756906D01*
X174209265Y-96805300D01*
X174218734Y-96811627D01*
X174288373Y-96881266D01*
X174288375Y-96881269D01*
X174343094Y-96963161D01*
X174380785Y-97054155D01*
X174400000Y-97150754D01*
X174400000Y-97249246D01*
X174380785Y-97345845D01*
X174343094Y-97436839D01*
X174297474Y-97505113D01*
X174288373Y-97518734D01*
X174218734Y-97588373D01*
X174218731Y-97588375D01*
X174136839Y-97643094D01*
X174045845Y-97680785D01*
X173949246Y-97700000D01*
X173850754Y-97700000D01*
X173754155Y-97680785D01*
X173663161Y-97643094D01*
X173581269Y-97588375D01*
X173581266Y-97588373D01*
X173511627Y-97518734D01*
X173502526Y-97505113D01*
X173456906Y-97436839D01*
X173419215Y-97345845D01*
X173400000Y-97249246D01*
X173400000Y-97150754D01*
X173419215Y-97054155D01*
X173456906Y-96963161D01*
X173511625Y-96881269D01*
X173511627Y-96881266D01*
X173581266Y-96811627D01*
X173590735Y-96805300D01*
X173663161Y-96756906D01*
X173754155Y-96719215D01*
X173850754Y-96700000D01*
X173949246Y-96700000D01*
X174045845Y-96719215D01*
X174045845Y-96719215D01*
G37*
G36*
X224348500Y-97205300D02*
X216851500Y-97205300D01*
X216851500Y-95503300D01*
X224348500Y-95503300D01*
X224348500Y-97205300D01*
X224348500Y-97205300D01*
G37*
G36*
X241501000Y-97051000D02*
X239849000Y-97051000D01*
X239849000Y-95649000D01*
X241501000Y-95649000D01*
X241501000Y-97051000D01*
X241501000Y-97051000D01*
G37*
G36*
X233551000Y-97051000D02*
X231899000Y-97051000D01*
X231899000Y-95649000D01*
X233551000Y-95649000D01*
X233551000Y-97051000D01*
X233551000Y-97051000D01*
G37*
G36*
X123348500Y-96805300D02*
X115851500Y-96805300D01*
X115851500Y-95103300D01*
X123348500Y-95103300D01*
X123348500Y-96805300D01*
X123348500Y-96805300D01*
G37*
G36*
X79301000Y-96201000D02*
X77649000Y-96201000D01*
X77649000Y-94799000D01*
X79301000Y-94799000D01*
X79301000Y-96201000D01*
X79301000Y-96201000D01*
G37*
G36*
X71351000Y-96201000D02*
X69699000Y-96201000D01*
X69699000Y-94799000D01*
X71351000Y-94799000D01*
X71351000Y-96201000D01*
X71351000Y-96201000D01*
G37*
G36*
X57051000Y-96201000D02*
X55399000Y-96201000D01*
X55399000Y-94799000D01*
X57051000Y-94799000D01*
X57051000Y-96201000D01*
X57051000Y-96201000D01*
G37*
G36*
X65001000Y-96201000D02*
X63349000Y-96201000D01*
X63349000Y-94799000D01*
X65001000Y-94799000D01*
X65001000Y-96201000D01*
X65001000Y-96201000D01*
G37*
G36*
X109679591Y-94603085D02*
X109713569Y-94613393D01*
X109744887Y-94630133D01*
X109772339Y-94652661D01*
X109794867Y-94680113D01*
X109811607Y-94711431D01*
X109821915Y-94745409D01*
X109826000Y-94786890D01*
X109826000Y-95388110D01*
X109821915Y-95429591D01*
X109811607Y-95463569D01*
X109794867Y-95494887D01*
X109772339Y-95522339D01*
X109744887Y-95544867D01*
X109713569Y-95561607D01*
X109679591Y-95571915D01*
X109638110Y-95576000D01*
X108961890Y-95576000D01*
X108920409Y-95571915D01*
X108886431Y-95561607D01*
X108855113Y-95544867D01*
X108827661Y-95522339D01*
X108805133Y-95494887D01*
X108788393Y-95463569D01*
X108778085Y-95429591D01*
X108774000Y-95388110D01*
X108774000Y-94786890D01*
X108778085Y-94745409D01*
X108788393Y-94711431D01*
X108805133Y-94680113D01*
X108827661Y-94652661D01*
X108855113Y-94630133D01*
X108886431Y-94613393D01*
X108920409Y-94603085D01*
X108961890Y-94599000D01*
X109638110Y-94599000D01*
X109679591Y-94603085D01*
X109679591Y-94603085D01*
G37*
G36*
X173701000Y-94601000D02*
X172699000Y-94601000D01*
X172699000Y-93699000D01*
X173701000Y-93699000D01*
X173701000Y-94601000D01*
X173701000Y-94601000D01*
G37*
G36*
X168201000Y-94601000D02*
X167199000Y-94601000D01*
X167199000Y-93699000D01*
X168201000Y-93699000D01*
X168201000Y-94601000D01*
X168201000Y-94601000D01*
G37*
G36*
X158826000Y-94581000D02*
X156174000Y-94581000D01*
X156174000Y-93419000D01*
X158826000Y-93419000D01*
X158826000Y-94581000D01*
X158826000Y-94581000D01*
G37*
G36*
X180401000Y-94201000D02*
X179399000Y-94201000D01*
X179399000Y-93299000D01*
X180401000Y-93299000D01*
X180401000Y-94201000D01*
X180401000Y-94201000D01*
G37*
G36*
X184701000Y-94201000D02*
X183699000Y-94201000D01*
X183699000Y-93299000D01*
X184701000Y-93299000D01*
X184701000Y-94201000D01*
X184701000Y-94201000D01*
G37*
G36*
X145206000Y-94101000D02*
X144504000Y-94101000D01*
X144504000Y-92499000D01*
X145206000Y-92499000D01*
X145206000Y-94101000D01*
X145206000Y-94101000D01*
G37*
G36*
X147746000Y-94101000D02*
X147044000Y-94101000D01*
X147044000Y-92499000D01*
X147746000Y-92499000D01*
X147746000Y-94101000D01*
X147746000Y-94101000D01*
G37*
G36*
X146476000Y-94101000D02*
X145774000Y-94101000D01*
X145774000Y-92499000D01*
X146476000Y-92499000D01*
X146476000Y-94101000D01*
X146476000Y-94101000D01*
G37*
G36*
X154096000Y-94101000D02*
X153394000Y-94101000D01*
X153394000Y-92499000D01*
X154096000Y-92499000D01*
X154096000Y-94101000D01*
X154096000Y-94101000D01*
G37*
G36*
X152826000Y-94101000D02*
X152124000Y-94101000D01*
X152124000Y-92499000D01*
X152826000Y-92499000D01*
X152826000Y-94101000D01*
X152826000Y-94101000D01*
G37*
G36*
X151556000Y-94101000D02*
X150854000Y-94101000D01*
X150854000Y-92499000D01*
X151556000Y-92499000D01*
X151556000Y-94101000D01*
X151556000Y-94101000D01*
G37*
G36*
X150286000Y-94101000D02*
X149584000Y-94101000D01*
X149584000Y-92499000D01*
X150286000Y-92499000D01*
X150286000Y-94101000D01*
X150286000Y-94101000D01*
G37*
G36*
X149016000Y-94101000D02*
X148314000Y-94101000D01*
X148314000Y-92499000D01*
X149016000Y-92499000D01*
X149016000Y-94101000D01*
X149016000Y-94101000D01*
G37*
G36*
X109679591Y-93028085D02*
X109713569Y-93038393D01*
X109744887Y-93055133D01*
X109772339Y-93077661D01*
X109794867Y-93105113D01*
X109811607Y-93136431D01*
X109821915Y-93170409D01*
X109826000Y-93211890D01*
X109826000Y-93813110D01*
X109821915Y-93854591D01*
X109811607Y-93888569D01*
X109794867Y-93919887D01*
X109772339Y-93947339D01*
X109744887Y-93969867D01*
X109713569Y-93986607D01*
X109679591Y-93996915D01*
X109638110Y-94001000D01*
X108961890Y-94001000D01*
X108920409Y-93996915D01*
X108886431Y-93986607D01*
X108855113Y-93969867D01*
X108827661Y-93947339D01*
X108805133Y-93919887D01*
X108788393Y-93888569D01*
X108778085Y-93854591D01*
X108774000Y-93813110D01*
X108774000Y-93211890D01*
X108778085Y-93170409D01*
X108788393Y-93136431D01*
X108805133Y-93105113D01*
X108827661Y-93077661D01*
X108855113Y-93055133D01*
X108886431Y-93038393D01*
X108920409Y-93028085D01*
X108961890Y-93024000D01*
X109638110Y-93024000D01*
X109679591Y-93028085D01*
X109679591Y-93028085D01*
G37*
G36*
X163829591Y-92778085D02*
X163863569Y-92788393D01*
X163894887Y-92805133D01*
X163922339Y-92827661D01*
X163944867Y-92855113D01*
X163961607Y-92886431D01*
X163971915Y-92920409D01*
X163976000Y-92961890D01*
X163976000Y-93638110D01*
X163971915Y-93679591D01*
X163961607Y-93713569D01*
X163944867Y-93744887D01*
X163922339Y-93772339D01*
X163894887Y-93794867D01*
X163863569Y-93811607D01*
X163829591Y-93821915D01*
X163788110Y-93826000D01*
X163186890Y-93826000D01*
X163145409Y-93821915D01*
X163111431Y-93811607D01*
X163080113Y-93794867D01*
X163052661Y-93772339D01*
X163030133Y-93744887D01*
X163013393Y-93713569D01*
X163003085Y-93679591D01*
X162999000Y-93638110D01*
X162999000Y-92961890D01*
X163003085Y-92920409D01*
X163013393Y-92886431D01*
X163030133Y-92855113D01*
X163052661Y-92827661D01*
X163080113Y-92805133D01*
X163111431Y-92788393D01*
X163145409Y-92778085D01*
X163186890Y-92774000D01*
X163788110Y-92774000D01*
X163829591Y-92778085D01*
X163829591Y-92778085D01*
G37*
G36*
X162254591Y-92778085D02*
X162288569Y-92788393D01*
X162319887Y-92805133D01*
X162347339Y-92827661D01*
X162369867Y-92855113D01*
X162386607Y-92886431D01*
X162396915Y-92920409D01*
X162401000Y-92961890D01*
X162401000Y-93638110D01*
X162396915Y-93679591D01*
X162386607Y-93713569D01*
X162369867Y-93744887D01*
X162347339Y-93772339D01*
X162319887Y-93794867D01*
X162288569Y-93811607D01*
X162254591Y-93821915D01*
X162213110Y-93826000D01*
X161611890Y-93826000D01*
X161570409Y-93821915D01*
X161536431Y-93811607D01*
X161505113Y-93794867D01*
X161477661Y-93772339D01*
X161455133Y-93744887D01*
X161438393Y-93713569D01*
X161428085Y-93679591D01*
X161424000Y-93638110D01*
X161424000Y-92961890D01*
X161428085Y-92920409D01*
X161438393Y-92886431D01*
X161455133Y-92855113D01*
X161477661Y-92827661D01*
X161505113Y-92805133D01*
X161536431Y-92788393D01*
X161570409Y-92778085D01*
X161611890Y-92774000D01*
X162213110Y-92774000D01*
X162254591Y-92778085D01*
X162254591Y-92778085D01*
G37*
G36*
X171701000Y-93651000D02*
X170699000Y-93651000D01*
X170699000Y-92749000D01*
X171701000Y-92749000D01*
X171701000Y-93651000D01*
X171701000Y-93651000D01*
G37*
G36*
X170201000Y-93651000D02*
X169199000Y-93651000D01*
X169199000Y-92749000D01*
X170201000Y-92749000D01*
X170201000Y-93651000D01*
X170201000Y-93651000D01*
G37*
G36*
X138169592Y-92483084D02*
X138203570Y-92493392D01*
X138234888Y-92510132D01*
X138262340Y-92532660D01*
X138284868Y-92560112D01*
X138301608Y-92591430D01*
X138311916Y-92625408D01*
X138316001Y-92666889D01*
X138316001Y-93343109D01*
X138311916Y-93384590D01*
X138301608Y-93418568D01*
X138284868Y-93449886D01*
X138262340Y-93477338D01*
X138234888Y-93499866D01*
X138203570Y-93516606D01*
X138169592Y-93526914D01*
X138128111Y-93530999D01*
X137526891Y-93530999D01*
X137485410Y-93526914D01*
X137451432Y-93516606D01*
X137420114Y-93499866D01*
X137392662Y-93477338D01*
X137370134Y-93449886D01*
X137353394Y-93418568D01*
X137343086Y-93384590D01*
X137339001Y-93343109D01*
X137339001Y-92666889D01*
X137343086Y-92625408D01*
X137353394Y-92591430D01*
X137370134Y-92560112D01*
X137392662Y-92532660D01*
X137420114Y-92510132D01*
X137451432Y-92493392D01*
X137485410Y-92483084D01*
X137526891Y-92478999D01*
X138128111Y-92478999D01*
X138169592Y-92483084D01*
X138169592Y-92483084D01*
G37*
G36*
X139744592Y-92483084D02*
X139778570Y-92493392D01*
X139809888Y-92510132D01*
X139837340Y-92532660D01*
X139859868Y-92560112D01*
X139876608Y-92591430D01*
X139886916Y-92625408D01*
X139891001Y-92666889D01*
X139891001Y-93343109D01*
X139886916Y-93384590D01*
X139876608Y-93418568D01*
X139859868Y-93449886D01*
X139837340Y-93477338D01*
X139809888Y-93499866D01*
X139778570Y-93516606D01*
X139744592Y-93526914D01*
X139703111Y-93530999D01*
X139101891Y-93530999D01*
X139060410Y-93526914D01*
X139026432Y-93516606D01*
X138995114Y-93499866D01*
X138967662Y-93477338D01*
X138945134Y-93449886D01*
X138928394Y-93418568D01*
X138918086Y-93384590D01*
X138914001Y-93343109D01*
X138914001Y-92666889D01*
X138918086Y-92625408D01*
X138928394Y-92591430D01*
X138945134Y-92560112D01*
X138967662Y-92532660D01*
X138995114Y-92510132D01*
X139026432Y-92493392D01*
X139060410Y-92483084D01*
X139101891Y-92478999D01*
X139703111Y-92478999D01*
X139744592Y-92483084D01*
X139744592Y-92483084D01*
G37*
G36*
X132521000Y-93451000D02*
X130919000Y-93451000D01*
X130919000Y-92349000D01*
X132521000Y-92349000D01*
X132521000Y-93451000D01*
X132521000Y-93451000D01*
G37*
G36*
X182401000Y-93251000D02*
X181399000Y-93251000D01*
X181399000Y-92349000D01*
X182401000Y-92349000D01*
X182401000Y-93251000D01*
X182401000Y-93251000D01*
G37*
G36*
X186701000Y-93251000D02*
X185699000Y-93251000D01*
X185699000Y-92349000D01*
X186701000Y-92349000D01*
X186701000Y-93251000D01*
X186701000Y-93251000D01*
G37*
G36*
X127590158Y-91828086D02*
X127624136Y-91838394D01*
X127655454Y-91855134D01*
X127682906Y-91877662D01*
X127705434Y-91905114D01*
X127722174Y-91936432D01*
X127732482Y-91970410D01*
X127736567Y-92011891D01*
X127736567Y-92613111D01*
X127732482Y-92654592D01*
X127722174Y-92688570D01*
X127705434Y-92719888D01*
X127682906Y-92747340D01*
X127655454Y-92769868D01*
X127624136Y-92786608D01*
X127590158Y-92796916D01*
X127548677Y-92801001D01*
X126872457Y-92801001D01*
X126830976Y-92796916D01*
X126796998Y-92786608D01*
X126765680Y-92769868D01*
X126738228Y-92747340D01*
X126715700Y-92719888D01*
X126698960Y-92688570D01*
X126688652Y-92654592D01*
X126684567Y-92613111D01*
X126684567Y-92011891D01*
X126688652Y-91970410D01*
X126698960Y-91936432D01*
X126715700Y-91905114D01*
X126738228Y-91877662D01*
X126765680Y-91855134D01*
X126796998Y-91838394D01*
X126830976Y-91828086D01*
X126872457Y-91824001D01*
X127548677Y-91824001D01*
X127590158Y-91828086D01*
X127590158Y-91828086D01*
G37*
G36*
X168201000Y-92701000D02*
X167199000Y-92701000D01*
X167199000Y-91799000D01*
X168201000Y-91799000D01*
X168201000Y-92701000D01*
X168201000Y-92701000D01*
G37*
G36*
X173701000Y-92701000D02*
X172699000Y-92701000D01*
X172699000Y-91799000D01*
X173701000Y-91799000D01*
X173701000Y-92701000D01*
X173701000Y-92701000D01*
G37*
G36*
X135425775Y-90226121D02*
X135447082Y-90238222D01*
X135470342Y-90245933D01*
X135497860Y-90249000D01*
X135509235Y-90249000D01*
X135514015Y-90264757D01*
X135525566Y-90286368D01*
X135541112Y-90305310D01*
X135557415Y-90319043D01*
X136343000Y-90873573D01*
X136343000Y-91926427D01*
X135557415Y-92480957D01*
X135538877Y-92496982D01*
X135523822Y-92516316D01*
X135512828Y-92538216D01*
X135509305Y-92551000D01*
X135497860Y-92551000D01*
X135473474Y-92553402D01*
X135450025Y-92560515D01*
X135425775Y-92573879D01*
X135391000Y-92598426D01*
X135372550Y-92611449D01*
X135369934Y-92606554D01*
X135354388Y-92587612D01*
X135335446Y-92572066D01*
X135313835Y-92560515D01*
X135290386Y-92553402D01*
X135266000Y-92551000D01*
X133799800Y-92551000D01*
X133775414Y-92553402D01*
X133751965Y-92560515D01*
X133730354Y-92572066D01*
X133711412Y-92587612D01*
X133695866Y-92606554D01*
X133693476Y-92611026D01*
X133640004Y-92573596D01*
X133618648Y-92561579D01*
X133595359Y-92553959D01*
X133568321Y-92551000D01*
X133557356Y-92551000D01*
X133552985Y-92536590D01*
X133541434Y-92514979D01*
X133525888Y-92496037D01*
X133509183Y-92482021D01*
X133319153Y-92349000D01*
X132782859Y-91973594D01*
X132761506Y-91961579D01*
X132738217Y-91953959D01*
X132711179Y-91951000D01*
X130915500Y-91951000D01*
X130915500Y-90849000D01*
X132711179Y-90849000D01*
X132735565Y-90846598D01*
X132759014Y-90839485D01*
X132782859Y-90826405D01*
X133509184Y-90317978D01*
X133527783Y-90302027D01*
X133542915Y-90282752D01*
X133553995Y-90260896D01*
X133557324Y-90249000D01*
X133568321Y-90249000D01*
X133592707Y-90246598D01*
X133616156Y-90239485D01*
X133640004Y-90226404D01*
X133693476Y-90188974D01*
X133695866Y-90193446D01*
X133711412Y-90212388D01*
X133730354Y-90227934D01*
X133751965Y-90239485D01*
X133775414Y-90246598D01*
X133799800Y-90249000D01*
X135266000Y-90249000D01*
X135290386Y-90246598D01*
X135313835Y-90239485D01*
X135335446Y-90227934D01*
X135354388Y-90212388D01*
X135369934Y-90193446D01*
X135372550Y-90188551D01*
X135425775Y-90226121D01*
X135425775Y-90226121D01*
G37*
G36*
X158826000Y-92381000D02*
X156174000Y-92381000D01*
X156174000Y-91219000D01*
X158826000Y-91219000D01*
X158826000Y-92381000D01*
X158826000Y-92381000D01*
G37*
G36*
X184701000Y-92301000D02*
X183699000Y-92301000D01*
X183699000Y-91399000D01*
X184701000Y-91399000D01*
X184701000Y-92301000D01*
X184701000Y-92301000D01*
G37*
G36*
X180401000Y-92301000D02*
X179399000Y-92301000D01*
X179399000Y-91399000D01*
X180401000Y-91399000D01*
X180401000Y-92301000D01*
X180401000Y-92301000D01*
G37*
G36*
X139729591Y-90978085D02*
X139763569Y-90988393D01*
X139794887Y-91005133D01*
X139822339Y-91027661D01*
X139844867Y-91055113D01*
X139861607Y-91086431D01*
X139871915Y-91120409D01*
X139876000Y-91161890D01*
X139876000Y-91838110D01*
X139871915Y-91879591D01*
X139861607Y-91913569D01*
X139844867Y-91944887D01*
X139822339Y-91972339D01*
X139794887Y-91994867D01*
X139763569Y-92011607D01*
X139729591Y-92021915D01*
X139688110Y-92026000D01*
X139086890Y-92026000D01*
X139045409Y-92021915D01*
X139011431Y-92011607D01*
X138980113Y-91994867D01*
X138952661Y-91972339D01*
X138930133Y-91944887D01*
X138913393Y-91913569D01*
X138903085Y-91879591D01*
X138899000Y-91838110D01*
X138899000Y-91161890D01*
X138903085Y-91120409D01*
X138913393Y-91086431D01*
X138930133Y-91055113D01*
X138952661Y-91027661D01*
X138980113Y-91005133D01*
X139011431Y-90988393D01*
X139045409Y-90978085D01*
X139086890Y-90974000D01*
X139688110Y-90974000D01*
X139729591Y-90978085D01*
X139729591Y-90978085D01*
G37*
G36*
X138154591Y-90978085D02*
X138188569Y-90988393D01*
X138219887Y-91005133D01*
X138247339Y-91027661D01*
X138269867Y-91055113D01*
X138286607Y-91086431D01*
X138296915Y-91120409D01*
X138301000Y-91161890D01*
X138301000Y-91838110D01*
X138296915Y-91879591D01*
X138286607Y-91913569D01*
X138269867Y-91944887D01*
X138247339Y-91972339D01*
X138219887Y-91994867D01*
X138188569Y-92011607D01*
X138154591Y-92021915D01*
X138113110Y-92026000D01*
X137511890Y-92026000D01*
X137470409Y-92021915D01*
X137436431Y-92011607D01*
X137405113Y-91994867D01*
X137377661Y-91972339D01*
X137355133Y-91944887D01*
X137338393Y-91913569D01*
X137328085Y-91879591D01*
X137324000Y-91838110D01*
X137324000Y-91161890D01*
X137328085Y-91120409D01*
X137338393Y-91086431D01*
X137355133Y-91055113D01*
X137377661Y-91027661D01*
X137405113Y-91005133D01*
X137436431Y-90988393D01*
X137470409Y-90978085D01*
X137511890Y-90974000D01*
X138113110Y-90974000D01*
X138154591Y-90978085D01*
X138154591Y-90978085D01*
G37*
G36*
X224348500Y-91896700D02*
X216851500Y-91896700D01*
X216851500Y-90194700D01*
X224348500Y-90194700D01*
X224348500Y-91896700D01*
X224348500Y-91896700D01*
G37*
G36*
X194905996Y-90053051D02*
X194939653Y-90063261D01*
X194970667Y-90079838D01*
X194997852Y-90102148D01*
X195020162Y-90129333D01*
X195036739Y-90160347D01*
X195046949Y-90194004D01*
X195051000Y-90235138D01*
X195051000Y-91564862D01*
X195046949Y-91605996D01*
X195036739Y-91639653D01*
X195020162Y-91670667D01*
X194997852Y-91697852D01*
X194970667Y-91720162D01*
X194939653Y-91736739D01*
X194905996Y-91746949D01*
X194864862Y-91751000D01*
X192485138Y-91751000D01*
X192444004Y-91746949D01*
X192410347Y-91736739D01*
X192379333Y-91720162D01*
X192352148Y-91697852D01*
X192329838Y-91670667D01*
X192313261Y-91639653D01*
X192303051Y-91605996D01*
X192299000Y-91564862D01*
X192299000Y-90235138D01*
X192303051Y-90194004D01*
X192313261Y-90160347D01*
X192329838Y-90129333D01*
X192352148Y-90102148D01*
X192379333Y-90079838D01*
X192410347Y-90063261D01*
X192444004Y-90053051D01*
X192485138Y-90049000D01*
X194864862Y-90049000D01*
X194905996Y-90053051D01*
X194905996Y-90053051D01*
G37*
G36*
X191555996Y-90053051D02*
X191589653Y-90063261D01*
X191620667Y-90079838D01*
X191647852Y-90102148D01*
X191670162Y-90129333D01*
X191686739Y-90160347D01*
X191696949Y-90194004D01*
X191701000Y-90235138D01*
X191701000Y-91564862D01*
X191696949Y-91605996D01*
X191686739Y-91639653D01*
X191670162Y-91670667D01*
X191647852Y-91697852D01*
X191620667Y-91720162D01*
X191589653Y-91736739D01*
X191555996Y-91746949D01*
X191514862Y-91751000D01*
X189135138Y-91751000D01*
X189094004Y-91746949D01*
X189060347Y-91736739D01*
X189029333Y-91720162D01*
X189002148Y-91697852D01*
X188979838Y-91670667D01*
X188963261Y-91639653D01*
X188953051Y-91605996D01*
X188949000Y-91564862D01*
X188949000Y-90235138D01*
X188953051Y-90194004D01*
X188963261Y-90160347D01*
X188979838Y-90129333D01*
X189002148Y-90102148D01*
X189029333Y-90079838D01*
X189060347Y-90063261D01*
X189094004Y-90053051D01*
X189135138Y-90049000D01*
X191514862Y-90049000D01*
X191555996Y-90053051D01*
X191555996Y-90053051D01*
G37*
G36*
X79301000Y-91701000D02*
X77649000Y-91701000D01*
X77649000Y-90299000D01*
X79301000Y-90299000D01*
X79301000Y-91701000D01*
X79301000Y-91701000D01*
G37*
G36*
X65001000Y-91701000D02*
X63349000Y-91701000D01*
X63349000Y-90299000D01*
X65001000Y-90299000D01*
X65001000Y-91701000D01*
X65001000Y-91701000D01*
G37*
G36*
X71351000Y-91701000D02*
X69699000Y-91701000D01*
X69699000Y-90299000D01*
X71351000Y-90299000D01*
X71351000Y-91701000D01*
X71351000Y-91701000D01*
G37*
G36*
X57051000Y-91701000D02*
X55399000Y-91701000D01*
X55399000Y-90299000D01*
X57051000Y-90299000D01*
X57051000Y-91701000D01*
X57051000Y-91701000D01*
G37*
G36*
X123348500Y-91496700D02*
X115851500Y-91496700D01*
X115851500Y-89794700D01*
X123348500Y-89794700D01*
X123348500Y-91496700D01*
X123348500Y-91496700D01*
G37*
G36*
X91429591Y-90328085D02*
X91463569Y-90338393D01*
X91494887Y-90355133D01*
X91522339Y-90377661D01*
X91544867Y-90405113D01*
X91561607Y-90436431D01*
X91571915Y-90470409D01*
X91576000Y-90511890D01*
X91576000Y-91188110D01*
X91571915Y-91229591D01*
X91561607Y-91263569D01*
X91544867Y-91294887D01*
X91522339Y-91322339D01*
X91494887Y-91344867D01*
X91463569Y-91361607D01*
X91429591Y-91371915D01*
X91388110Y-91376000D01*
X90786890Y-91376000D01*
X90745409Y-91371915D01*
X90711431Y-91361607D01*
X90680113Y-91344867D01*
X90652661Y-91322339D01*
X90630133Y-91294887D01*
X90613393Y-91263569D01*
X90603085Y-91229591D01*
X90599000Y-91188110D01*
X90599000Y-90511890D01*
X90603085Y-90470409D01*
X90613393Y-90436431D01*
X90630133Y-90405113D01*
X90652661Y-90377661D01*
X90680113Y-90355133D01*
X90711431Y-90338393D01*
X90745409Y-90328085D01*
X90786890Y-90324000D01*
X91388110Y-90324000D01*
X91429591Y-90328085D01*
X91429591Y-90328085D01*
G37*
G36*
X89854591Y-90328085D02*
X89888569Y-90338393D01*
X89919887Y-90355133D01*
X89947339Y-90377661D01*
X89969867Y-90405113D01*
X89986607Y-90436431D01*
X89996915Y-90470409D01*
X90001000Y-90511890D01*
X90001000Y-91188110D01*
X89996915Y-91229591D01*
X89986607Y-91263569D01*
X89969867Y-91294887D01*
X89947339Y-91322339D01*
X89919887Y-91344867D01*
X89888569Y-91361607D01*
X89854591Y-91371915D01*
X89813110Y-91376000D01*
X89211890Y-91376000D01*
X89170409Y-91371915D01*
X89136431Y-91361607D01*
X89105113Y-91344867D01*
X89077661Y-91322339D01*
X89055133Y-91294887D01*
X89038393Y-91263569D01*
X89028085Y-91229591D01*
X89024000Y-91188110D01*
X89024000Y-90511890D01*
X89028085Y-90470409D01*
X89038393Y-90436431D01*
X89055133Y-90405113D01*
X89077661Y-90377661D01*
X89105113Y-90355133D01*
X89136431Y-90338393D01*
X89170409Y-90328085D01*
X89211890Y-90324000D01*
X89813110Y-90324000D01*
X89854591Y-90328085D01*
X89854591Y-90328085D01*
G37*
G36*
X127590158Y-90253086D02*
X127624136Y-90263394D01*
X127655454Y-90280134D01*
X127682906Y-90302662D01*
X127705434Y-90330114D01*
X127722174Y-90361432D01*
X127732482Y-90395410D01*
X127736567Y-90436891D01*
X127736567Y-91038111D01*
X127732482Y-91079592D01*
X127722174Y-91113570D01*
X127705434Y-91144888D01*
X127682906Y-91172340D01*
X127655454Y-91194868D01*
X127624136Y-91211608D01*
X127590158Y-91221916D01*
X127548677Y-91226001D01*
X126872457Y-91226001D01*
X126830976Y-91221916D01*
X126796998Y-91211608D01*
X126765680Y-91194868D01*
X126738228Y-91172340D01*
X126715700Y-91144888D01*
X126698960Y-91113570D01*
X126688652Y-91079592D01*
X126684567Y-91038111D01*
X126684567Y-90436891D01*
X126688652Y-90395410D01*
X126698960Y-90361432D01*
X126715700Y-90330114D01*
X126738228Y-90302662D01*
X126765680Y-90280134D01*
X126796998Y-90263394D01*
X126830976Y-90253086D01*
X126872457Y-90249001D01*
X127548677Y-90249001D01*
X127590158Y-90253086D01*
X127590158Y-90253086D01*
G37*
G36*
X139729591Y-89478085D02*
X139763569Y-89488393D01*
X139794887Y-89505133D01*
X139822339Y-89527661D01*
X139844867Y-89555113D01*
X139861607Y-89586431D01*
X139871915Y-89620409D01*
X139876000Y-89661890D01*
X139876000Y-90338110D01*
X139871915Y-90379591D01*
X139861607Y-90413569D01*
X139844867Y-90444887D01*
X139822339Y-90472339D01*
X139794887Y-90494867D01*
X139763569Y-90511607D01*
X139729591Y-90521915D01*
X139688110Y-90526000D01*
X139086890Y-90526000D01*
X139045409Y-90521915D01*
X139011431Y-90511607D01*
X138980113Y-90494867D01*
X138952661Y-90472339D01*
X138930133Y-90444887D01*
X138913393Y-90413569D01*
X138903085Y-90379591D01*
X138899000Y-90338110D01*
X138899000Y-89661890D01*
X138903085Y-89620409D01*
X138913393Y-89586431D01*
X138930133Y-89555113D01*
X138952661Y-89527661D01*
X138980113Y-89505133D01*
X139011431Y-89488393D01*
X139045409Y-89478085D01*
X139086890Y-89474000D01*
X139688110Y-89474000D01*
X139729591Y-89478085D01*
X139729591Y-89478085D01*
G37*
G36*
X138154591Y-89478085D02*
X138188569Y-89488393D01*
X138219887Y-89505133D01*
X138247339Y-89527661D01*
X138269867Y-89555113D01*
X138286607Y-89586431D01*
X138296915Y-89620409D01*
X138301000Y-89661890D01*
X138301000Y-90338110D01*
X138296915Y-90379591D01*
X138286607Y-90413569D01*
X138269867Y-90444887D01*
X138247339Y-90472339D01*
X138219887Y-90494867D01*
X138188569Y-90511607D01*
X138154591Y-90521915D01*
X138113110Y-90526000D01*
X137511890Y-90526000D01*
X137470409Y-90521915D01*
X137436431Y-90511607D01*
X137405113Y-90494867D01*
X137377661Y-90472339D01*
X137355133Y-90444887D01*
X137338393Y-90413569D01*
X137328085Y-90379591D01*
X137324000Y-90338110D01*
X137324000Y-89661890D01*
X137328085Y-89620409D01*
X137338393Y-89586431D01*
X137355133Y-89555113D01*
X137377661Y-89527661D01*
X137405113Y-89505133D01*
X137436431Y-89488393D01*
X137470409Y-89478085D01*
X137511890Y-89474000D01*
X138113110Y-89474000D01*
X138154591Y-89478085D01*
X138154591Y-89478085D01*
G37*
G36*
X233551000Y-90451000D02*
X231899000Y-90451000D01*
X231899000Y-89049000D01*
X233551000Y-89049000D01*
X233551000Y-90451000D01*
X233551000Y-90451000D01*
G37*
G36*
X132521000Y-90451000D02*
X130919000Y-90451000D01*
X130919000Y-89349000D01*
X132521000Y-89349000D01*
X132521000Y-90451000D01*
X132521000Y-90451000D01*
G37*
G36*
X241501000Y-90451000D02*
X239849000Y-90451000D01*
X239849000Y-89049000D01*
X241501000Y-89049000D01*
X241501000Y-90451000D01*
X241501000Y-90451000D01*
G37*
G36*
X157254591Y-89278085D02*
X157288569Y-89288393D01*
X157319887Y-89305133D01*
X157347339Y-89327661D01*
X157369867Y-89355113D01*
X157386607Y-89386431D01*
X157396915Y-89420409D01*
X157401000Y-89461890D01*
X157401000Y-90138110D01*
X157396915Y-90179591D01*
X157386607Y-90213569D01*
X157369867Y-90244887D01*
X157347339Y-90272339D01*
X157319887Y-90294867D01*
X157288569Y-90311607D01*
X157254591Y-90321915D01*
X157213110Y-90326000D01*
X156611890Y-90326000D01*
X156570409Y-90321915D01*
X156536431Y-90311607D01*
X156505113Y-90294867D01*
X156477661Y-90272339D01*
X156455133Y-90244887D01*
X156438393Y-90213569D01*
X156428085Y-90179591D01*
X156424000Y-90138110D01*
X156424000Y-89461890D01*
X156428085Y-89420409D01*
X156438393Y-89386431D01*
X156455133Y-89355113D01*
X156477661Y-89327661D01*
X156505113Y-89305133D01*
X156536431Y-89288393D01*
X156570409Y-89278085D01*
X156611890Y-89274000D01*
X157213110Y-89274000D01*
X157254591Y-89278085D01*
X157254591Y-89278085D01*
G37*
G36*
X158829591Y-89278085D02*
X158863569Y-89288393D01*
X158894887Y-89305133D01*
X158922339Y-89327661D01*
X158944867Y-89355113D01*
X158961607Y-89386431D01*
X158971915Y-89420409D01*
X158976000Y-89461890D01*
X158976000Y-90138110D01*
X158971915Y-90179591D01*
X158961607Y-90213569D01*
X158944867Y-90244887D01*
X158922339Y-90272339D01*
X158894887Y-90294867D01*
X158863569Y-90311607D01*
X158829591Y-90321915D01*
X158788110Y-90326000D01*
X158186890Y-90326000D01*
X158145409Y-90321915D01*
X158111431Y-90311607D01*
X158080113Y-90294867D01*
X158052661Y-90272339D01*
X158030133Y-90244887D01*
X158013393Y-90213569D01*
X158003085Y-90179591D01*
X157999000Y-90138110D01*
X157999000Y-89461890D01*
X158003085Y-89420409D01*
X158013393Y-89386431D01*
X158030133Y-89355113D01*
X158052661Y-89327661D01*
X158080113Y-89305133D01*
X158111431Y-89288393D01*
X158145409Y-89278085D01*
X158186890Y-89274000D01*
X158788110Y-89274000D01*
X158829591Y-89278085D01*
X158829591Y-89278085D01*
G37*
G36*
X173701000Y-90301000D02*
X172699000Y-90301000D01*
X172699000Y-89399000D01*
X173701000Y-89399000D01*
X173701000Y-90301000D01*
X173701000Y-90301000D01*
G37*
G36*
X168201000Y-90301000D02*
X167199000Y-90301000D01*
X167199000Y-89399000D01*
X168201000Y-89399000D01*
X168201000Y-90301000D01*
X168201000Y-90301000D01*
G37*
G36*
X98036000Y-89606000D02*
X97034000Y-89606000D01*
X97034000Y-87504000D01*
X98036000Y-87504000D01*
X98036000Y-89606000D01*
X98036000Y-89606000D01*
G37*
G36*
X95496000Y-89606000D02*
X94494000Y-89606000D01*
X94494000Y-87504000D01*
X95496000Y-87504000D01*
X95496000Y-89606000D01*
X95496000Y-89606000D01*
G37*
G36*
X103116000Y-89606000D02*
X102114000Y-89606000D01*
X102114000Y-87504000D01*
X103116000Y-87504000D01*
X103116000Y-89606000D01*
X103116000Y-89606000D01*
G37*
G36*
X96766000Y-89606000D02*
X95764000Y-89606000D01*
X95764000Y-87504000D01*
X96766000Y-87504000D01*
X96766000Y-89606000D01*
X96766000Y-89606000D01*
G37*
G36*
X101846000Y-89606000D02*
X100844000Y-89606000D01*
X100844000Y-87504000D01*
X101846000Y-87504000D01*
X101846000Y-89606000D01*
X101846000Y-89606000D01*
G37*
G36*
X100576000Y-89606000D02*
X99574000Y-89606000D01*
X99574000Y-87504000D01*
X100576000Y-87504000D01*
X100576000Y-89606000D01*
X100576000Y-89606000D01*
G37*
G36*
X99306000Y-89606000D02*
X98304000Y-89606000D01*
X98304000Y-87504000D01*
X99306000Y-87504000D01*
X99306000Y-89606000D01*
X99306000Y-89606000D01*
G37*
G36*
X91686000Y-89606000D02*
X90684000Y-89606000D01*
X90684000Y-87504000D01*
X91686000Y-87504000D01*
X91686000Y-89606000D01*
X91686000Y-89606000D01*
G37*
G36*
X92956000Y-89606000D02*
X91954000Y-89606000D01*
X91954000Y-87504000D01*
X92956000Y-87504000D01*
X92956000Y-89606000D01*
X92956000Y-89606000D01*
G37*
G36*
X94226000Y-89606000D02*
X93224000Y-89606000D01*
X93224000Y-87504000D01*
X94226000Y-87504000D01*
X94226000Y-89606000D01*
X94226000Y-89606000D01*
G37*
G36*
X171701000Y-89351000D02*
X170699000Y-89351000D01*
X170699000Y-88449000D01*
X171701000Y-88449000D01*
X171701000Y-89351000D01*
X171701000Y-89351000D01*
G37*
G36*
X170201000Y-89351000D02*
X169199000Y-89351000D01*
X169199000Y-88449000D01*
X170201000Y-88449000D01*
X170201000Y-89351000D01*
X170201000Y-89351000D01*
G37*
G36*
X176259999Y-87499737D02*
X176269611Y-87502653D01*
X176278469Y-87507388D01*
X176286237Y-87513763D01*
X176296446Y-87526202D01*
X176303372Y-87536568D01*
X176320698Y-87553895D01*
X176341073Y-87567510D01*
X176363711Y-87576888D01*
X176387745Y-87581669D01*
X176412249Y-87581669D01*
X176436283Y-87576889D01*
X176458922Y-87567513D01*
X176479297Y-87553899D01*
X176496624Y-87536573D01*
X176503552Y-87526204D01*
X176513763Y-87513763D01*
X176521531Y-87507388D01*
X176530389Y-87502653D01*
X176540001Y-87499737D01*
X176556140Y-87498148D01*
X177043860Y-87498148D01*
X177062198Y-87499954D01*
X177074450Y-87500556D01*
X177092869Y-87500556D01*
X177115149Y-87502750D01*
X177199236Y-87519476D01*
X177220655Y-87525974D01*
X177299871Y-87558785D01*
X177319607Y-87569335D01*
X177390897Y-87616969D01*
X177408208Y-87631176D01*
X177468824Y-87691792D01*
X177483031Y-87709103D01*
X177530665Y-87780393D01*
X177541215Y-87800129D01*
X177574026Y-87879345D01*
X177580524Y-87900764D01*
X177597250Y-87984851D01*
X177599444Y-88007131D01*
X177599444Y-88025550D01*
X177600046Y-88037802D01*
X177601852Y-88056140D01*
X177601852Y-88543861D01*
X177600046Y-88562198D01*
X177599444Y-88574450D01*
X177599444Y-88592869D01*
X177597250Y-88615149D01*
X177580524Y-88699236D01*
X177574026Y-88720655D01*
X177541215Y-88799871D01*
X177530665Y-88819607D01*
X177483031Y-88890897D01*
X177468824Y-88908208D01*
X177408208Y-88968824D01*
X177390897Y-88983031D01*
X177319607Y-89030665D01*
X177299871Y-89041215D01*
X177220655Y-89074026D01*
X177199236Y-89080524D01*
X177115149Y-89097250D01*
X177092869Y-89099444D01*
X177074450Y-89099444D01*
X177062198Y-89100046D01*
X177043861Y-89101852D01*
X176556140Y-89101852D01*
X176540001Y-89100263D01*
X176530389Y-89097347D01*
X176521531Y-89092612D01*
X176513763Y-89086237D01*
X176503554Y-89073798D01*
X176496628Y-89063432D01*
X176479302Y-89046105D01*
X176458927Y-89032490D01*
X176436289Y-89023112D01*
X176412255Y-89018331D01*
X176387751Y-89018331D01*
X176363717Y-89023111D01*
X176341078Y-89032487D01*
X176320703Y-89046101D01*
X176303376Y-89063427D01*
X176296448Y-89073796D01*
X176286237Y-89086237D01*
X176278469Y-89092612D01*
X176269611Y-89097347D01*
X176259999Y-89100263D01*
X176243860Y-89101852D01*
X175756139Y-89101852D01*
X175737802Y-89100046D01*
X175725550Y-89099444D01*
X175707131Y-89099444D01*
X175684851Y-89097250D01*
X175600764Y-89080524D01*
X175579345Y-89074026D01*
X175500129Y-89041215D01*
X175480393Y-89030665D01*
X175409103Y-88983031D01*
X175391792Y-88968824D01*
X175331176Y-88908208D01*
X175316969Y-88890897D01*
X175269335Y-88819607D01*
X175258785Y-88799871D01*
X175225974Y-88720655D01*
X175219476Y-88699236D01*
X175202750Y-88615149D01*
X175200556Y-88592869D01*
X175200556Y-88574450D01*
X175199954Y-88562198D01*
X175198148Y-88543861D01*
X175198148Y-88056140D01*
X175199954Y-88037802D01*
X175200556Y-88025550D01*
X175200556Y-88007131D01*
X175202750Y-87984851D01*
X175219476Y-87900764D01*
X175225974Y-87879345D01*
X175258785Y-87800129D01*
X175269335Y-87780393D01*
X175316969Y-87709103D01*
X175331176Y-87691792D01*
X175391792Y-87631176D01*
X175409103Y-87616969D01*
X175480393Y-87569335D01*
X175500129Y-87558785D01*
X175579345Y-87525974D01*
X175600764Y-87519476D01*
X175684851Y-87502750D01*
X175707131Y-87500556D01*
X175725550Y-87500556D01*
X175737802Y-87499954D01*
X175756140Y-87498148D01*
X176243860Y-87498148D01*
X176259999Y-87499737D01*
X176259999Y-87499737D01*
G37*
G36*
X224829591Y-87978085D02*
X224863569Y-87988393D01*
X224894887Y-88005133D01*
X224922339Y-88027661D01*
X224944867Y-88055113D01*
X224961607Y-88086431D01*
X224971915Y-88120409D01*
X224976000Y-88161890D01*
X224976000Y-88838110D01*
X224971915Y-88879591D01*
X224961607Y-88913569D01*
X224944867Y-88944887D01*
X224922339Y-88972339D01*
X224894887Y-88994867D01*
X224863569Y-89011607D01*
X224829591Y-89021915D01*
X224788110Y-89026000D01*
X224186890Y-89026000D01*
X224145409Y-89021915D01*
X224111431Y-89011607D01*
X224080113Y-88994867D01*
X224052661Y-88972339D01*
X224030133Y-88944887D01*
X224013393Y-88913569D01*
X224003085Y-88879591D01*
X223999000Y-88838110D01*
X223999000Y-88161890D01*
X224003085Y-88120409D01*
X224013393Y-88086431D01*
X224030133Y-88055113D01*
X224052661Y-88027661D01*
X224080113Y-88005133D01*
X224111431Y-87988393D01*
X224145409Y-87978085D01*
X224186890Y-87974000D01*
X224788110Y-87974000D01*
X224829591Y-87978085D01*
X224829591Y-87978085D01*
G37*
G36*
X223254591Y-87978085D02*
X223288569Y-87988393D01*
X223319887Y-88005133D01*
X223347339Y-88027661D01*
X223369867Y-88055113D01*
X223386607Y-88086431D01*
X223396915Y-88120409D01*
X223401000Y-88161890D01*
X223401000Y-88838110D01*
X223396915Y-88879591D01*
X223386607Y-88913569D01*
X223369867Y-88944887D01*
X223347339Y-88972339D01*
X223319887Y-88994867D01*
X223288569Y-89011607D01*
X223254591Y-89021915D01*
X223213110Y-89026000D01*
X222611890Y-89026000D01*
X222570409Y-89021915D01*
X222536431Y-89011607D01*
X222505113Y-88994867D01*
X222477661Y-88972339D01*
X222455133Y-88944887D01*
X222438393Y-88913569D01*
X222428085Y-88879591D01*
X222424000Y-88838110D01*
X222424000Y-88161890D01*
X222428085Y-88120409D01*
X222438393Y-88086431D01*
X222455133Y-88055113D01*
X222477661Y-88027661D01*
X222505113Y-88005133D01*
X222536431Y-87988393D01*
X222570409Y-87978085D01*
X222611890Y-87974000D01*
X223213110Y-87974000D01*
X223254591Y-87978085D01*
X223254591Y-87978085D01*
G37*
G36*
X180054591Y-87678085D02*
X180088569Y-87688393D01*
X180119887Y-87705133D01*
X180147339Y-87727661D01*
X180169867Y-87755113D01*
X180186607Y-87786431D01*
X180196915Y-87820409D01*
X180201000Y-87861890D01*
X180201000Y-88538110D01*
X180196915Y-88579591D01*
X180186607Y-88613569D01*
X180169867Y-88644887D01*
X180147339Y-88672339D01*
X180119887Y-88694867D01*
X180088569Y-88711607D01*
X180054591Y-88721915D01*
X180013110Y-88726000D01*
X179411890Y-88726000D01*
X179370409Y-88721915D01*
X179336431Y-88711607D01*
X179305113Y-88694867D01*
X179277661Y-88672339D01*
X179255133Y-88644887D01*
X179238393Y-88613569D01*
X179228085Y-88579591D01*
X179224000Y-88538110D01*
X179224000Y-87861890D01*
X179228085Y-87820409D01*
X179238393Y-87786431D01*
X179255133Y-87755113D01*
X179277661Y-87727661D01*
X179305113Y-87705133D01*
X179336431Y-87688393D01*
X179370409Y-87678085D01*
X179411890Y-87674000D01*
X180013110Y-87674000D01*
X180054591Y-87678085D01*
X180054591Y-87678085D01*
G37*
G36*
X181629591Y-87678085D02*
X181663569Y-87688393D01*
X181694887Y-87705133D01*
X181722339Y-87727661D01*
X181744867Y-87755113D01*
X181761607Y-87786431D01*
X181771915Y-87820409D01*
X181776000Y-87861890D01*
X181776000Y-88538110D01*
X181771915Y-88579591D01*
X181761607Y-88613569D01*
X181744867Y-88644887D01*
X181722339Y-88672339D01*
X181694887Y-88694867D01*
X181663569Y-88711607D01*
X181629591Y-88721915D01*
X181588110Y-88726000D01*
X180986890Y-88726000D01*
X180945409Y-88721915D01*
X180911431Y-88711607D01*
X180880113Y-88694867D01*
X180852661Y-88672339D01*
X180830133Y-88644887D01*
X180813393Y-88613569D01*
X180803085Y-88579591D01*
X180799000Y-88538110D01*
X180799000Y-87861890D01*
X180803085Y-87820409D01*
X180813393Y-87786431D01*
X180830133Y-87755113D01*
X180852661Y-87727661D01*
X180880113Y-87705133D01*
X180911431Y-87688393D01*
X180945409Y-87678085D01*
X180986890Y-87674000D01*
X181588110Y-87674000D01*
X181629591Y-87678085D01*
X181629591Y-87678085D01*
G37*
G36*
X146476000Y-88701000D02*
X145774000Y-88701000D01*
X145774000Y-87099000D01*
X146476000Y-87099000D01*
X146476000Y-88701000D01*
X146476000Y-88701000D01*
G37*
G36*
X152826000Y-88701000D02*
X152124000Y-88701000D01*
X152124000Y-87099000D01*
X152826000Y-87099000D01*
X152826000Y-88701000D01*
X152826000Y-88701000D01*
G37*
G36*
X154096000Y-88701000D02*
X153394000Y-88701000D01*
X153394000Y-87099000D01*
X154096000Y-87099000D01*
X154096000Y-88701000D01*
X154096000Y-88701000D01*
G37*
G36*
X151556000Y-88701000D02*
X150854000Y-88701000D01*
X150854000Y-87099000D01*
X151556000Y-87099000D01*
X151556000Y-88701000D01*
X151556000Y-88701000D01*
G37*
G36*
X150286000Y-88701000D02*
X149584000Y-88701000D01*
X149584000Y-87099000D01*
X150286000Y-87099000D01*
X150286000Y-88701000D01*
X150286000Y-88701000D01*
G37*
G36*
X149016000Y-88701000D02*
X148314000Y-88701000D01*
X148314000Y-87099000D01*
X149016000Y-87099000D01*
X149016000Y-88701000D01*
X149016000Y-88701000D01*
G37*
G36*
X147746000Y-88701000D02*
X147044000Y-88701000D01*
X147044000Y-87099000D01*
X147746000Y-87099000D01*
X147746000Y-88701000D01*
X147746000Y-88701000D01*
G37*
G36*
X145206000Y-88701000D02*
X144504000Y-88701000D01*
X144504000Y-87099000D01*
X145206000Y-87099000D01*
X145206000Y-88701000D01*
X145206000Y-88701000D01*
G37*
G36*
X157254591Y-87578085D02*
X157288569Y-87588393D01*
X157319887Y-87605133D01*
X157347339Y-87627661D01*
X157369867Y-87655113D01*
X157386607Y-87686431D01*
X157396915Y-87720409D01*
X157401000Y-87761890D01*
X157401000Y-88438110D01*
X157396915Y-88479591D01*
X157386607Y-88513569D01*
X157369867Y-88544887D01*
X157347339Y-88572339D01*
X157319887Y-88594867D01*
X157288569Y-88611607D01*
X157254591Y-88621915D01*
X157213110Y-88626000D01*
X156611890Y-88626000D01*
X156570409Y-88621915D01*
X156536431Y-88611607D01*
X156505113Y-88594867D01*
X156477661Y-88572339D01*
X156455133Y-88544887D01*
X156438393Y-88513569D01*
X156428085Y-88479591D01*
X156424000Y-88438110D01*
X156424000Y-87761890D01*
X156428085Y-87720409D01*
X156438393Y-87686431D01*
X156455133Y-87655113D01*
X156477661Y-87627661D01*
X156505113Y-87605133D01*
X156536431Y-87588393D01*
X156570409Y-87578085D01*
X156611890Y-87574000D01*
X157213110Y-87574000D01*
X157254591Y-87578085D01*
X157254591Y-87578085D01*
G37*
G36*
X158829591Y-87578085D02*
X158863569Y-87588393D01*
X158894887Y-87605133D01*
X158922339Y-87627661D01*
X158944867Y-87655113D01*
X158961607Y-87686431D01*
X158971915Y-87720409D01*
X158976000Y-87761890D01*
X158976000Y-88438110D01*
X158971915Y-88479591D01*
X158961607Y-88513569D01*
X158944867Y-88544887D01*
X158922339Y-88572339D01*
X158894887Y-88594867D01*
X158863569Y-88611607D01*
X158829591Y-88621915D01*
X158788110Y-88626000D01*
X158186890Y-88626000D01*
X158145409Y-88621915D01*
X158111431Y-88611607D01*
X158080113Y-88594867D01*
X158052661Y-88572339D01*
X158030133Y-88544887D01*
X158013393Y-88513569D01*
X158003085Y-88479591D01*
X157999000Y-88438110D01*
X157999000Y-87761890D01*
X158003085Y-87720409D01*
X158013393Y-87686431D01*
X158030133Y-87655113D01*
X158052661Y-87627661D01*
X158080113Y-87605133D01*
X158111431Y-87588393D01*
X158145409Y-87578085D01*
X158186890Y-87574000D01*
X158788110Y-87574000D01*
X158829591Y-87578085D01*
X158829591Y-87578085D01*
G37*
G36*
X82379591Y-87503085D02*
X82413569Y-87513393D01*
X82444887Y-87530133D01*
X82472339Y-87552661D01*
X82494867Y-87580113D01*
X82511607Y-87611431D01*
X82521915Y-87645409D01*
X82526000Y-87686890D01*
X82526000Y-88288110D01*
X82521915Y-88329591D01*
X82511607Y-88363569D01*
X82494867Y-88394887D01*
X82472339Y-88422339D01*
X82444887Y-88444867D01*
X82413569Y-88461607D01*
X82379591Y-88471915D01*
X82338110Y-88476000D01*
X81661890Y-88476000D01*
X81620409Y-88471915D01*
X81586431Y-88461607D01*
X81555113Y-88444867D01*
X81527661Y-88422339D01*
X81505133Y-88394887D01*
X81488393Y-88363569D01*
X81478085Y-88329591D01*
X81474000Y-88288110D01*
X81474000Y-87686890D01*
X81478085Y-87645409D01*
X81488393Y-87611431D01*
X81505133Y-87580113D01*
X81527661Y-87552661D01*
X81555113Y-87530133D01*
X81586431Y-87513393D01*
X81620409Y-87503085D01*
X81661890Y-87499000D01*
X82338110Y-87499000D01*
X82379591Y-87503085D01*
X82379591Y-87503085D01*
G37*
G36*
X64201000Y-88451000D02*
X62549000Y-88451000D01*
X62549000Y-87049000D01*
X64201000Y-87049000D01*
X64201000Y-88451000D01*
X64201000Y-88451000D01*
G37*
G36*
X72151000Y-88451000D02*
X70499000Y-88451000D01*
X70499000Y-87049000D01*
X72151000Y-87049000D01*
X72151000Y-88451000D01*
X72151000Y-88451000D01*
G37*
G36*
X168201000Y-88401000D02*
X167199000Y-88401000D01*
X167199000Y-87499000D01*
X168201000Y-87499000D01*
X168201000Y-88401000D01*
X168201000Y-88401000D01*
G37*
G36*
X173701000Y-88401000D02*
X172699000Y-88401000D01*
X172699000Y-87499000D01*
X173701000Y-87499000D01*
X173701000Y-88401000D01*
X173701000Y-88401000D01*
G37*
G36*
X106451000Y-88056000D02*
X104349000Y-88056000D01*
X104349000Y-87054000D01*
X106451000Y-87054000D01*
X106451000Y-88056000D01*
X106451000Y-88056000D01*
G37*
G36*
X89451000Y-88056000D02*
X87349000Y-88056000D01*
X87349000Y-87054000D01*
X89451000Y-87054000D01*
X89451000Y-88056000D01*
X89451000Y-88056000D01*
G37*
G36*
X79359999Y-85699737D02*
X79369611Y-85702653D01*
X79378469Y-85707388D01*
X79386237Y-85713763D01*
X79396446Y-85726202D01*
X79403372Y-85736568D01*
X79420698Y-85753895D01*
X79441073Y-85767510D01*
X79463711Y-85776888D01*
X79487745Y-85781669D01*
X79512249Y-85781669D01*
X79536283Y-85776889D01*
X79558922Y-85767513D01*
X79579297Y-85753899D01*
X79596624Y-85736573D01*
X79603552Y-85726204D01*
X79613763Y-85713763D01*
X79621531Y-85707388D01*
X79630389Y-85702653D01*
X79640001Y-85699737D01*
X79656140Y-85698148D01*
X80143860Y-85698148D01*
X80162198Y-85699954D01*
X80174450Y-85700556D01*
X80192869Y-85700556D01*
X80215149Y-85702750D01*
X80299236Y-85719476D01*
X80320655Y-85725974D01*
X80399871Y-85758785D01*
X80419607Y-85769335D01*
X80490897Y-85816969D01*
X80508208Y-85831176D01*
X80568824Y-85891792D01*
X80583031Y-85909103D01*
X80630665Y-85980393D01*
X80641215Y-86000129D01*
X80674026Y-86079345D01*
X80680524Y-86100764D01*
X80697250Y-86184851D01*
X80699444Y-86207131D01*
X80699444Y-86225550D01*
X80700046Y-86237802D01*
X80701852Y-86256140D01*
X80701852Y-86743861D01*
X80700046Y-86762198D01*
X80699444Y-86774450D01*
X80699444Y-86792869D01*
X80697250Y-86815149D01*
X80680524Y-86899236D01*
X80674026Y-86920655D01*
X80641215Y-86999871D01*
X80630665Y-87019607D01*
X80583031Y-87090897D01*
X80568824Y-87108208D01*
X80508208Y-87168824D01*
X80490897Y-87183031D01*
X80419607Y-87230665D01*
X80399871Y-87241215D01*
X80320655Y-87274026D01*
X80299236Y-87280524D01*
X80215149Y-87297250D01*
X80192869Y-87299444D01*
X80174450Y-87299444D01*
X80162198Y-87300046D01*
X80143861Y-87301852D01*
X79656140Y-87301852D01*
X79640001Y-87300263D01*
X79630389Y-87297347D01*
X79621531Y-87292612D01*
X79613763Y-87286237D01*
X79603554Y-87273798D01*
X79596628Y-87263432D01*
X79579302Y-87246105D01*
X79558927Y-87232490D01*
X79536289Y-87223112D01*
X79512255Y-87218331D01*
X79487751Y-87218331D01*
X79463717Y-87223111D01*
X79441078Y-87232487D01*
X79420703Y-87246101D01*
X79403376Y-87263427D01*
X79396448Y-87273796D01*
X79386237Y-87286237D01*
X79378469Y-87292612D01*
X79369611Y-87297347D01*
X79359999Y-87300263D01*
X79343860Y-87301852D01*
X78856139Y-87301852D01*
X78837802Y-87300046D01*
X78825550Y-87299444D01*
X78807131Y-87299444D01*
X78784851Y-87297250D01*
X78700764Y-87280524D01*
X78679345Y-87274026D01*
X78600129Y-87241215D01*
X78580393Y-87230665D01*
X78509103Y-87183031D01*
X78491792Y-87168824D01*
X78431176Y-87108208D01*
X78416969Y-87090897D01*
X78369335Y-87019607D01*
X78358785Y-86999871D01*
X78325974Y-86920655D01*
X78319476Y-86899236D01*
X78302750Y-86815149D01*
X78300556Y-86792869D01*
X78300556Y-86774450D01*
X78299954Y-86762198D01*
X78298148Y-86743861D01*
X78298148Y-86256140D01*
X78299954Y-86237802D01*
X78300556Y-86225550D01*
X78300556Y-86207131D01*
X78302750Y-86184851D01*
X78319476Y-86100764D01*
X78325974Y-86079345D01*
X78358785Y-86000129D01*
X78369335Y-85980393D01*
X78416969Y-85909103D01*
X78431176Y-85891792D01*
X78491792Y-85831176D01*
X78509103Y-85816969D01*
X78580393Y-85769335D01*
X78600129Y-85758785D01*
X78679345Y-85725974D01*
X78700764Y-85719476D01*
X78784851Y-85702750D01*
X78807131Y-85700556D01*
X78825550Y-85700556D01*
X78837802Y-85699954D01*
X78856140Y-85698148D01*
X79343860Y-85698148D01*
X79359999Y-85699737D01*
X79359999Y-85699737D01*
G37*
G36*
X82379591Y-85928085D02*
X82413569Y-85938393D01*
X82444887Y-85955133D01*
X82472339Y-85977661D01*
X82494867Y-86005113D01*
X82511607Y-86036431D01*
X82521915Y-86070409D01*
X82526000Y-86111890D01*
X82526000Y-86713110D01*
X82521915Y-86754591D01*
X82511607Y-86788569D01*
X82494867Y-86819887D01*
X82472339Y-86847339D01*
X82444887Y-86869867D01*
X82413569Y-86886607D01*
X82379591Y-86896915D01*
X82338110Y-86901000D01*
X81661890Y-86901000D01*
X81620409Y-86896915D01*
X81586431Y-86886607D01*
X81555113Y-86869867D01*
X81527661Y-86847339D01*
X81505133Y-86819887D01*
X81488393Y-86788569D01*
X81478085Y-86754591D01*
X81474000Y-86713110D01*
X81474000Y-86111890D01*
X81478085Y-86070409D01*
X81488393Y-86036431D01*
X81505133Y-86005113D01*
X81527661Y-85977661D01*
X81555113Y-85955133D01*
X81586431Y-85938393D01*
X81620409Y-85928085D01*
X81661890Y-85924000D01*
X82338110Y-85924000D01*
X82379591Y-85928085D01*
X82379591Y-85928085D01*
G37*
G36*
X106451000Y-86786000D02*
X104349000Y-86786000D01*
X104349000Y-85784000D01*
X106451000Y-85784000D01*
X106451000Y-86786000D01*
X106451000Y-86786000D01*
G37*
G36*
X89451000Y-86786000D02*
X87349000Y-86786000D01*
X87349000Y-85784000D01*
X89451000Y-85784000D01*
X89451000Y-86786000D01*
X89451000Y-86786000D01*
G37*
G36*
X233551000Y-85951000D02*
X231899000Y-85951000D01*
X231899000Y-84549000D01*
X233551000Y-84549000D01*
X233551000Y-85951000D01*
X233551000Y-85951000D01*
G37*
G36*
X241501000Y-85951000D02*
X239849000Y-85951000D01*
X239849000Y-84549000D01*
X241501000Y-84549000D01*
X241501000Y-85951000D01*
X241501000Y-85951000D01*
G37*
G36*
X89451000Y-85516000D02*
X87349000Y-85516000D01*
X87349000Y-84514000D01*
X89451000Y-84514000D01*
X89451000Y-85516000D01*
X89451000Y-85516000D01*
G37*
G36*
X106451000Y-85516000D02*
X104349000Y-85516000D01*
X104349000Y-84514000D01*
X106451000Y-84514000D01*
X106451000Y-85516000D01*
X106451000Y-85516000D01*
G37*
G36*
X106451000Y-84246000D02*
X104349000Y-84246000D01*
X104349000Y-83244000D01*
X106451000Y-83244000D01*
X106451000Y-84246000D01*
X106451000Y-84246000D01*
G37*
G36*
X89451000Y-84246000D02*
X87349000Y-84246000D01*
X87349000Y-83244000D01*
X89451000Y-83244000D01*
X89451000Y-84246000D01*
X89451000Y-84246000D01*
G37*
G36*
X64201000Y-83951000D02*
X62549000Y-83951000D01*
X62549000Y-82549000D01*
X64201000Y-82549000D01*
X64201000Y-83951000D01*
X64201000Y-83951000D01*
G37*
G36*
X72151000Y-83951000D02*
X70499000Y-83951000D01*
X70499000Y-82549000D01*
X72151000Y-82549000D01*
X72151000Y-83951000D01*
X72151000Y-83951000D01*
G37*
G36*
X89451000Y-82976000D02*
X87349000Y-82976000D01*
X87349000Y-81974000D01*
X89451000Y-81974000D01*
X89451000Y-82976000D01*
X89451000Y-82976000D01*
G37*
G36*
X106451000Y-82976000D02*
X104349000Y-82976000D01*
X104349000Y-81974000D01*
X106451000Y-81974000D01*
X106451000Y-82976000D01*
X106451000Y-82976000D01*
G37*
G36*
X81279591Y-80903085D02*
X81313569Y-80913393D01*
X81344887Y-80930133D01*
X81372339Y-80952661D01*
X81394867Y-80980113D01*
X81411607Y-81011431D01*
X81421915Y-81045409D01*
X81426000Y-81086890D01*
X81426000Y-81688110D01*
X81421915Y-81729591D01*
X81411607Y-81763569D01*
X81394867Y-81794887D01*
X81372339Y-81822339D01*
X81344887Y-81844867D01*
X81313569Y-81861607D01*
X81279591Y-81871915D01*
X81238110Y-81876000D01*
X80561890Y-81876000D01*
X80520409Y-81871915D01*
X80486431Y-81861607D01*
X80455113Y-81844867D01*
X80427661Y-81822339D01*
X80405133Y-81794887D01*
X80388393Y-81763569D01*
X80378085Y-81729591D01*
X80374000Y-81688110D01*
X80374000Y-81086890D01*
X80378085Y-81045409D01*
X80388393Y-81011431D01*
X80405133Y-80980113D01*
X80427661Y-80952661D01*
X80455113Y-80930133D01*
X80486431Y-80913393D01*
X80520409Y-80903085D01*
X80561890Y-80899000D01*
X81238110Y-80899000D01*
X81279591Y-80903085D01*
X81279591Y-80903085D01*
G37*
G36*
X82779591Y-80903085D02*
X82813569Y-80913393D01*
X82844887Y-80930133D01*
X82872339Y-80952661D01*
X82894867Y-80980113D01*
X82911607Y-81011431D01*
X82921915Y-81045409D01*
X82926000Y-81086890D01*
X82926000Y-81688110D01*
X82921915Y-81729591D01*
X82911607Y-81763569D01*
X82894867Y-81794887D01*
X82872339Y-81822339D01*
X82844887Y-81844867D01*
X82813569Y-81861607D01*
X82779591Y-81871915D01*
X82738110Y-81876000D01*
X82061890Y-81876000D01*
X82020409Y-81871915D01*
X81986431Y-81861607D01*
X81955113Y-81844867D01*
X81927661Y-81822339D01*
X81905133Y-81794887D01*
X81888393Y-81763569D01*
X81878085Y-81729591D01*
X81874000Y-81688110D01*
X81874000Y-81086890D01*
X81878085Y-81045409D01*
X81888393Y-81011431D01*
X81905133Y-80980113D01*
X81927661Y-80952661D01*
X81955113Y-80930133D01*
X81986431Y-80913393D01*
X82020409Y-80903085D01*
X82061890Y-80899000D01*
X82738110Y-80899000D01*
X82779591Y-80903085D01*
X82779591Y-80903085D01*
G37*
G36*
X78279591Y-80903085D02*
X78313569Y-80913393D01*
X78344887Y-80930133D01*
X78372339Y-80952661D01*
X78394867Y-80980113D01*
X78411607Y-81011431D01*
X78421915Y-81045409D01*
X78426000Y-81086890D01*
X78426000Y-81688110D01*
X78421915Y-81729591D01*
X78411607Y-81763569D01*
X78394867Y-81794887D01*
X78372339Y-81822339D01*
X78344887Y-81844867D01*
X78313569Y-81861607D01*
X78279591Y-81871915D01*
X78238110Y-81876000D01*
X77561890Y-81876000D01*
X77520409Y-81871915D01*
X77486431Y-81861607D01*
X77455113Y-81844867D01*
X77427661Y-81822339D01*
X77405133Y-81794887D01*
X77388393Y-81763569D01*
X77378085Y-81729591D01*
X77374000Y-81688110D01*
X77374000Y-81086890D01*
X77378085Y-81045409D01*
X77388393Y-81011431D01*
X77405133Y-80980113D01*
X77427661Y-80952661D01*
X77455113Y-80930133D01*
X77486431Y-80913393D01*
X77520409Y-80903085D01*
X77561890Y-80899000D01*
X78238110Y-80899000D01*
X78279591Y-80903085D01*
X78279591Y-80903085D01*
G37*
G36*
X79779591Y-80903085D02*
X79813569Y-80913393D01*
X79844887Y-80930133D01*
X79872339Y-80952661D01*
X79894867Y-80980113D01*
X79911607Y-81011431D01*
X79921915Y-81045409D01*
X79926000Y-81086890D01*
X79926000Y-81688110D01*
X79921915Y-81729591D01*
X79911607Y-81763569D01*
X79894867Y-81794887D01*
X79872339Y-81822339D01*
X79844887Y-81844867D01*
X79813569Y-81861607D01*
X79779591Y-81871915D01*
X79738110Y-81876000D01*
X79061890Y-81876000D01*
X79020409Y-81871915D01*
X78986431Y-81861607D01*
X78955113Y-81844867D01*
X78927661Y-81822339D01*
X78905133Y-81794887D01*
X78888393Y-81763569D01*
X78878085Y-81729591D01*
X78874000Y-81688110D01*
X78874000Y-81086890D01*
X78878085Y-81045409D01*
X78888393Y-81011431D01*
X78905133Y-80980113D01*
X78927661Y-80952661D01*
X78955113Y-80930133D01*
X78986431Y-80913393D01*
X79020409Y-80903085D01*
X79061890Y-80899000D01*
X79738110Y-80899000D01*
X79779591Y-80903085D01*
X79779591Y-80903085D01*
G37*
G36*
X89451000Y-81706000D02*
X87349000Y-81706000D01*
X87349000Y-80704000D01*
X89451000Y-80704000D01*
X89451000Y-81706000D01*
X89451000Y-81706000D01*
G37*
G36*
X106451000Y-81706000D02*
X104349000Y-81706000D01*
X104349000Y-80704000D01*
X106451000Y-80704000D01*
X106451000Y-81706000D01*
X106451000Y-81706000D01*
G37*
G36*
X94245845Y-80719215D02*
X94336839Y-80756906D01*
X94417640Y-80810896D01*
X94418734Y-80811627D01*
X94488373Y-80881266D01*
X94543095Y-80963163D01*
X94580785Y-81054155D01*
X94600000Y-81150755D01*
X94600000Y-81249245D01*
X94580785Y-81345845D01*
X94543095Y-81436837D01*
X94488373Y-81518734D01*
X94418734Y-81588373D01*
X94418731Y-81588375D01*
X94336839Y-81643094D01*
X94245845Y-81680785D01*
X94149246Y-81700000D01*
X94050754Y-81700000D01*
X93954155Y-81680785D01*
X93863161Y-81643094D01*
X93781269Y-81588375D01*
X93781266Y-81588373D01*
X93711627Y-81518734D01*
X93656905Y-81436837D01*
X93619215Y-81345845D01*
X93600000Y-81249245D01*
X93600000Y-81150755D01*
X93619215Y-81054155D01*
X93656905Y-80963163D01*
X93711627Y-80881266D01*
X93781266Y-80811627D01*
X93782360Y-80810896D01*
X93863161Y-80756906D01*
X93954155Y-80719215D01*
X94050754Y-80700000D01*
X94149246Y-80700000D01*
X94245845Y-80719215D01*
X94245845Y-80719215D01*
G37*
G36*
X100451000Y-81096000D02*
X95349000Y-81096000D01*
X95349000Y-75994000D01*
X100451000Y-75994000D01*
X100451000Y-81096000D01*
X100451000Y-81096000D01*
G37*
G36*
X89451000Y-80436000D02*
X87349000Y-80436000D01*
X87349000Y-79434000D01*
X89451000Y-79434000D01*
X89451000Y-80436000D01*
X89451000Y-80436000D01*
G37*
G36*
X106451000Y-80436000D02*
X104349000Y-80436000D01*
X104349000Y-79434000D01*
X106451000Y-79434000D01*
X106451000Y-80436000D01*
X106451000Y-80436000D01*
G37*
G36*
X79779591Y-79328085D02*
X79813569Y-79338393D01*
X79844887Y-79355133D01*
X79872339Y-79377661D01*
X79894867Y-79405113D01*
X79911607Y-79436431D01*
X79921915Y-79470409D01*
X79926000Y-79511890D01*
X79926000Y-80113110D01*
X79921915Y-80154591D01*
X79911607Y-80188569D01*
X79894867Y-80219887D01*
X79872339Y-80247339D01*
X79844887Y-80269867D01*
X79813569Y-80286607D01*
X79779591Y-80296915D01*
X79738110Y-80301000D01*
X79061890Y-80301000D01*
X79020409Y-80296915D01*
X78986431Y-80286607D01*
X78955113Y-80269867D01*
X78927661Y-80247339D01*
X78905133Y-80219887D01*
X78888393Y-80188569D01*
X78878085Y-80154591D01*
X78874000Y-80113110D01*
X78874000Y-79511890D01*
X78878085Y-79470409D01*
X78888393Y-79436431D01*
X78905133Y-79405113D01*
X78927661Y-79377661D01*
X78955113Y-79355133D01*
X78986431Y-79338393D01*
X79020409Y-79328085D01*
X79061890Y-79324000D01*
X79738110Y-79324000D01*
X79779591Y-79328085D01*
X79779591Y-79328085D01*
G37*
G36*
X82779591Y-79328085D02*
X82813569Y-79338393D01*
X82844887Y-79355133D01*
X82872339Y-79377661D01*
X82894867Y-79405113D01*
X82911607Y-79436431D01*
X82921915Y-79470409D01*
X82926000Y-79511890D01*
X82926000Y-80113110D01*
X82921915Y-80154591D01*
X82911607Y-80188569D01*
X82894867Y-80219887D01*
X82872339Y-80247339D01*
X82844887Y-80269867D01*
X82813569Y-80286607D01*
X82779591Y-80296915D01*
X82738110Y-80301000D01*
X82061890Y-80301000D01*
X82020409Y-80296915D01*
X81986431Y-80286607D01*
X81955113Y-80269867D01*
X81927661Y-80247339D01*
X81905133Y-80219887D01*
X81888393Y-80188569D01*
X81878085Y-80154591D01*
X81874000Y-80113110D01*
X81874000Y-79511890D01*
X81878085Y-79470409D01*
X81888393Y-79436431D01*
X81905133Y-79405113D01*
X81927661Y-79377661D01*
X81955113Y-79355133D01*
X81986431Y-79338393D01*
X82020409Y-79328085D01*
X82061890Y-79324000D01*
X82738110Y-79324000D01*
X82779591Y-79328085D01*
X82779591Y-79328085D01*
G37*
G36*
X78279591Y-79328085D02*
X78313569Y-79338393D01*
X78344887Y-79355133D01*
X78372339Y-79377661D01*
X78394867Y-79405113D01*
X78411607Y-79436431D01*
X78421915Y-79470409D01*
X78426000Y-79511890D01*
X78426000Y-80113110D01*
X78421915Y-80154591D01*
X78411607Y-80188569D01*
X78394867Y-80219887D01*
X78372339Y-80247339D01*
X78344887Y-80269867D01*
X78313569Y-80286607D01*
X78279591Y-80296915D01*
X78238110Y-80301000D01*
X77561890Y-80301000D01*
X77520409Y-80296915D01*
X77486431Y-80286607D01*
X77455113Y-80269867D01*
X77427661Y-80247339D01*
X77405133Y-80219887D01*
X77388393Y-80188569D01*
X77378085Y-80154591D01*
X77374000Y-80113110D01*
X77374000Y-79511890D01*
X77378085Y-79470409D01*
X77388393Y-79436431D01*
X77405133Y-79405113D01*
X77427661Y-79377661D01*
X77455113Y-79355133D01*
X77486431Y-79338393D01*
X77520409Y-79328085D01*
X77561890Y-79324000D01*
X78238110Y-79324000D01*
X78279591Y-79328085D01*
X78279591Y-79328085D01*
G37*
G36*
X81279591Y-79328085D02*
X81313569Y-79338393D01*
X81344887Y-79355133D01*
X81372339Y-79377661D01*
X81394867Y-79405113D01*
X81411607Y-79436431D01*
X81421915Y-79470409D01*
X81426000Y-79511890D01*
X81426000Y-80113110D01*
X81421915Y-80154591D01*
X81411607Y-80188569D01*
X81394867Y-80219887D01*
X81372339Y-80247339D01*
X81344887Y-80269867D01*
X81313569Y-80286607D01*
X81279591Y-80296915D01*
X81238110Y-80301000D01*
X80561890Y-80301000D01*
X80520409Y-80296915D01*
X80486431Y-80286607D01*
X80455113Y-80269867D01*
X80427661Y-80247339D01*
X80405133Y-80219887D01*
X80388393Y-80188569D01*
X80378085Y-80154591D01*
X80374000Y-80113110D01*
X80374000Y-79511890D01*
X80378085Y-79470409D01*
X80388393Y-79436431D01*
X80405133Y-79405113D01*
X80427661Y-79377661D01*
X80455113Y-79355133D01*
X80486431Y-79338393D01*
X80520409Y-79328085D01*
X80561890Y-79324000D01*
X81238110Y-79324000D01*
X81279591Y-79328085D01*
X81279591Y-79328085D01*
G37*
G36*
X56551000Y-80296000D02*
X54949000Y-80296000D01*
X54949000Y-79594000D01*
X56551000Y-79594000D01*
X56551000Y-80296000D01*
X56551000Y-80296000D01*
G37*
G36*
X61951000Y-80296000D02*
X60349000Y-80296000D01*
X60349000Y-79594000D01*
X61951000Y-79594000D01*
X61951000Y-80296000D01*
X61951000Y-80296000D01*
G37*
G36*
X106451000Y-79166000D02*
X104349000Y-79166000D01*
X104349000Y-78164000D01*
X106451000Y-78164000D01*
X106451000Y-79166000D01*
X106451000Y-79166000D01*
G37*
G36*
X89451000Y-79166000D02*
X87349000Y-79166000D01*
X87349000Y-78164000D01*
X89451000Y-78164000D01*
X89451000Y-79166000D01*
X89451000Y-79166000D01*
G37*
G36*
X61951000Y-79026000D02*
X60349000Y-79026000D01*
X60349000Y-78324000D01*
X61951000Y-78324000D01*
X61951000Y-79026000D01*
X61951000Y-79026000D01*
G37*
G36*
X56551000Y-79026000D02*
X54949000Y-79026000D01*
X54949000Y-78324000D01*
X56551000Y-78324000D01*
X56551000Y-79026000D01*
X56551000Y-79026000D01*
G37*
G36*
X89451000Y-77896000D02*
X87349000Y-77896000D01*
X87349000Y-76894000D01*
X89451000Y-76894000D01*
X89451000Y-77896000D01*
X89451000Y-77896000D01*
G37*
G36*
X106451000Y-77896000D02*
X104349000Y-77896000D01*
X104349000Y-76894000D01*
X106451000Y-76894000D01*
X106451000Y-77896000D01*
X106451000Y-77896000D01*
G37*
G36*
X61951000Y-77756000D02*
X60349000Y-77756000D01*
X60349000Y-77054000D01*
X61951000Y-77054000D01*
X61951000Y-77756000D01*
X61951000Y-77756000D01*
G37*
G36*
X56551000Y-77756000D02*
X54949000Y-77756000D01*
X54949000Y-77054000D01*
X56551000Y-77054000D01*
X56551000Y-77756000D01*
X56551000Y-77756000D01*
G37*
G36*
X67801000Y-77051000D02*
X66799000Y-77051000D01*
X66799000Y-76149000D01*
X67801000Y-76149000D01*
X67801000Y-77051000D01*
X67801000Y-77051000D01*
G37*
G36*
X106451000Y-76626000D02*
X104349000Y-76626000D01*
X104349000Y-75624000D01*
X106451000Y-75624000D01*
X106451000Y-76626000D01*
X106451000Y-76626000D01*
G37*
G36*
X66079591Y-75653085D02*
X66113569Y-75663393D01*
X66144887Y-75680133D01*
X66172339Y-75702661D01*
X66194867Y-75730113D01*
X66211607Y-75761431D01*
X66221915Y-75795409D01*
X66226000Y-75836890D01*
X66226000Y-76438110D01*
X66221915Y-76479591D01*
X66211607Y-76513569D01*
X66194867Y-76544887D01*
X66172339Y-76572339D01*
X66144887Y-76594867D01*
X66113569Y-76611607D01*
X66079591Y-76621915D01*
X66038110Y-76626000D01*
X65361890Y-76626000D01*
X65320409Y-76621915D01*
X65286431Y-76611607D01*
X65255113Y-76594867D01*
X65227661Y-76572339D01*
X65205133Y-76544887D01*
X65188393Y-76513569D01*
X65178085Y-76479591D01*
X65174000Y-76438110D01*
X65174000Y-75836890D01*
X65178085Y-75795409D01*
X65188393Y-75761431D01*
X65205133Y-75730113D01*
X65227661Y-75702661D01*
X65255113Y-75680133D01*
X65286431Y-75663393D01*
X65320409Y-75653085D01*
X65361890Y-75649000D01*
X66038110Y-75649000D01*
X66079591Y-75653085D01*
X66079591Y-75653085D01*
G37*
G36*
X89451000Y-76626000D02*
X87349000Y-76626000D01*
X87349000Y-75624000D01*
X89451000Y-75624000D01*
X89451000Y-76626000D01*
X89451000Y-76626000D01*
G37*
G36*
X56551000Y-76486000D02*
X54949000Y-76486000D01*
X54949000Y-75784000D01*
X56551000Y-75784000D01*
X56551000Y-76486000D01*
X56551000Y-76486000D01*
G37*
G36*
X61951000Y-76486000D02*
X60349000Y-76486000D01*
X60349000Y-75784000D01*
X61951000Y-75784000D01*
X61951000Y-76486000D01*
X61951000Y-76486000D01*
G37*
G36*
X69801000Y-76101000D02*
X68799000Y-76101000D01*
X68799000Y-75199000D01*
X69801000Y-75199000D01*
X69801000Y-76101000D01*
X69801000Y-76101000D01*
G37*
G36*
X106451000Y-75356000D02*
X104349000Y-75356000D01*
X104349000Y-74354000D01*
X106451000Y-74354000D01*
X106451000Y-75356000D01*
X106451000Y-75356000D01*
G37*
G36*
X89451000Y-75356000D02*
X87349000Y-75356000D01*
X87349000Y-74354000D01*
X89451000Y-74354000D01*
X89451000Y-75356000D01*
X89451000Y-75356000D01*
G37*
G36*
X56551000Y-75216000D02*
X54949000Y-75216000D01*
X54949000Y-74514000D01*
X56551000Y-74514000D01*
X56551000Y-75216000D01*
X56551000Y-75216000D01*
G37*
G36*
X61951000Y-75216000D02*
X60349000Y-75216000D01*
X60349000Y-74514000D01*
X61951000Y-74514000D01*
X61951000Y-75216000D01*
X61951000Y-75216000D01*
G37*
G36*
X67801000Y-75151000D02*
X66799000Y-75151000D01*
X66799000Y-74249000D01*
X67801000Y-74249000D01*
X67801000Y-75151000D01*
X67801000Y-75151000D01*
G37*
G36*
X66079591Y-74078085D02*
X66113569Y-74088393D01*
X66144887Y-74105133D01*
X66172339Y-74127661D01*
X66194867Y-74155113D01*
X66211607Y-74186431D01*
X66221915Y-74220409D01*
X66226000Y-74261890D01*
X66226000Y-74863110D01*
X66221915Y-74904591D01*
X66211607Y-74938569D01*
X66194867Y-74969887D01*
X66172339Y-74997339D01*
X66144887Y-75019867D01*
X66113569Y-75036607D01*
X66079591Y-75046915D01*
X66038110Y-75051000D01*
X65361890Y-75051000D01*
X65320409Y-75046915D01*
X65286431Y-75036607D01*
X65255113Y-75019867D01*
X65227661Y-74997339D01*
X65205133Y-74969887D01*
X65188393Y-74938569D01*
X65178085Y-74904591D01*
X65174000Y-74863110D01*
X65174000Y-74261890D01*
X65178085Y-74220409D01*
X65188393Y-74186431D01*
X65205133Y-74155113D01*
X65227661Y-74127661D01*
X65255113Y-74105133D01*
X65286431Y-74088393D01*
X65320409Y-74078085D01*
X65361890Y-74074000D01*
X66038110Y-74074000D01*
X66079591Y-74078085D01*
X66079591Y-74078085D01*
G37*
G36*
X89451000Y-74086000D02*
X87349000Y-74086000D01*
X87349000Y-73084000D01*
X89451000Y-73084000D01*
X89451000Y-74086000D01*
X89451000Y-74086000D01*
G37*
G36*
X106451000Y-74086000D02*
X104349000Y-74086000D01*
X104349000Y-73084000D01*
X106451000Y-73084000D01*
X106451000Y-74086000D01*
X106451000Y-74086000D01*
G37*
G36*
X61951000Y-73946000D02*
X60349000Y-73946000D01*
X60349000Y-73244000D01*
X61951000Y-73244000D01*
X61951000Y-73946000D01*
X61951000Y-73946000D01*
G37*
G36*
X56551000Y-73946000D02*
X54949000Y-73946000D01*
X54949000Y-73244000D01*
X56551000Y-73244000D01*
X56551000Y-73946000D01*
X56551000Y-73946000D01*
G37*
G36*
X110829591Y-72903085D02*
X110863569Y-72913393D01*
X110894887Y-72930133D01*
X110922339Y-72952661D01*
X110944867Y-72980113D01*
X110961607Y-73011431D01*
X110971915Y-73045409D01*
X110976000Y-73086890D01*
X110976000Y-73688110D01*
X110971915Y-73729591D01*
X110961607Y-73763569D01*
X110944867Y-73794887D01*
X110922339Y-73822339D01*
X110894887Y-73844867D01*
X110863569Y-73861607D01*
X110829591Y-73871915D01*
X110788110Y-73876000D01*
X110111890Y-73876000D01*
X110070409Y-73871915D01*
X110036431Y-73861607D01*
X110005113Y-73844867D01*
X109977661Y-73822339D01*
X109955133Y-73794887D01*
X109938393Y-73763569D01*
X109928085Y-73729591D01*
X109924000Y-73688110D01*
X109924000Y-73086890D01*
X109928085Y-73045409D01*
X109938393Y-73011431D01*
X109955133Y-72980113D01*
X109977661Y-72952661D01*
X110005113Y-72930133D01*
X110036431Y-72913393D01*
X110070409Y-72903085D01*
X110111890Y-72899000D01*
X110788110Y-72899000D01*
X110829591Y-72903085D01*
X110829591Y-72903085D01*
G37*
G36*
X112379591Y-72903085D02*
X112413569Y-72913393D01*
X112444887Y-72930133D01*
X112472339Y-72952661D01*
X112494867Y-72980113D01*
X112511607Y-73011431D01*
X112521915Y-73045409D01*
X112526000Y-73086890D01*
X112526000Y-73688110D01*
X112521915Y-73729591D01*
X112511607Y-73763569D01*
X112494867Y-73794887D01*
X112472339Y-73822339D01*
X112444887Y-73844867D01*
X112413569Y-73861607D01*
X112379591Y-73871915D01*
X112338110Y-73876000D01*
X111661890Y-73876000D01*
X111620409Y-73871915D01*
X111586431Y-73861607D01*
X111555113Y-73844867D01*
X111527661Y-73822339D01*
X111505133Y-73794887D01*
X111488393Y-73763569D01*
X111478085Y-73729591D01*
X111474000Y-73688110D01*
X111474000Y-73086890D01*
X111478085Y-73045409D01*
X111488393Y-73011431D01*
X111505133Y-72980113D01*
X111527661Y-72952661D01*
X111555113Y-72930133D01*
X111586431Y-72913393D01*
X111620409Y-72903085D01*
X111661890Y-72899000D01*
X112338110Y-72899000D01*
X112379591Y-72903085D01*
X112379591Y-72903085D01*
G37*
G36*
X115179591Y-72903085D02*
X115213569Y-72913393D01*
X115244887Y-72930133D01*
X115272339Y-72952661D01*
X115294867Y-72980113D01*
X115311607Y-73011431D01*
X115321915Y-73045409D01*
X115326000Y-73086890D01*
X115326000Y-73688110D01*
X115321915Y-73729591D01*
X115311607Y-73763569D01*
X115294867Y-73794887D01*
X115272339Y-73822339D01*
X115244887Y-73844867D01*
X115213569Y-73861607D01*
X115179591Y-73871915D01*
X115138110Y-73876000D01*
X114461890Y-73876000D01*
X114420409Y-73871915D01*
X114386431Y-73861607D01*
X114355113Y-73844867D01*
X114327661Y-73822339D01*
X114305133Y-73794887D01*
X114288393Y-73763569D01*
X114278085Y-73729591D01*
X114274000Y-73688110D01*
X114274000Y-73086890D01*
X114278085Y-73045409D01*
X114288393Y-73011431D01*
X114305133Y-72980113D01*
X114327661Y-72952661D01*
X114355113Y-72930133D01*
X114386431Y-72913393D01*
X114420409Y-72903085D01*
X114461890Y-72899000D01*
X115138110Y-72899000D01*
X115179591Y-72903085D01*
X115179591Y-72903085D01*
G37*
G36*
X109279591Y-72903085D02*
X109313569Y-72913393D01*
X109344887Y-72930133D01*
X109372339Y-72952661D01*
X109394867Y-72980113D01*
X109411607Y-73011431D01*
X109421915Y-73045409D01*
X109426000Y-73086890D01*
X109426000Y-73688110D01*
X109421915Y-73729591D01*
X109411607Y-73763569D01*
X109394867Y-73794887D01*
X109372339Y-73822339D01*
X109344887Y-73844867D01*
X109313569Y-73861607D01*
X109279591Y-73871915D01*
X109238110Y-73876000D01*
X108561890Y-73876000D01*
X108520409Y-73871915D01*
X108486431Y-73861607D01*
X108455113Y-73844867D01*
X108427661Y-73822339D01*
X108405133Y-73794887D01*
X108388393Y-73763569D01*
X108378085Y-73729591D01*
X108374000Y-73688110D01*
X108374000Y-73086890D01*
X108378085Y-73045409D01*
X108388393Y-73011431D01*
X108405133Y-72980113D01*
X108427661Y-72952661D01*
X108455113Y-72930133D01*
X108486431Y-72913393D01*
X108520409Y-72903085D01*
X108561890Y-72899000D01*
X109238110Y-72899000D01*
X109279591Y-72903085D01*
X109279591Y-72903085D01*
G37*
G36*
X116650158Y-72868086D02*
X116684136Y-72878394D01*
X116715454Y-72895134D01*
X116742906Y-72917662D01*
X116765434Y-72945114D01*
X116782174Y-72976432D01*
X116792482Y-73010410D01*
X116796567Y-73051891D01*
X116796567Y-73653111D01*
X116792482Y-73694592D01*
X116782174Y-73728570D01*
X116765434Y-73759888D01*
X116742906Y-73787340D01*
X116715454Y-73809868D01*
X116684136Y-73826608D01*
X116650158Y-73836916D01*
X116608677Y-73841001D01*
X115932457Y-73841001D01*
X115890976Y-73836916D01*
X115856998Y-73826608D01*
X115825680Y-73809868D01*
X115798228Y-73787340D01*
X115775700Y-73759888D01*
X115758960Y-73728570D01*
X115748652Y-73694592D01*
X115744567Y-73653111D01*
X115744567Y-73051891D01*
X115748652Y-73010410D01*
X115758960Y-72976432D01*
X115775700Y-72945114D01*
X115798228Y-72917662D01*
X115825680Y-72895134D01*
X115856998Y-72878394D01*
X115890976Y-72868086D01*
X115932457Y-72864001D01*
X116608677Y-72864001D01*
X116650158Y-72868086D01*
X116650158Y-72868086D01*
G37*
G36*
X118160158Y-72868086D02*
X118194136Y-72878394D01*
X118225454Y-72895134D01*
X118252906Y-72917662D01*
X118275434Y-72945114D01*
X118292174Y-72976432D01*
X118302482Y-73010410D01*
X118306567Y-73051891D01*
X118306567Y-73653111D01*
X118302482Y-73694592D01*
X118292174Y-73728570D01*
X118275434Y-73759888D01*
X118252906Y-73787340D01*
X118225454Y-73809868D01*
X118194136Y-73826608D01*
X118160158Y-73836916D01*
X118118677Y-73841001D01*
X117442457Y-73841001D01*
X117400976Y-73836916D01*
X117366998Y-73826608D01*
X117335680Y-73809868D01*
X117308228Y-73787340D01*
X117285700Y-73759888D01*
X117268960Y-73728570D01*
X117258652Y-73694592D01*
X117254567Y-73653111D01*
X117254567Y-73051891D01*
X117258652Y-73010410D01*
X117268960Y-72976432D01*
X117285700Y-72945114D01*
X117308228Y-72917662D01*
X117335680Y-72895134D01*
X117366998Y-72878394D01*
X117400976Y-72868086D01*
X117442457Y-72864001D01*
X118118677Y-72864001D01*
X118160158Y-72868086D01*
X118160158Y-72868086D01*
G37*
G36*
X220679591Y-72703085D02*
X220713569Y-72713393D01*
X220744887Y-72730133D01*
X220772339Y-72752661D01*
X220794867Y-72780113D01*
X220811607Y-72811431D01*
X220821915Y-72845409D01*
X220826000Y-72886890D01*
X220826000Y-73488110D01*
X220821915Y-73529591D01*
X220811607Y-73563569D01*
X220794867Y-73594887D01*
X220772339Y-73622339D01*
X220744887Y-73644867D01*
X220713569Y-73661607D01*
X220679591Y-73671915D01*
X220638110Y-73676000D01*
X219961890Y-73676000D01*
X219920409Y-73671915D01*
X219886431Y-73661607D01*
X219855113Y-73644867D01*
X219827661Y-73622339D01*
X219805133Y-73594887D01*
X219788393Y-73563569D01*
X219778085Y-73529591D01*
X219774000Y-73488110D01*
X219774000Y-72886890D01*
X219778085Y-72845409D01*
X219788393Y-72811431D01*
X219805133Y-72780113D01*
X219827661Y-72752661D01*
X219855113Y-72730133D01*
X219886431Y-72713393D01*
X219920409Y-72703085D01*
X219961890Y-72699000D01*
X220638110Y-72699000D01*
X220679591Y-72703085D01*
X220679591Y-72703085D01*
G37*
G36*
X222279591Y-72703085D02*
X222313569Y-72713393D01*
X222344887Y-72730133D01*
X222372339Y-72752661D01*
X222394867Y-72780113D01*
X222411607Y-72811431D01*
X222421915Y-72845409D01*
X222426000Y-72886890D01*
X222426000Y-73488110D01*
X222421915Y-73529591D01*
X222411607Y-73563569D01*
X222394867Y-73594887D01*
X222372339Y-73622339D01*
X222344887Y-73644867D01*
X222313569Y-73661607D01*
X222279591Y-73671915D01*
X222238110Y-73676000D01*
X221561890Y-73676000D01*
X221520409Y-73671915D01*
X221486431Y-73661607D01*
X221455113Y-73644867D01*
X221427661Y-73622339D01*
X221405133Y-73594887D01*
X221388393Y-73563569D01*
X221378085Y-73529591D01*
X221374000Y-73488110D01*
X221374000Y-72886890D01*
X221378085Y-72845409D01*
X221388393Y-72811431D01*
X221405133Y-72780113D01*
X221427661Y-72752661D01*
X221455113Y-72730133D01*
X221486431Y-72713393D01*
X221520409Y-72703085D01*
X221561890Y-72699000D01*
X222238110Y-72699000D01*
X222279591Y-72703085D01*
X222279591Y-72703085D01*
G37*
G36*
X86401000Y-73566000D02*
X81599000Y-73566000D01*
X81599000Y-70034000D01*
X86401000Y-70034000D01*
X86401000Y-73566000D01*
X86401000Y-73566000D01*
G37*
G36*
X229901000Y-73521000D02*
X225099000Y-73521000D01*
X225099000Y-70079000D01*
X229901000Y-70079000D01*
X229901000Y-73521000D01*
X229901000Y-73521000D01*
G37*
G36*
X66079591Y-72503085D02*
X66113569Y-72513393D01*
X66144887Y-72530133D01*
X66172339Y-72552661D01*
X66194867Y-72580113D01*
X66211607Y-72611431D01*
X66221915Y-72645409D01*
X66226000Y-72686890D01*
X66226000Y-73288110D01*
X66221915Y-73329591D01*
X66211607Y-73363569D01*
X66194867Y-73394887D01*
X66172339Y-73422339D01*
X66144887Y-73444867D01*
X66113569Y-73461607D01*
X66079591Y-73471915D01*
X66038110Y-73476000D01*
X65361890Y-73476000D01*
X65320409Y-73471915D01*
X65286431Y-73461607D01*
X65255113Y-73444867D01*
X65227661Y-73422339D01*
X65205133Y-73394887D01*
X65188393Y-73363569D01*
X65178085Y-73329591D01*
X65174000Y-73288110D01*
X65174000Y-72686890D01*
X65178085Y-72645409D01*
X65188393Y-72611431D01*
X65205133Y-72580113D01*
X65227661Y-72552661D01*
X65255113Y-72530133D01*
X65286431Y-72513393D01*
X65320409Y-72503085D01*
X65361890Y-72499000D01*
X66038110Y-72499000D01*
X66079591Y-72503085D01*
X66079591Y-72503085D01*
G37*
G36*
X67801000Y-73351000D02*
X66799000Y-73351000D01*
X66799000Y-72449000D01*
X67801000Y-72449000D01*
X67801000Y-73351000D01*
X67801000Y-73351000D01*
G37*
G36*
X79079591Y-72103085D02*
X79113569Y-72113393D01*
X79144887Y-72130133D01*
X79172339Y-72152661D01*
X79194867Y-72180113D01*
X79211607Y-72211431D01*
X79221915Y-72245409D01*
X79226000Y-72286890D01*
X79226000Y-72888110D01*
X79221915Y-72929591D01*
X79211607Y-72963569D01*
X79194867Y-72994887D01*
X79172339Y-73022339D01*
X79144887Y-73044867D01*
X79113569Y-73061607D01*
X79079591Y-73071915D01*
X79038110Y-73076000D01*
X78361890Y-73076000D01*
X78320409Y-73071915D01*
X78286431Y-73061607D01*
X78255113Y-73044867D01*
X78227661Y-73022339D01*
X78205133Y-72994887D01*
X78188393Y-72963569D01*
X78178085Y-72929591D01*
X78174000Y-72888110D01*
X78174000Y-72286890D01*
X78178085Y-72245409D01*
X78188393Y-72211431D01*
X78205133Y-72180113D01*
X78227661Y-72152661D01*
X78255113Y-72130133D01*
X78286431Y-72113393D01*
X78320409Y-72103085D01*
X78361890Y-72099000D01*
X79038110Y-72099000D01*
X79079591Y-72103085D01*
X79079591Y-72103085D01*
G37*
G36*
X77579591Y-72103085D02*
X77613569Y-72113393D01*
X77644887Y-72130133D01*
X77672339Y-72152661D01*
X77694867Y-72180113D01*
X77711607Y-72211431D01*
X77721915Y-72245409D01*
X77726000Y-72286890D01*
X77726000Y-72888110D01*
X77721915Y-72929591D01*
X77711607Y-72963569D01*
X77694867Y-72994887D01*
X77672339Y-73022339D01*
X77644887Y-73044867D01*
X77613569Y-73061607D01*
X77579591Y-73071915D01*
X77538110Y-73076000D01*
X76861890Y-73076000D01*
X76820409Y-73071915D01*
X76786431Y-73061607D01*
X76755113Y-73044867D01*
X76727661Y-73022339D01*
X76705133Y-72994887D01*
X76688393Y-72963569D01*
X76678085Y-72929591D01*
X76674000Y-72888110D01*
X76674000Y-72286890D01*
X76678085Y-72245409D01*
X76688393Y-72211431D01*
X76705133Y-72180113D01*
X76727661Y-72152661D01*
X76755113Y-72130133D01*
X76786431Y-72113393D01*
X76820409Y-72103085D01*
X76861890Y-72099000D01*
X77538110Y-72099000D01*
X77579591Y-72103085D01*
X77579591Y-72103085D01*
G37*
G36*
X75079591Y-72103085D02*
X75113569Y-72113393D01*
X75144887Y-72130133D01*
X75172339Y-72152661D01*
X75194867Y-72180113D01*
X75211607Y-72211431D01*
X75221915Y-72245409D01*
X75226000Y-72286890D01*
X75226000Y-72888110D01*
X75221915Y-72929591D01*
X75211607Y-72963569D01*
X75194867Y-72994887D01*
X75172339Y-73022339D01*
X75144887Y-73044867D01*
X75113569Y-73061607D01*
X75079591Y-73071915D01*
X75038110Y-73076000D01*
X74361890Y-73076000D01*
X74320409Y-73071915D01*
X74286431Y-73061607D01*
X74255113Y-73044867D01*
X74227661Y-73022339D01*
X74205133Y-72994887D01*
X74188393Y-72963569D01*
X74178085Y-72929591D01*
X74174000Y-72888110D01*
X74174000Y-72286890D01*
X74178085Y-72245409D01*
X74188393Y-72211431D01*
X74205133Y-72180113D01*
X74227661Y-72152661D01*
X74255113Y-72130133D01*
X74286431Y-72113393D01*
X74320409Y-72103085D01*
X74361890Y-72099000D01*
X75038110Y-72099000D01*
X75079591Y-72103085D01*
X75079591Y-72103085D01*
G37*
G36*
X73579591Y-72103085D02*
X73613569Y-72113393D01*
X73644887Y-72130133D01*
X73672339Y-72152661D01*
X73694867Y-72180113D01*
X73711607Y-72211431D01*
X73721915Y-72245409D01*
X73726000Y-72286890D01*
X73726000Y-72888110D01*
X73721915Y-72929591D01*
X73711607Y-72963569D01*
X73694867Y-72994887D01*
X73672339Y-73022339D01*
X73644887Y-73044867D01*
X73613569Y-73061607D01*
X73579591Y-73071915D01*
X73538110Y-73076000D01*
X72861890Y-73076000D01*
X72820409Y-73071915D01*
X72786431Y-73061607D01*
X72755113Y-73044867D01*
X72727661Y-73022339D01*
X72705133Y-72994887D01*
X72688393Y-72963569D01*
X72678085Y-72929591D01*
X72674000Y-72888110D01*
X72674000Y-72286890D01*
X72678085Y-72245409D01*
X72688393Y-72211431D01*
X72705133Y-72180113D01*
X72727661Y-72152661D01*
X72755113Y-72130133D01*
X72786431Y-72113393D01*
X72820409Y-72103085D01*
X72861890Y-72099000D01*
X73538110Y-72099000D01*
X73579591Y-72103085D01*
X73579591Y-72103085D01*
G37*
G36*
X106451000Y-72816000D02*
X104349000Y-72816000D01*
X104349000Y-71814000D01*
X106451000Y-71814000D01*
X106451000Y-72816000D01*
X106451000Y-72816000D01*
G37*
G36*
X89451000Y-72816000D02*
X87349000Y-72816000D01*
X87349000Y-71814000D01*
X89451000Y-71814000D01*
X89451000Y-72816000D01*
X89451000Y-72816000D01*
G37*
G36*
X61951000Y-72676000D02*
X60349000Y-72676000D01*
X60349000Y-71974000D01*
X61951000Y-71974000D01*
X61951000Y-72676000D01*
X61951000Y-72676000D01*
G37*
G36*
X56551000Y-72676000D02*
X54949000Y-72676000D01*
X54949000Y-71974000D01*
X56551000Y-71974000D01*
X56551000Y-72676000D01*
X56551000Y-72676000D01*
G37*
G36*
X69801000Y-72401000D02*
X68799000Y-72401000D01*
X68799000Y-71499000D01*
X69801000Y-71499000D01*
X69801000Y-72401000D01*
X69801000Y-72401000D01*
G37*
G36*
X115179591Y-71328085D02*
X115213569Y-71338393D01*
X115244887Y-71355133D01*
X115272339Y-71377661D01*
X115294867Y-71405113D01*
X115311607Y-71436431D01*
X115321915Y-71470409D01*
X115326000Y-71511890D01*
X115326000Y-72113110D01*
X115321915Y-72154591D01*
X115311607Y-72188569D01*
X115294867Y-72219887D01*
X115272339Y-72247339D01*
X115244887Y-72269867D01*
X115213569Y-72286607D01*
X115179591Y-72296915D01*
X115138110Y-72301000D01*
X114461890Y-72301000D01*
X114420409Y-72296915D01*
X114386431Y-72286607D01*
X114355113Y-72269867D01*
X114327661Y-72247339D01*
X114305133Y-72219887D01*
X114288393Y-72188569D01*
X114278085Y-72154591D01*
X114274000Y-72113110D01*
X114274000Y-71511890D01*
X114278085Y-71470409D01*
X114288393Y-71436431D01*
X114305133Y-71405113D01*
X114327661Y-71377661D01*
X114355113Y-71355133D01*
X114386431Y-71338393D01*
X114420409Y-71328085D01*
X114461890Y-71324000D01*
X115138110Y-71324000D01*
X115179591Y-71328085D01*
X115179591Y-71328085D01*
G37*
G36*
X112379591Y-71328085D02*
X112413569Y-71338393D01*
X112444887Y-71355133D01*
X112472339Y-71377661D01*
X112494867Y-71405113D01*
X112511607Y-71436431D01*
X112521915Y-71470409D01*
X112526000Y-71511890D01*
X112526000Y-72113110D01*
X112521915Y-72154591D01*
X112511607Y-72188569D01*
X112494867Y-72219887D01*
X112472339Y-72247339D01*
X112444887Y-72269867D01*
X112413569Y-72286607D01*
X112379591Y-72296915D01*
X112338110Y-72301000D01*
X111661890Y-72301000D01*
X111620409Y-72296915D01*
X111586431Y-72286607D01*
X111555113Y-72269867D01*
X111527661Y-72247339D01*
X111505133Y-72219887D01*
X111488393Y-72188569D01*
X111478085Y-72154591D01*
X111474000Y-72113110D01*
X111474000Y-71511890D01*
X111478085Y-71470409D01*
X111488393Y-71436431D01*
X111505133Y-71405113D01*
X111527661Y-71377661D01*
X111555113Y-71355133D01*
X111586431Y-71338393D01*
X111620409Y-71328085D01*
X111661890Y-71324000D01*
X112338110Y-71324000D01*
X112379591Y-71328085D01*
X112379591Y-71328085D01*
G37*
G36*
X110829591Y-71328085D02*
X110863569Y-71338393D01*
X110894887Y-71355133D01*
X110922339Y-71377661D01*
X110944867Y-71405113D01*
X110961607Y-71436431D01*
X110971915Y-71470409D01*
X110976000Y-71511890D01*
X110976000Y-72113110D01*
X110971915Y-72154591D01*
X110961607Y-72188569D01*
X110944867Y-72219887D01*
X110922339Y-72247339D01*
X110894887Y-72269867D01*
X110863569Y-72286607D01*
X110829591Y-72296915D01*
X110788110Y-72301000D01*
X110111890Y-72301000D01*
X110070409Y-72296915D01*
X110036431Y-72286607D01*
X110005113Y-72269867D01*
X109977661Y-72247339D01*
X109955133Y-72219887D01*
X109938393Y-72188569D01*
X109928085Y-72154591D01*
X109924000Y-72113110D01*
X109924000Y-71511890D01*
X109928085Y-71470409D01*
X109938393Y-71436431D01*
X109955133Y-71405113D01*
X109977661Y-71377661D01*
X110005113Y-71355133D01*
X110036431Y-71338393D01*
X110070409Y-71328085D01*
X110111890Y-71324000D01*
X110788110Y-71324000D01*
X110829591Y-71328085D01*
X110829591Y-71328085D01*
G37*
G36*
X109279591Y-71328085D02*
X109313569Y-71338393D01*
X109344887Y-71355133D01*
X109372339Y-71377661D01*
X109394867Y-71405113D01*
X109411607Y-71436431D01*
X109421915Y-71470409D01*
X109426000Y-71511890D01*
X109426000Y-72113110D01*
X109421915Y-72154591D01*
X109411607Y-72188569D01*
X109394867Y-72219887D01*
X109372339Y-72247339D01*
X109344887Y-72269867D01*
X109313569Y-72286607D01*
X109279591Y-72296915D01*
X109238110Y-72301000D01*
X108561890Y-72301000D01*
X108520409Y-72296915D01*
X108486431Y-72286607D01*
X108455113Y-72269867D01*
X108427661Y-72247339D01*
X108405133Y-72219887D01*
X108388393Y-72188569D01*
X108378085Y-72154591D01*
X108374000Y-72113110D01*
X108374000Y-71511890D01*
X108378085Y-71470409D01*
X108388393Y-71436431D01*
X108405133Y-71405113D01*
X108427661Y-71377661D01*
X108455113Y-71355133D01*
X108486431Y-71338393D01*
X108520409Y-71328085D01*
X108561890Y-71324000D01*
X109238110Y-71324000D01*
X109279591Y-71328085D01*
X109279591Y-71328085D01*
G37*
G36*
X118160158Y-71293086D02*
X118194136Y-71303394D01*
X118225454Y-71320134D01*
X118252906Y-71342662D01*
X118275434Y-71370114D01*
X118292174Y-71401432D01*
X118302482Y-71435410D01*
X118306567Y-71476891D01*
X118306567Y-72078111D01*
X118302482Y-72119592D01*
X118292174Y-72153570D01*
X118275434Y-72184888D01*
X118252906Y-72212340D01*
X118225454Y-72234868D01*
X118194136Y-72251608D01*
X118160158Y-72261916D01*
X118118677Y-72266001D01*
X117442457Y-72266001D01*
X117400976Y-72261916D01*
X117366998Y-72251608D01*
X117335680Y-72234868D01*
X117308228Y-72212340D01*
X117285700Y-72184888D01*
X117268960Y-72153570D01*
X117258652Y-72119592D01*
X117254567Y-72078111D01*
X117254567Y-71476891D01*
X117258652Y-71435410D01*
X117268960Y-71401432D01*
X117285700Y-71370114D01*
X117308228Y-71342662D01*
X117335680Y-71320134D01*
X117366998Y-71303394D01*
X117400976Y-71293086D01*
X117442457Y-71289001D01*
X118118677Y-71289001D01*
X118160158Y-71293086D01*
X118160158Y-71293086D01*
G37*
G36*
X116650158Y-71293086D02*
X116684136Y-71303394D01*
X116715454Y-71320134D01*
X116742906Y-71342662D01*
X116765434Y-71370114D01*
X116782174Y-71401432D01*
X116792482Y-71435410D01*
X116796567Y-71476891D01*
X116796567Y-72078111D01*
X116792482Y-72119592D01*
X116782174Y-72153570D01*
X116765434Y-72184888D01*
X116742906Y-72212340D01*
X116715454Y-72234868D01*
X116684136Y-72251608D01*
X116650158Y-72261916D01*
X116608677Y-72266001D01*
X115932457Y-72266001D01*
X115890976Y-72261916D01*
X115856998Y-72251608D01*
X115825680Y-72234868D01*
X115798228Y-72212340D01*
X115775700Y-72184888D01*
X115758960Y-72153570D01*
X115748652Y-72119592D01*
X115744567Y-72078111D01*
X115744567Y-71476891D01*
X115748652Y-71435410D01*
X115758960Y-71401432D01*
X115775700Y-71370114D01*
X115798228Y-71342662D01*
X115825680Y-71320134D01*
X115856998Y-71303394D01*
X115890976Y-71293086D01*
X115932457Y-71289001D01*
X116608677Y-71289001D01*
X116650158Y-71293086D01*
X116650158Y-71293086D01*
G37*
G36*
X222279591Y-71128085D02*
X222313569Y-71138393D01*
X222344887Y-71155133D01*
X222372339Y-71177661D01*
X222394867Y-71205113D01*
X222411607Y-71236431D01*
X222421915Y-71270409D01*
X222426000Y-71311890D01*
X222426000Y-71913110D01*
X222421915Y-71954591D01*
X222411607Y-71988569D01*
X222394867Y-72019887D01*
X222372339Y-72047339D01*
X222344887Y-72069867D01*
X222313569Y-72086607D01*
X222279591Y-72096915D01*
X222238110Y-72101000D01*
X221561890Y-72101000D01*
X221520409Y-72096915D01*
X221486431Y-72086607D01*
X221455113Y-72069867D01*
X221427661Y-72047339D01*
X221405133Y-72019887D01*
X221388393Y-71988569D01*
X221378085Y-71954591D01*
X221374000Y-71913110D01*
X221374000Y-71311890D01*
X221378085Y-71270409D01*
X221388393Y-71236431D01*
X221405133Y-71205113D01*
X221427661Y-71177661D01*
X221455113Y-71155133D01*
X221486431Y-71138393D01*
X221520409Y-71128085D01*
X221561890Y-71124000D01*
X222238110Y-71124000D01*
X222279591Y-71128085D01*
X222279591Y-71128085D01*
G37*
G36*
X220679591Y-71128085D02*
X220713569Y-71138393D01*
X220744887Y-71155133D01*
X220772339Y-71177661D01*
X220794867Y-71205113D01*
X220811607Y-71236431D01*
X220821915Y-71270409D01*
X220826000Y-71311890D01*
X220826000Y-71913110D01*
X220821915Y-71954591D01*
X220811607Y-71988569D01*
X220794867Y-72019887D01*
X220772339Y-72047339D01*
X220744887Y-72069867D01*
X220713569Y-72086607D01*
X220679591Y-72096915D01*
X220638110Y-72101000D01*
X219961890Y-72101000D01*
X219920409Y-72096915D01*
X219886431Y-72086607D01*
X219855113Y-72069867D01*
X219827661Y-72047339D01*
X219805133Y-72019887D01*
X219788393Y-71988569D01*
X219778085Y-71954591D01*
X219774000Y-71913110D01*
X219774000Y-71311890D01*
X219778085Y-71270409D01*
X219788393Y-71236431D01*
X219805133Y-71205113D01*
X219827661Y-71177661D01*
X219855113Y-71155133D01*
X219886431Y-71138393D01*
X219920409Y-71128085D01*
X219961890Y-71124000D01*
X220638110Y-71124000D01*
X220679591Y-71128085D01*
X220679591Y-71128085D01*
G37*
G36*
X66079591Y-70928085D02*
X66113569Y-70938393D01*
X66144887Y-70955133D01*
X66172339Y-70977661D01*
X66194867Y-71005113D01*
X66211607Y-71036431D01*
X66221915Y-71070409D01*
X66226000Y-71111890D01*
X66226000Y-71713110D01*
X66221915Y-71754591D01*
X66211607Y-71788569D01*
X66194867Y-71819887D01*
X66172339Y-71847339D01*
X66144887Y-71869867D01*
X66113569Y-71886607D01*
X66079591Y-71896915D01*
X66038110Y-71901000D01*
X65361890Y-71901000D01*
X65320409Y-71896915D01*
X65286431Y-71886607D01*
X65255113Y-71869867D01*
X65227661Y-71847339D01*
X65205133Y-71819887D01*
X65188393Y-71788569D01*
X65178085Y-71754591D01*
X65174000Y-71713110D01*
X65174000Y-71111890D01*
X65178085Y-71070409D01*
X65188393Y-71036431D01*
X65205133Y-71005113D01*
X65227661Y-70977661D01*
X65255113Y-70955133D01*
X65286431Y-70938393D01*
X65320409Y-70928085D01*
X65361890Y-70924000D01*
X66038110Y-70924000D01*
X66079591Y-70928085D01*
X66079591Y-70928085D01*
G37*
G36*
X106451000Y-71546000D02*
X104349000Y-71546000D01*
X104349000Y-70544000D01*
X106451000Y-70544000D01*
X106451000Y-71546000D01*
X106451000Y-71546000D01*
G37*
G36*
X89451000Y-71546000D02*
X87349000Y-71546000D01*
X87349000Y-70544000D01*
X89451000Y-70544000D01*
X89451000Y-71546000D01*
X89451000Y-71546000D01*
G37*
G36*
X73579591Y-70528085D02*
X73613569Y-70538393D01*
X73644887Y-70555133D01*
X73672339Y-70577661D01*
X73694867Y-70605113D01*
X73711607Y-70636431D01*
X73721915Y-70670409D01*
X73726000Y-70711890D01*
X73726000Y-71313110D01*
X73721915Y-71354591D01*
X73711607Y-71388569D01*
X73694867Y-71419887D01*
X73672339Y-71447339D01*
X73644887Y-71469867D01*
X73613569Y-71486607D01*
X73579591Y-71496915D01*
X73538110Y-71501000D01*
X72861890Y-71501000D01*
X72820409Y-71496915D01*
X72786431Y-71486607D01*
X72755113Y-71469867D01*
X72727661Y-71447339D01*
X72705133Y-71419887D01*
X72688393Y-71388569D01*
X72678085Y-71354591D01*
X72674000Y-71313110D01*
X72674000Y-70711890D01*
X72678085Y-70670409D01*
X72688393Y-70636431D01*
X72705133Y-70605113D01*
X72727661Y-70577661D01*
X72755113Y-70555133D01*
X72786431Y-70538393D01*
X72820409Y-70528085D01*
X72861890Y-70524000D01*
X73538110Y-70524000D01*
X73579591Y-70528085D01*
X73579591Y-70528085D01*
G37*
G36*
X77579591Y-70528085D02*
X77613569Y-70538393D01*
X77644887Y-70555133D01*
X77672339Y-70577661D01*
X77694867Y-70605113D01*
X77711607Y-70636431D01*
X77721915Y-70670409D01*
X77726000Y-70711890D01*
X77726000Y-71313110D01*
X77721915Y-71354591D01*
X77711607Y-71388569D01*
X77694867Y-71419887D01*
X77672339Y-71447339D01*
X77644887Y-71469867D01*
X77613569Y-71486607D01*
X77579591Y-71496915D01*
X77538110Y-71501000D01*
X76861890Y-71501000D01*
X76820409Y-71496915D01*
X76786431Y-71486607D01*
X76755113Y-71469867D01*
X76727661Y-71447339D01*
X76705133Y-71419887D01*
X76688393Y-71388569D01*
X76678085Y-71354591D01*
X76674000Y-71313110D01*
X76674000Y-70711890D01*
X76678085Y-70670409D01*
X76688393Y-70636431D01*
X76705133Y-70605113D01*
X76727661Y-70577661D01*
X76755113Y-70555133D01*
X76786431Y-70538393D01*
X76820409Y-70528085D01*
X76861890Y-70524000D01*
X77538110Y-70524000D01*
X77579591Y-70528085D01*
X77579591Y-70528085D01*
G37*
G36*
X79079591Y-70528085D02*
X79113569Y-70538393D01*
X79144887Y-70555133D01*
X79172339Y-70577661D01*
X79194867Y-70605113D01*
X79211607Y-70636431D01*
X79221915Y-70670409D01*
X79226000Y-70711890D01*
X79226000Y-71313110D01*
X79221915Y-71354591D01*
X79211607Y-71388569D01*
X79194867Y-71419887D01*
X79172339Y-71447339D01*
X79144887Y-71469867D01*
X79113569Y-71486607D01*
X79079591Y-71496915D01*
X79038110Y-71501000D01*
X78361890Y-71501000D01*
X78320409Y-71496915D01*
X78286431Y-71486607D01*
X78255113Y-71469867D01*
X78227661Y-71447339D01*
X78205133Y-71419887D01*
X78188393Y-71388569D01*
X78178085Y-71354591D01*
X78174000Y-71313110D01*
X78174000Y-70711890D01*
X78178085Y-70670409D01*
X78188393Y-70636431D01*
X78205133Y-70605113D01*
X78227661Y-70577661D01*
X78255113Y-70555133D01*
X78286431Y-70538393D01*
X78320409Y-70528085D01*
X78361890Y-70524000D01*
X79038110Y-70524000D01*
X79079591Y-70528085D01*
X79079591Y-70528085D01*
G37*
G36*
X75079591Y-70528085D02*
X75113569Y-70538393D01*
X75144887Y-70555133D01*
X75172339Y-70577661D01*
X75194867Y-70605113D01*
X75211607Y-70636431D01*
X75221915Y-70670409D01*
X75226000Y-70711890D01*
X75226000Y-71313110D01*
X75221915Y-71354591D01*
X75211607Y-71388569D01*
X75194867Y-71419887D01*
X75172339Y-71447339D01*
X75144887Y-71469867D01*
X75113569Y-71486607D01*
X75079591Y-71496915D01*
X75038110Y-71501000D01*
X74361890Y-71501000D01*
X74320409Y-71496915D01*
X74286431Y-71486607D01*
X74255113Y-71469867D01*
X74227661Y-71447339D01*
X74205133Y-71419887D01*
X74188393Y-71388569D01*
X74178085Y-71354591D01*
X74174000Y-71313110D01*
X74174000Y-70711890D01*
X74178085Y-70670409D01*
X74188393Y-70636431D01*
X74205133Y-70605113D01*
X74227661Y-70577661D01*
X74255113Y-70555133D01*
X74286431Y-70538393D01*
X74320409Y-70528085D01*
X74361890Y-70524000D01*
X75038110Y-70524000D01*
X75079591Y-70528085D01*
X75079591Y-70528085D01*
G37*
G36*
X67801000Y-71451000D02*
X66799000Y-71451000D01*
X66799000Y-70549000D01*
X67801000Y-70549000D01*
X67801000Y-71451000D01*
X67801000Y-71451000D01*
G37*
G36*
X56551000Y-71406000D02*
X54949000Y-71406000D01*
X54949000Y-70704000D01*
X56551000Y-70704000D01*
X56551000Y-71406000D01*
X56551000Y-71406000D01*
G37*
G36*
X61951000Y-71406000D02*
X60349000Y-71406000D01*
X60349000Y-70704000D01*
X61951000Y-70704000D01*
X61951000Y-71406000D01*
X61951000Y-71406000D01*
G37*
M02*
