G04 #@! TF.GenerationSoftware,KiCad,Pcbnew,(5.0.1-3-g963ef8bb5)*
G04 #@! TF.CreationDate,2019-06-17T09:36:16+02:00*
G04 #@! TF.ProjectId,cz19-badge,637A31392D62616467652E6B69636164,rev?*
G04 #@! TF.SameCoordinates,Original*
G04 #@! TF.FileFunction,Other,User*
%FSLAX46Y46*%
G04 Gerber Fmt 4.6, Leading zero omitted, Abs format (unit mm)*
G04 Created by KiCad (PCBNEW (5.0.1-3-g963ef8bb5)) date 2019 June 17, Monday 09:36:16*
%MOMM*%
%LPD*%
G01*
G04 APERTURE LIST*
%ADD10C,0.050000*%
G04 APERTURE END LIST*
D10*
G04 #@! TO.C,BT1*
X130520000Y-102440000D02*
X126050000Y-102440000D01*
X126050000Y-102440000D02*
X126050000Y-109800000D01*
X126050000Y-109800000D02*
X130520000Y-109800000D01*
X213050000Y-109800000D02*
X208580000Y-109800000D01*
X208580000Y-102440000D02*
X213050000Y-102440000D01*
X130520000Y-116950000D02*
X130520000Y-109800000D01*
X130520000Y-95290000D02*
X130520000Y-102440000D01*
X208580000Y-116950000D02*
X208580000Y-109800000D01*
X130520000Y-116950000D02*
X208580000Y-116950000D01*
X130520000Y-95290000D02*
X208580000Y-95290000D01*
X208580000Y-95290000D02*
X208580000Y-102440000D01*
X213050000Y-102440000D02*
X213050000Y-109800000D01*
G04 #@! TO.C,C6*
X188750000Y-89850000D02*
X189600000Y-89850000D01*
X188750000Y-91950000D02*
X188750000Y-89850000D01*
X189600000Y-91950000D02*
X188750000Y-91950000D01*
X189600000Y-89850000D02*
X189600000Y-89650000D01*
X189600000Y-92150000D02*
X189600000Y-91950000D01*
X189600000Y-92150000D02*
X190750000Y-93300000D01*
X189600000Y-89650000D02*
X190750000Y-88500000D01*
X190750000Y-93300000D02*
X194400000Y-93300000D01*
X190750000Y-88500000D02*
X194400000Y-88500000D01*
X194400000Y-89850000D02*
X194400000Y-88500000D01*
X195250000Y-89850000D02*
X194400000Y-89850000D01*
X195250000Y-91950000D02*
X195250000Y-89850000D01*
X194400000Y-91950000D02*
X195250000Y-91950000D01*
X194400000Y-93300000D02*
X194400000Y-91950000D01*
G04 #@! TO.C,C5*
X107470000Y-103680000D02*
X107470000Y-99120000D01*
X105230000Y-103680000D02*
X107470000Y-103680000D01*
X105230000Y-99120000D02*
X105230000Y-103680000D01*
X107470000Y-99120000D02*
X105230000Y-99120000D01*
G04 #@! TO.C,U7*
X154550000Y-86900000D02*
X154550000Y-94300000D01*
X144050000Y-86900000D02*
X144050000Y-94300000D01*
X144050000Y-94300000D02*
X154550000Y-94300000D01*
X144050000Y-86900000D02*
X154550000Y-86900000D01*
G04 #@! TO.C,SW6*
X231700000Y-102300000D02*
X231700000Y-94900000D01*
X241700000Y-102300000D02*
X231700000Y-102300000D01*
X241700000Y-94900000D02*
X241700000Y-102300000D01*
X231700000Y-94900000D02*
X241700000Y-94900000D01*
G04 #@! TO.C,SW5*
X231700000Y-91200000D02*
X231700000Y-83800000D01*
X241700000Y-91200000D02*
X231700000Y-91200000D01*
X241700000Y-83800000D02*
X241700000Y-91200000D01*
X231700000Y-83800000D02*
X241700000Y-83800000D01*
G04 #@! TO.C,SW4*
X69500000Y-96950000D02*
X69500000Y-89550000D01*
X79500000Y-96950000D02*
X69500000Y-96950000D01*
X79500000Y-89550000D02*
X79500000Y-96950000D01*
X69500000Y-89550000D02*
X79500000Y-89550000D01*
G04 #@! TO.C,SW3*
X55200000Y-96950000D02*
X55200000Y-89550000D01*
X65200000Y-96950000D02*
X55200000Y-96950000D01*
X65200000Y-89550000D02*
X65200000Y-96950000D01*
X55200000Y-89550000D02*
X65200000Y-89550000D01*
G04 #@! TO.C,SW2*
X62350000Y-104700000D02*
X62350000Y-97300000D01*
X72350000Y-104700000D02*
X62350000Y-104700000D01*
X72350000Y-97300000D02*
X72350000Y-104700000D01*
X62350000Y-97300000D02*
X72350000Y-97300000D01*
G04 #@! TO.C,SW1*
X62350000Y-89200000D02*
X62350000Y-81800000D01*
X72350000Y-89200000D02*
X62350000Y-89200000D01*
X72350000Y-81800000D02*
X72350000Y-89200000D01*
X62350000Y-81800000D02*
X72350000Y-81800000D01*
G04 #@! TO.C,J1*
X52350000Y-103860000D02*
X52350000Y-113060000D01*
X58950000Y-103860000D02*
X52350000Y-103860000D01*
X58950000Y-113060000D02*
X58950000Y-103860000D01*
X52350000Y-113060000D02*
X58950000Y-113060000D01*
G04 #@! TO.C,U8*
X62150000Y-70250000D02*
X62150000Y-80750000D01*
X54750000Y-70250000D02*
X54750000Y-80750000D01*
X62150000Y-70250000D02*
X54750000Y-70250000D01*
X62150000Y-80750000D02*
X54750000Y-80750000D01*
G04 #@! TO.C,R8*
X66430000Y-73680000D02*
X66430000Y-70720000D01*
X64970000Y-73680000D02*
X66430000Y-73680000D01*
X64970000Y-70720000D02*
X64970000Y-73680000D01*
X66430000Y-70720000D02*
X64970000Y-70720000D01*
G04 #@! TO.C,R15*
X108170000Y-74080000D02*
X109630000Y-74080000D01*
X109630000Y-74080000D02*
X109630000Y-71120000D01*
X109630000Y-71120000D02*
X108170000Y-71120000D01*
X108170000Y-71120000D02*
X108170000Y-74080000D01*
G04 #@! TO.C,R7*
X66430000Y-73870000D02*
X64970000Y-73870000D01*
X64970000Y-73870000D02*
X64970000Y-76830000D01*
X64970000Y-76830000D02*
X66430000Y-76830000D01*
X66430000Y-76830000D02*
X66430000Y-73870000D01*
G04 #@! TO.C,R16*
X82730000Y-88680000D02*
X82730000Y-85720000D01*
X81270000Y-88680000D02*
X82730000Y-88680000D01*
X81270000Y-85720000D02*
X81270000Y-88680000D01*
X82730000Y-85720000D02*
X81270000Y-85720000D01*
G04 #@! TO.C,Q1*
X66600000Y-77400000D02*
X70000000Y-77400000D01*
X70000000Y-77400000D02*
X70000000Y-73900000D01*
X70000000Y-73900000D02*
X66600000Y-73900000D01*
X66600000Y-73900000D02*
X66600000Y-77400000D01*
G04 #@! TO.C,C1*
X109720000Y-74080000D02*
X111180000Y-74080000D01*
X111180000Y-74080000D02*
X111180000Y-71120000D01*
X111180000Y-71120000D02*
X109720000Y-71120000D01*
X109720000Y-71120000D02*
X109720000Y-74080000D01*
G04 #@! TO.C,C2*
X111270000Y-71120000D02*
X111270000Y-74080000D01*
X112730000Y-71120000D02*
X111270000Y-71120000D01*
X112730000Y-74080000D02*
X112730000Y-71120000D01*
X111270000Y-74080000D02*
X112730000Y-74080000D01*
G04 #@! TO.C,Q2*
X66600000Y-70200000D02*
X66600000Y-73700000D01*
X70000000Y-70200000D02*
X66600000Y-70200000D01*
X70000000Y-73700000D02*
X70000000Y-70200000D01*
X66600000Y-73700000D02*
X70000000Y-73700000D01*
G04 #@! TO.C,Q4*
X183500000Y-91050000D02*
X183500000Y-94550000D01*
X186900000Y-91050000D02*
X183500000Y-91050000D01*
X186900000Y-94550000D02*
X186900000Y-91050000D01*
X183500000Y-94550000D02*
X186900000Y-94550000D01*
G04 #@! TO.C,Q5*
X179200000Y-94550000D02*
X182600000Y-94550000D01*
X182600000Y-94550000D02*
X182600000Y-91050000D01*
X182600000Y-91050000D02*
X179200000Y-91050000D01*
X179200000Y-91050000D02*
X179200000Y-94550000D01*
G04 #@! TO.C,Q3*
X81100000Y-104950000D02*
X84500000Y-104950000D01*
X84500000Y-104950000D02*
X84500000Y-101450000D01*
X84500000Y-101450000D02*
X81100000Y-101450000D01*
X81100000Y-101450000D02*
X81100000Y-104950000D01*
G04 #@! TO.C,Q6*
X167000000Y-87150000D02*
X167000000Y-90650000D01*
X170400000Y-87150000D02*
X167000000Y-87150000D01*
X170400000Y-90650000D02*
X170400000Y-87150000D01*
X167000000Y-90650000D02*
X170400000Y-90650000D01*
G04 #@! TO.C,R18*
X88820000Y-90120000D02*
X88820000Y-91580000D01*
X88820000Y-91580000D02*
X91780000Y-91580000D01*
X91780000Y-91580000D02*
X91780000Y-90120000D01*
X91780000Y-90120000D02*
X88820000Y-90120000D01*
G04 #@! TO.C,R22*
X179020000Y-87470000D02*
X179020000Y-88930000D01*
X179020000Y-88930000D02*
X181980000Y-88930000D01*
X181980000Y-88930000D02*
X181980000Y-87470000D01*
X181980000Y-87470000D02*
X179020000Y-87470000D01*
G04 #@! TO.C,R9*
X72470000Y-70320000D02*
X72470000Y-73280000D01*
X73930000Y-70320000D02*
X72470000Y-70320000D01*
X73930000Y-73280000D02*
X73930000Y-70320000D01*
X72470000Y-73280000D02*
X73930000Y-73280000D01*
G04 #@! TO.C,U11*
X106650000Y-89800000D02*
X106650000Y-69580000D01*
X106650000Y-89800000D02*
X87150000Y-89800000D01*
X87150000Y-69580000D02*
X87150000Y-89800000D01*
X111150000Y-58300000D02*
X82650000Y-58300000D01*
X111150000Y-58300000D02*
X111150000Y-69580000D01*
X82650000Y-58300000D02*
X82650000Y-69580000D01*
X111150000Y-69580000D02*
X106650000Y-69580000D01*
X87150000Y-69580000D02*
X82650000Y-69580000D01*
G04 #@! TO.C,C3*
X93630000Y-100720000D02*
X92170000Y-100720000D01*
X92170000Y-100720000D02*
X92170000Y-103680000D01*
X92170000Y-103680000D02*
X93630000Y-103680000D01*
X93630000Y-103680000D02*
X93630000Y-100720000D01*
G04 #@! TO.C,C4*
X140080000Y-89270000D02*
X137120000Y-89270000D01*
X140080000Y-90730000D02*
X140080000Y-89270000D01*
X137120000Y-90730000D02*
X140080000Y-90730000D01*
X137120000Y-89270000D02*
X137120000Y-90730000D01*
G04 #@! TO.C,D258*
X77930000Y-70320000D02*
X76470000Y-70320000D01*
X76470000Y-70320000D02*
X76470000Y-73280000D01*
X76470000Y-73280000D02*
X77930000Y-73280000D01*
X77930000Y-73280000D02*
X77930000Y-70320000D01*
G04 #@! TO.C,D259*
X84230000Y-107420000D02*
X82770000Y-107420000D01*
X82770000Y-107420000D02*
X82770000Y-110380000D01*
X82770000Y-110380000D02*
X84230000Y-110380000D01*
X84230000Y-110380000D02*
X84230000Y-107420000D01*
G04 #@! TO.C,D260*
X79430000Y-107420000D02*
X77970000Y-107420000D01*
X77970000Y-107420000D02*
X77970000Y-110380000D01*
X77970000Y-110380000D02*
X79430000Y-110380000D01*
X79430000Y-110380000D02*
X79430000Y-107420000D01*
G04 #@! TO.C,R10*
X79430000Y-70320000D02*
X77970000Y-70320000D01*
X77970000Y-70320000D02*
X77970000Y-73280000D01*
X77970000Y-73280000D02*
X79430000Y-73280000D01*
X79430000Y-73280000D02*
X79430000Y-70320000D01*
G04 #@! TO.C,R11*
X75470000Y-104680000D02*
X76930000Y-104680000D01*
X76930000Y-104680000D02*
X76930000Y-101720000D01*
X76930000Y-101720000D02*
X75470000Y-101720000D01*
X75470000Y-101720000D02*
X75470000Y-104680000D01*
G04 #@! TO.C,R12*
X84270000Y-107420000D02*
X84270000Y-110380000D01*
X85730000Y-107420000D02*
X84270000Y-107420000D01*
X85730000Y-110380000D02*
X85730000Y-107420000D01*
X84270000Y-110380000D02*
X85730000Y-110380000D01*
G04 #@! TO.C,R13*
X79470000Y-110380000D02*
X80930000Y-110380000D01*
X80930000Y-110380000D02*
X80930000Y-107420000D01*
X80930000Y-107420000D02*
X79470000Y-107420000D01*
X79470000Y-107420000D02*
X79470000Y-110380000D01*
G04 #@! TO.C,R14*
X62330000Y-115080000D02*
X62330000Y-112120000D01*
X60870000Y-115080000D02*
X62330000Y-115080000D01*
X60870000Y-112120000D02*
X60870000Y-115080000D01*
X62330000Y-112120000D02*
X60870000Y-112120000D01*
G04 #@! TO.C,R25*
X83130000Y-79120000D02*
X81670000Y-79120000D01*
X81670000Y-79120000D02*
X81670000Y-82080000D01*
X81670000Y-82080000D02*
X83130000Y-82080000D01*
X83130000Y-82080000D02*
X83130000Y-79120000D01*
G04 #@! TO.C,R26*
X81630000Y-79120000D02*
X80170000Y-79120000D01*
X80170000Y-79120000D02*
X80170000Y-82080000D01*
X80170000Y-82080000D02*
X81630000Y-82080000D01*
X81630000Y-82080000D02*
X81630000Y-79120000D01*
G04 #@! TO.C,R24*
X76970000Y-101720000D02*
X76970000Y-104680000D01*
X78430000Y-101720000D02*
X76970000Y-101720000D01*
X78430000Y-104680000D02*
X78430000Y-101720000D01*
X76970000Y-104680000D02*
X78430000Y-104680000D01*
G04 #@! TO.C,R27*
X78630000Y-82080000D02*
X78630000Y-79120000D01*
X77170000Y-82080000D02*
X78630000Y-82080000D01*
X77170000Y-79120000D02*
X77170000Y-82080000D01*
X78630000Y-79120000D02*
X77170000Y-79120000D01*
G04 #@! TO.C,R28*
X80130000Y-79120000D02*
X78670000Y-79120000D01*
X78670000Y-79120000D02*
X78670000Y-82080000D01*
X78670000Y-82080000D02*
X80130000Y-82080000D01*
X80130000Y-82080000D02*
X80130000Y-79120000D01*
G04 #@! TO.C,R17*
X219570000Y-70920000D02*
X219570000Y-73880000D01*
X221030000Y-70920000D02*
X219570000Y-70920000D01*
X221030000Y-73880000D02*
X221030000Y-70920000D01*
X219570000Y-73880000D02*
X221030000Y-73880000D01*
G04 #@! TO.C,R19*
X221170000Y-73880000D02*
X222630000Y-73880000D01*
X222630000Y-73880000D02*
X222630000Y-70920000D01*
X222630000Y-70920000D02*
X221170000Y-70920000D01*
X221170000Y-70920000D02*
X221170000Y-73880000D01*
G04 #@! TO.C,R29*
X90730000Y-100720000D02*
X89270000Y-100720000D01*
X89270000Y-100720000D02*
X89270000Y-103680000D01*
X89270000Y-103680000D02*
X90730000Y-103680000D01*
X90730000Y-103680000D02*
X90730000Y-100720000D01*
G04 #@! TO.C,R30*
X140095001Y-92274999D02*
X137135001Y-92274999D01*
X140095001Y-93734999D02*
X140095001Y-92274999D01*
X137135001Y-93734999D02*
X140095001Y-93734999D01*
X137135001Y-92274999D02*
X137135001Y-93734999D01*
G04 #@! TO.C,R31*
X90670000Y-100720000D02*
X90670000Y-103680000D01*
X92130000Y-100720000D02*
X90670000Y-100720000D01*
X92130000Y-103680000D02*
X92130000Y-100720000D01*
X90670000Y-103680000D02*
X92130000Y-103680000D01*
G04 #@! TO.C,R32*
X140080000Y-92230000D02*
X140080000Y-90770000D01*
X140080000Y-90770000D02*
X137120000Y-90770000D01*
X137120000Y-90770000D02*
X137120000Y-92230000D01*
X137120000Y-92230000D02*
X140080000Y-92230000D01*
G04 #@! TO.C,U9*
X63500000Y-115000000D02*
X63500000Y-109500000D01*
X71000000Y-115000000D02*
X71000000Y-109500000D01*
X63500000Y-115000000D02*
X71000000Y-115000000D01*
X63500000Y-109500000D02*
X71000000Y-109500000D01*
G04 #@! TO.C,D257*
X75430000Y-70320000D02*
X73970000Y-70320000D01*
X73970000Y-70320000D02*
X73970000Y-73280000D01*
X73970000Y-73280000D02*
X75430000Y-73280000D01*
X75430000Y-73280000D02*
X75430000Y-70320000D01*
G04 #@! TO.C,J3*
X86350000Y-73350000D02*
X86350000Y-70450000D01*
X81650000Y-73350000D02*
X86350000Y-73350000D01*
X81650000Y-70450000D02*
X81650000Y-73350000D01*
X86350000Y-70450000D02*
X81650000Y-70450000D01*
G04 #@! TO.C,J4*
X229850000Y-73250000D02*
X229850000Y-70350000D01*
X225150000Y-73250000D02*
X229850000Y-73250000D01*
X225150000Y-70350000D02*
X225150000Y-73250000D01*
X229850000Y-70350000D02*
X225150000Y-70350000D01*
G04 #@! TO.C,R1*
X126370000Y-112780000D02*
X127830000Y-112780000D01*
X127830000Y-112780000D02*
X127830000Y-109820000D01*
X127830000Y-109820000D02*
X126370000Y-109820000D01*
X126370000Y-109820000D02*
X126370000Y-112780000D01*
G04 #@! TO.C,R2*
X129430000Y-97220000D02*
X127970000Y-97220000D01*
X127970000Y-97220000D02*
X127970000Y-100180000D01*
X127970000Y-100180000D02*
X129430000Y-100180000D01*
X129430000Y-100180000D02*
X129430000Y-97220000D01*
G04 #@! TO.C,R3*
X127940567Y-93005001D02*
X127940567Y-90045001D01*
X126480567Y-93005001D02*
X127940567Y-93005001D01*
X126480567Y-90045001D02*
X126480567Y-93005001D01*
X127940567Y-90045001D02*
X126480567Y-90045001D01*
G04 #@! TO.C,R4*
X229780000Y-109730000D02*
X229780000Y-108270000D01*
X229780000Y-108270000D02*
X226820000Y-108270000D01*
X226820000Y-108270000D02*
X226820000Y-109730000D01*
X226820000Y-109730000D02*
X229780000Y-109730000D01*
G04 #@! TO.C,R5*
X230520000Y-104630000D02*
X233480000Y-104630000D01*
X230520000Y-103170000D02*
X230520000Y-104630000D01*
X233480000Y-103170000D02*
X230520000Y-103170000D01*
X233480000Y-104630000D02*
X233480000Y-103170000D01*
G04 #@! TO.C,R6*
X225180000Y-89230000D02*
X225180000Y-87770000D01*
X225180000Y-87770000D02*
X222220000Y-87770000D01*
X222220000Y-87770000D02*
X222220000Y-89230000D01*
X222220000Y-89230000D02*
X225180000Y-89230000D01*
G04 #@! TO.C,R20*
X118510567Y-74045001D02*
X118510567Y-71085001D01*
X117050567Y-74045001D02*
X118510567Y-74045001D01*
X117050567Y-71085001D02*
X117050567Y-74045001D01*
X118510567Y-71085001D02*
X117050567Y-71085001D01*
G04 #@! TO.C,R21*
X117000567Y-71085001D02*
X115540567Y-71085001D01*
X115540567Y-71085001D02*
X115540567Y-74045001D01*
X115540567Y-74045001D02*
X117000567Y-74045001D01*
X117000567Y-74045001D02*
X117000567Y-71085001D01*
G04 #@! TO.C,R23*
X115530000Y-74080000D02*
X115530000Y-71120000D01*
X114070000Y-74080000D02*
X115530000Y-74080000D01*
X114070000Y-71120000D02*
X114070000Y-74080000D01*
X115530000Y-71120000D02*
X114070000Y-71120000D01*
G04 #@! TO.C,U1*
X115000000Y-115010000D02*
X115000000Y-107600000D01*
X124200000Y-115010000D02*
X124200000Y-107600000D01*
X124200000Y-107600000D02*
X115000000Y-107600000D01*
X124200000Y-115010000D02*
X115000000Y-115010000D01*
G04 #@! TO.C,U2*
X124200000Y-106010000D02*
X115000000Y-106010000D01*
X124200000Y-98600000D02*
X115000000Y-98600000D01*
X124200000Y-106010000D02*
X124200000Y-98600000D01*
X115000000Y-106010000D02*
X115000000Y-98600000D01*
G04 #@! TO.C,U3*
X115000000Y-97010000D02*
X115000000Y-89600000D01*
X124200000Y-97010000D02*
X124200000Y-89600000D01*
X124200000Y-89600000D02*
X115000000Y-89600000D01*
X124200000Y-97010000D02*
X115000000Y-97010000D01*
G04 #@! TO.C,U4*
X225200000Y-115362894D02*
X216000000Y-115362894D01*
X225200000Y-107952894D02*
X216000000Y-107952894D01*
X225200000Y-115362894D02*
X225200000Y-107952894D01*
X216000000Y-115362894D02*
X216000000Y-107952894D01*
G04 #@! TO.C,U5*
X216000000Y-106110000D02*
X216000000Y-98700000D01*
X225200000Y-106110000D02*
X225200000Y-98700000D01*
X225200000Y-98700000D02*
X216000000Y-98700000D01*
X225200000Y-106110000D02*
X216000000Y-106110000D01*
G04 #@! TO.C,U6*
X225200000Y-97410000D02*
X216000000Y-97410000D01*
X225200000Y-90000000D02*
X216000000Y-90000000D01*
X225200000Y-97410000D02*
X225200000Y-90000000D01*
X216000000Y-97410000D02*
X216000000Y-90000000D01*
G04 #@! TO.C,U10*
X136430000Y-93950000D02*
X136430000Y-88850000D01*
X136430000Y-93950000D02*
X130720000Y-93950000D01*
X130720000Y-88850000D02*
X136430000Y-88850000D01*
X130720000Y-88850000D02*
X130720000Y-93950000D01*
G04 #@! TO.C,R33*
X108570000Y-95780000D02*
X110030000Y-95780000D01*
X110030000Y-95780000D02*
X110030000Y-92820000D01*
X110030000Y-92820000D02*
X108570000Y-92820000D01*
X108570000Y-92820000D02*
X108570000Y-95780000D01*
G04 #@! TO.C,J2*
X244050000Y-107650000D02*
X235000000Y-107650000D01*
X235000000Y-107650000D02*
X235000000Y-116300000D01*
X235000000Y-116300000D02*
X244050000Y-116300000D01*
X244050000Y-116300000D02*
X244050000Y-107650000D01*
G04 #@! TO.C,FID1*
X174650000Y-97200000D02*
G75*
G03X174650000Y-97200000I-750000J0D01*
G01*
G04 #@! TO.C,FID2*
X137950000Y-109600000D02*
G75*
G03X137950000Y-109600000I-750000J0D01*
G01*
G04 #@! TO.C,FID3*
X202850000Y-109400000D02*
G75*
G03X202850000Y-109400000I-750000J0D01*
G01*
G04 #@! TO.C,FID4*
X94850000Y-81200000D02*
G75*
G03X94850000Y-81200000I-750000J0D01*
G01*
G04 #@! TO.C,R34*
X79930000Y-101720000D02*
X78470000Y-101720000D01*
X78470000Y-101720000D02*
X78470000Y-104680000D01*
X78470000Y-104680000D02*
X79930000Y-104680000D01*
X79930000Y-104680000D02*
X79930000Y-101720000D01*
G04 #@! TO.C,C7*
X156220000Y-89070000D02*
X156220000Y-90530000D01*
X156220000Y-90530000D02*
X159180000Y-90530000D01*
X159180000Y-90530000D02*
X159180000Y-89070000D01*
X159180000Y-89070000D02*
X156220000Y-89070000D01*
G04 #@! TO.C,Q7*
X173900000Y-87150000D02*
X170500000Y-87150000D01*
X170500000Y-87150000D02*
X170500000Y-90650000D01*
X170500000Y-90650000D02*
X173900000Y-90650000D01*
X173900000Y-90650000D02*
X173900000Y-87150000D01*
G04 #@! TO.C,Q8*
X167000000Y-91450000D02*
X167000000Y-94950000D01*
X170400000Y-91450000D02*
X167000000Y-91450000D01*
X170400000Y-94950000D02*
X170400000Y-91450000D01*
X167000000Y-94950000D02*
X170400000Y-94950000D01*
G04 #@! TO.C,Q9*
X173900000Y-91450000D02*
X170500000Y-91450000D01*
X170500000Y-91450000D02*
X170500000Y-94950000D01*
X170500000Y-94950000D02*
X173900000Y-94950000D01*
X173900000Y-94950000D02*
X173900000Y-91450000D01*
G04 #@! TO.C,R35*
X159180000Y-87370000D02*
X156220000Y-87370000D01*
X159180000Y-88830000D02*
X159180000Y-87370000D01*
X156220000Y-88830000D02*
X159180000Y-88830000D01*
X156220000Y-87370000D02*
X156220000Y-88830000D01*
G04 #@! TO.C,R36*
X164180000Y-94030000D02*
X164180000Y-92570000D01*
X164180000Y-92570000D02*
X161220000Y-92570000D01*
X161220000Y-92570000D02*
X161220000Y-94030000D01*
X161220000Y-94030000D02*
X164180000Y-94030000D01*
G04 #@! TO.C,U12*
X159300000Y-91000000D02*
X159300000Y-94800000D01*
X155700000Y-91000000D02*
X159300000Y-91000000D01*
X155700000Y-94800000D02*
X155700000Y-91000000D01*
X159300000Y-94800000D02*
X155700000Y-94800000D01*
G04 #@! TO.C,JP1*
X178050000Y-87050000D02*
X174750000Y-87050000D01*
X178050000Y-87050000D02*
X178050000Y-89550000D01*
X174750000Y-89550000D02*
X174750000Y-87050000D01*
X174750000Y-89550000D02*
X178050000Y-89550000D01*
G04 #@! TO.C,JP2*
X77850000Y-87750000D02*
X81150000Y-87750000D01*
X77850000Y-87750000D02*
X77850000Y-85250000D01*
X81150000Y-85250000D02*
X81150000Y-87750000D01*
X81150000Y-85250000D02*
X77850000Y-85250000D01*
G04 #@! TD*
M02*
