G04 #@! TF.GenerationSoftware,KiCad,Pcbnew,(5.0.1-3-g963ef8bb5)*
G04 #@! TF.CreationDate,2019-06-17T09:36:16+02:00*
G04 #@! TF.ProjectId,cz19-badge,637A31392D62616467652E6B69636164,rev?*
G04 #@! TF.SameCoordinates,Original*
G04 #@! TF.FileFunction,Soldermask,Top*
G04 #@! TF.FilePolarity,Negative*
%FSLAX46Y46*%
G04 Gerber Fmt 4.6, Leading zero omitted, Abs format (unit mm)*
G04 Created by KiCad (PCBNEW (5.0.1-3-g963ef8bb5)) date 2019 June 17, Monday 09:36:16*
%MOMM*%
%LPD*%
G01*
G04 APERTURE LIST*
%ADD10C,0.100000*%
G04 APERTURE END LIST*
D10*
G36*
X244401000Y-115451000D02*
X243299000Y-115451000D01*
X243299000Y-114549000D01*
X244401000Y-114549000D01*
X244401000Y-115451000D01*
X244401000Y-115451000D01*
G37*
G36*
X241901000Y-115451000D02*
X240799000Y-115451000D01*
X240799000Y-114549000D01*
X241901000Y-114549000D01*
X241901000Y-115451000D01*
X241901000Y-115451000D01*
G37*
G36*
X238401000Y-115451000D02*
X237299000Y-115451000D01*
X237299000Y-114549000D01*
X238401000Y-114549000D01*
X238401000Y-115451000D01*
X238401000Y-115451000D01*
G37*
G36*
X235901000Y-115451000D02*
X234799000Y-115451000D01*
X234799000Y-114549000D01*
X235901000Y-114549000D01*
X235901000Y-115451000D01*
X235901000Y-115451000D01*
G37*
G36*
X232401000Y-115451000D02*
X231299000Y-115451000D01*
X231299000Y-114549000D01*
X232401000Y-114549000D01*
X232401000Y-115451000D01*
X232401000Y-115451000D01*
G37*
G36*
X229901000Y-115451000D02*
X228799000Y-115451000D01*
X228799000Y-114549000D01*
X229901000Y-114549000D01*
X229901000Y-115451000D01*
X229901000Y-115451000D01*
G37*
G36*
X226401000Y-115451000D02*
X225299000Y-115451000D01*
X225299000Y-114549000D01*
X226401000Y-114549000D01*
X226401000Y-115451000D01*
X226401000Y-115451000D01*
G37*
G36*
X223901000Y-115451000D02*
X222799000Y-115451000D01*
X222799000Y-114549000D01*
X223901000Y-114549000D01*
X223901000Y-115451000D01*
X223901000Y-115451000D01*
G37*
G36*
X220401000Y-115451000D02*
X219299000Y-115451000D01*
X219299000Y-114549000D01*
X220401000Y-114549000D01*
X220401000Y-115451000D01*
X220401000Y-115451000D01*
G37*
G36*
X217901000Y-115451000D02*
X216799000Y-115451000D01*
X216799000Y-114549000D01*
X217901000Y-114549000D01*
X217901000Y-115451000D01*
X217901000Y-115451000D01*
G37*
G36*
X214401000Y-115451000D02*
X213299000Y-115451000D01*
X213299000Y-114549000D01*
X214401000Y-114549000D01*
X214401000Y-115451000D01*
X214401000Y-115451000D01*
G37*
G36*
X211901000Y-115451000D02*
X210799000Y-115451000D01*
X210799000Y-114549000D01*
X211901000Y-114549000D01*
X211901000Y-115451000D01*
X211901000Y-115451000D01*
G37*
G36*
X208401000Y-115451000D02*
X207299000Y-115451000D01*
X207299000Y-114549000D01*
X208401000Y-114549000D01*
X208401000Y-115451000D01*
X208401000Y-115451000D01*
G37*
G36*
X205901000Y-115451000D02*
X204799000Y-115451000D01*
X204799000Y-114549000D01*
X205901000Y-114549000D01*
X205901000Y-115451000D01*
X205901000Y-115451000D01*
G37*
G36*
X202401000Y-115451000D02*
X201299000Y-115451000D01*
X201299000Y-114549000D01*
X202401000Y-114549000D01*
X202401000Y-115451000D01*
X202401000Y-115451000D01*
G37*
G36*
X199901000Y-115451000D02*
X198799000Y-115451000D01*
X198799000Y-114549000D01*
X199901000Y-114549000D01*
X199901000Y-115451000D01*
X199901000Y-115451000D01*
G37*
G36*
X196401000Y-115451000D02*
X195299000Y-115451000D01*
X195299000Y-114549000D01*
X196401000Y-114549000D01*
X196401000Y-115451000D01*
X196401000Y-115451000D01*
G37*
G36*
X193901000Y-115451000D02*
X192799000Y-115451000D01*
X192799000Y-114549000D01*
X193901000Y-114549000D01*
X193901000Y-115451000D01*
X193901000Y-115451000D01*
G37*
G36*
X190401000Y-115451000D02*
X189299000Y-115451000D01*
X189299000Y-114549000D01*
X190401000Y-114549000D01*
X190401000Y-115451000D01*
X190401000Y-115451000D01*
G37*
G36*
X187901000Y-115451000D02*
X186799000Y-115451000D01*
X186799000Y-114549000D01*
X187901000Y-114549000D01*
X187901000Y-115451000D01*
X187901000Y-115451000D01*
G37*
G36*
X184401000Y-115451000D02*
X183299000Y-115451000D01*
X183299000Y-114549000D01*
X184401000Y-114549000D01*
X184401000Y-115451000D01*
X184401000Y-115451000D01*
G37*
G36*
X181901000Y-115451000D02*
X180799000Y-115451000D01*
X180799000Y-114549000D01*
X181901000Y-114549000D01*
X181901000Y-115451000D01*
X181901000Y-115451000D01*
G37*
G36*
X178401000Y-115451000D02*
X177299000Y-115451000D01*
X177299000Y-114549000D01*
X178401000Y-114549000D01*
X178401000Y-115451000D01*
X178401000Y-115451000D01*
G37*
G36*
X175901000Y-115451000D02*
X174799000Y-115451000D01*
X174799000Y-114549000D01*
X175901000Y-114549000D01*
X175901000Y-115451000D01*
X175901000Y-115451000D01*
G37*
G36*
X172401000Y-115451000D02*
X171299000Y-115451000D01*
X171299000Y-114549000D01*
X172401000Y-114549000D01*
X172401000Y-115451000D01*
X172401000Y-115451000D01*
G37*
G36*
X169901000Y-115451000D02*
X168799000Y-115451000D01*
X168799000Y-114549000D01*
X169901000Y-114549000D01*
X169901000Y-115451000D01*
X169901000Y-115451000D01*
G37*
G36*
X166401000Y-115451000D02*
X165299000Y-115451000D01*
X165299000Y-114549000D01*
X166401000Y-114549000D01*
X166401000Y-115451000D01*
X166401000Y-115451000D01*
G37*
G36*
X163901000Y-115451000D02*
X162799000Y-115451000D01*
X162799000Y-114549000D01*
X163901000Y-114549000D01*
X163901000Y-115451000D01*
X163901000Y-115451000D01*
G37*
G36*
X160401000Y-115451000D02*
X159299000Y-115451000D01*
X159299000Y-114549000D01*
X160401000Y-114549000D01*
X160401000Y-115451000D01*
X160401000Y-115451000D01*
G37*
G36*
X157901000Y-115451000D02*
X156799000Y-115451000D01*
X156799000Y-114549000D01*
X157901000Y-114549000D01*
X157901000Y-115451000D01*
X157901000Y-115451000D01*
G37*
G36*
X154401000Y-115451000D02*
X153299000Y-115451000D01*
X153299000Y-114549000D01*
X154401000Y-114549000D01*
X154401000Y-115451000D01*
X154401000Y-115451000D01*
G37*
G36*
X151901000Y-115451000D02*
X150799000Y-115451000D01*
X150799000Y-114549000D01*
X151901000Y-114549000D01*
X151901000Y-115451000D01*
X151901000Y-115451000D01*
G37*
G36*
X148401000Y-115451000D02*
X147299000Y-115451000D01*
X147299000Y-114549000D01*
X148401000Y-114549000D01*
X148401000Y-115451000D01*
X148401000Y-115451000D01*
G37*
G36*
X145901000Y-115451000D02*
X144799000Y-115451000D01*
X144799000Y-114549000D01*
X145901000Y-114549000D01*
X145901000Y-115451000D01*
X145901000Y-115451000D01*
G37*
G36*
X142401000Y-115451000D02*
X141299000Y-115451000D01*
X141299000Y-114549000D01*
X142401000Y-114549000D01*
X142401000Y-115451000D01*
X142401000Y-115451000D01*
G37*
G36*
X139901000Y-115451000D02*
X138799000Y-115451000D01*
X138799000Y-114549000D01*
X139901000Y-114549000D01*
X139901000Y-115451000D01*
X139901000Y-115451000D01*
G37*
G36*
X136401000Y-115451000D02*
X135299000Y-115451000D01*
X135299000Y-114549000D01*
X136401000Y-114549000D01*
X136401000Y-115451000D01*
X136401000Y-115451000D01*
G37*
G36*
X133901000Y-115451000D02*
X132799000Y-115451000D01*
X132799000Y-114549000D01*
X133901000Y-114549000D01*
X133901000Y-115451000D01*
X133901000Y-115451000D01*
G37*
G36*
X130401000Y-115451000D02*
X129299000Y-115451000D01*
X129299000Y-114549000D01*
X130401000Y-114549000D01*
X130401000Y-115451000D01*
X130401000Y-115451000D01*
G37*
G36*
X127901000Y-115451000D02*
X126799000Y-115451000D01*
X126799000Y-114549000D01*
X127901000Y-114549000D01*
X127901000Y-115451000D01*
X127901000Y-115451000D01*
G37*
G36*
X124401000Y-115451000D02*
X123299000Y-115451000D01*
X123299000Y-114549000D01*
X124401000Y-114549000D01*
X124401000Y-115451000D01*
X124401000Y-115451000D01*
G37*
G36*
X121901000Y-115451000D02*
X120799000Y-115451000D01*
X120799000Y-114549000D01*
X121901000Y-114549000D01*
X121901000Y-115451000D01*
X121901000Y-115451000D01*
G37*
G36*
X118401000Y-115451000D02*
X117299000Y-115451000D01*
X117299000Y-114549000D01*
X118401000Y-114549000D01*
X118401000Y-115451000D01*
X118401000Y-115451000D01*
G37*
G36*
X115901000Y-115451000D02*
X114799000Y-115451000D01*
X114799000Y-114549000D01*
X115901000Y-114549000D01*
X115901000Y-115451000D01*
X115901000Y-115451000D01*
G37*
G36*
X112401000Y-115451000D02*
X111299000Y-115451000D01*
X111299000Y-114549000D01*
X112401000Y-114549000D01*
X112401000Y-115451000D01*
X112401000Y-115451000D01*
G37*
G36*
X109901000Y-115451000D02*
X108799000Y-115451000D01*
X108799000Y-114549000D01*
X109901000Y-114549000D01*
X109901000Y-115451000D01*
X109901000Y-115451000D01*
G37*
G36*
X106401000Y-115451000D02*
X105299000Y-115451000D01*
X105299000Y-114549000D01*
X106401000Y-114549000D01*
X106401000Y-115451000D01*
X106401000Y-115451000D01*
G37*
G36*
X103901000Y-115451000D02*
X102799000Y-115451000D01*
X102799000Y-114549000D01*
X103901000Y-114549000D01*
X103901000Y-115451000D01*
X103901000Y-115451000D01*
G37*
G36*
X100401000Y-115451000D02*
X99299000Y-115451000D01*
X99299000Y-114549000D01*
X100401000Y-114549000D01*
X100401000Y-115451000D01*
X100401000Y-115451000D01*
G37*
G36*
X97901000Y-115451000D02*
X96799000Y-115451000D01*
X96799000Y-114549000D01*
X97901000Y-114549000D01*
X97901000Y-115451000D01*
X97901000Y-115451000D01*
G37*
G36*
X94401000Y-115451000D02*
X93299000Y-115451000D01*
X93299000Y-114549000D01*
X94401000Y-114549000D01*
X94401000Y-115451000D01*
X94401000Y-115451000D01*
G37*
G36*
X91901000Y-115451000D02*
X90799000Y-115451000D01*
X90799000Y-114549000D01*
X91901000Y-114549000D01*
X91901000Y-115451000D01*
X91901000Y-115451000D01*
G37*
G36*
X88401000Y-115451000D02*
X87299000Y-115451000D01*
X87299000Y-114549000D01*
X88401000Y-114549000D01*
X88401000Y-115451000D01*
X88401000Y-115451000D01*
G37*
G36*
X85901000Y-115451000D02*
X84799000Y-115451000D01*
X84799000Y-114549000D01*
X85901000Y-114549000D01*
X85901000Y-115451000D01*
X85901000Y-115451000D01*
G37*
G36*
X82401000Y-115451000D02*
X81299000Y-115451000D01*
X81299000Y-114549000D01*
X82401000Y-114549000D01*
X82401000Y-115451000D01*
X82401000Y-115451000D01*
G37*
G36*
X79901000Y-115451000D02*
X78799000Y-115451000D01*
X78799000Y-114549000D01*
X79901000Y-114549000D01*
X79901000Y-115451000D01*
X79901000Y-115451000D01*
G37*
G36*
X76401000Y-115451000D02*
X75299000Y-115451000D01*
X75299000Y-114549000D01*
X76401000Y-114549000D01*
X76401000Y-115451000D01*
X76401000Y-115451000D01*
G37*
G36*
X73901000Y-115451000D02*
X72799000Y-115451000D01*
X72799000Y-114549000D01*
X73901000Y-114549000D01*
X73901000Y-115451000D01*
X73901000Y-115451000D01*
G37*
G36*
X70401000Y-115451000D02*
X69299000Y-115451000D01*
X69299000Y-114549000D01*
X70401000Y-114549000D01*
X70401000Y-115451000D01*
X70401000Y-115451000D01*
G37*
G36*
X67901000Y-115451000D02*
X66799000Y-115451000D01*
X66799000Y-114549000D01*
X67901000Y-114549000D01*
X67901000Y-115451000D01*
X67901000Y-115451000D01*
G37*
G36*
X64401000Y-115451000D02*
X63299000Y-115451000D01*
X63299000Y-114549000D01*
X64401000Y-114549000D01*
X64401000Y-115451000D01*
X64401000Y-115451000D01*
G37*
G36*
X61901000Y-115451000D02*
X60799000Y-115451000D01*
X60799000Y-114549000D01*
X61901000Y-114549000D01*
X61901000Y-115451000D01*
X61901000Y-115451000D01*
G37*
G36*
X58401000Y-115451000D02*
X57299000Y-115451000D01*
X57299000Y-114549000D01*
X58401000Y-114549000D01*
X58401000Y-115451000D01*
X58401000Y-115451000D01*
G37*
G36*
X55901000Y-115451000D02*
X54799000Y-115451000D01*
X54799000Y-114549000D01*
X55901000Y-114549000D01*
X55901000Y-115451000D01*
X55901000Y-115451000D01*
G37*
G36*
X244401000Y-114051000D02*
X243299000Y-114051000D01*
X243299000Y-113149000D01*
X244401000Y-113149000D01*
X244401000Y-114051000D01*
X244401000Y-114051000D01*
G37*
G36*
X241901000Y-114051000D02*
X240799000Y-114051000D01*
X240799000Y-113149000D01*
X241901000Y-113149000D01*
X241901000Y-114051000D01*
X241901000Y-114051000D01*
G37*
G36*
X58401000Y-114051000D02*
X57299000Y-114051000D01*
X57299000Y-113149000D01*
X58401000Y-113149000D01*
X58401000Y-114051000D01*
X58401000Y-114051000D01*
G37*
G36*
X55901000Y-114051000D02*
X54799000Y-114051000D01*
X54799000Y-113149000D01*
X55901000Y-113149000D01*
X55901000Y-114051000D01*
X55901000Y-114051000D01*
G37*
G36*
X238401000Y-114051000D02*
X237299000Y-114051000D01*
X237299000Y-113149000D01*
X238401000Y-113149000D01*
X238401000Y-114051000D01*
X238401000Y-114051000D01*
G37*
G36*
X235901000Y-114051000D02*
X234799000Y-114051000D01*
X234799000Y-113149000D01*
X235901000Y-113149000D01*
X235901000Y-114051000D01*
X235901000Y-114051000D01*
G37*
G36*
X64401000Y-114051000D02*
X63299000Y-114051000D01*
X63299000Y-113149000D01*
X64401000Y-113149000D01*
X64401000Y-114051000D01*
X64401000Y-114051000D01*
G37*
G36*
X61901000Y-114051000D02*
X60799000Y-114051000D01*
X60799000Y-113149000D01*
X61901000Y-113149000D01*
X61901000Y-114051000D01*
X61901000Y-114051000D01*
G37*
G36*
X232401000Y-114051000D02*
X231299000Y-114051000D01*
X231299000Y-113149000D01*
X232401000Y-113149000D01*
X232401000Y-114051000D01*
X232401000Y-114051000D01*
G37*
G36*
X229901000Y-114051000D02*
X228799000Y-114051000D01*
X228799000Y-113149000D01*
X229901000Y-113149000D01*
X229901000Y-114051000D01*
X229901000Y-114051000D01*
G37*
G36*
X70401000Y-114051000D02*
X69299000Y-114051000D01*
X69299000Y-113149000D01*
X70401000Y-113149000D01*
X70401000Y-114051000D01*
X70401000Y-114051000D01*
G37*
G36*
X67901000Y-114051000D02*
X66799000Y-114051000D01*
X66799000Y-113149000D01*
X67901000Y-113149000D01*
X67901000Y-114051000D01*
X67901000Y-114051000D01*
G37*
G36*
X226401000Y-114051000D02*
X225299000Y-114051000D01*
X225299000Y-113149000D01*
X226401000Y-113149000D01*
X226401000Y-114051000D01*
X226401000Y-114051000D01*
G37*
G36*
X223901000Y-114051000D02*
X222799000Y-114051000D01*
X222799000Y-113149000D01*
X223901000Y-113149000D01*
X223901000Y-114051000D01*
X223901000Y-114051000D01*
G37*
G36*
X76401000Y-114051000D02*
X75299000Y-114051000D01*
X75299000Y-113149000D01*
X76401000Y-113149000D01*
X76401000Y-114051000D01*
X76401000Y-114051000D01*
G37*
G36*
X73901000Y-114051000D02*
X72799000Y-114051000D01*
X72799000Y-113149000D01*
X73901000Y-113149000D01*
X73901000Y-114051000D01*
X73901000Y-114051000D01*
G37*
G36*
X220401000Y-114051000D02*
X219299000Y-114051000D01*
X219299000Y-113149000D01*
X220401000Y-113149000D01*
X220401000Y-114051000D01*
X220401000Y-114051000D01*
G37*
G36*
X217901000Y-114051000D02*
X216799000Y-114051000D01*
X216799000Y-113149000D01*
X217901000Y-113149000D01*
X217901000Y-114051000D01*
X217901000Y-114051000D01*
G37*
G36*
X82401000Y-114051000D02*
X81299000Y-114051000D01*
X81299000Y-113149000D01*
X82401000Y-113149000D01*
X82401000Y-114051000D01*
X82401000Y-114051000D01*
G37*
G36*
X79901000Y-114051000D02*
X78799000Y-114051000D01*
X78799000Y-113149000D01*
X79901000Y-113149000D01*
X79901000Y-114051000D01*
X79901000Y-114051000D01*
G37*
G36*
X214401000Y-114051000D02*
X213299000Y-114051000D01*
X213299000Y-113149000D01*
X214401000Y-113149000D01*
X214401000Y-114051000D01*
X214401000Y-114051000D01*
G37*
G36*
X211901000Y-114051000D02*
X210799000Y-114051000D01*
X210799000Y-113149000D01*
X211901000Y-113149000D01*
X211901000Y-114051000D01*
X211901000Y-114051000D01*
G37*
G36*
X88401000Y-114051000D02*
X87299000Y-114051000D01*
X87299000Y-113149000D01*
X88401000Y-113149000D01*
X88401000Y-114051000D01*
X88401000Y-114051000D01*
G37*
G36*
X85901000Y-114051000D02*
X84799000Y-114051000D01*
X84799000Y-113149000D01*
X85901000Y-113149000D01*
X85901000Y-114051000D01*
X85901000Y-114051000D01*
G37*
G36*
X208401000Y-114051000D02*
X207299000Y-114051000D01*
X207299000Y-113149000D01*
X208401000Y-113149000D01*
X208401000Y-114051000D01*
X208401000Y-114051000D01*
G37*
G36*
X205901000Y-114051000D02*
X204799000Y-114051000D01*
X204799000Y-113149000D01*
X205901000Y-113149000D01*
X205901000Y-114051000D01*
X205901000Y-114051000D01*
G37*
G36*
X94401000Y-114051000D02*
X93299000Y-114051000D01*
X93299000Y-113149000D01*
X94401000Y-113149000D01*
X94401000Y-114051000D01*
X94401000Y-114051000D01*
G37*
G36*
X91901000Y-114051000D02*
X90799000Y-114051000D01*
X90799000Y-113149000D01*
X91901000Y-113149000D01*
X91901000Y-114051000D01*
X91901000Y-114051000D01*
G37*
G36*
X202401000Y-114051000D02*
X201299000Y-114051000D01*
X201299000Y-113149000D01*
X202401000Y-113149000D01*
X202401000Y-114051000D01*
X202401000Y-114051000D01*
G37*
G36*
X199901000Y-114051000D02*
X198799000Y-114051000D01*
X198799000Y-113149000D01*
X199901000Y-113149000D01*
X199901000Y-114051000D01*
X199901000Y-114051000D01*
G37*
G36*
X100401000Y-114051000D02*
X99299000Y-114051000D01*
X99299000Y-113149000D01*
X100401000Y-113149000D01*
X100401000Y-114051000D01*
X100401000Y-114051000D01*
G37*
G36*
X97901000Y-114051000D02*
X96799000Y-114051000D01*
X96799000Y-113149000D01*
X97901000Y-113149000D01*
X97901000Y-114051000D01*
X97901000Y-114051000D01*
G37*
G36*
X196401000Y-114051000D02*
X195299000Y-114051000D01*
X195299000Y-113149000D01*
X196401000Y-113149000D01*
X196401000Y-114051000D01*
X196401000Y-114051000D01*
G37*
G36*
X193901000Y-114051000D02*
X192799000Y-114051000D01*
X192799000Y-113149000D01*
X193901000Y-113149000D01*
X193901000Y-114051000D01*
X193901000Y-114051000D01*
G37*
G36*
X106401000Y-114051000D02*
X105299000Y-114051000D01*
X105299000Y-113149000D01*
X106401000Y-113149000D01*
X106401000Y-114051000D01*
X106401000Y-114051000D01*
G37*
G36*
X103901000Y-114051000D02*
X102799000Y-114051000D01*
X102799000Y-113149000D01*
X103901000Y-113149000D01*
X103901000Y-114051000D01*
X103901000Y-114051000D01*
G37*
G36*
X190401000Y-114051000D02*
X189299000Y-114051000D01*
X189299000Y-113149000D01*
X190401000Y-113149000D01*
X190401000Y-114051000D01*
X190401000Y-114051000D01*
G37*
G36*
X187901000Y-114051000D02*
X186799000Y-114051000D01*
X186799000Y-113149000D01*
X187901000Y-113149000D01*
X187901000Y-114051000D01*
X187901000Y-114051000D01*
G37*
G36*
X112401000Y-114051000D02*
X111299000Y-114051000D01*
X111299000Y-113149000D01*
X112401000Y-113149000D01*
X112401000Y-114051000D01*
X112401000Y-114051000D01*
G37*
G36*
X109901000Y-114051000D02*
X108799000Y-114051000D01*
X108799000Y-113149000D01*
X109901000Y-113149000D01*
X109901000Y-114051000D01*
X109901000Y-114051000D01*
G37*
G36*
X184401000Y-114051000D02*
X183299000Y-114051000D01*
X183299000Y-113149000D01*
X184401000Y-113149000D01*
X184401000Y-114051000D01*
X184401000Y-114051000D01*
G37*
G36*
X181901000Y-114051000D02*
X180799000Y-114051000D01*
X180799000Y-113149000D01*
X181901000Y-113149000D01*
X181901000Y-114051000D01*
X181901000Y-114051000D01*
G37*
G36*
X118401000Y-114051000D02*
X117299000Y-114051000D01*
X117299000Y-113149000D01*
X118401000Y-113149000D01*
X118401000Y-114051000D01*
X118401000Y-114051000D01*
G37*
G36*
X115901000Y-114051000D02*
X114799000Y-114051000D01*
X114799000Y-113149000D01*
X115901000Y-113149000D01*
X115901000Y-114051000D01*
X115901000Y-114051000D01*
G37*
G36*
X178401000Y-114051000D02*
X177299000Y-114051000D01*
X177299000Y-113149000D01*
X178401000Y-113149000D01*
X178401000Y-114051000D01*
X178401000Y-114051000D01*
G37*
G36*
X175901000Y-114051000D02*
X174799000Y-114051000D01*
X174799000Y-113149000D01*
X175901000Y-113149000D01*
X175901000Y-114051000D01*
X175901000Y-114051000D01*
G37*
G36*
X124401000Y-114051000D02*
X123299000Y-114051000D01*
X123299000Y-113149000D01*
X124401000Y-113149000D01*
X124401000Y-114051000D01*
X124401000Y-114051000D01*
G37*
G36*
X121901000Y-114051000D02*
X120799000Y-114051000D01*
X120799000Y-113149000D01*
X121901000Y-113149000D01*
X121901000Y-114051000D01*
X121901000Y-114051000D01*
G37*
G36*
X172401000Y-114051000D02*
X171299000Y-114051000D01*
X171299000Y-113149000D01*
X172401000Y-113149000D01*
X172401000Y-114051000D01*
X172401000Y-114051000D01*
G37*
G36*
X169901000Y-114051000D02*
X168799000Y-114051000D01*
X168799000Y-113149000D01*
X169901000Y-113149000D01*
X169901000Y-114051000D01*
X169901000Y-114051000D01*
G37*
G36*
X130401000Y-114051000D02*
X129299000Y-114051000D01*
X129299000Y-113149000D01*
X130401000Y-113149000D01*
X130401000Y-114051000D01*
X130401000Y-114051000D01*
G37*
G36*
X127901000Y-114051000D02*
X126799000Y-114051000D01*
X126799000Y-113149000D01*
X127901000Y-113149000D01*
X127901000Y-114051000D01*
X127901000Y-114051000D01*
G37*
G36*
X166401000Y-114051000D02*
X165299000Y-114051000D01*
X165299000Y-113149000D01*
X166401000Y-113149000D01*
X166401000Y-114051000D01*
X166401000Y-114051000D01*
G37*
G36*
X163901000Y-114051000D02*
X162799000Y-114051000D01*
X162799000Y-113149000D01*
X163901000Y-113149000D01*
X163901000Y-114051000D01*
X163901000Y-114051000D01*
G37*
G36*
X136401000Y-114051000D02*
X135299000Y-114051000D01*
X135299000Y-113149000D01*
X136401000Y-113149000D01*
X136401000Y-114051000D01*
X136401000Y-114051000D01*
G37*
G36*
X133901000Y-114051000D02*
X132799000Y-114051000D01*
X132799000Y-113149000D01*
X133901000Y-113149000D01*
X133901000Y-114051000D01*
X133901000Y-114051000D01*
G37*
G36*
X160401000Y-114051000D02*
X159299000Y-114051000D01*
X159299000Y-113149000D01*
X160401000Y-113149000D01*
X160401000Y-114051000D01*
X160401000Y-114051000D01*
G37*
G36*
X157901000Y-114051000D02*
X156799000Y-114051000D01*
X156799000Y-113149000D01*
X157901000Y-113149000D01*
X157901000Y-114051000D01*
X157901000Y-114051000D01*
G37*
G36*
X142401000Y-114051000D02*
X141299000Y-114051000D01*
X141299000Y-113149000D01*
X142401000Y-113149000D01*
X142401000Y-114051000D01*
X142401000Y-114051000D01*
G37*
G36*
X139901000Y-114051000D02*
X138799000Y-114051000D01*
X138799000Y-113149000D01*
X139901000Y-113149000D01*
X139901000Y-114051000D01*
X139901000Y-114051000D01*
G37*
G36*
X154401000Y-114051000D02*
X153299000Y-114051000D01*
X153299000Y-113149000D01*
X154401000Y-113149000D01*
X154401000Y-114051000D01*
X154401000Y-114051000D01*
G37*
G36*
X151901000Y-114051000D02*
X150799000Y-114051000D01*
X150799000Y-113149000D01*
X151901000Y-113149000D01*
X151901000Y-114051000D01*
X151901000Y-114051000D01*
G37*
G36*
X148401000Y-114051000D02*
X147299000Y-114051000D01*
X147299000Y-113149000D01*
X148401000Y-113149000D01*
X148401000Y-114051000D01*
X148401000Y-114051000D01*
G37*
G36*
X145901000Y-114051000D02*
X144799000Y-114051000D01*
X144799000Y-113149000D01*
X145901000Y-113149000D01*
X145901000Y-114051000D01*
X145901000Y-114051000D01*
G37*
G36*
X241901000Y-109451000D02*
X240799000Y-109451000D01*
X240799000Y-108549000D01*
X241901000Y-108549000D01*
X241901000Y-109451000D01*
X241901000Y-109451000D01*
G37*
G36*
X244401000Y-109451000D02*
X243299000Y-109451000D01*
X243299000Y-108549000D01*
X244401000Y-108549000D01*
X244401000Y-109451000D01*
X244401000Y-109451000D01*
G37*
G36*
X55901000Y-109451000D02*
X54799000Y-109451000D01*
X54799000Y-108549000D01*
X55901000Y-108549000D01*
X55901000Y-109451000D01*
X55901000Y-109451000D01*
G37*
G36*
X58401000Y-109451000D02*
X57299000Y-109451000D01*
X57299000Y-108549000D01*
X58401000Y-108549000D01*
X58401000Y-109451000D01*
X58401000Y-109451000D01*
G37*
G36*
X61901000Y-109451000D02*
X60799000Y-109451000D01*
X60799000Y-108549000D01*
X61901000Y-108549000D01*
X61901000Y-109451000D01*
X61901000Y-109451000D01*
G37*
G36*
X64401000Y-109451000D02*
X63299000Y-109451000D01*
X63299000Y-108549000D01*
X64401000Y-108549000D01*
X64401000Y-109451000D01*
X64401000Y-109451000D01*
G37*
G36*
X67901000Y-109451000D02*
X66799000Y-109451000D01*
X66799000Y-108549000D01*
X67901000Y-108549000D01*
X67901000Y-109451000D01*
X67901000Y-109451000D01*
G37*
G36*
X70401000Y-109451000D02*
X69299000Y-109451000D01*
X69299000Y-108549000D01*
X70401000Y-108549000D01*
X70401000Y-109451000D01*
X70401000Y-109451000D01*
G37*
G36*
X73901000Y-109451000D02*
X72799000Y-109451000D01*
X72799000Y-108549000D01*
X73901000Y-108549000D01*
X73901000Y-109451000D01*
X73901000Y-109451000D01*
G37*
G36*
X76401000Y-109451000D02*
X75299000Y-109451000D01*
X75299000Y-108549000D01*
X76401000Y-108549000D01*
X76401000Y-109451000D01*
X76401000Y-109451000D01*
G37*
G36*
X79901000Y-109451000D02*
X78799000Y-109451000D01*
X78799000Y-108549000D01*
X79901000Y-108549000D01*
X79901000Y-109451000D01*
X79901000Y-109451000D01*
G37*
G36*
X82401000Y-109451000D02*
X81299000Y-109451000D01*
X81299000Y-108549000D01*
X82401000Y-108549000D01*
X82401000Y-109451000D01*
X82401000Y-109451000D01*
G37*
G36*
X85901000Y-109451000D02*
X84799000Y-109451000D01*
X84799000Y-108549000D01*
X85901000Y-108549000D01*
X85901000Y-109451000D01*
X85901000Y-109451000D01*
G37*
G36*
X88401000Y-109451000D02*
X87299000Y-109451000D01*
X87299000Y-108549000D01*
X88401000Y-108549000D01*
X88401000Y-109451000D01*
X88401000Y-109451000D01*
G37*
G36*
X91901000Y-109451000D02*
X90799000Y-109451000D01*
X90799000Y-108549000D01*
X91901000Y-108549000D01*
X91901000Y-109451000D01*
X91901000Y-109451000D01*
G37*
G36*
X94401000Y-109451000D02*
X93299000Y-109451000D01*
X93299000Y-108549000D01*
X94401000Y-108549000D01*
X94401000Y-109451000D01*
X94401000Y-109451000D01*
G37*
G36*
X97901000Y-109451000D02*
X96799000Y-109451000D01*
X96799000Y-108549000D01*
X97901000Y-108549000D01*
X97901000Y-109451000D01*
X97901000Y-109451000D01*
G37*
G36*
X100401000Y-109451000D02*
X99299000Y-109451000D01*
X99299000Y-108549000D01*
X100401000Y-108549000D01*
X100401000Y-109451000D01*
X100401000Y-109451000D01*
G37*
G36*
X103901000Y-109451000D02*
X102799000Y-109451000D01*
X102799000Y-108549000D01*
X103901000Y-108549000D01*
X103901000Y-109451000D01*
X103901000Y-109451000D01*
G37*
G36*
X106401000Y-109451000D02*
X105299000Y-109451000D01*
X105299000Y-108549000D01*
X106401000Y-108549000D01*
X106401000Y-109451000D01*
X106401000Y-109451000D01*
G37*
G36*
X109901000Y-109451000D02*
X108799000Y-109451000D01*
X108799000Y-108549000D01*
X109901000Y-108549000D01*
X109901000Y-109451000D01*
X109901000Y-109451000D01*
G37*
G36*
X112401000Y-109451000D02*
X111299000Y-109451000D01*
X111299000Y-108549000D01*
X112401000Y-108549000D01*
X112401000Y-109451000D01*
X112401000Y-109451000D01*
G37*
G36*
X115901000Y-109451000D02*
X114799000Y-109451000D01*
X114799000Y-108549000D01*
X115901000Y-108549000D01*
X115901000Y-109451000D01*
X115901000Y-109451000D01*
G37*
G36*
X118401000Y-109451000D02*
X117299000Y-109451000D01*
X117299000Y-108549000D01*
X118401000Y-108549000D01*
X118401000Y-109451000D01*
X118401000Y-109451000D01*
G37*
G36*
X121901000Y-109451000D02*
X120799000Y-109451000D01*
X120799000Y-108549000D01*
X121901000Y-108549000D01*
X121901000Y-109451000D01*
X121901000Y-109451000D01*
G37*
G36*
X124401000Y-109451000D02*
X123299000Y-109451000D01*
X123299000Y-108549000D01*
X124401000Y-108549000D01*
X124401000Y-109451000D01*
X124401000Y-109451000D01*
G37*
G36*
X127901000Y-109451000D02*
X126799000Y-109451000D01*
X126799000Y-108549000D01*
X127901000Y-108549000D01*
X127901000Y-109451000D01*
X127901000Y-109451000D01*
G37*
G36*
X130401000Y-109451000D02*
X129299000Y-109451000D01*
X129299000Y-108549000D01*
X130401000Y-108549000D01*
X130401000Y-109451000D01*
X130401000Y-109451000D01*
G37*
G36*
X133901000Y-109451000D02*
X132799000Y-109451000D01*
X132799000Y-108549000D01*
X133901000Y-108549000D01*
X133901000Y-109451000D01*
X133901000Y-109451000D01*
G37*
G36*
X136401000Y-109451000D02*
X135299000Y-109451000D01*
X135299000Y-108549000D01*
X136401000Y-108549000D01*
X136401000Y-109451000D01*
X136401000Y-109451000D01*
G37*
G36*
X139901000Y-109451000D02*
X138799000Y-109451000D01*
X138799000Y-108549000D01*
X139901000Y-108549000D01*
X139901000Y-109451000D01*
X139901000Y-109451000D01*
G37*
G36*
X142401000Y-109451000D02*
X141299000Y-109451000D01*
X141299000Y-108549000D01*
X142401000Y-108549000D01*
X142401000Y-109451000D01*
X142401000Y-109451000D01*
G37*
G36*
X145901000Y-109451000D02*
X144799000Y-109451000D01*
X144799000Y-108549000D01*
X145901000Y-108549000D01*
X145901000Y-109451000D01*
X145901000Y-109451000D01*
G37*
G36*
X148401000Y-109451000D02*
X147299000Y-109451000D01*
X147299000Y-108549000D01*
X148401000Y-108549000D01*
X148401000Y-109451000D01*
X148401000Y-109451000D01*
G37*
G36*
X151901000Y-109451000D02*
X150799000Y-109451000D01*
X150799000Y-108549000D01*
X151901000Y-108549000D01*
X151901000Y-109451000D01*
X151901000Y-109451000D01*
G37*
G36*
X154401000Y-109451000D02*
X153299000Y-109451000D01*
X153299000Y-108549000D01*
X154401000Y-108549000D01*
X154401000Y-109451000D01*
X154401000Y-109451000D01*
G37*
G36*
X157901000Y-109451000D02*
X156799000Y-109451000D01*
X156799000Y-108549000D01*
X157901000Y-108549000D01*
X157901000Y-109451000D01*
X157901000Y-109451000D01*
G37*
G36*
X160401000Y-109451000D02*
X159299000Y-109451000D01*
X159299000Y-108549000D01*
X160401000Y-108549000D01*
X160401000Y-109451000D01*
X160401000Y-109451000D01*
G37*
G36*
X163901000Y-109451000D02*
X162799000Y-109451000D01*
X162799000Y-108549000D01*
X163901000Y-108549000D01*
X163901000Y-109451000D01*
X163901000Y-109451000D01*
G37*
G36*
X166401000Y-109451000D02*
X165299000Y-109451000D01*
X165299000Y-108549000D01*
X166401000Y-108549000D01*
X166401000Y-109451000D01*
X166401000Y-109451000D01*
G37*
G36*
X169901000Y-109451000D02*
X168799000Y-109451000D01*
X168799000Y-108549000D01*
X169901000Y-108549000D01*
X169901000Y-109451000D01*
X169901000Y-109451000D01*
G37*
G36*
X172401000Y-109451000D02*
X171299000Y-109451000D01*
X171299000Y-108549000D01*
X172401000Y-108549000D01*
X172401000Y-109451000D01*
X172401000Y-109451000D01*
G37*
G36*
X175901000Y-109451000D02*
X174799000Y-109451000D01*
X174799000Y-108549000D01*
X175901000Y-108549000D01*
X175901000Y-109451000D01*
X175901000Y-109451000D01*
G37*
G36*
X178401000Y-109451000D02*
X177299000Y-109451000D01*
X177299000Y-108549000D01*
X178401000Y-108549000D01*
X178401000Y-109451000D01*
X178401000Y-109451000D01*
G37*
G36*
X181901000Y-109451000D02*
X180799000Y-109451000D01*
X180799000Y-108549000D01*
X181901000Y-108549000D01*
X181901000Y-109451000D01*
X181901000Y-109451000D01*
G37*
G36*
X184401000Y-109451000D02*
X183299000Y-109451000D01*
X183299000Y-108549000D01*
X184401000Y-108549000D01*
X184401000Y-109451000D01*
X184401000Y-109451000D01*
G37*
G36*
X187901000Y-109451000D02*
X186799000Y-109451000D01*
X186799000Y-108549000D01*
X187901000Y-108549000D01*
X187901000Y-109451000D01*
X187901000Y-109451000D01*
G37*
G36*
X190401000Y-109451000D02*
X189299000Y-109451000D01*
X189299000Y-108549000D01*
X190401000Y-108549000D01*
X190401000Y-109451000D01*
X190401000Y-109451000D01*
G37*
G36*
X193901000Y-109451000D02*
X192799000Y-109451000D01*
X192799000Y-108549000D01*
X193901000Y-108549000D01*
X193901000Y-109451000D01*
X193901000Y-109451000D01*
G37*
G36*
X196401000Y-109451000D02*
X195299000Y-109451000D01*
X195299000Y-108549000D01*
X196401000Y-108549000D01*
X196401000Y-109451000D01*
X196401000Y-109451000D01*
G37*
G36*
X199901000Y-109451000D02*
X198799000Y-109451000D01*
X198799000Y-108549000D01*
X199901000Y-108549000D01*
X199901000Y-109451000D01*
X199901000Y-109451000D01*
G37*
G36*
X202401000Y-109451000D02*
X201299000Y-109451000D01*
X201299000Y-108549000D01*
X202401000Y-108549000D01*
X202401000Y-109451000D01*
X202401000Y-109451000D01*
G37*
G36*
X205901000Y-109451000D02*
X204799000Y-109451000D01*
X204799000Y-108549000D01*
X205901000Y-108549000D01*
X205901000Y-109451000D01*
X205901000Y-109451000D01*
G37*
G36*
X208401000Y-109451000D02*
X207299000Y-109451000D01*
X207299000Y-108549000D01*
X208401000Y-108549000D01*
X208401000Y-109451000D01*
X208401000Y-109451000D01*
G37*
G36*
X211901000Y-109451000D02*
X210799000Y-109451000D01*
X210799000Y-108549000D01*
X211901000Y-108549000D01*
X211901000Y-109451000D01*
X211901000Y-109451000D01*
G37*
G36*
X214401000Y-109451000D02*
X213299000Y-109451000D01*
X213299000Y-108549000D01*
X214401000Y-108549000D01*
X214401000Y-109451000D01*
X214401000Y-109451000D01*
G37*
G36*
X217901000Y-109451000D02*
X216799000Y-109451000D01*
X216799000Y-108549000D01*
X217901000Y-108549000D01*
X217901000Y-109451000D01*
X217901000Y-109451000D01*
G37*
G36*
X220401000Y-109451000D02*
X219299000Y-109451000D01*
X219299000Y-108549000D01*
X220401000Y-108549000D01*
X220401000Y-109451000D01*
X220401000Y-109451000D01*
G37*
G36*
X223901000Y-109451000D02*
X222799000Y-109451000D01*
X222799000Y-108549000D01*
X223901000Y-108549000D01*
X223901000Y-109451000D01*
X223901000Y-109451000D01*
G37*
G36*
X226401000Y-109451000D02*
X225299000Y-109451000D01*
X225299000Y-108549000D01*
X226401000Y-108549000D01*
X226401000Y-109451000D01*
X226401000Y-109451000D01*
G37*
G36*
X229901000Y-109451000D02*
X228799000Y-109451000D01*
X228799000Y-108549000D01*
X229901000Y-108549000D01*
X229901000Y-109451000D01*
X229901000Y-109451000D01*
G37*
G36*
X232401000Y-109451000D02*
X231299000Y-109451000D01*
X231299000Y-108549000D01*
X232401000Y-108549000D01*
X232401000Y-109451000D01*
X232401000Y-109451000D01*
G37*
G36*
X235901000Y-109451000D02*
X234799000Y-109451000D01*
X234799000Y-108549000D01*
X235901000Y-108549000D01*
X235901000Y-109451000D01*
X235901000Y-109451000D01*
G37*
G36*
X238401000Y-109451000D02*
X237299000Y-109451000D01*
X237299000Y-108549000D01*
X238401000Y-108549000D01*
X238401000Y-109451000D01*
X238401000Y-109451000D01*
G37*
G36*
X244401000Y-108051000D02*
X243299000Y-108051000D01*
X243299000Y-107149000D01*
X244401000Y-107149000D01*
X244401000Y-108051000D01*
X244401000Y-108051000D01*
G37*
G36*
X241901000Y-108051000D02*
X240799000Y-108051000D01*
X240799000Y-107149000D01*
X241901000Y-107149000D01*
X241901000Y-108051000D01*
X241901000Y-108051000D01*
G37*
G36*
X238401000Y-108051000D02*
X237299000Y-108051000D01*
X237299000Y-107149000D01*
X238401000Y-107149000D01*
X238401000Y-108051000D01*
X238401000Y-108051000D01*
G37*
G36*
X235901000Y-108051000D02*
X234799000Y-108051000D01*
X234799000Y-107149000D01*
X235901000Y-107149000D01*
X235901000Y-108051000D01*
X235901000Y-108051000D01*
G37*
G36*
X232401000Y-108051000D02*
X231299000Y-108051000D01*
X231299000Y-107149000D01*
X232401000Y-107149000D01*
X232401000Y-108051000D01*
X232401000Y-108051000D01*
G37*
G36*
X229901000Y-108051000D02*
X228799000Y-108051000D01*
X228799000Y-107149000D01*
X229901000Y-107149000D01*
X229901000Y-108051000D01*
X229901000Y-108051000D01*
G37*
G36*
X226401000Y-108051000D02*
X225299000Y-108051000D01*
X225299000Y-107149000D01*
X226401000Y-107149000D01*
X226401000Y-108051000D01*
X226401000Y-108051000D01*
G37*
G36*
X223901000Y-108051000D02*
X222799000Y-108051000D01*
X222799000Y-107149000D01*
X223901000Y-107149000D01*
X223901000Y-108051000D01*
X223901000Y-108051000D01*
G37*
G36*
X220401000Y-108051000D02*
X219299000Y-108051000D01*
X219299000Y-107149000D01*
X220401000Y-107149000D01*
X220401000Y-108051000D01*
X220401000Y-108051000D01*
G37*
G36*
X217901000Y-108051000D02*
X216799000Y-108051000D01*
X216799000Y-107149000D01*
X217901000Y-107149000D01*
X217901000Y-108051000D01*
X217901000Y-108051000D01*
G37*
G36*
X214401000Y-108051000D02*
X213299000Y-108051000D01*
X213299000Y-107149000D01*
X214401000Y-107149000D01*
X214401000Y-108051000D01*
X214401000Y-108051000D01*
G37*
G36*
X211901000Y-108051000D02*
X210799000Y-108051000D01*
X210799000Y-107149000D01*
X211901000Y-107149000D01*
X211901000Y-108051000D01*
X211901000Y-108051000D01*
G37*
G36*
X208401000Y-108051000D02*
X207299000Y-108051000D01*
X207299000Y-107149000D01*
X208401000Y-107149000D01*
X208401000Y-108051000D01*
X208401000Y-108051000D01*
G37*
G36*
X205901000Y-108051000D02*
X204799000Y-108051000D01*
X204799000Y-107149000D01*
X205901000Y-107149000D01*
X205901000Y-108051000D01*
X205901000Y-108051000D01*
G37*
G36*
X202401000Y-108051000D02*
X201299000Y-108051000D01*
X201299000Y-107149000D01*
X202401000Y-107149000D01*
X202401000Y-108051000D01*
X202401000Y-108051000D01*
G37*
G36*
X199901000Y-108051000D02*
X198799000Y-108051000D01*
X198799000Y-107149000D01*
X199901000Y-107149000D01*
X199901000Y-108051000D01*
X199901000Y-108051000D01*
G37*
G36*
X196401000Y-108051000D02*
X195299000Y-108051000D01*
X195299000Y-107149000D01*
X196401000Y-107149000D01*
X196401000Y-108051000D01*
X196401000Y-108051000D01*
G37*
G36*
X193901000Y-108051000D02*
X192799000Y-108051000D01*
X192799000Y-107149000D01*
X193901000Y-107149000D01*
X193901000Y-108051000D01*
X193901000Y-108051000D01*
G37*
G36*
X190401000Y-108051000D02*
X189299000Y-108051000D01*
X189299000Y-107149000D01*
X190401000Y-107149000D01*
X190401000Y-108051000D01*
X190401000Y-108051000D01*
G37*
G36*
X187901000Y-108051000D02*
X186799000Y-108051000D01*
X186799000Y-107149000D01*
X187901000Y-107149000D01*
X187901000Y-108051000D01*
X187901000Y-108051000D01*
G37*
G36*
X184401000Y-108051000D02*
X183299000Y-108051000D01*
X183299000Y-107149000D01*
X184401000Y-107149000D01*
X184401000Y-108051000D01*
X184401000Y-108051000D01*
G37*
G36*
X181901000Y-108051000D02*
X180799000Y-108051000D01*
X180799000Y-107149000D01*
X181901000Y-107149000D01*
X181901000Y-108051000D01*
X181901000Y-108051000D01*
G37*
G36*
X178401000Y-108051000D02*
X177299000Y-108051000D01*
X177299000Y-107149000D01*
X178401000Y-107149000D01*
X178401000Y-108051000D01*
X178401000Y-108051000D01*
G37*
G36*
X175901000Y-108051000D02*
X174799000Y-108051000D01*
X174799000Y-107149000D01*
X175901000Y-107149000D01*
X175901000Y-108051000D01*
X175901000Y-108051000D01*
G37*
G36*
X172401000Y-108051000D02*
X171299000Y-108051000D01*
X171299000Y-107149000D01*
X172401000Y-107149000D01*
X172401000Y-108051000D01*
X172401000Y-108051000D01*
G37*
G36*
X169901000Y-108051000D02*
X168799000Y-108051000D01*
X168799000Y-107149000D01*
X169901000Y-107149000D01*
X169901000Y-108051000D01*
X169901000Y-108051000D01*
G37*
G36*
X166401000Y-108051000D02*
X165299000Y-108051000D01*
X165299000Y-107149000D01*
X166401000Y-107149000D01*
X166401000Y-108051000D01*
X166401000Y-108051000D01*
G37*
G36*
X163901000Y-108051000D02*
X162799000Y-108051000D01*
X162799000Y-107149000D01*
X163901000Y-107149000D01*
X163901000Y-108051000D01*
X163901000Y-108051000D01*
G37*
G36*
X160401000Y-108051000D02*
X159299000Y-108051000D01*
X159299000Y-107149000D01*
X160401000Y-107149000D01*
X160401000Y-108051000D01*
X160401000Y-108051000D01*
G37*
G36*
X157901000Y-108051000D02*
X156799000Y-108051000D01*
X156799000Y-107149000D01*
X157901000Y-107149000D01*
X157901000Y-108051000D01*
X157901000Y-108051000D01*
G37*
G36*
X151901000Y-108051000D02*
X150799000Y-108051000D01*
X150799000Y-107149000D01*
X151901000Y-107149000D01*
X151901000Y-108051000D01*
X151901000Y-108051000D01*
G37*
G36*
X154401000Y-108051000D02*
X153299000Y-108051000D01*
X153299000Y-107149000D01*
X154401000Y-107149000D01*
X154401000Y-108051000D01*
X154401000Y-108051000D01*
G37*
G36*
X148401000Y-108051000D02*
X147299000Y-108051000D01*
X147299000Y-107149000D01*
X148401000Y-107149000D01*
X148401000Y-108051000D01*
X148401000Y-108051000D01*
G37*
G36*
X145901000Y-108051000D02*
X144799000Y-108051000D01*
X144799000Y-107149000D01*
X145901000Y-107149000D01*
X145901000Y-108051000D01*
X145901000Y-108051000D01*
G37*
G36*
X142401000Y-108051000D02*
X141299000Y-108051000D01*
X141299000Y-107149000D01*
X142401000Y-107149000D01*
X142401000Y-108051000D01*
X142401000Y-108051000D01*
G37*
G36*
X139901000Y-108051000D02*
X138799000Y-108051000D01*
X138799000Y-107149000D01*
X139901000Y-107149000D01*
X139901000Y-108051000D01*
X139901000Y-108051000D01*
G37*
G36*
X136401000Y-108051000D02*
X135299000Y-108051000D01*
X135299000Y-107149000D01*
X136401000Y-107149000D01*
X136401000Y-108051000D01*
X136401000Y-108051000D01*
G37*
G36*
X133901000Y-108051000D02*
X132799000Y-108051000D01*
X132799000Y-107149000D01*
X133901000Y-107149000D01*
X133901000Y-108051000D01*
X133901000Y-108051000D01*
G37*
G36*
X130401000Y-108051000D02*
X129299000Y-108051000D01*
X129299000Y-107149000D01*
X130401000Y-107149000D01*
X130401000Y-108051000D01*
X130401000Y-108051000D01*
G37*
G36*
X127901000Y-108051000D02*
X126799000Y-108051000D01*
X126799000Y-107149000D01*
X127901000Y-107149000D01*
X127901000Y-108051000D01*
X127901000Y-108051000D01*
G37*
G36*
X124401000Y-108051000D02*
X123299000Y-108051000D01*
X123299000Y-107149000D01*
X124401000Y-107149000D01*
X124401000Y-108051000D01*
X124401000Y-108051000D01*
G37*
G36*
X121901000Y-108051000D02*
X120799000Y-108051000D01*
X120799000Y-107149000D01*
X121901000Y-107149000D01*
X121901000Y-108051000D01*
X121901000Y-108051000D01*
G37*
G36*
X118401000Y-108051000D02*
X117299000Y-108051000D01*
X117299000Y-107149000D01*
X118401000Y-107149000D01*
X118401000Y-108051000D01*
X118401000Y-108051000D01*
G37*
G36*
X115901000Y-108051000D02*
X114799000Y-108051000D01*
X114799000Y-107149000D01*
X115901000Y-107149000D01*
X115901000Y-108051000D01*
X115901000Y-108051000D01*
G37*
G36*
X112401000Y-108051000D02*
X111299000Y-108051000D01*
X111299000Y-107149000D01*
X112401000Y-107149000D01*
X112401000Y-108051000D01*
X112401000Y-108051000D01*
G37*
G36*
X109901000Y-108051000D02*
X108799000Y-108051000D01*
X108799000Y-107149000D01*
X109901000Y-107149000D01*
X109901000Y-108051000D01*
X109901000Y-108051000D01*
G37*
G36*
X106401000Y-108051000D02*
X105299000Y-108051000D01*
X105299000Y-107149000D01*
X106401000Y-107149000D01*
X106401000Y-108051000D01*
X106401000Y-108051000D01*
G37*
G36*
X103901000Y-108051000D02*
X102799000Y-108051000D01*
X102799000Y-107149000D01*
X103901000Y-107149000D01*
X103901000Y-108051000D01*
X103901000Y-108051000D01*
G37*
G36*
X100401000Y-108051000D02*
X99299000Y-108051000D01*
X99299000Y-107149000D01*
X100401000Y-107149000D01*
X100401000Y-108051000D01*
X100401000Y-108051000D01*
G37*
G36*
X97901000Y-108051000D02*
X96799000Y-108051000D01*
X96799000Y-107149000D01*
X97901000Y-107149000D01*
X97901000Y-108051000D01*
X97901000Y-108051000D01*
G37*
G36*
X94401000Y-108051000D02*
X93299000Y-108051000D01*
X93299000Y-107149000D01*
X94401000Y-107149000D01*
X94401000Y-108051000D01*
X94401000Y-108051000D01*
G37*
G36*
X91901000Y-108051000D02*
X90799000Y-108051000D01*
X90799000Y-107149000D01*
X91901000Y-107149000D01*
X91901000Y-108051000D01*
X91901000Y-108051000D01*
G37*
G36*
X88401000Y-108051000D02*
X87299000Y-108051000D01*
X87299000Y-107149000D01*
X88401000Y-107149000D01*
X88401000Y-108051000D01*
X88401000Y-108051000D01*
G37*
G36*
X85901000Y-108051000D02*
X84799000Y-108051000D01*
X84799000Y-107149000D01*
X85901000Y-107149000D01*
X85901000Y-108051000D01*
X85901000Y-108051000D01*
G37*
G36*
X82401000Y-108051000D02*
X81299000Y-108051000D01*
X81299000Y-107149000D01*
X82401000Y-107149000D01*
X82401000Y-108051000D01*
X82401000Y-108051000D01*
G37*
G36*
X79901000Y-108051000D02*
X78799000Y-108051000D01*
X78799000Y-107149000D01*
X79901000Y-107149000D01*
X79901000Y-108051000D01*
X79901000Y-108051000D01*
G37*
G36*
X76401000Y-108051000D02*
X75299000Y-108051000D01*
X75299000Y-107149000D01*
X76401000Y-107149000D01*
X76401000Y-108051000D01*
X76401000Y-108051000D01*
G37*
G36*
X73901000Y-108051000D02*
X72799000Y-108051000D01*
X72799000Y-107149000D01*
X73901000Y-107149000D01*
X73901000Y-108051000D01*
X73901000Y-108051000D01*
G37*
G36*
X70401000Y-108051000D02*
X69299000Y-108051000D01*
X69299000Y-107149000D01*
X70401000Y-107149000D01*
X70401000Y-108051000D01*
X70401000Y-108051000D01*
G37*
G36*
X67901000Y-108051000D02*
X66799000Y-108051000D01*
X66799000Y-107149000D01*
X67901000Y-107149000D01*
X67901000Y-108051000D01*
X67901000Y-108051000D01*
G37*
G36*
X64401000Y-108051000D02*
X63299000Y-108051000D01*
X63299000Y-107149000D01*
X64401000Y-107149000D01*
X64401000Y-108051000D01*
X64401000Y-108051000D01*
G37*
G36*
X61901000Y-108051000D02*
X60799000Y-108051000D01*
X60799000Y-107149000D01*
X61901000Y-107149000D01*
X61901000Y-108051000D01*
X61901000Y-108051000D01*
G37*
G36*
X58401000Y-108051000D02*
X57299000Y-108051000D01*
X57299000Y-107149000D01*
X58401000Y-107149000D01*
X58401000Y-108051000D01*
X58401000Y-108051000D01*
G37*
G36*
X55901000Y-108051000D02*
X54799000Y-108051000D01*
X54799000Y-107149000D01*
X55901000Y-107149000D01*
X55901000Y-108051000D01*
X55901000Y-108051000D01*
G37*
G36*
X244401000Y-103451000D02*
X243299000Y-103451000D01*
X243299000Y-102549000D01*
X244401000Y-102549000D01*
X244401000Y-103451000D01*
X244401000Y-103451000D01*
G37*
G36*
X241901000Y-103451000D02*
X240799000Y-103451000D01*
X240799000Y-102549000D01*
X241901000Y-102549000D01*
X241901000Y-103451000D01*
X241901000Y-103451000D01*
G37*
G36*
X55901000Y-103451000D02*
X54799000Y-103451000D01*
X54799000Y-102549000D01*
X55901000Y-102549000D01*
X55901000Y-103451000D01*
X55901000Y-103451000D01*
G37*
G36*
X58401000Y-103451000D02*
X57299000Y-103451000D01*
X57299000Y-102549000D01*
X58401000Y-102549000D01*
X58401000Y-103451000D01*
X58401000Y-103451000D01*
G37*
G36*
X154401000Y-103451000D02*
X153299000Y-103451000D01*
X153299000Y-102549000D01*
X154401000Y-102549000D01*
X154401000Y-103451000D01*
X154401000Y-103451000D01*
G37*
G36*
X157901000Y-103451000D02*
X156799000Y-103451000D01*
X156799000Y-102549000D01*
X157901000Y-102549000D01*
X157901000Y-103451000D01*
X157901000Y-103451000D01*
G37*
G36*
X61901000Y-103451000D02*
X60799000Y-103451000D01*
X60799000Y-102549000D01*
X61901000Y-102549000D01*
X61901000Y-103451000D01*
X61901000Y-103451000D01*
G37*
G36*
X64401000Y-103451000D02*
X63299000Y-103451000D01*
X63299000Y-102549000D01*
X64401000Y-102549000D01*
X64401000Y-103451000D01*
X64401000Y-103451000D01*
G37*
G36*
X160401000Y-103451000D02*
X159299000Y-103451000D01*
X159299000Y-102549000D01*
X160401000Y-102549000D01*
X160401000Y-103451000D01*
X160401000Y-103451000D01*
G37*
G36*
X163901000Y-103451000D02*
X162799000Y-103451000D01*
X162799000Y-102549000D01*
X163901000Y-102549000D01*
X163901000Y-103451000D01*
X163901000Y-103451000D01*
G37*
G36*
X67901000Y-103451000D02*
X66799000Y-103451000D01*
X66799000Y-102549000D01*
X67901000Y-102549000D01*
X67901000Y-103451000D01*
X67901000Y-103451000D01*
G37*
G36*
X70401000Y-103451000D02*
X69299000Y-103451000D01*
X69299000Y-102549000D01*
X70401000Y-102549000D01*
X70401000Y-103451000D01*
X70401000Y-103451000D01*
G37*
G36*
X166401000Y-103451000D02*
X165299000Y-103451000D01*
X165299000Y-102549000D01*
X166401000Y-102549000D01*
X166401000Y-103451000D01*
X166401000Y-103451000D01*
G37*
G36*
X169901000Y-103451000D02*
X168799000Y-103451000D01*
X168799000Y-102549000D01*
X169901000Y-102549000D01*
X169901000Y-103451000D01*
X169901000Y-103451000D01*
G37*
G36*
X73901000Y-103451000D02*
X72799000Y-103451000D01*
X72799000Y-102549000D01*
X73901000Y-102549000D01*
X73901000Y-103451000D01*
X73901000Y-103451000D01*
G37*
G36*
X76401000Y-103451000D02*
X75299000Y-103451000D01*
X75299000Y-102549000D01*
X76401000Y-102549000D01*
X76401000Y-103451000D01*
X76401000Y-103451000D01*
G37*
G36*
X172401000Y-103451000D02*
X171299000Y-103451000D01*
X171299000Y-102549000D01*
X172401000Y-102549000D01*
X172401000Y-103451000D01*
X172401000Y-103451000D01*
G37*
G36*
X175901000Y-103451000D02*
X174799000Y-103451000D01*
X174799000Y-102549000D01*
X175901000Y-102549000D01*
X175901000Y-103451000D01*
X175901000Y-103451000D01*
G37*
G36*
X79901000Y-103451000D02*
X78799000Y-103451000D01*
X78799000Y-102549000D01*
X79901000Y-102549000D01*
X79901000Y-103451000D01*
X79901000Y-103451000D01*
G37*
G36*
X82401000Y-103451000D02*
X81299000Y-103451000D01*
X81299000Y-102549000D01*
X82401000Y-102549000D01*
X82401000Y-103451000D01*
X82401000Y-103451000D01*
G37*
G36*
X178401000Y-103451000D02*
X177299000Y-103451000D01*
X177299000Y-102549000D01*
X178401000Y-102549000D01*
X178401000Y-103451000D01*
X178401000Y-103451000D01*
G37*
G36*
X181901000Y-103451000D02*
X180799000Y-103451000D01*
X180799000Y-102549000D01*
X181901000Y-102549000D01*
X181901000Y-103451000D01*
X181901000Y-103451000D01*
G37*
G36*
X85901000Y-103451000D02*
X84799000Y-103451000D01*
X84799000Y-102549000D01*
X85901000Y-102549000D01*
X85901000Y-103451000D01*
X85901000Y-103451000D01*
G37*
G36*
X88401000Y-103451000D02*
X87299000Y-103451000D01*
X87299000Y-102549000D01*
X88401000Y-102549000D01*
X88401000Y-103451000D01*
X88401000Y-103451000D01*
G37*
G36*
X184401000Y-103451000D02*
X183299000Y-103451000D01*
X183299000Y-102549000D01*
X184401000Y-102549000D01*
X184401000Y-103451000D01*
X184401000Y-103451000D01*
G37*
G36*
X187901000Y-103451000D02*
X186799000Y-103451000D01*
X186799000Y-102549000D01*
X187901000Y-102549000D01*
X187901000Y-103451000D01*
X187901000Y-103451000D01*
G37*
G36*
X91901000Y-103451000D02*
X90799000Y-103451000D01*
X90799000Y-102549000D01*
X91901000Y-102549000D01*
X91901000Y-103451000D01*
X91901000Y-103451000D01*
G37*
G36*
X94401000Y-103451000D02*
X93299000Y-103451000D01*
X93299000Y-102549000D01*
X94401000Y-102549000D01*
X94401000Y-103451000D01*
X94401000Y-103451000D01*
G37*
G36*
X190401000Y-103451000D02*
X189299000Y-103451000D01*
X189299000Y-102549000D01*
X190401000Y-102549000D01*
X190401000Y-103451000D01*
X190401000Y-103451000D01*
G37*
G36*
X193901000Y-103451000D02*
X192799000Y-103451000D01*
X192799000Y-102549000D01*
X193901000Y-102549000D01*
X193901000Y-103451000D01*
X193901000Y-103451000D01*
G37*
G36*
X97901000Y-103451000D02*
X96799000Y-103451000D01*
X96799000Y-102549000D01*
X97901000Y-102549000D01*
X97901000Y-103451000D01*
X97901000Y-103451000D01*
G37*
G36*
X100401000Y-103451000D02*
X99299000Y-103451000D01*
X99299000Y-102549000D01*
X100401000Y-102549000D01*
X100401000Y-103451000D01*
X100401000Y-103451000D01*
G37*
G36*
X196401000Y-103451000D02*
X195299000Y-103451000D01*
X195299000Y-102549000D01*
X196401000Y-102549000D01*
X196401000Y-103451000D01*
X196401000Y-103451000D01*
G37*
G36*
X199901000Y-103451000D02*
X198799000Y-103451000D01*
X198799000Y-102549000D01*
X199901000Y-102549000D01*
X199901000Y-103451000D01*
X199901000Y-103451000D01*
G37*
G36*
X103901000Y-103451000D02*
X102799000Y-103451000D01*
X102799000Y-102549000D01*
X103901000Y-102549000D01*
X103901000Y-103451000D01*
X103901000Y-103451000D01*
G37*
G36*
X106401000Y-103451000D02*
X105299000Y-103451000D01*
X105299000Y-102549000D01*
X106401000Y-102549000D01*
X106401000Y-103451000D01*
X106401000Y-103451000D01*
G37*
G36*
X202401000Y-103451000D02*
X201299000Y-103451000D01*
X201299000Y-102549000D01*
X202401000Y-102549000D01*
X202401000Y-103451000D01*
X202401000Y-103451000D01*
G37*
G36*
X205901000Y-103451000D02*
X204799000Y-103451000D01*
X204799000Y-102549000D01*
X205901000Y-102549000D01*
X205901000Y-103451000D01*
X205901000Y-103451000D01*
G37*
G36*
X109901000Y-103451000D02*
X108799000Y-103451000D01*
X108799000Y-102549000D01*
X109901000Y-102549000D01*
X109901000Y-103451000D01*
X109901000Y-103451000D01*
G37*
G36*
X112401000Y-103451000D02*
X111299000Y-103451000D01*
X111299000Y-102549000D01*
X112401000Y-102549000D01*
X112401000Y-103451000D01*
X112401000Y-103451000D01*
G37*
G36*
X208401000Y-103451000D02*
X207299000Y-103451000D01*
X207299000Y-102549000D01*
X208401000Y-102549000D01*
X208401000Y-103451000D01*
X208401000Y-103451000D01*
G37*
G36*
X211901000Y-103451000D02*
X210799000Y-103451000D01*
X210799000Y-102549000D01*
X211901000Y-102549000D01*
X211901000Y-103451000D01*
X211901000Y-103451000D01*
G37*
G36*
X115901000Y-103451000D02*
X114799000Y-103451000D01*
X114799000Y-102549000D01*
X115901000Y-102549000D01*
X115901000Y-103451000D01*
X115901000Y-103451000D01*
G37*
G36*
X118401000Y-103451000D02*
X117299000Y-103451000D01*
X117299000Y-102549000D01*
X118401000Y-102549000D01*
X118401000Y-103451000D01*
X118401000Y-103451000D01*
G37*
G36*
X214401000Y-103451000D02*
X213299000Y-103451000D01*
X213299000Y-102549000D01*
X214401000Y-102549000D01*
X214401000Y-103451000D01*
X214401000Y-103451000D01*
G37*
G36*
X217901000Y-103451000D02*
X216799000Y-103451000D01*
X216799000Y-102549000D01*
X217901000Y-102549000D01*
X217901000Y-103451000D01*
X217901000Y-103451000D01*
G37*
G36*
X121901000Y-103451000D02*
X120799000Y-103451000D01*
X120799000Y-102549000D01*
X121901000Y-102549000D01*
X121901000Y-103451000D01*
X121901000Y-103451000D01*
G37*
G36*
X124401000Y-103451000D02*
X123299000Y-103451000D01*
X123299000Y-102549000D01*
X124401000Y-102549000D01*
X124401000Y-103451000D01*
X124401000Y-103451000D01*
G37*
G36*
X220401000Y-103451000D02*
X219299000Y-103451000D01*
X219299000Y-102549000D01*
X220401000Y-102549000D01*
X220401000Y-103451000D01*
X220401000Y-103451000D01*
G37*
G36*
X223901000Y-103451000D02*
X222799000Y-103451000D01*
X222799000Y-102549000D01*
X223901000Y-102549000D01*
X223901000Y-103451000D01*
X223901000Y-103451000D01*
G37*
G36*
X127901000Y-103451000D02*
X126799000Y-103451000D01*
X126799000Y-102549000D01*
X127901000Y-102549000D01*
X127901000Y-103451000D01*
X127901000Y-103451000D01*
G37*
G36*
X130401000Y-103451000D02*
X129299000Y-103451000D01*
X129299000Y-102549000D01*
X130401000Y-102549000D01*
X130401000Y-103451000D01*
X130401000Y-103451000D01*
G37*
G36*
X226401000Y-103451000D02*
X225299000Y-103451000D01*
X225299000Y-102549000D01*
X226401000Y-102549000D01*
X226401000Y-103451000D01*
X226401000Y-103451000D01*
G37*
G36*
X229901000Y-103451000D02*
X228799000Y-103451000D01*
X228799000Y-102549000D01*
X229901000Y-102549000D01*
X229901000Y-103451000D01*
X229901000Y-103451000D01*
G37*
G36*
X133901000Y-103451000D02*
X132799000Y-103451000D01*
X132799000Y-102549000D01*
X133901000Y-102549000D01*
X133901000Y-103451000D01*
X133901000Y-103451000D01*
G37*
G36*
X136401000Y-103451000D02*
X135299000Y-103451000D01*
X135299000Y-102549000D01*
X136401000Y-102549000D01*
X136401000Y-103451000D01*
X136401000Y-103451000D01*
G37*
G36*
X232401000Y-103451000D02*
X231299000Y-103451000D01*
X231299000Y-102549000D01*
X232401000Y-102549000D01*
X232401000Y-103451000D01*
X232401000Y-103451000D01*
G37*
G36*
X235901000Y-103451000D02*
X234799000Y-103451000D01*
X234799000Y-102549000D01*
X235901000Y-102549000D01*
X235901000Y-103451000D01*
X235901000Y-103451000D01*
G37*
G36*
X139901000Y-103451000D02*
X138799000Y-103451000D01*
X138799000Y-102549000D01*
X139901000Y-102549000D01*
X139901000Y-103451000D01*
X139901000Y-103451000D01*
G37*
G36*
X142401000Y-103451000D02*
X141299000Y-103451000D01*
X141299000Y-102549000D01*
X142401000Y-102549000D01*
X142401000Y-103451000D01*
X142401000Y-103451000D01*
G37*
G36*
X238401000Y-103451000D02*
X237299000Y-103451000D01*
X237299000Y-102549000D01*
X238401000Y-102549000D01*
X238401000Y-103451000D01*
X238401000Y-103451000D01*
G37*
G36*
X145901000Y-103451000D02*
X144799000Y-103451000D01*
X144799000Y-102549000D01*
X145901000Y-102549000D01*
X145901000Y-103451000D01*
X145901000Y-103451000D01*
G37*
G36*
X148401000Y-103451000D02*
X147299000Y-103451000D01*
X147299000Y-102549000D01*
X148401000Y-102549000D01*
X148401000Y-103451000D01*
X148401000Y-103451000D01*
G37*
G36*
X151901000Y-103451000D02*
X150799000Y-103451000D01*
X150799000Y-102549000D01*
X151901000Y-102549000D01*
X151901000Y-103451000D01*
X151901000Y-103451000D01*
G37*
G36*
X238401000Y-102051000D02*
X237299000Y-102051000D01*
X237299000Y-101149000D01*
X238401000Y-101149000D01*
X238401000Y-102051000D01*
X238401000Y-102051000D01*
G37*
G36*
X244401000Y-102051000D02*
X243299000Y-102051000D01*
X243299000Y-101149000D01*
X244401000Y-101149000D01*
X244401000Y-102051000D01*
X244401000Y-102051000D01*
G37*
G36*
X235901000Y-102051000D02*
X234799000Y-102051000D01*
X234799000Y-101149000D01*
X235901000Y-101149000D01*
X235901000Y-102051000D01*
X235901000Y-102051000D01*
G37*
G36*
X232401000Y-102051000D02*
X231299000Y-102051000D01*
X231299000Y-101149000D01*
X232401000Y-101149000D01*
X232401000Y-102051000D01*
X232401000Y-102051000D01*
G37*
G36*
X229901000Y-102051000D02*
X228799000Y-102051000D01*
X228799000Y-101149000D01*
X229901000Y-101149000D01*
X229901000Y-102051000D01*
X229901000Y-102051000D01*
G37*
G36*
X226401000Y-102051000D02*
X225299000Y-102051000D01*
X225299000Y-101149000D01*
X226401000Y-101149000D01*
X226401000Y-102051000D01*
X226401000Y-102051000D01*
G37*
G36*
X223901000Y-102051000D02*
X222799000Y-102051000D01*
X222799000Y-101149000D01*
X223901000Y-101149000D01*
X223901000Y-102051000D01*
X223901000Y-102051000D01*
G37*
G36*
X220401000Y-102051000D02*
X219299000Y-102051000D01*
X219299000Y-101149000D01*
X220401000Y-101149000D01*
X220401000Y-102051000D01*
X220401000Y-102051000D01*
G37*
G36*
X217901000Y-102051000D02*
X216799000Y-102051000D01*
X216799000Y-101149000D01*
X217901000Y-101149000D01*
X217901000Y-102051000D01*
X217901000Y-102051000D01*
G37*
G36*
X214401000Y-102051000D02*
X213299000Y-102051000D01*
X213299000Y-101149000D01*
X214401000Y-101149000D01*
X214401000Y-102051000D01*
X214401000Y-102051000D01*
G37*
G36*
X211901000Y-102051000D02*
X210799000Y-102051000D01*
X210799000Y-101149000D01*
X211901000Y-101149000D01*
X211901000Y-102051000D01*
X211901000Y-102051000D01*
G37*
G36*
X208401000Y-102051000D02*
X207299000Y-102051000D01*
X207299000Y-101149000D01*
X208401000Y-101149000D01*
X208401000Y-102051000D01*
X208401000Y-102051000D01*
G37*
G36*
X205901000Y-102051000D02*
X204799000Y-102051000D01*
X204799000Y-101149000D01*
X205901000Y-101149000D01*
X205901000Y-102051000D01*
X205901000Y-102051000D01*
G37*
G36*
X202401000Y-102051000D02*
X201299000Y-102051000D01*
X201299000Y-101149000D01*
X202401000Y-101149000D01*
X202401000Y-102051000D01*
X202401000Y-102051000D01*
G37*
G36*
X199901000Y-102051000D02*
X198799000Y-102051000D01*
X198799000Y-101149000D01*
X199901000Y-101149000D01*
X199901000Y-102051000D01*
X199901000Y-102051000D01*
G37*
G36*
X196401000Y-102051000D02*
X195299000Y-102051000D01*
X195299000Y-101149000D01*
X196401000Y-101149000D01*
X196401000Y-102051000D01*
X196401000Y-102051000D01*
G37*
G36*
X193901000Y-102051000D02*
X192799000Y-102051000D01*
X192799000Y-101149000D01*
X193901000Y-101149000D01*
X193901000Y-102051000D01*
X193901000Y-102051000D01*
G37*
G36*
X190401000Y-102051000D02*
X189299000Y-102051000D01*
X189299000Y-101149000D01*
X190401000Y-101149000D01*
X190401000Y-102051000D01*
X190401000Y-102051000D01*
G37*
G36*
X187901000Y-102051000D02*
X186799000Y-102051000D01*
X186799000Y-101149000D01*
X187901000Y-101149000D01*
X187901000Y-102051000D01*
X187901000Y-102051000D01*
G37*
G36*
X184401000Y-102051000D02*
X183299000Y-102051000D01*
X183299000Y-101149000D01*
X184401000Y-101149000D01*
X184401000Y-102051000D01*
X184401000Y-102051000D01*
G37*
G36*
X181901000Y-102051000D02*
X180799000Y-102051000D01*
X180799000Y-101149000D01*
X181901000Y-101149000D01*
X181901000Y-102051000D01*
X181901000Y-102051000D01*
G37*
G36*
X178401000Y-102051000D02*
X177299000Y-102051000D01*
X177299000Y-101149000D01*
X178401000Y-101149000D01*
X178401000Y-102051000D01*
X178401000Y-102051000D01*
G37*
G36*
X175901000Y-102051000D02*
X174799000Y-102051000D01*
X174799000Y-101149000D01*
X175901000Y-101149000D01*
X175901000Y-102051000D01*
X175901000Y-102051000D01*
G37*
G36*
X172401000Y-102051000D02*
X171299000Y-102051000D01*
X171299000Y-101149000D01*
X172401000Y-101149000D01*
X172401000Y-102051000D01*
X172401000Y-102051000D01*
G37*
G36*
X169901000Y-102051000D02*
X168799000Y-102051000D01*
X168799000Y-101149000D01*
X169901000Y-101149000D01*
X169901000Y-102051000D01*
X169901000Y-102051000D01*
G37*
G36*
X166401000Y-102051000D02*
X165299000Y-102051000D01*
X165299000Y-101149000D01*
X166401000Y-101149000D01*
X166401000Y-102051000D01*
X166401000Y-102051000D01*
G37*
G36*
X163901000Y-102051000D02*
X162799000Y-102051000D01*
X162799000Y-101149000D01*
X163901000Y-101149000D01*
X163901000Y-102051000D01*
X163901000Y-102051000D01*
G37*
G36*
X160401000Y-102051000D02*
X159299000Y-102051000D01*
X159299000Y-101149000D01*
X160401000Y-101149000D01*
X160401000Y-102051000D01*
X160401000Y-102051000D01*
G37*
G36*
X157901000Y-102051000D02*
X156799000Y-102051000D01*
X156799000Y-101149000D01*
X157901000Y-101149000D01*
X157901000Y-102051000D01*
X157901000Y-102051000D01*
G37*
G36*
X154401000Y-102051000D02*
X153299000Y-102051000D01*
X153299000Y-101149000D01*
X154401000Y-101149000D01*
X154401000Y-102051000D01*
X154401000Y-102051000D01*
G37*
G36*
X151901000Y-102051000D02*
X150799000Y-102051000D01*
X150799000Y-101149000D01*
X151901000Y-101149000D01*
X151901000Y-102051000D01*
X151901000Y-102051000D01*
G37*
G36*
X148401000Y-102051000D02*
X147299000Y-102051000D01*
X147299000Y-101149000D01*
X148401000Y-101149000D01*
X148401000Y-102051000D01*
X148401000Y-102051000D01*
G37*
G36*
X145901000Y-102051000D02*
X144799000Y-102051000D01*
X144799000Y-101149000D01*
X145901000Y-101149000D01*
X145901000Y-102051000D01*
X145901000Y-102051000D01*
G37*
G36*
X142401000Y-102051000D02*
X141299000Y-102051000D01*
X141299000Y-101149000D01*
X142401000Y-101149000D01*
X142401000Y-102051000D01*
X142401000Y-102051000D01*
G37*
G36*
X139901000Y-102051000D02*
X138799000Y-102051000D01*
X138799000Y-101149000D01*
X139901000Y-101149000D01*
X139901000Y-102051000D01*
X139901000Y-102051000D01*
G37*
G36*
X136401000Y-102051000D02*
X135299000Y-102051000D01*
X135299000Y-101149000D01*
X136401000Y-101149000D01*
X136401000Y-102051000D01*
X136401000Y-102051000D01*
G37*
G36*
X133901000Y-102051000D02*
X132799000Y-102051000D01*
X132799000Y-101149000D01*
X133901000Y-101149000D01*
X133901000Y-102051000D01*
X133901000Y-102051000D01*
G37*
G36*
X130401000Y-102051000D02*
X129299000Y-102051000D01*
X129299000Y-101149000D01*
X130401000Y-101149000D01*
X130401000Y-102051000D01*
X130401000Y-102051000D01*
G37*
G36*
X127901000Y-102051000D02*
X126799000Y-102051000D01*
X126799000Y-101149000D01*
X127901000Y-101149000D01*
X127901000Y-102051000D01*
X127901000Y-102051000D01*
G37*
G36*
X124401000Y-102051000D02*
X123299000Y-102051000D01*
X123299000Y-101149000D01*
X124401000Y-101149000D01*
X124401000Y-102051000D01*
X124401000Y-102051000D01*
G37*
G36*
X121901000Y-102051000D02*
X120799000Y-102051000D01*
X120799000Y-101149000D01*
X121901000Y-101149000D01*
X121901000Y-102051000D01*
X121901000Y-102051000D01*
G37*
G36*
X118401000Y-102051000D02*
X117299000Y-102051000D01*
X117299000Y-101149000D01*
X118401000Y-101149000D01*
X118401000Y-102051000D01*
X118401000Y-102051000D01*
G37*
G36*
X115901000Y-102051000D02*
X114799000Y-102051000D01*
X114799000Y-101149000D01*
X115901000Y-101149000D01*
X115901000Y-102051000D01*
X115901000Y-102051000D01*
G37*
G36*
X112401000Y-102051000D02*
X111299000Y-102051000D01*
X111299000Y-101149000D01*
X112401000Y-101149000D01*
X112401000Y-102051000D01*
X112401000Y-102051000D01*
G37*
G36*
X109901000Y-102051000D02*
X108799000Y-102051000D01*
X108799000Y-101149000D01*
X109901000Y-101149000D01*
X109901000Y-102051000D01*
X109901000Y-102051000D01*
G37*
G36*
X106401000Y-102051000D02*
X105299000Y-102051000D01*
X105299000Y-101149000D01*
X106401000Y-101149000D01*
X106401000Y-102051000D01*
X106401000Y-102051000D01*
G37*
G36*
X103901000Y-102051000D02*
X102799000Y-102051000D01*
X102799000Y-101149000D01*
X103901000Y-101149000D01*
X103901000Y-102051000D01*
X103901000Y-102051000D01*
G37*
G36*
X100401000Y-102051000D02*
X99299000Y-102051000D01*
X99299000Y-101149000D01*
X100401000Y-101149000D01*
X100401000Y-102051000D01*
X100401000Y-102051000D01*
G37*
G36*
X97901000Y-102051000D02*
X96799000Y-102051000D01*
X96799000Y-101149000D01*
X97901000Y-101149000D01*
X97901000Y-102051000D01*
X97901000Y-102051000D01*
G37*
G36*
X94401000Y-102051000D02*
X93299000Y-102051000D01*
X93299000Y-101149000D01*
X94401000Y-101149000D01*
X94401000Y-102051000D01*
X94401000Y-102051000D01*
G37*
G36*
X91901000Y-102051000D02*
X90799000Y-102051000D01*
X90799000Y-101149000D01*
X91901000Y-101149000D01*
X91901000Y-102051000D01*
X91901000Y-102051000D01*
G37*
G36*
X88401000Y-102051000D02*
X87299000Y-102051000D01*
X87299000Y-101149000D01*
X88401000Y-101149000D01*
X88401000Y-102051000D01*
X88401000Y-102051000D01*
G37*
G36*
X85901000Y-102051000D02*
X84799000Y-102051000D01*
X84799000Y-101149000D01*
X85901000Y-101149000D01*
X85901000Y-102051000D01*
X85901000Y-102051000D01*
G37*
G36*
X82401000Y-102051000D02*
X81299000Y-102051000D01*
X81299000Y-101149000D01*
X82401000Y-101149000D01*
X82401000Y-102051000D01*
X82401000Y-102051000D01*
G37*
G36*
X79901000Y-102051000D02*
X78799000Y-102051000D01*
X78799000Y-101149000D01*
X79901000Y-101149000D01*
X79901000Y-102051000D01*
X79901000Y-102051000D01*
G37*
G36*
X76401000Y-102051000D02*
X75299000Y-102051000D01*
X75299000Y-101149000D01*
X76401000Y-101149000D01*
X76401000Y-102051000D01*
X76401000Y-102051000D01*
G37*
G36*
X73901000Y-102051000D02*
X72799000Y-102051000D01*
X72799000Y-101149000D01*
X73901000Y-101149000D01*
X73901000Y-102051000D01*
X73901000Y-102051000D01*
G37*
G36*
X70401000Y-102051000D02*
X69299000Y-102051000D01*
X69299000Y-101149000D01*
X70401000Y-101149000D01*
X70401000Y-102051000D01*
X70401000Y-102051000D01*
G37*
G36*
X67901000Y-102051000D02*
X66799000Y-102051000D01*
X66799000Y-101149000D01*
X67901000Y-101149000D01*
X67901000Y-102051000D01*
X67901000Y-102051000D01*
G37*
G36*
X64401000Y-102051000D02*
X63299000Y-102051000D01*
X63299000Y-101149000D01*
X64401000Y-101149000D01*
X64401000Y-102051000D01*
X64401000Y-102051000D01*
G37*
G36*
X61901000Y-102051000D02*
X60799000Y-102051000D01*
X60799000Y-101149000D01*
X61901000Y-101149000D01*
X61901000Y-102051000D01*
X61901000Y-102051000D01*
G37*
G36*
X58401000Y-102051000D02*
X57299000Y-102051000D01*
X57299000Y-101149000D01*
X58401000Y-101149000D01*
X58401000Y-102051000D01*
X58401000Y-102051000D01*
G37*
G36*
X55901000Y-102051000D02*
X54799000Y-102051000D01*
X54799000Y-101149000D01*
X55901000Y-101149000D01*
X55901000Y-102051000D01*
X55901000Y-102051000D01*
G37*
G36*
X241901000Y-102051000D02*
X240799000Y-102051000D01*
X240799000Y-101149000D01*
X241901000Y-101149000D01*
X241901000Y-102051000D01*
X241901000Y-102051000D01*
G37*
G36*
X55901000Y-97451000D02*
X54799000Y-97451000D01*
X54799000Y-96549000D01*
X55901000Y-96549000D01*
X55901000Y-97451000D01*
X55901000Y-97451000D01*
G37*
G36*
X244401000Y-97451000D02*
X243299000Y-97451000D01*
X243299000Y-96549000D01*
X244401000Y-96549000D01*
X244401000Y-97451000D01*
X244401000Y-97451000D01*
G37*
G36*
X241901000Y-97451000D02*
X240799000Y-97451000D01*
X240799000Y-96549000D01*
X241901000Y-96549000D01*
X241901000Y-97451000D01*
X241901000Y-97451000D01*
G37*
G36*
X238401000Y-97451000D02*
X237299000Y-97451000D01*
X237299000Y-96549000D01*
X238401000Y-96549000D01*
X238401000Y-97451000D01*
X238401000Y-97451000D01*
G37*
G36*
X235901000Y-97451000D02*
X234799000Y-97451000D01*
X234799000Y-96549000D01*
X235901000Y-96549000D01*
X235901000Y-97451000D01*
X235901000Y-97451000D01*
G37*
G36*
X232401000Y-97451000D02*
X231299000Y-97451000D01*
X231299000Y-96549000D01*
X232401000Y-96549000D01*
X232401000Y-97451000D01*
X232401000Y-97451000D01*
G37*
G36*
X229901000Y-97451000D02*
X228799000Y-97451000D01*
X228799000Y-96549000D01*
X229901000Y-96549000D01*
X229901000Y-97451000D01*
X229901000Y-97451000D01*
G37*
G36*
X226401000Y-97451000D02*
X225299000Y-97451000D01*
X225299000Y-96549000D01*
X226401000Y-96549000D01*
X226401000Y-97451000D01*
X226401000Y-97451000D01*
G37*
G36*
X223901000Y-97451000D02*
X222799000Y-97451000D01*
X222799000Y-96549000D01*
X223901000Y-96549000D01*
X223901000Y-97451000D01*
X223901000Y-97451000D01*
G37*
G36*
X220401000Y-97451000D02*
X219299000Y-97451000D01*
X219299000Y-96549000D01*
X220401000Y-96549000D01*
X220401000Y-97451000D01*
X220401000Y-97451000D01*
G37*
G36*
X217901000Y-97451000D02*
X216799000Y-97451000D01*
X216799000Y-96549000D01*
X217901000Y-96549000D01*
X217901000Y-97451000D01*
X217901000Y-97451000D01*
G37*
G36*
X214401000Y-97451000D02*
X213299000Y-97451000D01*
X213299000Y-96549000D01*
X214401000Y-96549000D01*
X214401000Y-97451000D01*
X214401000Y-97451000D01*
G37*
G36*
X211901000Y-97451000D02*
X210799000Y-97451000D01*
X210799000Y-96549000D01*
X211901000Y-96549000D01*
X211901000Y-97451000D01*
X211901000Y-97451000D01*
G37*
G36*
X208401000Y-97451000D02*
X207299000Y-97451000D01*
X207299000Y-96549000D01*
X208401000Y-96549000D01*
X208401000Y-97451000D01*
X208401000Y-97451000D01*
G37*
G36*
X205901000Y-97451000D02*
X204799000Y-97451000D01*
X204799000Y-96549000D01*
X205901000Y-96549000D01*
X205901000Y-97451000D01*
X205901000Y-97451000D01*
G37*
G36*
X202401000Y-97451000D02*
X201299000Y-97451000D01*
X201299000Y-96549000D01*
X202401000Y-96549000D01*
X202401000Y-97451000D01*
X202401000Y-97451000D01*
G37*
G36*
X199901000Y-97451000D02*
X198799000Y-97451000D01*
X198799000Y-96549000D01*
X199901000Y-96549000D01*
X199901000Y-97451000D01*
X199901000Y-97451000D01*
G37*
G36*
X196401000Y-97451000D02*
X195299000Y-97451000D01*
X195299000Y-96549000D01*
X196401000Y-96549000D01*
X196401000Y-97451000D01*
X196401000Y-97451000D01*
G37*
G36*
X193901000Y-97451000D02*
X192799000Y-97451000D01*
X192799000Y-96549000D01*
X193901000Y-96549000D01*
X193901000Y-97451000D01*
X193901000Y-97451000D01*
G37*
G36*
X190401000Y-97451000D02*
X189299000Y-97451000D01*
X189299000Y-96549000D01*
X190401000Y-96549000D01*
X190401000Y-97451000D01*
X190401000Y-97451000D01*
G37*
G36*
X187901000Y-97451000D02*
X186799000Y-97451000D01*
X186799000Y-96549000D01*
X187901000Y-96549000D01*
X187901000Y-97451000D01*
X187901000Y-97451000D01*
G37*
G36*
X184401000Y-97451000D02*
X183299000Y-97451000D01*
X183299000Y-96549000D01*
X184401000Y-96549000D01*
X184401000Y-97451000D01*
X184401000Y-97451000D01*
G37*
G36*
X181901000Y-97451000D02*
X180799000Y-97451000D01*
X180799000Y-96549000D01*
X181901000Y-96549000D01*
X181901000Y-97451000D01*
X181901000Y-97451000D01*
G37*
G36*
X178401000Y-97451000D02*
X177299000Y-97451000D01*
X177299000Y-96549000D01*
X178401000Y-96549000D01*
X178401000Y-97451000D01*
X178401000Y-97451000D01*
G37*
G36*
X175901000Y-97451000D02*
X174799000Y-97451000D01*
X174799000Y-96549000D01*
X175901000Y-96549000D01*
X175901000Y-97451000D01*
X175901000Y-97451000D01*
G37*
G36*
X172401000Y-97451000D02*
X171299000Y-97451000D01*
X171299000Y-96549000D01*
X172401000Y-96549000D01*
X172401000Y-97451000D01*
X172401000Y-97451000D01*
G37*
G36*
X169901000Y-97451000D02*
X168799000Y-97451000D01*
X168799000Y-96549000D01*
X169901000Y-96549000D01*
X169901000Y-97451000D01*
X169901000Y-97451000D01*
G37*
G36*
X166401000Y-97451000D02*
X165299000Y-97451000D01*
X165299000Y-96549000D01*
X166401000Y-96549000D01*
X166401000Y-97451000D01*
X166401000Y-97451000D01*
G37*
G36*
X163901000Y-97451000D02*
X162799000Y-97451000D01*
X162799000Y-96549000D01*
X163901000Y-96549000D01*
X163901000Y-97451000D01*
X163901000Y-97451000D01*
G37*
G36*
X160401000Y-97451000D02*
X159299000Y-97451000D01*
X159299000Y-96549000D01*
X160401000Y-96549000D01*
X160401000Y-97451000D01*
X160401000Y-97451000D01*
G37*
G36*
X157901000Y-97451000D02*
X156799000Y-97451000D01*
X156799000Y-96549000D01*
X157901000Y-96549000D01*
X157901000Y-97451000D01*
X157901000Y-97451000D01*
G37*
G36*
X154401000Y-97451000D02*
X153299000Y-97451000D01*
X153299000Y-96549000D01*
X154401000Y-96549000D01*
X154401000Y-97451000D01*
X154401000Y-97451000D01*
G37*
G36*
X151901000Y-97451000D02*
X150799000Y-97451000D01*
X150799000Y-96549000D01*
X151901000Y-96549000D01*
X151901000Y-97451000D01*
X151901000Y-97451000D01*
G37*
G36*
X148401000Y-97451000D02*
X147299000Y-97451000D01*
X147299000Y-96549000D01*
X148401000Y-96549000D01*
X148401000Y-97451000D01*
X148401000Y-97451000D01*
G37*
G36*
X145901000Y-97451000D02*
X144799000Y-97451000D01*
X144799000Y-96549000D01*
X145901000Y-96549000D01*
X145901000Y-97451000D01*
X145901000Y-97451000D01*
G37*
G36*
X142401000Y-97451000D02*
X141299000Y-97451000D01*
X141299000Y-96549000D01*
X142401000Y-96549000D01*
X142401000Y-97451000D01*
X142401000Y-97451000D01*
G37*
G36*
X139901000Y-97451000D02*
X138799000Y-97451000D01*
X138799000Y-96549000D01*
X139901000Y-96549000D01*
X139901000Y-97451000D01*
X139901000Y-97451000D01*
G37*
G36*
X136401000Y-97451000D02*
X135299000Y-97451000D01*
X135299000Y-96549000D01*
X136401000Y-96549000D01*
X136401000Y-97451000D01*
X136401000Y-97451000D01*
G37*
G36*
X133901000Y-97451000D02*
X132799000Y-97451000D01*
X132799000Y-96549000D01*
X133901000Y-96549000D01*
X133901000Y-97451000D01*
X133901000Y-97451000D01*
G37*
G36*
X130401000Y-97451000D02*
X129299000Y-97451000D01*
X129299000Y-96549000D01*
X130401000Y-96549000D01*
X130401000Y-97451000D01*
X130401000Y-97451000D01*
G37*
G36*
X127901000Y-97451000D02*
X126799000Y-97451000D01*
X126799000Y-96549000D01*
X127901000Y-96549000D01*
X127901000Y-97451000D01*
X127901000Y-97451000D01*
G37*
G36*
X124401000Y-97451000D02*
X123299000Y-97451000D01*
X123299000Y-96549000D01*
X124401000Y-96549000D01*
X124401000Y-97451000D01*
X124401000Y-97451000D01*
G37*
G36*
X121901000Y-97451000D02*
X120799000Y-97451000D01*
X120799000Y-96549000D01*
X121901000Y-96549000D01*
X121901000Y-97451000D01*
X121901000Y-97451000D01*
G37*
G36*
X118401000Y-97451000D02*
X117299000Y-97451000D01*
X117299000Y-96549000D01*
X118401000Y-96549000D01*
X118401000Y-97451000D01*
X118401000Y-97451000D01*
G37*
G36*
X115901000Y-97451000D02*
X114799000Y-97451000D01*
X114799000Y-96549000D01*
X115901000Y-96549000D01*
X115901000Y-97451000D01*
X115901000Y-97451000D01*
G37*
G36*
X112401000Y-97451000D02*
X111299000Y-97451000D01*
X111299000Y-96549000D01*
X112401000Y-96549000D01*
X112401000Y-97451000D01*
X112401000Y-97451000D01*
G37*
G36*
X109901000Y-97451000D02*
X108799000Y-97451000D01*
X108799000Y-96549000D01*
X109901000Y-96549000D01*
X109901000Y-97451000D01*
X109901000Y-97451000D01*
G37*
G36*
X106401000Y-97451000D02*
X105299000Y-97451000D01*
X105299000Y-96549000D01*
X106401000Y-96549000D01*
X106401000Y-97451000D01*
X106401000Y-97451000D01*
G37*
G36*
X103901000Y-97451000D02*
X102799000Y-97451000D01*
X102799000Y-96549000D01*
X103901000Y-96549000D01*
X103901000Y-97451000D01*
X103901000Y-97451000D01*
G37*
G36*
X100401000Y-97451000D02*
X99299000Y-97451000D01*
X99299000Y-96549000D01*
X100401000Y-96549000D01*
X100401000Y-97451000D01*
X100401000Y-97451000D01*
G37*
G36*
X97901000Y-97451000D02*
X96799000Y-97451000D01*
X96799000Y-96549000D01*
X97901000Y-96549000D01*
X97901000Y-97451000D01*
X97901000Y-97451000D01*
G37*
G36*
X94401000Y-97451000D02*
X93299000Y-97451000D01*
X93299000Y-96549000D01*
X94401000Y-96549000D01*
X94401000Y-97451000D01*
X94401000Y-97451000D01*
G37*
G36*
X91901000Y-97451000D02*
X90799000Y-97451000D01*
X90799000Y-96549000D01*
X91901000Y-96549000D01*
X91901000Y-97451000D01*
X91901000Y-97451000D01*
G37*
G36*
X88401000Y-97451000D02*
X87299000Y-97451000D01*
X87299000Y-96549000D01*
X88401000Y-96549000D01*
X88401000Y-97451000D01*
X88401000Y-97451000D01*
G37*
G36*
X85901000Y-97451000D02*
X84799000Y-97451000D01*
X84799000Y-96549000D01*
X85901000Y-96549000D01*
X85901000Y-97451000D01*
X85901000Y-97451000D01*
G37*
G36*
X82401000Y-97451000D02*
X81299000Y-97451000D01*
X81299000Y-96549000D01*
X82401000Y-96549000D01*
X82401000Y-97451000D01*
X82401000Y-97451000D01*
G37*
G36*
X79901000Y-97451000D02*
X78799000Y-97451000D01*
X78799000Y-96549000D01*
X79901000Y-96549000D01*
X79901000Y-97451000D01*
X79901000Y-97451000D01*
G37*
G36*
X76401000Y-97451000D02*
X75299000Y-97451000D01*
X75299000Y-96549000D01*
X76401000Y-96549000D01*
X76401000Y-97451000D01*
X76401000Y-97451000D01*
G37*
G36*
X73901000Y-97451000D02*
X72799000Y-97451000D01*
X72799000Y-96549000D01*
X73901000Y-96549000D01*
X73901000Y-97451000D01*
X73901000Y-97451000D01*
G37*
G36*
X70401000Y-97451000D02*
X69299000Y-97451000D01*
X69299000Y-96549000D01*
X70401000Y-96549000D01*
X70401000Y-97451000D01*
X70401000Y-97451000D01*
G37*
G36*
X67901000Y-97451000D02*
X66799000Y-97451000D01*
X66799000Y-96549000D01*
X67901000Y-96549000D01*
X67901000Y-97451000D01*
X67901000Y-97451000D01*
G37*
G36*
X64401000Y-97451000D02*
X63299000Y-97451000D01*
X63299000Y-96549000D01*
X64401000Y-96549000D01*
X64401000Y-97451000D01*
X64401000Y-97451000D01*
G37*
G36*
X61901000Y-97451000D02*
X60799000Y-97451000D01*
X60799000Y-96549000D01*
X61901000Y-96549000D01*
X61901000Y-97451000D01*
X61901000Y-97451000D01*
G37*
G36*
X58401000Y-97451000D02*
X57299000Y-97451000D01*
X57299000Y-96549000D01*
X58401000Y-96549000D01*
X58401000Y-97451000D01*
X58401000Y-97451000D01*
G37*
G36*
X55901000Y-96051000D02*
X54799000Y-96051000D01*
X54799000Y-95149000D01*
X55901000Y-95149000D01*
X55901000Y-96051000D01*
X55901000Y-96051000D01*
G37*
G36*
X58401000Y-96051000D02*
X57299000Y-96051000D01*
X57299000Y-95149000D01*
X58401000Y-95149000D01*
X58401000Y-96051000D01*
X58401000Y-96051000D01*
G37*
G36*
X244401000Y-96051000D02*
X243299000Y-96051000D01*
X243299000Y-95149000D01*
X244401000Y-95149000D01*
X244401000Y-96051000D01*
X244401000Y-96051000D01*
G37*
G36*
X241901000Y-96051000D02*
X240799000Y-96051000D01*
X240799000Y-95149000D01*
X241901000Y-95149000D01*
X241901000Y-96051000D01*
X241901000Y-96051000D01*
G37*
G36*
X238401000Y-96051000D02*
X237299000Y-96051000D01*
X237299000Y-95149000D01*
X238401000Y-95149000D01*
X238401000Y-96051000D01*
X238401000Y-96051000D01*
G37*
G36*
X235901000Y-96051000D02*
X234799000Y-96051000D01*
X234799000Y-95149000D01*
X235901000Y-95149000D01*
X235901000Y-96051000D01*
X235901000Y-96051000D01*
G37*
G36*
X232401000Y-96051000D02*
X231299000Y-96051000D01*
X231299000Y-95149000D01*
X232401000Y-95149000D01*
X232401000Y-96051000D01*
X232401000Y-96051000D01*
G37*
G36*
X229901000Y-96051000D02*
X228799000Y-96051000D01*
X228799000Y-95149000D01*
X229901000Y-95149000D01*
X229901000Y-96051000D01*
X229901000Y-96051000D01*
G37*
G36*
X226401000Y-96051000D02*
X225299000Y-96051000D01*
X225299000Y-95149000D01*
X226401000Y-95149000D01*
X226401000Y-96051000D01*
X226401000Y-96051000D01*
G37*
G36*
X223901000Y-96051000D02*
X222799000Y-96051000D01*
X222799000Y-95149000D01*
X223901000Y-95149000D01*
X223901000Y-96051000D01*
X223901000Y-96051000D01*
G37*
G36*
X220401000Y-96051000D02*
X219299000Y-96051000D01*
X219299000Y-95149000D01*
X220401000Y-95149000D01*
X220401000Y-96051000D01*
X220401000Y-96051000D01*
G37*
G36*
X217901000Y-96051000D02*
X216799000Y-96051000D01*
X216799000Y-95149000D01*
X217901000Y-95149000D01*
X217901000Y-96051000D01*
X217901000Y-96051000D01*
G37*
G36*
X214401000Y-96051000D02*
X213299000Y-96051000D01*
X213299000Y-95149000D01*
X214401000Y-95149000D01*
X214401000Y-96051000D01*
X214401000Y-96051000D01*
G37*
G36*
X211901000Y-96051000D02*
X210799000Y-96051000D01*
X210799000Y-95149000D01*
X211901000Y-95149000D01*
X211901000Y-96051000D01*
X211901000Y-96051000D01*
G37*
G36*
X208401000Y-96051000D02*
X207299000Y-96051000D01*
X207299000Y-95149000D01*
X208401000Y-95149000D01*
X208401000Y-96051000D01*
X208401000Y-96051000D01*
G37*
G36*
X205901000Y-96051000D02*
X204799000Y-96051000D01*
X204799000Y-95149000D01*
X205901000Y-95149000D01*
X205901000Y-96051000D01*
X205901000Y-96051000D01*
G37*
G36*
X202401000Y-96051000D02*
X201299000Y-96051000D01*
X201299000Y-95149000D01*
X202401000Y-95149000D01*
X202401000Y-96051000D01*
X202401000Y-96051000D01*
G37*
G36*
X199901000Y-96051000D02*
X198799000Y-96051000D01*
X198799000Y-95149000D01*
X199901000Y-95149000D01*
X199901000Y-96051000D01*
X199901000Y-96051000D01*
G37*
G36*
X196401000Y-96051000D02*
X195299000Y-96051000D01*
X195299000Y-95149000D01*
X196401000Y-95149000D01*
X196401000Y-96051000D01*
X196401000Y-96051000D01*
G37*
G36*
X193901000Y-96051000D02*
X192799000Y-96051000D01*
X192799000Y-95149000D01*
X193901000Y-95149000D01*
X193901000Y-96051000D01*
X193901000Y-96051000D01*
G37*
G36*
X190401000Y-96051000D02*
X189299000Y-96051000D01*
X189299000Y-95149000D01*
X190401000Y-95149000D01*
X190401000Y-96051000D01*
X190401000Y-96051000D01*
G37*
G36*
X187901000Y-96051000D02*
X186799000Y-96051000D01*
X186799000Y-95149000D01*
X187901000Y-95149000D01*
X187901000Y-96051000D01*
X187901000Y-96051000D01*
G37*
G36*
X184401000Y-96051000D02*
X183299000Y-96051000D01*
X183299000Y-95149000D01*
X184401000Y-95149000D01*
X184401000Y-96051000D01*
X184401000Y-96051000D01*
G37*
G36*
X181901000Y-96051000D02*
X180799000Y-96051000D01*
X180799000Y-95149000D01*
X181901000Y-95149000D01*
X181901000Y-96051000D01*
X181901000Y-96051000D01*
G37*
G36*
X178401000Y-96051000D02*
X177299000Y-96051000D01*
X177299000Y-95149000D01*
X178401000Y-95149000D01*
X178401000Y-96051000D01*
X178401000Y-96051000D01*
G37*
G36*
X175901000Y-96051000D02*
X174799000Y-96051000D01*
X174799000Y-95149000D01*
X175901000Y-95149000D01*
X175901000Y-96051000D01*
X175901000Y-96051000D01*
G37*
G36*
X172401000Y-96051000D02*
X171299000Y-96051000D01*
X171299000Y-95149000D01*
X172401000Y-95149000D01*
X172401000Y-96051000D01*
X172401000Y-96051000D01*
G37*
G36*
X169901000Y-96051000D02*
X168799000Y-96051000D01*
X168799000Y-95149000D01*
X169901000Y-95149000D01*
X169901000Y-96051000D01*
X169901000Y-96051000D01*
G37*
G36*
X166401000Y-96051000D02*
X165299000Y-96051000D01*
X165299000Y-95149000D01*
X166401000Y-95149000D01*
X166401000Y-96051000D01*
X166401000Y-96051000D01*
G37*
G36*
X163901000Y-96051000D02*
X162799000Y-96051000D01*
X162799000Y-95149000D01*
X163901000Y-95149000D01*
X163901000Y-96051000D01*
X163901000Y-96051000D01*
G37*
G36*
X160401000Y-96051000D02*
X159299000Y-96051000D01*
X159299000Y-95149000D01*
X160401000Y-95149000D01*
X160401000Y-96051000D01*
X160401000Y-96051000D01*
G37*
G36*
X157901000Y-96051000D02*
X156799000Y-96051000D01*
X156799000Y-95149000D01*
X157901000Y-95149000D01*
X157901000Y-96051000D01*
X157901000Y-96051000D01*
G37*
G36*
X154401000Y-96051000D02*
X153299000Y-96051000D01*
X153299000Y-95149000D01*
X154401000Y-95149000D01*
X154401000Y-96051000D01*
X154401000Y-96051000D01*
G37*
G36*
X151901000Y-96051000D02*
X150799000Y-96051000D01*
X150799000Y-95149000D01*
X151901000Y-95149000D01*
X151901000Y-96051000D01*
X151901000Y-96051000D01*
G37*
G36*
X148401000Y-96051000D02*
X147299000Y-96051000D01*
X147299000Y-95149000D01*
X148401000Y-95149000D01*
X148401000Y-96051000D01*
X148401000Y-96051000D01*
G37*
G36*
X145901000Y-96051000D02*
X144799000Y-96051000D01*
X144799000Y-95149000D01*
X145901000Y-95149000D01*
X145901000Y-96051000D01*
X145901000Y-96051000D01*
G37*
G36*
X142401000Y-96051000D02*
X141299000Y-96051000D01*
X141299000Y-95149000D01*
X142401000Y-95149000D01*
X142401000Y-96051000D01*
X142401000Y-96051000D01*
G37*
G36*
X139901000Y-96051000D02*
X138799000Y-96051000D01*
X138799000Y-95149000D01*
X139901000Y-95149000D01*
X139901000Y-96051000D01*
X139901000Y-96051000D01*
G37*
G36*
X136401000Y-96051000D02*
X135299000Y-96051000D01*
X135299000Y-95149000D01*
X136401000Y-95149000D01*
X136401000Y-96051000D01*
X136401000Y-96051000D01*
G37*
G36*
X133901000Y-96051000D02*
X132799000Y-96051000D01*
X132799000Y-95149000D01*
X133901000Y-95149000D01*
X133901000Y-96051000D01*
X133901000Y-96051000D01*
G37*
G36*
X130401000Y-96051000D02*
X129299000Y-96051000D01*
X129299000Y-95149000D01*
X130401000Y-95149000D01*
X130401000Y-96051000D01*
X130401000Y-96051000D01*
G37*
G36*
X127901000Y-96051000D02*
X126799000Y-96051000D01*
X126799000Y-95149000D01*
X127901000Y-95149000D01*
X127901000Y-96051000D01*
X127901000Y-96051000D01*
G37*
G36*
X124401000Y-96051000D02*
X123299000Y-96051000D01*
X123299000Y-95149000D01*
X124401000Y-95149000D01*
X124401000Y-96051000D01*
X124401000Y-96051000D01*
G37*
G36*
X121901000Y-96051000D02*
X120799000Y-96051000D01*
X120799000Y-95149000D01*
X121901000Y-95149000D01*
X121901000Y-96051000D01*
X121901000Y-96051000D01*
G37*
G36*
X118401000Y-96051000D02*
X117299000Y-96051000D01*
X117299000Y-95149000D01*
X118401000Y-95149000D01*
X118401000Y-96051000D01*
X118401000Y-96051000D01*
G37*
G36*
X115901000Y-96051000D02*
X114799000Y-96051000D01*
X114799000Y-95149000D01*
X115901000Y-95149000D01*
X115901000Y-96051000D01*
X115901000Y-96051000D01*
G37*
G36*
X112401000Y-96051000D02*
X111299000Y-96051000D01*
X111299000Y-95149000D01*
X112401000Y-95149000D01*
X112401000Y-96051000D01*
X112401000Y-96051000D01*
G37*
G36*
X109901000Y-96051000D02*
X108799000Y-96051000D01*
X108799000Y-95149000D01*
X109901000Y-95149000D01*
X109901000Y-96051000D01*
X109901000Y-96051000D01*
G37*
G36*
X106401000Y-96051000D02*
X105299000Y-96051000D01*
X105299000Y-95149000D01*
X106401000Y-95149000D01*
X106401000Y-96051000D01*
X106401000Y-96051000D01*
G37*
G36*
X103901000Y-96051000D02*
X102799000Y-96051000D01*
X102799000Y-95149000D01*
X103901000Y-95149000D01*
X103901000Y-96051000D01*
X103901000Y-96051000D01*
G37*
G36*
X100401000Y-96051000D02*
X99299000Y-96051000D01*
X99299000Y-95149000D01*
X100401000Y-95149000D01*
X100401000Y-96051000D01*
X100401000Y-96051000D01*
G37*
G36*
X97901000Y-96051000D02*
X96799000Y-96051000D01*
X96799000Y-95149000D01*
X97901000Y-95149000D01*
X97901000Y-96051000D01*
X97901000Y-96051000D01*
G37*
G36*
X94401000Y-96051000D02*
X93299000Y-96051000D01*
X93299000Y-95149000D01*
X94401000Y-95149000D01*
X94401000Y-96051000D01*
X94401000Y-96051000D01*
G37*
G36*
X91901000Y-96051000D02*
X90799000Y-96051000D01*
X90799000Y-95149000D01*
X91901000Y-95149000D01*
X91901000Y-96051000D01*
X91901000Y-96051000D01*
G37*
G36*
X88401000Y-96051000D02*
X87299000Y-96051000D01*
X87299000Y-95149000D01*
X88401000Y-95149000D01*
X88401000Y-96051000D01*
X88401000Y-96051000D01*
G37*
G36*
X85901000Y-96051000D02*
X84799000Y-96051000D01*
X84799000Y-95149000D01*
X85901000Y-95149000D01*
X85901000Y-96051000D01*
X85901000Y-96051000D01*
G37*
G36*
X82401000Y-96051000D02*
X81299000Y-96051000D01*
X81299000Y-95149000D01*
X82401000Y-95149000D01*
X82401000Y-96051000D01*
X82401000Y-96051000D01*
G37*
G36*
X79901000Y-96051000D02*
X78799000Y-96051000D01*
X78799000Y-95149000D01*
X79901000Y-95149000D01*
X79901000Y-96051000D01*
X79901000Y-96051000D01*
G37*
G36*
X76401000Y-96051000D02*
X75299000Y-96051000D01*
X75299000Y-95149000D01*
X76401000Y-95149000D01*
X76401000Y-96051000D01*
X76401000Y-96051000D01*
G37*
G36*
X73901000Y-96051000D02*
X72799000Y-96051000D01*
X72799000Y-95149000D01*
X73901000Y-95149000D01*
X73901000Y-96051000D01*
X73901000Y-96051000D01*
G37*
G36*
X70401000Y-96051000D02*
X69299000Y-96051000D01*
X69299000Y-95149000D01*
X70401000Y-95149000D01*
X70401000Y-96051000D01*
X70401000Y-96051000D01*
G37*
G36*
X67901000Y-96051000D02*
X66799000Y-96051000D01*
X66799000Y-95149000D01*
X67901000Y-95149000D01*
X67901000Y-96051000D01*
X67901000Y-96051000D01*
G37*
G36*
X64401000Y-96051000D02*
X63299000Y-96051000D01*
X63299000Y-95149000D01*
X64401000Y-95149000D01*
X64401000Y-96051000D01*
X64401000Y-96051000D01*
G37*
G36*
X61901000Y-96051000D02*
X60799000Y-96051000D01*
X60799000Y-95149000D01*
X61901000Y-95149000D01*
X61901000Y-96051000D01*
X61901000Y-96051000D01*
G37*
G36*
X55901000Y-91451000D02*
X54799000Y-91451000D01*
X54799000Y-90549000D01*
X55901000Y-90549000D01*
X55901000Y-91451000D01*
X55901000Y-91451000D01*
G37*
G36*
X241901000Y-91451000D02*
X240799000Y-91451000D01*
X240799000Y-90549000D01*
X241901000Y-90549000D01*
X241901000Y-91451000D01*
X241901000Y-91451000D01*
G37*
G36*
X58401000Y-91451000D02*
X57299000Y-91451000D01*
X57299000Y-90549000D01*
X58401000Y-90549000D01*
X58401000Y-91451000D01*
X58401000Y-91451000D01*
G37*
G36*
X61901000Y-91451000D02*
X60799000Y-91451000D01*
X60799000Y-90549000D01*
X61901000Y-90549000D01*
X61901000Y-91451000D01*
X61901000Y-91451000D01*
G37*
G36*
X64401000Y-91451000D02*
X63299000Y-91451000D01*
X63299000Y-90549000D01*
X64401000Y-90549000D01*
X64401000Y-91451000D01*
X64401000Y-91451000D01*
G37*
G36*
X67901000Y-91451000D02*
X66799000Y-91451000D01*
X66799000Y-90549000D01*
X67901000Y-90549000D01*
X67901000Y-91451000D01*
X67901000Y-91451000D01*
G37*
G36*
X70401000Y-91451000D02*
X69299000Y-91451000D01*
X69299000Y-90549000D01*
X70401000Y-90549000D01*
X70401000Y-91451000D01*
X70401000Y-91451000D01*
G37*
G36*
X73901000Y-91451000D02*
X72799000Y-91451000D01*
X72799000Y-90549000D01*
X73901000Y-90549000D01*
X73901000Y-91451000D01*
X73901000Y-91451000D01*
G37*
G36*
X76401000Y-91451000D02*
X75299000Y-91451000D01*
X75299000Y-90549000D01*
X76401000Y-90549000D01*
X76401000Y-91451000D01*
X76401000Y-91451000D01*
G37*
G36*
X79901000Y-91451000D02*
X78799000Y-91451000D01*
X78799000Y-90549000D01*
X79901000Y-90549000D01*
X79901000Y-91451000D01*
X79901000Y-91451000D01*
G37*
G36*
X82401000Y-91451000D02*
X81299000Y-91451000D01*
X81299000Y-90549000D01*
X82401000Y-90549000D01*
X82401000Y-91451000D01*
X82401000Y-91451000D01*
G37*
G36*
X85901000Y-91451000D02*
X84799000Y-91451000D01*
X84799000Y-90549000D01*
X85901000Y-90549000D01*
X85901000Y-91451000D01*
X85901000Y-91451000D01*
G37*
G36*
X88401000Y-91451000D02*
X87299000Y-91451000D01*
X87299000Y-90549000D01*
X88401000Y-90549000D01*
X88401000Y-91451000D01*
X88401000Y-91451000D01*
G37*
G36*
X91901000Y-91451000D02*
X90799000Y-91451000D01*
X90799000Y-90549000D01*
X91901000Y-90549000D01*
X91901000Y-91451000D01*
X91901000Y-91451000D01*
G37*
G36*
X94401000Y-91451000D02*
X93299000Y-91451000D01*
X93299000Y-90549000D01*
X94401000Y-90549000D01*
X94401000Y-91451000D01*
X94401000Y-91451000D01*
G37*
G36*
X97901000Y-91451000D02*
X96799000Y-91451000D01*
X96799000Y-90549000D01*
X97901000Y-90549000D01*
X97901000Y-91451000D01*
X97901000Y-91451000D01*
G37*
G36*
X100401000Y-91451000D02*
X99299000Y-91451000D01*
X99299000Y-90549000D01*
X100401000Y-90549000D01*
X100401000Y-91451000D01*
X100401000Y-91451000D01*
G37*
G36*
X103901000Y-91451000D02*
X102799000Y-91451000D01*
X102799000Y-90549000D01*
X103901000Y-90549000D01*
X103901000Y-91451000D01*
X103901000Y-91451000D01*
G37*
G36*
X106401000Y-91451000D02*
X105299000Y-91451000D01*
X105299000Y-90549000D01*
X106401000Y-90549000D01*
X106401000Y-91451000D01*
X106401000Y-91451000D01*
G37*
G36*
X109901000Y-91451000D02*
X108799000Y-91451000D01*
X108799000Y-90549000D01*
X109901000Y-90549000D01*
X109901000Y-91451000D01*
X109901000Y-91451000D01*
G37*
G36*
X112401000Y-91451000D02*
X111299000Y-91451000D01*
X111299000Y-90549000D01*
X112401000Y-90549000D01*
X112401000Y-91451000D01*
X112401000Y-91451000D01*
G37*
G36*
X115901000Y-91451000D02*
X114799000Y-91451000D01*
X114799000Y-90549000D01*
X115901000Y-90549000D01*
X115901000Y-91451000D01*
X115901000Y-91451000D01*
G37*
G36*
X118401000Y-91451000D02*
X117299000Y-91451000D01*
X117299000Y-90549000D01*
X118401000Y-90549000D01*
X118401000Y-91451000D01*
X118401000Y-91451000D01*
G37*
G36*
X121901000Y-91451000D02*
X120799000Y-91451000D01*
X120799000Y-90549000D01*
X121901000Y-90549000D01*
X121901000Y-91451000D01*
X121901000Y-91451000D01*
G37*
G36*
X124401000Y-91451000D02*
X123299000Y-91451000D01*
X123299000Y-90549000D01*
X124401000Y-90549000D01*
X124401000Y-91451000D01*
X124401000Y-91451000D01*
G37*
G36*
X127901000Y-91451000D02*
X126799000Y-91451000D01*
X126799000Y-90549000D01*
X127901000Y-90549000D01*
X127901000Y-91451000D01*
X127901000Y-91451000D01*
G37*
G36*
X130401000Y-91451000D02*
X129299000Y-91451000D01*
X129299000Y-90549000D01*
X130401000Y-90549000D01*
X130401000Y-91451000D01*
X130401000Y-91451000D01*
G37*
G36*
X136401000Y-91451000D02*
X135299000Y-91451000D01*
X135299000Y-90549000D01*
X136401000Y-90549000D01*
X136401000Y-91451000D01*
X136401000Y-91451000D01*
G37*
G36*
X133901000Y-91451000D02*
X132799000Y-91451000D01*
X132799000Y-90549000D01*
X133901000Y-90549000D01*
X133901000Y-91451000D01*
X133901000Y-91451000D01*
G37*
G36*
X139901000Y-91451000D02*
X138799000Y-91451000D01*
X138799000Y-90549000D01*
X139901000Y-90549000D01*
X139901000Y-91451000D01*
X139901000Y-91451000D01*
G37*
G36*
X142401000Y-91451000D02*
X141299000Y-91451000D01*
X141299000Y-90549000D01*
X142401000Y-90549000D01*
X142401000Y-91451000D01*
X142401000Y-91451000D01*
G37*
G36*
X145901000Y-91451000D02*
X144799000Y-91451000D01*
X144799000Y-90549000D01*
X145901000Y-90549000D01*
X145901000Y-91451000D01*
X145901000Y-91451000D01*
G37*
G36*
X148401000Y-91451000D02*
X147299000Y-91451000D01*
X147299000Y-90549000D01*
X148401000Y-90549000D01*
X148401000Y-91451000D01*
X148401000Y-91451000D01*
G37*
G36*
X151901000Y-91451000D02*
X150799000Y-91451000D01*
X150799000Y-90549000D01*
X151901000Y-90549000D01*
X151901000Y-91451000D01*
X151901000Y-91451000D01*
G37*
G36*
X238401000Y-91451000D02*
X237299000Y-91451000D01*
X237299000Y-90549000D01*
X238401000Y-90549000D01*
X238401000Y-91451000D01*
X238401000Y-91451000D01*
G37*
G36*
X235901000Y-91451000D02*
X234799000Y-91451000D01*
X234799000Y-90549000D01*
X235901000Y-90549000D01*
X235901000Y-91451000D01*
X235901000Y-91451000D01*
G37*
G36*
X232401000Y-91451000D02*
X231299000Y-91451000D01*
X231299000Y-90549000D01*
X232401000Y-90549000D01*
X232401000Y-91451000D01*
X232401000Y-91451000D01*
G37*
G36*
X229901000Y-91451000D02*
X228799000Y-91451000D01*
X228799000Y-90549000D01*
X229901000Y-90549000D01*
X229901000Y-91451000D01*
X229901000Y-91451000D01*
G37*
G36*
X226401000Y-91451000D02*
X225299000Y-91451000D01*
X225299000Y-90549000D01*
X226401000Y-90549000D01*
X226401000Y-91451000D01*
X226401000Y-91451000D01*
G37*
G36*
X223901000Y-91451000D02*
X222799000Y-91451000D01*
X222799000Y-90549000D01*
X223901000Y-90549000D01*
X223901000Y-91451000D01*
X223901000Y-91451000D01*
G37*
G36*
X220401000Y-91451000D02*
X219299000Y-91451000D01*
X219299000Y-90549000D01*
X220401000Y-90549000D01*
X220401000Y-91451000D01*
X220401000Y-91451000D01*
G37*
G36*
X217901000Y-91451000D02*
X216799000Y-91451000D01*
X216799000Y-90549000D01*
X217901000Y-90549000D01*
X217901000Y-91451000D01*
X217901000Y-91451000D01*
G37*
G36*
X214401000Y-91451000D02*
X213299000Y-91451000D01*
X213299000Y-90549000D01*
X214401000Y-90549000D01*
X214401000Y-91451000D01*
X214401000Y-91451000D01*
G37*
G36*
X211901000Y-91451000D02*
X210799000Y-91451000D01*
X210799000Y-90549000D01*
X211901000Y-90549000D01*
X211901000Y-91451000D01*
X211901000Y-91451000D01*
G37*
G36*
X208401000Y-91451000D02*
X207299000Y-91451000D01*
X207299000Y-90549000D01*
X208401000Y-90549000D01*
X208401000Y-91451000D01*
X208401000Y-91451000D01*
G37*
G36*
X205901000Y-91451000D02*
X204799000Y-91451000D01*
X204799000Y-90549000D01*
X205901000Y-90549000D01*
X205901000Y-91451000D01*
X205901000Y-91451000D01*
G37*
G36*
X202401000Y-91451000D02*
X201299000Y-91451000D01*
X201299000Y-90549000D01*
X202401000Y-90549000D01*
X202401000Y-91451000D01*
X202401000Y-91451000D01*
G37*
G36*
X199901000Y-91451000D02*
X198799000Y-91451000D01*
X198799000Y-90549000D01*
X199901000Y-90549000D01*
X199901000Y-91451000D01*
X199901000Y-91451000D01*
G37*
G36*
X196401000Y-91451000D02*
X195299000Y-91451000D01*
X195299000Y-90549000D01*
X196401000Y-90549000D01*
X196401000Y-91451000D01*
X196401000Y-91451000D01*
G37*
G36*
X193901000Y-91451000D02*
X192799000Y-91451000D01*
X192799000Y-90549000D01*
X193901000Y-90549000D01*
X193901000Y-91451000D01*
X193901000Y-91451000D01*
G37*
G36*
X190401000Y-91451000D02*
X189299000Y-91451000D01*
X189299000Y-90549000D01*
X190401000Y-90549000D01*
X190401000Y-91451000D01*
X190401000Y-91451000D01*
G37*
G36*
X187901000Y-91451000D02*
X186799000Y-91451000D01*
X186799000Y-90549000D01*
X187901000Y-90549000D01*
X187901000Y-91451000D01*
X187901000Y-91451000D01*
G37*
G36*
X184401000Y-91451000D02*
X183299000Y-91451000D01*
X183299000Y-90549000D01*
X184401000Y-90549000D01*
X184401000Y-91451000D01*
X184401000Y-91451000D01*
G37*
G36*
X181901000Y-91451000D02*
X180799000Y-91451000D01*
X180799000Y-90549000D01*
X181901000Y-90549000D01*
X181901000Y-91451000D01*
X181901000Y-91451000D01*
G37*
G36*
X178401000Y-91451000D02*
X177299000Y-91451000D01*
X177299000Y-90549000D01*
X178401000Y-90549000D01*
X178401000Y-91451000D01*
X178401000Y-91451000D01*
G37*
G36*
X175901000Y-91451000D02*
X174799000Y-91451000D01*
X174799000Y-90549000D01*
X175901000Y-90549000D01*
X175901000Y-91451000D01*
X175901000Y-91451000D01*
G37*
G36*
X172401000Y-91451000D02*
X171299000Y-91451000D01*
X171299000Y-90549000D01*
X172401000Y-90549000D01*
X172401000Y-91451000D01*
X172401000Y-91451000D01*
G37*
G36*
X169901000Y-91451000D02*
X168799000Y-91451000D01*
X168799000Y-90549000D01*
X169901000Y-90549000D01*
X169901000Y-91451000D01*
X169901000Y-91451000D01*
G37*
G36*
X166401000Y-91451000D02*
X165299000Y-91451000D01*
X165299000Y-90549000D01*
X166401000Y-90549000D01*
X166401000Y-91451000D01*
X166401000Y-91451000D01*
G37*
G36*
X163901000Y-91451000D02*
X162799000Y-91451000D01*
X162799000Y-90549000D01*
X163901000Y-90549000D01*
X163901000Y-91451000D01*
X163901000Y-91451000D01*
G37*
G36*
X160401000Y-91451000D02*
X159299000Y-91451000D01*
X159299000Y-90549000D01*
X160401000Y-90549000D01*
X160401000Y-91451000D01*
X160401000Y-91451000D01*
G37*
G36*
X157901000Y-91451000D02*
X156799000Y-91451000D01*
X156799000Y-90549000D01*
X157901000Y-90549000D01*
X157901000Y-91451000D01*
X157901000Y-91451000D01*
G37*
G36*
X154401000Y-91451000D02*
X153299000Y-91451000D01*
X153299000Y-90549000D01*
X154401000Y-90549000D01*
X154401000Y-91451000D01*
X154401000Y-91451000D01*
G37*
G36*
X244401000Y-91451000D02*
X243299000Y-91451000D01*
X243299000Y-90549000D01*
X244401000Y-90549000D01*
X244401000Y-91451000D01*
X244401000Y-91451000D01*
G37*
G36*
X145901000Y-90051000D02*
X144799000Y-90051000D01*
X144799000Y-89149000D01*
X145901000Y-89149000D01*
X145901000Y-90051000D01*
X145901000Y-90051000D01*
G37*
G36*
X241901000Y-90051000D02*
X240799000Y-90051000D01*
X240799000Y-89149000D01*
X241901000Y-89149000D01*
X241901000Y-90051000D01*
X241901000Y-90051000D01*
G37*
G36*
X244401000Y-90051000D02*
X243299000Y-90051000D01*
X243299000Y-89149000D01*
X244401000Y-89149000D01*
X244401000Y-90051000D01*
X244401000Y-90051000D01*
G37*
G36*
X235901000Y-90051000D02*
X234799000Y-90051000D01*
X234799000Y-89149000D01*
X235901000Y-89149000D01*
X235901000Y-90051000D01*
X235901000Y-90051000D01*
G37*
G36*
X238401000Y-90051000D02*
X237299000Y-90051000D01*
X237299000Y-89149000D01*
X238401000Y-89149000D01*
X238401000Y-90051000D01*
X238401000Y-90051000D01*
G37*
G36*
X58401000Y-90051000D02*
X57299000Y-90051000D01*
X57299000Y-89149000D01*
X58401000Y-89149000D01*
X58401000Y-90051000D01*
X58401000Y-90051000D01*
G37*
G36*
X55901000Y-90051000D02*
X54799000Y-90051000D01*
X54799000Y-89149000D01*
X55901000Y-89149000D01*
X55901000Y-90051000D01*
X55901000Y-90051000D01*
G37*
G36*
X229901000Y-90051000D02*
X228799000Y-90051000D01*
X228799000Y-89149000D01*
X229901000Y-89149000D01*
X229901000Y-90051000D01*
X229901000Y-90051000D01*
G37*
G36*
X232401000Y-90051000D02*
X231299000Y-90051000D01*
X231299000Y-89149000D01*
X232401000Y-89149000D01*
X232401000Y-90051000D01*
X232401000Y-90051000D01*
G37*
G36*
X223901000Y-90051000D02*
X222799000Y-90051000D01*
X222799000Y-89149000D01*
X223901000Y-89149000D01*
X223901000Y-90051000D01*
X223901000Y-90051000D01*
G37*
G36*
X226401000Y-90051000D02*
X225299000Y-90051000D01*
X225299000Y-89149000D01*
X226401000Y-89149000D01*
X226401000Y-90051000D01*
X226401000Y-90051000D01*
G37*
G36*
X64401000Y-90051000D02*
X63299000Y-90051000D01*
X63299000Y-89149000D01*
X64401000Y-89149000D01*
X64401000Y-90051000D01*
X64401000Y-90051000D01*
G37*
G36*
X61901000Y-90051000D02*
X60799000Y-90051000D01*
X60799000Y-89149000D01*
X61901000Y-89149000D01*
X61901000Y-90051000D01*
X61901000Y-90051000D01*
G37*
G36*
X217901000Y-90051000D02*
X216799000Y-90051000D01*
X216799000Y-89149000D01*
X217901000Y-89149000D01*
X217901000Y-90051000D01*
X217901000Y-90051000D01*
G37*
G36*
X220401000Y-90051000D02*
X219299000Y-90051000D01*
X219299000Y-89149000D01*
X220401000Y-89149000D01*
X220401000Y-90051000D01*
X220401000Y-90051000D01*
G37*
G36*
X211901000Y-90051000D02*
X210799000Y-90051000D01*
X210799000Y-89149000D01*
X211901000Y-89149000D01*
X211901000Y-90051000D01*
X211901000Y-90051000D01*
G37*
G36*
X214401000Y-90051000D02*
X213299000Y-90051000D01*
X213299000Y-89149000D01*
X214401000Y-89149000D01*
X214401000Y-90051000D01*
X214401000Y-90051000D01*
G37*
G36*
X70401000Y-90051000D02*
X69299000Y-90051000D01*
X69299000Y-89149000D01*
X70401000Y-89149000D01*
X70401000Y-90051000D01*
X70401000Y-90051000D01*
G37*
G36*
X67901000Y-90051000D02*
X66799000Y-90051000D01*
X66799000Y-89149000D01*
X67901000Y-89149000D01*
X67901000Y-90051000D01*
X67901000Y-90051000D01*
G37*
G36*
X205901000Y-90051000D02*
X204799000Y-90051000D01*
X204799000Y-89149000D01*
X205901000Y-89149000D01*
X205901000Y-90051000D01*
X205901000Y-90051000D01*
G37*
G36*
X208401000Y-90051000D02*
X207299000Y-90051000D01*
X207299000Y-89149000D01*
X208401000Y-89149000D01*
X208401000Y-90051000D01*
X208401000Y-90051000D01*
G37*
G36*
X199901000Y-90051000D02*
X198799000Y-90051000D01*
X198799000Y-89149000D01*
X199901000Y-89149000D01*
X199901000Y-90051000D01*
X199901000Y-90051000D01*
G37*
G36*
X202401000Y-90051000D02*
X201299000Y-90051000D01*
X201299000Y-89149000D01*
X202401000Y-89149000D01*
X202401000Y-90051000D01*
X202401000Y-90051000D01*
G37*
G36*
X76401000Y-90051000D02*
X75299000Y-90051000D01*
X75299000Y-89149000D01*
X76401000Y-89149000D01*
X76401000Y-90051000D01*
X76401000Y-90051000D01*
G37*
G36*
X73901000Y-90051000D02*
X72799000Y-90051000D01*
X72799000Y-89149000D01*
X73901000Y-89149000D01*
X73901000Y-90051000D01*
X73901000Y-90051000D01*
G37*
G36*
X193901000Y-90051000D02*
X192799000Y-90051000D01*
X192799000Y-89149000D01*
X193901000Y-89149000D01*
X193901000Y-90051000D01*
X193901000Y-90051000D01*
G37*
G36*
X196401000Y-90051000D02*
X195299000Y-90051000D01*
X195299000Y-89149000D01*
X196401000Y-89149000D01*
X196401000Y-90051000D01*
X196401000Y-90051000D01*
G37*
G36*
X187901000Y-90051000D02*
X186799000Y-90051000D01*
X186799000Y-89149000D01*
X187901000Y-89149000D01*
X187901000Y-90051000D01*
X187901000Y-90051000D01*
G37*
G36*
X190401000Y-90051000D02*
X189299000Y-90051000D01*
X189299000Y-89149000D01*
X190401000Y-89149000D01*
X190401000Y-90051000D01*
X190401000Y-90051000D01*
G37*
G36*
X82401000Y-90051000D02*
X81299000Y-90051000D01*
X81299000Y-89149000D01*
X82401000Y-89149000D01*
X82401000Y-90051000D01*
X82401000Y-90051000D01*
G37*
G36*
X79901000Y-90051000D02*
X78799000Y-90051000D01*
X78799000Y-89149000D01*
X79901000Y-89149000D01*
X79901000Y-90051000D01*
X79901000Y-90051000D01*
G37*
G36*
X181901000Y-90051000D02*
X180799000Y-90051000D01*
X180799000Y-89149000D01*
X181901000Y-89149000D01*
X181901000Y-90051000D01*
X181901000Y-90051000D01*
G37*
G36*
X184401000Y-90051000D02*
X183299000Y-90051000D01*
X183299000Y-89149000D01*
X184401000Y-89149000D01*
X184401000Y-90051000D01*
X184401000Y-90051000D01*
G37*
G36*
X175901000Y-90051000D02*
X174799000Y-90051000D01*
X174799000Y-89149000D01*
X175901000Y-89149000D01*
X175901000Y-90051000D01*
X175901000Y-90051000D01*
G37*
G36*
X178401000Y-90051000D02*
X177299000Y-90051000D01*
X177299000Y-89149000D01*
X178401000Y-89149000D01*
X178401000Y-90051000D01*
X178401000Y-90051000D01*
G37*
G36*
X88401000Y-90051000D02*
X87299000Y-90051000D01*
X87299000Y-89149000D01*
X88401000Y-89149000D01*
X88401000Y-90051000D01*
X88401000Y-90051000D01*
G37*
G36*
X85901000Y-90051000D02*
X84799000Y-90051000D01*
X84799000Y-89149000D01*
X85901000Y-89149000D01*
X85901000Y-90051000D01*
X85901000Y-90051000D01*
G37*
G36*
X169901000Y-90051000D02*
X168799000Y-90051000D01*
X168799000Y-89149000D01*
X169901000Y-89149000D01*
X169901000Y-90051000D01*
X169901000Y-90051000D01*
G37*
G36*
X172401000Y-90051000D02*
X171299000Y-90051000D01*
X171299000Y-89149000D01*
X172401000Y-89149000D01*
X172401000Y-90051000D01*
X172401000Y-90051000D01*
G37*
G36*
X163901000Y-90051000D02*
X162799000Y-90051000D01*
X162799000Y-89149000D01*
X163901000Y-89149000D01*
X163901000Y-90051000D01*
X163901000Y-90051000D01*
G37*
G36*
X166401000Y-90051000D02*
X165299000Y-90051000D01*
X165299000Y-89149000D01*
X166401000Y-89149000D01*
X166401000Y-90051000D01*
X166401000Y-90051000D01*
G37*
G36*
X94401000Y-90051000D02*
X93299000Y-90051000D01*
X93299000Y-89149000D01*
X94401000Y-89149000D01*
X94401000Y-90051000D01*
X94401000Y-90051000D01*
G37*
G36*
X91901000Y-90051000D02*
X90799000Y-90051000D01*
X90799000Y-89149000D01*
X91901000Y-89149000D01*
X91901000Y-90051000D01*
X91901000Y-90051000D01*
G37*
G36*
X157901000Y-90051000D02*
X156799000Y-90051000D01*
X156799000Y-89149000D01*
X157901000Y-89149000D01*
X157901000Y-90051000D01*
X157901000Y-90051000D01*
G37*
G36*
X160401000Y-90051000D02*
X159299000Y-90051000D01*
X159299000Y-89149000D01*
X160401000Y-89149000D01*
X160401000Y-90051000D01*
X160401000Y-90051000D01*
G37*
G36*
X151901000Y-90051000D02*
X150799000Y-90051000D01*
X150799000Y-89149000D01*
X151901000Y-89149000D01*
X151901000Y-90051000D01*
X151901000Y-90051000D01*
G37*
G36*
X154401000Y-90051000D02*
X153299000Y-90051000D01*
X153299000Y-89149000D01*
X154401000Y-89149000D01*
X154401000Y-90051000D01*
X154401000Y-90051000D01*
G37*
G36*
X100401000Y-90051000D02*
X99299000Y-90051000D01*
X99299000Y-89149000D01*
X100401000Y-89149000D01*
X100401000Y-90051000D01*
X100401000Y-90051000D01*
G37*
G36*
X97901000Y-90051000D02*
X96799000Y-90051000D01*
X96799000Y-89149000D01*
X97901000Y-89149000D01*
X97901000Y-90051000D01*
X97901000Y-90051000D01*
G37*
G36*
X106401000Y-90051000D02*
X105299000Y-90051000D01*
X105299000Y-89149000D01*
X106401000Y-89149000D01*
X106401000Y-90051000D01*
X106401000Y-90051000D01*
G37*
G36*
X103901000Y-90051000D02*
X102799000Y-90051000D01*
X102799000Y-89149000D01*
X103901000Y-89149000D01*
X103901000Y-90051000D01*
X103901000Y-90051000D01*
G37*
G36*
X112401000Y-90051000D02*
X111299000Y-90051000D01*
X111299000Y-89149000D01*
X112401000Y-89149000D01*
X112401000Y-90051000D01*
X112401000Y-90051000D01*
G37*
G36*
X109901000Y-90051000D02*
X108799000Y-90051000D01*
X108799000Y-89149000D01*
X109901000Y-89149000D01*
X109901000Y-90051000D01*
X109901000Y-90051000D01*
G37*
G36*
X118401000Y-90051000D02*
X117299000Y-90051000D01*
X117299000Y-89149000D01*
X118401000Y-89149000D01*
X118401000Y-90051000D01*
X118401000Y-90051000D01*
G37*
G36*
X115901000Y-90051000D02*
X114799000Y-90051000D01*
X114799000Y-89149000D01*
X115901000Y-89149000D01*
X115901000Y-90051000D01*
X115901000Y-90051000D01*
G37*
G36*
X124401000Y-90051000D02*
X123299000Y-90051000D01*
X123299000Y-89149000D01*
X124401000Y-89149000D01*
X124401000Y-90051000D01*
X124401000Y-90051000D01*
G37*
G36*
X121901000Y-90051000D02*
X120799000Y-90051000D01*
X120799000Y-89149000D01*
X121901000Y-89149000D01*
X121901000Y-90051000D01*
X121901000Y-90051000D01*
G37*
G36*
X130401000Y-90051000D02*
X129299000Y-90051000D01*
X129299000Y-89149000D01*
X130401000Y-89149000D01*
X130401000Y-90051000D01*
X130401000Y-90051000D01*
G37*
G36*
X127901000Y-90051000D02*
X126799000Y-90051000D01*
X126799000Y-89149000D01*
X127901000Y-89149000D01*
X127901000Y-90051000D01*
X127901000Y-90051000D01*
G37*
G36*
X133901000Y-90051000D02*
X132799000Y-90051000D01*
X132799000Y-89149000D01*
X133901000Y-89149000D01*
X133901000Y-90051000D01*
X133901000Y-90051000D01*
G37*
G36*
X136401000Y-90051000D02*
X135299000Y-90051000D01*
X135299000Y-89149000D01*
X136401000Y-89149000D01*
X136401000Y-90051000D01*
X136401000Y-90051000D01*
G37*
G36*
X142401000Y-90051000D02*
X141299000Y-90051000D01*
X141299000Y-89149000D01*
X142401000Y-89149000D01*
X142401000Y-90051000D01*
X142401000Y-90051000D01*
G37*
G36*
X139901000Y-90051000D02*
X138799000Y-90051000D01*
X138799000Y-89149000D01*
X139901000Y-89149000D01*
X139901000Y-90051000D01*
X139901000Y-90051000D01*
G37*
G36*
X148401000Y-90051000D02*
X147299000Y-90051000D01*
X147299000Y-89149000D01*
X148401000Y-89149000D01*
X148401000Y-90051000D01*
X148401000Y-90051000D01*
G37*
G36*
X244401000Y-85451000D02*
X243299000Y-85451000D01*
X243299000Y-84549000D01*
X244401000Y-84549000D01*
X244401000Y-85451000D01*
X244401000Y-85451000D01*
G37*
G36*
X241901000Y-85451000D02*
X240799000Y-85451000D01*
X240799000Y-84549000D01*
X241901000Y-84549000D01*
X241901000Y-85451000D01*
X241901000Y-85451000D01*
G37*
G36*
X58401000Y-85451000D02*
X57299000Y-85451000D01*
X57299000Y-84549000D01*
X58401000Y-84549000D01*
X58401000Y-85451000D01*
X58401000Y-85451000D01*
G37*
G36*
X55901000Y-85451000D02*
X54799000Y-85451000D01*
X54799000Y-84549000D01*
X55901000Y-84549000D01*
X55901000Y-85451000D01*
X55901000Y-85451000D01*
G37*
G36*
X238401000Y-85451000D02*
X237299000Y-85451000D01*
X237299000Y-84549000D01*
X238401000Y-84549000D01*
X238401000Y-85451000D01*
X238401000Y-85451000D01*
G37*
G36*
X235901000Y-85451000D02*
X234799000Y-85451000D01*
X234799000Y-84549000D01*
X235901000Y-84549000D01*
X235901000Y-85451000D01*
X235901000Y-85451000D01*
G37*
G36*
X64401000Y-85451000D02*
X63299000Y-85451000D01*
X63299000Y-84549000D01*
X64401000Y-84549000D01*
X64401000Y-85451000D01*
X64401000Y-85451000D01*
G37*
G36*
X61901000Y-85451000D02*
X60799000Y-85451000D01*
X60799000Y-84549000D01*
X61901000Y-84549000D01*
X61901000Y-85451000D01*
X61901000Y-85451000D01*
G37*
G36*
X232401000Y-85451000D02*
X231299000Y-85451000D01*
X231299000Y-84549000D01*
X232401000Y-84549000D01*
X232401000Y-85451000D01*
X232401000Y-85451000D01*
G37*
G36*
X229901000Y-85451000D02*
X228799000Y-85451000D01*
X228799000Y-84549000D01*
X229901000Y-84549000D01*
X229901000Y-85451000D01*
X229901000Y-85451000D01*
G37*
G36*
X70401000Y-85451000D02*
X69299000Y-85451000D01*
X69299000Y-84549000D01*
X70401000Y-84549000D01*
X70401000Y-85451000D01*
X70401000Y-85451000D01*
G37*
G36*
X67901000Y-85451000D02*
X66799000Y-85451000D01*
X66799000Y-84549000D01*
X67901000Y-84549000D01*
X67901000Y-85451000D01*
X67901000Y-85451000D01*
G37*
G36*
X226401000Y-85451000D02*
X225299000Y-85451000D01*
X225299000Y-84549000D01*
X226401000Y-84549000D01*
X226401000Y-85451000D01*
X226401000Y-85451000D01*
G37*
G36*
X223901000Y-85451000D02*
X222799000Y-85451000D01*
X222799000Y-84549000D01*
X223901000Y-84549000D01*
X223901000Y-85451000D01*
X223901000Y-85451000D01*
G37*
G36*
X76401000Y-85451000D02*
X75299000Y-85451000D01*
X75299000Y-84549000D01*
X76401000Y-84549000D01*
X76401000Y-85451000D01*
X76401000Y-85451000D01*
G37*
G36*
X73901000Y-85451000D02*
X72799000Y-85451000D01*
X72799000Y-84549000D01*
X73901000Y-84549000D01*
X73901000Y-85451000D01*
X73901000Y-85451000D01*
G37*
G36*
X220401000Y-85451000D02*
X219299000Y-85451000D01*
X219299000Y-84549000D01*
X220401000Y-84549000D01*
X220401000Y-85451000D01*
X220401000Y-85451000D01*
G37*
G36*
X217901000Y-85451000D02*
X216799000Y-85451000D01*
X216799000Y-84549000D01*
X217901000Y-84549000D01*
X217901000Y-85451000D01*
X217901000Y-85451000D01*
G37*
G36*
X82401000Y-85451000D02*
X81299000Y-85451000D01*
X81299000Y-84549000D01*
X82401000Y-84549000D01*
X82401000Y-85451000D01*
X82401000Y-85451000D01*
G37*
G36*
X79901000Y-85451000D02*
X78799000Y-85451000D01*
X78799000Y-84549000D01*
X79901000Y-84549000D01*
X79901000Y-85451000D01*
X79901000Y-85451000D01*
G37*
G36*
X214401000Y-85451000D02*
X213299000Y-85451000D01*
X213299000Y-84549000D01*
X214401000Y-84549000D01*
X214401000Y-85451000D01*
X214401000Y-85451000D01*
G37*
G36*
X211901000Y-85451000D02*
X210799000Y-85451000D01*
X210799000Y-84549000D01*
X211901000Y-84549000D01*
X211901000Y-85451000D01*
X211901000Y-85451000D01*
G37*
G36*
X88401000Y-85451000D02*
X87299000Y-85451000D01*
X87299000Y-84549000D01*
X88401000Y-84549000D01*
X88401000Y-85451000D01*
X88401000Y-85451000D01*
G37*
G36*
X85901000Y-85451000D02*
X84799000Y-85451000D01*
X84799000Y-84549000D01*
X85901000Y-84549000D01*
X85901000Y-85451000D01*
X85901000Y-85451000D01*
G37*
G36*
X208401000Y-85451000D02*
X207299000Y-85451000D01*
X207299000Y-84549000D01*
X208401000Y-84549000D01*
X208401000Y-85451000D01*
X208401000Y-85451000D01*
G37*
G36*
X205901000Y-85451000D02*
X204799000Y-85451000D01*
X204799000Y-84549000D01*
X205901000Y-84549000D01*
X205901000Y-85451000D01*
X205901000Y-85451000D01*
G37*
G36*
X94401000Y-85451000D02*
X93299000Y-85451000D01*
X93299000Y-84549000D01*
X94401000Y-84549000D01*
X94401000Y-85451000D01*
X94401000Y-85451000D01*
G37*
G36*
X91901000Y-85451000D02*
X90799000Y-85451000D01*
X90799000Y-84549000D01*
X91901000Y-84549000D01*
X91901000Y-85451000D01*
X91901000Y-85451000D01*
G37*
G36*
X202401000Y-85451000D02*
X201299000Y-85451000D01*
X201299000Y-84549000D01*
X202401000Y-84549000D01*
X202401000Y-85451000D01*
X202401000Y-85451000D01*
G37*
G36*
X199901000Y-85451000D02*
X198799000Y-85451000D01*
X198799000Y-84549000D01*
X199901000Y-84549000D01*
X199901000Y-85451000D01*
X199901000Y-85451000D01*
G37*
G36*
X100401000Y-85451000D02*
X99299000Y-85451000D01*
X99299000Y-84549000D01*
X100401000Y-84549000D01*
X100401000Y-85451000D01*
X100401000Y-85451000D01*
G37*
G36*
X97901000Y-85451000D02*
X96799000Y-85451000D01*
X96799000Y-84549000D01*
X97901000Y-84549000D01*
X97901000Y-85451000D01*
X97901000Y-85451000D01*
G37*
G36*
X196401000Y-85451000D02*
X195299000Y-85451000D01*
X195299000Y-84549000D01*
X196401000Y-84549000D01*
X196401000Y-85451000D01*
X196401000Y-85451000D01*
G37*
G36*
X193901000Y-85451000D02*
X192799000Y-85451000D01*
X192799000Y-84549000D01*
X193901000Y-84549000D01*
X193901000Y-85451000D01*
X193901000Y-85451000D01*
G37*
G36*
X106401000Y-85451000D02*
X105299000Y-85451000D01*
X105299000Y-84549000D01*
X106401000Y-84549000D01*
X106401000Y-85451000D01*
X106401000Y-85451000D01*
G37*
G36*
X103901000Y-85451000D02*
X102799000Y-85451000D01*
X102799000Y-84549000D01*
X103901000Y-84549000D01*
X103901000Y-85451000D01*
X103901000Y-85451000D01*
G37*
G36*
X190401000Y-85451000D02*
X189299000Y-85451000D01*
X189299000Y-84549000D01*
X190401000Y-84549000D01*
X190401000Y-85451000D01*
X190401000Y-85451000D01*
G37*
G36*
X187901000Y-85451000D02*
X186799000Y-85451000D01*
X186799000Y-84549000D01*
X187901000Y-84549000D01*
X187901000Y-85451000D01*
X187901000Y-85451000D01*
G37*
G36*
X112401000Y-85451000D02*
X111299000Y-85451000D01*
X111299000Y-84549000D01*
X112401000Y-84549000D01*
X112401000Y-85451000D01*
X112401000Y-85451000D01*
G37*
G36*
X109901000Y-85451000D02*
X108799000Y-85451000D01*
X108799000Y-84549000D01*
X109901000Y-84549000D01*
X109901000Y-85451000D01*
X109901000Y-85451000D01*
G37*
G36*
X184401000Y-85451000D02*
X183299000Y-85451000D01*
X183299000Y-84549000D01*
X184401000Y-84549000D01*
X184401000Y-85451000D01*
X184401000Y-85451000D01*
G37*
G36*
X181901000Y-85451000D02*
X180799000Y-85451000D01*
X180799000Y-84549000D01*
X181901000Y-84549000D01*
X181901000Y-85451000D01*
X181901000Y-85451000D01*
G37*
G36*
X118401000Y-85451000D02*
X117299000Y-85451000D01*
X117299000Y-84549000D01*
X118401000Y-84549000D01*
X118401000Y-85451000D01*
X118401000Y-85451000D01*
G37*
G36*
X115901000Y-85451000D02*
X114799000Y-85451000D01*
X114799000Y-84549000D01*
X115901000Y-84549000D01*
X115901000Y-85451000D01*
X115901000Y-85451000D01*
G37*
G36*
X178401000Y-85451000D02*
X177299000Y-85451000D01*
X177299000Y-84549000D01*
X178401000Y-84549000D01*
X178401000Y-85451000D01*
X178401000Y-85451000D01*
G37*
G36*
X175901000Y-85451000D02*
X174799000Y-85451000D01*
X174799000Y-84549000D01*
X175901000Y-84549000D01*
X175901000Y-85451000D01*
X175901000Y-85451000D01*
G37*
G36*
X124401000Y-85451000D02*
X123299000Y-85451000D01*
X123299000Y-84549000D01*
X124401000Y-84549000D01*
X124401000Y-85451000D01*
X124401000Y-85451000D01*
G37*
G36*
X121901000Y-85451000D02*
X120799000Y-85451000D01*
X120799000Y-84549000D01*
X121901000Y-84549000D01*
X121901000Y-85451000D01*
X121901000Y-85451000D01*
G37*
G36*
X172401000Y-85451000D02*
X171299000Y-85451000D01*
X171299000Y-84549000D01*
X172401000Y-84549000D01*
X172401000Y-85451000D01*
X172401000Y-85451000D01*
G37*
G36*
X169901000Y-85451000D02*
X168799000Y-85451000D01*
X168799000Y-84549000D01*
X169901000Y-84549000D01*
X169901000Y-85451000D01*
X169901000Y-85451000D01*
G37*
G36*
X130401000Y-85451000D02*
X129299000Y-85451000D01*
X129299000Y-84549000D01*
X130401000Y-84549000D01*
X130401000Y-85451000D01*
X130401000Y-85451000D01*
G37*
G36*
X127901000Y-85451000D02*
X126799000Y-85451000D01*
X126799000Y-84549000D01*
X127901000Y-84549000D01*
X127901000Y-85451000D01*
X127901000Y-85451000D01*
G37*
G36*
X166401000Y-85451000D02*
X165299000Y-85451000D01*
X165299000Y-84549000D01*
X166401000Y-84549000D01*
X166401000Y-85451000D01*
X166401000Y-85451000D01*
G37*
G36*
X163901000Y-85451000D02*
X162799000Y-85451000D01*
X162799000Y-84549000D01*
X163901000Y-84549000D01*
X163901000Y-85451000D01*
X163901000Y-85451000D01*
G37*
G36*
X136401000Y-85451000D02*
X135299000Y-85451000D01*
X135299000Y-84549000D01*
X136401000Y-84549000D01*
X136401000Y-85451000D01*
X136401000Y-85451000D01*
G37*
G36*
X133901000Y-85451000D02*
X132799000Y-85451000D01*
X132799000Y-84549000D01*
X133901000Y-84549000D01*
X133901000Y-85451000D01*
X133901000Y-85451000D01*
G37*
G36*
X160401000Y-85451000D02*
X159299000Y-85451000D01*
X159299000Y-84549000D01*
X160401000Y-84549000D01*
X160401000Y-85451000D01*
X160401000Y-85451000D01*
G37*
G36*
X157901000Y-85451000D02*
X156799000Y-85451000D01*
X156799000Y-84549000D01*
X157901000Y-84549000D01*
X157901000Y-85451000D01*
X157901000Y-85451000D01*
G37*
G36*
X142401000Y-85451000D02*
X141299000Y-85451000D01*
X141299000Y-84549000D01*
X142401000Y-84549000D01*
X142401000Y-85451000D01*
X142401000Y-85451000D01*
G37*
G36*
X139901000Y-85451000D02*
X138799000Y-85451000D01*
X138799000Y-84549000D01*
X139901000Y-84549000D01*
X139901000Y-85451000D01*
X139901000Y-85451000D01*
G37*
G36*
X154401000Y-85451000D02*
X153299000Y-85451000D01*
X153299000Y-84549000D01*
X154401000Y-84549000D01*
X154401000Y-85451000D01*
X154401000Y-85451000D01*
G37*
G36*
X151901000Y-85451000D02*
X150799000Y-85451000D01*
X150799000Y-84549000D01*
X151901000Y-84549000D01*
X151901000Y-85451000D01*
X151901000Y-85451000D01*
G37*
G36*
X148401000Y-85451000D02*
X147299000Y-85451000D01*
X147299000Y-84549000D01*
X148401000Y-84549000D01*
X148401000Y-85451000D01*
X148401000Y-85451000D01*
G37*
G36*
X145901000Y-85451000D02*
X144799000Y-85451000D01*
X144799000Y-84549000D01*
X145901000Y-84549000D01*
X145901000Y-85451000D01*
X145901000Y-85451000D01*
G37*
G36*
X241901000Y-84051000D02*
X240799000Y-84051000D01*
X240799000Y-83149000D01*
X241901000Y-83149000D01*
X241901000Y-84051000D01*
X241901000Y-84051000D01*
G37*
G36*
X244401000Y-84051000D02*
X243299000Y-84051000D01*
X243299000Y-83149000D01*
X244401000Y-83149000D01*
X244401000Y-84051000D01*
X244401000Y-84051000D01*
G37*
G36*
X238401000Y-84051000D02*
X237299000Y-84051000D01*
X237299000Y-83149000D01*
X238401000Y-83149000D01*
X238401000Y-84051000D01*
X238401000Y-84051000D01*
G37*
G36*
X235901000Y-84051000D02*
X234799000Y-84051000D01*
X234799000Y-83149000D01*
X235901000Y-83149000D01*
X235901000Y-84051000D01*
X235901000Y-84051000D01*
G37*
G36*
X232401000Y-84051000D02*
X231299000Y-84051000D01*
X231299000Y-83149000D01*
X232401000Y-83149000D01*
X232401000Y-84051000D01*
X232401000Y-84051000D01*
G37*
G36*
X229901000Y-84051000D02*
X228799000Y-84051000D01*
X228799000Y-83149000D01*
X229901000Y-83149000D01*
X229901000Y-84051000D01*
X229901000Y-84051000D01*
G37*
G36*
X226401000Y-84051000D02*
X225299000Y-84051000D01*
X225299000Y-83149000D01*
X226401000Y-83149000D01*
X226401000Y-84051000D01*
X226401000Y-84051000D01*
G37*
G36*
X223901000Y-84051000D02*
X222799000Y-84051000D01*
X222799000Y-83149000D01*
X223901000Y-83149000D01*
X223901000Y-84051000D01*
X223901000Y-84051000D01*
G37*
G36*
X220401000Y-84051000D02*
X219299000Y-84051000D01*
X219299000Y-83149000D01*
X220401000Y-83149000D01*
X220401000Y-84051000D01*
X220401000Y-84051000D01*
G37*
G36*
X217901000Y-84051000D02*
X216799000Y-84051000D01*
X216799000Y-83149000D01*
X217901000Y-83149000D01*
X217901000Y-84051000D01*
X217901000Y-84051000D01*
G37*
G36*
X214401000Y-84051000D02*
X213299000Y-84051000D01*
X213299000Y-83149000D01*
X214401000Y-83149000D01*
X214401000Y-84051000D01*
X214401000Y-84051000D01*
G37*
G36*
X211901000Y-84051000D02*
X210799000Y-84051000D01*
X210799000Y-83149000D01*
X211901000Y-83149000D01*
X211901000Y-84051000D01*
X211901000Y-84051000D01*
G37*
G36*
X208401000Y-84051000D02*
X207299000Y-84051000D01*
X207299000Y-83149000D01*
X208401000Y-83149000D01*
X208401000Y-84051000D01*
X208401000Y-84051000D01*
G37*
G36*
X205901000Y-84051000D02*
X204799000Y-84051000D01*
X204799000Y-83149000D01*
X205901000Y-83149000D01*
X205901000Y-84051000D01*
X205901000Y-84051000D01*
G37*
G36*
X202401000Y-84051000D02*
X201299000Y-84051000D01*
X201299000Y-83149000D01*
X202401000Y-83149000D01*
X202401000Y-84051000D01*
X202401000Y-84051000D01*
G37*
G36*
X199901000Y-84051000D02*
X198799000Y-84051000D01*
X198799000Y-83149000D01*
X199901000Y-83149000D01*
X199901000Y-84051000D01*
X199901000Y-84051000D01*
G37*
G36*
X196401000Y-84051000D02*
X195299000Y-84051000D01*
X195299000Y-83149000D01*
X196401000Y-83149000D01*
X196401000Y-84051000D01*
X196401000Y-84051000D01*
G37*
G36*
X193901000Y-84051000D02*
X192799000Y-84051000D01*
X192799000Y-83149000D01*
X193901000Y-83149000D01*
X193901000Y-84051000D01*
X193901000Y-84051000D01*
G37*
G36*
X190401000Y-84051000D02*
X189299000Y-84051000D01*
X189299000Y-83149000D01*
X190401000Y-83149000D01*
X190401000Y-84051000D01*
X190401000Y-84051000D01*
G37*
G36*
X187901000Y-84051000D02*
X186799000Y-84051000D01*
X186799000Y-83149000D01*
X187901000Y-83149000D01*
X187901000Y-84051000D01*
X187901000Y-84051000D01*
G37*
G36*
X184401000Y-84051000D02*
X183299000Y-84051000D01*
X183299000Y-83149000D01*
X184401000Y-83149000D01*
X184401000Y-84051000D01*
X184401000Y-84051000D01*
G37*
G36*
X181901000Y-84051000D02*
X180799000Y-84051000D01*
X180799000Y-83149000D01*
X181901000Y-83149000D01*
X181901000Y-84051000D01*
X181901000Y-84051000D01*
G37*
G36*
X178401000Y-84051000D02*
X177299000Y-84051000D01*
X177299000Y-83149000D01*
X178401000Y-83149000D01*
X178401000Y-84051000D01*
X178401000Y-84051000D01*
G37*
G36*
X175901000Y-84051000D02*
X174799000Y-84051000D01*
X174799000Y-83149000D01*
X175901000Y-83149000D01*
X175901000Y-84051000D01*
X175901000Y-84051000D01*
G37*
G36*
X172401000Y-84051000D02*
X171299000Y-84051000D01*
X171299000Y-83149000D01*
X172401000Y-83149000D01*
X172401000Y-84051000D01*
X172401000Y-84051000D01*
G37*
G36*
X169901000Y-84051000D02*
X168799000Y-84051000D01*
X168799000Y-83149000D01*
X169901000Y-83149000D01*
X169901000Y-84051000D01*
X169901000Y-84051000D01*
G37*
G36*
X166401000Y-84051000D02*
X165299000Y-84051000D01*
X165299000Y-83149000D01*
X166401000Y-83149000D01*
X166401000Y-84051000D01*
X166401000Y-84051000D01*
G37*
G36*
X163901000Y-84051000D02*
X162799000Y-84051000D01*
X162799000Y-83149000D01*
X163901000Y-83149000D01*
X163901000Y-84051000D01*
X163901000Y-84051000D01*
G37*
G36*
X160401000Y-84051000D02*
X159299000Y-84051000D01*
X159299000Y-83149000D01*
X160401000Y-83149000D01*
X160401000Y-84051000D01*
X160401000Y-84051000D01*
G37*
G36*
X157901000Y-84051000D02*
X156799000Y-84051000D01*
X156799000Y-83149000D01*
X157901000Y-83149000D01*
X157901000Y-84051000D01*
X157901000Y-84051000D01*
G37*
G36*
X154401000Y-84051000D02*
X153299000Y-84051000D01*
X153299000Y-83149000D01*
X154401000Y-83149000D01*
X154401000Y-84051000D01*
X154401000Y-84051000D01*
G37*
G36*
X151901000Y-84051000D02*
X150799000Y-84051000D01*
X150799000Y-83149000D01*
X151901000Y-83149000D01*
X151901000Y-84051000D01*
X151901000Y-84051000D01*
G37*
G36*
X148401000Y-84051000D02*
X147299000Y-84051000D01*
X147299000Y-83149000D01*
X148401000Y-83149000D01*
X148401000Y-84051000D01*
X148401000Y-84051000D01*
G37*
G36*
X145901000Y-84051000D02*
X144799000Y-84051000D01*
X144799000Y-83149000D01*
X145901000Y-83149000D01*
X145901000Y-84051000D01*
X145901000Y-84051000D01*
G37*
G36*
X142401000Y-84051000D02*
X141299000Y-84051000D01*
X141299000Y-83149000D01*
X142401000Y-83149000D01*
X142401000Y-84051000D01*
X142401000Y-84051000D01*
G37*
G36*
X139901000Y-84051000D02*
X138799000Y-84051000D01*
X138799000Y-83149000D01*
X139901000Y-83149000D01*
X139901000Y-84051000D01*
X139901000Y-84051000D01*
G37*
G36*
X136401000Y-84051000D02*
X135299000Y-84051000D01*
X135299000Y-83149000D01*
X136401000Y-83149000D01*
X136401000Y-84051000D01*
X136401000Y-84051000D01*
G37*
G36*
X133901000Y-84051000D02*
X132799000Y-84051000D01*
X132799000Y-83149000D01*
X133901000Y-83149000D01*
X133901000Y-84051000D01*
X133901000Y-84051000D01*
G37*
G36*
X130401000Y-84051000D02*
X129299000Y-84051000D01*
X129299000Y-83149000D01*
X130401000Y-83149000D01*
X130401000Y-84051000D01*
X130401000Y-84051000D01*
G37*
G36*
X127901000Y-84051000D02*
X126799000Y-84051000D01*
X126799000Y-83149000D01*
X127901000Y-83149000D01*
X127901000Y-84051000D01*
X127901000Y-84051000D01*
G37*
G36*
X124401000Y-84051000D02*
X123299000Y-84051000D01*
X123299000Y-83149000D01*
X124401000Y-83149000D01*
X124401000Y-84051000D01*
X124401000Y-84051000D01*
G37*
G36*
X121901000Y-84051000D02*
X120799000Y-84051000D01*
X120799000Y-83149000D01*
X121901000Y-83149000D01*
X121901000Y-84051000D01*
X121901000Y-84051000D01*
G37*
G36*
X118401000Y-84051000D02*
X117299000Y-84051000D01*
X117299000Y-83149000D01*
X118401000Y-83149000D01*
X118401000Y-84051000D01*
X118401000Y-84051000D01*
G37*
G36*
X115901000Y-84051000D02*
X114799000Y-84051000D01*
X114799000Y-83149000D01*
X115901000Y-83149000D01*
X115901000Y-84051000D01*
X115901000Y-84051000D01*
G37*
G36*
X112401000Y-84051000D02*
X111299000Y-84051000D01*
X111299000Y-83149000D01*
X112401000Y-83149000D01*
X112401000Y-84051000D01*
X112401000Y-84051000D01*
G37*
G36*
X109901000Y-84051000D02*
X108799000Y-84051000D01*
X108799000Y-83149000D01*
X109901000Y-83149000D01*
X109901000Y-84051000D01*
X109901000Y-84051000D01*
G37*
G36*
X106401000Y-84051000D02*
X105299000Y-84051000D01*
X105299000Y-83149000D01*
X106401000Y-83149000D01*
X106401000Y-84051000D01*
X106401000Y-84051000D01*
G37*
G36*
X103901000Y-84051000D02*
X102799000Y-84051000D01*
X102799000Y-83149000D01*
X103901000Y-83149000D01*
X103901000Y-84051000D01*
X103901000Y-84051000D01*
G37*
G36*
X100401000Y-84051000D02*
X99299000Y-84051000D01*
X99299000Y-83149000D01*
X100401000Y-83149000D01*
X100401000Y-84051000D01*
X100401000Y-84051000D01*
G37*
G36*
X97901000Y-84051000D02*
X96799000Y-84051000D01*
X96799000Y-83149000D01*
X97901000Y-83149000D01*
X97901000Y-84051000D01*
X97901000Y-84051000D01*
G37*
G36*
X94401000Y-84051000D02*
X93299000Y-84051000D01*
X93299000Y-83149000D01*
X94401000Y-83149000D01*
X94401000Y-84051000D01*
X94401000Y-84051000D01*
G37*
G36*
X91901000Y-84051000D02*
X90799000Y-84051000D01*
X90799000Y-83149000D01*
X91901000Y-83149000D01*
X91901000Y-84051000D01*
X91901000Y-84051000D01*
G37*
G36*
X88401000Y-84051000D02*
X87299000Y-84051000D01*
X87299000Y-83149000D01*
X88401000Y-83149000D01*
X88401000Y-84051000D01*
X88401000Y-84051000D01*
G37*
G36*
X85901000Y-84051000D02*
X84799000Y-84051000D01*
X84799000Y-83149000D01*
X85901000Y-83149000D01*
X85901000Y-84051000D01*
X85901000Y-84051000D01*
G37*
G36*
X82401000Y-84051000D02*
X81299000Y-84051000D01*
X81299000Y-83149000D01*
X82401000Y-83149000D01*
X82401000Y-84051000D01*
X82401000Y-84051000D01*
G37*
G36*
X79901000Y-84051000D02*
X78799000Y-84051000D01*
X78799000Y-83149000D01*
X79901000Y-83149000D01*
X79901000Y-84051000D01*
X79901000Y-84051000D01*
G37*
G36*
X76401000Y-84051000D02*
X75299000Y-84051000D01*
X75299000Y-83149000D01*
X76401000Y-83149000D01*
X76401000Y-84051000D01*
X76401000Y-84051000D01*
G37*
G36*
X73901000Y-84051000D02*
X72799000Y-84051000D01*
X72799000Y-83149000D01*
X73901000Y-83149000D01*
X73901000Y-84051000D01*
X73901000Y-84051000D01*
G37*
G36*
X70401000Y-84051000D02*
X69299000Y-84051000D01*
X69299000Y-83149000D01*
X70401000Y-83149000D01*
X70401000Y-84051000D01*
X70401000Y-84051000D01*
G37*
G36*
X67901000Y-84051000D02*
X66799000Y-84051000D01*
X66799000Y-83149000D01*
X67901000Y-83149000D01*
X67901000Y-84051000D01*
X67901000Y-84051000D01*
G37*
G36*
X64401000Y-84051000D02*
X63299000Y-84051000D01*
X63299000Y-83149000D01*
X64401000Y-83149000D01*
X64401000Y-84051000D01*
X64401000Y-84051000D01*
G37*
G36*
X61901000Y-84051000D02*
X60799000Y-84051000D01*
X60799000Y-83149000D01*
X61901000Y-83149000D01*
X61901000Y-84051000D01*
X61901000Y-84051000D01*
G37*
G36*
X58401000Y-84051000D02*
X57299000Y-84051000D01*
X57299000Y-83149000D01*
X58401000Y-83149000D01*
X58401000Y-84051000D01*
X58401000Y-84051000D01*
G37*
G36*
X55901000Y-84051000D02*
X54799000Y-84051000D01*
X54799000Y-83149000D01*
X55901000Y-83149000D01*
X55901000Y-84051000D01*
X55901000Y-84051000D01*
G37*
G36*
X103901000Y-79451000D02*
X102799000Y-79451000D01*
X102799000Y-78549000D01*
X103901000Y-78549000D01*
X103901000Y-79451000D01*
X103901000Y-79451000D01*
G37*
G36*
X55901000Y-79451000D02*
X54799000Y-79451000D01*
X54799000Y-78549000D01*
X55901000Y-78549000D01*
X55901000Y-79451000D01*
X55901000Y-79451000D01*
G37*
G36*
X58401000Y-79451000D02*
X57299000Y-79451000D01*
X57299000Y-78549000D01*
X58401000Y-78549000D01*
X58401000Y-79451000D01*
X58401000Y-79451000D01*
G37*
G36*
X61901000Y-79451000D02*
X60799000Y-79451000D01*
X60799000Y-78549000D01*
X61901000Y-78549000D01*
X61901000Y-79451000D01*
X61901000Y-79451000D01*
G37*
G36*
X64401000Y-79451000D02*
X63299000Y-79451000D01*
X63299000Y-78549000D01*
X64401000Y-78549000D01*
X64401000Y-79451000D01*
X64401000Y-79451000D01*
G37*
G36*
X244401000Y-79451000D02*
X243299000Y-79451000D01*
X243299000Y-78549000D01*
X244401000Y-78549000D01*
X244401000Y-79451000D01*
X244401000Y-79451000D01*
G37*
G36*
X67901000Y-79451000D02*
X66799000Y-79451000D01*
X66799000Y-78549000D01*
X67901000Y-78549000D01*
X67901000Y-79451000D01*
X67901000Y-79451000D01*
G37*
G36*
X70401000Y-79451000D02*
X69299000Y-79451000D01*
X69299000Y-78549000D01*
X70401000Y-78549000D01*
X70401000Y-79451000D01*
X70401000Y-79451000D01*
G37*
G36*
X241901000Y-79451000D02*
X240799000Y-79451000D01*
X240799000Y-78549000D01*
X241901000Y-78549000D01*
X241901000Y-79451000D01*
X241901000Y-79451000D01*
G37*
G36*
X73901000Y-79451000D02*
X72799000Y-79451000D01*
X72799000Y-78549000D01*
X73901000Y-78549000D01*
X73901000Y-79451000D01*
X73901000Y-79451000D01*
G37*
G36*
X76401000Y-79451000D02*
X75299000Y-79451000D01*
X75299000Y-78549000D01*
X76401000Y-78549000D01*
X76401000Y-79451000D01*
X76401000Y-79451000D01*
G37*
G36*
X79901000Y-79451000D02*
X78799000Y-79451000D01*
X78799000Y-78549000D01*
X79901000Y-78549000D01*
X79901000Y-79451000D01*
X79901000Y-79451000D01*
G37*
G36*
X82401000Y-79451000D02*
X81299000Y-79451000D01*
X81299000Y-78549000D01*
X82401000Y-78549000D01*
X82401000Y-79451000D01*
X82401000Y-79451000D01*
G37*
G36*
X238401000Y-79451000D02*
X237299000Y-79451000D01*
X237299000Y-78549000D01*
X238401000Y-78549000D01*
X238401000Y-79451000D01*
X238401000Y-79451000D01*
G37*
G36*
X85901000Y-79451000D02*
X84799000Y-79451000D01*
X84799000Y-78549000D01*
X85901000Y-78549000D01*
X85901000Y-79451000D01*
X85901000Y-79451000D01*
G37*
G36*
X88401000Y-79451000D02*
X87299000Y-79451000D01*
X87299000Y-78549000D01*
X88401000Y-78549000D01*
X88401000Y-79451000D01*
X88401000Y-79451000D01*
G37*
G36*
X235901000Y-79451000D02*
X234799000Y-79451000D01*
X234799000Y-78549000D01*
X235901000Y-78549000D01*
X235901000Y-79451000D01*
X235901000Y-79451000D01*
G37*
G36*
X91901000Y-79451000D02*
X90799000Y-79451000D01*
X90799000Y-78549000D01*
X91901000Y-78549000D01*
X91901000Y-79451000D01*
X91901000Y-79451000D01*
G37*
G36*
X94401000Y-79451000D02*
X93299000Y-79451000D01*
X93299000Y-78549000D01*
X94401000Y-78549000D01*
X94401000Y-79451000D01*
X94401000Y-79451000D01*
G37*
G36*
X97901000Y-79451000D02*
X96799000Y-79451000D01*
X96799000Y-78549000D01*
X97901000Y-78549000D01*
X97901000Y-79451000D01*
X97901000Y-79451000D01*
G37*
G36*
X100401000Y-79451000D02*
X99299000Y-79451000D01*
X99299000Y-78549000D01*
X100401000Y-78549000D01*
X100401000Y-79451000D01*
X100401000Y-79451000D01*
G37*
G36*
X232401000Y-79451000D02*
X231299000Y-79451000D01*
X231299000Y-78549000D01*
X232401000Y-78549000D01*
X232401000Y-79451000D01*
X232401000Y-79451000D01*
G37*
G36*
X106401000Y-79451000D02*
X105299000Y-79451000D01*
X105299000Y-78549000D01*
X106401000Y-78549000D01*
X106401000Y-79451000D01*
X106401000Y-79451000D01*
G37*
G36*
X109901000Y-79451000D02*
X108799000Y-79451000D01*
X108799000Y-78549000D01*
X109901000Y-78549000D01*
X109901000Y-79451000D01*
X109901000Y-79451000D01*
G37*
G36*
X229901000Y-79451000D02*
X228799000Y-79451000D01*
X228799000Y-78549000D01*
X229901000Y-78549000D01*
X229901000Y-79451000D01*
X229901000Y-79451000D01*
G37*
G36*
X112401000Y-79451000D02*
X111299000Y-79451000D01*
X111299000Y-78549000D01*
X112401000Y-78549000D01*
X112401000Y-79451000D01*
X112401000Y-79451000D01*
G37*
G36*
X115901000Y-79451000D02*
X114799000Y-79451000D01*
X114799000Y-78549000D01*
X115901000Y-78549000D01*
X115901000Y-79451000D01*
X115901000Y-79451000D01*
G37*
G36*
X118401000Y-79451000D02*
X117299000Y-79451000D01*
X117299000Y-78549000D01*
X118401000Y-78549000D01*
X118401000Y-79451000D01*
X118401000Y-79451000D01*
G37*
G36*
X121901000Y-79451000D02*
X120799000Y-79451000D01*
X120799000Y-78549000D01*
X121901000Y-78549000D01*
X121901000Y-79451000D01*
X121901000Y-79451000D01*
G37*
G36*
X226401000Y-79451000D02*
X225299000Y-79451000D01*
X225299000Y-78549000D01*
X226401000Y-78549000D01*
X226401000Y-79451000D01*
X226401000Y-79451000D01*
G37*
G36*
X124401000Y-79451000D02*
X123299000Y-79451000D01*
X123299000Y-78549000D01*
X124401000Y-78549000D01*
X124401000Y-79451000D01*
X124401000Y-79451000D01*
G37*
G36*
X127901000Y-79451000D02*
X126799000Y-79451000D01*
X126799000Y-78549000D01*
X127901000Y-78549000D01*
X127901000Y-79451000D01*
X127901000Y-79451000D01*
G37*
G36*
X223901000Y-79451000D02*
X222799000Y-79451000D01*
X222799000Y-78549000D01*
X223901000Y-78549000D01*
X223901000Y-79451000D01*
X223901000Y-79451000D01*
G37*
G36*
X130401000Y-79451000D02*
X129299000Y-79451000D01*
X129299000Y-78549000D01*
X130401000Y-78549000D01*
X130401000Y-79451000D01*
X130401000Y-79451000D01*
G37*
G36*
X133901000Y-79451000D02*
X132799000Y-79451000D01*
X132799000Y-78549000D01*
X133901000Y-78549000D01*
X133901000Y-79451000D01*
X133901000Y-79451000D01*
G37*
G36*
X136401000Y-79451000D02*
X135299000Y-79451000D01*
X135299000Y-78549000D01*
X136401000Y-78549000D01*
X136401000Y-79451000D01*
X136401000Y-79451000D01*
G37*
G36*
X139901000Y-79451000D02*
X138799000Y-79451000D01*
X138799000Y-78549000D01*
X139901000Y-78549000D01*
X139901000Y-79451000D01*
X139901000Y-79451000D01*
G37*
G36*
X220401000Y-79451000D02*
X219299000Y-79451000D01*
X219299000Y-78549000D01*
X220401000Y-78549000D01*
X220401000Y-79451000D01*
X220401000Y-79451000D01*
G37*
G36*
X142401000Y-79451000D02*
X141299000Y-79451000D01*
X141299000Y-78549000D01*
X142401000Y-78549000D01*
X142401000Y-79451000D01*
X142401000Y-79451000D01*
G37*
G36*
X145901000Y-79451000D02*
X144799000Y-79451000D01*
X144799000Y-78549000D01*
X145901000Y-78549000D01*
X145901000Y-79451000D01*
X145901000Y-79451000D01*
G37*
G36*
X217901000Y-79451000D02*
X216799000Y-79451000D01*
X216799000Y-78549000D01*
X217901000Y-78549000D01*
X217901000Y-79451000D01*
X217901000Y-79451000D01*
G37*
G36*
X148401000Y-79451000D02*
X147299000Y-79451000D01*
X147299000Y-78549000D01*
X148401000Y-78549000D01*
X148401000Y-79451000D01*
X148401000Y-79451000D01*
G37*
G36*
X151901000Y-79451000D02*
X150799000Y-79451000D01*
X150799000Y-78549000D01*
X151901000Y-78549000D01*
X151901000Y-79451000D01*
X151901000Y-79451000D01*
G37*
G36*
X214401000Y-79451000D02*
X213299000Y-79451000D01*
X213299000Y-78549000D01*
X214401000Y-78549000D01*
X214401000Y-79451000D01*
X214401000Y-79451000D01*
G37*
G36*
X211901000Y-79451000D02*
X210799000Y-79451000D01*
X210799000Y-78549000D01*
X211901000Y-78549000D01*
X211901000Y-79451000D01*
X211901000Y-79451000D01*
G37*
G36*
X208401000Y-79451000D02*
X207299000Y-79451000D01*
X207299000Y-78549000D01*
X208401000Y-78549000D01*
X208401000Y-79451000D01*
X208401000Y-79451000D01*
G37*
G36*
X205901000Y-79451000D02*
X204799000Y-79451000D01*
X204799000Y-78549000D01*
X205901000Y-78549000D01*
X205901000Y-79451000D01*
X205901000Y-79451000D01*
G37*
G36*
X202401000Y-79451000D02*
X201299000Y-79451000D01*
X201299000Y-78549000D01*
X202401000Y-78549000D01*
X202401000Y-79451000D01*
X202401000Y-79451000D01*
G37*
G36*
X199901000Y-79451000D02*
X198799000Y-79451000D01*
X198799000Y-78549000D01*
X199901000Y-78549000D01*
X199901000Y-79451000D01*
X199901000Y-79451000D01*
G37*
G36*
X196401000Y-79451000D02*
X195299000Y-79451000D01*
X195299000Y-78549000D01*
X196401000Y-78549000D01*
X196401000Y-79451000D01*
X196401000Y-79451000D01*
G37*
G36*
X193901000Y-79451000D02*
X192799000Y-79451000D01*
X192799000Y-78549000D01*
X193901000Y-78549000D01*
X193901000Y-79451000D01*
X193901000Y-79451000D01*
G37*
G36*
X190401000Y-79451000D02*
X189299000Y-79451000D01*
X189299000Y-78549000D01*
X190401000Y-78549000D01*
X190401000Y-79451000D01*
X190401000Y-79451000D01*
G37*
G36*
X187901000Y-79451000D02*
X186799000Y-79451000D01*
X186799000Y-78549000D01*
X187901000Y-78549000D01*
X187901000Y-79451000D01*
X187901000Y-79451000D01*
G37*
G36*
X184401000Y-79451000D02*
X183299000Y-79451000D01*
X183299000Y-78549000D01*
X184401000Y-78549000D01*
X184401000Y-79451000D01*
X184401000Y-79451000D01*
G37*
G36*
X181901000Y-79451000D02*
X180799000Y-79451000D01*
X180799000Y-78549000D01*
X181901000Y-78549000D01*
X181901000Y-79451000D01*
X181901000Y-79451000D01*
G37*
G36*
X178401000Y-79451000D02*
X177299000Y-79451000D01*
X177299000Y-78549000D01*
X178401000Y-78549000D01*
X178401000Y-79451000D01*
X178401000Y-79451000D01*
G37*
G36*
X175901000Y-79451000D02*
X174799000Y-79451000D01*
X174799000Y-78549000D01*
X175901000Y-78549000D01*
X175901000Y-79451000D01*
X175901000Y-79451000D01*
G37*
G36*
X172401000Y-79451000D02*
X171299000Y-79451000D01*
X171299000Y-78549000D01*
X172401000Y-78549000D01*
X172401000Y-79451000D01*
X172401000Y-79451000D01*
G37*
G36*
X169901000Y-79451000D02*
X168799000Y-79451000D01*
X168799000Y-78549000D01*
X169901000Y-78549000D01*
X169901000Y-79451000D01*
X169901000Y-79451000D01*
G37*
G36*
X166401000Y-79451000D02*
X165299000Y-79451000D01*
X165299000Y-78549000D01*
X166401000Y-78549000D01*
X166401000Y-79451000D01*
X166401000Y-79451000D01*
G37*
G36*
X163901000Y-79451000D02*
X162799000Y-79451000D01*
X162799000Y-78549000D01*
X163901000Y-78549000D01*
X163901000Y-79451000D01*
X163901000Y-79451000D01*
G37*
G36*
X160401000Y-79451000D02*
X159299000Y-79451000D01*
X159299000Y-78549000D01*
X160401000Y-78549000D01*
X160401000Y-79451000D01*
X160401000Y-79451000D01*
G37*
G36*
X157901000Y-79451000D02*
X156799000Y-79451000D01*
X156799000Y-78549000D01*
X157901000Y-78549000D01*
X157901000Y-79451000D01*
X157901000Y-79451000D01*
G37*
G36*
X154401000Y-79451000D02*
X153299000Y-79451000D01*
X153299000Y-78549000D01*
X154401000Y-78549000D01*
X154401000Y-79451000D01*
X154401000Y-79451000D01*
G37*
G36*
X154401000Y-78051000D02*
X153299000Y-78051000D01*
X153299000Y-77149000D01*
X154401000Y-77149000D01*
X154401000Y-78051000D01*
X154401000Y-78051000D01*
G37*
G36*
X244401000Y-78051000D02*
X243299000Y-78051000D01*
X243299000Y-77149000D01*
X244401000Y-77149000D01*
X244401000Y-78051000D01*
X244401000Y-78051000D01*
G37*
G36*
X241901000Y-78051000D02*
X240799000Y-78051000D01*
X240799000Y-77149000D01*
X241901000Y-77149000D01*
X241901000Y-78051000D01*
X241901000Y-78051000D01*
G37*
G36*
X238401000Y-78051000D02*
X237299000Y-78051000D01*
X237299000Y-77149000D01*
X238401000Y-77149000D01*
X238401000Y-78051000D01*
X238401000Y-78051000D01*
G37*
G36*
X235901000Y-78051000D02*
X234799000Y-78051000D01*
X234799000Y-77149000D01*
X235901000Y-77149000D01*
X235901000Y-78051000D01*
X235901000Y-78051000D01*
G37*
G36*
X151901000Y-78051000D02*
X150799000Y-78051000D01*
X150799000Y-77149000D01*
X151901000Y-77149000D01*
X151901000Y-78051000D01*
X151901000Y-78051000D01*
G37*
G36*
X232401000Y-78051000D02*
X231299000Y-78051000D01*
X231299000Y-77149000D01*
X232401000Y-77149000D01*
X232401000Y-78051000D01*
X232401000Y-78051000D01*
G37*
G36*
X229901000Y-78051000D02*
X228799000Y-78051000D01*
X228799000Y-77149000D01*
X229901000Y-77149000D01*
X229901000Y-78051000D01*
X229901000Y-78051000D01*
G37*
G36*
X160401000Y-78051000D02*
X159299000Y-78051000D01*
X159299000Y-77149000D01*
X160401000Y-77149000D01*
X160401000Y-78051000D01*
X160401000Y-78051000D01*
G37*
G36*
X226401000Y-78051000D02*
X225299000Y-78051000D01*
X225299000Y-77149000D01*
X226401000Y-77149000D01*
X226401000Y-78051000D01*
X226401000Y-78051000D01*
G37*
G36*
X223901000Y-78051000D02*
X222799000Y-78051000D01*
X222799000Y-77149000D01*
X223901000Y-77149000D01*
X223901000Y-78051000D01*
X223901000Y-78051000D01*
G37*
G36*
X157901000Y-78051000D02*
X156799000Y-78051000D01*
X156799000Y-77149000D01*
X157901000Y-77149000D01*
X157901000Y-78051000D01*
X157901000Y-78051000D01*
G37*
G36*
X220401000Y-78051000D02*
X219299000Y-78051000D01*
X219299000Y-77149000D01*
X220401000Y-77149000D01*
X220401000Y-78051000D01*
X220401000Y-78051000D01*
G37*
G36*
X217901000Y-78051000D02*
X216799000Y-78051000D01*
X216799000Y-77149000D01*
X217901000Y-77149000D01*
X217901000Y-78051000D01*
X217901000Y-78051000D01*
G37*
G36*
X166401000Y-78051000D02*
X165299000Y-78051000D01*
X165299000Y-77149000D01*
X166401000Y-77149000D01*
X166401000Y-78051000D01*
X166401000Y-78051000D01*
G37*
G36*
X214401000Y-78051000D02*
X213299000Y-78051000D01*
X213299000Y-77149000D01*
X214401000Y-77149000D01*
X214401000Y-78051000D01*
X214401000Y-78051000D01*
G37*
G36*
X211901000Y-78051000D02*
X210799000Y-78051000D01*
X210799000Y-77149000D01*
X211901000Y-77149000D01*
X211901000Y-78051000D01*
X211901000Y-78051000D01*
G37*
G36*
X163901000Y-78051000D02*
X162799000Y-78051000D01*
X162799000Y-77149000D01*
X163901000Y-77149000D01*
X163901000Y-78051000D01*
X163901000Y-78051000D01*
G37*
G36*
X208401000Y-78051000D02*
X207299000Y-78051000D01*
X207299000Y-77149000D01*
X208401000Y-77149000D01*
X208401000Y-78051000D01*
X208401000Y-78051000D01*
G37*
G36*
X205901000Y-78051000D02*
X204799000Y-78051000D01*
X204799000Y-77149000D01*
X205901000Y-77149000D01*
X205901000Y-78051000D01*
X205901000Y-78051000D01*
G37*
G36*
X172401000Y-78051000D02*
X171299000Y-78051000D01*
X171299000Y-77149000D01*
X172401000Y-77149000D01*
X172401000Y-78051000D01*
X172401000Y-78051000D01*
G37*
G36*
X202401000Y-78051000D02*
X201299000Y-78051000D01*
X201299000Y-77149000D01*
X202401000Y-77149000D01*
X202401000Y-78051000D01*
X202401000Y-78051000D01*
G37*
G36*
X199901000Y-78051000D02*
X198799000Y-78051000D01*
X198799000Y-77149000D01*
X199901000Y-77149000D01*
X199901000Y-78051000D01*
X199901000Y-78051000D01*
G37*
G36*
X169901000Y-78051000D02*
X168799000Y-78051000D01*
X168799000Y-77149000D01*
X169901000Y-77149000D01*
X169901000Y-78051000D01*
X169901000Y-78051000D01*
G37*
G36*
X196401000Y-78051000D02*
X195299000Y-78051000D01*
X195299000Y-77149000D01*
X196401000Y-77149000D01*
X196401000Y-78051000D01*
X196401000Y-78051000D01*
G37*
G36*
X193901000Y-78051000D02*
X192799000Y-78051000D01*
X192799000Y-77149000D01*
X193901000Y-77149000D01*
X193901000Y-78051000D01*
X193901000Y-78051000D01*
G37*
G36*
X178401000Y-78051000D02*
X177299000Y-78051000D01*
X177299000Y-77149000D01*
X178401000Y-77149000D01*
X178401000Y-78051000D01*
X178401000Y-78051000D01*
G37*
G36*
X190401000Y-78051000D02*
X189299000Y-78051000D01*
X189299000Y-77149000D01*
X190401000Y-77149000D01*
X190401000Y-78051000D01*
X190401000Y-78051000D01*
G37*
G36*
X187901000Y-78051000D02*
X186799000Y-78051000D01*
X186799000Y-77149000D01*
X187901000Y-77149000D01*
X187901000Y-78051000D01*
X187901000Y-78051000D01*
G37*
G36*
X175901000Y-78051000D02*
X174799000Y-78051000D01*
X174799000Y-77149000D01*
X175901000Y-77149000D01*
X175901000Y-78051000D01*
X175901000Y-78051000D01*
G37*
G36*
X184401000Y-78051000D02*
X183299000Y-78051000D01*
X183299000Y-77149000D01*
X184401000Y-77149000D01*
X184401000Y-78051000D01*
X184401000Y-78051000D01*
G37*
G36*
X181901000Y-78051000D02*
X180799000Y-78051000D01*
X180799000Y-77149000D01*
X181901000Y-77149000D01*
X181901000Y-78051000D01*
X181901000Y-78051000D01*
G37*
G36*
X148401000Y-78051000D02*
X147299000Y-78051000D01*
X147299000Y-77149000D01*
X148401000Y-77149000D01*
X148401000Y-78051000D01*
X148401000Y-78051000D01*
G37*
G36*
X145901000Y-78051000D02*
X144799000Y-78051000D01*
X144799000Y-77149000D01*
X145901000Y-77149000D01*
X145901000Y-78051000D01*
X145901000Y-78051000D01*
G37*
G36*
X142401000Y-78051000D02*
X141299000Y-78051000D01*
X141299000Y-77149000D01*
X142401000Y-77149000D01*
X142401000Y-78051000D01*
X142401000Y-78051000D01*
G37*
G36*
X139901000Y-78051000D02*
X138799000Y-78051000D01*
X138799000Y-77149000D01*
X139901000Y-77149000D01*
X139901000Y-78051000D01*
X139901000Y-78051000D01*
G37*
G36*
X136401000Y-78051000D02*
X135299000Y-78051000D01*
X135299000Y-77149000D01*
X136401000Y-77149000D01*
X136401000Y-78051000D01*
X136401000Y-78051000D01*
G37*
G36*
X133901000Y-78051000D02*
X132799000Y-78051000D01*
X132799000Y-77149000D01*
X133901000Y-77149000D01*
X133901000Y-78051000D01*
X133901000Y-78051000D01*
G37*
G36*
X130401000Y-78051000D02*
X129299000Y-78051000D01*
X129299000Y-77149000D01*
X130401000Y-77149000D01*
X130401000Y-78051000D01*
X130401000Y-78051000D01*
G37*
G36*
X127901000Y-78051000D02*
X126799000Y-78051000D01*
X126799000Y-77149000D01*
X127901000Y-77149000D01*
X127901000Y-78051000D01*
X127901000Y-78051000D01*
G37*
G36*
X124401000Y-78051000D02*
X123299000Y-78051000D01*
X123299000Y-77149000D01*
X124401000Y-77149000D01*
X124401000Y-78051000D01*
X124401000Y-78051000D01*
G37*
G36*
X121901000Y-78051000D02*
X120799000Y-78051000D01*
X120799000Y-77149000D01*
X121901000Y-77149000D01*
X121901000Y-78051000D01*
X121901000Y-78051000D01*
G37*
G36*
X118401000Y-78051000D02*
X117299000Y-78051000D01*
X117299000Y-77149000D01*
X118401000Y-77149000D01*
X118401000Y-78051000D01*
X118401000Y-78051000D01*
G37*
G36*
X115901000Y-78051000D02*
X114799000Y-78051000D01*
X114799000Y-77149000D01*
X115901000Y-77149000D01*
X115901000Y-78051000D01*
X115901000Y-78051000D01*
G37*
G36*
X112401000Y-78051000D02*
X111299000Y-78051000D01*
X111299000Y-77149000D01*
X112401000Y-77149000D01*
X112401000Y-78051000D01*
X112401000Y-78051000D01*
G37*
G36*
X109901000Y-78051000D02*
X108799000Y-78051000D01*
X108799000Y-77149000D01*
X109901000Y-77149000D01*
X109901000Y-78051000D01*
X109901000Y-78051000D01*
G37*
G36*
X106401000Y-78051000D02*
X105299000Y-78051000D01*
X105299000Y-77149000D01*
X106401000Y-77149000D01*
X106401000Y-78051000D01*
X106401000Y-78051000D01*
G37*
G36*
X103901000Y-78051000D02*
X102799000Y-78051000D01*
X102799000Y-77149000D01*
X103901000Y-77149000D01*
X103901000Y-78051000D01*
X103901000Y-78051000D01*
G37*
G36*
X100401000Y-78051000D02*
X99299000Y-78051000D01*
X99299000Y-77149000D01*
X100401000Y-77149000D01*
X100401000Y-78051000D01*
X100401000Y-78051000D01*
G37*
G36*
X97901000Y-78051000D02*
X96799000Y-78051000D01*
X96799000Y-77149000D01*
X97901000Y-77149000D01*
X97901000Y-78051000D01*
X97901000Y-78051000D01*
G37*
G36*
X94401000Y-78051000D02*
X93299000Y-78051000D01*
X93299000Y-77149000D01*
X94401000Y-77149000D01*
X94401000Y-78051000D01*
X94401000Y-78051000D01*
G37*
G36*
X91901000Y-78051000D02*
X90799000Y-78051000D01*
X90799000Y-77149000D01*
X91901000Y-77149000D01*
X91901000Y-78051000D01*
X91901000Y-78051000D01*
G37*
G36*
X88401000Y-78051000D02*
X87299000Y-78051000D01*
X87299000Y-77149000D01*
X88401000Y-77149000D01*
X88401000Y-78051000D01*
X88401000Y-78051000D01*
G37*
G36*
X85901000Y-78051000D02*
X84799000Y-78051000D01*
X84799000Y-77149000D01*
X85901000Y-77149000D01*
X85901000Y-78051000D01*
X85901000Y-78051000D01*
G37*
G36*
X82401000Y-78051000D02*
X81299000Y-78051000D01*
X81299000Y-77149000D01*
X82401000Y-77149000D01*
X82401000Y-78051000D01*
X82401000Y-78051000D01*
G37*
G36*
X79901000Y-78051000D02*
X78799000Y-78051000D01*
X78799000Y-77149000D01*
X79901000Y-77149000D01*
X79901000Y-78051000D01*
X79901000Y-78051000D01*
G37*
G36*
X76401000Y-78051000D02*
X75299000Y-78051000D01*
X75299000Y-77149000D01*
X76401000Y-77149000D01*
X76401000Y-78051000D01*
X76401000Y-78051000D01*
G37*
G36*
X73901000Y-78051000D02*
X72799000Y-78051000D01*
X72799000Y-77149000D01*
X73901000Y-77149000D01*
X73901000Y-78051000D01*
X73901000Y-78051000D01*
G37*
G36*
X70401000Y-78051000D02*
X69299000Y-78051000D01*
X69299000Y-77149000D01*
X70401000Y-77149000D01*
X70401000Y-78051000D01*
X70401000Y-78051000D01*
G37*
G36*
X67901000Y-78051000D02*
X66799000Y-78051000D01*
X66799000Y-77149000D01*
X67901000Y-77149000D01*
X67901000Y-78051000D01*
X67901000Y-78051000D01*
G37*
G36*
X64401000Y-78051000D02*
X63299000Y-78051000D01*
X63299000Y-77149000D01*
X64401000Y-77149000D01*
X64401000Y-78051000D01*
X64401000Y-78051000D01*
G37*
G36*
X61901000Y-78051000D02*
X60799000Y-78051000D01*
X60799000Y-77149000D01*
X61901000Y-77149000D01*
X61901000Y-78051000D01*
X61901000Y-78051000D01*
G37*
G36*
X58401000Y-78051000D02*
X57299000Y-78051000D01*
X57299000Y-77149000D01*
X58401000Y-77149000D01*
X58401000Y-78051000D01*
X58401000Y-78051000D01*
G37*
G36*
X55901000Y-78051000D02*
X54799000Y-78051000D01*
X54799000Y-77149000D01*
X55901000Y-77149000D01*
X55901000Y-78051000D01*
X55901000Y-78051000D01*
G37*
G36*
X241901000Y-73451000D02*
X240799000Y-73451000D01*
X240799000Y-72549000D01*
X241901000Y-72549000D01*
X241901000Y-73451000D01*
X241901000Y-73451000D01*
G37*
G36*
X244401000Y-73451000D02*
X243299000Y-73451000D01*
X243299000Y-72549000D01*
X244401000Y-72549000D01*
X244401000Y-73451000D01*
X244401000Y-73451000D01*
G37*
G36*
X238401000Y-73451000D02*
X237299000Y-73451000D01*
X237299000Y-72549000D01*
X238401000Y-72549000D01*
X238401000Y-73451000D01*
X238401000Y-73451000D01*
G37*
G36*
X235901000Y-73451000D02*
X234799000Y-73451000D01*
X234799000Y-72549000D01*
X235901000Y-72549000D01*
X235901000Y-73451000D01*
X235901000Y-73451000D01*
G37*
G36*
X232401000Y-73451000D02*
X231299000Y-73451000D01*
X231299000Y-72549000D01*
X232401000Y-72549000D01*
X232401000Y-73451000D01*
X232401000Y-73451000D01*
G37*
G36*
X229901000Y-73451000D02*
X228799000Y-73451000D01*
X228799000Y-72549000D01*
X229901000Y-72549000D01*
X229901000Y-73451000D01*
X229901000Y-73451000D01*
G37*
G36*
X226401000Y-73451000D02*
X225299000Y-73451000D01*
X225299000Y-72549000D01*
X226401000Y-72549000D01*
X226401000Y-73451000D01*
X226401000Y-73451000D01*
G37*
G36*
X223901000Y-73451000D02*
X222799000Y-73451000D01*
X222799000Y-72549000D01*
X223901000Y-72549000D01*
X223901000Y-73451000D01*
X223901000Y-73451000D01*
G37*
G36*
X220401000Y-73451000D02*
X219299000Y-73451000D01*
X219299000Y-72549000D01*
X220401000Y-72549000D01*
X220401000Y-73451000D01*
X220401000Y-73451000D01*
G37*
G36*
X217901000Y-73451000D02*
X216799000Y-73451000D01*
X216799000Y-72549000D01*
X217901000Y-72549000D01*
X217901000Y-73451000D01*
X217901000Y-73451000D01*
G37*
G36*
X214401000Y-73451000D02*
X213299000Y-73451000D01*
X213299000Y-72549000D01*
X214401000Y-72549000D01*
X214401000Y-73451000D01*
X214401000Y-73451000D01*
G37*
G36*
X211901000Y-73451000D02*
X210799000Y-73451000D01*
X210799000Y-72549000D01*
X211901000Y-72549000D01*
X211901000Y-73451000D01*
X211901000Y-73451000D01*
G37*
G36*
X208401000Y-73451000D02*
X207299000Y-73451000D01*
X207299000Y-72549000D01*
X208401000Y-72549000D01*
X208401000Y-73451000D01*
X208401000Y-73451000D01*
G37*
G36*
X205901000Y-73451000D02*
X204799000Y-73451000D01*
X204799000Y-72549000D01*
X205901000Y-72549000D01*
X205901000Y-73451000D01*
X205901000Y-73451000D01*
G37*
G36*
X202401000Y-73451000D02*
X201299000Y-73451000D01*
X201299000Y-72549000D01*
X202401000Y-72549000D01*
X202401000Y-73451000D01*
X202401000Y-73451000D01*
G37*
G36*
X199901000Y-73451000D02*
X198799000Y-73451000D01*
X198799000Y-72549000D01*
X199901000Y-72549000D01*
X199901000Y-73451000D01*
X199901000Y-73451000D01*
G37*
G36*
X196401000Y-73451000D02*
X195299000Y-73451000D01*
X195299000Y-72549000D01*
X196401000Y-72549000D01*
X196401000Y-73451000D01*
X196401000Y-73451000D01*
G37*
G36*
X193901000Y-73451000D02*
X192799000Y-73451000D01*
X192799000Y-72549000D01*
X193901000Y-72549000D01*
X193901000Y-73451000D01*
X193901000Y-73451000D01*
G37*
G36*
X190401000Y-73451000D02*
X189299000Y-73451000D01*
X189299000Y-72549000D01*
X190401000Y-72549000D01*
X190401000Y-73451000D01*
X190401000Y-73451000D01*
G37*
G36*
X187901000Y-73451000D02*
X186799000Y-73451000D01*
X186799000Y-72549000D01*
X187901000Y-72549000D01*
X187901000Y-73451000D01*
X187901000Y-73451000D01*
G37*
G36*
X184401000Y-73451000D02*
X183299000Y-73451000D01*
X183299000Y-72549000D01*
X184401000Y-72549000D01*
X184401000Y-73451000D01*
X184401000Y-73451000D01*
G37*
G36*
X181901000Y-73451000D02*
X180799000Y-73451000D01*
X180799000Y-72549000D01*
X181901000Y-72549000D01*
X181901000Y-73451000D01*
X181901000Y-73451000D01*
G37*
G36*
X178401000Y-73451000D02*
X177299000Y-73451000D01*
X177299000Y-72549000D01*
X178401000Y-72549000D01*
X178401000Y-73451000D01*
X178401000Y-73451000D01*
G37*
G36*
X175901000Y-73451000D02*
X174799000Y-73451000D01*
X174799000Y-72549000D01*
X175901000Y-72549000D01*
X175901000Y-73451000D01*
X175901000Y-73451000D01*
G37*
G36*
X172401000Y-73451000D02*
X171299000Y-73451000D01*
X171299000Y-72549000D01*
X172401000Y-72549000D01*
X172401000Y-73451000D01*
X172401000Y-73451000D01*
G37*
G36*
X169901000Y-73451000D02*
X168799000Y-73451000D01*
X168799000Y-72549000D01*
X169901000Y-72549000D01*
X169901000Y-73451000D01*
X169901000Y-73451000D01*
G37*
G36*
X166401000Y-73451000D02*
X165299000Y-73451000D01*
X165299000Y-72549000D01*
X166401000Y-72549000D01*
X166401000Y-73451000D01*
X166401000Y-73451000D01*
G37*
G36*
X163901000Y-73451000D02*
X162799000Y-73451000D01*
X162799000Y-72549000D01*
X163901000Y-72549000D01*
X163901000Y-73451000D01*
X163901000Y-73451000D01*
G37*
G36*
X160401000Y-73451000D02*
X159299000Y-73451000D01*
X159299000Y-72549000D01*
X160401000Y-72549000D01*
X160401000Y-73451000D01*
X160401000Y-73451000D01*
G37*
G36*
X157901000Y-73451000D02*
X156799000Y-73451000D01*
X156799000Y-72549000D01*
X157901000Y-72549000D01*
X157901000Y-73451000D01*
X157901000Y-73451000D01*
G37*
G36*
X154401000Y-73451000D02*
X153299000Y-73451000D01*
X153299000Y-72549000D01*
X154401000Y-72549000D01*
X154401000Y-73451000D01*
X154401000Y-73451000D01*
G37*
G36*
X151901000Y-73451000D02*
X150799000Y-73451000D01*
X150799000Y-72549000D01*
X151901000Y-72549000D01*
X151901000Y-73451000D01*
X151901000Y-73451000D01*
G37*
G36*
X148401000Y-73451000D02*
X147299000Y-73451000D01*
X147299000Y-72549000D01*
X148401000Y-72549000D01*
X148401000Y-73451000D01*
X148401000Y-73451000D01*
G37*
G36*
X145901000Y-73451000D02*
X144799000Y-73451000D01*
X144799000Y-72549000D01*
X145901000Y-72549000D01*
X145901000Y-73451000D01*
X145901000Y-73451000D01*
G37*
G36*
X142401000Y-73451000D02*
X141299000Y-73451000D01*
X141299000Y-72549000D01*
X142401000Y-72549000D01*
X142401000Y-73451000D01*
X142401000Y-73451000D01*
G37*
G36*
X139901000Y-73451000D02*
X138799000Y-73451000D01*
X138799000Y-72549000D01*
X139901000Y-72549000D01*
X139901000Y-73451000D01*
X139901000Y-73451000D01*
G37*
G36*
X136401000Y-73451000D02*
X135299000Y-73451000D01*
X135299000Y-72549000D01*
X136401000Y-72549000D01*
X136401000Y-73451000D01*
X136401000Y-73451000D01*
G37*
G36*
X133901000Y-73451000D02*
X132799000Y-73451000D01*
X132799000Y-72549000D01*
X133901000Y-72549000D01*
X133901000Y-73451000D01*
X133901000Y-73451000D01*
G37*
G36*
X130401000Y-73451000D02*
X129299000Y-73451000D01*
X129299000Y-72549000D01*
X130401000Y-72549000D01*
X130401000Y-73451000D01*
X130401000Y-73451000D01*
G37*
G36*
X127901000Y-73451000D02*
X126799000Y-73451000D01*
X126799000Y-72549000D01*
X127901000Y-72549000D01*
X127901000Y-73451000D01*
X127901000Y-73451000D01*
G37*
G36*
X124401000Y-73451000D02*
X123299000Y-73451000D01*
X123299000Y-72549000D01*
X124401000Y-72549000D01*
X124401000Y-73451000D01*
X124401000Y-73451000D01*
G37*
G36*
X121901000Y-73451000D02*
X120799000Y-73451000D01*
X120799000Y-72549000D01*
X121901000Y-72549000D01*
X121901000Y-73451000D01*
X121901000Y-73451000D01*
G37*
G36*
X118401000Y-73451000D02*
X117299000Y-73451000D01*
X117299000Y-72549000D01*
X118401000Y-72549000D01*
X118401000Y-73451000D01*
X118401000Y-73451000D01*
G37*
G36*
X115901000Y-73451000D02*
X114799000Y-73451000D01*
X114799000Y-72549000D01*
X115901000Y-72549000D01*
X115901000Y-73451000D01*
X115901000Y-73451000D01*
G37*
G36*
X112401000Y-73451000D02*
X111299000Y-73451000D01*
X111299000Y-72549000D01*
X112401000Y-72549000D01*
X112401000Y-73451000D01*
X112401000Y-73451000D01*
G37*
G36*
X109901000Y-73451000D02*
X108799000Y-73451000D01*
X108799000Y-72549000D01*
X109901000Y-72549000D01*
X109901000Y-73451000D01*
X109901000Y-73451000D01*
G37*
G36*
X106401000Y-73451000D02*
X105299000Y-73451000D01*
X105299000Y-72549000D01*
X106401000Y-72549000D01*
X106401000Y-73451000D01*
X106401000Y-73451000D01*
G37*
G36*
X103901000Y-73451000D02*
X102799000Y-73451000D01*
X102799000Y-72549000D01*
X103901000Y-72549000D01*
X103901000Y-73451000D01*
X103901000Y-73451000D01*
G37*
G36*
X100401000Y-73451000D02*
X99299000Y-73451000D01*
X99299000Y-72549000D01*
X100401000Y-72549000D01*
X100401000Y-73451000D01*
X100401000Y-73451000D01*
G37*
G36*
X97901000Y-73451000D02*
X96799000Y-73451000D01*
X96799000Y-72549000D01*
X97901000Y-72549000D01*
X97901000Y-73451000D01*
X97901000Y-73451000D01*
G37*
G36*
X94401000Y-73451000D02*
X93299000Y-73451000D01*
X93299000Y-72549000D01*
X94401000Y-72549000D01*
X94401000Y-73451000D01*
X94401000Y-73451000D01*
G37*
G36*
X91901000Y-73451000D02*
X90799000Y-73451000D01*
X90799000Y-72549000D01*
X91901000Y-72549000D01*
X91901000Y-73451000D01*
X91901000Y-73451000D01*
G37*
G36*
X88401000Y-73451000D02*
X87299000Y-73451000D01*
X87299000Y-72549000D01*
X88401000Y-72549000D01*
X88401000Y-73451000D01*
X88401000Y-73451000D01*
G37*
G36*
X85901000Y-73451000D02*
X84799000Y-73451000D01*
X84799000Y-72549000D01*
X85901000Y-72549000D01*
X85901000Y-73451000D01*
X85901000Y-73451000D01*
G37*
G36*
X82401000Y-73451000D02*
X81299000Y-73451000D01*
X81299000Y-72549000D01*
X82401000Y-72549000D01*
X82401000Y-73451000D01*
X82401000Y-73451000D01*
G37*
G36*
X79901000Y-73451000D02*
X78799000Y-73451000D01*
X78799000Y-72549000D01*
X79901000Y-72549000D01*
X79901000Y-73451000D01*
X79901000Y-73451000D01*
G37*
G36*
X76401000Y-73451000D02*
X75299000Y-73451000D01*
X75299000Y-72549000D01*
X76401000Y-72549000D01*
X76401000Y-73451000D01*
X76401000Y-73451000D01*
G37*
G36*
X73901000Y-73451000D02*
X72799000Y-73451000D01*
X72799000Y-72549000D01*
X73901000Y-72549000D01*
X73901000Y-73451000D01*
X73901000Y-73451000D01*
G37*
G36*
X70401000Y-73451000D02*
X69299000Y-73451000D01*
X69299000Y-72549000D01*
X70401000Y-72549000D01*
X70401000Y-73451000D01*
X70401000Y-73451000D01*
G37*
G36*
X67901000Y-73451000D02*
X66799000Y-73451000D01*
X66799000Y-72549000D01*
X67901000Y-72549000D01*
X67901000Y-73451000D01*
X67901000Y-73451000D01*
G37*
G36*
X64401000Y-73451000D02*
X63299000Y-73451000D01*
X63299000Y-72549000D01*
X64401000Y-72549000D01*
X64401000Y-73451000D01*
X64401000Y-73451000D01*
G37*
G36*
X61901000Y-73451000D02*
X60799000Y-73451000D01*
X60799000Y-72549000D01*
X61901000Y-72549000D01*
X61901000Y-73451000D01*
X61901000Y-73451000D01*
G37*
G36*
X58401000Y-73451000D02*
X57299000Y-73451000D01*
X57299000Y-72549000D01*
X58401000Y-72549000D01*
X58401000Y-73451000D01*
X58401000Y-73451000D01*
G37*
G36*
X55901000Y-73451000D02*
X54799000Y-73451000D01*
X54799000Y-72549000D01*
X55901000Y-72549000D01*
X55901000Y-73451000D01*
X55901000Y-73451000D01*
G37*
G36*
X58401000Y-72051000D02*
X57299000Y-72051000D01*
X57299000Y-71149000D01*
X58401000Y-71149000D01*
X58401000Y-72051000D01*
X58401000Y-72051000D01*
G37*
G36*
X55901000Y-72051000D02*
X54799000Y-72051000D01*
X54799000Y-71149000D01*
X55901000Y-71149000D01*
X55901000Y-72051000D01*
X55901000Y-72051000D01*
G37*
G36*
X61901000Y-72051000D02*
X60799000Y-72051000D01*
X60799000Y-71149000D01*
X61901000Y-71149000D01*
X61901000Y-72051000D01*
X61901000Y-72051000D01*
G37*
G36*
X64401000Y-72051000D02*
X63299000Y-72051000D01*
X63299000Y-71149000D01*
X64401000Y-71149000D01*
X64401000Y-72051000D01*
X64401000Y-72051000D01*
G37*
G36*
X67901000Y-72051000D02*
X66799000Y-72051000D01*
X66799000Y-71149000D01*
X67901000Y-71149000D01*
X67901000Y-72051000D01*
X67901000Y-72051000D01*
G37*
G36*
X70401000Y-72051000D02*
X69299000Y-72051000D01*
X69299000Y-71149000D01*
X70401000Y-71149000D01*
X70401000Y-72051000D01*
X70401000Y-72051000D01*
G37*
G36*
X73901000Y-72051000D02*
X72799000Y-72051000D01*
X72799000Y-71149000D01*
X73901000Y-71149000D01*
X73901000Y-72051000D01*
X73901000Y-72051000D01*
G37*
G36*
X76401000Y-72051000D02*
X75299000Y-72051000D01*
X75299000Y-71149000D01*
X76401000Y-71149000D01*
X76401000Y-72051000D01*
X76401000Y-72051000D01*
G37*
G36*
X79901000Y-72051000D02*
X78799000Y-72051000D01*
X78799000Y-71149000D01*
X79901000Y-71149000D01*
X79901000Y-72051000D01*
X79901000Y-72051000D01*
G37*
G36*
X82401000Y-72051000D02*
X81299000Y-72051000D01*
X81299000Y-71149000D01*
X82401000Y-71149000D01*
X82401000Y-72051000D01*
X82401000Y-72051000D01*
G37*
G36*
X85901000Y-72051000D02*
X84799000Y-72051000D01*
X84799000Y-71149000D01*
X85901000Y-71149000D01*
X85901000Y-72051000D01*
X85901000Y-72051000D01*
G37*
G36*
X88401000Y-72051000D02*
X87299000Y-72051000D01*
X87299000Y-71149000D01*
X88401000Y-71149000D01*
X88401000Y-72051000D01*
X88401000Y-72051000D01*
G37*
G36*
X91901000Y-72051000D02*
X90799000Y-72051000D01*
X90799000Y-71149000D01*
X91901000Y-71149000D01*
X91901000Y-72051000D01*
X91901000Y-72051000D01*
G37*
G36*
X94401000Y-72051000D02*
X93299000Y-72051000D01*
X93299000Y-71149000D01*
X94401000Y-71149000D01*
X94401000Y-72051000D01*
X94401000Y-72051000D01*
G37*
G36*
X97901000Y-72051000D02*
X96799000Y-72051000D01*
X96799000Y-71149000D01*
X97901000Y-71149000D01*
X97901000Y-72051000D01*
X97901000Y-72051000D01*
G37*
G36*
X100401000Y-72051000D02*
X99299000Y-72051000D01*
X99299000Y-71149000D01*
X100401000Y-71149000D01*
X100401000Y-72051000D01*
X100401000Y-72051000D01*
G37*
G36*
X103901000Y-72051000D02*
X102799000Y-72051000D01*
X102799000Y-71149000D01*
X103901000Y-71149000D01*
X103901000Y-72051000D01*
X103901000Y-72051000D01*
G37*
G36*
X106401000Y-72051000D02*
X105299000Y-72051000D01*
X105299000Y-71149000D01*
X106401000Y-71149000D01*
X106401000Y-72051000D01*
X106401000Y-72051000D01*
G37*
G36*
X109901000Y-72051000D02*
X108799000Y-72051000D01*
X108799000Y-71149000D01*
X109901000Y-71149000D01*
X109901000Y-72051000D01*
X109901000Y-72051000D01*
G37*
G36*
X112401000Y-72051000D02*
X111299000Y-72051000D01*
X111299000Y-71149000D01*
X112401000Y-71149000D01*
X112401000Y-72051000D01*
X112401000Y-72051000D01*
G37*
G36*
X115901000Y-72051000D02*
X114799000Y-72051000D01*
X114799000Y-71149000D01*
X115901000Y-71149000D01*
X115901000Y-72051000D01*
X115901000Y-72051000D01*
G37*
G36*
X118401000Y-72051000D02*
X117299000Y-72051000D01*
X117299000Y-71149000D01*
X118401000Y-71149000D01*
X118401000Y-72051000D01*
X118401000Y-72051000D01*
G37*
G36*
X121901000Y-72051000D02*
X120799000Y-72051000D01*
X120799000Y-71149000D01*
X121901000Y-71149000D01*
X121901000Y-72051000D01*
X121901000Y-72051000D01*
G37*
G36*
X124401000Y-72051000D02*
X123299000Y-72051000D01*
X123299000Y-71149000D01*
X124401000Y-71149000D01*
X124401000Y-72051000D01*
X124401000Y-72051000D01*
G37*
G36*
X127901000Y-72051000D02*
X126799000Y-72051000D01*
X126799000Y-71149000D01*
X127901000Y-71149000D01*
X127901000Y-72051000D01*
X127901000Y-72051000D01*
G37*
G36*
X130401000Y-72051000D02*
X129299000Y-72051000D01*
X129299000Y-71149000D01*
X130401000Y-71149000D01*
X130401000Y-72051000D01*
X130401000Y-72051000D01*
G37*
G36*
X133901000Y-72051000D02*
X132799000Y-72051000D01*
X132799000Y-71149000D01*
X133901000Y-71149000D01*
X133901000Y-72051000D01*
X133901000Y-72051000D01*
G37*
G36*
X136401000Y-72051000D02*
X135299000Y-72051000D01*
X135299000Y-71149000D01*
X136401000Y-71149000D01*
X136401000Y-72051000D01*
X136401000Y-72051000D01*
G37*
G36*
X139901000Y-72051000D02*
X138799000Y-72051000D01*
X138799000Y-71149000D01*
X139901000Y-71149000D01*
X139901000Y-72051000D01*
X139901000Y-72051000D01*
G37*
G36*
X142401000Y-72051000D02*
X141299000Y-72051000D01*
X141299000Y-71149000D01*
X142401000Y-71149000D01*
X142401000Y-72051000D01*
X142401000Y-72051000D01*
G37*
G36*
X145901000Y-72051000D02*
X144799000Y-72051000D01*
X144799000Y-71149000D01*
X145901000Y-71149000D01*
X145901000Y-72051000D01*
X145901000Y-72051000D01*
G37*
G36*
X148401000Y-72051000D02*
X147299000Y-72051000D01*
X147299000Y-71149000D01*
X148401000Y-71149000D01*
X148401000Y-72051000D01*
X148401000Y-72051000D01*
G37*
G36*
X151901000Y-72051000D02*
X150799000Y-72051000D01*
X150799000Y-71149000D01*
X151901000Y-71149000D01*
X151901000Y-72051000D01*
X151901000Y-72051000D01*
G37*
G36*
X154401000Y-72051000D02*
X153299000Y-72051000D01*
X153299000Y-71149000D01*
X154401000Y-71149000D01*
X154401000Y-72051000D01*
X154401000Y-72051000D01*
G37*
G36*
X157901000Y-72051000D02*
X156799000Y-72051000D01*
X156799000Y-71149000D01*
X157901000Y-71149000D01*
X157901000Y-72051000D01*
X157901000Y-72051000D01*
G37*
G36*
X160401000Y-72051000D02*
X159299000Y-72051000D01*
X159299000Y-71149000D01*
X160401000Y-71149000D01*
X160401000Y-72051000D01*
X160401000Y-72051000D01*
G37*
G36*
X163901000Y-72051000D02*
X162799000Y-72051000D01*
X162799000Y-71149000D01*
X163901000Y-71149000D01*
X163901000Y-72051000D01*
X163901000Y-72051000D01*
G37*
G36*
X166401000Y-72051000D02*
X165299000Y-72051000D01*
X165299000Y-71149000D01*
X166401000Y-71149000D01*
X166401000Y-72051000D01*
X166401000Y-72051000D01*
G37*
G36*
X169901000Y-72051000D02*
X168799000Y-72051000D01*
X168799000Y-71149000D01*
X169901000Y-71149000D01*
X169901000Y-72051000D01*
X169901000Y-72051000D01*
G37*
G36*
X172401000Y-72051000D02*
X171299000Y-72051000D01*
X171299000Y-71149000D01*
X172401000Y-71149000D01*
X172401000Y-72051000D01*
X172401000Y-72051000D01*
G37*
G36*
X175901000Y-72051000D02*
X174799000Y-72051000D01*
X174799000Y-71149000D01*
X175901000Y-71149000D01*
X175901000Y-72051000D01*
X175901000Y-72051000D01*
G37*
G36*
X178401000Y-72051000D02*
X177299000Y-72051000D01*
X177299000Y-71149000D01*
X178401000Y-71149000D01*
X178401000Y-72051000D01*
X178401000Y-72051000D01*
G37*
G36*
X181901000Y-72051000D02*
X180799000Y-72051000D01*
X180799000Y-71149000D01*
X181901000Y-71149000D01*
X181901000Y-72051000D01*
X181901000Y-72051000D01*
G37*
G36*
X184401000Y-72051000D02*
X183299000Y-72051000D01*
X183299000Y-71149000D01*
X184401000Y-71149000D01*
X184401000Y-72051000D01*
X184401000Y-72051000D01*
G37*
G36*
X187901000Y-72051000D02*
X186799000Y-72051000D01*
X186799000Y-71149000D01*
X187901000Y-71149000D01*
X187901000Y-72051000D01*
X187901000Y-72051000D01*
G37*
G36*
X190401000Y-72051000D02*
X189299000Y-72051000D01*
X189299000Y-71149000D01*
X190401000Y-71149000D01*
X190401000Y-72051000D01*
X190401000Y-72051000D01*
G37*
G36*
X193901000Y-72051000D02*
X192799000Y-72051000D01*
X192799000Y-71149000D01*
X193901000Y-71149000D01*
X193901000Y-72051000D01*
X193901000Y-72051000D01*
G37*
G36*
X196401000Y-72051000D02*
X195299000Y-72051000D01*
X195299000Y-71149000D01*
X196401000Y-71149000D01*
X196401000Y-72051000D01*
X196401000Y-72051000D01*
G37*
G36*
X199901000Y-72051000D02*
X198799000Y-72051000D01*
X198799000Y-71149000D01*
X199901000Y-71149000D01*
X199901000Y-72051000D01*
X199901000Y-72051000D01*
G37*
G36*
X202401000Y-72051000D02*
X201299000Y-72051000D01*
X201299000Y-71149000D01*
X202401000Y-71149000D01*
X202401000Y-72051000D01*
X202401000Y-72051000D01*
G37*
G36*
X205901000Y-72051000D02*
X204799000Y-72051000D01*
X204799000Y-71149000D01*
X205901000Y-71149000D01*
X205901000Y-72051000D01*
X205901000Y-72051000D01*
G37*
G36*
X208401000Y-72051000D02*
X207299000Y-72051000D01*
X207299000Y-71149000D01*
X208401000Y-71149000D01*
X208401000Y-72051000D01*
X208401000Y-72051000D01*
G37*
G36*
X211901000Y-72051000D02*
X210799000Y-72051000D01*
X210799000Y-71149000D01*
X211901000Y-71149000D01*
X211901000Y-72051000D01*
X211901000Y-72051000D01*
G37*
G36*
X214401000Y-72051000D02*
X213299000Y-72051000D01*
X213299000Y-71149000D01*
X214401000Y-71149000D01*
X214401000Y-72051000D01*
X214401000Y-72051000D01*
G37*
G36*
X217901000Y-72051000D02*
X216799000Y-72051000D01*
X216799000Y-71149000D01*
X217901000Y-71149000D01*
X217901000Y-72051000D01*
X217901000Y-72051000D01*
G37*
G36*
X220401000Y-72051000D02*
X219299000Y-72051000D01*
X219299000Y-71149000D01*
X220401000Y-71149000D01*
X220401000Y-72051000D01*
X220401000Y-72051000D01*
G37*
G36*
X223901000Y-72051000D02*
X222799000Y-72051000D01*
X222799000Y-71149000D01*
X223901000Y-71149000D01*
X223901000Y-72051000D01*
X223901000Y-72051000D01*
G37*
G36*
X226401000Y-72051000D02*
X225299000Y-72051000D01*
X225299000Y-71149000D01*
X226401000Y-71149000D01*
X226401000Y-72051000D01*
X226401000Y-72051000D01*
G37*
G36*
X229901000Y-72051000D02*
X228799000Y-72051000D01*
X228799000Y-71149000D01*
X229901000Y-71149000D01*
X229901000Y-72051000D01*
X229901000Y-72051000D01*
G37*
G36*
X232401000Y-72051000D02*
X231299000Y-72051000D01*
X231299000Y-71149000D01*
X232401000Y-71149000D01*
X232401000Y-72051000D01*
X232401000Y-72051000D01*
G37*
G36*
X235901000Y-72051000D02*
X234799000Y-72051000D01*
X234799000Y-71149000D01*
X235901000Y-71149000D01*
X235901000Y-72051000D01*
X235901000Y-72051000D01*
G37*
G36*
X238401000Y-72051000D02*
X237299000Y-72051000D01*
X237299000Y-71149000D01*
X238401000Y-71149000D01*
X238401000Y-72051000D01*
X238401000Y-72051000D01*
G37*
G36*
X241901000Y-72051000D02*
X240799000Y-72051000D01*
X240799000Y-71149000D01*
X241901000Y-71149000D01*
X241901000Y-72051000D01*
X241901000Y-72051000D01*
G37*
G36*
X244401000Y-72051000D02*
X243299000Y-72051000D01*
X243299000Y-71149000D01*
X244401000Y-71149000D01*
X244401000Y-72051000D01*
X244401000Y-72051000D01*
G37*
M02*
