G04 #@! TF.GenerationSoftware,KiCad,Pcbnew,(5.0.1-3-g963ef8bb5)*
G04 #@! TF.CreationDate,2019-06-17T09:36:16+02:00*
G04 #@! TF.ProjectId,cz19-badge,637A31392D62616467652E6B69636164,rev?*
G04 #@! TF.SameCoordinates,Original*
G04 #@! TF.FileFunction,Paste,Bot*
G04 #@! TF.FilePolarity,Positive*
%FSLAX46Y46*%
G04 Gerber Fmt 4.6, Leading zero omitted, Abs format (unit mm)*
G04 Created by KiCad (PCBNEW (5.0.1-3-g963ef8bb5)) date 2019 June 17, Monday 09:36:16*
%MOMM*%
%LPD*%
G01*
G04 APERTURE LIST*
%ADD10R,7.340000X6.350000*%
%ADD11C,0.100000*%
%ADD12C,1.600000*%
%ADD13C,1.250000*%
%ADD14R,0.600000X1.500000*%
%ADD15R,1.550000X1.300000*%
%ADD16R,1.380000X0.450000*%
%ADD17R,2.100000X1.475000*%
%ADD18R,1.900000X2.375000*%
%ADD19R,1.900000X1.175000*%
%ADD20R,1.500000X0.600000*%
%ADD21C,0.875000*%
%ADD22R,0.900000X0.800000*%
%ADD23R,5.000000X5.000000*%
%ADD24R,2.000000X0.900000*%
%ADD25R,0.900000X2.000000*%
%ADD26R,1.550000X0.600000*%
%ADD27R,0.950000X0.950000*%
%ADD28R,4.700000X3.430000*%
%ADD29R,4.700000X3.340000*%
%ADD30R,0.410000X1.600000*%
%ADD31C,0.850000*%
%ADD32R,1.500000X1.000000*%
%ADD33R,1.800000X1.000000*%
%ADD34R,1.840000X2.200000*%
%ADD35C,1.000000*%
%ADD36R,3.000000X1.000000*%
%ADD37R,0.650000X1.060000*%
G04 APERTURE END LIST*
D10*
G04 #@! TO.C,BT1*
X208880000Y-106120000D03*
X130220000Y-106120000D03*
G04 #@! TD*
D11*
G04 #@! TO.C,C6*
G36*
X194774504Y-90101204D02*
X194798773Y-90104804D01*
X194822571Y-90110765D01*
X194845671Y-90119030D01*
X194867849Y-90129520D01*
X194888893Y-90142133D01*
X194908598Y-90156747D01*
X194926777Y-90173223D01*
X194943253Y-90191402D01*
X194957867Y-90211107D01*
X194970480Y-90232151D01*
X194980970Y-90254329D01*
X194989235Y-90277429D01*
X194995196Y-90301227D01*
X194998796Y-90325496D01*
X195000000Y-90350000D01*
X195000000Y-91450000D01*
X194998796Y-91474504D01*
X194995196Y-91498773D01*
X194989235Y-91522571D01*
X194980970Y-91545671D01*
X194970480Y-91567849D01*
X194957867Y-91588893D01*
X194943253Y-91608598D01*
X194926777Y-91626777D01*
X194908598Y-91643253D01*
X194888893Y-91657867D01*
X194867849Y-91670480D01*
X194845671Y-91680970D01*
X194822571Y-91689235D01*
X194798773Y-91695196D01*
X194774504Y-91698796D01*
X194750000Y-91700000D01*
X192600000Y-91700000D01*
X192575496Y-91698796D01*
X192551227Y-91695196D01*
X192527429Y-91689235D01*
X192504329Y-91680970D01*
X192482151Y-91670480D01*
X192461107Y-91657867D01*
X192441402Y-91643253D01*
X192423223Y-91626777D01*
X192406747Y-91608598D01*
X192392133Y-91588893D01*
X192379520Y-91567849D01*
X192369030Y-91545671D01*
X192360765Y-91522571D01*
X192354804Y-91498773D01*
X192351204Y-91474504D01*
X192350000Y-91450000D01*
X192350000Y-90350000D01*
X192351204Y-90325496D01*
X192354804Y-90301227D01*
X192360765Y-90277429D01*
X192369030Y-90254329D01*
X192379520Y-90232151D01*
X192392133Y-90211107D01*
X192406747Y-90191402D01*
X192423223Y-90173223D01*
X192441402Y-90156747D01*
X192461107Y-90142133D01*
X192482151Y-90129520D01*
X192504329Y-90119030D01*
X192527429Y-90110765D01*
X192551227Y-90104804D01*
X192575496Y-90101204D01*
X192600000Y-90100000D01*
X194750000Y-90100000D01*
X194774504Y-90101204D01*
X194774504Y-90101204D01*
G37*
D12*
X193675000Y-90900000D03*
D11*
G36*
X191424504Y-90101204D02*
X191448773Y-90104804D01*
X191472571Y-90110765D01*
X191495671Y-90119030D01*
X191517849Y-90129520D01*
X191538893Y-90142133D01*
X191558598Y-90156747D01*
X191576777Y-90173223D01*
X191593253Y-90191402D01*
X191607867Y-90211107D01*
X191620480Y-90232151D01*
X191630970Y-90254329D01*
X191639235Y-90277429D01*
X191645196Y-90301227D01*
X191648796Y-90325496D01*
X191650000Y-90350000D01*
X191650000Y-91450000D01*
X191648796Y-91474504D01*
X191645196Y-91498773D01*
X191639235Y-91522571D01*
X191630970Y-91545671D01*
X191620480Y-91567849D01*
X191607867Y-91588893D01*
X191593253Y-91608598D01*
X191576777Y-91626777D01*
X191558598Y-91643253D01*
X191538893Y-91657867D01*
X191517849Y-91670480D01*
X191495671Y-91680970D01*
X191472571Y-91689235D01*
X191448773Y-91695196D01*
X191424504Y-91698796D01*
X191400000Y-91700000D01*
X189250000Y-91700000D01*
X189225496Y-91698796D01*
X189201227Y-91695196D01*
X189177429Y-91689235D01*
X189154329Y-91680970D01*
X189132151Y-91670480D01*
X189111107Y-91657867D01*
X189091402Y-91643253D01*
X189073223Y-91626777D01*
X189056747Y-91608598D01*
X189042133Y-91588893D01*
X189029520Y-91567849D01*
X189019030Y-91545671D01*
X189010765Y-91522571D01*
X189004804Y-91498773D01*
X189001204Y-91474504D01*
X189000000Y-91450000D01*
X189000000Y-90350000D01*
X189001204Y-90325496D01*
X189004804Y-90301227D01*
X189010765Y-90277429D01*
X189019030Y-90254329D01*
X189029520Y-90232151D01*
X189042133Y-90211107D01*
X189056747Y-90191402D01*
X189073223Y-90173223D01*
X189091402Y-90156747D01*
X189111107Y-90142133D01*
X189132151Y-90129520D01*
X189154329Y-90119030D01*
X189177429Y-90110765D01*
X189201227Y-90104804D01*
X189225496Y-90101204D01*
X189250000Y-90100000D01*
X191400000Y-90100000D01*
X191424504Y-90101204D01*
X191424504Y-90101204D01*
G37*
D12*
X190325000Y-90900000D03*
G04 #@! TD*
D11*
G04 #@! TO.C,C5*
G36*
X106999504Y-102176204D02*
X107023773Y-102179804D01*
X107047571Y-102185765D01*
X107070671Y-102194030D01*
X107092849Y-102204520D01*
X107113893Y-102217133D01*
X107133598Y-102231747D01*
X107151777Y-102248223D01*
X107168253Y-102266402D01*
X107182867Y-102286107D01*
X107195480Y-102307151D01*
X107205970Y-102329329D01*
X107214235Y-102352429D01*
X107220196Y-102376227D01*
X107223796Y-102400496D01*
X107225000Y-102425000D01*
X107225000Y-103175000D01*
X107223796Y-103199504D01*
X107220196Y-103223773D01*
X107214235Y-103247571D01*
X107205970Y-103270671D01*
X107195480Y-103292849D01*
X107182867Y-103313893D01*
X107168253Y-103333598D01*
X107151777Y-103351777D01*
X107133598Y-103368253D01*
X107113893Y-103382867D01*
X107092849Y-103395480D01*
X107070671Y-103405970D01*
X107047571Y-103414235D01*
X107023773Y-103420196D01*
X106999504Y-103423796D01*
X106975000Y-103425000D01*
X105725000Y-103425000D01*
X105700496Y-103423796D01*
X105676227Y-103420196D01*
X105652429Y-103414235D01*
X105629329Y-103405970D01*
X105607151Y-103395480D01*
X105586107Y-103382867D01*
X105566402Y-103368253D01*
X105548223Y-103351777D01*
X105531747Y-103333598D01*
X105517133Y-103313893D01*
X105504520Y-103292849D01*
X105494030Y-103270671D01*
X105485765Y-103247571D01*
X105479804Y-103223773D01*
X105476204Y-103199504D01*
X105475000Y-103175000D01*
X105475000Y-102425000D01*
X105476204Y-102400496D01*
X105479804Y-102376227D01*
X105485765Y-102352429D01*
X105494030Y-102329329D01*
X105504520Y-102307151D01*
X105517133Y-102286107D01*
X105531747Y-102266402D01*
X105548223Y-102248223D01*
X105566402Y-102231747D01*
X105586107Y-102217133D01*
X105607151Y-102204520D01*
X105629329Y-102194030D01*
X105652429Y-102185765D01*
X105676227Y-102179804D01*
X105700496Y-102176204D01*
X105725000Y-102175000D01*
X106975000Y-102175000D01*
X106999504Y-102176204D01*
X106999504Y-102176204D01*
G37*
D13*
X106350000Y-102800000D03*
D11*
G36*
X106999504Y-99376204D02*
X107023773Y-99379804D01*
X107047571Y-99385765D01*
X107070671Y-99394030D01*
X107092849Y-99404520D01*
X107113893Y-99417133D01*
X107133598Y-99431747D01*
X107151777Y-99448223D01*
X107168253Y-99466402D01*
X107182867Y-99486107D01*
X107195480Y-99507151D01*
X107205970Y-99529329D01*
X107214235Y-99552429D01*
X107220196Y-99576227D01*
X107223796Y-99600496D01*
X107225000Y-99625000D01*
X107225000Y-100375000D01*
X107223796Y-100399504D01*
X107220196Y-100423773D01*
X107214235Y-100447571D01*
X107205970Y-100470671D01*
X107195480Y-100492849D01*
X107182867Y-100513893D01*
X107168253Y-100533598D01*
X107151777Y-100551777D01*
X107133598Y-100568253D01*
X107113893Y-100582867D01*
X107092849Y-100595480D01*
X107070671Y-100605970D01*
X107047571Y-100614235D01*
X107023773Y-100620196D01*
X106999504Y-100623796D01*
X106975000Y-100625000D01*
X105725000Y-100625000D01*
X105700496Y-100623796D01*
X105676227Y-100620196D01*
X105652429Y-100614235D01*
X105629329Y-100605970D01*
X105607151Y-100595480D01*
X105586107Y-100582867D01*
X105566402Y-100568253D01*
X105548223Y-100551777D01*
X105531747Y-100533598D01*
X105517133Y-100513893D01*
X105504520Y-100492849D01*
X105494030Y-100470671D01*
X105485765Y-100447571D01*
X105479804Y-100423773D01*
X105476204Y-100399504D01*
X105475000Y-100375000D01*
X105475000Y-99625000D01*
X105476204Y-99600496D01*
X105479804Y-99576227D01*
X105485765Y-99552429D01*
X105494030Y-99529329D01*
X105504520Y-99507151D01*
X105517133Y-99486107D01*
X105531747Y-99466402D01*
X105548223Y-99448223D01*
X105566402Y-99431747D01*
X105586107Y-99417133D01*
X105607151Y-99404520D01*
X105629329Y-99394030D01*
X105652429Y-99385765D01*
X105676227Y-99379804D01*
X105700496Y-99376204D01*
X105725000Y-99375000D01*
X106975000Y-99375000D01*
X106999504Y-99376204D01*
X106999504Y-99376204D01*
G37*
D13*
X106350000Y-100000000D03*
G04 #@! TD*
D14*
G04 #@! TO.C,U7*
X144855000Y-93300000D03*
X146125000Y-93300000D03*
X147395000Y-93300000D03*
X148665000Y-93300000D03*
X149935000Y-93300000D03*
X151205000Y-93300000D03*
X152475000Y-93300000D03*
X153745000Y-93300000D03*
X153745000Y-87900000D03*
X152475000Y-87900000D03*
X151205000Y-87900000D03*
X149935000Y-87900000D03*
X148665000Y-87900000D03*
X147395000Y-87900000D03*
X146125000Y-87900000D03*
X144855000Y-87900000D03*
G04 #@! TD*
D15*
G04 #@! TO.C,SW6*
X240675000Y-96350000D03*
X232725000Y-96350000D03*
X240675000Y-100850000D03*
X232725000Y-100850000D03*
G04 #@! TD*
G04 #@! TO.C,SW5*
X240675000Y-85250000D03*
X232725000Y-85250000D03*
X240675000Y-89750000D03*
X232725000Y-89750000D03*
G04 #@! TD*
G04 #@! TO.C,SW4*
X78475000Y-91000000D03*
X70525000Y-91000000D03*
X78475000Y-95500000D03*
X70525000Y-95500000D03*
G04 #@! TD*
G04 #@! TO.C,SW3*
X64175000Y-91000000D03*
X56225000Y-91000000D03*
X64175000Y-95500000D03*
X56225000Y-95500000D03*
G04 #@! TD*
G04 #@! TO.C,SW2*
X71325000Y-98750000D03*
X63375000Y-98750000D03*
X71325000Y-103250000D03*
X63375000Y-103250000D03*
G04 #@! TD*
G04 #@! TO.C,SW1*
X71325000Y-83250000D03*
X63375000Y-83250000D03*
X71325000Y-87750000D03*
X63375000Y-87750000D03*
G04 #@! TD*
D16*
G04 #@! TO.C,J1*
X57710000Y-109760000D03*
X57710000Y-109110000D03*
X57710000Y-108460000D03*
X57710000Y-107810000D03*
X57710000Y-107160000D03*
D17*
X57350000Y-110922500D03*
X57350000Y-105997500D03*
D18*
X55050000Y-111370000D03*
X55050000Y-105550000D03*
D19*
X55050000Y-109300000D03*
X55050000Y-107620000D03*
G04 #@! TD*
D20*
G04 #@! TO.C,U8*
X61150000Y-71055000D03*
X61150000Y-72325000D03*
X61150000Y-73595000D03*
X61150000Y-74865000D03*
X61150000Y-76135000D03*
X61150000Y-77405000D03*
X61150000Y-78675000D03*
X61150000Y-79945000D03*
X55750000Y-79945000D03*
X55750000Y-78675000D03*
X55750000Y-77405000D03*
X55750000Y-76135000D03*
X55750000Y-74865000D03*
X55750000Y-73595000D03*
X55750000Y-72325000D03*
X55750000Y-71055000D03*
G04 #@! TD*
D11*
G04 #@! TO.C,R8*
G36*
X65977691Y-72551053D02*
X65998926Y-72554203D01*
X66019750Y-72559419D01*
X66039962Y-72566651D01*
X66059368Y-72575830D01*
X66077781Y-72586866D01*
X66095024Y-72599654D01*
X66110930Y-72614070D01*
X66125346Y-72629976D01*
X66138134Y-72647219D01*
X66149170Y-72665632D01*
X66158349Y-72685038D01*
X66165581Y-72705250D01*
X66170797Y-72726074D01*
X66173947Y-72747309D01*
X66175000Y-72768750D01*
X66175000Y-73206250D01*
X66173947Y-73227691D01*
X66170797Y-73248926D01*
X66165581Y-73269750D01*
X66158349Y-73289962D01*
X66149170Y-73309368D01*
X66138134Y-73327781D01*
X66125346Y-73345024D01*
X66110930Y-73360930D01*
X66095024Y-73375346D01*
X66077781Y-73388134D01*
X66059368Y-73399170D01*
X66039962Y-73408349D01*
X66019750Y-73415581D01*
X65998926Y-73420797D01*
X65977691Y-73423947D01*
X65956250Y-73425000D01*
X65443750Y-73425000D01*
X65422309Y-73423947D01*
X65401074Y-73420797D01*
X65380250Y-73415581D01*
X65360038Y-73408349D01*
X65340632Y-73399170D01*
X65322219Y-73388134D01*
X65304976Y-73375346D01*
X65289070Y-73360930D01*
X65274654Y-73345024D01*
X65261866Y-73327781D01*
X65250830Y-73309368D01*
X65241651Y-73289962D01*
X65234419Y-73269750D01*
X65229203Y-73248926D01*
X65226053Y-73227691D01*
X65225000Y-73206250D01*
X65225000Y-72768750D01*
X65226053Y-72747309D01*
X65229203Y-72726074D01*
X65234419Y-72705250D01*
X65241651Y-72685038D01*
X65250830Y-72665632D01*
X65261866Y-72647219D01*
X65274654Y-72629976D01*
X65289070Y-72614070D01*
X65304976Y-72599654D01*
X65322219Y-72586866D01*
X65340632Y-72575830D01*
X65360038Y-72566651D01*
X65380250Y-72559419D01*
X65401074Y-72554203D01*
X65422309Y-72551053D01*
X65443750Y-72550000D01*
X65956250Y-72550000D01*
X65977691Y-72551053D01*
X65977691Y-72551053D01*
G37*
D21*
X65700000Y-72987500D03*
D11*
G36*
X65977691Y-70976053D02*
X65998926Y-70979203D01*
X66019750Y-70984419D01*
X66039962Y-70991651D01*
X66059368Y-71000830D01*
X66077781Y-71011866D01*
X66095024Y-71024654D01*
X66110930Y-71039070D01*
X66125346Y-71054976D01*
X66138134Y-71072219D01*
X66149170Y-71090632D01*
X66158349Y-71110038D01*
X66165581Y-71130250D01*
X66170797Y-71151074D01*
X66173947Y-71172309D01*
X66175000Y-71193750D01*
X66175000Y-71631250D01*
X66173947Y-71652691D01*
X66170797Y-71673926D01*
X66165581Y-71694750D01*
X66158349Y-71714962D01*
X66149170Y-71734368D01*
X66138134Y-71752781D01*
X66125346Y-71770024D01*
X66110930Y-71785930D01*
X66095024Y-71800346D01*
X66077781Y-71813134D01*
X66059368Y-71824170D01*
X66039962Y-71833349D01*
X66019750Y-71840581D01*
X65998926Y-71845797D01*
X65977691Y-71848947D01*
X65956250Y-71850000D01*
X65443750Y-71850000D01*
X65422309Y-71848947D01*
X65401074Y-71845797D01*
X65380250Y-71840581D01*
X65360038Y-71833349D01*
X65340632Y-71824170D01*
X65322219Y-71813134D01*
X65304976Y-71800346D01*
X65289070Y-71785930D01*
X65274654Y-71770024D01*
X65261866Y-71752781D01*
X65250830Y-71734368D01*
X65241651Y-71714962D01*
X65234419Y-71694750D01*
X65229203Y-71673926D01*
X65226053Y-71652691D01*
X65225000Y-71631250D01*
X65225000Y-71193750D01*
X65226053Y-71172309D01*
X65229203Y-71151074D01*
X65234419Y-71130250D01*
X65241651Y-71110038D01*
X65250830Y-71090632D01*
X65261866Y-71072219D01*
X65274654Y-71054976D01*
X65289070Y-71039070D01*
X65304976Y-71024654D01*
X65322219Y-71011866D01*
X65340632Y-71000830D01*
X65360038Y-70991651D01*
X65380250Y-70984419D01*
X65401074Y-70979203D01*
X65422309Y-70976053D01*
X65443750Y-70975000D01*
X65956250Y-70975000D01*
X65977691Y-70976053D01*
X65977691Y-70976053D01*
G37*
D21*
X65700000Y-71412500D03*
G04 #@! TD*
D11*
G04 #@! TO.C,R15*
G36*
X109177691Y-72951053D02*
X109198926Y-72954203D01*
X109219750Y-72959419D01*
X109239962Y-72966651D01*
X109259368Y-72975830D01*
X109277781Y-72986866D01*
X109295024Y-72999654D01*
X109310930Y-73014070D01*
X109325346Y-73029976D01*
X109338134Y-73047219D01*
X109349170Y-73065632D01*
X109358349Y-73085038D01*
X109365581Y-73105250D01*
X109370797Y-73126074D01*
X109373947Y-73147309D01*
X109375000Y-73168750D01*
X109375000Y-73606250D01*
X109373947Y-73627691D01*
X109370797Y-73648926D01*
X109365581Y-73669750D01*
X109358349Y-73689962D01*
X109349170Y-73709368D01*
X109338134Y-73727781D01*
X109325346Y-73745024D01*
X109310930Y-73760930D01*
X109295024Y-73775346D01*
X109277781Y-73788134D01*
X109259368Y-73799170D01*
X109239962Y-73808349D01*
X109219750Y-73815581D01*
X109198926Y-73820797D01*
X109177691Y-73823947D01*
X109156250Y-73825000D01*
X108643750Y-73825000D01*
X108622309Y-73823947D01*
X108601074Y-73820797D01*
X108580250Y-73815581D01*
X108560038Y-73808349D01*
X108540632Y-73799170D01*
X108522219Y-73788134D01*
X108504976Y-73775346D01*
X108489070Y-73760930D01*
X108474654Y-73745024D01*
X108461866Y-73727781D01*
X108450830Y-73709368D01*
X108441651Y-73689962D01*
X108434419Y-73669750D01*
X108429203Y-73648926D01*
X108426053Y-73627691D01*
X108425000Y-73606250D01*
X108425000Y-73168750D01*
X108426053Y-73147309D01*
X108429203Y-73126074D01*
X108434419Y-73105250D01*
X108441651Y-73085038D01*
X108450830Y-73065632D01*
X108461866Y-73047219D01*
X108474654Y-73029976D01*
X108489070Y-73014070D01*
X108504976Y-72999654D01*
X108522219Y-72986866D01*
X108540632Y-72975830D01*
X108560038Y-72966651D01*
X108580250Y-72959419D01*
X108601074Y-72954203D01*
X108622309Y-72951053D01*
X108643750Y-72950000D01*
X109156250Y-72950000D01*
X109177691Y-72951053D01*
X109177691Y-72951053D01*
G37*
D21*
X108900000Y-73387500D03*
D11*
G36*
X109177691Y-71376053D02*
X109198926Y-71379203D01*
X109219750Y-71384419D01*
X109239962Y-71391651D01*
X109259368Y-71400830D01*
X109277781Y-71411866D01*
X109295024Y-71424654D01*
X109310930Y-71439070D01*
X109325346Y-71454976D01*
X109338134Y-71472219D01*
X109349170Y-71490632D01*
X109358349Y-71510038D01*
X109365581Y-71530250D01*
X109370797Y-71551074D01*
X109373947Y-71572309D01*
X109375000Y-71593750D01*
X109375000Y-72031250D01*
X109373947Y-72052691D01*
X109370797Y-72073926D01*
X109365581Y-72094750D01*
X109358349Y-72114962D01*
X109349170Y-72134368D01*
X109338134Y-72152781D01*
X109325346Y-72170024D01*
X109310930Y-72185930D01*
X109295024Y-72200346D01*
X109277781Y-72213134D01*
X109259368Y-72224170D01*
X109239962Y-72233349D01*
X109219750Y-72240581D01*
X109198926Y-72245797D01*
X109177691Y-72248947D01*
X109156250Y-72250000D01*
X108643750Y-72250000D01*
X108622309Y-72248947D01*
X108601074Y-72245797D01*
X108580250Y-72240581D01*
X108560038Y-72233349D01*
X108540632Y-72224170D01*
X108522219Y-72213134D01*
X108504976Y-72200346D01*
X108489070Y-72185930D01*
X108474654Y-72170024D01*
X108461866Y-72152781D01*
X108450830Y-72134368D01*
X108441651Y-72114962D01*
X108434419Y-72094750D01*
X108429203Y-72073926D01*
X108426053Y-72052691D01*
X108425000Y-72031250D01*
X108425000Y-71593750D01*
X108426053Y-71572309D01*
X108429203Y-71551074D01*
X108434419Y-71530250D01*
X108441651Y-71510038D01*
X108450830Y-71490632D01*
X108461866Y-71472219D01*
X108474654Y-71454976D01*
X108489070Y-71439070D01*
X108504976Y-71424654D01*
X108522219Y-71411866D01*
X108540632Y-71400830D01*
X108560038Y-71391651D01*
X108580250Y-71384419D01*
X108601074Y-71379203D01*
X108622309Y-71376053D01*
X108643750Y-71375000D01*
X109156250Y-71375000D01*
X109177691Y-71376053D01*
X109177691Y-71376053D01*
G37*
D21*
X108900000Y-71812500D03*
G04 #@! TD*
D11*
G04 #@! TO.C,R7*
G36*
X65977691Y-74126053D02*
X65998926Y-74129203D01*
X66019750Y-74134419D01*
X66039962Y-74141651D01*
X66059368Y-74150830D01*
X66077781Y-74161866D01*
X66095024Y-74174654D01*
X66110930Y-74189070D01*
X66125346Y-74204976D01*
X66138134Y-74222219D01*
X66149170Y-74240632D01*
X66158349Y-74260038D01*
X66165581Y-74280250D01*
X66170797Y-74301074D01*
X66173947Y-74322309D01*
X66175000Y-74343750D01*
X66175000Y-74781250D01*
X66173947Y-74802691D01*
X66170797Y-74823926D01*
X66165581Y-74844750D01*
X66158349Y-74864962D01*
X66149170Y-74884368D01*
X66138134Y-74902781D01*
X66125346Y-74920024D01*
X66110930Y-74935930D01*
X66095024Y-74950346D01*
X66077781Y-74963134D01*
X66059368Y-74974170D01*
X66039962Y-74983349D01*
X66019750Y-74990581D01*
X65998926Y-74995797D01*
X65977691Y-74998947D01*
X65956250Y-75000000D01*
X65443750Y-75000000D01*
X65422309Y-74998947D01*
X65401074Y-74995797D01*
X65380250Y-74990581D01*
X65360038Y-74983349D01*
X65340632Y-74974170D01*
X65322219Y-74963134D01*
X65304976Y-74950346D01*
X65289070Y-74935930D01*
X65274654Y-74920024D01*
X65261866Y-74902781D01*
X65250830Y-74884368D01*
X65241651Y-74864962D01*
X65234419Y-74844750D01*
X65229203Y-74823926D01*
X65226053Y-74802691D01*
X65225000Y-74781250D01*
X65225000Y-74343750D01*
X65226053Y-74322309D01*
X65229203Y-74301074D01*
X65234419Y-74280250D01*
X65241651Y-74260038D01*
X65250830Y-74240632D01*
X65261866Y-74222219D01*
X65274654Y-74204976D01*
X65289070Y-74189070D01*
X65304976Y-74174654D01*
X65322219Y-74161866D01*
X65340632Y-74150830D01*
X65360038Y-74141651D01*
X65380250Y-74134419D01*
X65401074Y-74129203D01*
X65422309Y-74126053D01*
X65443750Y-74125000D01*
X65956250Y-74125000D01*
X65977691Y-74126053D01*
X65977691Y-74126053D01*
G37*
D21*
X65700000Y-74562500D03*
D11*
G36*
X65977691Y-75701053D02*
X65998926Y-75704203D01*
X66019750Y-75709419D01*
X66039962Y-75716651D01*
X66059368Y-75725830D01*
X66077781Y-75736866D01*
X66095024Y-75749654D01*
X66110930Y-75764070D01*
X66125346Y-75779976D01*
X66138134Y-75797219D01*
X66149170Y-75815632D01*
X66158349Y-75835038D01*
X66165581Y-75855250D01*
X66170797Y-75876074D01*
X66173947Y-75897309D01*
X66175000Y-75918750D01*
X66175000Y-76356250D01*
X66173947Y-76377691D01*
X66170797Y-76398926D01*
X66165581Y-76419750D01*
X66158349Y-76439962D01*
X66149170Y-76459368D01*
X66138134Y-76477781D01*
X66125346Y-76495024D01*
X66110930Y-76510930D01*
X66095024Y-76525346D01*
X66077781Y-76538134D01*
X66059368Y-76549170D01*
X66039962Y-76558349D01*
X66019750Y-76565581D01*
X65998926Y-76570797D01*
X65977691Y-76573947D01*
X65956250Y-76575000D01*
X65443750Y-76575000D01*
X65422309Y-76573947D01*
X65401074Y-76570797D01*
X65380250Y-76565581D01*
X65360038Y-76558349D01*
X65340632Y-76549170D01*
X65322219Y-76538134D01*
X65304976Y-76525346D01*
X65289070Y-76510930D01*
X65274654Y-76495024D01*
X65261866Y-76477781D01*
X65250830Y-76459368D01*
X65241651Y-76439962D01*
X65234419Y-76419750D01*
X65229203Y-76398926D01*
X65226053Y-76377691D01*
X65225000Y-76356250D01*
X65225000Y-75918750D01*
X65226053Y-75897309D01*
X65229203Y-75876074D01*
X65234419Y-75855250D01*
X65241651Y-75835038D01*
X65250830Y-75815632D01*
X65261866Y-75797219D01*
X65274654Y-75779976D01*
X65289070Y-75764070D01*
X65304976Y-75749654D01*
X65322219Y-75736866D01*
X65340632Y-75725830D01*
X65360038Y-75716651D01*
X65380250Y-75709419D01*
X65401074Y-75704203D01*
X65422309Y-75701053D01*
X65443750Y-75700000D01*
X65956250Y-75700000D01*
X65977691Y-75701053D01*
X65977691Y-75701053D01*
G37*
D21*
X65700000Y-76137500D03*
G04 #@! TD*
D11*
G04 #@! TO.C,R16*
G36*
X82277691Y-87551053D02*
X82298926Y-87554203D01*
X82319750Y-87559419D01*
X82339962Y-87566651D01*
X82359368Y-87575830D01*
X82377781Y-87586866D01*
X82395024Y-87599654D01*
X82410930Y-87614070D01*
X82425346Y-87629976D01*
X82438134Y-87647219D01*
X82449170Y-87665632D01*
X82458349Y-87685038D01*
X82465581Y-87705250D01*
X82470797Y-87726074D01*
X82473947Y-87747309D01*
X82475000Y-87768750D01*
X82475000Y-88206250D01*
X82473947Y-88227691D01*
X82470797Y-88248926D01*
X82465581Y-88269750D01*
X82458349Y-88289962D01*
X82449170Y-88309368D01*
X82438134Y-88327781D01*
X82425346Y-88345024D01*
X82410930Y-88360930D01*
X82395024Y-88375346D01*
X82377781Y-88388134D01*
X82359368Y-88399170D01*
X82339962Y-88408349D01*
X82319750Y-88415581D01*
X82298926Y-88420797D01*
X82277691Y-88423947D01*
X82256250Y-88425000D01*
X81743750Y-88425000D01*
X81722309Y-88423947D01*
X81701074Y-88420797D01*
X81680250Y-88415581D01*
X81660038Y-88408349D01*
X81640632Y-88399170D01*
X81622219Y-88388134D01*
X81604976Y-88375346D01*
X81589070Y-88360930D01*
X81574654Y-88345024D01*
X81561866Y-88327781D01*
X81550830Y-88309368D01*
X81541651Y-88289962D01*
X81534419Y-88269750D01*
X81529203Y-88248926D01*
X81526053Y-88227691D01*
X81525000Y-88206250D01*
X81525000Y-87768750D01*
X81526053Y-87747309D01*
X81529203Y-87726074D01*
X81534419Y-87705250D01*
X81541651Y-87685038D01*
X81550830Y-87665632D01*
X81561866Y-87647219D01*
X81574654Y-87629976D01*
X81589070Y-87614070D01*
X81604976Y-87599654D01*
X81622219Y-87586866D01*
X81640632Y-87575830D01*
X81660038Y-87566651D01*
X81680250Y-87559419D01*
X81701074Y-87554203D01*
X81722309Y-87551053D01*
X81743750Y-87550000D01*
X82256250Y-87550000D01*
X82277691Y-87551053D01*
X82277691Y-87551053D01*
G37*
D21*
X82000000Y-87987500D03*
D11*
G36*
X82277691Y-85976053D02*
X82298926Y-85979203D01*
X82319750Y-85984419D01*
X82339962Y-85991651D01*
X82359368Y-86000830D01*
X82377781Y-86011866D01*
X82395024Y-86024654D01*
X82410930Y-86039070D01*
X82425346Y-86054976D01*
X82438134Y-86072219D01*
X82449170Y-86090632D01*
X82458349Y-86110038D01*
X82465581Y-86130250D01*
X82470797Y-86151074D01*
X82473947Y-86172309D01*
X82475000Y-86193750D01*
X82475000Y-86631250D01*
X82473947Y-86652691D01*
X82470797Y-86673926D01*
X82465581Y-86694750D01*
X82458349Y-86714962D01*
X82449170Y-86734368D01*
X82438134Y-86752781D01*
X82425346Y-86770024D01*
X82410930Y-86785930D01*
X82395024Y-86800346D01*
X82377781Y-86813134D01*
X82359368Y-86824170D01*
X82339962Y-86833349D01*
X82319750Y-86840581D01*
X82298926Y-86845797D01*
X82277691Y-86848947D01*
X82256250Y-86850000D01*
X81743750Y-86850000D01*
X81722309Y-86848947D01*
X81701074Y-86845797D01*
X81680250Y-86840581D01*
X81660038Y-86833349D01*
X81640632Y-86824170D01*
X81622219Y-86813134D01*
X81604976Y-86800346D01*
X81589070Y-86785930D01*
X81574654Y-86770024D01*
X81561866Y-86752781D01*
X81550830Y-86734368D01*
X81541651Y-86714962D01*
X81534419Y-86694750D01*
X81529203Y-86673926D01*
X81526053Y-86652691D01*
X81525000Y-86631250D01*
X81525000Y-86193750D01*
X81526053Y-86172309D01*
X81529203Y-86151074D01*
X81534419Y-86130250D01*
X81541651Y-86110038D01*
X81550830Y-86090632D01*
X81561866Y-86072219D01*
X81574654Y-86054976D01*
X81589070Y-86039070D01*
X81604976Y-86024654D01*
X81622219Y-86011866D01*
X81640632Y-86000830D01*
X81660038Y-85991651D01*
X81680250Y-85984419D01*
X81701074Y-85979203D01*
X81722309Y-85976053D01*
X81743750Y-85975000D01*
X82256250Y-85975000D01*
X82277691Y-85976053D01*
X82277691Y-85976053D01*
G37*
D21*
X82000000Y-86412500D03*
G04 #@! TD*
D22*
G04 #@! TO.C,Q1*
X67300000Y-76600000D03*
X67300000Y-74700000D03*
X69300000Y-75650000D03*
G04 #@! TD*
D11*
G04 #@! TO.C,C1*
G36*
X110727691Y-72951053D02*
X110748926Y-72954203D01*
X110769750Y-72959419D01*
X110789962Y-72966651D01*
X110809368Y-72975830D01*
X110827781Y-72986866D01*
X110845024Y-72999654D01*
X110860930Y-73014070D01*
X110875346Y-73029976D01*
X110888134Y-73047219D01*
X110899170Y-73065632D01*
X110908349Y-73085038D01*
X110915581Y-73105250D01*
X110920797Y-73126074D01*
X110923947Y-73147309D01*
X110925000Y-73168750D01*
X110925000Y-73606250D01*
X110923947Y-73627691D01*
X110920797Y-73648926D01*
X110915581Y-73669750D01*
X110908349Y-73689962D01*
X110899170Y-73709368D01*
X110888134Y-73727781D01*
X110875346Y-73745024D01*
X110860930Y-73760930D01*
X110845024Y-73775346D01*
X110827781Y-73788134D01*
X110809368Y-73799170D01*
X110789962Y-73808349D01*
X110769750Y-73815581D01*
X110748926Y-73820797D01*
X110727691Y-73823947D01*
X110706250Y-73825000D01*
X110193750Y-73825000D01*
X110172309Y-73823947D01*
X110151074Y-73820797D01*
X110130250Y-73815581D01*
X110110038Y-73808349D01*
X110090632Y-73799170D01*
X110072219Y-73788134D01*
X110054976Y-73775346D01*
X110039070Y-73760930D01*
X110024654Y-73745024D01*
X110011866Y-73727781D01*
X110000830Y-73709368D01*
X109991651Y-73689962D01*
X109984419Y-73669750D01*
X109979203Y-73648926D01*
X109976053Y-73627691D01*
X109975000Y-73606250D01*
X109975000Y-73168750D01*
X109976053Y-73147309D01*
X109979203Y-73126074D01*
X109984419Y-73105250D01*
X109991651Y-73085038D01*
X110000830Y-73065632D01*
X110011866Y-73047219D01*
X110024654Y-73029976D01*
X110039070Y-73014070D01*
X110054976Y-72999654D01*
X110072219Y-72986866D01*
X110090632Y-72975830D01*
X110110038Y-72966651D01*
X110130250Y-72959419D01*
X110151074Y-72954203D01*
X110172309Y-72951053D01*
X110193750Y-72950000D01*
X110706250Y-72950000D01*
X110727691Y-72951053D01*
X110727691Y-72951053D01*
G37*
D21*
X110450000Y-73387500D03*
D11*
G36*
X110727691Y-71376053D02*
X110748926Y-71379203D01*
X110769750Y-71384419D01*
X110789962Y-71391651D01*
X110809368Y-71400830D01*
X110827781Y-71411866D01*
X110845024Y-71424654D01*
X110860930Y-71439070D01*
X110875346Y-71454976D01*
X110888134Y-71472219D01*
X110899170Y-71490632D01*
X110908349Y-71510038D01*
X110915581Y-71530250D01*
X110920797Y-71551074D01*
X110923947Y-71572309D01*
X110925000Y-71593750D01*
X110925000Y-72031250D01*
X110923947Y-72052691D01*
X110920797Y-72073926D01*
X110915581Y-72094750D01*
X110908349Y-72114962D01*
X110899170Y-72134368D01*
X110888134Y-72152781D01*
X110875346Y-72170024D01*
X110860930Y-72185930D01*
X110845024Y-72200346D01*
X110827781Y-72213134D01*
X110809368Y-72224170D01*
X110789962Y-72233349D01*
X110769750Y-72240581D01*
X110748926Y-72245797D01*
X110727691Y-72248947D01*
X110706250Y-72250000D01*
X110193750Y-72250000D01*
X110172309Y-72248947D01*
X110151074Y-72245797D01*
X110130250Y-72240581D01*
X110110038Y-72233349D01*
X110090632Y-72224170D01*
X110072219Y-72213134D01*
X110054976Y-72200346D01*
X110039070Y-72185930D01*
X110024654Y-72170024D01*
X110011866Y-72152781D01*
X110000830Y-72134368D01*
X109991651Y-72114962D01*
X109984419Y-72094750D01*
X109979203Y-72073926D01*
X109976053Y-72052691D01*
X109975000Y-72031250D01*
X109975000Y-71593750D01*
X109976053Y-71572309D01*
X109979203Y-71551074D01*
X109984419Y-71530250D01*
X109991651Y-71510038D01*
X110000830Y-71490632D01*
X110011866Y-71472219D01*
X110024654Y-71454976D01*
X110039070Y-71439070D01*
X110054976Y-71424654D01*
X110072219Y-71411866D01*
X110090632Y-71400830D01*
X110110038Y-71391651D01*
X110130250Y-71384419D01*
X110151074Y-71379203D01*
X110172309Y-71376053D01*
X110193750Y-71375000D01*
X110706250Y-71375000D01*
X110727691Y-71376053D01*
X110727691Y-71376053D01*
G37*
D21*
X110450000Y-71812500D03*
G04 #@! TD*
D11*
G04 #@! TO.C,C2*
G36*
X112277691Y-71376053D02*
X112298926Y-71379203D01*
X112319750Y-71384419D01*
X112339962Y-71391651D01*
X112359368Y-71400830D01*
X112377781Y-71411866D01*
X112395024Y-71424654D01*
X112410930Y-71439070D01*
X112425346Y-71454976D01*
X112438134Y-71472219D01*
X112449170Y-71490632D01*
X112458349Y-71510038D01*
X112465581Y-71530250D01*
X112470797Y-71551074D01*
X112473947Y-71572309D01*
X112475000Y-71593750D01*
X112475000Y-72031250D01*
X112473947Y-72052691D01*
X112470797Y-72073926D01*
X112465581Y-72094750D01*
X112458349Y-72114962D01*
X112449170Y-72134368D01*
X112438134Y-72152781D01*
X112425346Y-72170024D01*
X112410930Y-72185930D01*
X112395024Y-72200346D01*
X112377781Y-72213134D01*
X112359368Y-72224170D01*
X112339962Y-72233349D01*
X112319750Y-72240581D01*
X112298926Y-72245797D01*
X112277691Y-72248947D01*
X112256250Y-72250000D01*
X111743750Y-72250000D01*
X111722309Y-72248947D01*
X111701074Y-72245797D01*
X111680250Y-72240581D01*
X111660038Y-72233349D01*
X111640632Y-72224170D01*
X111622219Y-72213134D01*
X111604976Y-72200346D01*
X111589070Y-72185930D01*
X111574654Y-72170024D01*
X111561866Y-72152781D01*
X111550830Y-72134368D01*
X111541651Y-72114962D01*
X111534419Y-72094750D01*
X111529203Y-72073926D01*
X111526053Y-72052691D01*
X111525000Y-72031250D01*
X111525000Y-71593750D01*
X111526053Y-71572309D01*
X111529203Y-71551074D01*
X111534419Y-71530250D01*
X111541651Y-71510038D01*
X111550830Y-71490632D01*
X111561866Y-71472219D01*
X111574654Y-71454976D01*
X111589070Y-71439070D01*
X111604976Y-71424654D01*
X111622219Y-71411866D01*
X111640632Y-71400830D01*
X111660038Y-71391651D01*
X111680250Y-71384419D01*
X111701074Y-71379203D01*
X111722309Y-71376053D01*
X111743750Y-71375000D01*
X112256250Y-71375000D01*
X112277691Y-71376053D01*
X112277691Y-71376053D01*
G37*
D21*
X112000000Y-71812500D03*
D11*
G36*
X112277691Y-72951053D02*
X112298926Y-72954203D01*
X112319750Y-72959419D01*
X112339962Y-72966651D01*
X112359368Y-72975830D01*
X112377781Y-72986866D01*
X112395024Y-72999654D01*
X112410930Y-73014070D01*
X112425346Y-73029976D01*
X112438134Y-73047219D01*
X112449170Y-73065632D01*
X112458349Y-73085038D01*
X112465581Y-73105250D01*
X112470797Y-73126074D01*
X112473947Y-73147309D01*
X112475000Y-73168750D01*
X112475000Y-73606250D01*
X112473947Y-73627691D01*
X112470797Y-73648926D01*
X112465581Y-73669750D01*
X112458349Y-73689962D01*
X112449170Y-73709368D01*
X112438134Y-73727781D01*
X112425346Y-73745024D01*
X112410930Y-73760930D01*
X112395024Y-73775346D01*
X112377781Y-73788134D01*
X112359368Y-73799170D01*
X112339962Y-73808349D01*
X112319750Y-73815581D01*
X112298926Y-73820797D01*
X112277691Y-73823947D01*
X112256250Y-73825000D01*
X111743750Y-73825000D01*
X111722309Y-73823947D01*
X111701074Y-73820797D01*
X111680250Y-73815581D01*
X111660038Y-73808349D01*
X111640632Y-73799170D01*
X111622219Y-73788134D01*
X111604976Y-73775346D01*
X111589070Y-73760930D01*
X111574654Y-73745024D01*
X111561866Y-73727781D01*
X111550830Y-73709368D01*
X111541651Y-73689962D01*
X111534419Y-73669750D01*
X111529203Y-73648926D01*
X111526053Y-73627691D01*
X111525000Y-73606250D01*
X111525000Y-73168750D01*
X111526053Y-73147309D01*
X111529203Y-73126074D01*
X111534419Y-73105250D01*
X111541651Y-73085038D01*
X111550830Y-73065632D01*
X111561866Y-73047219D01*
X111574654Y-73029976D01*
X111589070Y-73014070D01*
X111604976Y-72999654D01*
X111622219Y-72986866D01*
X111640632Y-72975830D01*
X111660038Y-72966651D01*
X111680250Y-72959419D01*
X111701074Y-72954203D01*
X111722309Y-72951053D01*
X111743750Y-72950000D01*
X112256250Y-72950000D01*
X112277691Y-72951053D01*
X112277691Y-72951053D01*
G37*
D21*
X112000000Y-73387500D03*
G04 #@! TD*
D22*
G04 #@! TO.C,Q2*
X69300000Y-71950000D03*
X67300000Y-71000000D03*
X67300000Y-72900000D03*
G04 #@! TD*
G04 #@! TO.C,Q4*
X186200000Y-92800000D03*
X184200000Y-91850000D03*
X184200000Y-93750000D03*
G04 #@! TD*
G04 #@! TO.C,Q5*
X179900000Y-93750000D03*
X179900000Y-91850000D03*
X181900000Y-92800000D03*
G04 #@! TD*
G04 #@! TO.C,Q3*
X81800000Y-104150000D03*
X81800000Y-102250000D03*
X83800000Y-103200000D03*
G04 #@! TD*
G04 #@! TO.C,Q6*
X169700000Y-88900000D03*
X167700000Y-87950000D03*
X167700000Y-89850000D03*
G04 #@! TD*
D11*
G04 #@! TO.C,R18*
G36*
X89752691Y-90376053D02*
X89773926Y-90379203D01*
X89794750Y-90384419D01*
X89814962Y-90391651D01*
X89834368Y-90400830D01*
X89852781Y-90411866D01*
X89870024Y-90424654D01*
X89885930Y-90439070D01*
X89900346Y-90454976D01*
X89913134Y-90472219D01*
X89924170Y-90490632D01*
X89933349Y-90510038D01*
X89940581Y-90530250D01*
X89945797Y-90551074D01*
X89948947Y-90572309D01*
X89950000Y-90593750D01*
X89950000Y-91106250D01*
X89948947Y-91127691D01*
X89945797Y-91148926D01*
X89940581Y-91169750D01*
X89933349Y-91189962D01*
X89924170Y-91209368D01*
X89913134Y-91227781D01*
X89900346Y-91245024D01*
X89885930Y-91260930D01*
X89870024Y-91275346D01*
X89852781Y-91288134D01*
X89834368Y-91299170D01*
X89814962Y-91308349D01*
X89794750Y-91315581D01*
X89773926Y-91320797D01*
X89752691Y-91323947D01*
X89731250Y-91325000D01*
X89293750Y-91325000D01*
X89272309Y-91323947D01*
X89251074Y-91320797D01*
X89230250Y-91315581D01*
X89210038Y-91308349D01*
X89190632Y-91299170D01*
X89172219Y-91288134D01*
X89154976Y-91275346D01*
X89139070Y-91260930D01*
X89124654Y-91245024D01*
X89111866Y-91227781D01*
X89100830Y-91209368D01*
X89091651Y-91189962D01*
X89084419Y-91169750D01*
X89079203Y-91148926D01*
X89076053Y-91127691D01*
X89075000Y-91106250D01*
X89075000Y-90593750D01*
X89076053Y-90572309D01*
X89079203Y-90551074D01*
X89084419Y-90530250D01*
X89091651Y-90510038D01*
X89100830Y-90490632D01*
X89111866Y-90472219D01*
X89124654Y-90454976D01*
X89139070Y-90439070D01*
X89154976Y-90424654D01*
X89172219Y-90411866D01*
X89190632Y-90400830D01*
X89210038Y-90391651D01*
X89230250Y-90384419D01*
X89251074Y-90379203D01*
X89272309Y-90376053D01*
X89293750Y-90375000D01*
X89731250Y-90375000D01*
X89752691Y-90376053D01*
X89752691Y-90376053D01*
G37*
D21*
X89512500Y-90850000D03*
D11*
G36*
X91327691Y-90376053D02*
X91348926Y-90379203D01*
X91369750Y-90384419D01*
X91389962Y-90391651D01*
X91409368Y-90400830D01*
X91427781Y-90411866D01*
X91445024Y-90424654D01*
X91460930Y-90439070D01*
X91475346Y-90454976D01*
X91488134Y-90472219D01*
X91499170Y-90490632D01*
X91508349Y-90510038D01*
X91515581Y-90530250D01*
X91520797Y-90551074D01*
X91523947Y-90572309D01*
X91525000Y-90593750D01*
X91525000Y-91106250D01*
X91523947Y-91127691D01*
X91520797Y-91148926D01*
X91515581Y-91169750D01*
X91508349Y-91189962D01*
X91499170Y-91209368D01*
X91488134Y-91227781D01*
X91475346Y-91245024D01*
X91460930Y-91260930D01*
X91445024Y-91275346D01*
X91427781Y-91288134D01*
X91409368Y-91299170D01*
X91389962Y-91308349D01*
X91369750Y-91315581D01*
X91348926Y-91320797D01*
X91327691Y-91323947D01*
X91306250Y-91325000D01*
X90868750Y-91325000D01*
X90847309Y-91323947D01*
X90826074Y-91320797D01*
X90805250Y-91315581D01*
X90785038Y-91308349D01*
X90765632Y-91299170D01*
X90747219Y-91288134D01*
X90729976Y-91275346D01*
X90714070Y-91260930D01*
X90699654Y-91245024D01*
X90686866Y-91227781D01*
X90675830Y-91209368D01*
X90666651Y-91189962D01*
X90659419Y-91169750D01*
X90654203Y-91148926D01*
X90651053Y-91127691D01*
X90650000Y-91106250D01*
X90650000Y-90593750D01*
X90651053Y-90572309D01*
X90654203Y-90551074D01*
X90659419Y-90530250D01*
X90666651Y-90510038D01*
X90675830Y-90490632D01*
X90686866Y-90472219D01*
X90699654Y-90454976D01*
X90714070Y-90439070D01*
X90729976Y-90424654D01*
X90747219Y-90411866D01*
X90765632Y-90400830D01*
X90785038Y-90391651D01*
X90805250Y-90384419D01*
X90826074Y-90379203D01*
X90847309Y-90376053D01*
X90868750Y-90375000D01*
X91306250Y-90375000D01*
X91327691Y-90376053D01*
X91327691Y-90376053D01*
G37*
D21*
X91087500Y-90850000D03*
G04 #@! TD*
D11*
G04 #@! TO.C,R22*
G36*
X179952691Y-87726053D02*
X179973926Y-87729203D01*
X179994750Y-87734419D01*
X180014962Y-87741651D01*
X180034368Y-87750830D01*
X180052781Y-87761866D01*
X180070024Y-87774654D01*
X180085930Y-87789070D01*
X180100346Y-87804976D01*
X180113134Y-87822219D01*
X180124170Y-87840632D01*
X180133349Y-87860038D01*
X180140581Y-87880250D01*
X180145797Y-87901074D01*
X180148947Y-87922309D01*
X180150000Y-87943750D01*
X180150000Y-88456250D01*
X180148947Y-88477691D01*
X180145797Y-88498926D01*
X180140581Y-88519750D01*
X180133349Y-88539962D01*
X180124170Y-88559368D01*
X180113134Y-88577781D01*
X180100346Y-88595024D01*
X180085930Y-88610930D01*
X180070024Y-88625346D01*
X180052781Y-88638134D01*
X180034368Y-88649170D01*
X180014962Y-88658349D01*
X179994750Y-88665581D01*
X179973926Y-88670797D01*
X179952691Y-88673947D01*
X179931250Y-88675000D01*
X179493750Y-88675000D01*
X179472309Y-88673947D01*
X179451074Y-88670797D01*
X179430250Y-88665581D01*
X179410038Y-88658349D01*
X179390632Y-88649170D01*
X179372219Y-88638134D01*
X179354976Y-88625346D01*
X179339070Y-88610930D01*
X179324654Y-88595024D01*
X179311866Y-88577781D01*
X179300830Y-88559368D01*
X179291651Y-88539962D01*
X179284419Y-88519750D01*
X179279203Y-88498926D01*
X179276053Y-88477691D01*
X179275000Y-88456250D01*
X179275000Y-87943750D01*
X179276053Y-87922309D01*
X179279203Y-87901074D01*
X179284419Y-87880250D01*
X179291651Y-87860038D01*
X179300830Y-87840632D01*
X179311866Y-87822219D01*
X179324654Y-87804976D01*
X179339070Y-87789070D01*
X179354976Y-87774654D01*
X179372219Y-87761866D01*
X179390632Y-87750830D01*
X179410038Y-87741651D01*
X179430250Y-87734419D01*
X179451074Y-87729203D01*
X179472309Y-87726053D01*
X179493750Y-87725000D01*
X179931250Y-87725000D01*
X179952691Y-87726053D01*
X179952691Y-87726053D01*
G37*
D21*
X179712500Y-88200000D03*
D11*
G36*
X181527691Y-87726053D02*
X181548926Y-87729203D01*
X181569750Y-87734419D01*
X181589962Y-87741651D01*
X181609368Y-87750830D01*
X181627781Y-87761866D01*
X181645024Y-87774654D01*
X181660930Y-87789070D01*
X181675346Y-87804976D01*
X181688134Y-87822219D01*
X181699170Y-87840632D01*
X181708349Y-87860038D01*
X181715581Y-87880250D01*
X181720797Y-87901074D01*
X181723947Y-87922309D01*
X181725000Y-87943750D01*
X181725000Y-88456250D01*
X181723947Y-88477691D01*
X181720797Y-88498926D01*
X181715581Y-88519750D01*
X181708349Y-88539962D01*
X181699170Y-88559368D01*
X181688134Y-88577781D01*
X181675346Y-88595024D01*
X181660930Y-88610930D01*
X181645024Y-88625346D01*
X181627781Y-88638134D01*
X181609368Y-88649170D01*
X181589962Y-88658349D01*
X181569750Y-88665581D01*
X181548926Y-88670797D01*
X181527691Y-88673947D01*
X181506250Y-88675000D01*
X181068750Y-88675000D01*
X181047309Y-88673947D01*
X181026074Y-88670797D01*
X181005250Y-88665581D01*
X180985038Y-88658349D01*
X180965632Y-88649170D01*
X180947219Y-88638134D01*
X180929976Y-88625346D01*
X180914070Y-88610930D01*
X180899654Y-88595024D01*
X180886866Y-88577781D01*
X180875830Y-88559368D01*
X180866651Y-88539962D01*
X180859419Y-88519750D01*
X180854203Y-88498926D01*
X180851053Y-88477691D01*
X180850000Y-88456250D01*
X180850000Y-87943750D01*
X180851053Y-87922309D01*
X180854203Y-87901074D01*
X180859419Y-87880250D01*
X180866651Y-87860038D01*
X180875830Y-87840632D01*
X180886866Y-87822219D01*
X180899654Y-87804976D01*
X180914070Y-87789070D01*
X180929976Y-87774654D01*
X180947219Y-87761866D01*
X180965632Y-87750830D01*
X180985038Y-87741651D01*
X181005250Y-87734419D01*
X181026074Y-87729203D01*
X181047309Y-87726053D01*
X181068750Y-87725000D01*
X181506250Y-87725000D01*
X181527691Y-87726053D01*
X181527691Y-87726053D01*
G37*
D21*
X181287500Y-88200000D03*
G04 #@! TD*
D11*
G04 #@! TO.C,R9*
G36*
X73477691Y-70576053D02*
X73498926Y-70579203D01*
X73519750Y-70584419D01*
X73539962Y-70591651D01*
X73559368Y-70600830D01*
X73577781Y-70611866D01*
X73595024Y-70624654D01*
X73610930Y-70639070D01*
X73625346Y-70654976D01*
X73638134Y-70672219D01*
X73649170Y-70690632D01*
X73658349Y-70710038D01*
X73665581Y-70730250D01*
X73670797Y-70751074D01*
X73673947Y-70772309D01*
X73675000Y-70793750D01*
X73675000Y-71231250D01*
X73673947Y-71252691D01*
X73670797Y-71273926D01*
X73665581Y-71294750D01*
X73658349Y-71314962D01*
X73649170Y-71334368D01*
X73638134Y-71352781D01*
X73625346Y-71370024D01*
X73610930Y-71385930D01*
X73595024Y-71400346D01*
X73577781Y-71413134D01*
X73559368Y-71424170D01*
X73539962Y-71433349D01*
X73519750Y-71440581D01*
X73498926Y-71445797D01*
X73477691Y-71448947D01*
X73456250Y-71450000D01*
X72943750Y-71450000D01*
X72922309Y-71448947D01*
X72901074Y-71445797D01*
X72880250Y-71440581D01*
X72860038Y-71433349D01*
X72840632Y-71424170D01*
X72822219Y-71413134D01*
X72804976Y-71400346D01*
X72789070Y-71385930D01*
X72774654Y-71370024D01*
X72761866Y-71352781D01*
X72750830Y-71334368D01*
X72741651Y-71314962D01*
X72734419Y-71294750D01*
X72729203Y-71273926D01*
X72726053Y-71252691D01*
X72725000Y-71231250D01*
X72725000Y-70793750D01*
X72726053Y-70772309D01*
X72729203Y-70751074D01*
X72734419Y-70730250D01*
X72741651Y-70710038D01*
X72750830Y-70690632D01*
X72761866Y-70672219D01*
X72774654Y-70654976D01*
X72789070Y-70639070D01*
X72804976Y-70624654D01*
X72822219Y-70611866D01*
X72840632Y-70600830D01*
X72860038Y-70591651D01*
X72880250Y-70584419D01*
X72901074Y-70579203D01*
X72922309Y-70576053D01*
X72943750Y-70575000D01*
X73456250Y-70575000D01*
X73477691Y-70576053D01*
X73477691Y-70576053D01*
G37*
D21*
X73200000Y-71012500D03*
D11*
G36*
X73477691Y-72151053D02*
X73498926Y-72154203D01*
X73519750Y-72159419D01*
X73539962Y-72166651D01*
X73559368Y-72175830D01*
X73577781Y-72186866D01*
X73595024Y-72199654D01*
X73610930Y-72214070D01*
X73625346Y-72229976D01*
X73638134Y-72247219D01*
X73649170Y-72265632D01*
X73658349Y-72285038D01*
X73665581Y-72305250D01*
X73670797Y-72326074D01*
X73673947Y-72347309D01*
X73675000Y-72368750D01*
X73675000Y-72806250D01*
X73673947Y-72827691D01*
X73670797Y-72848926D01*
X73665581Y-72869750D01*
X73658349Y-72889962D01*
X73649170Y-72909368D01*
X73638134Y-72927781D01*
X73625346Y-72945024D01*
X73610930Y-72960930D01*
X73595024Y-72975346D01*
X73577781Y-72988134D01*
X73559368Y-72999170D01*
X73539962Y-73008349D01*
X73519750Y-73015581D01*
X73498926Y-73020797D01*
X73477691Y-73023947D01*
X73456250Y-73025000D01*
X72943750Y-73025000D01*
X72922309Y-73023947D01*
X72901074Y-73020797D01*
X72880250Y-73015581D01*
X72860038Y-73008349D01*
X72840632Y-72999170D01*
X72822219Y-72988134D01*
X72804976Y-72975346D01*
X72789070Y-72960930D01*
X72774654Y-72945024D01*
X72761866Y-72927781D01*
X72750830Y-72909368D01*
X72741651Y-72889962D01*
X72734419Y-72869750D01*
X72729203Y-72848926D01*
X72726053Y-72827691D01*
X72725000Y-72806250D01*
X72725000Y-72368750D01*
X72726053Y-72347309D01*
X72729203Y-72326074D01*
X72734419Y-72305250D01*
X72741651Y-72285038D01*
X72750830Y-72265632D01*
X72761866Y-72247219D01*
X72774654Y-72229976D01*
X72789070Y-72214070D01*
X72804976Y-72199654D01*
X72822219Y-72186866D01*
X72840632Y-72175830D01*
X72860038Y-72166651D01*
X72880250Y-72159419D01*
X72901074Y-72154203D01*
X72922309Y-72151053D01*
X72943750Y-72150000D01*
X73456250Y-72150000D01*
X73477691Y-72151053D01*
X73477691Y-72151053D01*
G37*
D21*
X73200000Y-72587500D03*
G04 #@! TD*
D23*
G04 #@! TO.C,U11*
X97900000Y-78545000D03*
D24*
X105400000Y-71045000D03*
X105400000Y-72315000D03*
X105400000Y-73585000D03*
X105400000Y-74855000D03*
X105400000Y-76125000D03*
X105400000Y-77395000D03*
X105400000Y-78665000D03*
X105400000Y-79935000D03*
X105400000Y-81205000D03*
X105400000Y-82475000D03*
X105400000Y-83745000D03*
X105400000Y-85015000D03*
X105400000Y-86285000D03*
X105400000Y-87555000D03*
D25*
X102615000Y-88555000D03*
X101345000Y-88555000D03*
X100075000Y-88555000D03*
X98805000Y-88555000D03*
X97535000Y-88555000D03*
X96265000Y-88555000D03*
X94995000Y-88555000D03*
X93725000Y-88555000D03*
X92455000Y-88555000D03*
X91185000Y-88555000D03*
D24*
X88400000Y-87555000D03*
X88400000Y-86285000D03*
X88400000Y-85015000D03*
X88400000Y-83745000D03*
X88400000Y-82475000D03*
X88400000Y-81205000D03*
X88400000Y-79935000D03*
X88400000Y-78665000D03*
X88400000Y-77395000D03*
X88400000Y-76125000D03*
X88400000Y-74855000D03*
X88400000Y-73585000D03*
X88400000Y-72315000D03*
X88400000Y-71045000D03*
G04 #@! TD*
D11*
G04 #@! TO.C,C3*
G36*
X93177691Y-100976053D02*
X93198926Y-100979203D01*
X93219750Y-100984419D01*
X93239962Y-100991651D01*
X93259368Y-101000830D01*
X93277781Y-101011866D01*
X93295024Y-101024654D01*
X93310930Y-101039070D01*
X93325346Y-101054976D01*
X93338134Y-101072219D01*
X93349170Y-101090632D01*
X93358349Y-101110038D01*
X93365581Y-101130250D01*
X93370797Y-101151074D01*
X93373947Y-101172309D01*
X93375000Y-101193750D01*
X93375000Y-101631250D01*
X93373947Y-101652691D01*
X93370797Y-101673926D01*
X93365581Y-101694750D01*
X93358349Y-101714962D01*
X93349170Y-101734368D01*
X93338134Y-101752781D01*
X93325346Y-101770024D01*
X93310930Y-101785930D01*
X93295024Y-101800346D01*
X93277781Y-101813134D01*
X93259368Y-101824170D01*
X93239962Y-101833349D01*
X93219750Y-101840581D01*
X93198926Y-101845797D01*
X93177691Y-101848947D01*
X93156250Y-101850000D01*
X92643750Y-101850000D01*
X92622309Y-101848947D01*
X92601074Y-101845797D01*
X92580250Y-101840581D01*
X92560038Y-101833349D01*
X92540632Y-101824170D01*
X92522219Y-101813134D01*
X92504976Y-101800346D01*
X92489070Y-101785930D01*
X92474654Y-101770024D01*
X92461866Y-101752781D01*
X92450830Y-101734368D01*
X92441651Y-101714962D01*
X92434419Y-101694750D01*
X92429203Y-101673926D01*
X92426053Y-101652691D01*
X92425000Y-101631250D01*
X92425000Y-101193750D01*
X92426053Y-101172309D01*
X92429203Y-101151074D01*
X92434419Y-101130250D01*
X92441651Y-101110038D01*
X92450830Y-101090632D01*
X92461866Y-101072219D01*
X92474654Y-101054976D01*
X92489070Y-101039070D01*
X92504976Y-101024654D01*
X92522219Y-101011866D01*
X92540632Y-101000830D01*
X92560038Y-100991651D01*
X92580250Y-100984419D01*
X92601074Y-100979203D01*
X92622309Y-100976053D01*
X92643750Y-100975000D01*
X93156250Y-100975000D01*
X93177691Y-100976053D01*
X93177691Y-100976053D01*
G37*
D21*
X92900000Y-101412500D03*
D11*
G36*
X93177691Y-102551053D02*
X93198926Y-102554203D01*
X93219750Y-102559419D01*
X93239962Y-102566651D01*
X93259368Y-102575830D01*
X93277781Y-102586866D01*
X93295024Y-102599654D01*
X93310930Y-102614070D01*
X93325346Y-102629976D01*
X93338134Y-102647219D01*
X93349170Y-102665632D01*
X93358349Y-102685038D01*
X93365581Y-102705250D01*
X93370797Y-102726074D01*
X93373947Y-102747309D01*
X93375000Y-102768750D01*
X93375000Y-103206250D01*
X93373947Y-103227691D01*
X93370797Y-103248926D01*
X93365581Y-103269750D01*
X93358349Y-103289962D01*
X93349170Y-103309368D01*
X93338134Y-103327781D01*
X93325346Y-103345024D01*
X93310930Y-103360930D01*
X93295024Y-103375346D01*
X93277781Y-103388134D01*
X93259368Y-103399170D01*
X93239962Y-103408349D01*
X93219750Y-103415581D01*
X93198926Y-103420797D01*
X93177691Y-103423947D01*
X93156250Y-103425000D01*
X92643750Y-103425000D01*
X92622309Y-103423947D01*
X92601074Y-103420797D01*
X92580250Y-103415581D01*
X92560038Y-103408349D01*
X92540632Y-103399170D01*
X92522219Y-103388134D01*
X92504976Y-103375346D01*
X92489070Y-103360930D01*
X92474654Y-103345024D01*
X92461866Y-103327781D01*
X92450830Y-103309368D01*
X92441651Y-103289962D01*
X92434419Y-103269750D01*
X92429203Y-103248926D01*
X92426053Y-103227691D01*
X92425000Y-103206250D01*
X92425000Y-102768750D01*
X92426053Y-102747309D01*
X92429203Y-102726074D01*
X92434419Y-102705250D01*
X92441651Y-102685038D01*
X92450830Y-102665632D01*
X92461866Y-102647219D01*
X92474654Y-102629976D01*
X92489070Y-102614070D01*
X92504976Y-102599654D01*
X92522219Y-102586866D01*
X92540632Y-102575830D01*
X92560038Y-102566651D01*
X92580250Y-102559419D01*
X92601074Y-102554203D01*
X92622309Y-102551053D01*
X92643750Y-102550000D01*
X93156250Y-102550000D01*
X93177691Y-102551053D01*
X93177691Y-102551053D01*
G37*
D21*
X92900000Y-102987500D03*
G04 #@! TD*
D11*
G04 #@! TO.C,C4*
G36*
X139627691Y-89526053D02*
X139648926Y-89529203D01*
X139669750Y-89534419D01*
X139689962Y-89541651D01*
X139709368Y-89550830D01*
X139727781Y-89561866D01*
X139745024Y-89574654D01*
X139760930Y-89589070D01*
X139775346Y-89604976D01*
X139788134Y-89622219D01*
X139799170Y-89640632D01*
X139808349Y-89660038D01*
X139815581Y-89680250D01*
X139820797Y-89701074D01*
X139823947Y-89722309D01*
X139825000Y-89743750D01*
X139825000Y-90256250D01*
X139823947Y-90277691D01*
X139820797Y-90298926D01*
X139815581Y-90319750D01*
X139808349Y-90339962D01*
X139799170Y-90359368D01*
X139788134Y-90377781D01*
X139775346Y-90395024D01*
X139760930Y-90410930D01*
X139745024Y-90425346D01*
X139727781Y-90438134D01*
X139709368Y-90449170D01*
X139689962Y-90458349D01*
X139669750Y-90465581D01*
X139648926Y-90470797D01*
X139627691Y-90473947D01*
X139606250Y-90475000D01*
X139168750Y-90475000D01*
X139147309Y-90473947D01*
X139126074Y-90470797D01*
X139105250Y-90465581D01*
X139085038Y-90458349D01*
X139065632Y-90449170D01*
X139047219Y-90438134D01*
X139029976Y-90425346D01*
X139014070Y-90410930D01*
X138999654Y-90395024D01*
X138986866Y-90377781D01*
X138975830Y-90359368D01*
X138966651Y-90339962D01*
X138959419Y-90319750D01*
X138954203Y-90298926D01*
X138951053Y-90277691D01*
X138950000Y-90256250D01*
X138950000Y-89743750D01*
X138951053Y-89722309D01*
X138954203Y-89701074D01*
X138959419Y-89680250D01*
X138966651Y-89660038D01*
X138975830Y-89640632D01*
X138986866Y-89622219D01*
X138999654Y-89604976D01*
X139014070Y-89589070D01*
X139029976Y-89574654D01*
X139047219Y-89561866D01*
X139065632Y-89550830D01*
X139085038Y-89541651D01*
X139105250Y-89534419D01*
X139126074Y-89529203D01*
X139147309Y-89526053D01*
X139168750Y-89525000D01*
X139606250Y-89525000D01*
X139627691Y-89526053D01*
X139627691Y-89526053D01*
G37*
D21*
X139387500Y-90000000D03*
D11*
G36*
X138052691Y-89526053D02*
X138073926Y-89529203D01*
X138094750Y-89534419D01*
X138114962Y-89541651D01*
X138134368Y-89550830D01*
X138152781Y-89561866D01*
X138170024Y-89574654D01*
X138185930Y-89589070D01*
X138200346Y-89604976D01*
X138213134Y-89622219D01*
X138224170Y-89640632D01*
X138233349Y-89660038D01*
X138240581Y-89680250D01*
X138245797Y-89701074D01*
X138248947Y-89722309D01*
X138250000Y-89743750D01*
X138250000Y-90256250D01*
X138248947Y-90277691D01*
X138245797Y-90298926D01*
X138240581Y-90319750D01*
X138233349Y-90339962D01*
X138224170Y-90359368D01*
X138213134Y-90377781D01*
X138200346Y-90395024D01*
X138185930Y-90410930D01*
X138170024Y-90425346D01*
X138152781Y-90438134D01*
X138134368Y-90449170D01*
X138114962Y-90458349D01*
X138094750Y-90465581D01*
X138073926Y-90470797D01*
X138052691Y-90473947D01*
X138031250Y-90475000D01*
X137593750Y-90475000D01*
X137572309Y-90473947D01*
X137551074Y-90470797D01*
X137530250Y-90465581D01*
X137510038Y-90458349D01*
X137490632Y-90449170D01*
X137472219Y-90438134D01*
X137454976Y-90425346D01*
X137439070Y-90410930D01*
X137424654Y-90395024D01*
X137411866Y-90377781D01*
X137400830Y-90359368D01*
X137391651Y-90339962D01*
X137384419Y-90319750D01*
X137379203Y-90298926D01*
X137376053Y-90277691D01*
X137375000Y-90256250D01*
X137375000Y-89743750D01*
X137376053Y-89722309D01*
X137379203Y-89701074D01*
X137384419Y-89680250D01*
X137391651Y-89660038D01*
X137400830Y-89640632D01*
X137411866Y-89622219D01*
X137424654Y-89604976D01*
X137439070Y-89589070D01*
X137454976Y-89574654D01*
X137472219Y-89561866D01*
X137490632Y-89550830D01*
X137510038Y-89541651D01*
X137530250Y-89534419D01*
X137551074Y-89529203D01*
X137572309Y-89526053D01*
X137593750Y-89525000D01*
X138031250Y-89525000D01*
X138052691Y-89526053D01*
X138052691Y-89526053D01*
G37*
D21*
X137812500Y-90000000D03*
G04 #@! TD*
D11*
G04 #@! TO.C,D258*
G36*
X77477691Y-70576053D02*
X77498926Y-70579203D01*
X77519750Y-70584419D01*
X77539962Y-70591651D01*
X77559368Y-70600830D01*
X77577781Y-70611866D01*
X77595024Y-70624654D01*
X77610930Y-70639070D01*
X77625346Y-70654976D01*
X77638134Y-70672219D01*
X77649170Y-70690632D01*
X77658349Y-70710038D01*
X77665581Y-70730250D01*
X77670797Y-70751074D01*
X77673947Y-70772309D01*
X77675000Y-70793750D01*
X77675000Y-71231250D01*
X77673947Y-71252691D01*
X77670797Y-71273926D01*
X77665581Y-71294750D01*
X77658349Y-71314962D01*
X77649170Y-71334368D01*
X77638134Y-71352781D01*
X77625346Y-71370024D01*
X77610930Y-71385930D01*
X77595024Y-71400346D01*
X77577781Y-71413134D01*
X77559368Y-71424170D01*
X77539962Y-71433349D01*
X77519750Y-71440581D01*
X77498926Y-71445797D01*
X77477691Y-71448947D01*
X77456250Y-71450000D01*
X76943750Y-71450000D01*
X76922309Y-71448947D01*
X76901074Y-71445797D01*
X76880250Y-71440581D01*
X76860038Y-71433349D01*
X76840632Y-71424170D01*
X76822219Y-71413134D01*
X76804976Y-71400346D01*
X76789070Y-71385930D01*
X76774654Y-71370024D01*
X76761866Y-71352781D01*
X76750830Y-71334368D01*
X76741651Y-71314962D01*
X76734419Y-71294750D01*
X76729203Y-71273926D01*
X76726053Y-71252691D01*
X76725000Y-71231250D01*
X76725000Y-70793750D01*
X76726053Y-70772309D01*
X76729203Y-70751074D01*
X76734419Y-70730250D01*
X76741651Y-70710038D01*
X76750830Y-70690632D01*
X76761866Y-70672219D01*
X76774654Y-70654976D01*
X76789070Y-70639070D01*
X76804976Y-70624654D01*
X76822219Y-70611866D01*
X76840632Y-70600830D01*
X76860038Y-70591651D01*
X76880250Y-70584419D01*
X76901074Y-70579203D01*
X76922309Y-70576053D01*
X76943750Y-70575000D01*
X77456250Y-70575000D01*
X77477691Y-70576053D01*
X77477691Y-70576053D01*
G37*
D21*
X77200000Y-71012500D03*
D11*
G36*
X77477691Y-72151053D02*
X77498926Y-72154203D01*
X77519750Y-72159419D01*
X77539962Y-72166651D01*
X77559368Y-72175830D01*
X77577781Y-72186866D01*
X77595024Y-72199654D01*
X77610930Y-72214070D01*
X77625346Y-72229976D01*
X77638134Y-72247219D01*
X77649170Y-72265632D01*
X77658349Y-72285038D01*
X77665581Y-72305250D01*
X77670797Y-72326074D01*
X77673947Y-72347309D01*
X77675000Y-72368750D01*
X77675000Y-72806250D01*
X77673947Y-72827691D01*
X77670797Y-72848926D01*
X77665581Y-72869750D01*
X77658349Y-72889962D01*
X77649170Y-72909368D01*
X77638134Y-72927781D01*
X77625346Y-72945024D01*
X77610930Y-72960930D01*
X77595024Y-72975346D01*
X77577781Y-72988134D01*
X77559368Y-72999170D01*
X77539962Y-73008349D01*
X77519750Y-73015581D01*
X77498926Y-73020797D01*
X77477691Y-73023947D01*
X77456250Y-73025000D01*
X76943750Y-73025000D01*
X76922309Y-73023947D01*
X76901074Y-73020797D01*
X76880250Y-73015581D01*
X76860038Y-73008349D01*
X76840632Y-72999170D01*
X76822219Y-72988134D01*
X76804976Y-72975346D01*
X76789070Y-72960930D01*
X76774654Y-72945024D01*
X76761866Y-72927781D01*
X76750830Y-72909368D01*
X76741651Y-72889962D01*
X76734419Y-72869750D01*
X76729203Y-72848926D01*
X76726053Y-72827691D01*
X76725000Y-72806250D01*
X76725000Y-72368750D01*
X76726053Y-72347309D01*
X76729203Y-72326074D01*
X76734419Y-72305250D01*
X76741651Y-72285038D01*
X76750830Y-72265632D01*
X76761866Y-72247219D01*
X76774654Y-72229976D01*
X76789070Y-72214070D01*
X76804976Y-72199654D01*
X76822219Y-72186866D01*
X76840632Y-72175830D01*
X76860038Y-72166651D01*
X76880250Y-72159419D01*
X76901074Y-72154203D01*
X76922309Y-72151053D01*
X76943750Y-72150000D01*
X77456250Y-72150000D01*
X77477691Y-72151053D01*
X77477691Y-72151053D01*
G37*
D21*
X77200000Y-72587500D03*
G04 #@! TD*
D11*
G04 #@! TO.C,D259*
G36*
X83777691Y-107676053D02*
X83798926Y-107679203D01*
X83819750Y-107684419D01*
X83839962Y-107691651D01*
X83859368Y-107700830D01*
X83877781Y-107711866D01*
X83895024Y-107724654D01*
X83910930Y-107739070D01*
X83925346Y-107754976D01*
X83938134Y-107772219D01*
X83949170Y-107790632D01*
X83958349Y-107810038D01*
X83965581Y-107830250D01*
X83970797Y-107851074D01*
X83973947Y-107872309D01*
X83975000Y-107893750D01*
X83975000Y-108331250D01*
X83973947Y-108352691D01*
X83970797Y-108373926D01*
X83965581Y-108394750D01*
X83958349Y-108414962D01*
X83949170Y-108434368D01*
X83938134Y-108452781D01*
X83925346Y-108470024D01*
X83910930Y-108485930D01*
X83895024Y-108500346D01*
X83877781Y-108513134D01*
X83859368Y-108524170D01*
X83839962Y-108533349D01*
X83819750Y-108540581D01*
X83798926Y-108545797D01*
X83777691Y-108548947D01*
X83756250Y-108550000D01*
X83243750Y-108550000D01*
X83222309Y-108548947D01*
X83201074Y-108545797D01*
X83180250Y-108540581D01*
X83160038Y-108533349D01*
X83140632Y-108524170D01*
X83122219Y-108513134D01*
X83104976Y-108500346D01*
X83089070Y-108485930D01*
X83074654Y-108470024D01*
X83061866Y-108452781D01*
X83050830Y-108434368D01*
X83041651Y-108414962D01*
X83034419Y-108394750D01*
X83029203Y-108373926D01*
X83026053Y-108352691D01*
X83025000Y-108331250D01*
X83025000Y-107893750D01*
X83026053Y-107872309D01*
X83029203Y-107851074D01*
X83034419Y-107830250D01*
X83041651Y-107810038D01*
X83050830Y-107790632D01*
X83061866Y-107772219D01*
X83074654Y-107754976D01*
X83089070Y-107739070D01*
X83104976Y-107724654D01*
X83122219Y-107711866D01*
X83140632Y-107700830D01*
X83160038Y-107691651D01*
X83180250Y-107684419D01*
X83201074Y-107679203D01*
X83222309Y-107676053D01*
X83243750Y-107675000D01*
X83756250Y-107675000D01*
X83777691Y-107676053D01*
X83777691Y-107676053D01*
G37*
D21*
X83500000Y-108112500D03*
D11*
G36*
X83777691Y-109251053D02*
X83798926Y-109254203D01*
X83819750Y-109259419D01*
X83839962Y-109266651D01*
X83859368Y-109275830D01*
X83877781Y-109286866D01*
X83895024Y-109299654D01*
X83910930Y-109314070D01*
X83925346Y-109329976D01*
X83938134Y-109347219D01*
X83949170Y-109365632D01*
X83958349Y-109385038D01*
X83965581Y-109405250D01*
X83970797Y-109426074D01*
X83973947Y-109447309D01*
X83975000Y-109468750D01*
X83975000Y-109906250D01*
X83973947Y-109927691D01*
X83970797Y-109948926D01*
X83965581Y-109969750D01*
X83958349Y-109989962D01*
X83949170Y-110009368D01*
X83938134Y-110027781D01*
X83925346Y-110045024D01*
X83910930Y-110060930D01*
X83895024Y-110075346D01*
X83877781Y-110088134D01*
X83859368Y-110099170D01*
X83839962Y-110108349D01*
X83819750Y-110115581D01*
X83798926Y-110120797D01*
X83777691Y-110123947D01*
X83756250Y-110125000D01*
X83243750Y-110125000D01*
X83222309Y-110123947D01*
X83201074Y-110120797D01*
X83180250Y-110115581D01*
X83160038Y-110108349D01*
X83140632Y-110099170D01*
X83122219Y-110088134D01*
X83104976Y-110075346D01*
X83089070Y-110060930D01*
X83074654Y-110045024D01*
X83061866Y-110027781D01*
X83050830Y-110009368D01*
X83041651Y-109989962D01*
X83034419Y-109969750D01*
X83029203Y-109948926D01*
X83026053Y-109927691D01*
X83025000Y-109906250D01*
X83025000Y-109468750D01*
X83026053Y-109447309D01*
X83029203Y-109426074D01*
X83034419Y-109405250D01*
X83041651Y-109385038D01*
X83050830Y-109365632D01*
X83061866Y-109347219D01*
X83074654Y-109329976D01*
X83089070Y-109314070D01*
X83104976Y-109299654D01*
X83122219Y-109286866D01*
X83140632Y-109275830D01*
X83160038Y-109266651D01*
X83180250Y-109259419D01*
X83201074Y-109254203D01*
X83222309Y-109251053D01*
X83243750Y-109250000D01*
X83756250Y-109250000D01*
X83777691Y-109251053D01*
X83777691Y-109251053D01*
G37*
D21*
X83500000Y-109687500D03*
G04 #@! TD*
D11*
G04 #@! TO.C,D260*
G36*
X78977691Y-107676053D02*
X78998926Y-107679203D01*
X79019750Y-107684419D01*
X79039962Y-107691651D01*
X79059368Y-107700830D01*
X79077781Y-107711866D01*
X79095024Y-107724654D01*
X79110930Y-107739070D01*
X79125346Y-107754976D01*
X79138134Y-107772219D01*
X79149170Y-107790632D01*
X79158349Y-107810038D01*
X79165581Y-107830250D01*
X79170797Y-107851074D01*
X79173947Y-107872309D01*
X79175000Y-107893750D01*
X79175000Y-108331250D01*
X79173947Y-108352691D01*
X79170797Y-108373926D01*
X79165581Y-108394750D01*
X79158349Y-108414962D01*
X79149170Y-108434368D01*
X79138134Y-108452781D01*
X79125346Y-108470024D01*
X79110930Y-108485930D01*
X79095024Y-108500346D01*
X79077781Y-108513134D01*
X79059368Y-108524170D01*
X79039962Y-108533349D01*
X79019750Y-108540581D01*
X78998926Y-108545797D01*
X78977691Y-108548947D01*
X78956250Y-108550000D01*
X78443750Y-108550000D01*
X78422309Y-108548947D01*
X78401074Y-108545797D01*
X78380250Y-108540581D01*
X78360038Y-108533349D01*
X78340632Y-108524170D01*
X78322219Y-108513134D01*
X78304976Y-108500346D01*
X78289070Y-108485930D01*
X78274654Y-108470024D01*
X78261866Y-108452781D01*
X78250830Y-108434368D01*
X78241651Y-108414962D01*
X78234419Y-108394750D01*
X78229203Y-108373926D01*
X78226053Y-108352691D01*
X78225000Y-108331250D01*
X78225000Y-107893750D01*
X78226053Y-107872309D01*
X78229203Y-107851074D01*
X78234419Y-107830250D01*
X78241651Y-107810038D01*
X78250830Y-107790632D01*
X78261866Y-107772219D01*
X78274654Y-107754976D01*
X78289070Y-107739070D01*
X78304976Y-107724654D01*
X78322219Y-107711866D01*
X78340632Y-107700830D01*
X78360038Y-107691651D01*
X78380250Y-107684419D01*
X78401074Y-107679203D01*
X78422309Y-107676053D01*
X78443750Y-107675000D01*
X78956250Y-107675000D01*
X78977691Y-107676053D01*
X78977691Y-107676053D01*
G37*
D21*
X78700000Y-108112500D03*
D11*
G36*
X78977691Y-109251053D02*
X78998926Y-109254203D01*
X79019750Y-109259419D01*
X79039962Y-109266651D01*
X79059368Y-109275830D01*
X79077781Y-109286866D01*
X79095024Y-109299654D01*
X79110930Y-109314070D01*
X79125346Y-109329976D01*
X79138134Y-109347219D01*
X79149170Y-109365632D01*
X79158349Y-109385038D01*
X79165581Y-109405250D01*
X79170797Y-109426074D01*
X79173947Y-109447309D01*
X79175000Y-109468750D01*
X79175000Y-109906250D01*
X79173947Y-109927691D01*
X79170797Y-109948926D01*
X79165581Y-109969750D01*
X79158349Y-109989962D01*
X79149170Y-110009368D01*
X79138134Y-110027781D01*
X79125346Y-110045024D01*
X79110930Y-110060930D01*
X79095024Y-110075346D01*
X79077781Y-110088134D01*
X79059368Y-110099170D01*
X79039962Y-110108349D01*
X79019750Y-110115581D01*
X78998926Y-110120797D01*
X78977691Y-110123947D01*
X78956250Y-110125000D01*
X78443750Y-110125000D01*
X78422309Y-110123947D01*
X78401074Y-110120797D01*
X78380250Y-110115581D01*
X78360038Y-110108349D01*
X78340632Y-110099170D01*
X78322219Y-110088134D01*
X78304976Y-110075346D01*
X78289070Y-110060930D01*
X78274654Y-110045024D01*
X78261866Y-110027781D01*
X78250830Y-110009368D01*
X78241651Y-109989962D01*
X78234419Y-109969750D01*
X78229203Y-109948926D01*
X78226053Y-109927691D01*
X78225000Y-109906250D01*
X78225000Y-109468750D01*
X78226053Y-109447309D01*
X78229203Y-109426074D01*
X78234419Y-109405250D01*
X78241651Y-109385038D01*
X78250830Y-109365632D01*
X78261866Y-109347219D01*
X78274654Y-109329976D01*
X78289070Y-109314070D01*
X78304976Y-109299654D01*
X78322219Y-109286866D01*
X78340632Y-109275830D01*
X78360038Y-109266651D01*
X78380250Y-109259419D01*
X78401074Y-109254203D01*
X78422309Y-109251053D01*
X78443750Y-109250000D01*
X78956250Y-109250000D01*
X78977691Y-109251053D01*
X78977691Y-109251053D01*
G37*
D21*
X78700000Y-109687500D03*
G04 #@! TD*
D11*
G04 #@! TO.C,R10*
G36*
X78977691Y-70576053D02*
X78998926Y-70579203D01*
X79019750Y-70584419D01*
X79039962Y-70591651D01*
X79059368Y-70600830D01*
X79077781Y-70611866D01*
X79095024Y-70624654D01*
X79110930Y-70639070D01*
X79125346Y-70654976D01*
X79138134Y-70672219D01*
X79149170Y-70690632D01*
X79158349Y-70710038D01*
X79165581Y-70730250D01*
X79170797Y-70751074D01*
X79173947Y-70772309D01*
X79175000Y-70793750D01*
X79175000Y-71231250D01*
X79173947Y-71252691D01*
X79170797Y-71273926D01*
X79165581Y-71294750D01*
X79158349Y-71314962D01*
X79149170Y-71334368D01*
X79138134Y-71352781D01*
X79125346Y-71370024D01*
X79110930Y-71385930D01*
X79095024Y-71400346D01*
X79077781Y-71413134D01*
X79059368Y-71424170D01*
X79039962Y-71433349D01*
X79019750Y-71440581D01*
X78998926Y-71445797D01*
X78977691Y-71448947D01*
X78956250Y-71450000D01*
X78443750Y-71450000D01*
X78422309Y-71448947D01*
X78401074Y-71445797D01*
X78380250Y-71440581D01*
X78360038Y-71433349D01*
X78340632Y-71424170D01*
X78322219Y-71413134D01*
X78304976Y-71400346D01*
X78289070Y-71385930D01*
X78274654Y-71370024D01*
X78261866Y-71352781D01*
X78250830Y-71334368D01*
X78241651Y-71314962D01*
X78234419Y-71294750D01*
X78229203Y-71273926D01*
X78226053Y-71252691D01*
X78225000Y-71231250D01*
X78225000Y-70793750D01*
X78226053Y-70772309D01*
X78229203Y-70751074D01*
X78234419Y-70730250D01*
X78241651Y-70710038D01*
X78250830Y-70690632D01*
X78261866Y-70672219D01*
X78274654Y-70654976D01*
X78289070Y-70639070D01*
X78304976Y-70624654D01*
X78322219Y-70611866D01*
X78340632Y-70600830D01*
X78360038Y-70591651D01*
X78380250Y-70584419D01*
X78401074Y-70579203D01*
X78422309Y-70576053D01*
X78443750Y-70575000D01*
X78956250Y-70575000D01*
X78977691Y-70576053D01*
X78977691Y-70576053D01*
G37*
D21*
X78700000Y-71012500D03*
D11*
G36*
X78977691Y-72151053D02*
X78998926Y-72154203D01*
X79019750Y-72159419D01*
X79039962Y-72166651D01*
X79059368Y-72175830D01*
X79077781Y-72186866D01*
X79095024Y-72199654D01*
X79110930Y-72214070D01*
X79125346Y-72229976D01*
X79138134Y-72247219D01*
X79149170Y-72265632D01*
X79158349Y-72285038D01*
X79165581Y-72305250D01*
X79170797Y-72326074D01*
X79173947Y-72347309D01*
X79175000Y-72368750D01*
X79175000Y-72806250D01*
X79173947Y-72827691D01*
X79170797Y-72848926D01*
X79165581Y-72869750D01*
X79158349Y-72889962D01*
X79149170Y-72909368D01*
X79138134Y-72927781D01*
X79125346Y-72945024D01*
X79110930Y-72960930D01*
X79095024Y-72975346D01*
X79077781Y-72988134D01*
X79059368Y-72999170D01*
X79039962Y-73008349D01*
X79019750Y-73015581D01*
X78998926Y-73020797D01*
X78977691Y-73023947D01*
X78956250Y-73025000D01*
X78443750Y-73025000D01*
X78422309Y-73023947D01*
X78401074Y-73020797D01*
X78380250Y-73015581D01*
X78360038Y-73008349D01*
X78340632Y-72999170D01*
X78322219Y-72988134D01*
X78304976Y-72975346D01*
X78289070Y-72960930D01*
X78274654Y-72945024D01*
X78261866Y-72927781D01*
X78250830Y-72909368D01*
X78241651Y-72889962D01*
X78234419Y-72869750D01*
X78229203Y-72848926D01*
X78226053Y-72827691D01*
X78225000Y-72806250D01*
X78225000Y-72368750D01*
X78226053Y-72347309D01*
X78229203Y-72326074D01*
X78234419Y-72305250D01*
X78241651Y-72285038D01*
X78250830Y-72265632D01*
X78261866Y-72247219D01*
X78274654Y-72229976D01*
X78289070Y-72214070D01*
X78304976Y-72199654D01*
X78322219Y-72186866D01*
X78340632Y-72175830D01*
X78360038Y-72166651D01*
X78380250Y-72159419D01*
X78401074Y-72154203D01*
X78422309Y-72151053D01*
X78443750Y-72150000D01*
X78956250Y-72150000D01*
X78977691Y-72151053D01*
X78977691Y-72151053D01*
G37*
D21*
X78700000Y-72587500D03*
G04 #@! TD*
D11*
G04 #@! TO.C,R11*
G36*
X76477691Y-103551053D02*
X76498926Y-103554203D01*
X76519750Y-103559419D01*
X76539962Y-103566651D01*
X76559368Y-103575830D01*
X76577781Y-103586866D01*
X76595024Y-103599654D01*
X76610930Y-103614070D01*
X76625346Y-103629976D01*
X76638134Y-103647219D01*
X76649170Y-103665632D01*
X76658349Y-103685038D01*
X76665581Y-103705250D01*
X76670797Y-103726074D01*
X76673947Y-103747309D01*
X76675000Y-103768750D01*
X76675000Y-104206250D01*
X76673947Y-104227691D01*
X76670797Y-104248926D01*
X76665581Y-104269750D01*
X76658349Y-104289962D01*
X76649170Y-104309368D01*
X76638134Y-104327781D01*
X76625346Y-104345024D01*
X76610930Y-104360930D01*
X76595024Y-104375346D01*
X76577781Y-104388134D01*
X76559368Y-104399170D01*
X76539962Y-104408349D01*
X76519750Y-104415581D01*
X76498926Y-104420797D01*
X76477691Y-104423947D01*
X76456250Y-104425000D01*
X75943750Y-104425000D01*
X75922309Y-104423947D01*
X75901074Y-104420797D01*
X75880250Y-104415581D01*
X75860038Y-104408349D01*
X75840632Y-104399170D01*
X75822219Y-104388134D01*
X75804976Y-104375346D01*
X75789070Y-104360930D01*
X75774654Y-104345024D01*
X75761866Y-104327781D01*
X75750830Y-104309368D01*
X75741651Y-104289962D01*
X75734419Y-104269750D01*
X75729203Y-104248926D01*
X75726053Y-104227691D01*
X75725000Y-104206250D01*
X75725000Y-103768750D01*
X75726053Y-103747309D01*
X75729203Y-103726074D01*
X75734419Y-103705250D01*
X75741651Y-103685038D01*
X75750830Y-103665632D01*
X75761866Y-103647219D01*
X75774654Y-103629976D01*
X75789070Y-103614070D01*
X75804976Y-103599654D01*
X75822219Y-103586866D01*
X75840632Y-103575830D01*
X75860038Y-103566651D01*
X75880250Y-103559419D01*
X75901074Y-103554203D01*
X75922309Y-103551053D01*
X75943750Y-103550000D01*
X76456250Y-103550000D01*
X76477691Y-103551053D01*
X76477691Y-103551053D01*
G37*
D21*
X76200000Y-103987500D03*
D11*
G36*
X76477691Y-101976053D02*
X76498926Y-101979203D01*
X76519750Y-101984419D01*
X76539962Y-101991651D01*
X76559368Y-102000830D01*
X76577781Y-102011866D01*
X76595024Y-102024654D01*
X76610930Y-102039070D01*
X76625346Y-102054976D01*
X76638134Y-102072219D01*
X76649170Y-102090632D01*
X76658349Y-102110038D01*
X76665581Y-102130250D01*
X76670797Y-102151074D01*
X76673947Y-102172309D01*
X76675000Y-102193750D01*
X76675000Y-102631250D01*
X76673947Y-102652691D01*
X76670797Y-102673926D01*
X76665581Y-102694750D01*
X76658349Y-102714962D01*
X76649170Y-102734368D01*
X76638134Y-102752781D01*
X76625346Y-102770024D01*
X76610930Y-102785930D01*
X76595024Y-102800346D01*
X76577781Y-102813134D01*
X76559368Y-102824170D01*
X76539962Y-102833349D01*
X76519750Y-102840581D01*
X76498926Y-102845797D01*
X76477691Y-102848947D01*
X76456250Y-102850000D01*
X75943750Y-102850000D01*
X75922309Y-102848947D01*
X75901074Y-102845797D01*
X75880250Y-102840581D01*
X75860038Y-102833349D01*
X75840632Y-102824170D01*
X75822219Y-102813134D01*
X75804976Y-102800346D01*
X75789070Y-102785930D01*
X75774654Y-102770024D01*
X75761866Y-102752781D01*
X75750830Y-102734368D01*
X75741651Y-102714962D01*
X75734419Y-102694750D01*
X75729203Y-102673926D01*
X75726053Y-102652691D01*
X75725000Y-102631250D01*
X75725000Y-102193750D01*
X75726053Y-102172309D01*
X75729203Y-102151074D01*
X75734419Y-102130250D01*
X75741651Y-102110038D01*
X75750830Y-102090632D01*
X75761866Y-102072219D01*
X75774654Y-102054976D01*
X75789070Y-102039070D01*
X75804976Y-102024654D01*
X75822219Y-102011866D01*
X75840632Y-102000830D01*
X75860038Y-101991651D01*
X75880250Y-101984419D01*
X75901074Y-101979203D01*
X75922309Y-101976053D01*
X75943750Y-101975000D01*
X76456250Y-101975000D01*
X76477691Y-101976053D01*
X76477691Y-101976053D01*
G37*
D21*
X76200000Y-102412500D03*
G04 #@! TD*
D11*
G04 #@! TO.C,R12*
G36*
X85277691Y-107676053D02*
X85298926Y-107679203D01*
X85319750Y-107684419D01*
X85339962Y-107691651D01*
X85359368Y-107700830D01*
X85377781Y-107711866D01*
X85395024Y-107724654D01*
X85410930Y-107739070D01*
X85425346Y-107754976D01*
X85438134Y-107772219D01*
X85449170Y-107790632D01*
X85458349Y-107810038D01*
X85465581Y-107830250D01*
X85470797Y-107851074D01*
X85473947Y-107872309D01*
X85475000Y-107893750D01*
X85475000Y-108331250D01*
X85473947Y-108352691D01*
X85470797Y-108373926D01*
X85465581Y-108394750D01*
X85458349Y-108414962D01*
X85449170Y-108434368D01*
X85438134Y-108452781D01*
X85425346Y-108470024D01*
X85410930Y-108485930D01*
X85395024Y-108500346D01*
X85377781Y-108513134D01*
X85359368Y-108524170D01*
X85339962Y-108533349D01*
X85319750Y-108540581D01*
X85298926Y-108545797D01*
X85277691Y-108548947D01*
X85256250Y-108550000D01*
X84743750Y-108550000D01*
X84722309Y-108548947D01*
X84701074Y-108545797D01*
X84680250Y-108540581D01*
X84660038Y-108533349D01*
X84640632Y-108524170D01*
X84622219Y-108513134D01*
X84604976Y-108500346D01*
X84589070Y-108485930D01*
X84574654Y-108470024D01*
X84561866Y-108452781D01*
X84550830Y-108434368D01*
X84541651Y-108414962D01*
X84534419Y-108394750D01*
X84529203Y-108373926D01*
X84526053Y-108352691D01*
X84525000Y-108331250D01*
X84525000Y-107893750D01*
X84526053Y-107872309D01*
X84529203Y-107851074D01*
X84534419Y-107830250D01*
X84541651Y-107810038D01*
X84550830Y-107790632D01*
X84561866Y-107772219D01*
X84574654Y-107754976D01*
X84589070Y-107739070D01*
X84604976Y-107724654D01*
X84622219Y-107711866D01*
X84640632Y-107700830D01*
X84660038Y-107691651D01*
X84680250Y-107684419D01*
X84701074Y-107679203D01*
X84722309Y-107676053D01*
X84743750Y-107675000D01*
X85256250Y-107675000D01*
X85277691Y-107676053D01*
X85277691Y-107676053D01*
G37*
D21*
X85000000Y-108112500D03*
D11*
G36*
X85277691Y-109251053D02*
X85298926Y-109254203D01*
X85319750Y-109259419D01*
X85339962Y-109266651D01*
X85359368Y-109275830D01*
X85377781Y-109286866D01*
X85395024Y-109299654D01*
X85410930Y-109314070D01*
X85425346Y-109329976D01*
X85438134Y-109347219D01*
X85449170Y-109365632D01*
X85458349Y-109385038D01*
X85465581Y-109405250D01*
X85470797Y-109426074D01*
X85473947Y-109447309D01*
X85475000Y-109468750D01*
X85475000Y-109906250D01*
X85473947Y-109927691D01*
X85470797Y-109948926D01*
X85465581Y-109969750D01*
X85458349Y-109989962D01*
X85449170Y-110009368D01*
X85438134Y-110027781D01*
X85425346Y-110045024D01*
X85410930Y-110060930D01*
X85395024Y-110075346D01*
X85377781Y-110088134D01*
X85359368Y-110099170D01*
X85339962Y-110108349D01*
X85319750Y-110115581D01*
X85298926Y-110120797D01*
X85277691Y-110123947D01*
X85256250Y-110125000D01*
X84743750Y-110125000D01*
X84722309Y-110123947D01*
X84701074Y-110120797D01*
X84680250Y-110115581D01*
X84660038Y-110108349D01*
X84640632Y-110099170D01*
X84622219Y-110088134D01*
X84604976Y-110075346D01*
X84589070Y-110060930D01*
X84574654Y-110045024D01*
X84561866Y-110027781D01*
X84550830Y-110009368D01*
X84541651Y-109989962D01*
X84534419Y-109969750D01*
X84529203Y-109948926D01*
X84526053Y-109927691D01*
X84525000Y-109906250D01*
X84525000Y-109468750D01*
X84526053Y-109447309D01*
X84529203Y-109426074D01*
X84534419Y-109405250D01*
X84541651Y-109385038D01*
X84550830Y-109365632D01*
X84561866Y-109347219D01*
X84574654Y-109329976D01*
X84589070Y-109314070D01*
X84604976Y-109299654D01*
X84622219Y-109286866D01*
X84640632Y-109275830D01*
X84660038Y-109266651D01*
X84680250Y-109259419D01*
X84701074Y-109254203D01*
X84722309Y-109251053D01*
X84743750Y-109250000D01*
X85256250Y-109250000D01*
X85277691Y-109251053D01*
X85277691Y-109251053D01*
G37*
D21*
X85000000Y-109687500D03*
G04 #@! TD*
D11*
G04 #@! TO.C,R13*
G36*
X80477691Y-109251053D02*
X80498926Y-109254203D01*
X80519750Y-109259419D01*
X80539962Y-109266651D01*
X80559368Y-109275830D01*
X80577781Y-109286866D01*
X80595024Y-109299654D01*
X80610930Y-109314070D01*
X80625346Y-109329976D01*
X80638134Y-109347219D01*
X80649170Y-109365632D01*
X80658349Y-109385038D01*
X80665581Y-109405250D01*
X80670797Y-109426074D01*
X80673947Y-109447309D01*
X80675000Y-109468750D01*
X80675000Y-109906250D01*
X80673947Y-109927691D01*
X80670797Y-109948926D01*
X80665581Y-109969750D01*
X80658349Y-109989962D01*
X80649170Y-110009368D01*
X80638134Y-110027781D01*
X80625346Y-110045024D01*
X80610930Y-110060930D01*
X80595024Y-110075346D01*
X80577781Y-110088134D01*
X80559368Y-110099170D01*
X80539962Y-110108349D01*
X80519750Y-110115581D01*
X80498926Y-110120797D01*
X80477691Y-110123947D01*
X80456250Y-110125000D01*
X79943750Y-110125000D01*
X79922309Y-110123947D01*
X79901074Y-110120797D01*
X79880250Y-110115581D01*
X79860038Y-110108349D01*
X79840632Y-110099170D01*
X79822219Y-110088134D01*
X79804976Y-110075346D01*
X79789070Y-110060930D01*
X79774654Y-110045024D01*
X79761866Y-110027781D01*
X79750830Y-110009368D01*
X79741651Y-109989962D01*
X79734419Y-109969750D01*
X79729203Y-109948926D01*
X79726053Y-109927691D01*
X79725000Y-109906250D01*
X79725000Y-109468750D01*
X79726053Y-109447309D01*
X79729203Y-109426074D01*
X79734419Y-109405250D01*
X79741651Y-109385038D01*
X79750830Y-109365632D01*
X79761866Y-109347219D01*
X79774654Y-109329976D01*
X79789070Y-109314070D01*
X79804976Y-109299654D01*
X79822219Y-109286866D01*
X79840632Y-109275830D01*
X79860038Y-109266651D01*
X79880250Y-109259419D01*
X79901074Y-109254203D01*
X79922309Y-109251053D01*
X79943750Y-109250000D01*
X80456250Y-109250000D01*
X80477691Y-109251053D01*
X80477691Y-109251053D01*
G37*
D21*
X80200000Y-109687500D03*
D11*
G36*
X80477691Y-107676053D02*
X80498926Y-107679203D01*
X80519750Y-107684419D01*
X80539962Y-107691651D01*
X80559368Y-107700830D01*
X80577781Y-107711866D01*
X80595024Y-107724654D01*
X80610930Y-107739070D01*
X80625346Y-107754976D01*
X80638134Y-107772219D01*
X80649170Y-107790632D01*
X80658349Y-107810038D01*
X80665581Y-107830250D01*
X80670797Y-107851074D01*
X80673947Y-107872309D01*
X80675000Y-107893750D01*
X80675000Y-108331250D01*
X80673947Y-108352691D01*
X80670797Y-108373926D01*
X80665581Y-108394750D01*
X80658349Y-108414962D01*
X80649170Y-108434368D01*
X80638134Y-108452781D01*
X80625346Y-108470024D01*
X80610930Y-108485930D01*
X80595024Y-108500346D01*
X80577781Y-108513134D01*
X80559368Y-108524170D01*
X80539962Y-108533349D01*
X80519750Y-108540581D01*
X80498926Y-108545797D01*
X80477691Y-108548947D01*
X80456250Y-108550000D01*
X79943750Y-108550000D01*
X79922309Y-108548947D01*
X79901074Y-108545797D01*
X79880250Y-108540581D01*
X79860038Y-108533349D01*
X79840632Y-108524170D01*
X79822219Y-108513134D01*
X79804976Y-108500346D01*
X79789070Y-108485930D01*
X79774654Y-108470024D01*
X79761866Y-108452781D01*
X79750830Y-108434368D01*
X79741651Y-108414962D01*
X79734419Y-108394750D01*
X79729203Y-108373926D01*
X79726053Y-108352691D01*
X79725000Y-108331250D01*
X79725000Y-107893750D01*
X79726053Y-107872309D01*
X79729203Y-107851074D01*
X79734419Y-107830250D01*
X79741651Y-107810038D01*
X79750830Y-107790632D01*
X79761866Y-107772219D01*
X79774654Y-107754976D01*
X79789070Y-107739070D01*
X79804976Y-107724654D01*
X79822219Y-107711866D01*
X79840632Y-107700830D01*
X79860038Y-107691651D01*
X79880250Y-107684419D01*
X79901074Y-107679203D01*
X79922309Y-107676053D01*
X79943750Y-107675000D01*
X80456250Y-107675000D01*
X80477691Y-107676053D01*
X80477691Y-107676053D01*
G37*
D21*
X80200000Y-108112500D03*
G04 #@! TD*
D11*
G04 #@! TO.C,R14*
G36*
X61877691Y-113951053D02*
X61898926Y-113954203D01*
X61919750Y-113959419D01*
X61939962Y-113966651D01*
X61959368Y-113975830D01*
X61977781Y-113986866D01*
X61995024Y-113999654D01*
X62010930Y-114014070D01*
X62025346Y-114029976D01*
X62038134Y-114047219D01*
X62049170Y-114065632D01*
X62058349Y-114085038D01*
X62065581Y-114105250D01*
X62070797Y-114126074D01*
X62073947Y-114147309D01*
X62075000Y-114168750D01*
X62075000Y-114606250D01*
X62073947Y-114627691D01*
X62070797Y-114648926D01*
X62065581Y-114669750D01*
X62058349Y-114689962D01*
X62049170Y-114709368D01*
X62038134Y-114727781D01*
X62025346Y-114745024D01*
X62010930Y-114760930D01*
X61995024Y-114775346D01*
X61977781Y-114788134D01*
X61959368Y-114799170D01*
X61939962Y-114808349D01*
X61919750Y-114815581D01*
X61898926Y-114820797D01*
X61877691Y-114823947D01*
X61856250Y-114825000D01*
X61343750Y-114825000D01*
X61322309Y-114823947D01*
X61301074Y-114820797D01*
X61280250Y-114815581D01*
X61260038Y-114808349D01*
X61240632Y-114799170D01*
X61222219Y-114788134D01*
X61204976Y-114775346D01*
X61189070Y-114760930D01*
X61174654Y-114745024D01*
X61161866Y-114727781D01*
X61150830Y-114709368D01*
X61141651Y-114689962D01*
X61134419Y-114669750D01*
X61129203Y-114648926D01*
X61126053Y-114627691D01*
X61125000Y-114606250D01*
X61125000Y-114168750D01*
X61126053Y-114147309D01*
X61129203Y-114126074D01*
X61134419Y-114105250D01*
X61141651Y-114085038D01*
X61150830Y-114065632D01*
X61161866Y-114047219D01*
X61174654Y-114029976D01*
X61189070Y-114014070D01*
X61204976Y-113999654D01*
X61222219Y-113986866D01*
X61240632Y-113975830D01*
X61260038Y-113966651D01*
X61280250Y-113959419D01*
X61301074Y-113954203D01*
X61322309Y-113951053D01*
X61343750Y-113950000D01*
X61856250Y-113950000D01*
X61877691Y-113951053D01*
X61877691Y-113951053D01*
G37*
D21*
X61600000Y-114387500D03*
D11*
G36*
X61877691Y-112376053D02*
X61898926Y-112379203D01*
X61919750Y-112384419D01*
X61939962Y-112391651D01*
X61959368Y-112400830D01*
X61977781Y-112411866D01*
X61995024Y-112424654D01*
X62010930Y-112439070D01*
X62025346Y-112454976D01*
X62038134Y-112472219D01*
X62049170Y-112490632D01*
X62058349Y-112510038D01*
X62065581Y-112530250D01*
X62070797Y-112551074D01*
X62073947Y-112572309D01*
X62075000Y-112593750D01*
X62075000Y-113031250D01*
X62073947Y-113052691D01*
X62070797Y-113073926D01*
X62065581Y-113094750D01*
X62058349Y-113114962D01*
X62049170Y-113134368D01*
X62038134Y-113152781D01*
X62025346Y-113170024D01*
X62010930Y-113185930D01*
X61995024Y-113200346D01*
X61977781Y-113213134D01*
X61959368Y-113224170D01*
X61939962Y-113233349D01*
X61919750Y-113240581D01*
X61898926Y-113245797D01*
X61877691Y-113248947D01*
X61856250Y-113250000D01*
X61343750Y-113250000D01*
X61322309Y-113248947D01*
X61301074Y-113245797D01*
X61280250Y-113240581D01*
X61260038Y-113233349D01*
X61240632Y-113224170D01*
X61222219Y-113213134D01*
X61204976Y-113200346D01*
X61189070Y-113185930D01*
X61174654Y-113170024D01*
X61161866Y-113152781D01*
X61150830Y-113134368D01*
X61141651Y-113114962D01*
X61134419Y-113094750D01*
X61129203Y-113073926D01*
X61126053Y-113052691D01*
X61125000Y-113031250D01*
X61125000Y-112593750D01*
X61126053Y-112572309D01*
X61129203Y-112551074D01*
X61134419Y-112530250D01*
X61141651Y-112510038D01*
X61150830Y-112490632D01*
X61161866Y-112472219D01*
X61174654Y-112454976D01*
X61189070Y-112439070D01*
X61204976Y-112424654D01*
X61222219Y-112411866D01*
X61240632Y-112400830D01*
X61260038Y-112391651D01*
X61280250Y-112384419D01*
X61301074Y-112379203D01*
X61322309Y-112376053D01*
X61343750Y-112375000D01*
X61856250Y-112375000D01*
X61877691Y-112376053D01*
X61877691Y-112376053D01*
G37*
D21*
X61600000Y-112812500D03*
G04 #@! TD*
D11*
G04 #@! TO.C,R25*
G36*
X82677691Y-79376053D02*
X82698926Y-79379203D01*
X82719750Y-79384419D01*
X82739962Y-79391651D01*
X82759368Y-79400830D01*
X82777781Y-79411866D01*
X82795024Y-79424654D01*
X82810930Y-79439070D01*
X82825346Y-79454976D01*
X82838134Y-79472219D01*
X82849170Y-79490632D01*
X82858349Y-79510038D01*
X82865581Y-79530250D01*
X82870797Y-79551074D01*
X82873947Y-79572309D01*
X82875000Y-79593750D01*
X82875000Y-80031250D01*
X82873947Y-80052691D01*
X82870797Y-80073926D01*
X82865581Y-80094750D01*
X82858349Y-80114962D01*
X82849170Y-80134368D01*
X82838134Y-80152781D01*
X82825346Y-80170024D01*
X82810930Y-80185930D01*
X82795024Y-80200346D01*
X82777781Y-80213134D01*
X82759368Y-80224170D01*
X82739962Y-80233349D01*
X82719750Y-80240581D01*
X82698926Y-80245797D01*
X82677691Y-80248947D01*
X82656250Y-80250000D01*
X82143750Y-80250000D01*
X82122309Y-80248947D01*
X82101074Y-80245797D01*
X82080250Y-80240581D01*
X82060038Y-80233349D01*
X82040632Y-80224170D01*
X82022219Y-80213134D01*
X82004976Y-80200346D01*
X81989070Y-80185930D01*
X81974654Y-80170024D01*
X81961866Y-80152781D01*
X81950830Y-80134368D01*
X81941651Y-80114962D01*
X81934419Y-80094750D01*
X81929203Y-80073926D01*
X81926053Y-80052691D01*
X81925000Y-80031250D01*
X81925000Y-79593750D01*
X81926053Y-79572309D01*
X81929203Y-79551074D01*
X81934419Y-79530250D01*
X81941651Y-79510038D01*
X81950830Y-79490632D01*
X81961866Y-79472219D01*
X81974654Y-79454976D01*
X81989070Y-79439070D01*
X82004976Y-79424654D01*
X82022219Y-79411866D01*
X82040632Y-79400830D01*
X82060038Y-79391651D01*
X82080250Y-79384419D01*
X82101074Y-79379203D01*
X82122309Y-79376053D01*
X82143750Y-79375000D01*
X82656250Y-79375000D01*
X82677691Y-79376053D01*
X82677691Y-79376053D01*
G37*
D21*
X82400000Y-79812500D03*
D11*
G36*
X82677691Y-80951053D02*
X82698926Y-80954203D01*
X82719750Y-80959419D01*
X82739962Y-80966651D01*
X82759368Y-80975830D01*
X82777781Y-80986866D01*
X82795024Y-80999654D01*
X82810930Y-81014070D01*
X82825346Y-81029976D01*
X82838134Y-81047219D01*
X82849170Y-81065632D01*
X82858349Y-81085038D01*
X82865581Y-81105250D01*
X82870797Y-81126074D01*
X82873947Y-81147309D01*
X82875000Y-81168750D01*
X82875000Y-81606250D01*
X82873947Y-81627691D01*
X82870797Y-81648926D01*
X82865581Y-81669750D01*
X82858349Y-81689962D01*
X82849170Y-81709368D01*
X82838134Y-81727781D01*
X82825346Y-81745024D01*
X82810930Y-81760930D01*
X82795024Y-81775346D01*
X82777781Y-81788134D01*
X82759368Y-81799170D01*
X82739962Y-81808349D01*
X82719750Y-81815581D01*
X82698926Y-81820797D01*
X82677691Y-81823947D01*
X82656250Y-81825000D01*
X82143750Y-81825000D01*
X82122309Y-81823947D01*
X82101074Y-81820797D01*
X82080250Y-81815581D01*
X82060038Y-81808349D01*
X82040632Y-81799170D01*
X82022219Y-81788134D01*
X82004976Y-81775346D01*
X81989070Y-81760930D01*
X81974654Y-81745024D01*
X81961866Y-81727781D01*
X81950830Y-81709368D01*
X81941651Y-81689962D01*
X81934419Y-81669750D01*
X81929203Y-81648926D01*
X81926053Y-81627691D01*
X81925000Y-81606250D01*
X81925000Y-81168750D01*
X81926053Y-81147309D01*
X81929203Y-81126074D01*
X81934419Y-81105250D01*
X81941651Y-81085038D01*
X81950830Y-81065632D01*
X81961866Y-81047219D01*
X81974654Y-81029976D01*
X81989070Y-81014070D01*
X82004976Y-80999654D01*
X82022219Y-80986866D01*
X82040632Y-80975830D01*
X82060038Y-80966651D01*
X82080250Y-80959419D01*
X82101074Y-80954203D01*
X82122309Y-80951053D01*
X82143750Y-80950000D01*
X82656250Y-80950000D01*
X82677691Y-80951053D01*
X82677691Y-80951053D01*
G37*
D21*
X82400000Y-81387500D03*
G04 #@! TD*
D11*
G04 #@! TO.C,R26*
G36*
X81177691Y-79376053D02*
X81198926Y-79379203D01*
X81219750Y-79384419D01*
X81239962Y-79391651D01*
X81259368Y-79400830D01*
X81277781Y-79411866D01*
X81295024Y-79424654D01*
X81310930Y-79439070D01*
X81325346Y-79454976D01*
X81338134Y-79472219D01*
X81349170Y-79490632D01*
X81358349Y-79510038D01*
X81365581Y-79530250D01*
X81370797Y-79551074D01*
X81373947Y-79572309D01*
X81375000Y-79593750D01*
X81375000Y-80031250D01*
X81373947Y-80052691D01*
X81370797Y-80073926D01*
X81365581Y-80094750D01*
X81358349Y-80114962D01*
X81349170Y-80134368D01*
X81338134Y-80152781D01*
X81325346Y-80170024D01*
X81310930Y-80185930D01*
X81295024Y-80200346D01*
X81277781Y-80213134D01*
X81259368Y-80224170D01*
X81239962Y-80233349D01*
X81219750Y-80240581D01*
X81198926Y-80245797D01*
X81177691Y-80248947D01*
X81156250Y-80250000D01*
X80643750Y-80250000D01*
X80622309Y-80248947D01*
X80601074Y-80245797D01*
X80580250Y-80240581D01*
X80560038Y-80233349D01*
X80540632Y-80224170D01*
X80522219Y-80213134D01*
X80504976Y-80200346D01*
X80489070Y-80185930D01*
X80474654Y-80170024D01*
X80461866Y-80152781D01*
X80450830Y-80134368D01*
X80441651Y-80114962D01*
X80434419Y-80094750D01*
X80429203Y-80073926D01*
X80426053Y-80052691D01*
X80425000Y-80031250D01*
X80425000Y-79593750D01*
X80426053Y-79572309D01*
X80429203Y-79551074D01*
X80434419Y-79530250D01*
X80441651Y-79510038D01*
X80450830Y-79490632D01*
X80461866Y-79472219D01*
X80474654Y-79454976D01*
X80489070Y-79439070D01*
X80504976Y-79424654D01*
X80522219Y-79411866D01*
X80540632Y-79400830D01*
X80560038Y-79391651D01*
X80580250Y-79384419D01*
X80601074Y-79379203D01*
X80622309Y-79376053D01*
X80643750Y-79375000D01*
X81156250Y-79375000D01*
X81177691Y-79376053D01*
X81177691Y-79376053D01*
G37*
D21*
X80900000Y-79812500D03*
D11*
G36*
X81177691Y-80951053D02*
X81198926Y-80954203D01*
X81219750Y-80959419D01*
X81239962Y-80966651D01*
X81259368Y-80975830D01*
X81277781Y-80986866D01*
X81295024Y-80999654D01*
X81310930Y-81014070D01*
X81325346Y-81029976D01*
X81338134Y-81047219D01*
X81349170Y-81065632D01*
X81358349Y-81085038D01*
X81365581Y-81105250D01*
X81370797Y-81126074D01*
X81373947Y-81147309D01*
X81375000Y-81168750D01*
X81375000Y-81606250D01*
X81373947Y-81627691D01*
X81370797Y-81648926D01*
X81365581Y-81669750D01*
X81358349Y-81689962D01*
X81349170Y-81709368D01*
X81338134Y-81727781D01*
X81325346Y-81745024D01*
X81310930Y-81760930D01*
X81295024Y-81775346D01*
X81277781Y-81788134D01*
X81259368Y-81799170D01*
X81239962Y-81808349D01*
X81219750Y-81815581D01*
X81198926Y-81820797D01*
X81177691Y-81823947D01*
X81156250Y-81825000D01*
X80643750Y-81825000D01*
X80622309Y-81823947D01*
X80601074Y-81820797D01*
X80580250Y-81815581D01*
X80560038Y-81808349D01*
X80540632Y-81799170D01*
X80522219Y-81788134D01*
X80504976Y-81775346D01*
X80489070Y-81760930D01*
X80474654Y-81745024D01*
X80461866Y-81727781D01*
X80450830Y-81709368D01*
X80441651Y-81689962D01*
X80434419Y-81669750D01*
X80429203Y-81648926D01*
X80426053Y-81627691D01*
X80425000Y-81606250D01*
X80425000Y-81168750D01*
X80426053Y-81147309D01*
X80429203Y-81126074D01*
X80434419Y-81105250D01*
X80441651Y-81085038D01*
X80450830Y-81065632D01*
X80461866Y-81047219D01*
X80474654Y-81029976D01*
X80489070Y-81014070D01*
X80504976Y-80999654D01*
X80522219Y-80986866D01*
X80540632Y-80975830D01*
X80560038Y-80966651D01*
X80580250Y-80959419D01*
X80601074Y-80954203D01*
X80622309Y-80951053D01*
X80643750Y-80950000D01*
X81156250Y-80950000D01*
X81177691Y-80951053D01*
X81177691Y-80951053D01*
G37*
D21*
X80900000Y-81387500D03*
G04 #@! TD*
D11*
G04 #@! TO.C,R24*
G36*
X77977691Y-101976053D02*
X77998926Y-101979203D01*
X78019750Y-101984419D01*
X78039962Y-101991651D01*
X78059368Y-102000830D01*
X78077781Y-102011866D01*
X78095024Y-102024654D01*
X78110930Y-102039070D01*
X78125346Y-102054976D01*
X78138134Y-102072219D01*
X78149170Y-102090632D01*
X78158349Y-102110038D01*
X78165581Y-102130250D01*
X78170797Y-102151074D01*
X78173947Y-102172309D01*
X78175000Y-102193750D01*
X78175000Y-102631250D01*
X78173947Y-102652691D01*
X78170797Y-102673926D01*
X78165581Y-102694750D01*
X78158349Y-102714962D01*
X78149170Y-102734368D01*
X78138134Y-102752781D01*
X78125346Y-102770024D01*
X78110930Y-102785930D01*
X78095024Y-102800346D01*
X78077781Y-102813134D01*
X78059368Y-102824170D01*
X78039962Y-102833349D01*
X78019750Y-102840581D01*
X77998926Y-102845797D01*
X77977691Y-102848947D01*
X77956250Y-102850000D01*
X77443750Y-102850000D01*
X77422309Y-102848947D01*
X77401074Y-102845797D01*
X77380250Y-102840581D01*
X77360038Y-102833349D01*
X77340632Y-102824170D01*
X77322219Y-102813134D01*
X77304976Y-102800346D01*
X77289070Y-102785930D01*
X77274654Y-102770024D01*
X77261866Y-102752781D01*
X77250830Y-102734368D01*
X77241651Y-102714962D01*
X77234419Y-102694750D01*
X77229203Y-102673926D01*
X77226053Y-102652691D01*
X77225000Y-102631250D01*
X77225000Y-102193750D01*
X77226053Y-102172309D01*
X77229203Y-102151074D01*
X77234419Y-102130250D01*
X77241651Y-102110038D01*
X77250830Y-102090632D01*
X77261866Y-102072219D01*
X77274654Y-102054976D01*
X77289070Y-102039070D01*
X77304976Y-102024654D01*
X77322219Y-102011866D01*
X77340632Y-102000830D01*
X77360038Y-101991651D01*
X77380250Y-101984419D01*
X77401074Y-101979203D01*
X77422309Y-101976053D01*
X77443750Y-101975000D01*
X77956250Y-101975000D01*
X77977691Y-101976053D01*
X77977691Y-101976053D01*
G37*
D21*
X77700000Y-102412500D03*
D11*
G36*
X77977691Y-103551053D02*
X77998926Y-103554203D01*
X78019750Y-103559419D01*
X78039962Y-103566651D01*
X78059368Y-103575830D01*
X78077781Y-103586866D01*
X78095024Y-103599654D01*
X78110930Y-103614070D01*
X78125346Y-103629976D01*
X78138134Y-103647219D01*
X78149170Y-103665632D01*
X78158349Y-103685038D01*
X78165581Y-103705250D01*
X78170797Y-103726074D01*
X78173947Y-103747309D01*
X78175000Y-103768750D01*
X78175000Y-104206250D01*
X78173947Y-104227691D01*
X78170797Y-104248926D01*
X78165581Y-104269750D01*
X78158349Y-104289962D01*
X78149170Y-104309368D01*
X78138134Y-104327781D01*
X78125346Y-104345024D01*
X78110930Y-104360930D01*
X78095024Y-104375346D01*
X78077781Y-104388134D01*
X78059368Y-104399170D01*
X78039962Y-104408349D01*
X78019750Y-104415581D01*
X77998926Y-104420797D01*
X77977691Y-104423947D01*
X77956250Y-104425000D01*
X77443750Y-104425000D01*
X77422309Y-104423947D01*
X77401074Y-104420797D01*
X77380250Y-104415581D01*
X77360038Y-104408349D01*
X77340632Y-104399170D01*
X77322219Y-104388134D01*
X77304976Y-104375346D01*
X77289070Y-104360930D01*
X77274654Y-104345024D01*
X77261866Y-104327781D01*
X77250830Y-104309368D01*
X77241651Y-104289962D01*
X77234419Y-104269750D01*
X77229203Y-104248926D01*
X77226053Y-104227691D01*
X77225000Y-104206250D01*
X77225000Y-103768750D01*
X77226053Y-103747309D01*
X77229203Y-103726074D01*
X77234419Y-103705250D01*
X77241651Y-103685038D01*
X77250830Y-103665632D01*
X77261866Y-103647219D01*
X77274654Y-103629976D01*
X77289070Y-103614070D01*
X77304976Y-103599654D01*
X77322219Y-103586866D01*
X77340632Y-103575830D01*
X77360038Y-103566651D01*
X77380250Y-103559419D01*
X77401074Y-103554203D01*
X77422309Y-103551053D01*
X77443750Y-103550000D01*
X77956250Y-103550000D01*
X77977691Y-103551053D01*
X77977691Y-103551053D01*
G37*
D21*
X77700000Y-103987500D03*
G04 #@! TD*
D11*
G04 #@! TO.C,R27*
G36*
X78177691Y-80951053D02*
X78198926Y-80954203D01*
X78219750Y-80959419D01*
X78239962Y-80966651D01*
X78259368Y-80975830D01*
X78277781Y-80986866D01*
X78295024Y-80999654D01*
X78310930Y-81014070D01*
X78325346Y-81029976D01*
X78338134Y-81047219D01*
X78349170Y-81065632D01*
X78358349Y-81085038D01*
X78365581Y-81105250D01*
X78370797Y-81126074D01*
X78373947Y-81147309D01*
X78375000Y-81168750D01*
X78375000Y-81606250D01*
X78373947Y-81627691D01*
X78370797Y-81648926D01*
X78365581Y-81669750D01*
X78358349Y-81689962D01*
X78349170Y-81709368D01*
X78338134Y-81727781D01*
X78325346Y-81745024D01*
X78310930Y-81760930D01*
X78295024Y-81775346D01*
X78277781Y-81788134D01*
X78259368Y-81799170D01*
X78239962Y-81808349D01*
X78219750Y-81815581D01*
X78198926Y-81820797D01*
X78177691Y-81823947D01*
X78156250Y-81825000D01*
X77643750Y-81825000D01*
X77622309Y-81823947D01*
X77601074Y-81820797D01*
X77580250Y-81815581D01*
X77560038Y-81808349D01*
X77540632Y-81799170D01*
X77522219Y-81788134D01*
X77504976Y-81775346D01*
X77489070Y-81760930D01*
X77474654Y-81745024D01*
X77461866Y-81727781D01*
X77450830Y-81709368D01*
X77441651Y-81689962D01*
X77434419Y-81669750D01*
X77429203Y-81648926D01*
X77426053Y-81627691D01*
X77425000Y-81606250D01*
X77425000Y-81168750D01*
X77426053Y-81147309D01*
X77429203Y-81126074D01*
X77434419Y-81105250D01*
X77441651Y-81085038D01*
X77450830Y-81065632D01*
X77461866Y-81047219D01*
X77474654Y-81029976D01*
X77489070Y-81014070D01*
X77504976Y-80999654D01*
X77522219Y-80986866D01*
X77540632Y-80975830D01*
X77560038Y-80966651D01*
X77580250Y-80959419D01*
X77601074Y-80954203D01*
X77622309Y-80951053D01*
X77643750Y-80950000D01*
X78156250Y-80950000D01*
X78177691Y-80951053D01*
X78177691Y-80951053D01*
G37*
D21*
X77900000Y-81387500D03*
D11*
G36*
X78177691Y-79376053D02*
X78198926Y-79379203D01*
X78219750Y-79384419D01*
X78239962Y-79391651D01*
X78259368Y-79400830D01*
X78277781Y-79411866D01*
X78295024Y-79424654D01*
X78310930Y-79439070D01*
X78325346Y-79454976D01*
X78338134Y-79472219D01*
X78349170Y-79490632D01*
X78358349Y-79510038D01*
X78365581Y-79530250D01*
X78370797Y-79551074D01*
X78373947Y-79572309D01*
X78375000Y-79593750D01*
X78375000Y-80031250D01*
X78373947Y-80052691D01*
X78370797Y-80073926D01*
X78365581Y-80094750D01*
X78358349Y-80114962D01*
X78349170Y-80134368D01*
X78338134Y-80152781D01*
X78325346Y-80170024D01*
X78310930Y-80185930D01*
X78295024Y-80200346D01*
X78277781Y-80213134D01*
X78259368Y-80224170D01*
X78239962Y-80233349D01*
X78219750Y-80240581D01*
X78198926Y-80245797D01*
X78177691Y-80248947D01*
X78156250Y-80250000D01*
X77643750Y-80250000D01*
X77622309Y-80248947D01*
X77601074Y-80245797D01*
X77580250Y-80240581D01*
X77560038Y-80233349D01*
X77540632Y-80224170D01*
X77522219Y-80213134D01*
X77504976Y-80200346D01*
X77489070Y-80185930D01*
X77474654Y-80170024D01*
X77461866Y-80152781D01*
X77450830Y-80134368D01*
X77441651Y-80114962D01*
X77434419Y-80094750D01*
X77429203Y-80073926D01*
X77426053Y-80052691D01*
X77425000Y-80031250D01*
X77425000Y-79593750D01*
X77426053Y-79572309D01*
X77429203Y-79551074D01*
X77434419Y-79530250D01*
X77441651Y-79510038D01*
X77450830Y-79490632D01*
X77461866Y-79472219D01*
X77474654Y-79454976D01*
X77489070Y-79439070D01*
X77504976Y-79424654D01*
X77522219Y-79411866D01*
X77540632Y-79400830D01*
X77560038Y-79391651D01*
X77580250Y-79384419D01*
X77601074Y-79379203D01*
X77622309Y-79376053D01*
X77643750Y-79375000D01*
X78156250Y-79375000D01*
X78177691Y-79376053D01*
X78177691Y-79376053D01*
G37*
D21*
X77900000Y-79812500D03*
G04 #@! TD*
D11*
G04 #@! TO.C,R28*
G36*
X79677691Y-79376053D02*
X79698926Y-79379203D01*
X79719750Y-79384419D01*
X79739962Y-79391651D01*
X79759368Y-79400830D01*
X79777781Y-79411866D01*
X79795024Y-79424654D01*
X79810930Y-79439070D01*
X79825346Y-79454976D01*
X79838134Y-79472219D01*
X79849170Y-79490632D01*
X79858349Y-79510038D01*
X79865581Y-79530250D01*
X79870797Y-79551074D01*
X79873947Y-79572309D01*
X79875000Y-79593750D01*
X79875000Y-80031250D01*
X79873947Y-80052691D01*
X79870797Y-80073926D01*
X79865581Y-80094750D01*
X79858349Y-80114962D01*
X79849170Y-80134368D01*
X79838134Y-80152781D01*
X79825346Y-80170024D01*
X79810930Y-80185930D01*
X79795024Y-80200346D01*
X79777781Y-80213134D01*
X79759368Y-80224170D01*
X79739962Y-80233349D01*
X79719750Y-80240581D01*
X79698926Y-80245797D01*
X79677691Y-80248947D01*
X79656250Y-80250000D01*
X79143750Y-80250000D01*
X79122309Y-80248947D01*
X79101074Y-80245797D01*
X79080250Y-80240581D01*
X79060038Y-80233349D01*
X79040632Y-80224170D01*
X79022219Y-80213134D01*
X79004976Y-80200346D01*
X78989070Y-80185930D01*
X78974654Y-80170024D01*
X78961866Y-80152781D01*
X78950830Y-80134368D01*
X78941651Y-80114962D01*
X78934419Y-80094750D01*
X78929203Y-80073926D01*
X78926053Y-80052691D01*
X78925000Y-80031250D01*
X78925000Y-79593750D01*
X78926053Y-79572309D01*
X78929203Y-79551074D01*
X78934419Y-79530250D01*
X78941651Y-79510038D01*
X78950830Y-79490632D01*
X78961866Y-79472219D01*
X78974654Y-79454976D01*
X78989070Y-79439070D01*
X79004976Y-79424654D01*
X79022219Y-79411866D01*
X79040632Y-79400830D01*
X79060038Y-79391651D01*
X79080250Y-79384419D01*
X79101074Y-79379203D01*
X79122309Y-79376053D01*
X79143750Y-79375000D01*
X79656250Y-79375000D01*
X79677691Y-79376053D01*
X79677691Y-79376053D01*
G37*
D21*
X79400000Y-79812500D03*
D11*
G36*
X79677691Y-80951053D02*
X79698926Y-80954203D01*
X79719750Y-80959419D01*
X79739962Y-80966651D01*
X79759368Y-80975830D01*
X79777781Y-80986866D01*
X79795024Y-80999654D01*
X79810930Y-81014070D01*
X79825346Y-81029976D01*
X79838134Y-81047219D01*
X79849170Y-81065632D01*
X79858349Y-81085038D01*
X79865581Y-81105250D01*
X79870797Y-81126074D01*
X79873947Y-81147309D01*
X79875000Y-81168750D01*
X79875000Y-81606250D01*
X79873947Y-81627691D01*
X79870797Y-81648926D01*
X79865581Y-81669750D01*
X79858349Y-81689962D01*
X79849170Y-81709368D01*
X79838134Y-81727781D01*
X79825346Y-81745024D01*
X79810930Y-81760930D01*
X79795024Y-81775346D01*
X79777781Y-81788134D01*
X79759368Y-81799170D01*
X79739962Y-81808349D01*
X79719750Y-81815581D01*
X79698926Y-81820797D01*
X79677691Y-81823947D01*
X79656250Y-81825000D01*
X79143750Y-81825000D01*
X79122309Y-81823947D01*
X79101074Y-81820797D01*
X79080250Y-81815581D01*
X79060038Y-81808349D01*
X79040632Y-81799170D01*
X79022219Y-81788134D01*
X79004976Y-81775346D01*
X78989070Y-81760930D01*
X78974654Y-81745024D01*
X78961866Y-81727781D01*
X78950830Y-81709368D01*
X78941651Y-81689962D01*
X78934419Y-81669750D01*
X78929203Y-81648926D01*
X78926053Y-81627691D01*
X78925000Y-81606250D01*
X78925000Y-81168750D01*
X78926053Y-81147309D01*
X78929203Y-81126074D01*
X78934419Y-81105250D01*
X78941651Y-81085038D01*
X78950830Y-81065632D01*
X78961866Y-81047219D01*
X78974654Y-81029976D01*
X78989070Y-81014070D01*
X79004976Y-80999654D01*
X79022219Y-80986866D01*
X79040632Y-80975830D01*
X79060038Y-80966651D01*
X79080250Y-80959419D01*
X79101074Y-80954203D01*
X79122309Y-80951053D01*
X79143750Y-80950000D01*
X79656250Y-80950000D01*
X79677691Y-80951053D01*
X79677691Y-80951053D01*
G37*
D21*
X79400000Y-81387500D03*
G04 #@! TD*
D11*
G04 #@! TO.C,R17*
G36*
X220577691Y-71176053D02*
X220598926Y-71179203D01*
X220619750Y-71184419D01*
X220639962Y-71191651D01*
X220659368Y-71200830D01*
X220677781Y-71211866D01*
X220695024Y-71224654D01*
X220710930Y-71239070D01*
X220725346Y-71254976D01*
X220738134Y-71272219D01*
X220749170Y-71290632D01*
X220758349Y-71310038D01*
X220765581Y-71330250D01*
X220770797Y-71351074D01*
X220773947Y-71372309D01*
X220775000Y-71393750D01*
X220775000Y-71831250D01*
X220773947Y-71852691D01*
X220770797Y-71873926D01*
X220765581Y-71894750D01*
X220758349Y-71914962D01*
X220749170Y-71934368D01*
X220738134Y-71952781D01*
X220725346Y-71970024D01*
X220710930Y-71985930D01*
X220695024Y-72000346D01*
X220677781Y-72013134D01*
X220659368Y-72024170D01*
X220639962Y-72033349D01*
X220619750Y-72040581D01*
X220598926Y-72045797D01*
X220577691Y-72048947D01*
X220556250Y-72050000D01*
X220043750Y-72050000D01*
X220022309Y-72048947D01*
X220001074Y-72045797D01*
X219980250Y-72040581D01*
X219960038Y-72033349D01*
X219940632Y-72024170D01*
X219922219Y-72013134D01*
X219904976Y-72000346D01*
X219889070Y-71985930D01*
X219874654Y-71970024D01*
X219861866Y-71952781D01*
X219850830Y-71934368D01*
X219841651Y-71914962D01*
X219834419Y-71894750D01*
X219829203Y-71873926D01*
X219826053Y-71852691D01*
X219825000Y-71831250D01*
X219825000Y-71393750D01*
X219826053Y-71372309D01*
X219829203Y-71351074D01*
X219834419Y-71330250D01*
X219841651Y-71310038D01*
X219850830Y-71290632D01*
X219861866Y-71272219D01*
X219874654Y-71254976D01*
X219889070Y-71239070D01*
X219904976Y-71224654D01*
X219922219Y-71211866D01*
X219940632Y-71200830D01*
X219960038Y-71191651D01*
X219980250Y-71184419D01*
X220001074Y-71179203D01*
X220022309Y-71176053D01*
X220043750Y-71175000D01*
X220556250Y-71175000D01*
X220577691Y-71176053D01*
X220577691Y-71176053D01*
G37*
D21*
X220300000Y-71612500D03*
D11*
G36*
X220577691Y-72751053D02*
X220598926Y-72754203D01*
X220619750Y-72759419D01*
X220639962Y-72766651D01*
X220659368Y-72775830D01*
X220677781Y-72786866D01*
X220695024Y-72799654D01*
X220710930Y-72814070D01*
X220725346Y-72829976D01*
X220738134Y-72847219D01*
X220749170Y-72865632D01*
X220758349Y-72885038D01*
X220765581Y-72905250D01*
X220770797Y-72926074D01*
X220773947Y-72947309D01*
X220775000Y-72968750D01*
X220775000Y-73406250D01*
X220773947Y-73427691D01*
X220770797Y-73448926D01*
X220765581Y-73469750D01*
X220758349Y-73489962D01*
X220749170Y-73509368D01*
X220738134Y-73527781D01*
X220725346Y-73545024D01*
X220710930Y-73560930D01*
X220695024Y-73575346D01*
X220677781Y-73588134D01*
X220659368Y-73599170D01*
X220639962Y-73608349D01*
X220619750Y-73615581D01*
X220598926Y-73620797D01*
X220577691Y-73623947D01*
X220556250Y-73625000D01*
X220043750Y-73625000D01*
X220022309Y-73623947D01*
X220001074Y-73620797D01*
X219980250Y-73615581D01*
X219960038Y-73608349D01*
X219940632Y-73599170D01*
X219922219Y-73588134D01*
X219904976Y-73575346D01*
X219889070Y-73560930D01*
X219874654Y-73545024D01*
X219861866Y-73527781D01*
X219850830Y-73509368D01*
X219841651Y-73489962D01*
X219834419Y-73469750D01*
X219829203Y-73448926D01*
X219826053Y-73427691D01*
X219825000Y-73406250D01*
X219825000Y-72968750D01*
X219826053Y-72947309D01*
X219829203Y-72926074D01*
X219834419Y-72905250D01*
X219841651Y-72885038D01*
X219850830Y-72865632D01*
X219861866Y-72847219D01*
X219874654Y-72829976D01*
X219889070Y-72814070D01*
X219904976Y-72799654D01*
X219922219Y-72786866D01*
X219940632Y-72775830D01*
X219960038Y-72766651D01*
X219980250Y-72759419D01*
X220001074Y-72754203D01*
X220022309Y-72751053D01*
X220043750Y-72750000D01*
X220556250Y-72750000D01*
X220577691Y-72751053D01*
X220577691Y-72751053D01*
G37*
D21*
X220300000Y-73187500D03*
G04 #@! TD*
D11*
G04 #@! TO.C,R19*
G36*
X222177691Y-72751053D02*
X222198926Y-72754203D01*
X222219750Y-72759419D01*
X222239962Y-72766651D01*
X222259368Y-72775830D01*
X222277781Y-72786866D01*
X222295024Y-72799654D01*
X222310930Y-72814070D01*
X222325346Y-72829976D01*
X222338134Y-72847219D01*
X222349170Y-72865632D01*
X222358349Y-72885038D01*
X222365581Y-72905250D01*
X222370797Y-72926074D01*
X222373947Y-72947309D01*
X222375000Y-72968750D01*
X222375000Y-73406250D01*
X222373947Y-73427691D01*
X222370797Y-73448926D01*
X222365581Y-73469750D01*
X222358349Y-73489962D01*
X222349170Y-73509368D01*
X222338134Y-73527781D01*
X222325346Y-73545024D01*
X222310930Y-73560930D01*
X222295024Y-73575346D01*
X222277781Y-73588134D01*
X222259368Y-73599170D01*
X222239962Y-73608349D01*
X222219750Y-73615581D01*
X222198926Y-73620797D01*
X222177691Y-73623947D01*
X222156250Y-73625000D01*
X221643750Y-73625000D01*
X221622309Y-73623947D01*
X221601074Y-73620797D01*
X221580250Y-73615581D01*
X221560038Y-73608349D01*
X221540632Y-73599170D01*
X221522219Y-73588134D01*
X221504976Y-73575346D01*
X221489070Y-73560930D01*
X221474654Y-73545024D01*
X221461866Y-73527781D01*
X221450830Y-73509368D01*
X221441651Y-73489962D01*
X221434419Y-73469750D01*
X221429203Y-73448926D01*
X221426053Y-73427691D01*
X221425000Y-73406250D01*
X221425000Y-72968750D01*
X221426053Y-72947309D01*
X221429203Y-72926074D01*
X221434419Y-72905250D01*
X221441651Y-72885038D01*
X221450830Y-72865632D01*
X221461866Y-72847219D01*
X221474654Y-72829976D01*
X221489070Y-72814070D01*
X221504976Y-72799654D01*
X221522219Y-72786866D01*
X221540632Y-72775830D01*
X221560038Y-72766651D01*
X221580250Y-72759419D01*
X221601074Y-72754203D01*
X221622309Y-72751053D01*
X221643750Y-72750000D01*
X222156250Y-72750000D01*
X222177691Y-72751053D01*
X222177691Y-72751053D01*
G37*
D21*
X221900000Y-73187500D03*
D11*
G36*
X222177691Y-71176053D02*
X222198926Y-71179203D01*
X222219750Y-71184419D01*
X222239962Y-71191651D01*
X222259368Y-71200830D01*
X222277781Y-71211866D01*
X222295024Y-71224654D01*
X222310930Y-71239070D01*
X222325346Y-71254976D01*
X222338134Y-71272219D01*
X222349170Y-71290632D01*
X222358349Y-71310038D01*
X222365581Y-71330250D01*
X222370797Y-71351074D01*
X222373947Y-71372309D01*
X222375000Y-71393750D01*
X222375000Y-71831250D01*
X222373947Y-71852691D01*
X222370797Y-71873926D01*
X222365581Y-71894750D01*
X222358349Y-71914962D01*
X222349170Y-71934368D01*
X222338134Y-71952781D01*
X222325346Y-71970024D01*
X222310930Y-71985930D01*
X222295024Y-72000346D01*
X222277781Y-72013134D01*
X222259368Y-72024170D01*
X222239962Y-72033349D01*
X222219750Y-72040581D01*
X222198926Y-72045797D01*
X222177691Y-72048947D01*
X222156250Y-72050000D01*
X221643750Y-72050000D01*
X221622309Y-72048947D01*
X221601074Y-72045797D01*
X221580250Y-72040581D01*
X221560038Y-72033349D01*
X221540632Y-72024170D01*
X221522219Y-72013134D01*
X221504976Y-72000346D01*
X221489070Y-71985930D01*
X221474654Y-71970024D01*
X221461866Y-71952781D01*
X221450830Y-71934368D01*
X221441651Y-71914962D01*
X221434419Y-71894750D01*
X221429203Y-71873926D01*
X221426053Y-71852691D01*
X221425000Y-71831250D01*
X221425000Y-71393750D01*
X221426053Y-71372309D01*
X221429203Y-71351074D01*
X221434419Y-71330250D01*
X221441651Y-71310038D01*
X221450830Y-71290632D01*
X221461866Y-71272219D01*
X221474654Y-71254976D01*
X221489070Y-71239070D01*
X221504976Y-71224654D01*
X221522219Y-71211866D01*
X221540632Y-71200830D01*
X221560038Y-71191651D01*
X221580250Y-71184419D01*
X221601074Y-71179203D01*
X221622309Y-71176053D01*
X221643750Y-71175000D01*
X222156250Y-71175000D01*
X222177691Y-71176053D01*
X222177691Y-71176053D01*
G37*
D21*
X221900000Y-71612500D03*
G04 #@! TD*
D11*
G04 #@! TO.C,R29*
G36*
X90277691Y-100976053D02*
X90298926Y-100979203D01*
X90319750Y-100984419D01*
X90339962Y-100991651D01*
X90359368Y-101000830D01*
X90377781Y-101011866D01*
X90395024Y-101024654D01*
X90410930Y-101039070D01*
X90425346Y-101054976D01*
X90438134Y-101072219D01*
X90449170Y-101090632D01*
X90458349Y-101110038D01*
X90465581Y-101130250D01*
X90470797Y-101151074D01*
X90473947Y-101172309D01*
X90475000Y-101193750D01*
X90475000Y-101631250D01*
X90473947Y-101652691D01*
X90470797Y-101673926D01*
X90465581Y-101694750D01*
X90458349Y-101714962D01*
X90449170Y-101734368D01*
X90438134Y-101752781D01*
X90425346Y-101770024D01*
X90410930Y-101785930D01*
X90395024Y-101800346D01*
X90377781Y-101813134D01*
X90359368Y-101824170D01*
X90339962Y-101833349D01*
X90319750Y-101840581D01*
X90298926Y-101845797D01*
X90277691Y-101848947D01*
X90256250Y-101850000D01*
X89743750Y-101850000D01*
X89722309Y-101848947D01*
X89701074Y-101845797D01*
X89680250Y-101840581D01*
X89660038Y-101833349D01*
X89640632Y-101824170D01*
X89622219Y-101813134D01*
X89604976Y-101800346D01*
X89589070Y-101785930D01*
X89574654Y-101770024D01*
X89561866Y-101752781D01*
X89550830Y-101734368D01*
X89541651Y-101714962D01*
X89534419Y-101694750D01*
X89529203Y-101673926D01*
X89526053Y-101652691D01*
X89525000Y-101631250D01*
X89525000Y-101193750D01*
X89526053Y-101172309D01*
X89529203Y-101151074D01*
X89534419Y-101130250D01*
X89541651Y-101110038D01*
X89550830Y-101090632D01*
X89561866Y-101072219D01*
X89574654Y-101054976D01*
X89589070Y-101039070D01*
X89604976Y-101024654D01*
X89622219Y-101011866D01*
X89640632Y-101000830D01*
X89660038Y-100991651D01*
X89680250Y-100984419D01*
X89701074Y-100979203D01*
X89722309Y-100976053D01*
X89743750Y-100975000D01*
X90256250Y-100975000D01*
X90277691Y-100976053D01*
X90277691Y-100976053D01*
G37*
D21*
X90000000Y-101412500D03*
D11*
G36*
X90277691Y-102551053D02*
X90298926Y-102554203D01*
X90319750Y-102559419D01*
X90339962Y-102566651D01*
X90359368Y-102575830D01*
X90377781Y-102586866D01*
X90395024Y-102599654D01*
X90410930Y-102614070D01*
X90425346Y-102629976D01*
X90438134Y-102647219D01*
X90449170Y-102665632D01*
X90458349Y-102685038D01*
X90465581Y-102705250D01*
X90470797Y-102726074D01*
X90473947Y-102747309D01*
X90475000Y-102768750D01*
X90475000Y-103206250D01*
X90473947Y-103227691D01*
X90470797Y-103248926D01*
X90465581Y-103269750D01*
X90458349Y-103289962D01*
X90449170Y-103309368D01*
X90438134Y-103327781D01*
X90425346Y-103345024D01*
X90410930Y-103360930D01*
X90395024Y-103375346D01*
X90377781Y-103388134D01*
X90359368Y-103399170D01*
X90339962Y-103408349D01*
X90319750Y-103415581D01*
X90298926Y-103420797D01*
X90277691Y-103423947D01*
X90256250Y-103425000D01*
X89743750Y-103425000D01*
X89722309Y-103423947D01*
X89701074Y-103420797D01*
X89680250Y-103415581D01*
X89660038Y-103408349D01*
X89640632Y-103399170D01*
X89622219Y-103388134D01*
X89604976Y-103375346D01*
X89589070Y-103360930D01*
X89574654Y-103345024D01*
X89561866Y-103327781D01*
X89550830Y-103309368D01*
X89541651Y-103289962D01*
X89534419Y-103269750D01*
X89529203Y-103248926D01*
X89526053Y-103227691D01*
X89525000Y-103206250D01*
X89525000Y-102768750D01*
X89526053Y-102747309D01*
X89529203Y-102726074D01*
X89534419Y-102705250D01*
X89541651Y-102685038D01*
X89550830Y-102665632D01*
X89561866Y-102647219D01*
X89574654Y-102629976D01*
X89589070Y-102614070D01*
X89604976Y-102599654D01*
X89622219Y-102586866D01*
X89640632Y-102575830D01*
X89660038Y-102566651D01*
X89680250Y-102559419D01*
X89701074Y-102554203D01*
X89722309Y-102551053D01*
X89743750Y-102550000D01*
X90256250Y-102550000D01*
X90277691Y-102551053D01*
X90277691Y-102551053D01*
G37*
D21*
X90000000Y-102987500D03*
G04 #@! TD*
D11*
G04 #@! TO.C,R30*
G36*
X139642692Y-92531052D02*
X139663927Y-92534202D01*
X139684751Y-92539418D01*
X139704963Y-92546650D01*
X139724369Y-92555829D01*
X139742782Y-92566865D01*
X139760025Y-92579653D01*
X139775931Y-92594069D01*
X139790347Y-92609975D01*
X139803135Y-92627218D01*
X139814171Y-92645631D01*
X139823350Y-92665037D01*
X139830582Y-92685249D01*
X139835798Y-92706073D01*
X139838948Y-92727308D01*
X139840001Y-92748749D01*
X139840001Y-93261249D01*
X139838948Y-93282690D01*
X139835798Y-93303925D01*
X139830582Y-93324749D01*
X139823350Y-93344961D01*
X139814171Y-93364367D01*
X139803135Y-93382780D01*
X139790347Y-93400023D01*
X139775931Y-93415929D01*
X139760025Y-93430345D01*
X139742782Y-93443133D01*
X139724369Y-93454169D01*
X139704963Y-93463348D01*
X139684751Y-93470580D01*
X139663927Y-93475796D01*
X139642692Y-93478946D01*
X139621251Y-93479999D01*
X139183751Y-93479999D01*
X139162310Y-93478946D01*
X139141075Y-93475796D01*
X139120251Y-93470580D01*
X139100039Y-93463348D01*
X139080633Y-93454169D01*
X139062220Y-93443133D01*
X139044977Y-93430345D01*
X139029071Y-93415929D01*
X139014655Y-93400023D01*
X139001867Y-93382780D01*
X138990831Y-93364367D01*
X138981652Y-93344961D01*
X138974420Y-93324749D01*
X138969204Y-93303925D01*
X138966054Y-93282690D01*
X138965001Y-93261249D01*
X138965001Y-92748749D01*
X138966054Y-92727308D01*
X138969204Y-92706073D01*
X138974420Y-92685249D01*
X138981652Y-92665037D01*
X138990831Y-92645631D01*
X139001867Y-92627218D01*
X139014655Y-92609975D01*
X139029071Y-92594069D01*
X139044977Y-92579653D01*
X139062220Y-92566865D01*
X139080633Y-92555829D01*
X139100039Y-92546650D01*
X139120251Y-92539418D01*
X139141075Y-92534202D01*
X139162310Y-92531052D01*
X139183751Y-92529999D01*
X139621251Y-92529999D01*
X139642692Y-92531052D01*
X139642692Y-92531052D01*
G37*
D21*
X139402501Y-93004999D03*
D11*
G36*
X138067692Y-92531052D02*
X138088927Y-92534202D01*
X138109751Y-92539418D01*
X138129963Y-92546650D01*
X138149369Y-92555829D01*
X138167782Y-92566865D01*
X138185025Y-92579653D01*
X138200931Y-92594069D01*
X138215347Y-92609975D01*
X138228135Y-92627218D01*
X138239171Y-92645631D01*
X138248350Y-92665037D01*
X138255582Y-92685249D01*
X138260798Y-92706073D01*
X138263948Y-92727308D01*
X138265001Y-92748749D01*
X138265001Y-93261249D01*
X138263948Y-93282690D01*
X138260798Y-93303925D01*
X138255582Y-93324749D01*
X138248350Y-93344961D01*
X138239171Y-93364367D01*
X138228135Y-93382780D01*
X138215347Y-93400023D01*
X138200931Y-93415929D01*
X138185025Y-93430345D01*
X138167782Y-93443133D01*
X138149369Y-93454169D01*
X138129963Y-93463348D01*
X138109751Y-93470580D01*
X138088927Y-93475796D01*
X138067692Y-93478946D01*
X138046251Y-93479999D01*
X137608751Y-93479999D01*
X137587310Y-93478946D01*
X137566075Y-93475796D01*
X137545251Y-93470580D01*
X137525039Y-93463348D01*
X137505633Y-93454169D01*
X137487220Y-93443133D01*
X137469977Y-93430345D01*
X137454071Y-93415929D01*
X137439655Y-93400023D01*
X137426867Y-93382780D01*
X137415831Y-93364367D01*
X137406652Y-93344961D01*
X137399420Y-93324749D01*
X137394204Y-93303925D01*
X137391054Y-93282690D01*
X137390001Y-93261249D01*
X137390001Y-92748749D01*
X137391054Y-92727308D01*
X137394204Y-92706073D01*
X137399420Y-92685249D01*
X137406652Y-92665037D01*
X137415831Y-92645631D01*
X137426867Y-92627218D01*
X137439655Y-92609975D01*
X137454071Y-92594069D01*
X137469977Y-92579653D01*
X137487220Y-92566865D01*
X137505633Y-92555829D01*
X137525039Y-92546650D01*
X137545251Y-92539418D01*
X137566075Y-92534202D01*
X137587310Y-92531052D01*
X137608751Y-92529999D01*
X138046251Y-92529999D01*
X138067692Y-92531052D01*
X138067692Y-92531052D01*
G37*
D21*
X137827501Y-93004999D03*
G04 #@! TD*
D11*
G04 #@! TO.C,R31*
G36*
X91677691Y-100976053D02*
X91698926Y-100979203D01*
X91719750Y-100984419D01*
X91739962Y-100991651D01*
X91759368Y-101000830D01*
X91777781Y-101011866D01*
X91795024Y-101024654D01*
X91810930Y-101039070D01*
X91825346Y-101054976D01*
X91838134Y-101072219D01*
X91849170Y-101090632D01*
X91858349Y-101110038D01*
X91865581Y-101130250D01*
X91870797Y-101151074D01*
X91873947Y-101172309D01*
X91875000Y-101193750D01*
X91875000Y-101631250D01*
X91873947Y-101652691D01*
X91870797Y-101673926D01*
X91865581Y-101694750D01*
X91858349Y-101714962D01*
X91849170Y-101734368D01*
X91838134Y-101752781D01*
X91825346Y-101770024D01*
X91810930Y-101785930D01*
X91795024Y-101800346D01*
X91777781Y-101813134D01*
X91759368Y-101824170D01*
X91739962Y-101833349D01*
X91719750Y-101840581D01*
X91698926Y-101845797D01*
X91677691Y-101848947D01*
X91656250Y-101850000D01*
X91143750Y-101850000D01*
X91122309Y-101848947D01*
X91101074Y-101845797D01*
X91080250Y-101840581D01*
X91060038Y-101833349D01*
X91040632Y-101824170D01*
X91022219Y-101813134D01*
X91004976Y-101800346D01*
X90989070Y-101785930D01*
X90974654Y-101770024D01*
X90961866Y-101752781D01*
X90950830Y-101734368D01*
X90941651Y-101714962D01*
X90934419Y-101694750D01*
X90929203Y-101673926D01*
X90926053Y-101652691D01*
X90925000Y-101631250D01*
X90925000Y-101193750D01*
X90926053Y-101172309D01*
X90929203Y-101151074D01*
X90934419Y-101130250D01*
X90941651Y-101110038D01*
X90950830Y-101090632D01*
X90961866Y-101072219D01*
X90974654Y-101054976D01*
X90989070Y-101039070D01*
X91004976Y-101024654D01*
X91022219Y-101011866D01*
X91040632Y-101000830D01*
X91060038Y-100991651D01*
X91080250Y-100984419D01*
X91101074Y-100979203D01*
X91122309Y-100976053D01*
X91143750Y-100975000D01*
X91656250Y-100975000D01*
X91677691Y-100976053D01*
X91677691Y-100976053D01*
G37*
D21*
X91400000Y-101412500D03*
D11*
G36*
X91677691Y-102551053D02*
X91698926Y-102554203D01*
X91719750Y-102559419D01*
X91739962Y-102566651D01*
X91759368Y-102575830D01*
X91777781Y-102586866D01*
X91795024Y-102599654D01*
X91810930Y-102614070D01*
X91825346Y-102629976D01*
X91838134Y-102647219D01*
X91849170Y-102665632D01*
X91858349Y-102685038D01*
X91865581Y-102705250D01*
X91870797Y-102726074D01*
X91873947Y-102747309D01*
X91875000Y-102768750D01*
X91875000Y-103206250D01*
X91873947Y-103227691D01*
X91870797Y-103248926D01*
X91865581Y-103269750D01*
X91858349Y-103289962D01*
X91849170Y-103309368D01*
X91838134Y-103327781D01*
X91825346Y-103345024D01*
X91810930Y-103360930D01*
X91795024Y-103375346D01*
X91777781Y-103388134D01*
X91759368Y-103399170D01*
X91739962Y-103408349D01*
X91719750Y-103415581D01*
X91698926Y-103420797D01*
X91677691Y-103423947D01*
X91656250Y-103425000D01*
X91143750Y-103425000D01*
X91122309Y-103423947D01*
X91101074Y-103420797D01*
X91080250Y-103415581D01*
X91060038Y-103408349D01*
X91040632Y-103399170D01*
X91022219Y-103388134D01*
X91004976Y-103375346D01*
X90989070Y-103360930D01*
X90974654Y-103345024D01*
X90961866Y-103327781D01*
X90950830Y-103309368D01*
X90941651Y-103289962D01*
X90934419Y-103269750D01*
X90929203Y-103248926D01*
X90926053Y-103227691D01*
X90925000Y-103206250D01*
X90925000Y-102768750D01*
X90926053Y-102747309D01*
X90929203Y-102726074D01*
X90934419Y-102705250D01*
X90941651Y-102685038D01*
X90950830Y-102665632D01*
X90961866Y-102647219D01*
X90974654Y-102629976D01*
X90989070Y-102614070D01*
X91004976Y-102599654D01*
X91022219Y-102586866D01*
X91040632Y-102575830D01*
X91060038Y-102566651D01*
X91080250Y-102559419D01*
X91101074Y-102554203D01*
X91122309Y-102551053D01*
X91143750Y-102550000D01*
X91656250Y-102550000D01*
X91677691Y-102551053D01*
X91677691Y-102551053D01*
G37*
D21*
X91400000Y-102987500D03*
G04 #@! TD*
D11*
G04 #@! TO.C,R32*
G36*
X139627691Y-91026053D02*
X139648926Y-91029203D01*
X139669750Y-91034419D01*
X139689962Y-91041651D01*
X139709368Y-91050830D01*
X139727781Y-91061866D01*
X139745024Y-91074654D01*
X139760930Y-91089070D01*
X139775346Y-91104976D01*
X139788134Y-91122219D01*
X139799170Y-91140632D01*
X139808349Y-91160038D01*
X139815581Y-91180250D01*
X139820797Y-91201074D01*
X139823947Y-91222309D01*
X139825000Y-91243750D01*
X139825000Y-91756250D01*
X139823947Y-91777691D01*
X139820797Y-91798926D01*
X139815581Y-91819750D01*
X139808349Y-91839962D01*
X139799170Y-91859368D01*
X139788134Y-91877781D01*
X139775346Y-91895024D01*
X139760930Y-91910930D01*
X139745024Y-91925346D01*
X139727781Y-91938134D01*
X139709368Y-91949170D01*
X139689962Y-91958349D01*
X139669750Y-91965581D01*
X139648926Y-91970797D01*
X139627691Y-91973947D01*
X139606250Y-91975000D01*
X139168750Y-91975000D01*
X139147309Y-91973947D01*
X139126074Y-91970797D01*
X139105250Y-91965581D01*
X139085038Y-91958349D01*
X139065632Y-91949170D01*
X139047219Y-91938134D01*
X139029976Y-91925346D01*
X139014070Y-91910930D01*
X138999654Y-91895024D01*
X138986866Y-91877781D01*
X138975830Y-91859368D01*
X138966651Y-91839962D01*
X138959419Y-91819750D01*
X138954203Y-91798926D01*
X138951053Y-91777691D01*
X138950000Y-91756250D01*
X138950000Y-91243750D01*
X138951053Y-91222309D01*
X138954203Y-91201074D01*
X138959419Y-91180250D01*
X138966651Y-91160038D01*
X138975830Y-91140632D01*
X138986866Y-91122219D01*
X138999654Y-91104976D01*
X139014070Y-91089070D01*
X139029976Y-91074654D01*
X139047219Y-91061866D01*
X139065632Y-91050830D01*
X139085038Y-91041651D01*
X139105250Y-91034419D01*
X139126074Y-91029203D01*
X139147309Y-91026053D01*
X139168750Y-91025000D01*
X139606250Y-91025000D01*
X139627691Y-91026053D01*
X139627691Y-91026053D01*
G37*
D21*
X139387500Y-91500000D03*
D11*
G36*
X138052691Y-91026053D02*
X138073926Y-91029203D01*
X138094750Y-91034419D01*
X138114962Y-91041651D01*
X138134368Y-91050830D01*
X138152781Y-91061866D01*
X138170024Y-91074654D01*
X138185930Y-91089070D01*
X138200346Y-91104976D01*
X138213134Y-91122219D01*
X138224170Y-91140632D01*
X138233349Y-91160038D01*
X138240581Y-91180250D01*
X138245797Y-91201074D01*
X138248947Y-91222309D01*
X138250000Y-91243750D01*
X138250000Y-91756250D01*
X138248947Y-91777691D01*
X138245797Y-91798926D01*
X138240581Y-91819750D01*
X138233349Y-91839962D01*
X138224170Y-91859368D01*
X138213134Y-91877781D01*
X138200346Y-91895024D01*
X138185930Y-91910930D01*
X138170024Y-91925346D01*
X138152781Y-91938134D01*
X138134368Y-91949170D01*
X138114962Y-91958349D01*
X138094750Y-91965581D01*
X138073926Y-91970797D01*
X138052691Y-91973947D01*
X138031250Y-91975000D01*
X137593750Y-91975000D01*
X137572309Y-91973947D01*
X137551074Y-91970797D01*
X137530250Y-91965581D01*
X137510038Y-91958349D01*
X137490632Y-91949170D01*
X137472219Y-91938134D01*
X137454976Y-91925346D01*
X137439070Y-91910930D01*
X137424654Y-91895024D01*
X137411866Y-91877781D01*
X137400830Y-91859368D01*
X137391651Y-91839962D01*
X137384419Y-91819750D01*
X137379203Y-91798926D01*
X137376053Y-91777691D01*
X137375000Y-91756250D01*
X137375000Y-91243750D01*
X137376053Y-91222309D01*
X137379203Y-91201074D01*
X137384419Y-91180250D01*
X137391651Y-91160038D01*
X137400830Y-91140632D01*
X137411866Y-91122219D01*
X137424654Y-91104976D01*
X137439070Y-91089070D01*
X137454976Y-91074654D01*
X137472219Y-91061866D01*
X137490632Y-91050830D01*
X137510038Y-91041651D01*
X137530250Y-91034419D01*
X137551074Y-91029203D01*
X137572309Y-91026053D01*
X137593750Y-91025000D01*
X138031250Y-91025000D01*
X138052691Y-91026053D01*
X138052691Y-91026053D01*
G37*
D21*
X137812500Y-91500000D03*
G04 #@! TD*
D26*
G04 #@! TO.C,U9*
X64550000Y-114155000D03*
X64550000Y-112885000D03*
X64550000Y-111615000D03*
X64550000Y-110345000D03*
X69950000Y-110345000D03*
X69950000Y-111615000D03*
X69950000Y-112885000D03*
X69950000Y-114155000D03*
D27*
X67837500Y-111662500D03*
X66662500Y-111662500D03*
X66662500Y-112837500D03*
X67837500Y-112837500D03*
G04 #@! TD*
D11*
G04 #@! TO.C,D257*
G36*
X74977691Y-70576053D02*
X74998926Y-70579203D01*
X75019750Y-70584419D01*
X75039962Y-70591651D01*
X75059368Y-70600830D01*
X75077781Y-70611866D01*
X75095024Y-70624654D01*
X75110930Y-70639070D01*
X75125346Y-70654976D01*
X75138134Y-70672219D01*
X75149170Y-70690632D01*
X75158349Y-70710038D01*
X75165581Y-70730250D01*
X75170797Y-70751074D01*
X75173947Y-70772309D01*
X75175000Y-70793750D01*
X75175000Y-71231250D01*
X75173947Y-71252691D01*
X75170797Y-71273926D01*
X75165581Y-71294750D01*
X75158349Y-71314962D01*
X75149170Y-71334368D01*
X75138134Y-71352781D01*
X75125346Y-71370024D01*
X75110930Y-71385930D01*
X75095024Y-71400346D01*
X75077781Y-71413134D01*
X75059368Y-71424170D01*
X75039962Y-71433349D01*
X75019750Y-71440581D01*
X74998926Y-71445797D01*
X74977691Y-71448947D01*
X74956250Y-71450000D01*
X74443750Y-71450000D01*
X74422309Y-71448947D01*
X74401074Y-71445797D01*
X74380250Y-71440581D01*
X74360038Y-71433349D01*
X74340632Y-71424170D01*
X74322219Y-71413134D01*
X74304976Y-71400346D01*
X74289070Y-71385930D01*
X74274654Y-71370024D01*
X74261866Y-71352781D01*
X74250830Y-71334368D01*
X74241651Y-71314962D01*
X74234419Y-71294750D01*
X74229203Y-71273926D01*
X74226053Y-71252691D01*
X74225000Y-71231250D01*
X74225000Y-70793750D01*
X74226053Y-70772309D01*
X74229203Y-70751074D01*
X74234419Y-70730250D01*
X74241651Y-70710038D01*
X74250830Y-70690632D01*
X74261866Y-70672219D01*
X74274654Y-70654976D01*
X74289070Y-70639070D01*
X74304976Y-70624654D01*
X74322219Y-70611866D01*
X74340632Y-70600830D01*
X74360038Y-70591651D01*
X74380250Y-70584419D01*
X74401074Y-70579203D01*
X74422309Y-70576053D01*
X74443750Y-70575000D01*
X74956250Y-70575000D01*
X74977691Y-70576053D01*
X74977691Y-70576053D01*
G37*
D21*
X74700000Y-71012500D03*
D11*
G36*
X74977691Y-72151053D02*
X74998926Y-72154203D01*
X75019750Y-72159419D01*
X75039962Y-72166651D01*
X75059368Y-72175830D01*
X75077781Y-72186866D01*
X75095024Y-72199654D01*
X75110930Y-72214070D01*
X75125346Y-72229976D01*
X75138134Y-72247219D01*
X75149170Y-72265632D01*
X75158349Y-72285038D01*
X75165581Y-72305250D01*
X75170797Y-72326074D01*
X75173947Y-72347309D01*
X75175000Y-72368750D01*
X75175000Y-72806250D01*
X75173947Y-72827691D01*
X75170797Y-72848926D01*
X75165581Y-72869750D01*
X75158349Y-72889962D01*
X75149170Y-72909368D01*
X75138134Y-72927781D01*
X75125346Y-72945024D01*
X75110930Y-72960930D01*
X75095024Y-72975346D01*
X75077781Y-72988134D01*
X75059368Y-72999170D01*
X75039962Y-73008349D01*
X75019750Y-73015581D01*
X74998926Y-73020797D01*
X74977691Y-73023947D01*
X74956250Y-73025000D01*
X74443750Y-73025000D01*
X74422309Y-73023947D01*
X74401074Y-73020797D01*
X74380250Y-73015581D01*
X74360038Y-73008349D01*
X74340632Y-72999170D01*
X74322219Y-72988134D01*
X74304976Y-72975346D01*
X74289070Y-72960930D01*
X74274654Y-72945024D01*
X74261866Y-72927781D01*
X74250830Y-72909368D01*
X74241651Y-72889962D01*
X74234419Y-72869750D01*
X74229203Y-72848926D01*
X74226053Y-72827691D01*
X74225000Y-72806250D01*
X74225000Y-72368750D01*
X74226053Y-72347309D01*
X74229203Y-72326074D01*
X74234419Y-72305250D01*
X74241651Y-72285038D01*
X74250830Y-72265632D01*
X74261866Y-72247219D01*
X74274654Y-72229976D01*
X74289070Y-72214070D01*
X74304976Y-72199654D01*
X74322219Y-72186866D01*
X74340632Y-72175830D01*
X74360038Y-72166651D01*
X74380250Y-72159419D01*
X74401074Y-72154203D01*
X74422309Y-72151053D01*
X74443750Y-72150000D01*
X74956250Y-72150000D01*
X74977691Y-72151053D01*
X74977691Y-72151053D01*
G37*
D21*
X74700000Y-72587500D03*
G04 #@! TD*
D28*
G04 #@! TO.C,J3*
X84000000Y-71800000D03*
G04 #@! TD*
D29*
G04 #@! TO.C,J4*
X227500000Y-71800000D03*
G04 #@! TD*
D11*
G04 #@! TO.C,R1*
G36*
X127377691Y-111651053D02*
X127398926Y-111654203D01*
X127419750Y-111659419D01*
X127439962Y-111666651D01*
X127459368Y-111675830D01*
X127477781Y-111686866D01*
X127495024Y-111699654D01*
X127510930Y-111714070D01*
X127525346Y-111729976D01*
X127538134Y-111747219D01*
X127549170Y-111765632D01*
X127558349Y-111785038D01*
X127565581Y-111805250D01*
X127570797Y-111826074D01*
X127573947Y-111847309D01*
X127575000Y-111868750D01*
X127575000Y-112306250D01*
X127573947Y-112327691D01*
X127570797Y-112348926D01*
X127565581Y-112369750D01*
X127558349Y-112389962D01*
X127549170Y-112409368D01*
X127538134Y-112427781D01*
X127525346Y-112445024D01*
X127510930Y-112460930D01*
X127495024Y-112475346D01*
X127477781Y-112488134D01*
X127459368Y-112499170D01*
X127439962Y-112508349D01*
X127419750Y-112515581D01*
X127398926Y-112520797D01*
X127377691Y-112523947D01*
X127356250Y-112525000D01*
X126843750Y-112525000D01*
X126822309Y-112523947D01*
X126801074Y-112520797D01*
X126780250Y-112515581D01*
X126760038Y-112508349D01*
X126740632Y-112499170D01*
X126722219Y-112488134D01*
X126704976Y-112475346D01*
X126689070Y-112460930D01*
X126674654Y-112445024D01*
X126661866Y-112427781D01*
X126650830Y-112409368D01*
X126641651Y-112389962D01*
X126634419Y-112369750D01*
X126629203Y-112348926D01*
X126626053Y-112327691D01*
X126625000Y-112306250D01*
X126625000Y-111868750D01*
X126626053Y-111847309D01*
X126629203Y-111826074D01*
X126634419Y-111805250D01*
X126641651Y-111785038D01*
X126650830Y-111765632D01*
X126661866Y-111747219D01*
X126674654Y-111729976D01*
X126689070Y-111714070D01*
X126704976Y-111699654D01*
X126722219Y-111686866D01*
X126740632Y-111675830D01*
X126760038Y-111666651D01*
X126780250Y-111659419D01*
X126801074Y-111654203D01*
X126822309Y-111651053D01*
X126843750Y-111650000D01*
X127356250Y-111650000D01*
X127377691Y-111651053D01*
X127377691Y-111651053D01*
G37*
D21*
X127100000Y-112087500D03*
D11*
G36*
X127377691Y-110076053D02*
X127398926Y-110079203D01*
X127419750Y-110084419D01*
X127439962Y-110091651D01*
X127459368Y-110100830D01*
X127477781Y-110111866D01*
X127495024Y-110124654D01*
X127510930Y-110139070D01*
X127525346Y-110154976D01*
X127538134Y-110172219D01*
X127549170Y-110190632D01*
X127558349Y-110210038D01*
X127565581Y-110230250D01*
X127570797Y-110251074D01*
X127573947Y-110272309D01*
X127575000Y-110293750D01*
X127575000Y-110731250D01*
X127573947Y-110752691D01*
X127570797Y-110773926D01*
X127565581Y-110794750D01*
X127558349Y-110814962D01*
X127549170Y-110834368D01*
X127538134Y-110852781D01*
X127525346Y-110870024D01*
X127510930Y-110885930D01*
X127495024Y-110900346D01*
X127477781Y-110913134D01*
X127459368Y-110924170D01*
X127439962Y-110933349D01*
X127419750Y-110940581D01*
X127398926Y-110945797D01*
X127377691Y-110948947D01*
X127356250Y-110950000D01*
X126843750Y-110950000D01*
X126822309Y-110948947D01*
X126801074Y-110945797D01*
X126780250Y-110940581D01*
X126760038Y-110933349D01*
X126740632Y-110924170D01*
X126722219Y-110913134D01*
X126704976Y-110900346D01*
X126689070Y-110885930D01*
X126674654Y-110870024D01*
X126661866Y-110852781D01*
X126650830Y-110834368D01*
X126641651Y-110814962D01*
X126634419Y-110794750D01*
X126629203Y-110773926D01*
X126626053Y-110752691D01*
X126625000Y-110731250D01*
X126625000Y-110293750D01*
X126626053Y-110272309D01*
X126629203Y-110251074D01*
X126634419Y-110230250D01*
X126641651Y-110210038D01*
X126650830Y-110190632D01*
X126661866Y-110172219D01*
X126674654Y-110154976D01*
X126689070Y-110139070D01*
X126704976Y-110124654D01*
X126722219Y-110111866D01*
X126740632Y-110100830D01*
X126760038Y-110091651D01*
X126780250Y-110084419D01*
X126801074Y-110079203D01*
X126822309Y-110076053D01*
X126843750Y-110075000D01*
X127356250Y-110075000D01*
X127377691Y-110076053D01*
X127377691Y-110076053D01*
G37*
D21*
X127100000Y-110512500D03*
G04 #@! TD*
D11*
G04 #@! TO.C,R2*
G36*
X128977691Y-97476053D02*
X128998926Y-97479203D01*
X129019750Y-97484419D01*
X129039962Y-97491651D01*
X129059368Y-97500830D01*
X129077781Y-97511866D01*
X129095024Y-97524654D01*
X129110930Y-97539070D01*
X129125346Y-97554976D01*
X129138134Y-97572219D01*
X129149170Y-97590632D01*
X129158349Y-97610038D01*
X129165581Y-97630250D01*
X129170797Y-97651074D01*
X129173947Y-97672309D01*
X129175000Y-97693750D01*
X129175000Y-98131250D01*
X129173947Y-98152691D01*
X129170797Y-98173926D01*
X129165581Y-98194750D01*
X129158349Y-98214962D01*
X129149170Y-98234368D01*
X129138134Y-98252781D01*
X129125346Y-98270024D01*
X129110930Y-98285930D01*
X129095024Y-98300346D01*
X129077781Y-98313134D01*
X129059368Y-98324170D01*
X129039962Y-98333349D01*
X129019750Y-98340581D01*
X128998926Y-98345797D01*
X128977691Y-98348947D01*
X128956250Y-98350000D01*
X128443750Y-98350000D01*
X128422309Y-98348947D01*
X128401074Y-98345797D01*
X128380250Y-98340581D01*
X128360038Y-98333349D01*
X128340632Y-98324170D01*
X128322219Y-98313134D01*
X128304976Y-98300346D01*
X128289070Y-98285930D01*
X128274654Y-98270024D01*
X128261866Y-98252781D01*
X128250830Y-98234368D01*
X128241651Y-98214962D01*
X128234419Y-98194750D01*
X128229203Y-98173926D01*
X128226053Y-98152691D01*
X128225000Y-98131250D01*
X128225000Y-97693750D01*
X128226053Y-97672309D01*
X128229203Y-97651074D01*
X128234419Y-97630250D01*
X128241651Y-97610038D01*
X128250830Y-97590632D01*
X128261866Y-97572219D01*
X128274654Y-97554976D01*
X128289070Y-97539070D01*
X128304976Y-97524654D01*
X128322219Y-97511866D01*
X128340632Y-97500830D01*
X128360038Y-97491651D01*
X128380250Y-97484419D01*
X128401074Y-97479203D01*
X128422309Y-97476053D01*
X128443750Y-97475000D01*
X128956250Y-97475000D01*
X128977691Y-97476053D01*
X128977691Y-97476053D01*
G37*
D21*
X128700000Y-97912500D03*
D11*
G36*
X128977691Y-99051053D02*
X128998926Y-99054203D01*
X129019750Y-99059419D01*
X129039962Y-99066651D01*
X129059368Y-99075830D01*
X129077781Y-99086866D01*
X129095024Y-99099654D01*
X129110930Y-99114070D01*
X129125346Y-99129976D01*
X129138134Y-99147219D01*
X129149170Y-99165632D01*
X129158349Y-99185038D01*
X129165581Y-99205250D01*
X129170797Y-99226074D01*
X129173947Y-99247309D01*
X129175000Y-99268750D01*
X129175000Y-99706250D01*
X129173947Y-99727691D01*
X129170797Y-99748926D01*
X129165581Y-99769750D01*
X129158349Y-99789962D01*
X129149170Y-99809368D01*
X129138134Y-99827781D01*
X129125346Y-99845024D01*
X129110930Y-99860930D01*
X129095024Y-99875346D01*
X129077781Y-99888134D01*
X129059368Y-99899170D01*
X129039962Y-99908349D01*
X129019750Y-99915581D01*
X128998926Y-99920797D01*
X128977691Y-99923947D01*
X128956250Y-99925000D01*
X128443750Y-99925000D01*
X128422309Y-99923947D01*
X128401074Y-99920797D01*
X128380250Y-99915581D01*
X128360038Y-99908349D01*
X128340632Y-99899170D01*
X128322219Y-99888134D01*
X128304976Y-99875346D01*
X128289070Y-99860930D01*
X128274654Y-99845024D01*
X128261866Y-99827781D01*
X128250830Y-99809368D01*
X128241651Y-99789962D01*
X128234419Y-99769750D01*
X128229203Y-99748926D01*
X128226053Y-99727691D01*
X128225000Y-99706250D01*
X128225000Y-99268750D01*
X128226053Y-99247309D01*
X128229203Y-99226074D01*
X128234419Y-99205250D01*
X128241651Y-99185038D01*
X128250830Y-99165632D01*
X128261866Y-99147219D01*
X128274654Y-99129976D01*
X128289070Y-99114070D01*
X128304976Y-99099654D01*
X128322219Y-99086866D01*
X128340632Y-99075830D01*
X128360038Y-99066651D01*
X128380250Y-99059419D01*
X128401074Y-99054203D01*
X128422309Y-99051053D01*
X128443750Y-99050000D01*
X128956250Y-99050000D01*
X128977691Y-99051053D01*
X128977691Y-99051053D01*
G37*
D21*
X128700000Y-99487500D03*
G04 #@! TD*
D11*
G04 #@! TO.C,R3*
G36*
X127488258Y-91876054D02*
X127509493Y-91879204D01*
X127530317Y-91884420D01*
X127550529Y-91891652D01*
X127569935Y-91900831D01*
X127588348Y-91911867D01*
X127605591Y-91924655D01*
X127621497Y-91939071D01*
X127635913Y-91954977D01*
X127648701Y-91972220D01*
X127659737Y-91990633D01*
X127668916Y-92010039D01*
X127676148Y-92030251D01*
X127681364Y-92051075D01*
X127684514Y-92072310D01*
X127685567Y-92093751D01*
X127685567Y-92531251D01*
X127684514Y-92552692D01*
X127681364Y-92573927D01*
X127676148Y-92594751D01*
X127668916Y-92614963D01*
X127659737Y-92634369D01*
X127648701Y-92652782D01*
X127635913Y-92670025D01*
X127621497Y-92685931D01*
X127605591Y-92700347D01*
X127588348Y-92713135D01*
X127569935Y-92724171D01*
X127550529Y-92733350D01*
X127530317Y-92740582D01*
X127509493Y-92745798D01*
X127488258Y-92748948D01*
X127466817Y-92750001D01*
X126954317Y-92750001D01*
X126932876Y-92748948D01*
X126911641Y-92745798D01*
X126890817Y-92740582D01*
X126870605Y-92733350D01*
X126851199Y-92724171D01*
X126832786Y-92713135D01*
X126815543Y-92700347D01*
X126799637Y-92685931D01*
X126785221Y-92670025D01*
X126772433Y-92652782D01*
X126761397Y-92634369D01*
X126752218Y-92614963D01*
X126744986Y-92594751D01*
X126739770Y-92573927D01*
X126736620Y-92552692D01*
X126735567Y-92531251D01*
X126735567Y-92093751D01*
X126736620Y-92072310D01*
X126739770Y-92051075D01*
X126744986Y-92030251D01*
X126752218Y-92010039D01*
X126761397Y-91990633D01*
X126772433Y-91972220D01*
X126785221Y-91954977D01*
X126799637Y-91939071D01*
X126815543Y-91924655D01*
X126832786Y-91911867D01*
X126851199Y-91900831D01*
X126870605Y-91891652D01*
X126890817Y-91884420D01*
X126911641Y-91879204D01*
X126932876Y-91876054D01*
X126954317Y-91875001D01*
X127466817Y-91875001D01*
X127488258Y-91876054D01*
X127488258Y-91876054D01*
G37*
D21*
X127210567Y-92312501D03*
D11*
G36*
X127488258Y-90301054D02*
X127509493Y-90304204D01*
X127530317Y-90309420D01*
X127550529Y-90316652D01*
X127569935Y-90325831D01*
X127588348Y-90336867D01*
X127605591Y-90349655D01*
X127621497Y-90364071D01*
X127635913Y-90379977D01*
X127648701Y-90397220D01*
X127659737Y-90415633D01*
X127668916Y-90435039D01*
X127676148Y-90455251D01*
X127681364Y-90476075D01*
X127684514Y-90497310D01*
X127685567Y-90518751D01*
X127685567Y-90956251D01*
X127684514Y-90977692D01*
X127681364Y-90998927D01*
X127676148Y-91019751D01*
X127668916Y-91039963D01*
X127659737Y-91059369D01*
X127648701Y-91077782D01*
X127635913Y-91095025D01*
X127621497Y-91110931D01*
X127605591Y-91125347D01*
X127588348Y-91138135D01*
X127569935Y-91149171D01*
X127550529Y-91158350D01*
X127530317Y-91165582D01*
X127509493Y-91170798D01*
X127488258Y-91173948D01*
X127466817Y-91175001D01*
X126954317Y-91175001D01*
X126932876Y-91173948D01*
X126911641Y-91170798D01*
X126890817Y-91165582D01*
X126870605Y-91158350D01*
X126851199Y-91149171D01*
X126832786Y-91138135D01*
X126815543Y-91125347D01*
X126799637Y-91110931D01*
X126785221Y-91095025D01*
X126772433Y-91077782D01*
X126761397Y-91059369D01*
X126752218Y-91039963D01*
X126744986Y-91019751D01*
X126739770Y-90998927D01*
X126736620Y-90977692D01*
X126735567Y-90956251D01*
X126735567Y-90518751D01*
X126736620Y-90497310D01*
X126739770Y-90476075D01*
X126744986Y-90455251D01*
X126752218Y-90435039D01*
X126761397Y-90415633D01*
X126772433Y-90397220D01*
X126785221Y-90379977D01*
X126799637Y-90364071D01*
X126815543Y-90349655D01*
X126832786Y-90336867D01*
X126851199Y-90325831D01*
X126870605Y-90316652D01*
X126890817Y-90309420D01*
X126911641Y-90304204D01*
X126932876Y-90301054D01*
X126954317Y-90300001D01*
X127466817Y-90300001D01*
X127488258Y-90301054D01*
X127488258Y-90301054D01*
G37*
D21*
X127210567Y-90737501D03*
G04 #@! TD*
D11*
G04 #@! TO.C,R4*
G36*
X229327691Y-108526053D02*
X229348926Y-108529203D01*
X229369750Y-108534419D01*
X229389962Y-108541651D01*
X229409368Y-108550830D01*
X229427781Y-108561866D01*
X229445024Y-108574654D01*
X229460930Y-108589070D01*
X229475346Y-108604976D01*
X229488134Y-108622219D01*
X229499170Y-108640632D01*
X229508349Y-108660038D01*
X229515581Y-108680250D01*
X229520797Y-108701074D01*
X229523947Y-108722309D01*
X229525000Y-108743750D01*
X229525000Y-109256250D01*
X229523947Y-109277691D01*
X229520797Y-109298926D01*
X229515581Y-109319750D01*
X229508349Y-109339962D01*
X229499170Y-109359368D01*
X229488134Y-109377781D01*
X229475346Y-109395024D01*
X229460930Y-109410930D01*
X229445024Y-109425346D01*
X229427781Y-109438134D01*
X229409368Y-109449170D01*
X229389962Y-109458349D01*
X229369750Y-109465581D01*
X229348926Y-109470797D01*
X229327691Y-109473947D01*
X229306250Y-109475000D01*
X228868750Y-109475000D01*
X228847309Y-109473947D01*
X228826074Y-109470797D01*
X228805250Y-109465581D01*
X228785038Y-109458349D01*
X228765632Y-109449170D01*
X228747219Y-109438134D01*
X228729976Y-109425346D01*
X228714070Y-109410930D01*
X228699654Y-109395024D01*
X228686866Y-109377781D01*
X228675830Y-109359368D01*
X228666651Y-109339962D01*
X228659419Y-109319750D01*
X228654203Y-109298926D01*
X228651053Y-109277691D01*
X228650000Y-109256250D01*
X228650000Y-108743750D01*
X228651053Y-108722309D01*
X228654203Y-108701074D01*
X228659419Y-108680250D01*
X228666651Y-108660038D01*
X228675830Y-108640632D01*
X228686866Y-108622219D01*
X228699654Y-108604976D01*
X228714070Y-108589070D01*
X228729976Y-108574654D01*
X228747219Y-108561866D01*
X228765632Y-108550830D01*
X228785038Y-108541651D01*
X228805250Y-108534419D01*
X228826074Y-108529203D01*
X228847309Y-108526053D01*
X228868750Y-108525000D01*
X229306250Y-108525000D01*
X229327691Y-108526053D01*
X229327691Y-108526053D01*
G37*
D21*
X229087500Y-109000000D03*
D11*
G36*
X227752691Y-108526053D02*
X227773926Y-108529203D01*
X227794750Y-108534419D01*
X227814962Y-108541651D01*
X227834368Y-108550830D01*
X227852781Y-108561866D01*
X227870024Y-108574654D01*
X227885930Y-108589070D01*
X227900346Y-108604976D01*
X227913134Y-108622219D01*
X227924170Y-108640632D01*
X227933349Y-108660038D01*
X227940581Y-108680250D01*
X227945797Y-108701074D01*
X227948947Y-108722309D01*
X227950000Y-108743750D01*
X227950000Y-109256250D01*
X227948947Y-109277691D01*
X227945797Y-109298926D01*
X227940581Y-109319750D01*
X227933349Y-109339962D01*
X227924170Y-109359368D01*
X227913134Y-109377781D01*
X227900346Y-109395024D01*
X227885930Y-109410930D01*
X227870024Y-109425346D01*
X227852781Y-109438134D01*
X227834368Y-109449170D01*
X227814962Y-109458349D01*
X227794750Y-109465581D01*
X227773926Y-109470797D01*
X227752691Y-109473947D01*
X227731250Y-109475000D01*
X227293750Y-109475000D01*
X227272309Y-109473947D01*
X227251074Y-109470797D01*
X227230250Y-109465581D01*
X227210038Y-109458349D01*
X227190632Y-109449170D01*
X227172219Y-109438134D01*
X227154976Y-109425346D01*
X227139070Y-109410930D01*
X227124654Y-109395024D01*
X227111866Y-109377781D01*
X227100830Y-109359368D01*
X227091651Y-109339962D01*
X227084419Y-109319750D01*
X227079203Y-109298926D01*
X227076053Y-109277691D01*
X227075000Y-109256250D01*
X227075000Y-108743750D01*
X227076053Y-108722309D01*
X227079203Y-108701074D01*
X227084419Y-108680250D01*
X227091651Y-108660038D01*
X227100830Y-108640632D01*
X227111866Y-108622219D01*
X227124654Y-108604976D01*
X227139070Y-108589070D01*
X227154976Y-108574654D01*
X227172219Y-108561866D01*
X227190632Y-108550830D01*
X227210038Y-108541651D01*
X227230250Y-108534419D01*
X227251074Y-108529203D01*
X227272309Y-108526053D01*
X227293750Y-108525000D01*
X227731250Y-108525000D01*
X227752691Y-108526053D01*
X227752691Y-108526053D01*
G37*
D21*
X227512500Y-109000000D03*
G04 #@! TD*
D11*
G04 #@! TO.C,R5*
G36*
X231452691Y-103426053D02*
X231473926Y-103429203D01*
X231494750Y-103434419D01*
X231514962Y-103441651D01*
X231534368Y-103450830D01*
X231552781Y-103461866D01*
X231570024Y-103474654D01*
X231585930Y-103489070D01*
X231600346Y-103504976D01*
X231613134Y-103522219D01*
X231624170Y-103540632D01*
X231633349Y-103560038D01*
X231640581Y-103580250D01*
X231645797Y-103601074D01*
X231648947Y-103622309D01*
X231650000Y-103643750D01*
X231650000Y-104156250D01*
X231648947Y-104177691D01*
X231645797Y-104198926D01*
X231640581Y-104219750D01*
X231633349Y-104239962D01*
X231624170Y-104259368D01*
X231613134Y-104277781D01*
X231600346Y-104295024D01*
X231585930Y-104310930D01*
X231570024Y-104325346D01*
X231552781Y-104338134D01*
X231534368Y-104349170D01*
X231514962Y-104358349D01*
X231494750Y-104365581D01*
X231473926Y-104370797D01*
X231452691Y-104373947D01*
X231431250Y-104375000D01*
X230993750Y-104375000D01*
X230972309Y-104373947D01*
X230951074Y-104370797D01*
X230930250Y-104365581D01*
X230910038Y-104358349D01*
X230890632Y-104349170D01*
X230872219Y-104338134D01*
X230854976Y-104325346D01*
X230839070Y-104310930D01*
X230824654Y-104295024D01*
X230811866Y-104277781D01*
X230800830Y-104259368D01*
X230791651Y-104239962D01*
X230784419Y-104219750D01*
X230779203Y-104198926D01*
X230776053Y-104177691D01*
X230775000Y-104156250D01*
X230775000Y-103643750D01*
X230776053Y-103622309D01*
X230779203Y-103601074D01*
X230784419Y-103580250D01*
X230791651Y-103560038D01*
X230800830Y-103540632D01*
X230811866Y-103522219D01*
X230824654Y-103504976D01*
X230839070Y-103489070D01*
X230854976Y-103474654D01*
X230872219Y-103461866D01*
X230890632Y-103450830D01*
X230910038Y-103441651D01*
X230930250Y-103434419D01*
X230951074Y-103429203D01*
X230972309Y-103426053D01*
X230993750Y-103425000D01*
X231431250Y-103425000D01*
X231452691Y-103426053D01*
X231452691Y-103426053D01*
G37*
D21*
X231212500Y-103900000D03*
D11*
G36*
X233027691Y-103426053D02*
X233048926Y-103429203D01*
X233069750Y-103434419D01*
X233089962Y-103441651D01*
X233109368Y-103450830D01*
X233127781Y-103461866D01*
X233145024Y-103474654D01*
X233160930Y-103489070D01*
X233175346Y-103504976D01*
X233188134Y-103522219D01*
X233199170Y-103540632D01*
X233208349Y-103560038D01*
X233215581Y-103580250D01*
X233220797Y-103601074D01*
X233223947Y-103622309D01*
X233225000Y-103643750D01*
X233225000Y-104156250D01*
X233223947Y-104177691D01*
X233220797Y-104198926D01*
X233215581Y-104219750D01*
X233208349Y-104239962D01*
X233199170Y-104259368D01*
X233188134Y-104277781D01*
X233175346Y-104295024D01*
X233160930Y-104310930D01*
X233145024Y-104325346D01*
X233127781Y-104338134D01*
X233109368Y-104349170D01*
X233089962Y-104358349D01*
X233069750Y-104365581D01*
X233048926Y-104370797D01*
X233027691Y-104373947D01*
X233006250Y-104375000D01*
X232568750Y-104375000D01*
X232547309Y-104373947D01*
X232526074Y-104370797D01*
X232505250Y-104365581D01*
X232485038Y-104358349D01*
X232465632Y-104349170D01*
X232447219Y-104338134D01*
X232429976Y-104325346D01*
X232414070Y-104310930D01*
X232399654Y-104295024D01*
X232386866Y-104277781D01*
X232375830Y-104259368D01*
X232366651Y-104239962D01*
X232359419Y-104219750D01*
X232354203Y-104198926D01*
X232351053Y-104177691D01*
X232350000Y-104156250D01*
X232350000Y-103643750D01*
X232351053Y-103622309D01*
X232354203Y-103601074D01*
X232359419Y-103580250D01*
X232366651Y-103560038D01*
X232375830Y-103540632D01*
X232386866Y-103522219D01*
X232399654Y-103504976D01*
X232414070Y-103489070D01*
X232429976Y-103474654D01*
X232447219Y-103461866D01*
X232465632Y-103450830D01*
X232485038Y-103441651D01*
X232505250Y-103434419D01*
X232526074Y-103429203D01*
X232547309Y-103426053D01*
X232568750Y-103425000D01*
X233006250Y-103425000D01*
X233027691Y-103426053D01*
X233027691Y-103426053D01*
G37*
D21*
X232787500Y-103900000D03*
G04 #@! TD*
D11*
G04 #@! TO.C,R6*
G36*
X224727691Y-88026053D02*
X224748926Y-88029203D01*
X224769750Y-88034419D01*
X224789962Y-88041651D01*
X224809368Y-88050830D01*
X224827781Y-88061866D01*
X224845024Y-88074654D01*
X224860930Y-88089070D01*
X224875346Y-88104976D01*
X224888134Y-88122219D01*
X224899170Y-88140632D01*
X224908349Y-88160038D01*
X224915581Y-88180250D01*
X224920797Y-88201074D01*
X224923947Y-88222309D01*
X224925000Y-88243750D01*
X224925000Y-88756250D01*
X224923947Y-88777691D01*
X224920797Y-88798926D01*
X224915581Y-88819750D01*
X224908349Y-88839962D01*
X224899170Y-88859368D01*
X224888134Y-88877781D01*
X224875346Y-88895024D01*
X224860930Y-88910930D01*
X224845024Y-88925346D01*
X224827781Y-88938134D01*
X224809368Y-88949170D01*
X224789962Y-88958349D01*
X224769750Y-88965581D01*
X224748926Y-88970797D01*
X224727691Y-88973947D01*
X224706250Y-88975000D01*
X224268750Y-88975000D01*
X224247309Y-88973947D01*
X224226074Y-88970797D01*
X224205250Y-88965581D01*
X224185038Y-88958349D01*
X224165632Y-88949170D01*
X224147219Y-88938134D01*
X224129976Y-88925346D01*
X224114070Y-88910930D01*
X224099654Y-88895024D01*
X224086866Y-88877781D01*
X224075830Y-88859368D01*
X224066651Y-88839962D01*
X224059419Y-88819750D01*
X224054203Y-88798926D01*
X224051053Y-88777691D01*
X224050000Y-88756250D01*
X224050000Y-88243750D01*
X224051053Y-88222309D01*
X224054203Y-88201074D01*
X224059419Y-88180250D01*
X224066651Y-88160038D01*
X224075830Y-88140632D01*
X224086866Y-88122219D01*
X224099654Y-88104976D01*
X224114070Y-88089070D01*
X224129976Y-88074654D01*
X224147219Y-88061866D01*
X224165632Y-88050830D01*
X224185038Y-88041651D01*
X224205250Y-88034419D01*
X224226074Y-88029203D01*
X224247309Y-88026053D01*
X224268750Y-88025000D01*
X224706250Y-88025000D01*
X224727691Y-88026053D01*
X224727691Y-88026053D01*
G37*
D21*
X224487500Y-88500000D03*
D11*
G36*
X223152691Y-88026053D02*
X223173926Y-88029203D01*
X223194750Y-88034419D01*
X223214962Y-88041651D01*
X223234368Y-88050830D01*
X223252781Y-88061866D01*
X223270024Y-88074654D01*
X223285930Y-88089070D01*
X223300346Y-88104976D01*
X223313134Y-88122219D01*
X223324170Y-88140632D01*
X223333349Y-88160038D01*
X223340581Y-88180250D01*
X223345797Y-88201074D01*
X223348947Y-88222309D01*
X223350000Y-88243750D01*
X223350000Y-88756250D01*
X223348947Y-88777691D01*
X223345797Y-88798926D01*
X223340581Y-88819750D01*
X223333349Y-88839962D01*
X223324170Y-88859368D01*
X223313134Y-88877781D01*
X223300346Y-88895024D01*
X223285930Y-88910930D01*
X223270024Y-88925346D01*
X223252781Y-88938134D01*
X223234368Y-88949170D01*
X223214962Y-88958349D01*
X223194750Y-88965581D01*
X223173926Y-88970797D01*
X223152691Y-88973947D01*
X223131250Y-88975000D01*
X222693750Y-88975000D01*
X222672309Y-88973947D01*
X222651074Y-88970797D01*
X222630250Y-88965581D01*
X222610038Y-88958349D01*
X222590632Y-88949170D01*
X222572219Y-88938134D01*
X222554976Y-88925346D01*
X222539070Y-88910930D01*
X222524654Y-88895024D01*
X222511866Y-88877781D01*
X222500830Y-88859368D01*
X222491651Y-88839962D01*
X222484419Y-88819750D01*
X222479203Y-88798926D01*
X222476053Y-88777691D01*
X222475000Y-88756250D01*
X222475000Y-88243750D01*
X222476053Y-88222309D01*
X222479203Y-88201074D01*
X222484419Y-88180250D01*
X222491651Y-88160038D01*
X222500830Y-88140632D01*
X222511866Y-88122219D01*
X222524654Y-88104976D01*
X222539070Y-88089070D01*
X222554976Y-88074654D01*
X222572219Y-88061866D01*
X222590632Y-88050830D01*
X222610038Y-88041651D01*
X222630250Y-88034419D01*
X222651074Y-88029203D01*
X222672309Y-88026053D01*
X222693750Y-88025000D01*
X223131250Y-88025000D01*
X223152691Y-88026053D01*
X223152691Y-88026053D01*
G37*
D21*
X222912500Y-88500000D03*
G04 #@! TD*
D11*
G04 #@! TO.C,R20*
G36*
X118058258Y-72916054D02*
X118079493Y-72919204D01*
X118100317Y-72924420D01*
X118120529Y-72931652D01*
X118139935Y-72940831D01*
X118158348Y-72951867D01*
X118175591Y-72964655D01*
X118191497Y-72979071D01*
X118205913Y-72994977D01*
X118218701Y-73012220D01*
X118229737Y-73030633D01*
X118238916Y-73050039D01*
X118246148Y-73070251D01*
X118251364Y-73091075D01*
X118254514Y-73112310D01*
X118255567Y-73133751D01*
X118255567Y-73571251D01*
X118254514Y-73592692D01*
X118251364Y-73613927D01*
X118246148Y-73634751D01*
X118238916Y-73654963D01*
X118229737Y-73674369D01*
X118218701Y-73692782D01*
X118205913Y-73710025D01*
X118191497Y-73725931D01*
X118175591Y-73740347D01*
X118158348Y-73753135D01*
X118139935Y-73764171D01*
X118120529Y-73773350D01*
X118100317Y-73780582D01*
X118079493Y-73785798D01*
X118058258Y-73788948D01*
X118036817Y-73790001D01*
X117524317Y-73790001D01*
X117502876Y-73788948D01*
X117481641Y-73785798D01*
X117460817Y-73780582D01*
X117440605Y-73773350D01*
X117421199Y-73764171D01*
X117402786Y-73753135D01*
X117385543Y-73740347D01*
X117369637Y-73725931D01*
X117355221Y-73710025D01*
X117342433Y-73692782D01*
X117331397Y-73674369D01*
X117322218Y-73654963D01*
X117314986Y-73634751D01*
X117309770Y-73613927D01*
X117306620Y-73592692D01*
X117305567Y-73571251D01*
X117305567Y-73133751D01*
X117306620Y-73112310D01*
X117309770Y-73091075D01*
X117314986Y-73070251D01*
X117322218Y-73050039D01*
X117331397Y-73030633D01*
X117342433Y-73012220D01*
X117355221Y-72994977D01*
X117369637Y-72979071D01*
X117385543Y-72964655D01*
X117402786Y-72951867D01*
X117421199Y-72940831D01*
X117440605Y-72931652D01*
X117460817Y-72924420D01*
X117481641Y-72919204D01*
X117502876Y-72916054D01*
X117524317Y-72915001D01*
X118036817Y-72915001D01*
X118058258Y-72916054D01*
X118058258Y-72916054D01*
G37*
D21*
X117780567Y-73352501D03*
D11*
G36*
X118058258Y-71341054D02*
X118079493Y-71344204D01*
X118100317Y-71349420D01*
X118120529Y-71356652D01*
X118139935Y-71365831D01*
X118158348Y-71376867D01*
X118175591Y-71389655D01*
X118191497Y-71404071D01*
X118205913Y-71419977D01*
X118218701Y-71437220D01*
X118229737Y-71455633D01*
X118238916Y-71475039D01*
X118246148Y-71495251D01*
X118251364Y-71516075D01*
X118254514Y-71537310D01*
X118255567Y-71558751D01*
X118255567Y-71996251D01*
X118254514Y-72017692D01*
X118251364Y-72038927D01*
X118246148Y-72059751D01*
X118238916Y-72079963D01*
X118229737Y-72099369D01*
X118218701Y-72117782D01*
X118205913Y-72135025D01*
X118191497Y-72150931D01*
X118175591Y-72165347D01*
X118158348Y-72178135D01*
X118139935Y-72189171D01*
X118120529Y-72198350D01*
X118100317Y-72205582D01*
X118079493Y-72210798D01*
X118058258Y-72213948D01*
X118036817Y-72215001D01*
X117524317Y-72215001D01*
X117502876Y-72213948D01*
X117481641Y-72210798D01*
X117460817Y-72205582D01*
X117440605Y-72198350D01*
X117421199Y-72189171D01*
X117402786Y-72178135D01*
X117385543Y-72165347D01*
X117369637Y-72150931D01*
X117355221Y-72135025D01*
X117342433Y-72117782D01*
X117331397Y-72099369D01*
X117322218Y-72079963D01*
X117314986Y-72059751D01*
X117309770Y-72038927D01*
X117306620Y-72017692D01*
X117305567Y-71996251D01*
X117305567Y-71558751D01*
X117306620Y-71537310D01*
X117309770Y-71516075D01*
X117314986Y-71495251D01*
X117322218Y-71475039D01*
X117331397Y-71455633D01*
X117342433Y-71437220D01*
X117355221Y-71419977D01*
X117369637Y-71404071D01*
X117385543Y-71389655D01*
X117402786Y-71376867D01*
X117421199Y-71365831D01*
X117440605Y-71356652D01*
X117460817Y-71349420D01*
X117481641Y-71344204D01*
X117502876Y-71341054D01*
X117524317Y-71340001D01*
X118036817Y-71340001D01*
X118058258Y-71341054D01*
X118058258Y-71341054D01*
G37*
D21*
X117780567Y-71777501D03*
G04 #@! TD*
D11*
G04 #@! TO.C,R21*
G36*
X116548258Y-71341054D02*
X116569493Y-71344204D01*
X116590317Y-71349420D01*
X116610529Y-71356652D01*
X116629935Y-71365831D01*
X116648348Y-71376867D01*
X116665591Y-71389655D01*
X116681497Y-71404071D01*
X116695913Y-71419977D01*
X116708701Y-71437220D01*
X116719737Y-71455633D01*
X116728916Y-71475039D01*
X116736148Y-71495251D01*
X116741364Y-71516075D01*
X116744514Y-71537310D01*
X116745567Y-71558751D01*
X116745567Y-71996251D01*
X116744514Y-72017692D01*
X116741364Y-72038927D01*
X116736148Y-72059751D01*
X116728916Y-72079963D01*
X116719737Y-72099369D01*
X116708701Y-72117782D01*
X116695913Y-72135025D01*
X116681497Y-72150931D01*
X116665591Y-72165347D01*
X116648348Y-72178135D01*
X116629935Y-72189171D01*
X116610529Y-72198350D01*
X116590317Y-72205582D01*
X116569493Y-72210798D01*
X116548258Y-72213948D01*
X116526817Y-72215001D01*
X116014317Y-72215001D01*
X115992876Y-72213948D01*
X115971641Y-72210798D01*
X115950817Y-72205582D01*
X115930605Y-72198350D01*
X115911199Y-72189171D01*
X115892786Y-72178135D01*
X115875543Y-72165347D01*
X115859637Y-72150931D01*
X115845221Y-72135025D01*
X115832433Y-72117782D01*
X115821397Y-72099369D01*
X115812218Y-72079963D01*
X115804986Y-72059751D01*
X115799770Y-72038927D01*
X115796620Y-72017692D01*
X115795567Y-71996251D01*
X115795567Y-71558751D01*
X115796620Y-71537310D01*
X115799770Y-71516075D01*
X115804986Y-71495251D01*
X115812218Y-71475039D01*
X115821397Y-71455633D01*
X115832433Y-71437220D01*
X115845221Y-71419977D01*
X115859637Y-71404071D01*
X115875543Y-71389655D01*
X115892786Y-71376867D01*
X115911199Y-71365831D01*
X115930605Y-71356652D01*
X115950817Y-71349420D01*
X115971641Y-71344204D01*
X115992876Y-71341054D01*
X116014317Y-71340001D01*
X116526817Y-71340001D01*
X116548258Y-71341054D01*
X116548258Y-71341054D01*
G37*
D21*
X116270567Y-71777501D03*
D11*
G36*
X116548258Y-72916054D02*
X116569493Y-72919204D01*
X116590317Y-72924420D01*
X116610529Y-72931652D01*
X116629935Y-72940831D01*
X116648348Y-72951867D01*
X116665591Y-72964655D01*
X116681497Y-72979071D01*
X116695913Y-72994977D01*
X116708701Y-73012220D01*
X116719737Y-73030633D01*
X116728916Y-73050039D01*
X116736148Y-73070251D01*
X116741364Y-73091075D01*
X116744514Y-73112310D01*
X116745567Y-73133751D01*
X116745567Y-73571251D01*
X116744514Y-73592692D01*
X116741364Y-73613927D01*
X116736148Y-73634751D01*
X116728916Y-73654963D01*
X116719737Y-73674369D01*
X116708701Y-73692782D01*
X116695913Y-73710025D01*
X116681497Y-73725931D01*
X116665591Y-73740347D01*
X116648348Y-73753135D01*
X116629935Y-73764171D01*
X116610529Y-73773350D01*
X116590317Y-73780582D01*
X116569493Y-73785798D01*
X116548258Y-73788948D01*
X116526817Y-73790001D01*
X116014317Y-73790001D01*
X115992876Y-73788948D01*
X115971641Y-73785798D01*
X115950817Y-73780582D01*
X115930605Y-73773350D01*
X115911199Y-73764171D01*
X115892786Y-73753135D01*
X115875543Y-73740347D01*
X115859637Y-73725931D01*
X115845221Y-73710025D01*
X115832433Y-73692782D01*
X115821397Y-73674369D01*
X115812218Y-73654963D01*
X115804986Y-73634751D01*
X115799770Y-73613927D01*
X115796620Y-73592692D01*
X115795567Y-73571251D01*
X115795567Y-73133751D01*
X115796620Y-73112310D01*
X115799770Y-73091075D01*
X115804986Y-73070251D01*
X115812218Y-73050039D01*
X115821397Y-73030633D01*
X115832433Y-73012220D01*
X115845221Y-72994977D01*
X115859637Y-72979071D01*
X115875543Y-72964655D01*
X115892786Y-72951867D01*
X115911199Y-72940831D01*
X115930605Y-72931652D01*
X115950817Y-72924420D01*
X115971641Y-72919204D01*
X115992876Y-72916054D01*
X116014317Y-72915001D01*
X116526817Y-72915001D01*
X116548258Y-72916054D01*
X116548258Y-72916054D01*
G37*
D21*
X116270567Y-73352501D03*
G04 #@! TD*
D11*
G04 #@! TO.C,R23*
G36*
X115077691Y-72951053D02*
X115098926Y-72954203D01*
X115119750Y-72959419D01*
X115139962Y-72966651D01*
X115159368Y-72975830D01*
X115177781Y-72986866D01*
X115195024Y-72999654D01*
X115210930Y-73014070D01*
X115225346Y-73029976D01*
X115238134Y-73047219D01*
X115249170Y-73065632D01*
X115258349Y-73085038D01*
X115265581Y-73105250D01*
X115270797Y-73126074D01*
X115273947Y-73147309D01*
X115275000Y-73168750D01*
X115275000Y-73606250D01*
X115273947Y-73627691D01*
X115270797Y-73648926D01*
X115265581Y-73669750D01*
X115258349Y-73689962D01*
X115249170Y-73709368D01*
X115238134Y-73727781D01*
X115225346Y-73745024D01*
X115210930Y-73760930D01*
X115195024Y-73775346D01*
X115177781Y-73788134D01*
X115159368Y-73799170D01*
X115139962Y-73808349D01*
X115119750Y-73815581D01*
X115098926Y-73820797D01*
X115077691Y-73823947D01*
X115056250Y-73825000D01*
X114543750Y-73825000D01*
X114522309Y-73823947D01*
X114501074Y-73820797D01*
X114480250Y-73815581D01*
X114460038Y-73808349D01*
X114440632Y-73799170D01*
X114422219Y-73788134D01*
X114404976Y-73775346D01*
X114389070Y-73760930D01*
X114374654Y-73745024D01*
X114361866Y-73727781D01*
X114350830Y-73709368D01*
X114341651Y-73689962D01*
X114334419Y-73669750D01*
X114329203Y-73648926D01*
X114326053Y-73627691D01*
X114325000Y-73606250D01*
X114325000Y-73168750D01*
X114326053Y-73147309D01*
X114329203Y-73126074D01*
X114334419Y-73105250D01*
X114341651Y-73085038D01*
X114350830Y-73065632D01*
X114361866Y-73047219D01*
X114374654Y-73029976D01*
X114389070Y-73014070D01*
X114404976Y-72999654D01*
X114422219Y-72986866D01*
X114440632Y-72975830D01*
X114460038Y-72966651D01*
X114480250Y-72959419D01*
X114501074Y-72954203D01*
X114522309Y-72951053D01*
X114543750Y-72950000D01*
X115056250Y-72950000D01*
X115077691Y-72951053D01*
X115077691Y-72951053D01*
G37*
D21*
X114800000Y-73387500D03*
D11*
G36*
X115077691Y-71376053D02*
X115098926Y-71379203D01*
X115119750Y-71384419D01*
X115139962Y-71391651D01*
X115159368Y-71400830D01*
X115177781Y-71411866D01*
X115195024Y-71424654D01*
X115210930Y-71439070D01*
X115225346Y-71454976D01*
X115238134Y-71472219D01*
X115249170Y-71490632D01*
X115258349Y-71510038D01*
X115265581Y-71530250D01*
X115270797Y-71551074D01*
X115273947Y-71572309D01*
X115275000Y-71593750D01*
X115275000Y-72031250D01*
X115273947Y-72052691D01*
X115270797Y-72073926D01*
X115265581Y-72094750D01*
X115258349Y-72114962D01*
X115249170Y-72134368D01*
X115238134Y-72152781D01*
X115225346Y-72170024D01*
X115210930Y-72185930D01*
X115195024Y-72200346D01*
X115177781Y-72213134D01*
X115159368Y-72224170D01*
X115139962Y-72233349D01*
X115119750Y-72240581D01*
X115098926Y-72245797D01*
X115077691Y-72248947D01*
X115056250Y-72250000D01*
X114543750Y-72250000D01*
X114522309Y-72248947D01*
X114501074Y-72245797D01*
X114480250Y-72240581D01*
X114460038Y-72233349D01*
X114440632Y-72224170D01*
X114422219Y-72213134D01*
X114404976Y-72200346D01*
X114389070Y-72185930D01*
X114374654Y-72170024D01*
X114361866Y-72152781D01*
X114350830Y-72134368D01*
X114341651Y-72114962D01*
X114334419Y-72094750D01*
X114329203Y-72073926D01*
X114326053Y-72052691D01*
X114325000Y-72031250D01*
X114325000Y-71593750D01*
X114326053Y-71572309D01*
X114329203Y-71551074D01*
X114334419Y-71530250D01*
X114341651Y-71510038D01*
X114350830Y-71490632D01*
X114361866Y-71472219D01*
X114374654Y-71454976D01*
X114389070Y-71439070D01*
X114404976Y-71424654D01*
X114422219Y-71411866D01*
X114440632Y-71400830D01*
X114460038Y-71391651D01*
X114480250Y-71384419D01*
X114501074Y-71379203D01*
X114522309Y-71376053D01*
X114543750Y-71375000D01*
X115056250Y-71375000D01*
X115077691Y-71376053D01*
X115077691Y-71376053D01*
G37*
D21*
X114800000Y-71812500D03*
G04 #@! TD*
D30*
G04 #@! TO.C,U1*
X123092500Y-108645700D03*
X122457500Y-108645700D03*
X121822500Y-108645700D03*
X121187500Y-108645700D03*
X118012500Y-108645700D03*
X117377500Y-108645700D03*
X116742500Y-108645700D03*
X116107500Y-108645700D03*
X116107500Y-113954300D03*
X116742500Y-113954300D03*
X117377500Y-113954300D03*
X118012500Y-113954300D03*
X121187500Y-113954300D03*
X121822500Y-113954300D03*
X122457500Y-113954300D03*
X123092500Y-113954300D03*
X120552500Y-113954300D03*
X119917500Y-113954300D03*
X119917500Y-108645700D03*
X120552500Y-108645700D03*
X119282500Y-113954300D03*
X118647500Y-113954300D03*
X119282500Y-108645700D03*
X118647500Y-108645700D03*
G04 #@! TD*
G04 #@! TO.C,U2*
X118647500Y-99645700D03*
X119282500Y-99645700D03*
X118647500Y-104954300D03*
X119282500Y-104954300D03*
X120552500Y-99645700D03*
X119917500Y-99645700D03*
X119917500Y-104954300D03*
X120552500Y-104954300D03*
X123092500Y-104954300D03*
X122457500Y-104954300D03*
X121822500Y-104954300D03*
X121187500Y-104954300D03*
X118012500Y-104954300D03*
X117377500Y-104954300D03*
X116742500Y-104954300D03*
X116107500Y-104954300D03*
X116107500Y-99645700D03*
X116742500Y-99645700D03*
X117377500Y-99645700D03*
X118012500Y-99645700D03*
X121187500Y-99645700D03*
X121822500Y-99645700D03*
X122457500Y-99645700D03*
X123092500Y-99645700D03*
G04 #@! TD*
G04 #@! TO.C,U3*
X123092500Y-90645700D03*
X122457500Y-90645700D03*
X121822500Y-90645700D03*
X121187500Y-90645700D03*
X118012500Y-90645700D03*
X117377500Y-90645700D03*
X116742500Y-90645700D03*
X116107500Y-90645700D03*
X116107500Y-95954300D03*
X116742500Y-95954300D03*
X117377500Y-95954300D03*
X118012500Y-95954300D03*
X121187500Y-95954300D03*
X121822500Y-95954300D03*
X122457500Y-95954300D03*
X123092500Y-95954300D03*
X120552500Y-95954300D03*
X119917500Y-95954300D03*
X119917500Y-90645700D03*
X120552500Y-90645700D03*
X119282500Y-95954300D03*
X118647500Y-95954300D03*
X119282500Y-90645700D03*
X118647500Y-90645700D03*
G04 #@! TD*
G04 #@! TO.C,U4*
X219647500Y-108998594D03*
X220282500Y-108998594D03*
X219647500Y-114307194D03*
X220282500Y-114307194D03*
X221552500Y-108998594D03*
X220917500Y-108998594D03*
X220917500Y-114307194D03*
X221552500Y-114307194D03*
X224092500Y-114307194D03*
X223457500Y-114307194D03*
X222822500Y-114307194D03*
X222187500Y-114307194D03*
X219012500Y-114307194D03*
X218377500Y-114307194D03*
X217742500Y-114307194D03*
X217107500Y-114307194D03*
X217107500Y-108998594D03*
X217742500Y-108998594D03*
X218377500Y-108998594D03*
X219012500Y-108998594D03*
X222187500Y-108998594D03*
X222822500Y-108998594D03*
X223457500Y-108998594D03*
X224092500Y-108998594D03*
G04 #@! TD*
G04 #@! TO.C,U5*
X224092500Y-99745700D03*
X223457500Y-99745700D03*
X222822500Y-99745700D03*
X222187500Y-99745700D03*
X219012500Y-99745700D03*
X218377500Y-99745700D03*
X217742500Y-99745700D03*
X217107500Y-99745700D03*
X217107500Y-105054300D03*
X217742500Y-105054300D03*
X218377500Y-105054300D03*
X219012500Y-105054300D03*
X222187500Y-105054300D03*
X222822500Y-105054300D03*
X223457500Y-105054300D03*
X224092500Y-105054300D03*
X221552500Y-105054300D03*
X220917500Y-105054300D03*
X220917500Y-99745700D03*
X221552500Y-99745700D03*
X220282500Y-105054300D03*
X219647500Y-105054300D03*
X220282500Y-99745700D03*
X219647500Y-99745700D03*
G04 #@! TD*
G04 #@! TO.C,U6*
X219647500Y-91045700D03*
X220282500Y-91045700D03*
X219647500Y-96354300D03*
X220282500Y-96354300D03*
X221552500Y-91045700D03*
X220917500Y-91045700D03*
X220917500Y-96354300D03*
X221552500Y-96354300D03*
X224092500Y-96354300D03*
X223457500Y-96354300D03*
X222822500Y-96354300D03*
X222187500Y-96354300D03*
X219012500Y-96354300D03*
X218377500Y-96354300D03*
X217742500Y-96354300D03*
X217107500Y-96354300D03*
X217107500Y-91045700D03*
X217742500Y-91045700D03*
X218377500Y-91045700D03*
X219012500Y-91045700D03*
X222187500Y-91045700D03*
X222822500Y-91045700D03*
X223457500Y-91045700D03*
X224092500Y-91045700D03*
G04 #@! TD*
D31*
G04 #@! TO.C,U10*
X135867000Y-91400000D03*
D11*
G36*
X136292000Y-91900000D02*
X135442000Y-92500000D01*
X135442000Y-90300000D01*
X136292000Y-90900000D01*
X136292000Y-91900000D01*
X136292000Y-91900000D01*
G37*
D32*
X131720000Y-92900000D03*
D33*
X131866500Y-91400000D03*
D32*
X131720000Y-89900000D03*
D34*
X134533500Y-91400000D03*
D35*
X133123800Y-91400000D03*
D11*
G36*
X132623800Y-91000000D02*
X133623800Y-90300000D01*
X133623800Y-92500000D01*
X132623800Y-91800000D01*
X132623800Y-91000000D01*
X132623800Y-91000000D01*
G37*
G04 #@! TD*
G04 #@! TO.C,R33*
G36*
X109577691Y-94651053D02*
X109598926Y-94654203D01*
X109619750Y-94659419D01*
X109639962Y-94666651D01*
X109659368Y-94675830D01*
X109677781Y-94686866D01*
X109695024Y-94699654D01*
X109710930Y-94714070D01*
X109725346Y-94729976D01*
X109738134Y-94747219D01*
X109749170Y-94765632D01*
X109758349Y-94785038D01*
X109765581Y-94805250D01*
X109770797Y-94826074D01*
X109773947Y-94847309D01*
X109775000Y-94868750D01*
X109775000Y-95306250D01*
X109773947Y-95327691D01*
X109770797Y-95348926D01*
X109765581Y-95369750D01*
X109758349Y-95389962D01*
X109749170Y-95409368D01*
X109738134Y-95427781D01*
X109725346Y-95445024D01*
X109710930Y-95460930D01*
X109695024Y-95475346D01*
X109677781Y-95488134D01*
X109659368Y-95499170D01*
X109639962Y-95508349D01*
X109619750Y-95515581D01*
X109598926Y-95520797D01*
X109577691Y-95523947D01*
X109556250Y-95525000D01*
X109043750Y-95525000D01*
X109022309Y-95523947D01*
X109001074Y-95520797D01*
X108980250Y-95515581D01*
X108960038Y-95508349D01*
X108940632Y-95499170D01*
X108922219Y-95488134D01*
X108904976Y-95475346D01*
X108889070Y-95460930D01*
X108874654Y-95445024D01*
X108861866Y-95427781D01*
X108850830Y-95409368D01*
X108841651Y-95389962D01*
X108834419Y-95369750D01*
X108829203Y-95348926D01*
X108826053Y-95327691D01*
X108825000Y-95306250D01*
X108825000Y-94868750D01*
X108826053Y-94847309D01*
X108829203Y-94826074D01*
X108834419Y-94805250D01*
X108841651Y-94785038D01*
X108850830Y-94765632D01*
X108861866Y-94747219D01*
X108874654Y-94729976D01*
X108889070Y-94714070D01*
X108904976Y-94699654D01*
X108922219Y-94686866D01*
X108940632Y-94675830D01*
X108960038Y-94666651D01*
X108980250Y-94659419D01*
X109001074Y-94654203D01*
X109022309Y-94651053D01*
X109043750Y-94650000D01*
X109556250Y-94650000D01*
X109577691Y-94651053D01*
X109577691Y-94651053D01*
G37*
D21*
X109300000Y-95087500D03*
D11*
G36*
X109577691Y-93076053D02*
X109598926Y-93079203D01*
X109619750Y-93084419D01*
X109639962Y-93091651D01*
X109659368Y-93100830D01*
X109677781Y-93111866D01*
X109695024Y-93124654D01*
X109710930Y-93139070D01*
X109725346Y-93154976D01*
X109738134Y-93172219D01*
X109749170Y-93190632D01*
X109758349Y-93210038D01*
X109765581Y-93230250D01*
X109770797Y-93251074D01*
X109773947Y-93272309D01*
X109775000Y-93293750D01*
X109775000Y-93731250D01*
X109773947Y-93752691D01*
X109770797Y-93773926D01*
X109765581Y-93794750D01*
X109758349Y-93814962D01*
X109749170Y-93834368D01*
X109738134Y-93852781D01*
X109725346Y-93870024D01*
X109710930Y-93885930D01*
X109695024Y-93900346D01*
X109677781Y-93913134D01*
X109659368Y-93924170D01*
X109639962Y-93933349D01*
X109619750Y-93940581D01*
X109598926Y-93945797D01*
X109577691Y-93948947D01*
X109556250Y-93950000D01*
X109043750Y-93950000D01*
X109022309Y-93948947D01*
X109001074Y-93945797D01*
X108980250Y-93940581D01*
X108960038Y-93933349D01*
X108940632Y-93924170D01*
X108922219Y-93913134D01*
X108904976Y-93900346D01*
X108889070Y-93885930D01*
X108874654Y-93870024D01*
X108861866Y-93852781D01*
X108850830Y-93834368D01*
X108841651Y-93814962D01*
X108834419Y-93794750D01*
X108829203Y-93773926D01*
X108826053Y-93752691D01*
X108825000Y-93731250D01*
X108825000Y-93293750D01*
X108826053Y-93272309D01*
X108829203Y-93251074D01*
X108834419Y-93230250D01*
X108841651Y-93210038D01*
X108850830Y-93190632D01*
X108861866Y-93172219D01*
X108874654Y-93154976D01*
X108889070Y-93139070D01*
X108904976Y-93124654D01*
X108922219Y-93111866D01*
X108940632Y-93100830D01*
X108960038Y-93091651D01*
X108980250Y-93084419D01*
X109001074Y-93079203D01*
X109022309Y-93076053D01*
X109043750Y-93075000D01*
X109556250Y-93075000D01*
X109577691Y-93076053D01*
X109577691Y-93076053D01*
G37*
D21*
X109300000Y-93512500D03*
G04 #@! TD*
D36*
G04 #@! TO.C,J2*
X236980000Y-109460000D03*
X242020000Y-109460000D03*
X236980000Y-112000000D03*
X242020000Y-112000000D03*
X236980000Y-114540000D03*
X242020000Y-114540000D03*
G04 #@! TD*
D11*
G04 #@! TO.C,R34*
G36*
X79477691Y-101976053D02*
X79498926Y-101979203D01*
X79519750Y-101984419D01*
X79539962Y-101991651D01*
X79559368Y-102000830D01*
X79577781Y-102011866D01*
X79595024Y-102024654D01*
X79610930Y-102039070D01*
X79625346Y-102054976D01*
X79638134Y-102072219D01*
X79649170Y-102090632D01*
X79658349Y-102110038D01*
X79665581Y-102130250D01*
X79670797Y-102151074D01*
X79673947Y-102172309D01*
X79675000Y-102193750D01*
X79675000Y-102631250D01*
X79673947Y-102652691D01*
X79670797Y-102673926D01*
X79665581Y-102694750D01*
X79658349Y-102714962D01*
X79649170Y-102734368D01*
X79638134Y-102752781D01*
X79625346Y-102770024D01*
X79610930Y-102785930D01*
X79595024Y-102800346D01*
X79577781Y-102813134D01*
X79559368Y-102824170D01*
X79539962Y-102833349D01*
X79519750Y-102840581D01*
X79498926Y-102845797D01*
X79477691Y-102848947D01*
X79456250Y-102850000D01*
X78943750Y-102850000D01*
X78922309Y-102848947D01*
X78901074Y-102845797D01*
X78880250Y-102840581D01*
X78860038Y-102833349D01*
X78840632Y-102824170D01*
X78822219Y-102813134D01*
X78804976Y-102800346D01*
X78789070Y-102785930D01*
X78774654Y-102770024D01*
X78761866Y-102752781D01*
X78750830Y-102734368D01*
X78741651Y-102714962D01*
X78734419Y-102694750D01*
X78729203Y-102673926D01*
X78726053Y-102652691D01*
X78725000Y-102631250D01*
X78725000Y-102193750D01*
X78726053Y-102172309D01*
X78729203Y-102151074D01*
X78734419Y-102130250D01*
X78741651Y-102110038D01*
X78750830Y-102090632D01*
X78761866Y-102072219D01*
X78774654Y-102054976D01*
X78789070Y-102039070D01*
X78804976Y-102024654D01*
X78822219Y-102011866D01*
X78840632Y-102000830D01*
X78860038Y-101991651D01*
X78880250Y-101984419D01*
X78901074Y-101979203D01*
X78922309Y-101976053D01*
X78943750Y-101975000D01*
X79456250Y-101975000D01*
X79477691Y-101976053D01*
X79477691Y-101976053D01*
G37*
D21*
X79200000Y-102412500D03*
D11*
G36*
X79477691Y-103551053D02*
X79498926Y-103554203D01*
X79519750Y-103559419D01*
X79539962Y-103566651D01*
X79559368Y-103575830D01*
X79577781Y-103586866D01*
X79595024Y-103599654D01*
X79610930Y-103614070D01*
X79625346Y-103629976D01*
X79638134Y-103647219D01*
X79649170Y-103665632D01*
X79658349Y-103685038D01*
X79665581Y-103705250D01*
X79670797Y-103726074D01*
X79673947Y-103747309D01*
X79675000Y-103768750D01*
X79675000Y-104206250D01*
X79673947Y-104227691D01*
X79670797Y-104248926D01*
X79665581Y-104269750D01*
X79658349Y-104289962D01*
X79649170Y-104309368D01*
X79638134Y-104327781D01*
X79625346Y-104345024D01*
X79610930Y-104360930D01*
X79595024Y-104375346D01*
X79577781Y-104388134D01*
X79559368Y-104399170D01*
X79539962Y-104408349D01*
X79519750Y-104415581D01*
X79498926Y-104420797D01*
X79477691Y-104423947D01*
X79456250Y-104425000D01*
X78943750Y-104425000D01*
X78922309Y-104423947D01*
X78901074Y-104420797D01*
X78880250Y-104415581D01*
X78860038Y-104408349D01*
X78840632Y-104399170D01*
X78822219Y-104388134D01*
X78804976Y-104375346D01*
X78789070Y-104360930D01*
X78774654Y-104345024D01*
X78761866Y-104327781D01*
X78750830Y-104309368D01*
X78741651Y-104289962D01*
X78734419Y-104269750D01*
X78729203Y-104248926D01*
X78726053Y-104227691D01*
X78725000Y-104206250D01*
X78725000Y-103768750D01*
X78726053Y-103747309D01*
X78729203Y-103726074D01*
X78734419Y-103705250D01*
X78741651Y-103685038D01*
X78750830Y-103665632D01*
X78761866Y-103647219D01*
X78774654Y-103629976D01*
X78789070Y-103614070D01*
X78804976Y-103599654D01*
X78822219Y-103586866D01*
X78840632Y-103575830D01*
X78860038Y-103566651D01*
X78880250Y-103559419D01*
X78901074Y-103554203D01*
X78922309Y-103551053D01*
X78943750Y-103550000D01*
X79456250Y-103550000D01*
X79477691Y-103551053D01*
X79477691Y-103551053D01*
G37*
D21*
X79200000Y-103987500D03*
G04 #@! TD*
D11*
G04 #@! TO.C,C7*
G36*
X157152691Y-89326053D02*
X157173926Y-89329203D01*
X157194750Y-89334419D01*
X157214962Y-89341651D01*
X157234368Y-89350830D01*
X157252781Y-89361866D01*
X157270024Y-89374654D01*
X157285930Y-89389070D01*
X157300346Y-89404976D01*
X157313134Y-89422219D01*
X157324170Y-89440632D01*
X157333349Y-89460038D01*
X157340581Y-89480250D01*
X157345797Y-89501074D01*
X157348947Y-89522309D01*
X157350000Y-89543750D01*
X157350000Y-90056250D01*
X157348947Y-90077691D01*
X157345797Y-90098926D01*
X157340581Y-90119750D01*
X157333349Y-90139962D01*
X157324170Y-90159368D01*
X157313134Y-90177781D01*
X157300346Y-90195024D01*
X157285930Y-90210930D01*
X157270024Y-90225346D01*
X157252781Y-90238134D01*
X157234368Y-90249170D01*
X157214962Y-90258349D01*
X157194750Y-90265581D01*
X157173926Y-90270797D01*
X157152691Y-90273947D01*
X157131250Y-90275000D01*
X156693750Y-90275000D01*
X156672309Y-90273947D01*
X156651074Y-90270797D01*
X156630250Y-90265581D01*
X156610038Y-90258349D01*
X156590632Y-90249170D01*
X156572219Y-90238134D01*
X156554976Y-90225346D01*
X156539070Y-90210930D01*
X156524654Y-90195024D01*
X156511866Y-90177781D01*
X156500830Y-90159368D01*
X156491651Y-90139962D01*
X156484419Y-90119750D01*
X156479203Y-90098926D01*
X156476053Y-90077691D01*
X156475000Y-90056250D01*
X156475000Y-89543750D01*
X156476053Y-89522309D01*
X156479203Y-89501074D01*
X156484419Y-89480250D01*
X156491651Y-89460038D01*
X156500830Y-89440632D01*
X156511866Y-89422219D01*
X156524654Y-89404976D01*
X156539070Y-89389070D01*
X156554976Y-89374654D01*
X156572219Y-89361866D01*
X156590632Y-89350830D01*
X156610038Y-89341651D01*
X156630250Y-89334419D01*
X156651074Y-89329203D01*
X156672309Y-89326053D01*
X156693750Y-89325000D01*
X157131250Y-89325000D01*
X157152691Y-89326053D01*
X157152691Y-89326053D01*
G37*
D21*
X156912500Y-89800000D03*
D11*
G36*
X158727691Y-89326053D02*
X158748926Y-89329203D01*
X158769750Y-89334419D01*
X158789962Y-89341651D01*
X158809368Y-89350830D01*
X158827781Y-89361866D01*
X158845024Y-89374654D01*
X158860930Y-89389070D01*
X158875346Y-89404976D01*
X158888134Y-89422219D01*
X158899170Y-89440632D01*
X158908349Y-89460038D01*
X158915581Y-89480250D01*
X158920797Y-89501074D01*
X158923947Y-89522309D01*
X158925000Y-89543750D01*
X158925000Y-90056250D01*
X158923947Y-90077691D01*
X158920797Y-90098926D01*
X158915581Y-90119750D01*
X158908349Y-90139962D01*
X158899170Y-90159368D01*
X158888134Y-90177781D01*
X158875346Y-90195024D01*
X158860930Y-90210930D01*
X158845024Y-90225346D01*
X158827781Y-90238134D01*
X158809368Y-90249170D01*
X158789962Y-90258349D01*
X158769750Y-90265581D01*
X158748926Y-90270797D01*
X158727691Y-90273947D01*
X158706250Y-90275000D01*
X158268750Y-90275000D01*
X158247309Y-90273947D01*
X158226074Y-90270797D01*
X158205250Y-90265581D01*
X158185038Y-90258349D01*
X158165632Y-90249170D01*
X158147219Y-90238134D01*
X158129976Y-90225346D01*
X158114070Y-90210930D01*
X158099654Y-90195024D01*
X158086866Y-90177781D01*
X158075830Y-90159368D01*
X158066651Y-90139962D01*
X158059419Y-90119750D01*
X158054203Y-90098926D01*
X158051053Y-90077691D01*
X158050000Y-90056250D01*
X158050000Y-89543750D01*
X158051053Y-89522309D01*
X158054203Y-89501074D01*
X158059419Y-89480250D01*
X158066651Y-89460038D01*
X158075830Y-89440632D01*
X158086866Y-89422219D01*
X158099654Y-89404976D01*
X158114070Y-89389070D01*
X158129976Y-89374654D01*
X158147219Y-89361866D01*
X158165632Y-89350830D01*
X158185038Y-89341651D01*
X158205250Y-89334419D01*
X158226074Y-89329203D01*
X158247309Y-89326053D01*
X158268750Y-89325000D01*
X158706250Y-89325000D01*
X158727691Y-89326053D01*
X158727691Y-89326053D01*
G37*
D21*
X158487500Y-89800000D03*
G04 #@! TD*
D22*
G04 #@! TO.C,Q7*
X173200000Y-87950000D03*
X173200000Y-89850000D03*
X171200000Y-88900000D03*
G04 #@! TD*
G04 #@! TO.C,Q8*
X169700000Y-93200000D03*
X167700000Y-92250000D03*
X167700000Y-94150000D03*
G04 #@! TD*
G04 #@! TO.C,Q9*
X173200000Y-92250000D03*
X173200000Y-94150000D03*
X171200000Y-93200000D03*
G04 #@! TD*
D11*
G04 #@! TO.C,R35*
G36*
X158727691Y-87626053D02*
X158748926Y-87629203D01*
X158769750Y-87634419D01*
X158789962Y-87641651D01*
X158809368Y-87650830D01*
X158827781Y-87661866D01*
X158845024Y-87674654D01*
X158860930Y-87689070D01*
X158875346Y-87704976D01*
X158888134Y-87722219D01*
X158899170Y-87740632D01*
X158908349Y-87760038D01*
X158915581Y-87780250D01*
X158920797Y-87801074D01*
X158923947Y-87822309D01*
X158925000Y-87843750D01*
X158925000Y-88356250D01*
X158923947Y-88377691D01*
X158920797Y-88398926D01*
X158915581Y-88419750D01*
X158908349Y-88439962D01*
X158899170Y-88459368D01*
X158888134Y-88477781D01*
X158875346Y-88495024D01*
X158860930Y-88510930D01*
X158845024Y-88525346D01*
X158827781Y-88538134D01*
X158809368Y-88549170D01*
X158789962Y-88558349D01*
X158769750Y-88565581D01*
X158748926Y-88570797D01*
X158727691Y-88573947D01*
X158706250Y-88575000D01*
X158268750Y-88575000D01*
X158247309Y-88573947D01*
X158226074Y-88570797D01*
X158205250Y-88565581D01*
X158185038Y-88558349D01*
X158165632Y-88549170D01*
X158147219Y-88538134D01*
X158129976Y-88525346D01*
X158114070Y-88510930D01*
X158099654Y-88495024D01*
X158086866Y-88477781D01*
X158075830Y-88459368D01*
X158066651Y-88439962D01*
X158059419Y-88419750D01*
X158054203Y-88398926D01*
X158051053Y-88377691D01*
X158050000Y-88356250D01*
X158050000Y-87843750D01*
X158051053Y-87822309D01*
X158054203Y-87801074D01*
X158059419Y-87780250D01*
X158066651Y-87760038D01*
X158075830Y-87740632D01*
X158086866Y-87722219D01*
X158099654Y-87704976D01*
X158114070Y-87689070D01*
X158129976Y-87674654D01*
X158147219Y-87661866D01*
X158165632Y-87650830D01*
X158185038Y-87641651D01*
X158205250Y-87634419D01*
X158226074Y-87629203D01*
X158247309Y-87626053D01*
X158268750Y-87625000D01*
X158706250Y-87625000D01*
X158727691Y-87626053D01*
X158727691Y-87626053D01*
G37*
D21*
X158487500Y-88100000D03*
D11*
G36*
X157152691Y-87626053D02*
X157173926Y-87629203D01*
X157194750Y-87634419D01*
X157214962Y-87641651D01*
X157234368Y-87650830D01*
X157252781Y-87661866D01*
X157270024Y-87674654D01*
X157285930Y-87689070D01*
X157300346Y-87704976D01*
X157313134Y-87722219D01*
X157324170Y-87740632D01*
X157333349Y-87760038D01*
X157340581Y-87780250D01*
X157345797Y-87801074D01*
X157348947Y-87822309D01*
X157350000Y-87843750D01*
X157350000Y-88356250D01*
X157348947Y-88377691D01*
X157345797Y-88398926D01*
X157340581Y-88419750D01*
X157333349Y-88439962D01*
X157324170Y-88459368D01*
X157313134Y-88477781D01*
X157300346Y-88495024D01*
X157285930Y-88510930D01*
X157270024Y-88525346D01*
X157252781Y-88538134D01*
X157234368Y-88549170D01*
X157214962Y-88558349D01*
X157194750Y-88565581D01*
X157173926Y-88570797D01*
X157152691Y-88573947D01*
X157131250Y-88575000D01*
X156693750Y-88575000D01*
X156672309Y-88573947D01*
X156651074Y-88570797D01*
X156630250Y-88565581D01*
X156610038Y-88558349D01*
X156590632Y-88549170D01*
X156572219Y-88538134D01*
X156554976Y-88525346D01*
X156539070Y-88510930D01*
X156524654Y-88495024D01*
X156511866Y-88477781D01*
X156500830Y-88459368D01*
X156491651Y-88439962D01*
X156484419Y-88419750D01*
X156479203Y-88398926D01*
X156476053Y-88377691D01*
X156475000Y-88356250D01*
X156475000Y-87843750D01*
X156476053Y-87822309D01*
X156479203Y-87801074D01*
X156484419Y-87780250D01*
X156491651Y-87760038D01*
X156500830Y-87740632D01*
X156511866Y-87722219D01*
X156524654Y-87704976D01*
X156539070Y-87689070D01*
X156554976Y-87674654D01*
X156572219Y-87661866D01*
X156590632Y-87650830D01*
X156610038Y-87641651D01*
X156630250Y-87634419D01*
X156651074Y-87629203D01*
X156672309Y-87626053D01*
X156693750Y-87625000D01*
X157131250Y-87625000D01*
X157152691Y-87626053D01*
X157152691Y-87626053D01*
G37*
D21*
X156912500Y-88100000D03*
G04 #@! TD*
D11*
G04 #@! TO.C,R36*
G36*
X163727691Y-92826053D02*
X163748926Y-92829203D01*
X163769750Y-92834419D01*
X163789962Y-92841651D01*
X163809368Y-92850830D01*
X163827781Y-92861866D01*
X163845024Y-92874654D01*
X163860930Y-92889070D01*
X163875346Y-92904976D01*
X163888134Y-92922219D01*
X163899170Y-92940632D01*
X163908349Y-92960038D01*
X163915581Y-92980250D01*
X163920797Y-93001074D01*
X163923947Y-93022309D01*
X163925000Y-93043750D01*
X163925000Y-93556250D01*
X163923947Y-93577691D01*
X163920797Y-93598926D01*
X163915581Y-93619750D01*
X163908349Y-93639962D01*
X163899170Y-93659368D01*
X163888134Y-93677781D01*
X163875346Y-93695024D01*
X163860930Y-93710930D01*
X163845024Y-93725346D01*
X163827781Y-93738134D01*
X163809368Y-93749170D01*
X163789962Y-93758349D01*
X163769750Y-93765581D01*
X163748926Y-93770797D01*
X163727691Y-93773947D01*
X163706250Y-93775000D01*
X163268750Y-93775000D01*
X163247309Y-93773947D01*
X163226074Y-93770797D01*
X163205250Y-93765581D01*
X163185038Y-93758349D01*
X163165632Y-93749170D01*
X163147219Y-93738134D01*
X163129976Y-93725346D01*
X163114070Y-93710930D01*
X163099654Y-93695024D01*
X163086866Y-93677781D01*
X163075830Y-93659368D01*
X163066651Y-93639962D01*
X163059419Y-93619750D01*
X163054203Y-93598926D01*
X163051053Y-93577691D01*
X163050000Y-93556250D01*
X163050000Y-93043750D01*
X163051053Y-93022309D01*
X163054203Y-93001074D01*
X163059419Y-92980250D01*
X163066651Y-92960038D01*
X163075830Y-92940632D01*
X163086866Y-92922219D01*
X163099654Y-92904976D01*
X163114070Y-92889070D01*
X163129976Y-92874654D01*
X163147219Y-92861866D01*
X163165632Y-92850830D01*
X163185038Y-92841651D01*
X163205250Y-92834419D01*
X163226074Y-92829203D01*
X163247309Y-92826053D01*
X163268750Y-92825000D01*
X163706250Y-92825000D01*
X163727691Y-92826053D01*
X163727691Y-92826053D01*
G37*
D21*
X163487500Y-93300000D03*
D11*
G36*
X162152691Y-92826053D02*
X162173926Y-92829203D01*
X162194750Y-92834419D01*
X162214962Y-92841651D01*
X162234368Y-92850830D01*
X162252781Y-92861866D01*
X162270024Y-92874654D01*
X162285930Y-92889070D01*
X162300346Y-92904976D01*
X162313134Y-92922219D01*
X162324170Y-92940632D01*
X162333349Y-92960038D01*
X162340581Y-92980250D01*
X162345797Y-93001074D01*
X162348947Y-93022309D01*
X162350000Y-93043750D01*
X162350000Y-93556250D01*
X162348947Y-93577691D01*
X162345797Y-93598926D01*
X162340581Y-93619750D01*
X162333349Y-93639962D01*
X162324170Y-93659368D01*
X162313134Y-93677781D01*
X162300346Y-93695024D01*
X162285930Y-93710930D01*
X162270024Y-93725346D01*
X162252781Y-93738134D01*
X162234368Y-93749170D01*
X162214962Y-93758349D01*
X162194750Y-93765581D01*
X162173926Y-93770797D01*
X162152691Y-93773947D01*
X162131250Y-93775000D01*
X161693750Y-93775000D01*
X161672309Y-93773947D01*
X161651074Y-93770797D01*
X161630250Y-93765581D01*
X161610038Y-93758349D01*
X161590632Y-93749170D01*
X161572219Y-93738134D01*
X161554976Y-93725346D01*
X161539070Y-93710930D01*
X161524654Y-93695024D01*
X161511866Y-93677781D01*
X161500830Y-93659368D01*
X161491651Y-93639962D01*
X161484419Y-93619750D01*
X161479203Y-93598926D01*
X161476053Y-93577691D01*
X161475000Y-93556250D01*
X161475000Y-93043750D01*
X161476053Y-93022309D01*
X161479203Y-93001074D01*
X161484419Y-92980250D01*
X161491651Y-92960038D01*
X161500830Y-92940632D01*
X161511866Y-92922219D01*
X161524654Y-92904976D01*
X161539070Y-92889070D01*
X161554976Y-92874654D01*
X161572219Y-92861866D01*
X161590632Y-92850830D01*
X161610038Y-92841651D01*
X161630250Y-92834419D01*
X161651074Y-92829203D01*
X161672309Y-92826053D01*
X161693750Y-92825000D01*
X162131250Y-92825000D01*
X162152691Y-92826053D01*
X162152691Y-92826053D01*
G37*
D21*
X161912500Y-93300000D03*
G04 #@! TD*
D37*
G04 #@! TO.C,U12*
X158450000Y-94000000D03*
X157500000Y-94000000D03*
X156550000Y-94000000D03*
X156550000Y-91800000D03*
X158450000Y-91800000D03*
X157500000Y-91800000D03*
G04 #@! TD*
M02*
